<svg width="306" height="614" xmlns="http://www.w3.org/2000/svg"><path d="M137 11 L136 12 L127 12 L126 13 L121 13 L120 14 L116 14 L115 15 L112 15 L111 16 L107 16 L106 17 L103 17 L102 18 L99 18 L98 19 L96 19 L95 20 L93 20 L92 21 L90 21 L89 22 L87 22 L86 23 L84 23 L83 24 L82 24 L81 25 L79 25 L78 26 L77 26 L76 27 L75 27 L74 28 L73 28 L72 29 L70 29 L69 30 L68 30 L66 32 L65 32 L64 33 L63 33 L62 34 L61 34 L59 36 L58 36 L56 38 L55 38 L51 42 L50 42 L37 55 L37 56 L34 59 L34 60 L32 62 L32 63 L29 66 L29 67 L28 68 L28 69 L26 71 L26 72 L25 73 L25 75 L24 76 L24 77 L23 78 L23 79 L22 80 L22 82 L21 83 L21 84 L20 85 L20 87 L19 88 L19 90 L18 91 L18 93 L17 94 L17 96 L16 97 L16 100 L15 101 L15 104 L14 105 L14 110 L13 111 L13 116 L12 117 L12 126 L11 127 L11 505 L12 506 L12 522 L13 523 L13 557 L14 558 L14 577 L15 578 L15 587 L16 588 L16 592 L17 593 L17 596 L18 597 L18 598 L19 599 L19 600 L21 602 L22 602 L23 603 L24 602 L25 602 L27 600 L27 599 L28 598 L28 595 L29 594 L29 588 L30 587 L30 582 L31 581 L31 577 L32 576 L32 562 L33 561 L33 493 L35 491 L75 491 L77 493 L77 499 L78 500 L78 527 L79 528 L79 555 L80 556 L80 564 L81 565 L81 568 L82 569 L82 573 L83 574 L83 577 L84 578 L84 579 L86 581 L90 581 L91 580 L91 579 L92 578 L92 576 L93 575 L93 571 L94 570 L94 566 L95 565 L95 559 L96 558 L96 544 L97 543 L97 494 L99 492 L118 492 L119 491 L207 491 L208 492 L208 493 L209 494 L209 520 L210 521 L210 550 L211 551 L211 567 L212 568 L212 572 L213 573 L213 576 L214 577 L214 578 L217 581 L220 581 L223 578 L223 576 L224 575 L224 573 L225 572 L225 568 L226 567 L226 563 L227 562 L227 555 L228 554 L228 493 L229 492 L271 492 L272 493 L272 561 L273 562 L273 576 L274 577 L274 582 L275 583 L275 587 L276 588 L276 591 L277 592 L277 595 L278 596 L278 597 L282 601 L285 601 L286 600 L286 599 L287 598 L287 596 L288 595 L288 591 L289 590 L289 586 L290 585 L290 582 L291 581 L291 576 L292 575 L292 566 L293 565 L293 499 L294 498 L294 497 L293 496 L293 426 L294 425 L294 316 L293 315 L293 263 L294 262 L294 213 L293 212 L293 176 L294 175 L294 140 L293 139 L293 113 L292 112 L292 106 L291 105 L291 100 L290 99 L290 96 L289 95 L289 92 L288 91 L288 89 L287 88 L287 86 L286 85 L286 84 L285 83 L285 81 L284 80 L284 79 L283 78 L283 77 L282 76 L282 75 L281 74 L281 73 L280 72 L280 71 L278 69 L278 68 L276 66 L276 65 L274 63 L274 62 L271 59 L271 58 L256 43 L255 43 L251 39 L250 39 L247 36 L246 36 L244 34 L243 34 L241 32 L240 32 L239 31 L238 31 L237 30 L236 30 L235 29 L234 29 L233 28 L232 28 L231 27 L230 27 L229 26 L228 26 L227 25 L225 25 L224 24 L223 24 L222 23 L220 23 L219 22 L217 22 L216 21 L215 21 L214 20 L212 20 L211 19 L208 19 L207 18 L205 18 L204 17 L201 17 L200 16 L196 16 L195 15 L191 15 L190 14 L186 14 L185 13 L181 13 L180 12 L174 12 L173 11 Z " fill="black"/></svg>