<svg width="338" height="436" xmlns="http://www.w3.org/2000/svg"><path d="M161 11 L160 12 L158 12 L157 13 L156 13 L155 14 L154 14 L152 16 L151 16 L143 24 L143 25 L141 27 L141 28 L140 29 L140 30 L139 31 L138 30 L138 29 L137 28 L137 26 L136 25 L136 24 L135 23 L135 21 L134 20 L134 19 L132 17 L131 17 L130 16 L127 16 L126 17 L125 17 L120 22 L120 23 L119 24 L119 25 L118 26 L118 27 L117 28 L117 30 L116 31 L116 34 L115 35 L115 36 L114 37 L113 36 L113 35 L112 34 L112 33 L111 32 L111 31 L110 30 L110 29 L109 28 L109 27 L105 23 L104 23 L103 22 L102 22 L100 20 L99 20 L98 19 L94 19 L93 20 L89 20 L83 26 L83 27 L81 29 L81 30 L80 31 L80 32 L79 33 L79 35 L78 36 L78 44 L79 45 L79 47 L80 48 L80 50 L81 51 L81 52 L82 53 L82 54 L84 56 L84 57 L89 62 L90 62 L91 63 L91 64 L92 64 L93 65 L92 66 L88 66 L87 65 L81 65 L80 66 L79 66 L78 67 L77 67 L75 69 L74 69 L69 74 L69 75 L68 76 L68 82 L69 83 L69 84 L70 85 L70 86 L77 93 L77 94 L79 96 L79 97 L78 98 L77 97 L71 97 L70 98 L69 98 L68 99 L67 99 L64 102 L64 104 L62 106 L60 106 L59 105 L59 103 L58 102 L58 97 L57 96 L57 95 L56 94 L56 93 L54 91 L54 90 L53 89 L53 88 L51 86 L51 85 L44 78 L44 77 L41 74 L40 74 L38 72 L35 72 L34 71 L31 71 L30 72 L29 72 L28 73 L27 73 L24 76 L24 77 L22 79 L22 81 L21 82 L21 86 L20 87 L20 105 L23 108 L23 109 L25 111 L25 112 L26 113 L26 114 L29 117 L30 117 L31 118 L33 118 L34 119 L36 119 L37 120 L39 120 L40 121 L41 121 L42 122 L42 125 L43 126 L43 133 L44 134 L44 136 L45 137 L45 139 L46 140 L46 142 L47 143 L47 144 L48 145 L48 146 L49 147 L49 149 L48 150 L47 149 L47 148 L40 141 L39 141 L37 139 L36 139 L35 138 L34 138 L33 137 L30 137 L29 136 L26 136 L25 137 L23 137 L22 138 L21 138 L20 139 L19 139 L18 140 L16 140 L13 143 L13 144 L12 145 L12 147 L11 148 L11 156 L12 157 L12 158 L13 159 L13 160 L14 161 L14 164 L15 165 L15 166 L18 169 L19 169 L21 171 L22 171 L23 172 L24 172 L25 173 L26 173 L27 174 L29 174 L30 175 L33 175 L34 176 L42 176 L43 177 L59 177 L61 179 L61 180 L58 183 L57 183 L56 184 L55 184 L54 185 L53 185 L52 186 L50 186 L49 187 L48 187 L47 188 L45 188 L44 189 L43 189 L40 192 L40 193 L39 194 L39 195 L38 196 L38 200 L39 201 L39 202 L41 204 L41 205 L44 208 L45 208 L50 213 L49 214 L49 216 L48 217 L48 246 L49 247 L49 256 L51 258 L51 261 L52 262 L52 264 L53 265 L53 266 L54 267 L54 268 L56 270 L56 271 L57 272 L58 272 L60 274 L61 274 L63 276 L63 279 L64 280 L64 285 L65 286 L65 287 L66 288 L66 290 L67 291 L67 293 L68 294 L68 298 L69 299 L69 303 L70 304 L70 307 L71 308 L71 311 L72 312 L72 315 L73 316 L73 319 L74 320 L74 323 L75 324 L75 328 L76 329 L76 332 L77 333 L77 337 L78 338 L78 343 L79 344 L79 346 L80 347 L80 348 L81 349 L81 351 L82 352 L82 356 L80 358 L79 358 L78 359 L77 359 L74 362 L73 362 L70 365 L70 367 L69 368 L69 373 L68 374 L68 379 L69 380 L69 381 L70 382 L70 383 L71 384 L71 385 L73 387 L73 388 L74 389 L74 390 L83 399 L83 400 L85 402 L85 403 L86 404 L86 405 L88 407 L88 408 L89 408 L90 409 L90 410 L92 412 L93 412 L94 413 L95 413 L97 415 L99 415 L100 416 L102 416 L103 417 L105 417 L106 418 L108 418 L109 419 L112 419 L113 420 L118 420 L119 421 L121 421 L122 422 L127 422 L128 423 L147 423 L148 424 L168 424 L169 423 L203 423 L204 422 L211 422 L212 421 L216 421 L217 420 L220 420 L221 419 L223 419 L224 418 L226 418 L227 417 L229 417 L230 416 L233 416 L234 415 L235 415 L236 414 L237 414 L244 407 L245 407 L250 402 L250 400 L251 399 L251 397 L252 396 L252 394 L253 393 L253 392 L256 389 L257 389 L259 387 L259 386 L262 383 L262 380 L263 379 L263 372 L262 371 L262 370 L263 369 L263 367 L262 366 L262 364 L260 362 L260 361 L259 361 L256 358 L254 358 L253 357 L252 357 L251 356 L249 356 L247 354 L248 353 L248 352 L249 351 L249 349 L250 348 L250 345 L251 344 L251 340 L252 339 L252 331 L253 330 L253 327 L254 326 L254 324 L255 323 L255 322 L256 321 L256 319 L257 318 L257 316 L258 315 L258 310 L259 309 L259 306 L260 305 L260 302 L261 301 L261 298 L262 297 L262 293 L263 292 L263 287 L264 286 L264 281 L265 280 L265 278 L267 276 L268 276 L270 274 L271 274 L273 272 L273 271 L274 270 L274 268 L275 267 L275 265 L276 264 L276 262 L277 261 L277 258 L278 257 L277 256 L278 255 L278 252 L279 251 L279 222 L278 221 L278 220 L275 217 L275 216 L274 215 L273 215 L272 214 L272 213 L268 209 L270 207 L275 207 L276 206 L278 206 L279 205 L280 205 L284 201 L284 200 L285 199 L285 196 L284 195 L284 194 L283 193 L283 192 L280 189 L278 189 L277 188 L276 188 L275 187 L274 187 L273 186 L272 186 L271 185 L268 185 L267 184 L265 184 L264 183 L261 183 L260 182 L257 182 L256 181 L256 180 L257 179 L257 178 L258 177 L270 177 L271 178 L274 178 L275 179 L278 179 L279 180 L280 180 L281 181 L282 181 L283 182 L284 182 L286 184 L298 184 L299 183 L301 183 L302 182 L303 182 L304 181 L306 181 L307 180 L308 180 L310 178 L311 178 L315 174 L315 173 L316 172 L316 167 L314 165 L313 165 L311 163 L305 163 L304 162 L301 162 L300 161 L298 161 L297 160 L294 160 L293 159 L291 159 L290 158 L288 158 L287 157 L283 157 L281 155 L281 154 L282 153 L282 151 L283 150 L283 149 L285 147 L286 147 L288 145 L289 145 L292 142 L292 139 L293 138 L293 134 L292 133 L292 131 L293 130 L294 130 L295 129 L297 129 L298 128 L300 128 L301 127 L304 127 L305 126 L307 126 L308 125 L310 125 L311 124 L312 124 L314 122 L315 122 L319 118 L320 118 L320 117 L321 116 L321 115 L322 114 L322 113 L323 112 L323 110 L324 109 L324 106 L325 105 L325 104 L326 103 L326 98 L327 97 L326 96 L326 93 L325 92 L325 91 L324 90 L324 88 L323 87 L322 87 L320 85 L319 85 L318 84 L316 84 L315 83 L307 83 L305 85 L304 85 L296 93 L295 93 L294 94 L292 94 L291 93 L291 87 L292 86 L292 76 L291 75 L291 69 L288 66 L288 65 L284 61 L283 61 L282 60 L280 60 L279 59 L274 59 L273 60 L271 60 L267 64 L267 66 L266 67 L266 68 L265 69 L264 68 L264 65 L265 64 L265 59 L266 58 L266 51 L265 50 L265 48 L261 44 L260 44 L259 43 L258 43 L257 44 L256 44 L249 51 L249 52 L248 53 L248 54 L247 55 L247 57 L246 58 L246 60 L245 61 L245 63 L244 64 L244 65 L243 66 L243 67 L242 68 L242 69 L240 71 L239 70 L239 69 L238 68 L238 66 L237 65 L237 63 L236 62 L236 60 L235 59 L235 58 L234 57 L234 56 L229 51 L228 51 L225 48 L216 48 L215 49 L214 49 L209 54 L209 55 L208 56 L208 57 L207 58 L207 62 L205 64 L205 65 L204 66 L203 66 L202 65 L202 63 L201 62 L201 51 L200 50 L200 46 L199 45 L199 44 L198 43 L198 42 L197 41 L197 40 L193 36 L193 35 L191 33 L190 33 L189 32 L188 32 L187 33 L186 33 L179 40 L179 41 L177 43 L177 44 L176 45 L176 47 L175 48 L175 51 L174 52 L174 56 L175 57 L175 59 L176 60 L176 62 L177 63 L177 65 L178 66 L178 67 L179 68 L179 70 L180 71 L180 73 L178 75 L176 75 L175 76 L174 76 L173 77 L172 77 L170 79 L169 79 L168 80 L167 80 L165 82 L162 79 L162 78 L161 77 L160 77 L155 72 L155 71 L151 67 L151 62 L155 58 L156 58 L163 51 L163 50 L164 49 L164 48 L165 47 L165 46 L166 45 L166 44 L167 43 L167 41 L168 40 L168 38 L169 37 L169 35 L170 34 L170 30 L171 29 L171 25 L170 24 L170 19 L169 18 L169 17 L168 16 L168 15 L165 12 L164 12 L163 11 Z " fill="black"/></svg>