<svg width="415" height="581" xmlns="http://www.w3.org/2000/svg"><path d="M149 11 L148 12 L148 19 L147 20 L147 22 L146 23 L146 31 L145 32 L145 35 L144 36 L144 56 L143 57 L143 75 L144 76 L144 79 L145 80 L145 83 L146 84 L146 86 L147 87 L147 89 L148 90 L148 92 L149 93 L149 95 L150 96 L150 97 L154 101 L154 102 L160 108 L160 109 L161 109 L164 112 L165 112 L167 114 L168 114 L169 115 L170 115 L173 118 L174 118 L181 125 L181 126 L182 127 L182 128 L183 129 L183 131 L184 132 L184 134 L185 135 L185 140 L186 141 L186 147 L187 148 L187 161 L188 162 L188 173 L187 174 L186 174 L185 173 L185 172 L184 171 L183 171 L182 170 L181 170 L180 169 L179 169 L177 167 L175 167 L174 166 L172 166 L169 163 L170 162 L173 162 L174 163 L175 163 L176 164 L178 164 L179 165 L180 165 L181 166 L183 166 L182 165 L182 164 L181 163 L180 163 L179 162 L178 162 L177 161 L176 161 L175 160 L174 160 L173 159 L172 159 L171 158 L170 158 L169 157 L168 157 L156 145 L156 144 L153 141 L153 140 L152 140 L150 138 L150 137 L149 137 L148 136 L147 136 L146 137 L146 139 L147 140 L147 141 L148 142 L148 143 L149 144 L149 146 L150 147 L150 149 L151 150 L151 154 L152 155 L152 163 L151 164 L151 170 L150 171 L150 177 L149 178 L149 191 L148 192 L148 197 L147 198 L147 209 L146 210 L146 221 L147 222 L147 228 L148 229 L148 233 L149 234 L149 238 L150 239 L150 241 L151 242 L151 243 L152 244 L150 246 L149 245 L149 244 L147 242 L147 241 L146 240 L146 239 L145 238 L145 237 L143 235 L143 234 L142 233 L142 232 L140 230 L140 229 L139 228 L139 225 L138 224 L138 223 L137 222 L137 220 L136 219 L136 217 L135 216 L135 213 L134 212 L134 209 L133 208 L133 205 L132 204 L132 202 L131 201 L131 199 L130 198 L130 183 L131 182 L131 175 L132 174 L132 160 L131 159 L131 157 L130 156 L130 154 L129 153 L129 150 L128 149 L128 147 L127 146 L127 145 L121 139 L120 139 L112 131 L111 131 L110 130 L108 130 L107 129 L106 129 L105 128 L103 128 L98 123 L97 123 L94 120 L93 120 L89 116 L89 114 L87 112 L87 111 L84 108 L84 107 L83 107 L82 108 L82 111 L83 112 L83 113 L84 114 L84 115 L85 116 L85 123 L86 124 L85 125 L85 135 L84 136 L84 155 L85 156 L85 158 L86 159 L86 162 L87 163 L87 166 L88 167 L88 169 L89 170 L89 172 L90 173 L90 174 L92 176 L92 177 L106 191 L107 191 L108 192 L110 192 L111 193 L116 193 L117 194 L118 194 L122 198 L122 199 L123 200 L123 203 L124 204 L124 205 L125 206 L125 212 L126 213 L126 216 L127 217 L127 219 L128 220 L128 223 L127 224 L126 223 L125 223 L122 220 L121 220 L120 219 L119 219 L118 218 L113 218 L112 217 L110 217 L109 216 L106 216 L104 214 L103 214 L102 213 L101 213 L100 212 L99 212 L98 211 L96 211 L95 210 L94 210 L93 209 L88 209 L87 208 L79 208 L78 209 L76 209 L74 211 L73 211 L72 212 L71 212 L70 213 L69 212 L63 212 L62 211 L59 211 L58 210 L56 210 L55 209 L38 209 L37 210 L36 210 L35 211 L34 211 L33 212 L32 212 L30 214 L29 214 L27 216 L26 216 L23 219 L22 219 L21 220 L20 220 L13 227 L13 228 L12 229 L12 230 L11 231 L12 232 L15 232 L16 231 L18 231 L20 229 L21 229 L24 226 L25 226 L27 224 L29 224 L30 223 L33 223 L34 224 L39 224 L40 225 L43 225 L44 226 L46 226 L47 227 L48 227 L49 228 L50 228 L51 229 L52 229 L53 230 L55 230 L56 231 L57 231 L58 232 L59 232 L60 233 L62 233 L63 234 L65 234 L66 235 L68 235 L69 236 L72 236 L73 237 L74 237 L76 239 L76 240 L77 241 L77 243 L78 244 L78 247 L79 248 L79 251 L81 253 L81 254 L83 256 L84 256 L85 257 L86 257 L87 256 L89 256 L90 255 L91 256 L94 256 L97 259 L97 261 L96 262 L96 263 L95 264 L95 266 L92 269 L92 270 L91 271 L91 272 L90 273 L88 273 L84 269 L84 268 L83 267 L82 267 L81 266 L78 266 L77 265 L67 265 L66 264 L63 264 L62 263 L60 263 L59 262 L58 262 L57 261 L55 261 L54 260 L53 260 L52 259 L50 259 L49 258 L47 258 L46 257 L45 257 L44 256 L40 256 L40 259 L41 260 L44 260 L46 262 L47 262 L52 267 L52 268 L59 275 L59 276 L63 280 L63 281 L65 283 L65 284 L67 286 L67 287 L69 289 L69 290 L71 292 L71 293 L74 296 L74 297 L76 299 L76 300 L78 302 L78 303 L83 308 L84 308 L85 309 L86 309 L87 310 L88 310 L89 311 L90 311 L91 312 L92 312 L93 313 L94 313 L95 314 L96 314 L97 315 L98 315 L99 316 L100 316 L101 317 L102 317 L103 318 L105 318 L107 320 L108 320 L114 326 L113 327 L109 327 L108 326 L106 326 L101 321 L78 321 L77 322 L75 322 L74 323 L72 323 L71 324 L69 324 L68 325 L67 325 L65 327 L64 327 L60 331 L60 332 L59 333 L59 334 L57 336 L57 337 L56 338 L56 339 L54 341 L54 342 L53 343 L53 345 L51 347 L51 348 L40 359 L39 359 L33 365 L33 366 L32 367 L32 368 L31 369 L31 370 L30 371 L30 373 L29 374 L29 376 L28 377 L28 381 L30 381 L37 374 L38 374 L40 372 L41 372 L42 371 L43 371 L44 370 L45 370 L46 369 L48 369 L49 368 L50 368 L52 366 L53 366 L54 365 L55 365 L57 363 L58 363 L59 362 L61 362 L62 361 L64 361 L65 360 L69 360 L70 359 L91 359 L92 358 L102 358 L103 357 L105 357 L107 355 L107 354 L108 353 L108 351 L109 350 L110 351 L110 353 L113 353 L114 352 L115 352 L116 351 L117 351 L119 349 L120 349 L122 347 L127 347 L128 348 L128 349 L129 350 L129 351 L130 352 L130 354 L131 355 L131 356 L132 357 L132 358 L133 359 L132 360 L131 360 L130 361 L128 361 L127 362 L125 362 L124 363 L123 363 L122 364 L120 364 L119 365 L118 365 L117 366 L116 366 L115 367 L114 367 L113 368 L112 368 L111 369 L110 369 L109 370 L108 370 L106 372 L105 372 L101 376 L100 376 L91 385 L91 386 L90 387 L90 388 L89 389 L89 391 L90 392 L90 394 L91 394 L92 393 L93 393 L94 392 L95 392 L95 391 L97 389 L97 388 L100 385 L101 385 L102 386 L102 391 L101 392 L101 395 L102 396 L102 410 L103 411 L103 418 L104 419 L104 421 L105 422 L105 424 L106 425 L106 431 L107 432 L107 439 L108 440 L108 447 L109 448 L109 451 L110 452 L110 454 L111 455 L111 458 L112 459 L112 465 L113 466 L113 471 L114 472 L114 477 L115 478 L115 484 L116 485 L116 490 L117 491 L117 494 L118 495 L118 497 L119 498 L119 504 L120 505 L120 507 L121 508 L121 512 L122 513 L122 519 L123 520 L123 523 L124 524 L124 526 L125 527 L125 529 L126 530 L126 531 L128 533 L128 536 L129 537 L129 541 L130 542 L130 543 L131 544 L131 546 L132 547 L132 549 L137 554 L137 555 L138 556 L139 556 L140 557 L141 557 L142 558 L145 558 L146 559 L148 559 L149 560 L152 560 L153 561 L154 561 L155 562 L157 562 L158 563 L160 563 L161 564 L169 564 L170 565 L172 565 L173 566 L177 566 L178 567 L181 567 L182 568 L194 568 L195 569 L225 569 L226 568 L227 568 L228 569 L229 568 L237 568 L238 567 L240 567 L241 566 L247 566 L248 565 L251 565 L253 563 L254 563 L255 562 L258 562 L259 561 L261 561 L262 560 L263 560 L264 559 L266 559 L267 558 L268 558 L269 557 L270 557 L271 556 L272 556 L273 555 L274 555 L280 549 L280 548 L281 547 L281 544 L282 543 L282 539 L283 538 L283 534 L284 533 L284 527 L285 526 L285 523 L286 522 L286 514 L287 513 L287 509 L288 508 L288 507 L289 506 L289 500 L290 499 L290 496 L291 495 L291 489 L292 488 L292 484 L293 483 L293 478 L294 477 L294 471 L295 470 L295 466 L296 465 L296 461 L297 460 L297 455 L298 454 L298 452 L299 451 L299 446 L300 445 L300 443 L301 442 L301 438 L302 437 L302 433 L303 432 L303 429 L304 428 L304 425 L305 424 L305 420 L306 419 L306 409 L307 408 L307 403 L308 402 L308 392 L307 391 L307 389 L306 388 L306 387 L300 381 L300 380 L299 380 L298 379 L297 379 L296 378 L295 378 L294 377 L293 377 L292 376 L290 376 L289 375 L285 375 L284 374 L282 374 L281 373 L279 373 L275 369 L275 367 L274 366 L274 365 L273 364 L274 363 L275 363 L276 364 L278 364 L279 365 L281 365 L282 366 L283 366 L284 367 L286 367 L287 368 L288 368 L289 369 L291 369 L292 370 L293 370 L294 371 L296 371 L297 372 L299 372 L300 373 L301 373 L306 378 L306 379 L307 380 L307 381 L308 382 L308 383 L309 384 L309 385 L310 386 L310 387 L312 389 L312 390 L314 392 L314 393 L319 398 L321 398 L321 395 L322 394 L322 380 L321 379 L321 377 L320 376 L320 375 L319 374 L319 373 L320 372 L327 372 L328 371 L334 371 L335 370 L346 370 L348 372 L349 372 L351 374 L352 374 L353 375 L354 375 L356 377 L357 377 L358 378 L360 378 L363 381 L364 381 L365 380 L365 376 L364 375 L364 374 L362 372 L361 372 L358 369 L356 369 L353 366 L352 366 L350 364 L349 364 L348 363 L347 363 L346 362 L344 362 L343 361 L339 361 L338 360 L336 360 L333 357 L333 354 L331 354 L330 353 L329 353 L328 352 L327 352 L325 350 L324 350 L318 344 L317 344 L316 343 L314 343 L313 342 L312 342 L311 341 L307 341 L306 340 L297 340 L296 339 L273 339 L272 340 L265 340 L264 341 L261 341 L260 342 L259 342 L258 343 L256 343 L255 344 L254 344 L250 348 L249 348 L248 347 L249 346 L249 344 L250 343 L250 342 L251 341 L251 340 L253 338 L253 337 L255 335 L255 334 L260 329 L261 329 L262 328 L270 328 L271 329 L273 329 L274 330 L275 330 L276 331 L280 331 L281 332 L300 332 L301 331 L305 331 L306 330 L310 330 L311 329 L320 329 L321 328 L336 328 L337 329 L346 329 L347 330 L357 330 L358 331 L361 331 L362 332 L364 332 L365 333 L366 333 L367 334 L368 334 L369 335 L370 335 L371 336 L372 336 L373 337 L374 337 L375 338 L376 338 L377 339 L378 339 L379 340 L382 340 L382 337 L381 336 L381 334 L378 331 L378 330 L376 328 L376 327 L374 325 L374 324 L373 323 L373 321 L370 318 L370 317 L367 314 L367 313 L362 308 L361 308 L359 306 L358 306 L357 305 L356 305 L355 304 L354 304 L353 303 L352 303 L351 302 L349 302 L348 301 L347 301 L346 300 L344 300 L342 298 L342 297 L345 294 L346 294 L348 292 L349 292 L350 291 L351 291 L357 285 L357 283 L362 278 L363 278 L364 277 L366 277 L367 276 L368 276 L369 275 L371 275 L372 274 L373 274 L374 273 L376 273 L377 272 L378 272 L379 271 L391 271 L392 272 L396 272 L396 270 L397 269 L395 267 L394 267 L393 266 L389 266 L388 265 L385 265 L384 264 L381 264 L380 263 L377 263 L376 262 L370 262 L369 263 L367 263 L366 262 L365 263 L360 263 L359 264 L356 264 L355 265 L353 265 L352 266 L350 266 L349 267 L346 267 L345 268 L343 268 L342 269 L339 269 L338 270 L337 270 L336 271 L333 271 L332 272 L330 272 L328 270 L328 269 L327 268 L327 267 L326 267 L325 266 L324 266 L323 265 L321 265 L320 264 L317 264 L316 263 L310 263 L309 262 L308 263 L307 262 L305 262 L304 261 L306 259 L307 259 L311 255 L312 255 L312 254 L315 251 L316 251 L318 249 L319 249 L320 248 L321 248 L322 247 L323 247 L324 246 L325 246 L326 245 L327 245 L328 244 L329 244 L330 243 L331 243 L332 242 L334 242 L335 241 L336 241 L337 240 L338 240 L349 229 L349 228 L351 226 L351 225 L352 224 L352 223 L354 221 L354 219 L355 218 L355 217 L356 216 L356 215 L357 214 L357 213 L358 212 L358 211 L359 210 L359 208 L360 207 L360 206 L361 205 L361 204 L362 203 L362 202 L366 198 L367 198 L368 197 L369 197 L370 196 L372 196 L373 195 L375 195 L376 194 L378 194 L379 193 L382 193 L383 192 L391 192 L392 193 L394 193 L396 195 L397 195 L398 196 L399 196 L400 197 L402 197 L403 196 L403 194 L399 190 L398 190 L396 188 L395 188 L393 186 L391 186 L390 185 L389 185 L388 184 L386 184 L385 183 L381 183 L380 182 L376 182 L375 181 L364 181 L363 182 L358 182 L357 183 L354 183 L353 184 L350 184 L349 185 L347 185 L346 186 L344 186 L343 187 L342 187 L341 188 L339 188 L338 189 L337 189 L336 190 L335 190 L333 192 L332 192 L325 199 L325 200 L322 203 L321 203 L320 202 L318 202 L318 203 L313 208 L312 208 L310 210 L308 208 L308 207 L310 205 L311 206 L311 205 L315 201 L316 201 L318 199 L319 199 L320 198 L320 195 L318 195 L317 196 L315 196 L314 197 L313 197 L311 199 L310 199 L308 201 L307 201 L304 204 L303 204 L291 216 L290 216 L280 226 L280 227 L277 230 L276 229 L276 228 L277 227 L277 222 L278 221 L278 210 L279 209 L279 206 L280 205 L280 202 L281 201 L281 199 L282 198 L282 196 L283 195 L283 193 L284 192 L284 190 L285 189 L285 188 L286 187 L286 186 L287 185 L287 184 L288 183 L288 181 L290 179 L290 178 L294 174 L295 174 L297 172 L298 172 L299 171 L300 171 L302 169 L303 169 L304 168 L305 168 L309 164 L310 164 L311 163 L312 163 L313 162 L314 162 L316 160 L317 160 L321 156 L322 156 L322 155 L325 152 L325 151 L327 149 L327 148 L328 147 L328 146 L331 143 L331 142 L332 141 L332 139 L333 138 L333 137 L334 136 L334 134 L335 133 L335 130 L336 129 L336 128 L337 127 L337 122 L338 121 L338 119 L337 118 L337 114 L338 113 L337 112 L337 110 L338 109 L338 107 L337 106 L337 98 L338 97 L338 92 L340 90 L341 90 L344 87 L345 87 L347 85 L347 84 L349 82 L349 80 L348 79 L347 80 L346 80 L345 81 L342 81 L341 82 L340 82 L339 83 L338 83 L334 87 L333 87 L332 88 L331 88 L329 90 L328 90 L327 91 L326 91 L323 94 L322 94 L320 96 L319 96 L318 97 L317 97 L316 98 L315 98 L314 99 L313 99 L312 100 L311 100 L310 101 L309 101 L307 103 L306 103 L305 104 L304 104 L301 107 L300 107 L297 110 L296 110 L291 115 L291 116 L288 119 L288 120 L286 122 L286 123 L285 124 L285 125 L284 126 L284 127 L283 128 L283 130 L282 131 L282 134 L281 135 L281 140 L280 141 L280 180 L279 181 L279 186 L278 187 L278 190 L277 191 L277 194 L276 195 L276 197 L275 198 L275 200 L274 201 L274 203 L273 204 L273 205 L272 206 L272 208 L271 209 L271 211 L270 212 L270 215 L269 216 L269 217 L268 218 L268 220 L266 222 L265 221 L265 213 L266 212 L266 203 L265 202 L265 191 L266 190 L266 180 L267 179 L267 165 L266 164 L266 162 L265 161 L265 154 L264 153 L264 146 L263 145 L263 141 L262 140 L262 136 L261 135 L261 128 L260 127 L260 121 L261 120 L261 112 L262 111 L262 109 L263 108 L263 107 L264 106 L264 104 L265 103 L265 102 L267 100 L267 99 L268 98 L268 97 L270 95 L271 95 L272 94 L272 93 L273 92 L273 91 L274 90 L274 89 L275 88 L275 87 L271 87 L270 88 L269 88 L263 94 L262 94 L259 97 L258 97 L256 99 L255 99 L252 102 L251 102 L245 108 L245 109 L240 114 L239 114 L236 117 L235 117 L228 124 L228 125 L225 128 L225 129 L224 130 L224 131 L220 135 L219 135 L217 137 L217 138 L213 142 L213 143 L211 145 L211 146 L209 148 L209 149 L208 150 L208 151 L207 152 L207 154 L206 155 L206 156 L205 157 L205 159 L204 160 L204 161 L203 162 L203 163 L201 165 L201 166 L200 167 L200 171 L199 172 L199 178 L198 179 L197 178 L197 176 L196 175 L196 167 L195 166 L195 157 L194 156 L194 148 L193 147 L193 143 L194 142 L194 139 L193 138 L193 127 L192 126 L192 123 L191 122 L191 120 L192 119 L192 118 L193 117 L193 115 L194 114 L194 113 L195 112 L195 110 L196 109 L196 106 L197 105 L197 103 L198 102 L198 99 L199 98 L199 69 L198 68 L198 66 L195 63 L195 62 L194 61 L194 60 L192 58 L192 57 L191 56 L191 54 L189 52 L189 51 L187 49 L187 48 L186 48 L185 47 L185 46 L184 45 L183 45 L179 41 L179 40 L174 35 L172 35 L169 32 L168 32 L166 30 L165 30 L154 19 L154 18 L153 17 L153 16 L152 15 L152 14 L151 13 L151 11 Z " fill="black"/></svg>