<svg width="651" height="522" xmlns="http://www.w3.org/2000/svg"><path d="M402 10 L401 11 L232 11 L231 12 L224 12 L223 13 L221 13 L220 14 L219 14 L218 15 L217 15 L214 18 L213 18 L210 21 L210 22 L207 25 L207 26 L206 27 L206 28 L205 29 L205 31 L204 32 L204 36 L203 37 L203 51 L201 53 L200 53 L199 54 L196 54 L195 55 L192 55 L191 56 L189 56 L188 57 L186 57 L185 58 L182 58 L181 59 L178 59 L177 60 L175 60 L174 61 L171 61 L170 62 L168 62 L167 63 L164 63 L163 64 L160 64 L159 65 L157 65 L156 66 L154 66 L153 67 L150 67 L149 68 L147 68 L146 69 L143 69 L142 70 L139 70 L138 71 L135 71 L134 72 L131 72 L130 73 L128 73 L127 74 L125 74 L124 75 L121 75 L120 76 L118 76 L117 77 L115 77 L114 78 L111 78 L110 79 L108 79 L107 80 L105 80 L104 81 L101 81 L100 82 L97 82 L96 83 L93 83 L92 84 L90 84 L89 85 L86 85 L85 86 L83 86 L82 87 L79 87 L78 88 L76 88 L75 89 L73 89 L72 90 L70 90 L69 91 L67 91 L66 92 L63 92 L62 93 L60 93 L59 94 L56 94 L55 95 L52 95 L51 96 L49 96 L48 97 L45 97 L44 98 L42 98 L41 99 L39 99 L38 100 L36 100 L35 101 L33 101 L32 102 L31 102 L30 103 L29 103 L28 104 L27 104 L25 106 L24 106 L23 107 L22 107 L19 110 L18 110 L16 112 L16 113 L14 115 L14 116 L13 117 L13 118 L12 119 L12 122 L11 123 L11 135 L12 136 L12 141 L13 142 L13 146 L14 147 L14 151 L15 152 L15 155 L16 156 L16 158 L17 159 L17 161 L18 162 L18 164 L19 165 L19 167 L20 168 L20 171 L21 172 L21 175 L22 176 L22 179 L23 180 L23 183 L24 184 L24 186 L25 187 L25 189 L26 190 L26 193 L27 194 L27 196 L28 197 L28 200 L29 201 L29 203 L30 204 L30 206 L31 207 L31 210 L32 211 L32 214 L33 215 L33 217 L34 218 L34 221 L35 222 L35 224 L36 225 L36 227 L37 228 L37 229 L38 230 L38 231 L39 232 L39 233 L41 235 L41 236 L46 241 L47 241 L48 242 L49 242 L50 243 L52 243 L53 244 L60 244 L61 245 L62 244 L68 244 L69 243 L73 243 L74 242 L78 242 L79 241 L81 241 L82 240 L85 240 L86 239 L89 239 L90 238 L92 238 L93 237 L96 237 L97 236 L100 236 L101 235 L104 235 L105 234 L109 234 L110 233 L116 233 L117 234 L121 234 L122 235 L123 235 L124 236 L126 236 L128 238 L129 238 L131 240 L132 240 L139 247 L139 248 L142 251 L142 252 L144 254 L144 255 L145 256 L145 257 L146 258 L146 259 L147 260 L147 261 L148 262 L148 264 L149 265 L149 267 L150 268 L150 271 L151 272 L151 275 L152 276 L152 278 L153 279 L153 281 L154 282 L154 284 L155 285 L155 287 L156 288 L156 290 L157 291 L157 294 L158 295 L158 297 L159 298 L159 301 L160 302 L160 304 L161 305 L161 307 L162 308 L162 310 L163 311 L163 313 L164 314 L164 316 L165 317 L165 320 L166 321 L166 324 L167 325 L167 327 L168 328 L168 330 L169 331 L169 335 L170 336 L170 340 L171 341 L171 342 L172 343 L172 345 L173 346 L173 349 L174 350 L174 353 L175 354 L175 356 L176 357 L176 360 L177 361 L177 364 L178 365 L178 366 L179 367 L179 370 L180 371 L180 373 L181 374 L181 376 L182 377 L182 379 L183 380 L183 382 L184 383 L184 385 L185 386 L185 388 L186 389 L186 391 L187 392 L187 394 L188 395 L188 397 L189 398 L189 401 L190 402 L190 404 L191 405 L191 407 L192 408 L192 411 L193 412 L193 415 L194 416 L194 418 L195 419 L195 421 L196 422 L196 425 L197 426 L197 428 L198 429 L198 431 L199 432 L199 435 L200 436 L200 438 L201 439 L201 441 L202 442 L202 444 L203 445 L203 448 L204 449 L204 451 L205 452 L205 454 L206 455 L206 456 L207 457 L207 458 L208 459 L208 461 L209 462 L209 463 L210 464 L210 465 L211 466 L211 467 L212 468 L212 469 L214 471 L214 472 L216 474 L216 475 L219 478 L219 479 L224 484 L224 485 L230 491 L230 492 L243 505 L244 505 L245 506 L246 506 L247 507 L251 507 L252 506 L253 506 L253 505 L254 504 L254 502 L255 501 L255 490 L256 489 L256 454 L255 453 L255 449 L254 448 L254 445 L253 444 L253 440 L252 439 L252 436 L251 435 L251 433 L250 432 L250 430 L249 429 L249 426 L248 425 L248 423 L247 422 L247 419 L246 418 L246 415 L245 414 L245 412 L244 411 L244 409 L243 408 L243 405 L242 404 L242 402 L241 401 L241 399 L240 398 L240 396 L239 395 L239 393 L238 392 L238 390 L237 389 L237 387 L236 386 L236 384 L235 383 L235 381 L234 380 L234 377 L233 376 L233 374 L232 373 L232 371 L231 370 L231 367 L230 366 L230 363 L229 362 L229 359 L228 358 L228 355 L227 354 L227 352 L226 351 L226 347 L225 346 L225 344 L224 343 L224 341 L223 340 L223 337 L222 336 L222 333 L221 332 L221 330 L220 329 L220 326 L219 325 L219 322 L218 321 L218 319 L217 318 L217 316 L216 315 L216 313 L215 312 L215 310 L214 309 L214 307 L213 306 L213 303 L212 302 L212 299 L211 298 L211 296 L210 295 L210 292 L209 291 L209 288 L208 287 L208 285 L207 284 L207 281 L206 280 L206 278 L205 277 L205 275 L204 274 L204 272 L203 271 L203 269 L202 268 L202 265 L201 264 L201 262 L200 261 L200 259 L199 258 L199 254 L198 253 L198 250 L197 249 L197 245 L196 244 L196 227 L197 226 L197 224 L198 223 L198 221 L199 220 L199 219 L200 218 L200 216 L202 214 L202 213 L205 210 L205 209 L209 205 L210 205 L213 202 L214 202 L215 201 L216 201 L217 200 L218 200 L219 199 L221 199 L222 198 L224 198 L225 197 L227 197 L228 196 L230 196 L231 195 L233 195 L234 194 L236 194 L237 193 L239 193 L240 192 L242 192 L243 191 L245 191 L246 190 L247 190 L248 189 L249 189 L250 188 L251 188 L252 187 L253 187 L254 186 L255 186 L257 184 L258 184 L259 183 L260 183 L263 180 L263 179 L264 178 L264 177 L265 176 L265 175 L266 174 L266 172 L267 171 L267 162 L268 161 L274 161 L275 162 L278 162 L279 163 L281 163 L282 164 L283 164 L288 169 L288 170 L291 173 L291 174 L294 177 L294 178 L296 180 L296 181 L297 182 L297 184 L298 185 L298 187 L299 188 L299 194 L300 195 L300 218 L299 219 L299 222 L300 223 L300 239 L299 240 L299 241 L300 242 L300 268 L301 269 L301 320 L302 321 L302 375 L303 376 L303 410 L304 411 L304 415 L305 416 L305 418 L306 419 L306 420 L307 421 L307 423 L308 424 L308 426 L309 427 L309 428 L310 429 L310 431 L311 432 L311 434 L312 435 L312 436 L313 437 L313 438 L314 439 L314 441 L315 442 L315 443 L316 444 L316 445 L317 446 L317 448 L318 449 L318 451 L319 452 L319 453 L320 454 L320 455 L321 456 L321 457 L325 461 L329 461 L331 459 L331 458 L332 457 L332 456 L333 455 L333 454 L334 453 L334 452 L335 451 L335 449 L336 448 L336 447 L337 446 L337 444 L338 443 L338 441 L339 440 L339 439 L340 438 L340 436 L341 435 L341 433 L342 432 L342 430 L343 429 L343 428 L344 427 L344 424 L345 423 L345 421 L346 420 L346 418 L347 417 L347 415 L348 414 L348 412 L349 411 L349 391 L350 390 L350 383 L349 382 L350 381 L349 380 L349 377 L350 376 L350 375 L349 374 L349 210 L350 209 L350 208 L349 207 L349 196 L350 195 L350 189 L351 188 L351 185 L352 184 L352 183 L353 182 L353 181 L354 180 L354 179 L357 176 L357 175 L362 170 L362 169 L365 166 L366 166 L368 164 L369 164 L370 163 L371 163 L372 162 L373 162 L374 161 L380 161 L381 162 L381 164 L380 165 L380 169 L381 170 L381 175 L382 176 L382 177 L383 178 L383 180 L384 181 L384 182 L386 184 L386 185 L390 189 L391 189 L392 190 L393 190 L394 191 L395 191 L397 193 L399 193 L400 194 L402 194 L403 195 L405 195 L406 196 L409 196 L410 197 L413 197 L414 198 L415 198 L416 199 L418 199 L419 200 L421 200 L422 201 L423 201 L424 202 L426 202 L427 203 L429 203 L430 204 L432 204 L434 206 L435 206 L436 207 L437 207 L438 208 L439 208 L441 210 L442 210 L443 211 L444 211 L450 217 L450 218 L452 220 L452 222 L453 223 L453 225 L454 226 L454 229 L455 230 L455 246 L454 247 L454 250 L453 251 L453 255 L452 256 L452 258 L451 259 L451 261 L450 262 L450 264 L449 265 L449 267 L448 268 L448 270 L447 271 L447 272 L446 273 L446 275 L445 276 L445 279 L444 280 L444 281 L443 282 L443 285 L442 286 L442 288 L441 289 L441 291 L440 292 L440 295 L439 296 L439 298 L438 299 L438 301 L437 302 L437 304 L436 305 L436 307 L435 308 L435 310 L434 311 L434 313 L433 314 L433 317 L432 318 L432 320 L431 321 L431 324 L430 325 L430 327 L429 328 L429 331 L428 332 L428 335 L427 336 L427 338 L426 339 L426 341 L425 342 L425 345 L424 346 L424 348 L423 349 L423 352 L422 353 L422 356 L421 357 L421 359 L420 360 L420 363 L419 364 L419 367 L418 368 L418 370 L417 371 L417 373 L416 374 L416 376 L415 377 L415 379 L414 380 L414 382 L413 383 L413 385 L412 386 L412 389 L411 390 L411 392 L410 393 L410 395 L409 396 L409 398 L408 399 L408 401 L407 402 L407 404 L406 405 L406 408 L405 409 L405 411 L404 412 L404 414 L403 415 L403 417 L402 418 L402 420 L401 421 L401 424 L400 425 L400 427 L399 428 L399 431 L398 432 L398 434 L397 435 L397 437 L396 438 L396 441 L395 442 L395 443 L394 444 L394 447 L393 448 L393 451 L392 452 L392 484 L393 485 L393 499 L394 500 L394 505 L395 506 L395 507 L397 509 L399 509 L400 510 L402 510 L403 509 L404 509 L405 508 L406 508 L406 507 L410 503 L410 502 L413 499 L413 498 L416 495 L416 494 L419 491 L419 490 L423 486 L423 485 L426 482 L426 481 L429 478 L429 477 L431 475 L431 474 L433 472 L433 471 L434 470 L434 469 L435 468 L435 467 L436 466 L436 465 L437 464 L437 462 L438 461 L438 459 L439 458 L439 456 L440 455 L440 452 L441 451 L441 449 L442 448 L442 446 L443 445 L443 443 L444 442 L444 441 L445 440 L445 438 L446 437 L446 435 L447 434 L447 432 L448 431 L448 428 L449 427 L449 425 L450 424 L450 422 L451 421 L451 419 L452 418 L452 416 L453 415 L453 412 L454 411 L454 410 L455 409 L455 406 L456 405 L456 403 L457 402 L457 400 L458 399 L458 396 L459 395 L459 392 L460 391 L460 389 L461 388 L461 386 L462 385 L462 382 L463 381 L463 379 L464 378 L464 376 L465 375 L465 373 L466 372 L466 370 L467 369 L467 367 L468 366 L468 363 L469 362 L469 360 L470 359 L470 357 L471 356 L471 354 L472 353 L472 351 L473 350 L473 347 L474 346 L474 345 L475 344 L475 341 L476 340 L476 337 L477 336 L477 334 L478 333 L478 331 L479 330 L479 328 L480 327 L480 324 L481 323 L481 321 L482 320 L482 318 L483 317 L483 315 L484 314 L484 312 L485 311 L485 308 L486 307 L486 305 L487 304 L487 302 L488 301 L488 299 L489 298 L489 296 L490 295 L490 292 L491 291 L491 289 L492 288 L492 286 L493 285 L493 283 L494 282 L494 280 L495 279 L495 276 L496 275 L496 273 L497 272 L497 270 L498 269 L498 267 L499 266 L499 264 L500 263 L500 262 L501 261 L501 260 L502 259 L502 258 L503 257 L503 256 L506 253 L506 252 L513 245 L514 245 L516 243 L517 243 L519 241 L520 241 L521 240 L522 240 L523 239 L525 239 L526 238 L537 238 L538 239 L540 239 L541 240 L543 240 L544 241 L547 241 L548 242 L550 242 L551 243 L554 243 L555 244 L557 244 L558 245 L560 245 L561 246 L563 246 L564 247 L567 247 L568 248 L570 248 L571 249 L574 249 L575 250 L577 250 L578 251 L580 251 L581 252 L589 252 L590 251 L592 251 L593 250 L595 250 L596 249 L597 249 L598 248 L599 248 L605 242 L605 241 L606 240 L606 239 L608 237 L608 236 L609 235 L609 233 L610 232 L610 230 L611 229 L611 227 L612 226 L612 224 L613 223 L613 220 L614 219 L614 217 L615 216 L615 213 L616 212 L616 210 L617 209 L617 206 L618 205 L618 203 L619 202 L619 200 L620 199 L620 197 L621 196 L621 193 L622 192 L622 191 L623 190 L623 188 L624 187 L624 185 L625 184 L625 182 L626 181 L626 178 L627 177 L627 175 L628 174 L628 172 L629 171 L629 169 L630 168 L630 166 L631 165 L631 163 L632 162 L632 160 L633 159 L633 157 L634 156 L634 153 L635 152 L635 150 L636 149 L636 146 L637 145 L637 143 L638 142 L638 139 L639 138 L639 127 L638 126 L638 125 L637 124 L637 123 L636 122 L636 121 L626 111 L625 111 L624 110 L623 110 L622 109 L621 109 L620 108 L618 108 L617 107 L615 107 L614 106 L611 106 L610 105 L608 105 L607 104 L604 104 L603 103 L599 103 L598 102 L597 102 L596 101 L594 101 L593 100 L591 100 L590 99 L589 99 L588 98 L585 98 L584 97 L582 97 L581 96 L579 96 L578 95 L575 95 L574 94 L572 94 L571 93 L569 93 L568 92 L566 92 L565 91 L562 91 L561 90 L559 90 L558 89 L557 89 L556 88 L553 88 L552 87 L550 87 L549 86 L547 86 L546 85 L544 85 L543 84 L540 84 L539 83 L537 83 L536 82 L535 82 L534 81 L531 81 L530 80 L528 80 L527 79 L525 79 L524 78 L521 78 L520 77 L517 77 L516 76 L515 76 L514 75 L511 75 L510 74 L508 74 L507 73 L505 73 L504 72 L501 72 L500 71 L498 71 L497 70 L495 70 L494 69 L492 69 L491 68 L488 68 L487 67 L485 67 L484 66 L482 66 L481 65 L479 65 L478 64 L476 64 L475 63 L473 63 L472 62 L469 62 L468 61 L466 61 L465 60 L462 60 L461 59 L459 59 L458 58 L455 58 L454 57 L452 57 L451 56 L448 56 L445 53 L445 38 L444 37 L444 32 L443 31 L443 26 L441 24 L441 23 L433 15 L432 15 L430 13 L429 13 L428 12 L425 12 L424 11 L420 11 L419 10 L407 10 L406 11 L405 11 L404 10 Z " fill="black"/></svg>