<svg width="375" height="484" xmlns="http://www.w3.org/2000/svg"><path d="M119 11 L118 12 L118 13 L119 14 L119 16 L120 17 L120 19 L121 20 L121 23 L122 24 L122 32 L121 33 L121 36 L120 37 L120 38 L119 39 L119 41 L118 42 L118 46 L117 47 L117 51 L116 52 L116 71 L117 72 L117 76 L118 77 L118 79 L119 80 L119 83 L120 84 L120 93 L121 94 L121 96 L122 97 L122 98 L123 99 L123 100 L125 102 L125 103 L128 106 L128 107 L136 115 L137 115 L140 118 L141 118 L142 119 L143 119 L145 121 L146 121 L147 122 L148 122 L149 123 L150 123 L151 124 L152 124 L153 125 L155 125 L156 126 L157 126 L158 127 L159 127 L160 128 L162 128 L163 129 L164 129 L165 130 L166 130 L171 135 L171 136 L172 137 L172 139 L171 140 L168 140 L167 139 L166 139 L165 138 L164 138 L163 137 L162 137 L161 136 L160 136 L159 135 L158 135 L156 133 L155 133 L153 131 L152 131 L150 129 L149 129 L147 127 L146 127 L144 125 L143 125 L141 123 L140 123 L139 122 L138 122 L136 120 L135 120 L133 118 L132 118 L130 116 L129 116 L127 114 L126 114 L124 112 L123 112 L122 111 L121 111 L119 109 L118 109 L117 108 L116 108 L115 107 L114 107 L113 106 L112 106 L111 105 L110 105 L109 104 L106 104 L105 103 L101 103 L99 101 L98 101 L96 99 L94 99 L93 98 L87 98 L86 97 L84 97 L83 98 L69 98 L68 99 L66 99 L65 100 L64 100 L63 101 L60 101 L59 102 L57 102 L56 103 L55 103 L54 104 L52 104 L51 105 L48 105 L47 106 L46 106 L45 107 L43 107 L41 109 L40 109 L39 110 L38 110 L32 116 L31 116 L30 117 L30 118 L29 119 L28 119 L24 123 L23 123 L22 124 L22 125 L15 132 L15 133 L11 137 L11 140 L12 141 L18 141 L19 140 L22 140 L23 141 L25 141 L26 142 L27 142 L28 143 L29 143 L31 145 L32 145 L34 147 L35 147 L37 149 L38 149 L41 152 L42 152 L44 154 L45 154 L48 157 L49 157 L53 161 L54 161 L57 164 L58 164 L61 167 L62 167 L63 168 L64 168 L65 169 L66 169 L68 171 L69 171 L70 172 L71 172 L72 173 L73 173 L75 175 L73 177 L72 177 L71 178 L69 178 L68 179 L66 179 L65 180 L64 180 L63 181 L61 181 L60 182 L59 182 L58 183 L57 183 L55 185 L54 185 L49 190 L49 191 L47 193 L47 195 L49 197 L50 197 L51 198 L53 198 L54 199 L56 199 L57 200 L59 200 L60 201 L61 201 L62 202 L63 202 L64 203 L65 203 L66 204 L67 204 L68 205 L69 205 L70 206 L71 206 L72 207 L73 207 L75 209 L76 209 L77 210 L78 210 L79 211 L80 211 L82 213 L83 213 L84 214 L85 214 L86 215 L87 215 L89 217 L91 217 L92 218 L93 218 L94 219 L97 219 L98 220 L105 220 L106 221 L107 220 L134 220 L135 221 L135 226 L134 227 L134 229 L133 230 L133 232 L132 233 L132 239 L133 240 L133 243 L134 244 L134 246 L138 250 L140 250 L148 242 L149 242 L151 240 L152 240 L153 239 L154 239 L155 238 L162 238 L163 239 L164 239 L170 245 L170 246 L169 247 L168 246 L164 246 L163 245 L154 245 L153 246 L151 246 L150 247 L149 247 L148 248 L147 248 L145 250 L144 250 L140 254 L140 255 L136 259 L135 259 L133 257 L132 257 L129 254 L128 254 L127 253 L126 253 L123 250 L122 250 L120 248 L119 248 L118 247 L117 247 L116 246 L115 246 L114 245 L113 245 L112 244 L111 244 L110 243 L108 243 L107 242 L100 242 L99 241 L89 241 L88 242 L85 242 L84 243 L83 243 L81 245 L80 245 L79 246 L70 246 L68 248 L67 248 L66 249 L65 249 L63 251 L62 251 L59 254 L59 255 L57 257 L57 258 L56 259 L56 260 L54 262 L54 263 L50 267 L50 268 L49 269 L49 270 L48 271 L48 279 L49 280 L49 281 L50 282 L52 282 L53 281 L54 281 L56 279 L58 279 L59 278 L61 278 L62 277 L96 277 L97 276 L111 276 L112 275 L118 275 L119 274 L134 274 L135 275 L136 275 L137 276 L137 277 L138 278 L138 279 L139 280 L139 281 L138 282 L130 282 L129 283 L124 283 L123 284 L119 284 L118 285 L115 285 L114 286 L113 286 L112 287 L109 287 L108 288 L107 288 L106 289 L104 289 L103 290 L102 290 L101 291 L99 291 L96 294 L95 294 L94 295 L94 296 L93 297 L93 390 L94 391 L94 412 L95 413 L95 416 L96 417 L96 420 L97 421 L97 423 L98 424 L98 425 L101 428 L102 428 L103 429 L104 429 L105 430 L106 430 L109 433 L109 435 L110 436 L110 441 L111 442 L111 451 L112 452 L112 454 L118 460 L119 460 L120 461 L121 461 L122 462 L123 462 L124 463 L125 463 L126 464 L128 464 L129 465 L131 465 L132 466 L135 466 L136 467 L140 467 L141 468 L144 468 L145 469 L149 469 L150 470 L156 470 L157 471 L163 471 L164 472 L216 472 L217 471 L222 471 L223 470 L227 470 L228 469 L238 469 L239 468 L243 468 L244 467 L247 467 L248 466 L250 466 L251 465 L253 465 L255 463 L256 463 L257 462 L258 462 L259 461 L260 461 L263 458 L264 458 L265 457 L265 455 L266 454 L266 433 L269 430 L271 430 L273 428 L274 428 L274 427 L276 425 L276 424 L277 423 L277 422 L278 421 L278 418 L279 417 L279 413 L280 412 L280 387 L281 386 L281 378 L280 377 L281 376 L281 339 L280 338 L280 319 L281 318 L282 319 L283 319 L286 322 L287 322 L289 324 L290 324 L291 325 L296 325 L297 324 L297 323 L298 322 L298 319 L299 318 L299 312 L300 311 L300 292 L299 291 L299 286 L298 285 L298 283 L297 282 L297 281 L296 280 L296 279 L295 278 L295 277 L293 275 L293 274 L286 267 L285 267 L282 264 L281 264 L278 261 L277 261 L274 258 L273 258 L271 256 L270 256 L269 255 L236 255 L235 256 L231 256 L230 257 L227 257 L226 258 L223 258 L222 259 L220 259 L219 260 L217 260 L216 261 L215 261 L214 262 L213 262 L212 263 L211 263 L210 262 L210 261 L212 259 L212 258 L216 254 L217 254 L224 247 L225 247 L226 246 L227 246 L228 245 L235 245 L236 246 L243 246 L244 247 L250 247 L251 248 L253 248 L254 249 L257 249 L258 250 L271 250 L272 249 L274 249 L275 248 L285 248 L286 247 L288 247 L289 246 L290 246 L291 245 L292 245 L293 244 L294 244 L295 243 L298 243 L299 242 L300 242 L301 241 L302 241 L303 240 L304 240 L305 239 L306 239 L307 238 L308 238 L310 236 L311 236 L312 235 L313 235 L316 232 L317 232 L326 223 L326 222 L330 218 L330 217 L333 214 L333 213 L335 211 L335 210 L336 209 L336 208 L338 206 L338 205 L340 203 L340 202 L341 201 L341 200 L343 198 L343 197 L349 191 L349 190 L350 189 L351 189 L355 185 L356 185 L358 183 L359 183 L363 179 L363 176 L361 174 L359 174 L358 173 L356 173 L355 172 L353 172 L352 171 L350 171 L349 170 L347 170 L346 169 L345 169 L344 168 L343 168 L342 167 L341 167 L340 166 L338 166 L337 165 L334 165 L333 164 L332 164 L331 163 L329 163 L328 162 L325 162 L324 161 L320 161 L319 160 L301 160 L300 161 L296 161 L295 162 L292 162 L291 163 L290 163 L289 164 L287 164 L286 165 L285 165 L284 166 L282 166 L281 165 L288 158 L288 157 L300 145 L300 144 L301 143 L301 142 L302 141 L302 140 L303 139 L303 138 L305 136 L305 135 L306 134 L306 132 L307 131 L307 128 L308 127 L308 125 L309 124 L309 122 L310 121 L310 115 L311 114 L311 112 L312 111 L312 108 L313 107 L313 94 L314 93 L314 67 L315 66 L315 64 L316 63 L316 61 L317 60 L315 58 L312 58 L311 57 L310 57 L309 58 L288 58 L287 59 L283 59 L282 60 L280 60 L279 61 L277 61 L276 62 L275 62 L274 63 L273 63 L272 64 L271 64 L270 65 L268 65 L267 66 L266 66 L265 67 L264 67 L263 68 L262 68 L260 70 L259 70 L257 72 L255 72 L253 74 L252 74 L249 77 L248 77 L241 84 L240 84 L237 87 L236 86 L236 84 L237 83 L237 80 L238 79 L238 66 L237 65 L237 62 L236 61 L236 60 L235 59 L235 58 L233 56 L233 55 L232 54 L231 54 L230 55 L229 55 L228 56 L227 55 L227 53 L228 52 L229 52 L229 51 L230 50 L230 46 L229 45 L229 43 L228 42 L228 41 L225 38 L224 38 L222 36 L222 34 L221 33 L221 31 L220 30 L220 27 L219 26 L219 24 L218 23 L218 21 L217 20 L217 18 L216 17 L214 17 L208 23 L207 23 L200 30 L200 31 L196 35 L196 36 L192 40 L192 41 L189 44 L188 44 L176 32 L175 32 L172 29 L171 29 L170 28 L169 28 L168 27 L167 27 L166 26 L164 26 L163 25 L162 25 L161 24 L160 24 L159 23 L158 23 L157 22 L156 22 L155 21 L154 21 L153 20 L152 20 L151 19 L150 19 L149 18 L148 18 L147 17 L146 17 L145 16 L144 16 L143 15 L141 15 L140 14 L138 14 L137 13 L134 13 L133 12 L128 12 L127 11 Z " fill="black"/></svg>