<svg width="506" height="571" xmlns="http://www.w3.org/2000/svg"><path d="M242 11 L241 12 L235 12 L234 13 L233 13 L232 14 L231 14 L229 16 L223 16 L222 17 L221 17 L220 18 L219 18 L216 21 L215 21 L212 24 L211 24 L209 26 L208 26 L206 28 L205 28 L204 29 L200 29 L199 28 L197 28 L195 26 L191 26 L190 27 L189 27 L185 31 L184 31 L183 32 L181 32 L179 34 L178 34 L175 37 L174 37 L168 43 L167 43 L166 44 L165 44 L162 47 L161 47 L159 49 L158 49 L154 53 L153 53 L152 54 L148 54 L147 53 L138 53 L137 54 L135 54 L133 56 L132 56 L131 57 L127 57 L126 58 L123 58 L122 59 L113 59 L112 60 L108 60 L107 61 L103 61 L102 62 L97 62 L96 63 L93 63 L92 64 L87 64 L86 65 L82 65 L81 66 L79 66 L78 67 L76 67 L75 68 L74 68 L73 69 L72 69 L71 70 L70 70 L69 71 L67 71 L66 72 L65 72 L64 73 L63 73 L62 74 L60 74 L59 75 L57 75 L56 76 L55 76 L53 78 L52 78 L44 86 L44 87 L42 89 L42 90 L41 91 L41 97 L40 98 L40 101 L39 102 L39 108 L40 109 L40 112 L41 113 L41 116 L42 117 L42 118 L43 119 L43 121 L44 122 L44 125 L45 126 L45 135 L44 136 L44 141 L43 142 L43 147 L42 148 L42 154 L41 155 L41 159 L42 160 L42 163 L43 164 L43 165 L44 166 L44 167 L52 175 L53 175 L55 177 L56 177 L57 178 L58 178 L60 180 L60 187 L59 188 L59 193 L58 194 L58 203 L57 204 L57 221 L56 222 L56 233 L55 234 L55 238 L54 239 L54 243 L53 244 L53 247 L52 248 L52 252 L51 253 L51 256 L50 257 L50 261 L49 262 L49 265 L48 266 L48 268 L47 269 L47 273 L46 274 L46 277 L45 278 L45 282 L44 283 L44 286 L43 287 L43 291 L42 292 L42 296 L41 297 L41 303 L40 304 L40 315 L39 316 L39 322 L38 323 L38 336 L37 337 L37 341 L38 342 L38 344 L37 345 L37 366 L38 367 L38 375 L39 376 L39 382 L40 383 L40 385 L41 386 L41 403 L40 404 L41 405 L41 414 L42 415 L42 419 L41 420 L41 422 L40 423 L40 425 L39 426 L39 429 L38 430 L38 434 L37 435 L37 454 L38 455 L38 462 L39 463 L39 468 L38 469 L38 470 L37 471 L37 472 L36 473 L36 474 L35 475 L35 476 L34 477 L34 478 L33 479 L33 480 L32 481 L32 482 L31 483 L31 484 L30 485 L30 486 L29 487 L29 488 L27 490 L27 491 L25 493 L25 494 L23 496 L23 497 L21 499 L21 500 L19 502 L19 503 L17 505 L17 506 L16 507 L16 508 L15 509 L15 510 L14 511 L14 512 L13 513 L13 515 L12 516 L12 519 L11 520 L11 524 L12 525 L12 527 L15 530 L16 530 L17 531 L19 531 L20 532 L23 532 L24 533 L28 533 L29 534 L40 534 L41 535 L47 535 L48 536 L60 536 L61 537 L62 537 L63 536 L66 536 L67 537 L68 536 L75 536 L76 537 L77 537 L78 536 L90 536 L91 537 L93 537 L94 538 L97 538 L98 539 L100 539 L101 540 L104 540 L105 541 L107 541 L108 542 L109 542 L111 544 L114 544 L115 545 L118 545 L119 546 L125 546 L126 547 L133 547 L134 548 L143 548 L144 549 L150 549 L151 550 L159 550 L160 551 L172 551 L173 552 L179 552 L180 553 L186 553 L187 554 L193 554 L194 555 L203 555 L204 556 L213 556 L214 557 L233 557 L234 558 L247 558 L248 559 L286 559 L287 558 L300 558 L301 557 L314 557 L315 556 L324 556 L325 555 L332 555 L333 554 L340 554 L341 553 L347 553 L348 552 L353 552 L354 551 L359 551 L360 550 L364 550 L365 549 L369 549 L370 548 L373 548 L374 547 L377 547 L378 546 L381 546 L382 545 L385 545 L386 544 L389 544 L390 543 L392 543 L393 542 L396 542 L397 541 L402 541 L403 540 L406 540 L407 539 L411 539 L412 538 L417 538 L418 537 L424 537 L425 536 L433 536 L434 535 L446 535 L447 534 L452 534 L453 533 L457 533 L458 532 L477 532 L478 531 L483 531 L484 530 L485 530 L486 529 L487 529 L494 522 L494 514 L492 512 L492 511 L489 508 L489 507 L487 505 L487 504 L485 502 L485 501 L484 500 L484 499 L483 498 L483 497 L482 496 L482 495 L480 493 L480 492 L479 491 L479 490 L478 489 L478 488 L476 486 L476 485 L475 484 L475 483 L474 482 L474 481 L473 480 L473 479 L472 478 L472 476 L471 475 L471 474 L470 473 L470 471 L469 470 L469 469 L468 468 L468 467 L467 466 L467 465 L466 464 L466 463 L465 462 L465 461 L464 460 L464 459 L463 458 L463 457 L462 456 L462 455 L461 454 L461 444 L462 443 L462 430 L463 429 L463 417 L464 416 L464 359 L463 358 L463 348 L462 347 L462 340 L461 339 L461 335 L460 334 L460 327 L459 326 L459 318 L458 317 L458 312 L457 311 L457 305 L456 304 L456 299 L455 298 L455 293 L454 292 L454 288 L453 287 L453 282 L452 281 L452 276 L451 275 L451 270 L450 269 L450 266 L449 265 L449 262 L448 261 L448 251 L449 250 L449 227 L448 226 L448 217 L447 216 L447 210 L446 209 L446 194 L445 193 L445 191 L446 190 L446 185 L445 184 L445 182 L449 178 L450 178 L452 176 L453 176 L455 174 L456 174 L459 171 L460 171 L462 169 L462 168 L463 167 L463 165 L464 164 L464 161 L465 160 L465 154 L464 153 L464 150 L463 149 L463 145 L462 144 L462 141 L461 140 L461 137 L460 136 L460 132 L459 131 L459 114 L460 113 L460 108 L461 107 L461 102 L462 101 L462 98 L461 97 L461 92 L460 91 L460 90 L459 89 L459 88 L458 87 L458 86 L456 84 L456 83 L453 80 L452 80 L450 78 L449 78 L447 76 L445 76 L444 75 L443 75 L442 74 L439 74 L438 73 L435 73 L434 72 L428 72 L427 71 L421 71 L420 70 L417 70 L416 69 L415 69 L413 67 L412 67 L411 66 L410 66 L409 65 L407 65 L406 64 L404 64 L403 63 L398 63 L397 62 L389 62 L388 61 L377 61 L376 60 L374 60 L373 59 L371 59 L370 58 L367 58 L366 57 L365 57 L364 56 L363 56 L357 50 L355 50 L354 51 L353 51 L352 52 L351 51 L350 51 L349 50 L348 50 L345 47 L344 47 L342 45 L341 45 L338 42 L337 42 L335 40 L334 40 L332 38 L331 38 L326 33 L325 33 L323 31 L321 31 L320 30 L312 30 L311 31 L307 31 L306 30 L305 30 L304 29 L303 29 L301 27 L301 26 L299 24 L299 23 L298 22 L298 21 L297 20 L297 19 L294 16 L293 16 L291 14 L290 14 L289 13 L287 13 L286 12 L280 12 L279 13 L277 13 L276 14 L273 14 L272 15 L270 15 L269 16 L267 16 L265 18 L264 18 L263 19 L260 19 L259 18 L258 18 L255 15 L254 15 L253 14 L252 14 L251 13 L250 13 L249 12 L246 12 L245 11 Z " fill="black"/></svg>