<svg width="558" height="707" xmlns="http://www.w3.org/2000/svg"><path d="M272 11 L271 12 L266 12 L265 13 L263 13 L262 14 L259 14 L258 15 L256 15 L255 16 L253 16 L252 17 L250 17 L249 18 L248 18 L247 19 L246 19 L245 20 L244 20 L243 21 L242 21 L240 23 L239 23 L236 26 L235 26 L226 35 L226 36 L224 38 L224 39 L221 42 L221 43 L220 44 L220 45 L218 47 L218 48 L216 50 L216 51 L215 52 L215 53 L214 54 L214 55 L213 56 L213 57 L212 58 L212 59 L211 60 L211 62 L210 63 L210 64 L209 65 L209 67 L208 68 L208 70 L207 71 L207 73 L206 74 L206 76 L205 77 L205 79 L204 80 L204 82 L203 83 L203 85 L202 86 L202 88 L201 89 L201 91 L200 92 L200 95 L199 96 L199 98 L198 99 L198 101 L197 102 L197 106 L196 107 L196 112 L195 113 L195 121 L194 122 L194 132 L193 133 L193 149 L192 150 L186 150 L185 151 L184 151 L182 153 L182 154 L181 155 L181 160 L180 161 L180 169 L179 170 L179 177 L178 178 L178 184 L177 185 L177 191 L176 192 L176 195 L175 196 L175 201 L174 202 L174 206 L173 207 L173 211 L172 212 L172 216 L171 217 L171 220 L170 221 L170 224 L169 225 L169 228 L168 229 L168 233 L167 234 L167 236 L166 237 L166 239 L165 240 L165 243 L164 244 L164 246 L163 247 L163 249 L162 250 L162 253 L161 254 L161 256 L160 257 L160 259 L159 260 L159 261 L158 262 L158 264 L157 265 L157 267 L156 268 L156 270 L155 271 L155 273 L154 274 L154 275 L153 276 L153 277 L152 278 L152 279 L151 280 L151 282 L149 284 L149 285 L148 286 L148 287 L146 289 L146 290 L145 291 L145 292 L144 293 L144 294 L143 295 L143 296 L141 298 L141 299 L138 302 L138 303 L136 305 L136 306 L131 311 L131 312 L121 322 L120 322 L115 327 L114 327 L110 331 L109 331 L107 333 L106 333 L103 336 L102 336 L99 339 L98 339 L93 344 L93 348 L90 351 L88 351 L87 352 L85 352 L84 353 L82 353 L81 354 L79 354 L78 355 L76 355 L75 356 L73 356 L72 357 L70 357 L69 358 L68 358 L67 359 L66 359 L64 361 L63 361 L62 362 L61 362 L59 364 L58 364 L52 370 L51 370 L51 371 L45 377 L45 378 L42 381 L42 382 L40 384 L40 385 L39 386 L39 387 L38 388 L38 389 L37 390 L37 391 L36 392 L36 393 L35 394 L35 395 L34 396 L34 398 L33 399 L33 400 L32 401 L32 403 L31 404 L31 407 L30 408 L30 411 L29 412 L29 416 L28 417 L28 430 L27 431 L28 432 L28 440 L29 441 L29 444 L30 445 L30 449 L31 450 L31 453 L32 454 L32 455 L33 456 L33 458 L34 459 L34 461 L35 462 L35 463 L36 464 L36 465 L37 466 L37 467 L38 468 L38 469 L39 470 L39 471 L40 472 L40 474 L41 475 L41 476 L42 477 L42 478 L43 479 L43 480 L44 481 L44 483 L45 484 L45 485 L46 486 L46 487 L47 488 L47 490 L48 491 L48 493 L49 494 L49 496 L50 497 L50 500 L51 501 L51 503 L52 504 L52 509 L53 510 L53 521 L52 522 L52 525 L51 526 L51 527 L50 528 L50 529 L49 530 L49 532 L47 534 L47 535 L46 536 L46 537 L45 538 L45 539 L44 540 L44 541 L43 542 L43 543 L42 544 L42 545 L41 546 L41 547 L40 548 L40 549 L38 551 L38 552 L36 554 L36 555 L34 557 L34 558 L33 559 L33 560 L30 563 L30 564 L28 566 L28 567 L27 568 L27 569 L25 571 L25 572 L24 573 L24 574 L22 576 L22 577 L21 578 L21 579 L19 581 L19 582 L18 583 L18 584 L17 585 L17 586 L15 588 L15 589 L14 590 L14 591 L13 592 L13 593 L12 594 L12 595 L11 596 L11 600 L13 602 L13 603 L20 610 L20 611 L21 612 L22 612 L24 614 L25 614 L26 615 L27 614 L28 614 L28 613 L29 612 L29 611 L30 610 L30 609 L31 608 L31 607 L32 606 L32 605 L33 604 L33 603 L35 601 L35 600 L36 599 L36 598 L38 596 L38 595 L39 594 L39 593 L41 591 L41 590 L43 588 L43 587 L44 586 L44 585 L46 583 L46 582 L48 580 L48 579 L49 578 L49 577 L51 575 L51 574 L52 573 L52 572 L53 571 L53 570 L54 569 L54 568 L56 566 L56 565 L57 564 L57 563 L58 562 L58 561 L59 560 L59 559 L60 558 L60 557 L61 556 L61 555 L62 554 L62 552 L63 551 L63 549 L64 548 L64 546 L65 545 L65 543 L66 542 L66 540 L67 539 L67 535 L68 534 L68 527 L69 526 L69 505 L68 504 L68 496 L67 495 L67 490 L66 489 L66 486 L65 485 L65 483 L64 482 L64 479 L63 478 L63 476 L62 475 L62 474 L61 473 L61 471 L60 470 L60 468 L59 467 L59 465 L58 464 L58 463 L57 462 L57 461 L56 460 L56 458 L55 457 L55 456 L54 455 L54 453 L53 452 L53 450 L52 449 L52 446 L51 445 L51 443 L50 442 L50 439 L49 438 L49 435 L48 434 L48 430 L47 429 L47 423 L46 422 L46 409 L47 408 L47 404 L48 403 L48 402 L59 391 L60 391 L63 388 L64 388 L67 385 L68 385 L70 383 L71 383 L72 382 L73 382 L75 380 L76 380 L77 379 L78 379 L79 378 L80 378 L81 377 L82 377 L83 376 L85 376 L86 375 L87 375 L88 374 L90 374 L91 375 L91 386 L90 387 L90 402 L89 403 L89 418 L88 419 L88 432 L87 433 L87 447 L86 448 L86 457 L85 458 L85 472 L84 473 L84 490 L83 491 L83 505 L82 506 L82 518 L81 519 L81 530 L80 531 L80 543 L79 544 L79 557 L78 558 L78 575 L77 576 L77 589 L76 590 L76 601 L75 602 L75 612 L74 613 L74 622 L73 623 L73 637 L72 638 L72 667 L71 668 L71 669 L72 670 L72 671 L73 671 L74 672 L77 672 L78 673 L82 673 L83 674 L86 674 L87 675 L92 675 L93 676 L97 676 L98 677 L102 677 L103 678 L106 678 L107 679 L111 679 L112 680 L116 680 L117 681 L120 681 L121 682 L125 682 L126 683 L128 683 L129 684 L132 684 L133 685 L138 685 L139 686 L142 686 L143 687 L146 687 L147 688 L152 688 L153 689 L160 689 L161 690 L169 690 L170 691 L198 691 L199 690 L211 690 L212 689 L227 689 L228 688 L238 688 L239 687 L257 687 L258 688 L271 688 L272 689 L282 689 L283 690 L289 690 L290 691 L294 691 L295 692 L303 692 L304 693 L311 693 L312 694 L319 694 L320 695 L351 695 L352 694 L359 694 L360 693 L366 693 L367 692 L374 692 L375 691 L381 691 L382 690 L385 690 L386 689 L390 689 L391 688 L395 688 L396 687 L398 687 L399 686 L402 686 L403 685 L407 685 L408 684 L412 684 L413 683 L416 683 L417 682 L421 682 L422 681 L428 681 L429 680 L434 680 L435 679 L442 679 L443 678 L451 678 L452 677 L457 677 L458 676 L464 676 L465 675 L474 675 L475 674 L479 674 L480 673 L482 673 L483 672 L484 672 L485 671 L485 668 L486 667 L486 664 L485 663 L485 639 L484 638 L484 622 L483 621 L483 606 L482 605 L482 591 L481 590 L481 579 L480 578 L480 565 L479 564 L479 546 L478 545 L478 526 L477 525 L477 509 L476 508 L476 495 L475 494 L475 481 L474 480 L474 467 L473 466 L473 451 L472 450 L472 431 L471 430 L471 412 L470 411 L470 398 L469 397 L469 382 L468 381 L468 377 L469 376 L471 376 L472 377 L473 377 L474 378 L475 378 L476 379 L477 379 L478 380 L479 380 L480 381 L481 381 L483 383 L484 383 L486 385 L487 385 L490 388 L491 388 L505 402 L505 403 L507 405 L507 407 L508 408 L508 409 L509 410 L509 413 L510 414 L510 427 L509 428 L509 435 L508 436 L508 439 L507 440 L507 444 L506 445 L506 447 L505 448 L505 450 L504 451 L504 453 L503 454 L503 456 L502 457 L502 459 L501 460 L501 461 L500 462 L500 464 L499 465 L499 467 L498 468 L498 470 L497 471 L497 473 L496 474 L496 476 L495 477 L495 479 L494 480 L494 482 L493 483 L493 485 L492 486 L492 489 L491 490 L491 494 L490 495 L490 499 L489 500 L489 509 L488 510 L488 521 L489 522 L489 531 L490 532 L490 537 L491 538 L491 541 L492 542 L492 545 L493 546 L493 548 L494 549 L494 551 L495 552 L495 554 L496 555 L496 556 L497 557 L497 559 L498 560 L498 561 L499 562 L499 563 L500 564 L500 565 L501 566 L501 567 L502 568 L502 569 L503 570 L503 571 L504 572 L504 573 L506 575 L506 576 L507 577 L507 578 L508 579 L508 580 L509 581 L509 582 L510 583 L510 584 L511 585 L511 586 L513 588 L513 589 L514 590 L514 591 L515 592 L515 593 L516 594 L516 595 L517 596 L517 598 L518 599 L518 600 L519 601 L519 602 L520 603 L520 606 L521 607 L521 609 L522 610 L522 615 L523 616 L523 621 L524 622 L524 628 L525 629 L525 634 L527 636 L529 636 L530 635 L533 635 L534 634 L536 634 L537 633 L538 633 L539 632 L540 632 L541 631 L542 631 L543 630 L544 630 L546 628 L546 616 L545 615 L545 609 L544 608 L544 604 L543 603 L543 600 L542 599 L542 597 L541 596 L541 595 L540 594 L540 592 L539 591 L539 589 L538 588 L538 587 L537 586 L537 585 L536 584 L536 583 L535 582 L535 581 L534 580 L534 579 L533 578 L533 577 L532 576 L532 575 L531 574 L531 573 L529 571 L529 570 L528 569 L528 568 L527 567 L527 566 L525 564 L525 563 L524 562 L524 561 L523 560 L523 559 L522 558 L522 557 L521 556 L521 555 L520 554 L520 553 L519 552 L519 551 L518 550 L518 549 L517 548 L517 546 L516 545 L516 544 L515 543 L515 542 L514 541 L514 540 L513 539 L513 538 L512 537 L512 535 L511 534 L511 532 L510 531 L510 529 L509 528 L509 525 L508 524 L508 509 L509 508 L509 503 L510 502 L510 499 L511 498 L511 495 L512 494 L512 492 L513 491 L513 489 L514 488 L514 487 L515 486 L515 485 L516 484 L516 482 L517 481 L517 480 L518 479 L518 478 L519 477 L519 476 L520 475 L520 473 L522 471 L522 469 L523 468 L523 467 L524 466 L524 464 L525 463 L525 461 L526 460 L526 456 L527 455 L527 448 L528 447 L528 438 L529 437 L529 432 L528 431 L528 422 L527 421 L527 416 L526 415 L526 411 L525 410 L525 408 L524 407 L524 405 L523 404 L523 401 L522 400 L522 399 L521 398 L521 396 L520 395 L520 393 L519 392 L519 391 L518 390 L518 389 L517 388 L517 387 L516 386 L516 385 L515 384 L515 383 L513 381 L513 380 L512 379 L512 378 L509 375 L509 374 L500 365 L499 365 L496 362 L495 362 L493 360 L492 360 L491 359 L490 359 L488 357 L487 357 L486 356 L485 356 L484 355 L483 355 L482 354 L481 354 L480 353 L479 353 L478 352 L476 352 L475 351 L474 351 L473 350 L471 350 L470 349 L468 349 L466 347 L466 346 L465 345 L465 344 L460 339 L459 339 L456 336 L455 336 L453 334 L452 334 L449 331 L448 331 L445 328 L444 328 L440 324 L439 324 L427 312 L427 311 L423 307 L423 306 L420 303 L420 302 L418 300 L418 299 L416 297 L416 296 L415 295 L415 294 L413 292 L413 291 L412 290 L412 289 L411 288 L411 287 L410 286 L410 285 L409 284 L409 283 L408 282 L408 281 L407 280 L407 279 L406 278 L406 276 L405 275 L405 274 L404 273 L404 271 L403 270 L403 269 L402 268 L402 266 L401 265 L401 263 L400 262 L400 261 L399 260 L399 257 L398 256 L398 254 L397 253 L397 251 L396 250 L396 248 L395 247 L395 243 L394 242 L394 239 L393 238 L393 235 L392 234 L392 231 L391 230 L391 226 L390 225 L390 221 L389 220 L389 217 L388 216 L388 212 L387 211 L387 207 L386 206 L386 201 L385 200 L385 195 L384 194 L384 189 L383 188 L383 182 L382 181 L382 175 L381 174 L381 169 L380 168 L380 162 L379 161 L379 157 L378 156 L378 154 L377 153 L377 152 L376 152 L375 151 L374 151 L373 150 L370 150 L368 148 L368 142 L367 141 L367 130 L366 129 L366 121 L365 120 L365 114 L364 113 L364 109 L363 108 L363 103 L362 102 L362 98 L361 97 L361 94 L360 93 L360 90 L359 89 L359 86 L358 85 L358 83 L357 82 L357 80 L356 79 L356 77 L355 76 L355 74 L354 73 L354 71 L353 70 L353 68 L352 67 L352 65 L351 64 L351 62 L350 61 L350 60 L349 59 L349 57 L348 56 L348 55 L347 54 L347 53 L346 52 L346 51 L345 50 L345 49 L344 48 L344 47 L343 46 L343 45 L342 44 L342 43 L341 42 L341 41 L339 39 L339 38 L336 35 L336 34 L325 23 L324 23 L322 21 L321 21 L319 19 L318 19 L317 18 L315 18 L314 17 L313 17 L312 16 L310 16 L309 15 L307 15 L306 14 L303 14 L302 13 L299 13 L298 12 L295 12 L294 11 Z " fill="black"/></svg>