<svg width="397" height="495" xmlns="http://www.w3.org/2000/svg"><path d="M214 11 L213 12 L212 12 L211 13 L210 13 L210 14 L208 16 L203 16 L202 17 L199 17 L197 19 L196 19 L195 20 L194 20 L192 22 L192 23 L191 24 L191 27 L190 28 L189 28 L184 33 L184 34 L183 35 L183 36 L182 37 L182 41 L185 44 L185 46 L184 47 L183 47 L182 48 L181 48 L178 51 L178 52 L177 53 L177 54 L178 55 L178 56 L182 60 L182 63 L186 67 L187 67 L188 68 L189 68 L190 69 L191 69 L194 72 L195 72 L196 73 L197 73 L198 74 L204 74 L205 73 L206 73 L209 70 L210 70 L211 71 L211 72 L209 74 L209 77 L211 79 L217 79 L218 80 L218 81 L217 82 L217 87 L216 88 L216 92 L215 93 L215 96 L214 97 L214 101 L213 102 L213 107 L212 108 L212 112 L211 113 L211 116 L210 117 L210 120 L209 121 L209 126 L208 127 L208 138 L207 139 L207 143 L204 146 L201 146 L200 147 L199 147 L197 149 L196 149 L195 150 L194 150 L193 151 L192 151 L187 156 L184 156 L182 154 L183 153 L183 149 L182 148 L182 146 L185 143 L185 142 L196 131 L196 130 L198 128 L198 127 L199 126 L199 124 L200 123 L200 121 L201 120 L200 119 L200 118 L199 117 L199 116 L196 113 L195 113 L194 112 L193 112 L189 108 L189 107 L185 103 L183 103 L182 102 L181 102 L180 101 L179 101 L178 100 L177 100 L176 99 L174 99 L173 98 L170 98 L169 97 L168 98 L163 98 L162 99 L160 99 L159 100 L157 100 L156 101 L155 101 L153 103 L152 103 L151 104 L145 104 L144 105 L143 105 L139 109 L139 110 L138 111 L138 112 L135 115 L134 115 L133 116 L130 116 L129 117 L128 117 L125 120 L125 121 L124 122 L124 123 L123 124 L123 132 L120 135 L119 135 L115 139 L115 140 L114 141 L114 142 L113 143 L113 144 L114 145 L114 146 L115 147 L115 149 L116 150 L116 151 L117 152 L117 153 L119 155 L119 156 L122 159 L122 160 L121 161 L120 161 L116 157 L116 156 L114 154 L114 152 L113 151 L113 150 L112 149 L112 147 L111 146 L111 145 L110 144 L110 142 L108 140 L108 139 L107 138 L107 137 L106 136 L106 134 L105 133 L105 132 L104 131 L104 130 L103 129 L103 127 L102 126 L102 124 L101 123 L101 121 L100 120 L100 119 L99 118 L99 116 L98 115 L98 114 L101 111 L103 111 L104 110 L105 110 L106 109 L107 109 L109 107 L110 107 L112 105 L113 105 L114 104 L115 104 L117 102 L118 102 L122 98 L122 92 L123 91 L123 90 L124 89 L124 82 L120 78 L118 78 L117 77 L115 77 L114 76 L114 75 L113 74 L114 73 L114 71 L113 70 L113 68 L110 65 L109 65 L107 63 L105 63 L104 62 L103 62 L102 61 L101 61 L100 60 L99 60 L98 59 L95 59 L94 60 L90 60 L86 56 L85 56 L84 55 L77 55 L76 56 L75 56 L73 58 L72 58 L71 59 L70 59 L69 58 L68 58 L66 56 L66 55 L61 55 L58 58 L58 59 L56 61 L56 62 L55 63 L55 64 L54 65 L54 70 L53 71 L53 72 L49 76 L48 75 L48 73 L49 72 L49 71 L50 70 L49 69 L46 72 L46 73 L44 75 L44 76 L43 77 L43 78 L38 83 L38 84 L37 85 L36 85 L35 86 L35 87 L34 88 L34 93 L35 94 L35 96 L37 98 L37 99 L36 100 L36 101 L33 104 L33 106 L32 107 L32 111 L33 112 L33 113 L34 114 L34 115 L39 120 L39 121 L40 121 L41 122 L41 123 L45 127 L46 127 L47 128 L51 128 L52 127 L53 127 L54 126 L55 126 L56 127 L56 128 L60 128 L61 127 L61 126 L63 124 L63 123 L66 120 L66 119 L69 116 L75 122 L76 122 L80 126 L81 126 L82 127 L83 126 L85 126 L86 125 L87 125 L91 121 L93 123 L93 124 L94 125 L94 126 L95 127 L95 129 L96 130 L96 131 L97 132 L97 135 L98 136 L98 137 L99 138 L99 139 L100 140 L100 142 L102 144 L102 145 L103 146 L103 147 L104 148 L104 149 L106 151 L106 152 L107 153 L107 155 L106 156 L102 156 L101 155 L98 155 L97 154 L85 154 L84 155 L81 155 L80 156 L75 156 L74 157 L73 157 L72 158 L71 158 L67 162 L65 162 L64 163 L63 163 L62 164 L60 164 L59 165 L58 165 L58 166 L57 167 L57 170 L55 172 L55 173 L54 174 L53 174 L51 176 L50 176 L49 177 L48 177 L48 178 L47 179 L47 180 L46 181 L46 188 L47 189 L47 191 L48 192 L48 193 L49 194 L49 195 L50 196 L48 198 L46 198 L45 199 L44 199 L43 200 L42 200 L40 202 L38 202 L37 203 L34 203 L32 205 L32 206 L31 207 L31 209 L29 211 L29 212 L28 213 L27 213 L25 215 L24 215 L20 219 L20 220 L18 222 L18 223 L17 224 L17 231 L18 232 L18 233 L19 234 L19 235 L20 236 L19 237 L19 239 L13 245 L13 246 L12 247 L12 248 L11 249 L11 257 L12 258 L12 260 L13 261 L13 267 L14 268 L14 269 L19 274 L20 274 L21 275 L22 275 L24 277 L25 277 L29 281 L35 281 L36 282 L37 282 L41 286 L42 286 L43 287 L48 287 L49 288 L50 287 L53 287 L54 288 L55 288 L56 287 L63 287 L65 289 L65 295 L66 296 L66 300 L67 301 L67 302 L68 303 L68 304 L70 306 L70 307 L74 311 L74 312 L80 318 L81 318 L84 321 L84 333 L85 334 L85 336 L86 337 L86 339 L88 341 L88 342 L90 344 L90 345 L96 351 L96 354 L97 355 L97 361 L98 362 L98 365 L99 366 L99 370 L100 371 L100 376 L101 377 L101 379 L102 380 L102 384 L103 385 L103 388 L104 389 L104 392 L105 393 L105 395 L106 396 L106 399 L107 400 L107 403 L108 404 L108 408 L109 409 L109 414 L110 415 L110 419 L111 420 L111 422 L112 423 L112 425 L113 426 L113 430 L114 431 L114 435 L115 436 L115 439 L116 440 L116 444 L117 445 L117 447 L118 448 L118 451 L119 452 L119 455 L120 456 L120 457 L121 458 L121 459 L123 461 L123 462 L126 465 L126 466 L129 469 L130 469 L131 470 L132 470 L133 471 L134 471 L135 472 L136 472 L137 473 L139 473 L140 474 L141 474 L142 475 L143 475 L144 476 L145 476 L146 477 L147 477 L148 478 L149 478 L150 479 L152 479 L153 480 L164 480 L165 481 L174 481 L175 482 L184 482 L185 483 L209 483 L210 482 L217 482 L218 481 L223 481 L224 480 L225 480 L226 481 L235 481 L236 480 L237 480 L238 479 L239 479 L241 477 L242 477 L243 476 L248 476 L249 475 L250 475 L252 473 L253 473 L254 472 L255 472 L257 470 L258 470 L263 465 L263 464 L264 463 L264 462 L265 461 L265 459 L266 458 L266 457 L267 456 L267 454 L268 453 L268 450 L269 449 L269 446 L270 445 L270 442 L271 441 L271 438 L272 437 L272 434 L273 433 L273 429 L274 428 L274 425 L275 424 L275 421 L276 420 L276 418 L277 417 L277 413 L278 412 L278 406 L279 405 L279 401 L280 400 L280 399 L281 398 L281 396 L282 395 L282 392 L283 391 L283 388 L284 387 L284 379 L285 378 L285 376 L286 375 L286 373 L287 372 L287 369 L288 368 L288 363 L289 362 L289 359 L290 358 L290 354 L292 352 L293 352 L296 349 L296 348 L297 347 L297 346 L298 345 L298 343 L299 342 L299 339 L301 337 L307 337 L308 336 L309 336 L310 335 L311 335 L312 334 L313 334 L314 333 L315 333 L316 332 L317 332 L318 331 L319 331 L325 325 L325 324 L326 323 L326 322 L327 321 L327 316 L328 315 L328 312 L330 310 L331 310 L334 307 L334 306 L335 305 L335 302 L336 301 L336 288 L335 287 L335 276 L334 275 L334 272 L333 271 L333 270 L332 269 L332 268 L331 267 L332 266 L333 266 L334 267 L335 267 L336 268 L337 268 L338 269 L340 269 L341 270 L348 270 L349 269 L353 269 L354 268 L355 268 L357 266 L358 266 L359 265 L362 265 L363 266 L365 266 L366 267 L368 267 L369 268 L376 268 L379 265 L379 264 L380 263 L380 260 L381 259 L381 252 L382 251 L382 249 L383 248 L383 242 L382 241 L382 239 L381 238 L381 236 L380 235 L380 233 L379 232 L379 231 L378 230 L378 229 L377 228 L377 227 L372 222 L371 222 L370 221 L369 221 L368 220 L366 220 L365 219 L365 218 L364 217 L364 215 L363 214 L363 212 L358 207 L357 207 L356 206 L355 206 L354 205 L351 205 L350 204 L347 204 L346 203 L346 201 L347 200 L347 193 L346 192 L346 191 L344 189 L344 182 L343 181 L343 180 L340 177 L339 177 L338 176 L337 176 L336 175 L335 175 L329 169 L328 169 L327 168 L326 168 L325 167 L324 167 L323 166 L321 166 L320 165 L318 165 L317 164 L317 163 L318 162 L318 161 L321 158 L321 157 L327 151 L327 150 L335 142 L335 141 L341 135 L342 136 L342 139 L344 141 L345 141 L346 142 L350 142 L351 143 L352 143 L353 142 L355 142 L357 140 L358 140 L361 137 L362 137 L363 136 L366 136 L367 135 L368 135 L369 136 L371 136 L372 137 L373 137 L374 136 L376 136 L383 129 L383 127 L384 126 L384 125 L385 124 L385 117 L384 116 L384 112 L383 111 L383 109 L381 107 L381 106 L378 103 L378 100 L379 99 L379 93 L378 92 L378 91 L377 90 L377 89 L376 89 L374 87 L364 87 L363 86 L363 81 L362 80 L362 79 L357 74 L355 74 L354 73 L347 73 L346 74 L345 74 L342 77 L339 77 L338 76 L336 76 L335 75 L334 75 L333 74 L330 74 L329 73 L325 73 L324 74 L323 74 L321 76 L321 77 L320 78 L320 81 L319 82 L319 84 L318 85 L317 85 L316 86 L314 86 L313 87 L311 87 L309 89 L309 90 L308 91 L308 95 L307 96 L307 98 L306 99 L306 100 L305 101 L305 103 L304 104 L304 110 L308 114 L310 114 L312 116 L313 116 L314 117 L316 117 L318 119 L319 119 L323 123 L323 126 L324 127 L324 131 L323 132 L323 133 L322 134 L322 135 L320 137 L320 138 L319 139 L319 140 L317 142 L317 143 L308 152 L308 153 L306 155 L306 156 L304 158 L304 159 L302 161 L302 162 L299 165 L294 165 L291 168 L291 171 L289 173 L287 171 L287 170 L286 169 L286 168 L280 162 L278 162 L277 161 L275 161 L273 159 L274 158 L276 158 L277 157 L279 157 L280 156 L281 156 L283 154 L285 154 L286 153 L290 153 L291 154 L293 154 L294 155 L296 155 L297 154 L298 154 L301 151 L301 150 L303 148 L304 148 L310 142 L310 135 L309 134 L309 133 L308 132 L308 130 L307 129 L307 127 L303 123 L302 123 L301 122 L300 122 L299 121 L298 121 L296 119 L296 114 L294 112 L294 111 L293 110 L293 109 L292 108 L292 107 L290 105 L290 104 L288 102 L287 102 L286 101 L285 101 L284 100 L275 100 L274 99 L273 99 L271 97 L270 97 L268 95 L263 95 L259 99 L258 99 L257 100 L256 100 L255 101 L252 101 L251 102 L250 102 L249 103 L248 103 L247 104 L246 104 L243 101 L241 101 L239 103 L239 105 L234 110 L233 110 L233 111 L232 112 L232 113 L230 115 L229 115 L225 119 L225 120 L224 121 L224 124 L223 125 L224 126 L224 128 L225 129 L225 130 L226 131 L226 132 L236 142 L241 142 L242 143 L242 144 L238 148 L234 148 L233 147 L230 147 L229 148 L226 148 L225 147 L224 147 L223 146 L222 146 L221 145 L218 145 L217 146 L216 146 L215 145 L215 141 L216 140 L216 135 L217 134 L217 132 L218 131 L218 127 L219 126 L219 123 L220 122 L220 120 L221 119 L221 118 L222 117 L222 115 L223 114 L223 110 L224 109 L224 105 L225 104 L225 100 L226 99 L226 96 L227 95 L227 92 L228 91 L228 89 L229 88 L229 86 L230 85 L230 84 L231 83 L231 82 L232 81 L232 80 L233 79 L233 78 L234 77 L235 77 L236 76 L238 76 L240 74 L241 74 L243 72 L243 71 L246 68 L247 69 L248 69 L250 71 L251 71 L252 72 L260 72 L261 71 L263 71 L264 70 L266 70 L268 68 L269 68 L270 67 L270 66 L271 65 L271 63 L272 62 L272 52 L273 51 L273 48 L271 46 L271 43 L270 42 L270 41 L262 33 L262 32 L261 31 L261 25 L260 24 L260 23 L259 22 L259 21 L258 20 L256 20 L255 19 L253 19 L252 18 L252 14 L251 14 L250 13 L247 13 L246 12 L243 12 L242 11 L236 11 L235 12 L234 12 L229 17 L228 17 L226 15 L225 15 L222 12 L221 12 L220 11 Z " fill="black"/></svg>