<svg width="383" height="492" xmlns="http://www.w3.org/2000/svg"><path d="M128 96 L126 98 L125 98 L121 102 L120 102 L118 104 L117 104 L116 105 L115 105 L114 106 L111 106 L110 107 L108 107 L107 108 L106 108 L105 109 L104 108 L103 108 L102 107 L100 107 L97 104 L94 104 L92 106 L92 109 L88 113 L87 113 L85 115 L84 115 L81 118 L80 118 L77 121 L76 121 L67 130 L67 131 L65 133 L65 134 L62 137 L62 138 L58 142 L58 143 L56 145 L56 146 L54 148 L54 149 L53 150 L53 151 L51 153 L51 154 L47 158 L47 159 L45 161 L45 162 L43 164 L43 165 L41 167 L41 168 L39 170 L39 171 L35 175 L35 176 L32 179 L32 180 L29 183 L29 184 L26 187 L26 188 L24 190 L24 191 L23 192 L23 193 L22 194 L22 195 L21 196 L21 197 L19 199 L19 200 L18 201 L18 203 L20 203 L21 202 L22 202 L24 200 L25 200 L29 196 L30 196 L32 194 L33 194 L35 192 L36 192 L39 189 L40 189 L43 186 L44 186 L46 184 L47 184 L50 181 L51 181 L54 178 L55 178 L58 175 L59 175 L61 173 L62 173 L64 171 L65 171 L67 169 L68 169 L70 167 L71 167 L74 164 L75 164 L77 162 L78 162 L80 160 L81 160 L84 157 L85 157 L88 154 L89 154 L90 153 L91 153 L92 152 L93 152 L94 151 L95 151 L96 150 L97 150 L99 148 L100 148 L101 147 L102 147 L104 145 L105 145 L106 144 L107 144 L109 142 L110 142 L111 141 L112 141 L113 140 L114 140 L115 139 L116 139 L118 137 L119 137 L121 135 L122 135 L124 133 L125 133 L126 132 L128 132 L129 131 L130 131 L132 129 L132 128 L137 123 L138 123 L139 122 L140 122 L142 120 L144 120 L145 119 L146 119 L147 118 L148 118 L149 117 L150 117 L151 116 L152 116 L154 114 L155 114 L158 111 L158 110 L159 109 L159 106 L160 105 L160 102 L161 101 L161 100 L159 98 L156 98 L155 97 L152 97 L151 96 Z M134 10 L133 11 L132 11 L131 12 L131 14 L130 15 L130 17 L131 18 L131 19 L137 25 L135 27 L131 27 L130 28 L129 28 L128 29 L127 29 L126 30 L125 30 L124 31 L123 31 L121 33 L120 33 L118 35 L117 35 L115 37 L114 37 L112 39 L111 39 L109 41 L108 41 L106 43 L105 43 L99 49 L99 50 L97 52 L97 53 L96 54 L96 55 L95 56 L95 57 L88 64 L88 68 L89 69 L89 70 L90 70 L91 71 L95 71 L96 72 L98 72 L99 73 L102 73 L103 74 L111 74 L112 75 L119 75 L120 76 L125 76 L126 77 L130 77 L131 78 L135 78 L136 79 L138 79 L139 80 L141 80 L142 81 L157 81 L158 80 L162 80 L163 79 L165 79 L166 78 L168 78 L169 79 L169 83 L170 84 L170 92 L171 93 L171 106 L172 107 L172 115 L173 116 L173 123 L174 124 L174 148 L173 149 L173 152 L172 153 L169 150 L169 149 L168 149 L167 148 L166 148 L165 147 L165 146 L162 143 L162 142 L161 141 L161 140 L160 139 L160 138 L158 136 L158 135 L157 134 L157 133 L154 130 L153 130 L152 129 L149 129 L147 131 L147 132 L146 133 L146 134 L147 135 L147 138 L148 139 L148 143 L147 144 L143 144 L141 142 L141 145 L142 146 L142 148 L143 149 L143 158 L142 159 L139 156 L139 154 L138 153 L138 150 L137 149 L137 147 L136 146 L136 144 L134 142 L134 141 L132 139 L132 138 L131 137 L129 137 L129 139 L127 141 L126 141 L125 142 L117 142 L115 144 L115 145 L114 146 L114 149 L113 150 L113 154 L112 155 L112 157 L111 158 L111 159 L110 160 L110 161 L109 162 L109 163 L108 164 L108 165 L107 166 L107 167 L106 168 L106 176 L105 177 L105 179 L104 180 L104 185 L102 187 L100 187 L99 188 L98 188 L97 189 L96 189 L95 190 L94 190 L93 191 L91 191 L90 192 L88 192 L87 193 L86 193 L85 194 L84 194 L83 195 L81 195 L80 196 L78 196 L77 197 L75 197 L74 198 L73 198 L72 199 L71 199 L69 201 L68 201 L68 202 L67 203 L67 206 L69 208 L70 208 L71 209 L72 209 L74 211 L76 211 L78 213 L78 214 L77 215 L76 215 L74 217 L73 217 L69 221 L68 221 L65 224 L64 224 L61 227 L60 227 L59 228 L59 229 L56 232 L56 233 L55 234 L55 235 L54 236 L54 237 L53 238 L53 239 L48 244 L48 245 L46 247 L46 248 L44 250 L44 251 L42 253 L42 254 L40 256 L40 257 L35 262 L35 263 L32 266 L32 267 L30 269 L30 270 L29 271 L29 272 L24 277 L24 278 L22 280 L22 281 L21 282 L21 283 L20 284 L20 286 L19 287 L19 288 L18 289 L18 290 L17 291 L17 292 L16 293 L16 294 L15 295 L15 296 L14 297 L14 298 L13 299 L13 300 L12 301 L12 303 L11 304 L11 309 L12 310 L14 310 L15 309 L15 308 L28 295 L29 295 L30 294 L32 294 L33 293 L36 293 L37 292 L42 292 L43 291 L45 291 L46 290 L47 290 L48 289 L49 289 L51 287 L53 287 L54 286 L61 286 L62 285 L63 285 L64 284 L65 284 L66 283 L68 283 L70 281 L72 281 L73 280 L74 280 L75 279 L76 279 L77 278 L78 278 L79 277 L80 277 L81 276 L82 276 L83 275 L84 275 L85 274 L86 274 L88 272 L89 272 L91 270 L92 270 L94 268 L96 268 L102 274 L97 279 L96 279 L95 280 L95 281 L88 288 L87 288 L85 290 L84 290 L80 294 L80 295 L79 296 L79 298 L80 299 L80 302 L81 303 L81 304 L80 305 L80 307 L79 308 L79 309 L78 310 L78 312 L77 313 L77 314 L76 315 L76 317 L75 318 L75 320 L74 321 L74 323 L73 324 L73 326 L72 327 L72 329 L71 330 L71 331 L70 332 L70 335 L69 336 L69 339 L68 340 L68 341 L66 343 L65 343 L65 344 L64 345 L64 348 L63 349 L63 352 L62 353 L62 358 L61 359 L61 362 L60 363 L60 377 L61 378 L63 378 L63 377 L64 376 L64 375 L65 374 L65 373 L66 372 L66 371 L67 370 L68 370 L69 371 L69 372 L71 372 L78 365 L79 365 L81 363 L82 363 L83 362 L84 362 L86 360 L87 360 L89 358 L91 358 L92 357 L94 357 L95 356 L100 356 L101 357 L98 360 L98 393 L99 394 L99 411 L100 412 L100 413 L99 414 L99 423 L100 424 L100 441 L101 442 L101 450 L102 451 L102 453 L103 454 L103 455 L104 456 L104 457 L106 459 L106 460 L114 468 L115 468 L116 469 L117 469 L118 470 L119 470 L120 471 L122 471 L123 472 L127 472 L128 473 L131 473 L132 474 L136 474 L137 475 L140 475 L141 476 L145 476 L146 477 L151 477 L152 478 L157 478 L158 479 L172 479 L173 480 L204 480 L205 479 L215 479 L216 478 L222 478 L223 477 L226 477 L227 476 L229 476 L230 475 L234 475 L235 474 L239 474 L240 473 L243 473 L244 472 L247 472 L248 471 L250 471 L251 470 L253 470 L254 469 L255 469 L256 468 L257 468 L259 466 L260 466 L267 459 L267 458 L269 456 L269 455 L270 454 L270 449 L271 448 L271 435 L270 434 L270 397 L271 396 L271 387 L272 386 L272 318 L271 317 L271 314 L270 313 L270 312 L265 307 L264 307 L263 306 L262 306 L261 305 L257 305 L256 304 L255 305 L255 306 L259 306 L261 308 L262 308 L263 309 L263 310 L262 311 L261 311 L260 312 L259 312 L255 308 L254 309 L252 307 L252 302 L251 301 L251 298 L250 297 L250 296 L248 294 L248 293 L241 286 L240 286 L239 285 L238 285 L237 284 L236 284 L235 283 L234 283 L232 281 L235 278 L236 278 L239 275 L240 275 L243 272 L244 272 L246 274 L247 274 L248 275 L249 275 L251 277 L252 277 L255 280 L256 280 L257 281 L258 281 L259 282 L260 282 L261 283 L262 283 L263 284 L265 284 L266 285 L267 285 L268 286 L269 286 L270 287 L272 287 L273 288 L274 288 L275 289 L276 289 L277 290 L278 290 L279 291 L280 291 L281 292 L283 292 L284 293 L294 293 L295 294 L298 294 L299 295 L302 295 L303 296 L305 296 L306 297 L308 297 L309 298 L311 298 L312 299 L313 299 L314 300 L315 300 L316 301 L317 301 L319 303 L320 303 L321 304 L322 304 L324 306 L325 306 L327 308 L328 308 L332 312 L333 312 L334 313 L335 313 L337 311 L337 299 L336 298 L336 296 L335 295 L335 294 L334 293 L334 292 L333 291 L333 290 L332 289 L332 287 L331 286 L331 284 L330 283 L330 280 L329 279 L329 277 L328 276 L328 274 L327 273 L327 271 L326 270 L326 268 L325 267 L325 265 L324 264 L324 261 L323 260 L323 256 L322 255 L322 253 L321 252 L321 249 L320 248 L320 246 L319 245 L319 243 L318 242 L318 240 L317 239 L317 238 L316 237 L316 235 L314 233 L314 232 L313 231 L313 230 L312 229 L312 228 L310 226 L310 224 L308 222 L308 221 L307 220 L307 219 L305 217 L304 217 L302 215 L301 215 L295 209 L295 208 L291 204 L291 203 L290 202 L291 201 L292 201 L293 202 L294 202 L295 203 L296 203 L297 204 L298 204 L299 205 L301 205 L302 206 L304 206 L305 207 L306 207 L307 208 L308 208 L309 209 L310 209 L311 210 L312 210 L313 211 L314 211 L315 212 L316 212 L317 213 L318 213 L319 214 L320 214 L321 215 L323 215 L324 216 L326 216 L327 217 L329 217 L330 218 L334 218 L335 219 L337 219 L338 220 L339 220 L340 221 L341 221 L343 223 L344 223 L345 224 L346 224 L347 225 L348 225 L350 227 L351 227 L353 229 L354 229 L356 231 L357 231 L358 232 L359 232 L363 236 L364 236 L368 240 L371 240 L372 239 L372 237 L371 236 L371 235 L370 234 L370 233 L369 232 L369 231 L368 230 L368 229 L367 228 L367 227 L366 226 L366 225 L365 224 L365 223 L362 220 L362 219 L352 209 L351 209 L347 205 L346 205 L339 198 L338 198 L333 193 L332 193 L329 190 L328 190 L317 179 L317 178 L315 176 L315 175 L313 173 L313 172 L312 171 L312 170 L310 168 L310 167 L306 163 L306 162 L301 157 L300 157 L299 156 L298 156 L297 155 L297 154 L301 150 L301 131 L300 130 L300 128 L299 127 L299 126 L298 125 L298 123 L297 122 L297 119 L296 118 L296 117 L297 116 L297 115 L296 114 L296 113 L290 107 L290 106 L289 105 L289 102 L281 94 L280 94 L279 93 L278 93 L277 92 L275 92 L274 91 L273 91 L272 90 L270 90 L269 89 L266 89 L265 88 L265 81 L264 80 L264 79 L263 78 L262 78 L261 77 L260 77 L259 76 L253 76 L252 77 L250 77 L249 78 L248 78 L247 79 L246 79 L236 89 L230 83 L229 83 L225 79 L224 79 L223 78 L219 78 L218 79 L217 79 L212 84 L212 85 L211 86 L211 88 L210 89 L210 94 L211 95 L211 96 L212 97 L212 98 L211 99 L198 99 L197 100 L196 100 L195 101 L194 101 L193 102 L193 103 L191 105 L191 106 L189 108 L189 109 L188 110 L188 112 L187 113 L187 114 L188 115 L188 116 L189 117 L189 120 L190 121 L190 123 L191 124 L191 125 L192 126 L192 128 L193 129 L193 130 L195 132 L195 133 L197 135 L197 136 L202 141 L203 141 L207 145 L207 146 L206 147 L206 154 L205 155 L205 156 L204 157 L202 155 L201 155 L200 154 L199 154 L198 153 L188 153 L187 154 L185 154 L184 153 L184 151 L183 150 L183 144 L182 143 L182 128 L181 127 L181 121 L180 120 L180 116 L181 115 L181 107 L180 106 L180 92 L179 91 L179 80 L178 79 L178 73 L180 71 L181 72 L186 72 L187 71 L189 71 L190 70 L192 70 L194 68 L195 68 L197 66 L198 66 L202 62 L202 61 L204 59 L204 58 L205 57 L205 56 L206 55 L206 51 L207 50 L207 44 L206 43 L206 41 L205 40 L205 39 L202 36 L201 36 L200 35 L199 35 L198 34 L196 34 L195 33 L192 33 L190 31 L188 31 L187 30 L186 30 L185 31 L176 31 L175 30 L166 30 L165 31 L163 31 L162 32 L161 32 L160 33 L159 33 L158 34 L156 34 L155 33 L154 33 L153 32 L152 32 L148 28 L148 27 L147 26 L147 23 L141 17 L141 16 L139 14 L139 13 L137 11 L135 11 Z " fill="black"/></svg>