<svg width="321" height="482" xmlns="http://www.w3.org/2000/svg"><path d="M107 67 L107 69 L106 70 L106 73 L105 74 L105 82 L104 83 L104 100 L105 101 L105 103 L106 102 L106 99 L107 98 L107 94 L108 93 L108 91 L109 90 L109 89 L108 88 L108 76 L109 75 L109 73 L110 72 L112 74 L112 86 L111 87 L111 88 L112 89 L112 95 L113 96 L113 100 L114 99 L114 93 L115 92 L115 73 L114 72 L114 71 L113 70 L113 69 L112 69 L110 67 Z M164 10 L163 11 L162 11 L162 12 L161 13 L161 26 L160 27 L160 31 L159 32 L159 35 L160 36 L160 39 L159 40 L159 41 L160 42 L160 49 L159 50 L159 51 L158 52 L158 53 L157 54 L157 56 L156 57 L156 59 L155 60 L155 69 L154 70 L154 75 L153 76 L153 79 L150 82 L150 83 L149 84 L149 90 L148 91 L148 93 L147 94 L147 106 L146 107 L146 116 L145 117 L145 123 L144 124 L144 127 L143 128 L142 128 L141 127 L141 126 L140 125 L140 124 L139 123 L139 121 L138 120 L138 116 L137 115 L137 112 L136 111 L136 109 L135 108 L135 107 L134 106 L134 105 L133 104 L133 101 L132 100 L132 98 L129 98 L129 99 L128 100 L128 101 L127 102 L127 108 L126 109 L126 127 L127 128 L127 136 L128 137 L128 148 L129 149 L129 152 L127 154 L125 152 L125 151 L124 150 L124 149 L123 148 L123 147 L122 146 L122 145 L120 143 L120 142 L119 141 L119 140 L117 138 L117 137 L116 136 L116 134 L115 133 L115 129 L114 128 L114 120 L113 119 L113 106 L112 107 L112 115 L111 116 L111 119 L110 120 L109 120 L108 119 L108 118 L107 117 L105 117 L105 118 L106 119 L106 123 L107 124 L107 125 L108 126 L108 127 L109 128 L109 129 L108 130 L107 130 L106 129 L106 128 L105 127 L105 125 L103 123 L103 122 L102 121 L102 120 L100 118 L100 117 L99 116 L99 115 L97 113 L97 108 L96 107 L97 106 L98 106 L100 108 L100 110 L101 111 L101 112 L103 114 L103 108 L102 107 L102 106 L100 104 L100 103 L99 102 L99 101 L98 100 L98 95 L97 94 L97 91 L96 90 L96 87 L95 86 L95 85 L94 84 L94 83 L93 82 L93 79 L92 78 L92 77 L91 76 L91 74 L90 73 L90 72 L89 71 L89 70 L86 67 L86 66 L85 65 L85 62 L84 61 L84 60 L82 58 L82 57 L81 56 L79 56 L77 58 L78 59 L78 67 L77 68 L77 86 L78 87 L78 88 L79 89 L80 88 L81 89 L81 90 L80 91 L79 91 L79 106 L80 107 L80 110 L81 111 L81 114 L82 115 L82 117 L83 118 L83 133 L84 134 L84 137 L85 138 L85 140 L86 141 L86 142 L87 143 L87 145 L88 146 L88 149 L89 150 L89 152 L90 153 L90 155 L91 156 L91 159 L92 160 L92 165 L91 166 L90 166 L88 164 L88 163 L85 160 L84 160 L80 156 L80 155 L78 153 L77 153 L72 148 L71 148 L66 143 L66 142 L64 140 L64 139 L63 139 L61 137 L60 137 L59 136 L58 136 L54 132 L53 132 L51 130 L50 130 L48 128 L47 128 L45 126 L44 126 L41 123 L40 123 L39 122 L38 122 L36 120 L35 120 L34 119 L33 119 L32 118 L31 118 L30 117 L29 117 L27 115 L23 115 L23 120 L25 122 L25 123 L31 129 L31 130 L33 132 L33 133 L35 135 L35 136 L36 137 L36 138 L38 140 L38 141 L39 142 L39 143 L40 144 L40 145 L48 153 L48 154 L49 155 L49 156 L50 157 L50 158 L51 159 L51 160 L53 162 L53 163 L54 164 L54 165 L55 166 L55 167 L56 168 L56 169 L57 170 L57 172 L59 174 L59 175 L60 176 L60 177 L61 178 L61 179 L62 180 L62 182 L63 183 L63 184 L64 185 L64 186 L65 187 L65 188 L66 189 L66 191 L67 192 L67 193 L69 195 L69 196 L70 197 L70 199 L71 200 L71 201 L72 202 L72 203 L73 204 L73 205 L74 206 L74 207 L77 210 L77 211 L82 216 L82 217 L84 219 L84 220 L86 222 L86 223 L87 224 L87 225 L88 226 L88 228 L87 229 L85 229 L83 227 L83 226 L82 225 L82 224 L79 221 L79 220 L76 217 L76 216 L65 205 L64 205 L62 203 L61 203 L60 202 L59 202 L57 200 L56 200 L53 197 L51 197 L50 196 L49 196 L48 195 L47 195 L46 194 L44 194 L43 193 L42 193 L41 192 L39 192 L38 191 L37 191 L36 190 L35 190 L34 189 L32 189 L31 188 L30 188 L28 186 L26 186 L25 185 L17 185 L16 186 L12 186 L11 187 L11 188 L13 190 L13 191 L18 196 L19 196 L23 200 L24 200 L27 203 L28 203 L34 209 L35 209 L48 222 L48 223 L52 227 L52 228 L56 232 L56 233 L58 235 L58 236 L60 238 L60 239 L62 241 L62 242 L65 245 L65 246 L66 247 L66 248 L68 250 L68 251 L71 254 L71 255 L72 255 L73 256 L73 257 L75 259 L75 260 L76 261 L73 264 L72 264 L71 265 L70 265 L69 266 L65 266 L64 267 L62 267 L61 268 L60 268 L59 269 L58 269 L56 271 L56 272 L51 277 L51 278 L50 279 L50 280 L49 281 L49 282 L48 283 L48 285 L47 286 L47 287 L46 288 L46 290 L45 291 L45 292 L44 293 L44 294 L43 295 L43 297 L42 298 L42 299 L41 300 L41 301 L40 302 L40 304 L39 305 L39 308 L38 309 L38 310 L37 311 L37 313 L35 315 L35 316 L34 317 L34 318 L33 319 L33 320 L32 321 L32 323 L31 324 L31 325 L30 326 L30 327 L28 329 L28 330 L27 331 L27 334 L26 335 L26 337 L25 338 L25 339 L24 340 L24 341 L22 343 L22 344 L21 345 L21 346 L20 347 L20 351 L19 352 L19 354 L18 355 L18 356 L17 357 L17 361 L16 362 L16 363 L15 364 L15 365 L14 366 L14 367 L13 368 L13 373 L16 376 L16 380 L17 381 L17 382 L18 383 L18 384 L20 386 L20 387 L21 388 L21 389 L23 391 L23 392 L24 393 L24 394 L26 396 L26 397 L28 399 L28 400 L31 403 L31 404 L34 407 L34 408 L37 411 L37 412 L41 416 L41 417 L43 419 L43 420 L44 421 L44 422 L46 424 L46 425 L48 427 L48 428 L50 430 L50 431 L51 432 L51 434 L53 436 L53 437 L63 447 L65 447 L66 448 L67 448 L68 449 L69 449 L70 450 L71 450 L72 451 L74 451 L76 453 L78 453 L79 454 L81 454 L82 455 L84 455 L85 456 L86 456 L87 457 L88 457 L90 459 L91 459 L92 460 L93 460 L94 461 L96 461 L97 462 L99 462 L100 463 L102 463 L103 464 L104 464 L105 465 L107 465 L108 466 L109 466 L111 468 L112 468 L113 469 L115 469 L116 470 L131 470 L132 469 L197 469 L198 470 L209 470 L210 469 L212 469 L213 468 L214 468 L216 466 L218 466 L219 465 L222 465 L223 464 L225 464 L226 463 L227 463 L228 462 L229 462 L230 461 L231 461 L232 460 L233 460 L234 459 L236 459 L237 458 L238 458 L239 457 L240 457 L241 456 L243 456 L244 455 L245 455 L246 454 L248 454 L249 453 L251 453 L252 452 L253 452 L254 451 L255 451 L256 450 L258 450 L259 449 L260 449 L261 448 L262 448 L266 444 L267 444 L267 443 L270 440 L270 439 L271 438 L271 437 L276 432 L276 431 L277 430 L277 429 L279 427 L279 426 L280 425 L280 424 L281 423 L281 422 L282 421 L282 420 L283 419 L283 418 L285 416 L285 415 L289 411 L290 411 L290 409 L291 408 L291 406 L294 403 L294 402 L296 400 L296 399 L297 398 L297 397 L298 396 L298 395 L299 394 L299 393 L300 392 L300 391 L301 390 L301 389 L303 387 L303 386 L305 384 L305 383 L306 382 L306 376 L308 374 L308 373 L309 372 L309 368 L308 367 L308 363 L307 362 L307 361 L306 360 L306 356 L305 355 L305 353 L304 352 L304 351 L303 350 L303 349 L302 348 L302 347 L301 346 L301 345 L300 344 L300 343 L299 342 L299 340 L298 339 L298 335 L297 334 L297 333 L296 332 L296 331 L295 330 L295 329 L294 328 L294 327 L293 326 L293 324 L292 323 L292 318 L291 317 L291 316 L290 315 L290 314 L289 313 L289 312 L287 310 L287 308 L286 307 L286 305 L285 304 L285 300 L284 299 L284 298 L283 297 L283 295 L282 294 L282 292 L281 291 L281 289 L280 288 L280 286 L278 284 L278 283 L277 282 L277 280 L276 279 L276 276 L274 274 L274 273 L273 272 L272 272 L271 271 L269 271 L268 270 L267 270 L266 269 L264 269 L263 268 L261 268 L260 267 L258 267 L257 266 L254 266 L253 265 L250 265 L249 264 L246 264 L245 263 L245 261 L247 259 L247 258 L250 255 L250 254 L253 251 L253 250 L254 249 L254 248 L256 246 L256 245 L257 244 L257 243 L258 242 L258 241 L259 240 L259 239 L261 237 L261 236 L263 234 L263 233 L264 232 L264 231 L265 230 L265 229 L266 228 L266 227 L267 226 L267 224 L268 223 L268 222 L269 221 L269 220 L270 219 L270 218 L271 217 L271 216 L272 215 L272 214 L273 213 L273 212 L275 210 L275 209 L276 208 L276 207 L277 206 L277 205 L278 204 L278 203 L279 202 L279 201 L280 200 L280 199 L281 198 L281 192 L282 191 L282 190 L283 189 L283 186 L284 185 L284 183 L285 182 L285 181 L286 180 L286 178 L287 177 L287 174 L288 173 L288 169 L289 168 L289 166 L290 165 L290 163 L291 162 L291 155 L292 154 L292 152 L293 151 L293 149 L295 147 L295 146 L296 145 L296 143 L297 142 L297 139 L298 138 L298 127 L299 126 L299 124 L298 123 L295 123 L292 126 L292 127 L291 128 L291 129 L290 130 L290 131 L288 133 L288 134 L286 136 L286 137 L284 139 L284 140 L282 142 L282 143 L281 144 L281 145 L280 146 L280 147 L278 149 L278 150 L277 151 L277 152 L276 153 L276 154 L275 155 L275 156 L273 158 L273 159 L272 160 L272 161 L270 163 L270 164 L269 165 L269 166 L268 167 L268 168 L266 170 L266 171 L264 173 L264 174 L260 178 L260 179 L255 184 L255 185 L253 187 L253 188 L252 189 L252 190 L250 192 L250 193 L249 194 L249 195 L248 196 L248 197 L247 198 L247 199 L246 200 L246 201 L245 202 L245 203 L244 204 L244 205 L243 206 L243 207 L242 208 L242 209 L241 210 L241 211 L240 212 L240 214 L239 215 L239 216 L238 217 L238 218 L237 219 L237 220 L236 221 L236 222 L235 223 L235 224 L234 225 L234 226 L233 227 L233 229 L232 230 L232 231 L231 232 L231 233 L230 234 L230 235 L229 236 L229 237 L228 238 L228 239 L226 241 L225 240 L225 238 L226 237 L226 235 L227 234 L227 233 L228 232 L228 231 L229 230 L229 228 L230 227 L230 226 L231 225 L231 224 L232 223 L232 222 L233 221 L233 220 L234 219 L234 218 L235 217 L235 216 L236 215 L236 214 L237 213 L237 211 L238 210 L238 209 L239 208 L239 206 L240 205 L240 203 L241 202 L241 199 L242 198 L242 195 L243 194 L243 191 L244 190 L244 188 L245 187 L245 185 L246 184 L246 183 L247 182 L247 180 L248 179 L248 177 L249 176 L249 174 L250 173 L250 170 L251 169 L251 166 L252 165 L252 162 L253 161 L253 159 L254 158 L254 156 L255 155 L255 154 L256 153 L256 152 L257 151 L257 149 L258 148 L258 146 L259 145 L259 143 L260 142 L260 139 L261 138 L261 136 L262 135 L262 133 L263 132 L263 129 L264 128 L264 125 L265 124 L265 120 L266 119 L266 112 L265 112 L265 113 L263 115 L262 115 L261 116 L260 116 L254 122 L254 123 L252 125 L252 126 L250 128 L250 129 L249 130 L249 131 L248 132 L248 133 L246 135 L246 136 L244 138 L244 139 L243 140 L243 141 L241 143 L241 144 L240 145 L240 146 L237 149 L237 150 L235 152 L235 153 L234 154 L234 155 L232 157 L232 158 L230 160 L230 161 L229 162 L229 163 L227 165 L226 164 L226 160 L227 159 L227 156 L228 155 L228 153 L229 152 L229 150 L230 149 L230 147 L231 146 L231 144 L232 143 L232 141 L233 140 L233 137 L234 136 L234 133 L235 132 L235 128 L234 127 L234 126 L236 124 L237 124 L238 123 L238 120 L239 119 L239 118 L240 117 L240 115 L241 114 L241 112 L242 111 L242 110 L243 109 L243 108 L244 107 L244 106 L246 104 L246 102 L247 101 L247 98 L248 97 L248 96 L249 95 L249 93 L250 92 L250 90 L251 89 L251 87 L250 86 L250 82 L247 82 L246 83 L245 83 L245 84 L243 86 L242 86 L240 88 L239 88 L238 89 L237 89 L236 90 L235 90 L234 89 L234 83 L235 82 L235 74 L236 73 L236 67 L237 66 L237 62 L238 61 L238 36 L237 35 L237 31 L235 31 L233 33 L233 34 L231 36 L231 38 L230 39 L230 43 L229 44 L229 45 L226 48 L226 51 L225 52 L225 55 L224 56 L224 61 L223 62 L223 63 L222 64 L222 66 L221 67 L221 69 L220 70 L220 79 L219 80 L219 81 L218 82 L217 81 L215 81 L215 88 L216 89 L216 91 L215 92 L215 96 L214 97 L214 99 L213 100 L213 101 L212 102 L212 103 L211 104 L211 110 L210 111 L210 114 L209 115 L209 118 L207 120 L206 119 L206 107 L207 106 L207 95 L206 94 L206 92 L205 92 L203 90 L203 89 L202 89 L201 90 L201 91 L200 92 L200 101 L199 102 L199 106 L198 107 L198 113 L197 114 L197 120 L196 121 L196 125 L195 126 L195 128 L194 129 L194 131 L193 132 L193 133 L192 134 L192 136 L191 137 L191 139 L190 140 L190 142 L189 143 L189 144 L188 145 L188 146 L187 147 L186 146 L186 104 L185 103 L186 102 L186 99 L185 98 L185 92 L186 91 L186 89 L185 88 L185 85 L184 84 L182 84 L181 83 L181 70 L180 69 L180 65 L179 64 L179 52 L178 51 L178 49 L175 46 L175 38 L174 37 L174 31 L173 30 L173 28 L172 27 L172 26 L171 25 L171 24 L170 23 L170 19 L169 18 L169 16 L168 15 L168 13 L166 11 L165 11 Z " fill="black"/></svg>