<svg width="601" height="1052" xmlns="http://www.w3.org/2000/svg"><path d="M20 270 L18 272 L18 274 L17 275 L17 276 L16 277 L16 286 L15 287 L15 293 L14 294 L14 297 L13 298 L13 301 L12 302 L12 304 L11 305 L11 306 L10 307 L10 308 L9 309 L9 310 L8 311 L8 312 L7 313 L5 311 L5 310 L4 309 L4 308 L3 307 L3 306 L1 304 L1 303 L0 302 L0 382 L1 383 L1 382 L2 381 L1 380 L1 379 L2 378 L3 378 L5 380 L5 381 L4 382 L5 383 L4 384 L4 385 L2 387 L0 387 L0 388 L1 388 L2 389 L0 391 L0 450 L1 449 L2 449 L3 448 L5 448 L6 447 L8 447 L10 445 L12 445 L13 444 L16 447 L16 449 L17 450 L17 452 L18 453 L18 457 L19 458 L19 459 L20 460 L20 462 L21 463 L21 464 L22 465 L22 467 L23 468 L23 469 L24 470 L24 471 L25 472 L25 473 L26 474 L26 475 L30 475 L32 473 L32 472 L33 471 L33 470 L34 469 L34 468 L35 467 L35 464 L36 463 L36 462 L37 461 L37 459 L38 458 L38 457 L39 456 L39 454 L40 453 L40 452 L41 451 L41 450 L42 449 L42 448 L43 447 L43 445 L44 444 L44 443 L45 442 L45 440 L46 439 L46 437 L47 436 L47 435 L48 434 L48 433 L49 432 L52 432 L53 433 L54 433 L58 437 L59 437 L68 446 L69 446 L70 447 L71 447 L72 448 L77 448 L78 447 L78 444 L79 443 L79 442 L80 441 L80 439 L81 438 L82 438 L83 439 L83 440 L84 441 L84 444 L85 445 L85 448 L86 449 L86 452 L87 453 L87 455 L89 457 L89 458 L90 459 L90 460 L92 462 L93 462 L94 463 L97 463 L98 462 L99 462 L102 459 L102 458 L103 457 L103 456 L104 455 L104 453 L105 452 L105 446 L104 445 L104 444 L101 441 L100 441 L98 439 L97 439 L93 435 L92 435 L89 432 L89 431 L86 428 L86 427 L81 422 L81 421 L79 419 L80 418 L81 418 L85 422 L86 422 L88 424 L92 424 L93 423 L93 420 L91 418 L91 417 L84 410 L85 409 L95 409 L96 408 L100 408 L101 407 L104 407 L105 406 L111 406 L112 405 L117 405 L118 404 L119 404 L121 402 L121 401 L122 400 L122 398 L118 394 L117 394 L113 390 L112 390 L108 386 L107 386 L99 378 L100 377 L102 377 L103 376 L105 376 L106 375 L108 375 L109 374 L110 374 L112 372 L113 372 L122 363 L122 362 L123 361 L123 357 L121 355 L117 355 L116 354 L111 354 L110 353 L105 353 L104 352 L100 352 L99 351 L88 351 L87 352 L86 352 L85 351 L85 349 L86 348 L86 346 L87 345 L87 344 L88 343 L88 342 L89 341 L89 340 L90 339 L90 338 L91 337 L91 336 L93 334 L93 333 L94 332 L94 331 L96 329 L96 327 L97 326 L97 324 L98 323 L98 321 L99 320 L99 318 L100 317 L100 316 L101 315 L101 309 L102 308 L102 305 L101 304 L101 303 L99 303 L98 304 L97 304 L96 305 L95 305 L94 306 L92 306 L91 307 L90 307 L89 308 L87 308 L85 310 L84 310 L83 311 L81 311 L80 312 L78 312 L77 313 L76 313 L75 314 L73 314 L71 316 L70 316 L69 317 L68 317 L67 318 L66 318 L64 320 L64 321 L61 324 L61 325 L58 328 L58 329 L57 330 L57 331 L54 334 L54 335 L53 336 L53 337 L51 339 L51 340 L50 341 L50 342 L47 345 L47 346 L43 350 L42 350 L41 351 L39 351 L38 352 L35 352 L34 351 L32 351 L31 350 L30 350 L29 349 L27 349 L26 348 L25 348 L24 347 L23 347 L22 346 L21 346 L20 345 L19 345 L18 344 L17 344 L16 343 L15 343 L14 342 L13 342 L12 341 L14 339 L15 339 L16 338 L17 338 L18 337 L19 337 L20 336 L21 336 L22 335 L23 335 L25 333 L26 333 L28 331 L29 331 L35 325 L35 324 L36 323 L36 322 L37 321 L37 318 L38 317 L38 307 L37 306 L37 300 L36 299 L36 296 L35 295 L35 294 L34 293 L34 291 L33 290 L33 289 L32 288 L32 287 L31 286 L31 285 L30 284 L30 283 L29 282 L29 280 L27 278 L27 277 L26 276 L26 275 L25 274 L25 273 L22 270 Z M0 199 L0 248 L3 248 L4 247 L6 247 L7 246 L8 246 L11 243 L12 243 L14 241 L14 240 L16 238 L17 238 L18 237 L20 237 L21 236 L23 236 L24 235 L25 235 L26 234 L28 234 L29 233 L31 233 L32 232 L33 232 L34 231 L35 231 L36 230 L37 230 L38 229 L39 229 L44 224 L44 223 L46 221 L46 220 L45 219 L44 219 L42 217 L41 217 L39 215 L38 215 L37 214 L36 214 L35 213 L34 213 L33 212 L32 212 L31 211 L30 211 L29 210 L28 210 L27 209 L26 209 L25 208 L23 208 L22 207 L21 207 L19 205 L17 205 L16 204 L15 204 L14 203 L12 203 L11 202 L9 202 L8 201 L6 201 L5 200 L1 200 Z M472 11 L470 13 L470 14 L468 16 L468 17 L465 20 L465 21 L463 23 L463 24 L462 25 L462 26 L461 27 L461 28 L459 30 L459 31 L457 33 L457 34 L454 37 L454 38 L453 39 L453 40 L452 41 L452 42 L451 43 L451 45 L450 46 L450 48 L449 49 L449 50 L448 51 L448 53 L447 54 L447 56 L446 57 L446 59 L445 60 L445 62 L444 63 L444 65 L443 66 L443 67 L442 68 L442 70 L441 71 L441 72 L440 73 L440 74 L439 75 L439 77 L438 78 L438 79 L437 80 L437 82 L436 83 L436 85 L435 86 L435 88 L434 89 L434 91 L433 92 L433 94 L432 95 L432 97 L431 98 L431 100 L430 101 L430 102 L429 103 L429 105 L428 106 L428 107 L427 108 L427 110 L426 111 L426 117 L425 118 L425 120 L424 121 L424 123 L423 124 L423 126 L422 127 L422 130 L421 131 L421 134 L420 135 L420 138 L419 139 L419 141 L418 142 L418 145 L417 146 L417 149 L416 150 L416 153 L415 154 L415 156 L414 157 L414 159 L413 160 L413 163 L412 164 L412 166 L411 167 L411 169 L410 170 L410 172 L409 173 L409 174 L408 175 L408 176 L402 182 L401 182 L400 183 L399 183 L397 185 L395 185 L394 186 L392 186 L391 187 L389 187 L386 184 L386 183 L384 181 L384 180 L382 178 L382 177 L381 176 L381 175 L380 174 L380 170 L379 169 L379 167 L378 166 L378 165 L377 164 L377 163 L376 162 L376 161 L373 158 L373 157 L361 145 L361 144 L357 140 L357 139 L351 133 L350 133 L347 130 L346 130 L344 128 L343 128 L341 126 L340 126 L338 124 L337 124 L336 123 L335 123 L334 122 L333 122 L331 120 L330 120 L329 119 L328 119 L327 118 L326 118 L325 117 L324 117 L323 116 L322 116 L321 115 L319 115 L317 113 L315 113 L314 112 L312 112 L311 111 L309 111 L308 110 L306 110 L305 109 L304 109 L303 108 L302 108 L301 107 L299 107 L298 106 L295 106 L294 105 L289 105 L288 104 L260 104 L259 105 L250 105 L249 106 L240 106 L239 107 L232 107 L231 108 L228 108 L227 109 L225 109 L224 110 L223 110 L219 114 L216 114 L215 115 L212 115 L211 116 L208 116 L207 117 L205 117 L204 118 L203 118 L202 119 L201 119 L200 120 L198 120 L197 121 L196 121 L195 122 L194 122 L193 123 L192 123 L191 124 L190 124 L189 125 L188 125 L187 126 L186 126 L185 127 L184 127 L183 128 L182 128 L181 129 L180 129 L179 130 L178 130 L176 132 L175 132 L174 133 L173 133 L171 135 L170 135 L169 136 L168 136 L166 138 L165 138 L162 141 L161 141 L158 144 L157 144 L156 145 L155 145 L153 147 L152 147 L149 150 L148 150 L148 154 L150 156 L151 156 L152 157 L155 157 L156 158 L160 158 L161 159 L164 159 L165 160 L166 160 L167 161 L168 161 L169 162 L170 162 L171 163 L172 163 L173 164 L174 164 L175 165 L176 165 L181 170 L182 170 L195 183 L195 184 L196 184 L198 186 L199 186 L200 187 L201 187 L203 189 L204 189 L205 190 L206 190 L209 193 L210 193 L211 194 L212 194 L214 196 L215 196 L218 199 L219 199 L225 205 L226 205 L228 207 L229 207 L230 208 L231 208 L232 209 L233 209 L234 210 L235 210 L236 211 L237 211 L238 212 L240 212 L242 214 L243 214 L244 215 L245 215 L246 216 L247 216 L248 217 L250 217 L251 218 L253 218 L254 219 L257 219 L258 220 L261 220 L262 221 L264 221 L265 222 L266 222 L270 226 L271 226 L272 227 L273 227 L274 226 L276 226 L277 225 L293 225 L294 226 L296 226 L297 227 L300 227 L301 228 L312 228 L313 227 L317 227 L318 226 L321 226 L322 225 L324 225 L325 224 L330 224 L331 223 L335 223 L336 222 L339 222 L340 221 L344 221 L345 220 L347 220 L348 219 L350 219 L351 218 L353 218 L354 217 L355 217 L356 216 L357 216 L359 214 L360 214 L363 211 L364 211 L367 208 L368 208 L371 205 L372 205 L373 204 L377 204 L378 203 L380 203 L381 202 L382 202 L383 201 L384 201 L391 194 L392 194 L393 193 L394 193 L395 192 L397 192 L398 191 L399 192 L399 193 L397 195 L397 196 L396 197 L396 198 L395 199 L395 200 L394 201 L394 202 L393 203 L393 204 L391 206 L391 207 L390 208 L390 209 L389 210 L389 211 L388 212 L388 213 L386 215 L386 216 L384 218 L384 219 L381 222 L381 223 L377 227 L377 228 L375 230 L375 231 L374 232 L374 233 L373 234 L373 235 L372 236 L372 237 L370 239 L370 240 L369 241 L369 242 L367 244 L367 245 L357 255 L356 255 L354 257 L350 257 L349 258 L346 258 L345 259 L341 259 L340 260 L335 260 L334 261 L329 261 L328 262 L323 262 L322 261 L322 260 L321 259 L321 255 L320 254 L320 253 L318 251 L317 251 L316 250 L296 250 L294 248 L293 248 L292 247 L291 247 L290 246 L289 246 L285 242 L284 242 L282 240 L281 240 L280 239 L274 239 L272 241 L273 242 L273 244 L272 245 L272 246 L271 247 L271 248 L270 249 L270 251 L269 252 L269 253 L268 254 L268 255 L267 256 L267 257 L263 261 L262 261 L260 263 L259 263 L257 265 L256 265 L254 267 L253 267 L252 268 L251 268 L249 266 L249 265 L248 264 L248 263 L246 261 L239 261 L238 262 L233 262 L232 261 L232 260 L231 259 L231 258 L230 257 L230 256 L229 255 L229 254 L227 252 L227 251 L225 249 L224 249 L221 246 L216 246 L215 247 L214 247 L212 249 L212 250 L210 252 L210 253 L209 254 L209 255 L208 256 L208 262 L209 263 L208 264 L208 265 L207 266 L206 266 L204 268 L203 268 L198 273 L198 274 L196 276 L196 277 L195 278 L195 281 L194 282 L194 285 L195 286 L195 290 L196 291 L196 293 L197 294 L197 295 L198 296 L198 299 L199 300 L199 303 L200 304 L200 312 L202 314 L202 315 L201 316 L200 316 L199 317 L198 317 L197 318 L197 320 L196 321 L196 325 L197 326 L197 339 L196 340 L196 342 L195 343 L195 351 L196 352 L196 353 L197 354 L197 355 L198 356 L198 361 L199 362 L199 364 L202 367 L206 367 L207 368 L208 368 L209 369 L209 370 L210 371 L210 372 L211 373 L211 374 L212 375 L212 376 L214 378 L214 379 L216 381 L217 381 L219 383 L220 383 L222 385 L222 386 L223 387 L223 389 L224 390 L224 391 L223 392 L223 393 L222 394 L222 398 L224 400 L224 401 L227 404 L227 405 L228 406 L228 407 L229 408 L229 409 L234 414 L235 414 L236 415 L238 415 L239 416 L239 418 L242 421 L243 421 L245 423 L246 423 L247 424 L252 424 L253 423 L255 423 L256 422 L258 422 L261 425 L263 425 L264 426 L266 426 L268 428 L269 428 L275 434 L275 436 L280 441 L281 441 L285 445 L286 445 L289 448 L290 448 L291 449 L292 449 L293 450 L295 450 L296 451 L298 451 L299 452 L302 452 L303 451 L304 451 L305 450 L314 450 L315 451 L317 451 L318 450 L320 450 L325 445 L328 445 L329 446 L331 446 L332 447 L334 447 L335 448 L342 448 L343 447 L344 447 L345 448 L347 448 L348 449 L349 449 L350 450 L351 450 L352 451 L353 451 L355 453 L355 454 L356 455 L356 456 L355 457 L355 464 L354 465 L354 474 L353 475 L353 479 L351 481 L350 481 L349 482 L349 487 L348 488 L348 493 L347 494 L347 497 L346 498 L346 503 L345 504 L345 509 L341 513 L340 513 L338 515 L337 515 L335 517 L334 517 L333 518 L332 518 L331 519 L329 519 L328 520 L317 520 L316 521 L289 521 L288 522 L282 522 L281 523 L277 523 L276 524 L270 524 L269 525 L265 525 L264 526 L261 526 L260 527 L258 527 L257 528 L255 528 L254 529 L253 529 L252 530 L250 530 L249 531 L248 531 L247 532 L245 532 L244 533 L243 533 L242 534 L241 534 L240 535 L239 535 L238 536 L237 536 L236 537 L235 537 L233 539 L232 539 L231 540 L230 540 L227 543 L226 543 L223 546 L222 546 L219 549 L219 550 L214 555 L213 555 L212 556 L211 556 L210 557 L208 557 L207 558 L207 559 L206 560 L206 561 L203 564 L203 565 L200 568 L199 568 L198 569 L198 570 L196 572 L196 573 L195 574 L195 575 L192 578 L192 579 L189 582 L189 583 L187 585 L187 586 L186 587 L186 589 L185 590 L185 591 L184 592 L184 593 L183 594 L183 595 L181 597 L181 598 L179 600 L179 601 L178 602 L178 603 L177 604 L177 606 L176 607 L176 608 L175 609 L175 610 L174 611 L174 612 L173 613 L173 614 L172 615 L172 616 L171 617 L171 618 L170 619 L170 620 L169 621 L169 622 L168 623 L168 625 L167 626 L167 628 L166 629 L166 632 L165 633 L165 637 L164 638 L164 641 L163 642 L163 645 L162 646 L162 650 L161 651 L161 666 L160 667 L160 676 L159 677 L159 682 L161 684 L167 684 L168 683 L169 683 L170 682 L179 682 L180 681 L181 681 L184 678 L186 678 L187 677 L189 677 L190 676 L192 676 L193 675 L197 675 L198 674 L204 674 L205 673 L209 673 L210 672 L212 672 L213 671 L216 671 L217 670 L219 670 L220 669 L223 669 L224 668 L225 668 L226 667 L228 667 L229 666 L231 666 L232 665 L234 665 L235 664 L236 664 L237 663 L240 663 L241 662 L242 662 L243 661 L245 661 L247 659 L248 659 L249 658 L250 658 L251 657 L252 657 L253 656 L254 656 L255 655 L256 655 L258 653 L259 653 L262 650 L263 650 L266 647 L267 647 L270 644 L271 644 L272 643 L273 643 L277 639 L278 639 L297 620 L297 619 L300 616 L300 615 L303 612 L303 611 L306 608 L306 607 L309 604 L310 605 L310 606 L308 608 L308 609 L307 610 L307 611 L306 612 L306 613 L304 615 L304 616 L303 617 L303 618 L301 620 L301 621 L300 622 L300 624 L299 625 L299 626 L298 627 L298 628 L297 629 L297 631 L296 632 L296 633 L295 634 L295 635 L294 636 L294 638 L293 639 L293 640 L291 642 L291 643 L290 644 L290 645 L289 646 L289 647 L287 649 L287 650 L286 651 L286 652 L285 653 L285 654 L284 655 L284 656 L283 657 L283 658 L282 659 L282 660 L281 661 L281 662 L280 663 L280 665 L278 667 L278 668 L277 669 L277 670 L275 672 L275 673 L273 675 L273 676 L271 678 L271 679 L269 681 L269 682 L268 683 L268 684 L265 687 L265 688 L264 689 L264 690 L262 692 L262 693 L261 694 L261 695 L259 697 L259 698 L253 704 L253 705 L252 706 L252 707 L251 708 L251 709 L250 710 L250 711 L248 713 L248 714 L247 715 L247 716 L246 717 L246 718 L244 720 L243 720 L240 723 L240 724 L238 726 L238 728 L236 730 L236 731 L231 736 L229 736 L228 737 L225 737 L224 736 L217 736 L216 735 L215 735 L214 734 L211 734 L210 733 L207 733 L206 732 L205 732 L196 723 L195 723 L194 722 L193 722 L192 721 L191 721 L190 720 L189 720 L186 717 L185 717 L183 715 L182 715 L181 714 L180 714 L179 713 L177 713 L176 712 L174 712 L173 711 L172 711 L171 710 L168 710 L167 709 L166 709 L165 708 L164 708 L163 707 L158 707 L157 708 L156 708 L155 707 L154 707 L153 706 L152 706 L151 705 L150 705 L149 704 L146 704 L145 703 L131 703 L130 702 L128 702 L127 703 L125 703 L124 702 L123 703 L113 703 L112 704 L106 704 L105 705 L100 705 L99 706 L97 706 L96 707 L94 707 L93 708 L91 708 L90 709 L89 709 L88 710 L86 710 L85 711 L83 711 L82 712 L80 712 L79 713 L77 713 L76 714 L75 714 L74 715 L73 715 L72 716 L71 716 L70 717 L69 717 L68 718 L67 718 L65 720 L64 720 L61 723 L60 723 L59 724 L58 724 L56 726 L55 726 L51 730 L50 730 L48 732 L47 732 L40 739 L39 739 L25 753 L25 754 L22 757 L22 758 L20 760 L20 761 L19 762 L19 763 L18 764 L18 765 L17 766 L17 767 L16 768 L16 769 L15 770 L15 771 L14 772 L14 775 L13 776 L13 780 L12 781 L12 782 L11 783 L11 786 L12 786 L13 787 L14 786 L16 786 L17 785 L18 785 L19 784 L21 784 L22 783 L25 783 L26 782 L28 782 L29 781 L30 781 L31 780 L32 780 L34 778 L36 778 L37 777 L38 777 L39 776 L40 776 L41 775 L43 775 L44 774 L47 774 L48 773 L53 773 L54 772 L58 772 L59 771 L63 771 L64 770 L75 770 L76 771 L79 771 L80 772 L81 772 L82 773 L84 773 L85 774 L88 774 L89 775 L92 775 L93 776 L96 776 L97 777 L100 777 L101 778 L105 778 L106 779 L108 779 L109 780 L110 780 L112 782 L113 782 L114 783 L115 783 L116 784 L122 784 L123 785 L125 785 L126 784 L127 784 L128 785 L152 785 L153 784 L161 784 L162 783 L164 783 L165 782 L166 782 L167 781 L169 781 L170 780 L171 780 L172 779 L173 779 L174 778 L175 778 L178 775 L179 775 L180 774 L181 774 L182 773 L183 773 L185 771 L186 771 L191 766 L191 765 L193 763 L193 762 L195 760 L195 759 L198 756 L198 755 L199 754 L199 753 L201 751 L201 750 L202 749 L204 749 L205 750 L205 751 L206 751 L207 752 L207 753 L209 755 L209 757 L210 758 L210 759 L211 760 L211 762 L212 763 L212 766 L211 767 L211 768 L205 774 L205 775 L203 777 L203 778 L202 779 L202 780 L200 782 L200 783 L199 784 L199 785 L197 787 L197 788 L196 789 L196 790 L195 791 L195 792 L193 794 L193 795 L188 800 L188 801 L187 802 L187 805 L181 811 L181 812 L177 816 L177 817 L175 819 L175 820 L174 821 L174 822 L169 827 L169 828 L168 829 L168 830 L166 832 L166 833 L164 835 L164 836 L163 837 L163 839 L160 842 L159 842 L159 843 L158 844 L158 845 L157 846 L157 848 L155 850 L155 851 L153 853 L153 854 L150 857 L150 858 L149 859 L149 862 L147 864 L147 865 L143 869 L143 870 L141 872 L141 873 L140 874 L140 875 L139 876 L139 877 L137 879 L137 880 L136 881 L136 882 L135 883 L135 884 L134 885 L134 886 L133 887 L133 888 L132 889 L132 890 L129 893 L129 894 L128 895 L128 896 L127 897 L127 899 L126 900 L126 901 L125 902 L125 903 L124 904 L124 905 L123 906 L123 907 L122 908 L122 909 L121 910 L121 911 L120 912 L120 916 L119 917 L119 919 L118 920 L118 921 L117 922 L117 923 L116 924 L116 925 L115 926 L115 927 L114 928 L114 930 L113 931 L113 932 L112 933 L112 935 L111 936 L111 938 L110 939 L110 941 L109 942 L109 944 L108 945 L108 947 L107 948 L107 953 L106 954 L106 956 L105 957 L105 964 L106 965 L108 965 L108 961 L109 960 L109 957 L110 956 L110 955 L111 954 L111 953 L112 952 L112 951 L113 950 L113 948 L114 947 L114 946 L115 945 L115 944 L116 943 L116 942 L117 941 L118 941 L119 942 L119 946 L118 947 L118 949 L117 950 L117 961 L116 962 L116 964 L117 965 L119 965 L120 964 L120 963 L121 962 L121 959 L122 958 L122 957 L123 956 L123 955 L124 954 L124 953 L125 952 L125 949 L126 948 L126 946 L127 945 L127 944 L128 943 L128 942 L129 941 L129 940 L130 939 L130 938 L131 937 L131 936 L132 935 L132 934 L133 933 L133 932 L134 931 L134 930 L135 929 L135 928 L136 927 L136 925 L137 924 L137 923 L138 922 L138 921 L139 920 L139 919 L140 918 L140 917 L141 916 L141 915 L142 914 L142 913 L143 912 L143 910 L144 909 L144 907 L145 906 L145 905 L146 904 L146 903 L147 902 L147 901 L148 900 L148 899 L149 898 L149 897 L151 895 L151 894 L152 893 L152 892 L154 890 L154 888 L155 887 L155 885 L157 883 L157 882 L158 881 L158 880 L162 876 L162 875 L163 874 L163 873 L165 871 L165 870 L169 866 L169 865 L171 863 L171 862 L172 861 L172 860 L174 858 L174 857 L175 856 L175 855 L177 853 L177 852 L179 850 L179 849 L180 848 L180 847 L181 846 L181 845 L184 842 L184 841 L187 838 L187 837 L188 836 L188 835 L189 834 L189 833 L191 831 L191 830 L193 828 L193 827 L195 825 L195 824 L196 823 L196 822 L198 820 L198 819 L200 817 L200 816 L202 814 L202 813 L208 807 L208 806 L209 805 L209 804 L211 802 L211 801 L214 798 L214 797 L216 795 L216 794 L220 790 L220 789 L223 786 L224 786 L225 787 L225 797 L224 798 L224 800 L223 801 L223 802 L222 803 L222 804 L220 806 L220 807 L218 809 L218 810 L216 812 L216 813 L214 815 L214 817 L213 818 L213 820 L212 821 L212 822 L211 823 L211 824 L210 825 L210 826 L209 827 L209 828 L208 829 L208 831 L207 832 L207 835 L206 836 L206 837 L205 838 L205 839 L204 840 L204 841 L203 842 L203 844 L202 845 L202 848 L201 849 L201 852 L200 853 L200 856 L199 857 L199 861 L198 862 L198 864 L197 865 L197 872 L196 873 L196 892 L197 893 L197 904 L198 905 L198 910 L199 911 L199 913 L200 914 L200 917 L201 918 L201 920 L202 921 L202 926 L203 927 L203 930 L204 931 L204 933 L205 934 L205 935 L206 936 L206 937 L207 938 L207 939 L208 940 L208 941 L209 942 L209 943 L210 944 L210 945 L211 946 L211 947 L212 948 L212 949 L213 950 L213 951 L214 952 L214 954 L215 955 L215 956 L216 957 L216 958 L218 960 L218 961 L219 962 L219 963 L221 965 L221 966 L230 975 L230 976 L234 980 L234 981 L237 984 L238 984 L241 987 L241 988 L245 992 L246 992 L250 996 L251 996 L253 998 L254 998 L257 1001 L258 1001 L268 1011 L269 1011 L281 1023 L281 1024 L283 1026 L283 1027 L284 1028 L284 1029 L285 1030 L285 1031 L286 1032 L286 1035 L287 1036 L287 1040 L288 1041 L290 1041 L291 1040 L291 1039 L292 1038 L292 1036 L293 1035 L293 1034 L294 1033 L294 1031 L295 1030 L295 1029 L296 1028 L296 1027 L297 1026 L297 1024 L298 1023 L298 1022 L299 1021 L299 1020 L301 1018 L301 1017 L302 1016 L302 1015 L303 1014 L303 1013 L304 1012 L304 1011 L305 1010 L305 1009 L306 1008 L306 1005 L307 1004 L307 1002 L308 1001 L308 1000 L309 999 L309 998 L310 997 L310 996 L311 995 L311 994 L312 993 L312 992 L314 990 L314 988 L315 987 L315 983 L316 982 L316 979 L317 978 L317 975 L319 973 L319 971 L320 970 L320 968 L321 967 L321 964 L322 963 L322 958 L323 957 L323 952 L324 951 L324 948 L325 947 L325 941 L326 940 L326 916 L325 915 L325 911 L324 910 L324 907 L323 906 L323 904 L322 903 L322 902 L321 901 L321 899 L320 898 L320 896 L319 895 L319 890 L318 889 L318 888 L317 887 L317 886 L316 885 L316 884 L317 883 L318 883 L320 885 L321 885 L322 886 L323 886 L324 887 L325 887 L326 888 L327 888 L328 889 L329 889 L330 890 L331 890 L332 891 L333 891 L334 892 L335 892 L336 893 L338 893 L339 894 L342 894 L343 895 L346 895 L347 896 L349 896 L350 897 L353 897 L354 898 L357 898 L358 899 L362 899 L363 900 L367 900 L368 901 L370 901 L371 902 L374 902 L375 903 L388 903 L389 904 L403 904 L404 905 L412 905 L413 906 L418 906 L419 907 L425 907 L426 908 L428 908 L429 909 L430 909 L431 910 L433 910 L434 911 L436 911 L437 912 L438 912 L441 915 L454 915 L457 912 L457 911 L458 910 L458 903 L457 902 L457 901 L456 900 L456 899 L455 898 L455 895 L454 894 L454 893 L453 892 L453 889 L452 888 L452 886 L451 885 L451 884 L450 883 L450 882 L449 881 L449 879 L448 878 L448 874 L447 873 L447 871 L446 870 L446 869 L445 868 L445 866 L444 865 L444 864 L443 863 L443 862 L442 861 L442 860 L441 859 L441 858 L440 857 L440 856 L439 855 L439 852 L438 851 L438 850 L437 849 L437 848 L435 846 L435 844 L434 843 L434 842 L433 841 L433 840 L432 839 L432 837 L430 835 L430 834 L429 833 L429 832 L428 831 L428 830 L425 827 L425 826 L424 825 L424 824 L422 822 L422 821 L421 820 L421 819 L418 816 L418 815 L415 812 L415 811 L409 805 L409 803 L407 801 L406 801 L401 796 L400 796 L390 786 L389 786 L385 782 L384 782 L382 780 L381 780 L379 778 L378 778 L377 777 L376 777 L374 775 L373 775 L372 774 L371 774 L370 773 L369 773 L368 772 L367 772 L366 771 L365 771 L364 770 L362 770 L361 769 L358 769 L357 768 L355 768 L354 767 L353 767 L351 765 L350 765 L348 763 L347 763 L346 762 L345 762 L344 761 L341 761 L340 760 L336 760 L335 759 L328 759 L327 758 L319 758 L318 757 L296 757 L295 758 L286 758 L285 759 L282 759 L281 760 L280 760 L279 761 L277 761 L276 762 L275 762 L274 763 L273 763 L272 764 L271 764 L270 765 L269 765 L268 766 L267 766 L266 767 L265 767 L264 768 L259 768 L251 760 L251 749 L252 748 L252 746 L253 745 L253 744 L256 741 L256 739 L257 738 L257 736 L258 735 L258 734 L262 730 L262 729 L263 728 L263 727 L265 725 L265 724 L267 722 L267 721 L268 720 L268 718 L269 717 L269 716 L271 714 L271 713 L273 711 L273 710 L275 708 L275 707 L276 706 L276 705 L277 704 L277 703 L278 702 L278 701 L279 700 L279 699 L281 697 L281 696 L283 694 L283 693 L285 691 L285 690 L286 689 L286 688 L288 686 L288 685 L289 684 L289 683 L291 681 L291 680 L292 679 L292 678 L293 677 L293 676 L295 674 L295 673 L299 669 L299 668 L301 666 L301 665 L303 663 L303 661 L304 660 L304 658 L305 657 L305 656 L306 655 L306 654 L307 653 L307 652 L308 651 L308 650 L309 649 L309 648 L311 646 L311 645 L312 644 L312 643 L314 641 L314 640 L316 638 L316 637 L317 636 L317 635 L318 634 L318 633 L319 632 L319 631 L320 630 L320 629 L321 628 L321 627 L323 625 L323 624 L324 623 L324 622 L325 621 L325 620 L326 619 L326 618 L327 617 L327 615 L328 614 L328 612 L329 611 L329 609 L330 608 L330 607 L331 606 L331 604 L332 603 L332 602 L333 601 L333 600 L334 599 L334 598 L335 597 L335 596 L336 595 L336 594 L337 593 L337 591 L338 590 L338 589 L339 588 L339 587 L340 586 L340 584 L341 583 L341 580 L342 579 L342 577 L343 576 L343 575 L344 574 L344 572 L346 570 L346 568 L347 567 L347 565 L348 564 L348 562 L349 561 L349 559 L350 558 L350 555 L351 554 L351 551 L353 549 L353 548 L355 546 L355 545 L356 544 L356 543 L357 542 L358 542 L361 545 L361 546 L363 548 L363 549 L364 550 L364 551 L365 552 L366 552 L367 553 L367 554 L372 559 L372 560 L374 562 L374 563 L377 566 L377 568 L378 569 L378 573 L379 574 L379 584 L378 585 L378 588 L377 589 L377 591 L376 592 L376 593 L375 594 L375 596 L374 597 L374 598 L373 599 L373 600 L372 601 L372 603 L371 604 L371 606 L370 607 L370 608 L369 609 L369 610 L368 611 L368 613 L367 614 L367 616 L366 617 L366 618 L365 619 L365 620 L364 621 L364 622 L363 623 L363 626 L362 627 L362 630 L361 631 L361 633 L360 634 L360 637 L359 638 L359 640 L358 641 L356 641 L354 639 L353 639 L352 638 L350 638 L349 637 L345 637 L342 640 L341 640 L340 641 L340 642 L337 645 L337 646 L336 647 L336 649 L335 650 L335 651 L334 652 L334 653 L333 654 L331 654 L330 653 L325 653 L324 652 L315 652 L314 653 L313 653 L310 656 L310 657 L309 658 L309 659 L308 660 L308 667 L309 668 L309 669 L310 670 L310 671 L313 674 L313 675 L317 679 L317 680 L316 681 L316 683 L315 684 L315 694 L316 695 L316 698 L317 699 L317 702 L318 703 L319 703 L320 704 L322 704 L323 705 L324 705 L325 706 L326 706 L327 707 L335 707 L337 705 L337 704 L338 703 L338 700 L339 699 L340 700 L340 701 L341 702 L341 704 L342 705 L342 706 L343 707 L343 708 L344 708 L345 709 L346 709 L347 710 L348 710 L349 711 L354 711 L355 710 L357 710 L358 711 L357 712 L356 712 L355 713 L353 713 L351 715 L350 715 L348 717 L348 719 L347 720 L347 727 L349 729 L349 730 L350 731 L351 731 L355 735 L356 735 L358 737 L361 737 L362 738 L363 737 L366 737 L367 736 L369 736 L372 739 L372 740 L373 741 L373 743 L375 745 L378 745 L379 744 L380 744 L381 743 L383 743 L384 742 L391 742 L392 743 L399 743 L400 744 L402 744 L403 743 L404 743 L406 741 L406 740 L409 737 L413 737 L414 736 L416 736 L417 735 L419 735 L420 734 L421 734 L422 733 L423 733 L425 731 L425 730 L426 729 L426 726 L427 725 L427 718 L426 717 L426 714 L428 712 L431 712 L434 715 L434 717 L436 719 L436 720 L437 721 L437 722 L438 722 L440 724 L442 724 L443 725 L444 725 L445 726 L445 728 L446 729 L446 731 L447 732 L447 733 L448 734 L452 734 L453 735 L454 734 L459 734 L460 733 L462 733 L463 732 L464 732 L465 731 L467 731 L468 730 L470 730 L471 731 L473 731 L474 732 L482 732 L483 731 L484 731 L485 730 L485 729 L490 724 L491 724 L497 718 L498 718 L499 717 L502 717 L503 716 L504 716 L505 715 L505 714 L507 712 L507 702 L510 699 L510 696 L511 695 L511 694 L524 681 L525 681 L529 677 L531 677 L532 676 L534 676 L537 673 L538 673 L538 672 L541 669 L541 668 L542 667 L542 664 L543 663 L543 662 L544 661 L544 659 L545 658 L545 656 L547 654 L547 653 L548 652 L548 651 L549 650 L549 649 L550 648 L550 647 L552 645 L552 641 L551 640 L551 638 L553 636 L553 635 L554 634 L554 633 L555 632 L555 626 L554 625 L554 621 L551 618 L551 616 L549 614 L548 614 L547 613 L546 613 L545 612 L544 612 L543 611 L543 610 L545 608 L547 608 L548 607 L549 607 L551 605 L551 603 L552 602 L552 598 L553 597 L553 594 L554 593 L554 590 L562 582 L562 574 L561 573 L561 569 L562 568 L562 565 L558 561 L557 561 L556 560 L556 557 L557 556 L557 552 L558 551 L557 550 L557 548 L555 546 L552 546 L550 544 L550 541 L548 539 L548 538 L545 535 L545 534 L544 533 L544 532 L542 530 L542 529 L540 527 L540 526 L538 524 L534 524 L533 525 L531 525 L525 531 L525 532 L523 534 L523 535 L522 536 L522 537 L521 538 L520 538 L515 533 L514 533 L513 532 L512 532 L511 531 L507 531 L506 530 L505 530 L504 529 L492 529 L490 527 L489 527 L483 521 L483 520 L482 519 L482 518 L481 517 L480 517 L476 513 L470 513 L469 514 L467 514 L466 515 L465 515 L464 516 L463 516 L462 517 L461 517 L461 518 L460 519 L460 531 L459 532 L459 535 L453 541 L452 541 L451 542 L449 542 L447 544 L446 544 L441 549 L441 550 L440 551 L440 552 L439 553 L439 554 L438 555 L438 557 L437 558 L436 558 L435 557 L434 557 L433 558 L400 558 L399 557 L395 557 L394 556 L392 556 L391 555 L390 555 L389 554 L388 554 L385 551 L384 551 L383 550 L383 549 L380 546 L380 545 L378 543 L378 542 L376 540 L376 539 L374 537 L374 536 L373 535 L373 534 L372 533 L372 532 L371 531 L371 530 L370 529 L370 519 L369 518 L369 517 L368 516 L368 515 L367 514 L367 505 L368 504 L368 501 L369 500 L369 498 L370 497 L370 494 L371 493 L371 491 L372 490 L372 487 L373 486 L373 482 L374 481 L374 478 L375 477 L375 475 L376 474 L376 470 L377 469 L377 467 L378 466 L378 464 L379 463 L379 460 L380 459 L380 455 L381 454 L381 449 L382 448 L382 445 L384 443 L386 443 L387 444 L391 444 L392 443 L393 443 L395 441 L396 441 L397 440 L398 440 L401 437 L402 437 L404 435 L405 435 L406 434 L409 434 L410 433 L419 433 L420 432 L424 432 L425 431 L427 431 L428 430 L429 430 L431 428 L432 428 L440 420 L441 420 L442 419 L443 419 L446 416 L447 416 L453 410 L453 409 L454 408 L454 407 L455 406 L455 400 L453 398 L453 392 L449 388 L447 388 L446 387 L445 387 L444 386 L443 386 L442 385 L439 385 L438 384 L438 381 L439 380 L439 379 L440 378 L441 378 L442 377 L443 377 L445 375 L446 375 L447 374 L448 374 L449 373 L450 373 L452 371 L453 371 L456 368 L456 367 L457 366 L457 365 L458 364 L458 355 L457 354 L457 353 L456 352 L454 352 L453 351 L451 351 L447 347 L447 341 L446 340 L446 336 L445 335 L445 331 L444 330 L444 328 L443 327 L443 325 L442 324 L442 323 L438 319 L433 319 L432 320 L431 320 L427 324 L426 324 L424 326 L423 326 L421 328 L417 328 L412 323 L412 303 L413 302 L413 293 L414 292 L413 291 L414 290 L414 283 L415 282 L415 276 L416 275 L416 271 L417 270 L417 267 L418 266 L418 261 L419 260 L419 254 L420 253 L420 249 L421 248 L421 244 L422 243 L422 240 L423 239 L423 235 L424 234 L424 232 L425 231 L425 227 L426 226 L426 220 L427 219 L427 217 L428 216 L428 214 L429 213 L430 213 L431 214 L431 215 L432 216 L432 217 L434 219 L434 220 L435 221 L435 225 L434 226 L434 229 L433 230 L433 236 L432 237 L432 240 L431 241 L431 245 L430 246 L430 250 L429 251 L429 264 L430 265 L430 269 L431 270 L431 275 L432 276 L432 279 L433 280 L433 284 L434 285 L434 295 L435 296 L435 297 L437 299 L437 300 L438 301 L438 302 L439 303 L439 304 L440 305 L440 307 L441 308 L441 310 L442 311 L442 317 L445 320 L446 320 L450 324 L450 325 L451 326 L451 327 L452 328 L452 329 L454 331 L454 332 L455 333 L455 334 L457 336 L457 337 L460 340 L460 341 L467 348 L467 349 L479 361 L480 361 L486 367 L487 367 L490 370 L491 370 L493 372 L494 372 L496 374 L497 374 L499 376 L500 376 L502 378 L503 378 L505 380 L506 380 L508 382 L509 382 L510 383 L511 383 L512 384 L514 384 L515 385 L516 385 L518 387 L519 387 L520 388 L521 388 L522 389 L523 389 L524 390 L525 390 L527 392 L528 392 L529 393 L530 393 L531 394 L533 394 L534 395 L536 395 L537 396 L538 396 L539 397 L541 397 L542 398 L543 398 L544 399 L545 399 L546 400 L547 400 L548 401 L549 401 L550 402 L551 402 L552 403 L553 403 L554 404 L555 404 L557 406 L558 406 L559 407 L560 407 L561 408 L562 408 L563 409 L564 409 L566 411 L567 411 L569 413 L570 413 L572 415 L573 415 L575 417 L576 417 L580 421 L581 421 L582 422 L585 422 L587 420 L587 416 L588 415 L588 412 L589 411 L589 360 L588 359 L588 349 L587 348 L587 344 L586 343 L586 340 L585 339 L585 336 L584 335 L584 332 L583 331 L583 326 L582 325 L582 319 L581 318 L581 315 L580 314 L580 312 L579 311 L579 310 L578 309 L578 308 L577 307 L577 304 L576 303 L576 302 L575 301 L575 299 L574 298 L574 297 L572 295 L572 294 L571 293 L571 292 L570 291 L570 290 L568 288 L568 287 L566 285 L566 284 L565 283 L565 282 L563 280 L563 279 L562 278 L562 277 L560 275 L560 274 L557 271 L557 270 L554 267 L554 266 L552 264 L552 263 L550 261 L550 260 L525 235 L524 235 L520 231 L519 231 L516 228 L515 228 L514 227 L513 227 L512 226 L511 226 L509 224 L508 224 L506 222 L505 222 L504 221 L503 221 L502 220 L501 220 L500 219 L499 219 L498 218 L496 218 L495 217 L492 217 L491 216 L489 216 L488 215 L485 215 L484 214 L482 214 L481 213 L476 213 L475 212 L471 212 L470 211 L451 211 L449 209 L449 208 L448 207 L448 206 L444 202 L444 201 L440 197 L440 196 L438 194 L438 192 L437 191 L437 190 L436 189 L436 182 L435 181 L435 170 L436 169 L436 165 L437 164 L437 163 L438 162 L438 159 L439 158 L439 156 L440 155 L440 153 L441 152 L441 148 L442 147 L442 143 L443 142 L443 140 L444 139 L444 136 L445 135 L445 133 L446 132 L446 129 L447 128 L447 125 L448 124 L448 123 L449 122 L449 120 L450 119 L450 117 L451 116 L451 114 L452 113 L452 109 L453 108 L453 106 L454 105 L454 103 L455 102 L455 100 L456 99 L456 96 L457 95 L457 94 L458 93 L458 90 L459 89 L459 87 L460 86 L460 84 L461 83 L461 80 L462 79 L462 77 L463 76 L463 74 L464 73 L464 71 L465 70 L465 68 L466 67 L466 66 L467 65 L467 63 L468 62 L468 60 L469 59 L469 58 L470 57 L470 55 L471 54 L471 52 L472 51 L472 49 L473 48 L473 47 L474 46 L474 44 L475 43 L475 41 L476 40 L476 38 L477 37 L477 36 L478 35 L478 33 L479 32 L479 31 L480 30 L480 29 L482 27 L482 26 L483 25 L483 24 L484 23 L484 18 L482 18 L481 19 L481 20 L480 21 L480 22 L479 23 L479 24 L477 26 L477 27 L476 28 L476 29 L475 30 L475 31 L473 33 L473 34 L471 36 L471 37 L469 39 L465 39 L463 41 L462 40 L462 38 L463 37 L463 36 L464 35 L464 33 L466 31 L466 30 L467 29 L467 28 L468 27 L468 26 L469 25 L469 22 L470 21 L470 20 L472 18 L472 17 L473 16 L473 11 Z M0 0 L0 41 L2 43 L3 43 L5 45 L6 45 L7 46 L8 46 L10 48 L11 48 L13 50 L14 50 L16 52 L17 52 L20 55 L21 55 L24 58 L25 58 L28 61 L29 61 L31 63 L32 63 L33 64 L34 64 L35 65 L37 65 L38 66 L40 66 L41 67 L46 67 L47 68 L52 68 L53 69 L54 69 L55 68 L56 69 L60 69 L61 70 L64 70 L65 71 L70 71 L71 72 L82 72 L83 73 L84 73 L85 72 L91 72 L92 71 L96 71 L97 70 L102 70 L103 69 L105 69 L106 68 L108 68 L109 67 L111 67 L113 65 L114 65 L115 64 L116 64 L117 63 L118 63 L120 61 L121 61 L126 56 L126 55 L134 47 L134 46 L137 43 L137 42 L139 40 L139 39 L140 38 L140 37 L142 35 L142 34 L145 31 L145 30 L147 28 L147 27 L148 26 L148 25 L150 23 L150 22 L152 20 L152 19 L155 16 L155 15 L157 13 L157 12 L159 10 L159 9 L161 7 L161 6 L163 4 L163 3 L166 0 Z " fill="black"/></svg>