<svg width="373" height="497" xmlns="http://www.w3.org/2000/svg"><path d="M306 133 L305 134 L306 135 L307 134 Z M234 11 L233 12 L229 12 L228 13 L227 13 L226 14 L225 14 L223 16 L222 16 L220 18 L219 18 L217 20 L216 20 L215 21 L212 21 L211 22 L210 22 L209 23 L208 23 L207 24 L206 24 L204 26 L203 26 L202 27 L201 27 L200 28 L199 28 L195 32 L194 32 L193 33 L191 33 L190 34 L188 34 L187 35 L185 35 L184 36 L183 36 L182 37 L181 37 L173 45 L171 45 L170 46 L169 46 L165 50 L165 51 L164 52 L164 54 L161 57 L160 57 L160 58 L157 61 L157 62 L156 63 L156 64 L155 65 L155 66 L154 67 L154 70 L153 71 L153 76 L152 77 L150 75 L150 74 L148 72 L148 71 L144 67 L143 67 L137 61 L136 61 L135 60 L134 60 L132 58 L131 58 L129 56 L128 56 L127 55 L126 55 L125 54 L124 54 L123 53 L122 53 L121 52 L120 52 L119 51 L118 51 L117 50 L116 50 L115 49 L114 49 L113 48 L110 48 L109 47 L100 47 L99 46 L92 46 L91 45 L85 45 L84 44 L80 44 L79 43 L76 43 L75 42 L73 42 L72 41 L61 41 L59 43 L59 44 L60 45 L61 45 L62 46 L62 48 L67 53 L67 54 L68 55 L68 56 L69 57 L69 60 L70 61 L70 63 L72 65 L72 67 L73 68 L73 69 L74 70 L74 71 L78 75 L78 80 L79 81 L79 82 L80 83 L80 84 L81 85 L81 86 L83 88 L83 89 L89 95 L90 95 L92 97 L93 97 L96 100 L97 100 L100 103 L101 103 L102 104 L103 104 L106 107 L108 107 L110 105 L114 105 L115 106 L117 106 L118 107 L117 108 L116 108 L115 109 L104 109 L103 110 L102 110 L101 111 L100 111 L99 112 L98 112 L96 114 L95 114 L93 116 L91 116 L90 117 L82 117 L81 118 L80 118 L79 119 L78 119 L77 120 L77 122 L78 122 L79 123 L86 123 L87 124 L94 124 L95 125 L97 125 L98 126 L100 126 L101 127 L102 127 L103 128 L104 128 L105 129 L106 129 L108 131 L109 131 L110 132 L111 132 L113 134 L114 134 L116 136 L117 136 L118 137 L119 137 L121 139 L122 139 L123 140 L124 140 L125 141 L127 141 L128 142 L131 142 L132 143 L134 143 L136 145 L135 146 L133 146 L132 147 L131 147 L130 148 L130 149 L128 151 L122 145 L122 144 L121 144 L117 140 L116 140 L113 137 L112 137 L110 135 L109 135 L108 134 L107 134 L106 133 L105 133 L104 132 L103 132 L102 131 L99 131 L98 130 L91 130 L90 129 L62 129 L61 130 L55 130 L54 131 L50 131 L49 132 L47 132 L46 133 L44 133 L43 134 L42 134 L41 135 L40 135 L38 137 L37 137 L35 139 L34 139 L32 141 L31 141 L30 142 L29 142 L26 145 L24 145 L22 147 L21 147 L19 149 L18 149 L17 150 L16 150 L14 152 L13 152 L13 154 L23 164 L24 164 L26 166 L27 166 L30 169 L31 169 L32 170 L33 170 L35 172 L36 172 L40 176 L41 176 L42 177 L43 177 L44 178 L45 178 L47 180 L48 180 L49 181 L50 181 L52 183 L53 183 L56 186 L57 186 L59 188 L60 188 L61 189 L63 189 L64 190 L65 190 L66 191 L67 191 L68 192 L69 192 L70 193 L72 193 L73 194 L74 194 L75 195 L77 195 L78 196 L81 196 L82 197 L87 197 L88 198 L93 198 L94 199 L105 199 L106 200 L110 200 L111 201 L111 202 L106 207 L103 207 L102 206 L94 206 L93 205 L65 205 L64 206 L51 206 L50 207 L44 207 L43 208 L41 208 L40 209 L39 209 L38 210 L37 210 L36 211 L35 211 L34 212 L33 212 L31 214 L30 214 L25 219 L24 219 L11 232 L11 235 L13 237 L17 237 L18 236 L19 236 L20 235 L25 235 L26 234 L33 234 L34 235 L37 235 L38 236 L54 236 L55 237 L68 237 L69 238 L74 238 L75 239 L79 239 L81 241 L81 242 L80 243 L80 244 L79 245 L79 248 L78 249 L78 251 L77 252 L77 255 L76 256 L76 264 L77 265 L77 267 L75 269 L74 269 L73 270 L72 270 L69 273 L68 273 L63 278 L63 279 L61 281 L61 282 L59 284 L58 284 L58 285 L56 287 L56 289 L55 290 L55 292 L54 293 L54 295 L53 296 L53 299 L52 300 L52 302 L51 303 L51 305 L50 306 L50 307 L51 308 L51 313 L52 313 L53 314 L53 316 L55 316 L56 315 L57 315 L60 312 L60 311 L62 309 L63 309 L64 308 L66 308 L67 309 L67 311 L66 312 L66 315 L65 316 L65 318 L64 319 L64 321 L63 322 L63 326 L62 327 L62 332 L60 334 L60 335 L59 336 L59 338 L58 339 L58 342 L57 343 L57 362 L56 363 L56 376 L57 377 L57 381 L56 382 L56 383 L57 384 L57 388 L58 389 L58 390 L59 391 L63 391 L64 390 L65 390 L66 389 L67 389 L68 388 L69 388 L70 387 L72 387 L83 376 L84 376 L86 374 L87 374 L88 373 L89 373 L91 371 L92 371 L94 369 L95 369 L101 363 L101 362 L103 360 L103 359 L106 356 L107 357 L107 362 L108 363 L108 366 L109 367 L109 370 L110 371 L110 373 L111 374 L111 377 L112 378 L112 381 L113 382 L113 385 L114 386 L114 390 L115 391 L115 394 L116 395 L116 397 L117 398 L117 401 L118 402 L118 405 L119 406 L119 409 L120 410 L120 412 L121 413 L121 417 L122 418 L122 421 L123 422 L123 424 L124 425 L124 427 L125 428 L125 430 L126 431 L126 434 L127 435 L127 438 L128 439 L128 442 L129 443 L129 445 L130 446 L130 449 L131 450 L131 453 L132 454 L132 456 L133 457 L133 459 L134 460 L134 461 L135 462 L135 463 L136 464 L136 465 L139 468 L139 469 L140 470 L141 470 L145 474 L146 474 L147 475 L148 475 L149 476 L150 476 L151 477 L152 477 L153 478 L155 478 L156 479 L159 479 L160 480 L163 480 L164 481 L167 481 L168 482 L172 482 L173 483 L177 483 L178 484 L186 484 L187 485 L208 485 L209 484 L216 484 L217 483 L221 483 L222 482 L224 482 L225 481 L226 481 L227 480 L231 480 L232 479 L235 479 L236 478 L238 478 L239 477 L240 477 L241 476 L242 476 L243 475 L244 475 L246 473 L247 473 L248 472 L249 472 L251 470 L252 470 L253 469 L253 467 L254 466 L254 465 L255 464 L255 463 L256 462 L256 460 L257 459 L257 457 L258 456 L258 455 L259 454 L259 452 L260 451 L260 448 L261 447 L261 446 L262 445 L262 443 L263 442 L263 440 L264 439 L264 437 L265 436 L265 433 L266 432 L266 426 L267 425 L267 424 L268 423 L268 422 L269 421 L269 419 L270 418 L270 415 L271 414 L271 410 L272 409 L272 403 L273 402 L273 397 L274 396 L274 393 L275 392 L275 389 L276 388 L276 386 L277 385 L277 384 L278 383 L281 383 L282 384 L283 384 L287 388 L288 388 L289 389 L290 389 L291 390 L292 390 L294 392 L295 392 L296 393 L297 393 L298 394 L299 394 L300 395 L301 395 L302 396 L306 396 L307 395 L308 395 L312 391 L312 390 L314 388 L314 387 L315 386 L315 385 L317 383 L317 382 L318 381 L318 380 L319 379 L319 378 L321 376 L321 375 L323 373 L323 372 L325 370 L325 368 L326 367 L326 365 L327 364 L327 359 L328 358 L328 356 L329 355 L329 350 L330 349 L330 341 L329 340 L329 330 L328 329 L328 326 L327 325 L327 323 L326 322 L326 320 L325 319 L325 318 L324 317 L324 316 L323 315 L323 314 L322 313 L322 312 L321 311 L321 310 L320 309 L320 308 L321 307 L322 307 L323 308 L325 308 L327 310 L328 310 L329 311 L330 311 L331 312 L332 312 L333 313 L342 313 L343 314 L356 314 L357 313 L359 313 L361 311 L361 309 L360 308 L360 307 L359 306 L359 305 L357 303 L357 302 L354 299 L354 298 L352 296 L352 295 L351 294 L351 293 L350 292 L350 291 L349 290 L349 289 L346 286 L346 285 L337 276 L337 275 L329 267 L329 265 L325 261 L324 261 L323 260 L322 260 L321 259 L320 259 L319 258 L319 256 L315 252 L314 252 L313 251 L312 251 L311 250 L310 250 L309 249 L307 249 L306 248 L302 248 L301 247 L295 247 L294 248 L293 248 L292 249 L291 249 L287 253 L282 248 L282 247 L281 246 L281 245 L280 244 L280 241 L279 240 L279 239 L275 235 L275 234 L276 233 L277 233 L278 234 L279 234 L280 235 L281 235 L282 236 L284 236 L285 237 L286 237 L287 238 L289 238 L290 239 L295 239 L296 240 L306 240 L307 239 L309 239 L310 240 L311 240 L312 239 L316 239 L317 238 L324 238 L325 237 L336 237 L337 238 L345 238 L346 239 L347 238 L353 238 L354 237 L355 237 L355 236 L356 235 L355 234 L355 226 L354 225 L354 223 L353 222 L353 221 L352 220 L352 219 L351 218 L351 217 L349 215 L349 214 L347 212 L347 211 L344 208 L344 207 L343 206 L343 205 L341 203 L341 202 L340 201 L340 200 L333 193 L332 193 L327 188 L326 188 L321 183 L320 183 L319 182 L318 182 L317 181 L315 181 L314 180 L312 180 L311 179 L308 179 L307 178 L304 178 L302 176 L303 175 L304 175 L306 173 L307 173 L309 171 L310 171 L317 164 L318 164 L323 159 L323 158 L325 156 L325 155 L326 154 L326 153 L327 152 L327 151 L328 150 L328 148 L329 147 L329 146 L330 145 L330 144 L328 142 L327 142 L326 141 L325 141 L324 140 L322 140 L321 139 L320 139 L319 138 L315 138 L314 137 L307 137 L306 138 L287 138 L286 137 L281 137 L280 136 L280 135 L281 134 L283 134 L285 132 L286 132 L287 131 L288 131 L289 130 L291 130 L292 129 L295 129 L296 128 L297 128 L298 127 L300 127 L301 126 L302 126 L304 124 L305 124 L308 121 L309 121 L314 116 L315 116 L319 112 L320 112 L324 108 L325 108 L327 106 L328 106 L331 103 L332 103 L339 96 L340 96 L347 89 L348 89 L349 88 L349 87 L355 81 L355 79 L354 78 L352 78 L351 79 L345 79 L344 80 L338 80 L337 81 L335 81 L334 82 L332 82 L331 83 L330 83 L329 84 L327 84 L326 85 L323 85 L322 86 L321 86 L320 87 L315 87 L314 88 L312 88 L311 89 L310 89 L309 90 L307 90 L306 91 L305 91 L304 92 L302 92 L301 93 L299 93 L298 94 L297 94 L296 95 L295 95 L294 96 L293 96 L292 97 L291 97 L290 98 L289 98 L288 99 L286 99 L285 100 L284 100 L283 101 L282 101 L281 102 L280 102 L279 103 L278 103 L277 104 L276 104 L274 106 L273 105 L273 101 L274 100 L274 96 L275 95 L275 92 L276 91 L276 87 L277 86 L277 82 L278 81 L278 78 L279 77 L279 72 L280 71 L280 66 L281 65 L281 62 L282 61 L282 59 L283 58 L283 50 L280 50 L279 51 L278 51 L277 52 L276 52 L275 53 L274 53 L273 54 L272 54 L271 55 L269 55 L268 56 L266 56 L265 57 L261 57 L260 58 L258 58 L257 59 L256 59 L255 60 L253 60 L252 61 L250 61 L249 62 L248 62 L247 63 L246 63 L245 64 L244 64 L243 65 L242 65 L240 67 L239 67 L237 69 L236 69 L232 73 L231 73 L230 74 L229 73 L229 59 L230 58 L230 39 L231 38 L231 32 L232 31 L232 27 L233 26 L233 23 L234 22 L234 20 L236 18 L236 15 L237 14 L237 11 Z " fill="black"/></svg>