<svg width="365" height="563" xmlns="http://www.w3.org/2000/svg"><path d="M254 11 L253 12 L250 12 L249 13 L247 13 L246 14 L244 14 L243 15 L241 15 L240 16 L238 16 L237 17 L235 17 L234 18 L233 18 L232 19 L231 19 L230 20 L229 20 L228 21 L227 21 L226 22 L225 22 L224 23 L223 23 L222 24 L221 24 L220 25 L219 25 L217 27 L216 27 L205 38 L204 38 L195 47 L195 48 L192 51 L192 52 L190 54 L190 55 L189 56 L189 57 L188 58 L188 61 L187 62 L187 65 L186 66 L186 68 L185 69 L185 71 L183 73 L182 72 L179 72 L178 71 L177 71 L176 70 L174 70 L173 69 L172 69 L171 68 L169 68 L168 67 L166 67 L165 66 L163 66 L156 59 L156 58 L154 56 L150 56 L149 57 L149 58 L148 59 L148 60 L146 62 L146 63 L139 70 L137 68 L136 68 L133 65 L132 65 L129 62 L128 62 L126 60 L125 60 L123 58 L122 58 L120 56 L119 56 L118 55 L117 55 L116 54 L114 54 L113 53 L107 53 L105 55 L105 56 L104 57 L104 59 L103 60 L103 66 L102 67 L102 69 L101 70 L101 71 L100 72 L100 73 L99 74 L99 75 L98 76 L98 85 L97 86 L97 90 L96 91 L96 99 L95 100 L95 107 L96 108 L96 113 L95 114 L94 113 L93 113 L92 112 L91 112 L90 111 L89 111 L88 110 L87 110 L86 109 L85 109 L84 108 L81 108 L80 107 L78 107 L77 106 L74 106 L73 105 L69 105 L68 104 L63 104 L62 103 L48 103 L47 102 L45 102 L44 103 L43 103 L42 104 L40 104 L39 105 L37 105 L36 106 L34 106 L33 107 L29 107 L28 108 L25 108 L24 109 L21 109 L20 110 L17 110 L16 111 L14 111 L13 112 L12 112 L11 113 L11 116 L12 117 L13 117 L14 118 L15 118 L23 126 L23 127 L26 130 L26 131 L37 142 L37 143 L41 147 L41 148 L43 150 L43 151 L45 153 L45 154 L50 159 L50 160 L69 179 L70 179 L87 196 L88 196 L90 198 L92 198 L93 199 L94 199 L95 200 L96 200 L97 201 L98 201 L99 202 L100 202 L102 204 L103 204 L107 208 L108 208 L109 209 L111 209 L112 210 L114 210 L115 211 L117 211 L118 212 L119 212 L120 213 L121 213 L122 214 L123 214 L125 216 L126 216 L128 218 L129 218 L130 219 L132 219 L133 220 L136 220 L137 221 L140 221 L141 222 L145 222 L146 223 L155 223 L156 224 L157 224 L163 230 L163 231 L164 232 L164 233 L165 234 L165 238 L166 239 L166 243 L167 244 L167 248 L168 249 L168 252 L169 253 L169 270 L168 271 L165 271 L164 270 L163 270 L155 262 L155 261 L152 261 L148 257 L148 256 L146 254 L146 253 L141 248 L141 247 L138 244 L137 244 L136 243 L135 243 L134 242 L133 242 L131 240 L130 240 L124 234 L123 234 L122 233 L120 233 L119 232 L118 232 L117 231 L113 231 L112 230 L103 230 L102 229 L99 229 L98 228 L95 228 L94 227 L90 227 L89 226 L80 226 L79 227 L77 227 L76 228 L75 228 L74 229 L73 229 L72 230 L70 230 L69 231 L68 231 L66 233 L65 233 L64 234 L63 234 L62 235 L61 235 L60 236 L59 236 L58 237 L57 237 L48 246 L48 247 L46 249 L46 251 L45 252 L45 253 L39 259 L39 260 L37 262 L37 263 L38 264 L40 264 L41 265 L51 265 L52 266 L67 266 L68 267 L69 267 L70 268 L71 268 L72 269 L73 269 L75 271 L80 271 L81 272 L86 272 L88 274 L88 276 L89 277 L89 279 L91 281 L91 282 L92 283 L92 284 L94 286 L94 287 L96 289 L96 290 L98 292 L98 293 L107 302 L108 302 L115 309 L116 309 L117 310 L118 310 L120 312 L121 312 L122 313 L123 313 L124 314 L125 314 L126 315 L128 315 L129 316 L130 316 L131 317 L132 317 L133 318 L134 318 L135 319 L137 319 L138 320 L140 320 L141 321 L142 321 L143 322 L145 322 L146 323 L153 323 L154 324 L164 324 L165 325 L166 325 L167 326 L168 326 L169 327 L169 328 L172 331 L172 332 L173 333 L173 335 L174 336 L174 344 L175 345 L175 347 L174 348 L173 348 L162 337 L160 337 L159 336 L157 336 L156 335 L155 335 L153 333 L152 333 L151 332 L150 332 L149 331 L145 331 L144 330 L133 330 L132 331 L124 331 L123 332 L121 332 L120 333 L119 333 L118 334 L115 334 L114 335 L113 335 L112 336 L111 336 L110 337 L109 337 L108 338 L107 338 L105 340 L104 340 L101 343 L100 343 L89 354 L89 355 L86 358 L86 359 L84 361 L84 362 L83 363 L83 369 L82 370 L81 370 L81 371 L80 372 L80 373 L81 374 L81 375 L82 376 L83 376 L84 377 L86 377 L87 378 L87 379 L86 380 L86 417 L87 418 L87 421 L86 422 L86 423 L87 424 L87 425 L86 426 L87 427 L87 454 L88 455 L88 458 L89 459 L89 473 L90 474 L90 483 L89 484 L89 487 L90 488 L90 505 L91 506 L91 515 L92 516 L92 518 L93 519 L93 521 L94 522 L94 523 L101 530 L102 530 L103 531 L103 532 L104 532 L107 535 L108 535 L109 536 L111 536 L112 537 L113 537 L114 538 L116 538 L117 539 L119 539 L120 540 L121 540 L122 541 L124 541 L125 542 L126 542 L127 543 L128 543 L129 544 L132 544 L133 545 L136 545 L137 546 L141 546 L142 547 L144 547 L145 548 L148 548 L149 549 L152 549 L153 550 L164 550 L165 551 L186 551 L187 550 L188 551 L190 551 L191 550 L192 550 L193 551 L195 551 L196 550 L208 550 L209 549 L212 549 L213 548 L218 548 L219 547 L223 547 L224 546 L226 546 L227 545 L230 545 L231 544 L234 544 L235 543 L236 543 L237 542 L239 542 L240 541 L242 541 L243 540 L245 540 L247 538 L248 538 L250 536 L251 536 L253 534 L254 534 L256 532 L257 532 L258 531 L259 531 L261 529 L262 529 L262 528 L265 525 L265 523 L266 522 L266 520 L267 519 L267 518 L268 517 L268 512 L269 511 L269 509 L270 508 L270 485 L271 484 L271 467 L270 466 L270 465 L271 464 L271 463 L270 462 L270 458 L271 457 L270 456 L270 420 L271 419 L270 418 L270 416 L271 415 L271 380 L270 379 L270 378 L263 371 L262 371 L260 369 L259 369 L258 368 L257 368 L256 367 L255 367 L254 366 L252 366 L251 365 L249 365 L248 364 L245 364 L244 363 L240 363 L239 362 L236 362 L235 361 L231 361 L230 360 L226 360 L225 359 L218 359 L217 358 L205 358 L204 357 L202 357 L201 358 L200 357 L195 357 L193 355 L193 345 L194 344 L194 343 L193 342 L193 340 L194 339 L199 339 L200 340 L203 340 L204 341 L205 341 L206 342 L209 342 L210 343 L213 343 L214 344 L219 344 L220 345 L225 345 L226 346 L251 346 L252 347 L258 347 L259 348 L260 348 L261 349 L265 349 L266 348 L271 348 L272 349 L274 349 L276 351 L285 351 L286 352 L291 352 L292 353 L294 353 L295 354 L297 354 L298 355 L299 355 L302 358 L304 358 L306 356 L306 352 L305 351 L305 345 L304 344 L304 342 L303 341 L303 338 L302 337 L302 334 L301 333 L301 332 L300 331 L300 330 L299 329 L299 327 L298 326 L298 325 L297 324 L297 323 L296 322 L296 319 L295 318 L294 318 L293 317 L292 317 L291 316 L290 316 L288 314 L287 314 L286 313 L285 313 L284 312 L283 312 L282 311 L281 311 L279 309 L278 309 L277 308 L276 308 L274 306 L272 306 L271 305 L269 305 L268 304 L265 304 L264 303 L256 303 L255 302 L245 302 L244 303 L239 303 L238 304 L236 304 L235 305 L233 305 L232 306 L230 306 L229 307 L227 307 L226 308 L223 308 L222 309 L215 309 L214 310 L211 310 L210 311 L209 311 L206 314 L205 314 L204 315 L204 316 L203 317 L202 317 L196 323 L195 323 L194 324 L191 324 L190 323 L190 319 L189 318 L189 315 L190 314 L190 311 L191 310 L191 308 L192 307 L192 306 L195 303 L196 303 L197 302 L198 302 L199 301 L201 301 L202 300 L203 300 L204 299 L205 299 L206 298 L207 298 L208 297 L210 297 L211 296 L212 296 L213 295 L214 295 L215 294 L217 294 L218 293 L219 293 L221 291 L222 291 L223 290 L224 290 L226 288 L227 288 L228 287 L229 287 L230 286 L232 286 L233 285 L234 285 L244 275 L245 275 L253 267 L253 266 L256 263 L256 262 L258 260 L258 259 L259 258 L259 257 L260 256 L260 255 L261 254 L261 253 L262 252 L262 251 L264 249 L264 248 L265 247 L265 246 L267 244 L267 243 L268 242 L268 241 L269 240 L269 239 L270 238 L270 237 L271 236 L271 235 L272 234 L272 233 L273 232 L273 231 L274 230 L274 229 L275 228 L275 227 L276 226 L276 225 L277 224 L277 223 L278 222 L278 220 L279 219 L279 212 L282 209 L283 209 L285 207 L286 207 L287 206 L288 206 L289 205 L290 205 L293 202 L294 202 L299 197 L300 197 L305 192 L306 192 L309 189 L310 189 L312 187 L313 187 L316 184 L317 184 L320 181 L321 181 L326 176 L327 176 L329 174 L330 174 L332 172 L333 172 L334 171 L335 171 L336 170 L338 170 L339 169 L341 169 L342 168 L343 168 L344 167 L345 167 L346 166 L347 166 L348 165 L350 165 L351 164 L352 164 L354 162 L353 161 L353 160 L348 155 L347 155 L345 153 L344 153 L343 152 L342 152 L341 151 L340 151 L339 150 L338 150 L337 149 L336 149 L335 148 L334 148 L333 147 L331 147 L330 146 L328 146 L327 145 L321 145 L320 144 L302 144 L301 145 L296 145 L295 146 L291 146 L290 147 L287 147 L286 148 L283 148 L282 149 L281 149 L279 151 L278 151 L277 152 L276 152 L274 154 L273 154 L272 155 L270 155 L269 156 L268 156 L267 157 L266 157 L265 158 L264 158 L263 159 L262 159 L261 160 L260 160 L258 162 L257 162 L249 170 L248 170 L244 174 L243 174 L241 176 L240 176 L238 178 L237 178 L232 183 L231 183 L226 188 L225 188 L224 189 L223 189 L222 190 L220 190 L219 191 L217 191 L216 192 L215 192 L214 193 L213 193 L211 195 L210 195 L208 197 L207 197 L203 201 L202 201 L196 207 L196 208 L195 209 L195 210 L194 211 L194 212 L193 213 L193 214 L191 216 L190 215 L190 212 L191 211 L191 209 L192 208 L192 204 L193 203 L193 200 L194 199 L194 195 L195 194 L195 188 L196 187 L196 185 L197 184 L197 183 L199 181 L200 181 L201 180 L202 180 L203 179 L205 179 L206 178 L207 178 L208 177 L210 177 L211 176 L212 176 L213 175 L214 175 L215 174 L216 174 L217 173 L218 173 L230 161 L231 161 L233 159 L234 159 L244 149 L244 148 L248 144 L248 143 L250 141 L250 140 L253 137 L253 136 L255 134 L255 133 L256 132 L256 131 L258 129 L258 128 L259 127 L259 126 L260 125 L260 124 L262 122 L262 120 L263 119 L263 118 L264 117 L264 116 L265 115 L265 114 L266 113 L266 111 L267 110 L267 106 L268 105 L268 102 L269 101 L269 96 L270 95 L270 90 L271 89 L271 87 L272 86 L272 56 L271 55 L271 54 L272 53 L272 51 L271 50 L271 47 L270 46 L270 40 L269 39 L269 34 L268 33 L268 30 L267 29 L267 28 L266 27 L266 26 L265 25 L265 20 L264 19 L264 16 L263 15 L263 14 L261 12 L260 12 L259 11 Z " fill="black"/></svg>