<svg width="634" height="511" xmlns="http://www.w3.org/2000/svg"><path d="M567 11 L566 12 L563 12 L562 13 L559 13 L558 14 L556 14 L555 15 L554 15 L553 16 L551 16 L550 17 L548 17 L547 18 L546 18 L545 19 L543 19 L542 20 L541 20 L540 21 L539 21 L538 22 L537 22 L536 23 L535 23 L534 24 L533 24 L532 25 L531 25 L530 26 L529 26 L528 27 L527 27 L526 28 L525 28 L524 29 L523 29 L522 30 L521 30 L520 31 L519 31 L517 33 L516 33 L515 34 L514 34 L513 35 L512 35 L510 37 L509 37 L508 38 L507 38 L506 39 L505 39 L503 41 L502 41 L500 43 L499 43 L497 45 L496 45 L494 47 L493 47 L491 49 L490 49 L488 51 L487 51 L485 53 L484 53 L481 56 L480 56 L477 59 L476 59 L473 62 L472 62 L469 65 L468 65 L464 69 L463 69 L461 71 L460 71 L456 75 L455 75 L452 78 L451 78 L447 82 L446 82 L441 87 L440 87 L436 91 L435 91 L430 96 L429 96 L425 100 L424 100 L419 105 L418 105 L414 109 L413 109 L408 114 L407 114 L403 118 L402 118 L399 121 L398 121 L394 125 L393 125 L390 128 L389 128 L388 129 L387 129 L386 130 L385 130 L384 131 L383 131 L382 132 L381 132 L380 133 L379 133 L378 134 L377 134 L376 135 L375 135 L374 136 L373 136 L372 137 L370 137 L369 138 L367 138 L366 139 L362 139 L361 140 L355 140 L354 141 L342 141 L341 140 L334 140 L333 139 L327 139 L326 138 L320 138 L319 137 L314 137 L313 136 L306 136 L305 135 L296 135 L295 134 L273 134 L272 135 L267 135 L266 136 L262 136 L261 137 L257 137 L256 138 L254 138 L253 139 L251 139 L250 140 L248 140 L247 141 L246 141 L245 142 L244 142 L243 143 L242 143 L241 144 L240 144 L239 145 L238 145 L237 146 L236 146 L235 147 L234 147 L233 148 L232 148 L230 150 L229 150 L228 151 L227 151 L225 153 L224 153 L223 154 L222 154 L220 156 L219 156 L218 157 L217 157 L215 159 L214 159 L213 160 L212 160 L211 161 L210 161 L208 163 L207 163 L205 165 L204 165 L201 168 L200 168 L197 171 L195 171 L194 172 L193 172 L191 174 L190 174 L187 177 L186 177 L183 180 L182 180 L180 182 L179 182 L177 184 L176 184 L174 186 L173 186 L170 189 L169 189 L167 191 L166 191 L164 193 L163 193 L161 195 L160 195 L158 197 L157 197 L154 200 L153 200 L151 202 L150 202 L148 204 L147 204 L145 206 L144 206 L142 208 L141 208 L139 210 L138 210 L135 213 L134 213 L132 215 L131 215 L129 217 L128 217 L125 220 L124 220 L122 222 L121 222 L119 224 L118 224 L115 227 L114 227 L111 230 L110 230 L106 234 L105 234 L101 238 L100 238 L96 242 L95 242 L91 246 L90 246 L80 256 L79 256 L79 257 L61 275 L61 276 L55 282 L55 283 L51 287 L51 288 L48 291 L48 292 L46 294 L46 295 L43 298 L43 299 L41 301 L41 302 L39 304 L39 305 L37 307 L37 308 L36 309 L36 310 L34 312 L34 313 L33 314 L33 315 L32 316 L32 317 L31 318 L31 319 L30 320 L30 321 L29 322 L29 323 L28 324 L28 325 L27 326 L27 327 L26 328 L26 329 L25 330 L25 331 L24 332 L24 333 L23 334 L23 336 L22 337 L22 338 L21 339 L21 340 L20 341 L20 342 L19 343 L19 345 L18 346 L18 348 L17 349 L17 352 L16 353 L16 356 L15 357 L15 361 L14 362 L14 366 L13 367 L13 374 L12 375 L12 386 L11 387 L11 414 L12 415 L12 420 L13 421 L13 424 L14 425 L14 428 L15 429 L15 431 L16 432 L16 434 L17 435 L17 437 L18 438 L18 439 L19 440 L19 442 L20 443 L20 444 L21 445 L21 446 L22 447 L22 448 L23 449 L23 450 L24 451 L24 452 L25 453 L25 454 L26 455 L26 456 L28 458 L28 459 L30 461 L30 462 L33 465 L33 466 L37 470 L37 471 L44 478 L45 478 L49 482 L50 482 L52 484 L53 484 L55 486 L56 486 L57 487 L58 487 L59 488 L60 488 L61 489 L62 489 L63 490 L64 490 L65 491 L66 491 L67 492 L69 492 L70 493 L71 493 L72 494 L75 494 L76 495 L78 495 L79 496 L82 496 L83 497 L86 497 L87 498 L90 498 L91 499 L107 499 L108 498 L111 498 L112 497 L116 497 L117 496 L121 496 L122 495 L124 495 L125 494 L127 494 L128 493 L131 493 L132 492 L133 492 L134 491 L135 491 L136 490 L138 490 L139 489 L140 489 L141 488 L143 488 L144 487 L145 487 L146 486 L147 486 L148 485 L149 485 L150 484 L152 484 L153 483 L154 483 L155 482 L157 482 L158 481 L159 481 L160 480 L161 480 L162 479 L163 479 L164 478 L165 478 L166 477 L167 477 L168 476 L169 476 L170 475 L171 475 L172 474 L173 474 L174 473 L175 473 L176 472 L177 472 L178 471 L179 471 L181 469 L182 469 L183 468 L184 468 L185 467 L186 467 L188 465 L189 465 L190 464 L191 464 L192 463 L193 463 L194 462 L195 462 L196 461 L197 461 L198 460 L199 460 L201 458 L202 458 L203 457 L204 457 L205 456 L206 456 L207 455 L208 455 L209 454 L210 454 L211 453 L212 453 L214 451 L215 451 L216 450 L217 450 L218 449 L219 449 L220 448 L221 448 L222 447 L223 447 L224 446 L225 446 L226 445 L227 445 L228 444 L229 444 L230 443 L231 443 L233 441 L234 441 L235 440 L236 440 L237 439 L238 439 L239 438 L240 438 L241 437 L242 437 L244 435 L245 435 L246 434 L247 434 L248 433 L249 433 L250 432 L251 432 L252 431 L253 431 L254 430 L255 430 L256 429 L257 429 L258 428 L259 428 L260 427 L261 427 L262 426 L263 426 L264 425 L265 425 L266 424 L267 424 L269 422 L270 422 L271 421 L272 421 L273 420 L274 420 L275 419 L276 419 L278 417 L279 417 L280 416 L281 416 L282 415 L283 415 L285 413 L286 413 L287 412 L288 412 L289 411 L290 411 L292 409 L293 409 L294 408 L295 408 L296 407 L297 407 L298 406 L299 406 L300 405 L301 405 L302 404 L303 404 L305 402 L306 402 L307 401 L308 401 L309 400 L310 400 L311 399 L312 399 L314 397 L315 397 L316 396 L317 396 L318 395 L319 395 L320 394 L321 394 L322 393 L323 393 L325 391 L326 391 L327 390 L328 390 L329 389 L330 389 L332 387 L333 387 L334 386 L335 386 L336 385 L337 385 L339 383 L340 383 L341 382 L342 382 L344 380 L345 380 L347 378 L348 378 L349 377 L350 377 L352 375 L353 375 L354 374 L355 374 L356 373 L357 373 L359 371 L360 371 L361 370 L362 370 L364 368 L365 368 L366 367 L367 367 L369 365 L370 365 L371 364 L372 364 L374 362 L375 362 L377 360 L378 360 L379 359 L380 359 L382 357 L383 357 L385 355 L386 355 L389 352 L390 352 L392 350 L393 350 L395 348 L396 348 L400 344 L401 344 L408 337 L408 336 L412 332 L412 331 L415 328 L415 327 L417 325 L417 324 L419 322 L419 321 L424 316 L424 315 L425 314 L425 312 L426 311 L426 309 L427 308 L427 306 L428 305 L428 304 L429 303 L429 301 L430 300 L430 298 L431 297 L431 295 L432 294 L432 291 L433 290 L433 287 L434 286 L434 283 L435 282 L435 279 L436 278 L436 275 L437 274 L437 270 L438 269 L438 264 L439 263 L439 252 L440 251 L440 237 L439 236 L439 218 L438 217 L438 212 L437 211 L437 208 L436 207 L436 205 L435 204 L435 202 L434 201 L434 200 L433 199 L433 198 L432 197 L432 196 L431 195 L431 194 L432 193 L432 191 L433 190 L433 189 L434 188 L434 187 L441 180 L442 180 L444 178 L445 178 L446 177 L447 177 L448 176 L449 176 L450 175 L452 175 L453 174 L454 174 L455 173 L457 173 L458 172 L459 172 L460 171 L462 171 L463 170 L464 170 L465 169 L467 169 L468 168 L470 168 L471 167 L472 167 L473 166 L475 166 L476 165 L478 165 L479 164 L480 164 L481 163 L483 163 L484 162 L485 162 L486 161 L488 161 L489 160 L490 160 L491 159 L492 159 L493 158 L494 158 L495 157 L496 157 L497 156 L498 156 L499 155 L501 155 L502 154 L503 154 L504 153 L505 153 L506 152 L507 152 L508 151 L509 151 L510 150 L511 150 L512 149 L514 149 L515 148 L516 148 L517 147 L519 147 L520 146 L521 146 L522 145 L523 145 L524 144 L526 144 L527 143 L528 143 L529 142 L530 142 L531 141 L532 141 L533 140 L534 140 L536 138 L537 138 L538 137 L539 137 L540 136 L541 136 L542 135 L543 135 L544 134 L545 134 L546 133 L547 133 L548 132 L549 132 L550 131 L551 131 L553 129 L554 129 L555 128 L556 128 L557 127 L558 127 L559 126 L560 126 L562 124 L563 124 L564 123 L565 123 L567 121 L568 121 L569 120 L570 120 L572 118 L573 118 L574 117 L575 117 L577 115 L578 115 L579 114 L580 114 L582 112 L583 112 L585 110 L586 110 L589 107 L590 107 L593 104 L594 104 L598 100 L599 100 L609 90 L609 89 L612 86 L612 85 L614 83 L614 82 L615 81 L615 80 L616 79 L616 78 L617 77 L617 76 L618 75 L618 74 L619 73 L619 71 L620 70 L620 68 L621 67 L621 63 L622 62 L622 54 L623 53 L623 48 L622 47 L622 42 L621 41 L621 39 L620 38 L620 36 L619 35 L619 34 L618 33 L618 32 L616 30 L616 29 L614 27 L614 26 L607 19 L606 19 L604 17 L603 17 L602 16 L601 16 L600 15 L598 15 L597 14 L596 14 L595 13 L592 13 L591 12 L587 12 L586 11 Z " fill="black"/></svg>