<svg width="761" height="608" xmlns="http://www.w3.org/2000/svg"><path d="M288 11 L287 12 L284 12 L283 13 L280 13 L279 14 L277 14 L276 15 L275 15 L274 16 L273 16 L272 17 L271 17 L270 18 L269 18 L267 20 L266 20 L260 26 L259 26 L247 38 L247 39 L244 42 L244 43 L241 46 L241 47 L239 49 L239 50 L237 52 L237 53 L236 54 L236 55 L234 57 L234 58 L233 59 L233 60 L231 62 L231 64 L229 66 L229 67 L228 68 L228 69 L227 70 L227 71 L226 72 L226 73 L225 74 L225 76 L224 77 L224 78 L223 79 L223 81 L222 82 L222 83 L221 84 L221 87 L220 88 L220 90 L219 91 L219 93 L218 94 L218 96 L217 97 L217 100 L216 101 L216 103 L215 104 L215 106 L214 107 L214 110 L213 111 L213 114 L212 115 L212 118 L211 119 L211 124 L210 125 L210 130 L209 131 L209 138 L208 139 L208 147 L207 148 L207 156 L206 157 L206 159 L204 161 L200 161 L199 162 L196 162 L195 163 L192 163 L191 164 L189 164 L188 165 L185 165 L184 166 L182 166 L181 167 L179 167 L178 168 L176 168 L175 169 L173 169 L172 170 L168 170 L167 171 L164 171 L163 172 L162 172 L161 173 L160 173 L150 163 L149 163 L142 156 L141 156 L139 154 L138 154 L135 151 L134 151 L133 150 L132 150 L131 149 L130 149 L129 148 L128 148 L127 147 L126 147 L125 146 L124 146 L123 145 L121 145 L120 144 L117 144 L116 143 L113 143 L112 142 L107 142 L106 141 L88 141 L87 142 L83 142 L82 143 L80 143 L79 144 L77 144 L76 145 L75 145 L74 146 L72 146 L71 147 L70 147 L69 148 L68 148 L67 149 L66 149 L65 150 L64 150 L63 151 L62 151 L60 153 L59 153 L57 155 L56 155 L55 156 L54 156 L52 158 L51 158 L49 160 L48 160 L46 162 L45 162 L43 164 L42 164 L27 179 L27 180 L25 182 L25 183 L24 184 L24 185 L22 187 L22 188 L21 189 L21 190 L20 191 L20 193 L19 194 L19 195 L18 196 L18 198 L17 199 L17 201 L16 202 L16 204 L15 205 L15 208 L14 209 L14 212 L13 213 L13 216 L12 217 L12 225 L11 226 L11 254 L12 255 L12 260 L13 261 L13 265 L14 266 L14 269 L15 270 L15 273 L16 274 L16 276 L17 277 L17 279 L18 280 L18 282 L19 283 L19 285 L20 286 L20 288 L21 289 L21 291 L22 292 L22 293 L23 294 L23 295 L24 296 L24 298 L26 300 L26 301 L27 302 L27 303 L28 304 L28 305 L29 306 L29 307 L31 309 L31 310 L32 311 L32 312 L34 314 L34 315 L35 316 L35 317 L37 319 L37 320 L40 323 L40 324 L42 326 L42 327 L45 330 L45 331 L48 334 L48 335 L51 338 L51 339 L54 342 L54 343 L57 346 L57 347 L60 350 L60 351 L64 355 L64 356 L68 360 L68 361 L75 368 L75 369 L82 376 L82 377 L90 385 L90 386 L96 392 L96 393 L102 399 L102 400 L106 404 L106 405 L111 410 L111 411 L115 415 L115 416 L119 420 L119 421 L123 425 L123 426 L125 428 L125 429 L127 431 L127 432 L130 435 L130 436 L132 438 L132 439 L133 440 L133 441 L134 442 L134 443 L136 445 L136 446 L137 447 L137 448 L138 449 L138 450 L139 451 L139 452 L141 454 L141 455 L142 456 L142 458 L143 459 L143 461 L144 462 L144 465 L145 466 L145 490 L146 491 L146 493 L147 494 L147 495 L148 496 L148 497 L149 498 L149 533 L148 534 L148 536 L147 537 L147 538 L146 539 L146 549 L147 550 L147 551 L148 552 L148 554 L157 563 L158 563 L161 566 L162 566 L163 567 L164 567 L166 569 L167 569 L168 570 L169 570 L171 572 L172 572 L173 573 L175 573 L176 574 L177 574 L178 575 L179 575 L180 576 L181 576 L182 577 L183 577 L184 578 L186 578 L187 579 L189 579 L190 580 L192 580 L193 581 L195 581 L196 582 L199 582 L200 583 L202 583 L203 584 L206 584 L207 585 L210 585 L211 586 L215 586 L216 587 L220 587 L221 588 L225 588 L226 589 L231 589 L232 590 L238 590 L239 591 L244 591 L245 592 L253 592 L254 593 L262 593 L263 594 L271 594 L272 595 L284 595 L285 596 L344 596 L345 595 L354 595 L355 594 L361 594 L362 593 L368 593 L369 592 L375 592 L376 591 L380 591 L381 590 L386 590 L387 589 L391 589 L392 588 L395 588 L396 587 L398 587 L399 586 L402 586 L403 585 L406 585 L407 584 L409 584 L410 583 L412 583 L413 582 L415 582 L416 581 L418 581 L419 580 L421 580 L422 579 L424 579 L425 578 L426 578 L427 577 L429 577 L430 576 L432 576 L433 575 L434 575 L435 574 L436 574 L437 573 L438 573 L440 571 L441 571 L443 569 L444 569 L445 568 L446 568 L448 566 L449 566 L450 565 L451 565 L454 562 L455 562 L458 559 L459 559 L460 558 L460 557 L462 555 L462 554 L463 553 L463 550 L464 549 L464 542 L463 541 L463 540 L462 539 L462 538 L461 537 L461 535 L460 534 L460 516 L461 515 L461 514 L462 513 L462 512 L465 509 L465 508 L468 505 L468 504 L472 500 L472 499 L474 497 L474 496 L477 493 L477 492 L479 490 L479 489 L482 486 L482 485 L485 482 L485 481 L488 478 L488 477 L490 475 L490 474 L494 470 L494 469 L497 466 L497 465 L499 463 L499 462 L503 458 L503 457 L507 453 L507 452 L509 450 L509 449 L512 446 L512 445 L516 441 L516 440 L519 437 L519 436 L522 433 L522 432 L526 428 L526 427 L530 423 L530 422 L533 419 L533 418 L536 415 L536 414 L538 412 L538 411 L541 408 L541 407 L544 404 L544 403 L547 400 L547 399 L551 395 L551 394 L553 392 L553 391 L556 388 L556 387 L560 383 L560 382 L563 379 L563 378 L566 375 L566 374 L569 371 L569 370 L572 367 L572 366 L575 363 L575 362 L579 358 L579 357 L583 353 L583 352 L586 349 L586 348 L589 345 L589 344 L592 341 L592 340 L595 337 L595 336 L598 333 L598 332 L602 328 L602 327 L605 324 L605 323 L608 320 L608 319 L611 316 L611 315 L614 312 L614 311 L618 307 L618 306 L621 303 L621 302 L625 298 L625 297 L628 294 L628 293 L630 291 L630 290 L633 287 L633 286 L635 284 L635 283 L638 280 L638 279 L642 275 L642 274 L646 270 L646 269 L651 264 L651 263 L663 251 L664 251 L665 250 L666 250 L667 249 L712 249 L713 248 L723 248 L724 247 L729 247 L730 246 L734 246 L735 245 L738 245 L739 244 L740 244 L741 243 L742 243 L745 240 L745 239 L746 238 L746 237 L747 236 L747 235 L748 234 L748 230 L749 229 L749 221 L748 220 L748 214 L747 213 L747 211 L746 210 L746 208 L745 207 L745 205 L744 204 L744 203 L743 202 L743 201 L742 200 L742 199 L741 198 L741 196 L740 195 L740 194 L739 193 L739 192 L738 191 L738 190 L736 188 L736 187 L735 186 L735 185 L734 184 L734 183 L732 181 L732 180 L730 178 L730 177 L727 174 L727 173 L724 170 L724 169 L720 165 L720 164 L699 143 L698 143 L694 139 L693 139 L691 137 L690 137 L688 135 L687 135 L685 133 L684 133 L683 132 L682 132 L681 131 L680 131 L678 129 L677 129 L676 128 L674 128 L673 127 L672 127 L671 126 L669 126 L668 125 L665 125 L664 124 L661 124 L660 123 L655 123 L654 122 L649 122 L648 123 L645 123 L644 124 L643 124 L642 125 L641 125 L639 127 L638 127 L636 129 L636 130 L634 132 L634 136 L633 137 L633 138 L632 139 L632 147 L631 148 L631 152 L630 153 L630 157 L629 158 L629 191 L630 192 L630 207 L631 208 L631 215 L629 217 L629 218 L625 222 L625 223 L621 227 L621 228 L613 236 L613 237 L595 255 L595 256 L579 272 L579 273 L571 281 L557 281 L556 280 L543 280 L542 279 L527 279 L526 278 L512 278 L511 277 L510 277 L509 278 L508 277 L494 277 L493 276 L478 276 L477 275 L468 275 L467 274 L462 274 L461 273 L461 210 L462 209 L462 208 L465 205 L465 204 L466 203 L466 201 L467 200 L467 192 L466 191 L466 190 L464 188 L464 186 L462 184 L462 183 L461 182 L460 182 L457 179 L456 179 L455 178 L454 178 L452 176 L451 176 L450 175 L449 175 L448 174 L446 174 L445 173 L444 173 L443 172 L442 172 L441 171 L439 171 L438 170 L437 170 L436 169 L434 169 L433 168 L431 168 L430 167 L427 167 L426 166 L423 166 L422 165 L418 165 L417 164 L414 164 L413 163 L410 163 L409 162 L404 162 L402 160 L402 149 L401 148 L401 135 L400 134 L400 124 L399 123 L399 118 L398 117 L398 112 L397 111 L397 108 L396 107 L396 103 L395 102 L395 97 L394 96 L394 92 L393 91 L393 88 L392 87 L392 83 L391 82 L391 79 L390 78 L390 76 L389 75 L389 73 L388 72 L388 70 L387 69 L387 67 L386 66 L386 64 L385 63 L385 62 L384 61 L384 60 L383 59 L383 58 L382 57 L382 56 L381 55 L381 54 L380 53 L380 52 L378 50 L378 49 L377 48 L377 47 L375 45 L375 44 L373 42 L373 41 L371 39 L371 38 L367 34 L367 33 L357 23 L356 23 L353 20 L352 20 L351 19 L350 19 L348 17 L347 17 L346 16 L344 16 L343 15 L342 15 L341 14 L340 14 L339 13 L337 13 L336 12 L331 12 L330 11 Z " fill="black"/></svg>