<svg width="533" height="578" xmlns="http://www.w3.org/2000/svg"><path d="M238 10 L237 11 L229 11 L228 12 L224 12 L223 13 L220 13 L219 14 L217 14 L216 15 L215 15 L214 16 L213 16 L212 17 L211 17 L210 18 L209 18 L208 19 L207 19 L206 20 L205 20 L203 22 L202 22 L201 23 L200 23 L198 25 L197 25 L195 27 L194 27 L190 31 L189 31 L179 41 L179 42 L174 47 L174 48 L172 50 L172 51 L170 53 L170 54 L168 56 L168 57 L166 59 L166 60 L165 61 L165 62 L164 63 L164 64 L163 65 L163 66 L162 67 L162 68 L160 70 L160 72 L159 73 L159 74 L158 75 L158 76 L157 77 L157 78 L156 79 L156 80 L155 81 L155 83 L154 84 L154 85 L153 86 L153 88 L152 89 L152 90 L151 91 L151 93 L150 94 L150 96 L149 97 L149 100 L148 101 L148 103 L147 104 L147 107 L146 108 L146 112 L145 113 L145 115 L144 116 L144 120 L143 121 L143 125 L142 126 L142 129 L141 130 L141 133 L140 134 L140 139 L139 140 L139 144 L138 145 L138 151 L137 152 L137 159 L136 160 L136 170 L135 171 L135 182 L134 183 L134 188 L132 190 L119 190 L118 191 L105 191 L104 192 L93 192 L92 193 L85 193 L84 194 L77 194 L76 195 L72 195 L71 196 L67 196 L66 197 L62 197 L61 198 L58 198 L57 199 L54 199 L53 200 L51 200 L50 201 L47 201 L46 202 L44 202 L43 203 L42 203 L41 204 L39 204 L38 205 L36 205 L35 206 L34 206 L33 207 L32 207 L31 208 L29 208 L28 209 L27 209 L25 211 L24 211 L23 212 L22 212 L19 215 L18 215 L15 218 L15 219 L13 221 L13 222 L12 223 L12 226 L11 227 L11 236 L12 237 L12 241 L13 242 L13 244 L14 245 L14 246 L15 247 L15 250 L16 251 L16 255 L17 256 L17 261 L18 262 L18 267 L19 268 L19 272 L20 273 L20 277 L21 278 L21 282 L22 283 L22 287 L23 288 L23 292 L24 293 L24 296 L25 297 L25 302 L26 303 L26 308 L27 309 L27 313 L28 314 L28 319 L29 320 L29 326 L30 327 L30 331 L31 332 L31 337 L32 338 L32 343 L33 344 L33 348 L34 349 L34 353 L35 354 L35 359 L36 360 L36 364 L37 365 L37 369 L38 370 L38 375 L39 376 L39 379 L40 380 L40 383 L41 384 L41 389 L42 390 L42 394 L43 395 L43 399 L44 400 L44 405 L45 406 L45 410 L46 411 L46 415 L47 416 L47 420 L48 421 L48 425 L49 426 L49 429 L50 430 L50 434 L51 435 L51 438 L52 439 L52 444 L53 445 L53 449 L54 450 L54 454 L55 455 L55 459 L56 460 L56 463 L57 464 L57 467 L58 468 L58 472 L59 473 L59 477 L60 478 L60 482 L61 483 L61 487 L62 488 L62 492 L63 493 L63 495 L64 496 L64 498 L65 499 L65 501 L66 502 L66 503 L67 504 L67 505 L68 506 L68 507 L69 508 L69 509 L70 510 L70 511 L72 513 L72 514 L74 516 L74 517 L85 528 L86 528 L90 532 L91 532 L93 534 L94 534 L95 535 L96 535 L97 536 L98 536 L99 537 L100 537 L102 539 L103 539 L104 540 L105 540 L106 541 L107 541 L108 542 L109 542 L110 543 L111 543 L112 544 L113 544 L115 546 L116 546 L117 547 L118 547 L119 548 L120 548 L121 549 L122 549 L124 551 L125 551 L126 552 L127 552 L128 553 L129 553 L130 554 L132 554 L133 555 L134 555 L135 556 L137 556 L138 557 L140 557 L141 558 L143 558 L144 559 L146 559 L147 560 L149 560 L150 561 L152 561 L153 562 L157 562 L158 563 L163 563 L164 564 L168 564 L169 565 L175 565 L176 566 L193 566 L194 567 L198 567 L199 566 L217 566 L218 565 L227 565 L228 564 L235 564 L236 563 L243 563 L244 562 L250 562 L251 561 L256 561 L257 560 L263 560 L264 559 L269 559 L270 558 L274 558 L275 557 L280 557 L281 556 L289 556 L290 555 L294 555 L295 554 L300 554 L301 553 L305 553 L306 552 L310 552 L311 551 L315 551 L316 550 L321 550 L322 549 L328 549 L329 548 L333 548 L334 547 L338 547 L339 546 L343 546 L344 545 L346 545 L347 544 L350 544 L351 543 L354 543 L355 542 L359 542 L360 541 L365 541 L366 540 L372 540 L373 539 L378 539 L379 538 L384 538 L385 537 L390 537 L391 536 L395 536 L396 535 L400 535 L401 534 L404 534 L405 533 L409 533 L410 532 L414 532 L415 531 L418 531 L419 530 L423 530 L424 529 L427 529 L428 528 L430 528 L431 527 L434 527 L435 526 L437 526 L438 525 L439 525 L440 524 L442 524 L443 523 L445 523 L447 521 L448 521 L450 519 L451 519 L452 518 L453 518 L455 516 L456 516 L458 514 L459 514 L473 500 L473 499 L475 497 L475 496 L476 495 L476 494 L477 493 L477 492 L478 491 L478 490 L479 489 L479 486 L480 485 L480 482 L481 481 L481 479 L482 478 L482 474 L483 473 L483 468 L484 467 L484 461 L485 460 L485 453 L486 452 L486 446 L487 445 L487 438 L488 437 L488 431 L489 430 L489 424 L490 423 L490 416 L491 415 L491 409 L492 408 L492 400 L493 399 L493 391 L494 390 L494 382 L495 381 L495 374 L496 373 L496 365 L497 364 L497 358 L498 357 L498 350 L499 349 L499 341 L500 340 L500 332 L501 331 L501 325 L502 324 L502 317 L503 316 L503 312 L504 311 L504 306 L505 305 L505 297 L506 296 L506 290 L507 289 L507 283 L508 282 L508 278 L509 277 L509 271 L510 270 L510 264 L511 263 L511 258 L512 257 L512 252 L513 251 L513 246 L514 245 L514 240 L515 239 L515 234 L516 233 L516 223 L517 222 L517 214 L518 213 L518 212 L520 210 L520 208 L521 207 L521 201 L522 200 L522 199 L521 198 L521 192 L520 191 L520 189 L519 188 L519 187 L517 185 L517 184 L516 183 L515 183 L512 180 L511 180 L510 179 L509 179 L508 178 L507 178 L506 177 L505 177 L504 176 L503 176 L502 175 L501 175 L500 174 L499 174 L498 173 L496 173 L495 172 L492 172 L491 171 L488 171 L487 170 L484 170 L483 169 L480 169 L479 168 L474 168 L473 167 L465 167 L464 166 L460 166 L459 165 L456 165 L455 164 L451 164 L450 163 L445 163 L444 162 L438 162 L437 161 L426 161 L425 160 L405 160 L403 158 L403 155 L402 154 L402 147 L401 146 L401 142 L400 141 L400 138 L399 137 L399 134 L398 133 L398 130 L397 129 L397 126 L396 125 L396 123 L395 122 L395 120 L394 119 L394 116 L393 115 L393 113 L392 112 L392 110 L391 109 L391 107 L390 106 L390 104 L389 103 L389 101 L388 100 L388 98 L387 97 L387 95 L386 94 L386 93 L385 92 L385 90 L384 89 L384 87 L383 86 L383 85 L382 84 L382 83 L381 82 L381 80 L380 79 L380 78 L379 77 L379 76 L378 75 L378 74 L377 73 L377 72 L376 71 L376 70 L375 69 L375 68 L374 67 L374 66 L372 64 L372 63 L371 62 L371 61 L369 59 L369 58 L367 56 L367 55 L365 53 L365 52 L362 49 L362 48 L357 43 L357 42 L351 36 L350 36 L347 33 L346 33 L344 31 L343 31 L341 29 L340 29 L338 27 L337 27 L336 26 L335 26 L334 25 L333 25 L332 24 L330 24 L329 23 L328 23 L327 22 L326 22 L325 21 L323 21 L322 20 L320 20 L319 19 L317 19 L316 18 L313 18 L312 17 L305 17 L304 16 L296 16 L295 17 L287 17 L286 18 L282 18 L281 19 L277 19 L276 20 L275 19 L274 19 L273 18 L272 18 L270 16 L268 16 L267 15 L266 15 L265 14 L263 14 L262 13 L259 13 L258 12 L255 12 L254 11 L249 11 L248 10 Z " fill="black"/></svg>