<svg width="369" height="505" xmlns="http://www.w3.org/2000/svg"><path d="M174 11 L173 12 L173 13 L172 14 L172 15 L171 16 L171 19 L170 20 L170 24 L169 25 L169 29 L168 30 L168 35 L167 36 L167 41 L166 42 L166 48 L165 49 L165 52 L164 53 L164 58 L163 59 L163 64 L162 65 L162 69 L161 70 L161 75 L160 76 L160 83 L159 84 L159 86 L158 87 L158 88 L157 89 L157 91 L156 92 L156 98 L155 99 L155 112 L154 113 L154 129 L153 130 L151 128 L151 127 L150 126 L150 124 L149 123 L149 120 L148 119 L148 113 L147 112 L147 110 L146 109 L146 108 L144 106 L144 105 L143 104 L143 103 L142 102 L142 96 L141 95 L141 94 L140 93 L140 92 L138 90 L138 89 L133 84 L133 79 L132 78 L132 77 L131 76 L128 76 L127 77 L127 78 L126 79 L126 80 L125 81 L125 85 L126 86 L126 88 L127 89 L127 92 L128 93 L128 98 L129 99 L129 102 L130 103 L130 106 L131 107 L131 129 L130 130 L130 150 L129 151 L128 151 L127 150 L127 149 L126 148 L126 147 L125 146 L125 141 L124 140 L124 137 L123 136 L123 135 L119 131 L118 131 L117 130 L115 132 L115 134 L116 135 L116 138 L117 139 L117 144 L118 145 L118 150 L119 151 L119 153 L120 154 L120 157 L121 158 L121 159 L122 160 L122 162 L123 163 L123 167 L124 168 L124 180 L125 181 L125 184 L126 185 L126 188 L127 189 L127 192 L128 193 L128 197 L129 198 L129 204 L128 205 L126 203 L126 201 L125 200 L125 195 L124 194 L124 193 L123 192 L123 191 L122 190 L122 189 L121 188 L121 187 L120 186 L120 185 L119 184 L119 182 L118 181 L118 178 L117 177 L117 176 L116 175 L116 173 L115 172 L115 171 L114 170 L114 169 L113 168 L113 167 L112 166 L112 164 L111 163 L111 160 L106 155 L106 154 L105 153 L105 151 L104 150 L104 148 L103 147 L103 146 L102 145 L102 144 L101 143 L101 142 L97 138 L97 137 L95 135 L95 134 L92 131 L92 130 L91 129 L91 128 L90 127 L90 125 L89 124 L89 123 L87 121 L87 120 L85 118 L85 117 L84 116 L84 115 L82 113 L82 112 L79 109 L79 108 L74 103 L73 103 L70 100 L70 99 L69 98 L69 97 L66 94 L65 94 L63 92 L62 92 L60 90 L59 90 L57 88 L55 88 L54 87 L50 87 L49 88 L49 90 L50 91 L50 92 L51 93 L51 94 L52 95 L52 96 L54 98 L54 99 L55 100 L55 101 L58 104 L58 105 L60 107 L60 108 L61 109 L61 111 L62 112 L62 113 L64 115 L64 116 L65 117 L65 119 L67 121 L67 123 L68 124 L68 125 L69 126 L69 128 L70 129 L70 130 L71 131 L71 132 L72 133 L72 134 L73 135 L73 137 L74 138 L74 140 L75 141 L75 143 L76 144 L76 146 L77 147 L77 150 L78 151 L78 154 L79 155 L79 157 L80 158 L80 159 L81 160 L81 162 L82 163 L82 165 L83 166 L83 168 L84 169 L84 170 L85 171 L85 173 L86 174 L86 177 L87 178 L87 182 L88 183 L88 186 L89 187 L89 190 L90 191 L90 194 L91 195 L91 197 L92 198 L92 201 L93 202 L93 208 L94 209 L94 212 L95 213 L95 215 L96 216 L96 217 L97 218 L97 220 L96 221 L89 214 L89 213 L87 211 L87 210 L86 209 L86 208 L85 207 L85 206 L82 203 L81 203 L79 201 L77 201 L75 199 L74 199 L72 197 L71 197 L68 194 L68 193 L64 189 L64 188 L55 179 L54 179 L53 178 L52 178 L50 176 L49 176 L48 175 L47 175 L43 171 L42 171 L37 166 L36 166 L34 164 L31 164 L30 163 L29 163 L28 162 L26 162 L25 161 L24 161 L23 160 L22 160 L21 159 L18 159 L17 158 L15 158 L14 159 L12 159 L11 160 L11 162 L12 163 L12 164 L15 167 L16 167 L17 168 L18 168 L20 170 L21 170 L32 181 L33 181 L41 189 L41 190 L43 192 L43 193 L51 201 L51 202 L54 205 L54 206 L55 207 L55 208 L58 211 L58 212 L61 215 L61 216 L63 218 L63 219 L65 221 L65 222 L66 223 L66 224 L67 225 L67 226 L69 228 L69 229 L71 231 L71 232 L72 233 L72 235 L73 236 L73 237 L74 238 L74 239 L75 240 L75 242 L77 244 L77 245 L78 246 L78 247 L79 248 L79 249 L83 253 L83 256 L84 257 L84 259 L85 260 L85 261 L86 262 L86 263 L88 265 L88 266 L90 268 L90 269 L91 270 L91 272 L92 273 L92 274 L93 275 L93 277 L94 278 L94 279 L95 280 L95 281 L96 282 L96 283 L98 285 L98 286 L99 287 L99 288 L101 290 L101 291 L104 294 L104 295 L108 299 L108 300 L109 301 L109 302 L110 303 L110 304 L109 305 L105 305 L104 306 L101 306 L100 307 L98 307 L97 308 L95 308 L94 309 L92 309 L91 310 L90 310 L89 311 L88 311 L83 316 L82 316 L82 317 L80 319 L80 320 L79 321 L79 322 L78 323 L78 328 L77 329 L78 330 L78 343 L79 344 L79 355 L80 356 L80 366 L81 367 L81 378 L82 379 L82 383 L83 384 L83 387 L84 388 L84 391 L85 392 L85 399 L86 400 L86 405 L87 406 L87 410 L88 411 L88 413 L89 414 L89 416 L90 417 L90 418 L91 419 L91 421 L92 422 L92 425 L93 426 L93 429 L94 430 L94 435 L95 436 L95 441 L96 442 L96 444 L97 445 L97 447 L98 448 L98 449 L99 450 L99 451 L100 452 L100 453 L101 454 L101 456 L102 457 L102 458 L103 459 L103 461 L104 462 L104 463 L106 465 L106 466 L107 467 L107 468 L109 470 L109 471 L117 479 L118 479 L119 480 L120 480 L122 482 L123 482 L124 483 L125 483 L126 484 L127 484 L128 485 L130 485 L131 486 L133 486 L134 487 L136 487 L137 488 L141 488 L142 489 L144 489 L145 490 L148 490 L149 491 L163 491 L164 492 L170 492 L171 493 L172 493 L173 492 L174 492 L175 493 L190 493 L191 492 L192 493 L194 493 L195 492 L201 492 L202 491 L203 491 L205 489 L208 489 L209 490 L212 490 L213 489 L223 489 L224 488 L226 488 L227 487 L229 487 L230 486 L232 486 L233 485 L239 485 L240 484 L241 484 L242 483 L243 483 L244 482 L246 482 L247 481 L248 481 L250 479 L251 479 L254 476 L255 476 L256 475 L257 475 L262 470 L262 469 L263 468 L263 467 L264 466 L264 465 L265 464 L265 463 L266 462 L266 461 L267 460 L267 459 L268 458 L268 457 L269 456 L269 455 L270 454 L270 452 L271 451 L271 450 L272 449 L272 447 L273 446 L273 445 L274 444 L274 442 L275 441 L275 438 L276 437 L276 433 L277 432 L277 427 L278 426 L278 424 L279 423 L279 421 L280 420 L280 416 L281 415 L281 411 L282 410 L282 406 L283 405 L283 400 L284 399 L284 394 L285 393 L285 387 L286 386 L286 381 L287 380 L287 374 L288 373 L288 363 L289 362 L289 360 L288 359 L288 356 L289 355 L289 344 L290 343 L290 337 L291 336 L291 331 L290 330 L290 327 L289 326 L289 324 L288 323 L288 321 L286 319 L286 318 L285 317 L285 316 L283 314 L283 313 L282 312 L281 312 L279 310 L277 310 L276 309 L275 309 L274 308 L272 308 L271 307 L269 307 L268 306 L265 306 L264 305 L262 305 L261 306 L260 306 L259 305 L259 304 L267 296 L267 295 L269 293 L269 292 L270 291 L270 290 L271 289 L271 288 L272 287 L272 286 L273 285 L273 284 L274 283 L274 282 L276 280 L276 279 L278 277 L278 276 L279 275 L279 273 L280 272 L280 270 L281 269 L281 267 L282 266 L282 264 L283 263 L283 261 L284 260 L284 259 L285 258 L285 257 L286 256 L286 255 L287 254 L287 253 L288 252 L288 250 L289 249 L289 244 L290 243 L290 241 L292 239 L292 238 L293 237 L293 236 L294 235 L294 234 L296 232 L296 230 L297 229 L297 227 L298 226 L298 223 L299 222 L299 218 L300 217 L300 215 L302 213 L302 212 L304 210 L304 209 L305 208 L305 207 L306 206 L306 205 L307 204 L307 203 L308 202 L308 201 L309 200 L309 198 L310 197 L310 196 L311 195 L311 194 L312 193 L312 192 L313 191 L313 190 L314 189 L314 188 L315 187 L315 186 L316 185 L316 184 L317 183 L317 182 L319 180 L319 179 L320 178 L320 177 L321 176 L321 175 L322 174 L322 173 L323 172 L323 171 L324 170 L324 169 L325 168 L325 167 L326 166 L326 165 L327 164 L327 163 L328 162 L328 160 L329 159 L329 158 L331 156 L331 155 L334 152 L334 151 L335 150 L335 149 L336 148 L336 147 L338 145 L338 144 L340 142 L340 141 L347 134 L347 133 L348 132 L348 131 L349 130 L349 129 L350 128 L350 127 L351 126 L351 125 L357 119 L357 115 L353 115 L352 116 L351 116 L350 117 L349 117 L348 118 L347 118 L346 119 L345 119 L343 121 L342 121 L341 122 L340 122 L338 124 L337 124 L334 127 L334 128 L331 131 L330 131 L327 134 L326 134 L323 137 L322 137 L320 139 L320 140 L312 148 L311 148 L306 153 L306 154 L303 157 L303 158 L302 159 L302 160 L300 162 L300 163 L295 168 L294 168 L289 173 L289 174 L287 176 L287 177 L282 182 L282 188 L279 191 L278 191 L277 192 L276 192 L274 194 L274 195 L273 196 L273 200 L272 201 L272 203 L271 204 L271 206 L270 207 L270 208 L269 209 L269 211 L268 212 L268 213 L266 215 L264 215 L263 214 L263 207 L264 206 L264 201 L265 200 L265 196 L266 195 L266 192 L267 191 L267 188 L268 187 L268 181 L269 180 L269 174 L270 173 L270 169 L271 168 L271 167 L272 166 L272 165 L273 164 L273 161 L274 160 L274 148 L275 147 L275 144 L276 143 L276 140 L277 139 L277 137 L278 136 L278 134 L279 133 L279 130 L280 129 L280 124 L281 123 L281 117 L282 116 L282 109 L283 108 L283 103 L284 102 L284 100 L285 99 L285 97 L286 96 L286 94 L287 93 L287 91 L288 90 L288 88 L289 87 L289 85 L290 84 L290 81 L291 80 L291 79 L292 78 L292 76 L293 75 L293 72 L294 71 L294 70 L295 69 L295 68 L296 67 L296 66 L297 65 L297 64 L298 63 L298 62 L299 61 L299 59 L300 58 L300 55 L301 54 L301 52 L300 51 L300 50 L298 50 L295 53 L294 53 L294 54 L292 56 L291 56 L291 57 L288 60 L288 61 L286 63 L286 64 L283 67 L283 68 L281 70 L281 71 L279 73 L279 74 L276 77 L276 78 L273 81 L273 82 L271 84 L271 85 L269 87 L269 88 L268 89 L268 90 L267 91 L267 92 L266 93 L266 94 L265 95 L265 96 L264 97 L264 98 L263 99 L263 100 L262 101 L262 102 L261 103 L261 105 L260 106 L260 107 L259 108 L259 110 L258 111 L258 114 L257 115 L257 116 L256 117 L256 120 L255 121 L255 123 L254 124 L254 125 L253 126 L253 127 L252 128 L252 130 L251 131 L251 133 L250 134 L250 136 L249 137 L249 140 L246 143 L246 144 L245 145 L245 147 L244 148 L244 151 L243 152 L243 155 L242 156 L242 160 L241 161 L241 163 L240 164 L240 166 L239 167 L239 168 L237 170 L237 172 L236 173 L235 172 L235 160 L236 159 L236 140 L235 139 L235 137 L234 136 L234 112 L235 111 L235 104 L236 103 L236 99 L237 98 L237 91 L238 90 L238 89 L239 88 L239 87 L240 86 L240 84 L241 83 L241 81 L240 80 L235 80 L232 83 L232 84 L231 85 L231 86 L229 88 L229 89 L228 90 L228 91 L226 93 L226 94 L225 95 L225 96 L224 97 L224 98 L223 99 L223 101 L222 102 L222 105 L221 106 L221 108 L220 109 L220 110 L219 111 L219 114 L218 115 L218 117 L217 118 L217 121 L216 122 L216 127 L215 128 L215 133 L214 134 L214 137 L213 138 L213 141 L212 142 L212 144 L210 146 L210 147 L209 148 L208 148 L207 147 L207 140 L206 139 L206 137 L204 135 L202 135 L200 137 L200 138 L199 139 L199 141 L198 142 L198 146 L197 147 L197 157 L198 158 L198 188 L197 189 L196 189 L195 188 L195 185 L194 184 L194 179 L193 178 L193 165 L192 164 L192 160 L191 159 L191 142 L190 141 L190 130 L189 129 L189 123 L188 122 L188 110 L187 109 L187 106 L186 105 L186 103 L185 102 L185 98 L184 97 L184 50 L183 49 L183 40 L182 39 L182 36 L180 34 L180 31 L179 30 L179 29 L180 28 L180 22 L179 21 L179 14 L178 13 L178 12 L177 11 Z " fill="black"/></svg>