<svg width="345" height="493" xmlns="http://www.w3.org/2000/svg"><path d="M220 10 L219 11 L217 11 L216 12 L215 12 L211 16 L210 16 L210 17 L209 18 L209 19 L208 20 L208 21 L206 23 L205 23 L204 22 L197 22 L196 23 L195 23 L194 24 L193 24 L190 27 L190 28 L189 29 L189 31 L188 32 L188 34 L187 35 L186 34 L186 33 L185 32 L185 30 L184 29 L184 28 L181 25 L180 25 L179 24 L169 24 L168 25 L167 25 L166 26 L165 26 L164 27 L163 27 L162 28 L161 28 L157 32 L157 33 L156 34 L155 34 L154 33 L146 33 L145 34 L142 34 L139 31 L139 27 L138 26 L138 25 L134 21 L133 21 L131 19 L129 19 L128 18 L123 18 L122 19 L120 19 L118 21 L117 21 L111 27 L111 28 L110 29 L110 34 L111 35 L111 36 L112 37 L111 38 L109 38 L108 37 L108 36 L106 34 L105 34 L104 33 L103 33 L102 32 L100 32 L99 31 L96 31 L95 30 L89 30 L88 31 L84 31 L83 32 L78 32 L77 33 L76 33 L74 35 L74 36 L73 37 L73 44 L71 46 L68 46 L67 47 L66 47 L62 51 L62 52 L61 53 L61 54 L58 57 L57 57 L56 56 L51 56 L50 57 L47 57 L46 58 L44 58 L39 63 L38 63 L36 65 L36 67 L35 68 L35 74 L36 75 L36 77 L38 79 L38 80 L39 80 L42 83 L43 83 L44 84 L43 85 L43 87 L42 88 L42 93 L41 94 L41 97 L40 98 L38 98 L37 97 L30 97 L29 98 L27 98 L25 100 L25 101 L24 102 L24 103 L23 104 L23 107 L22 108 L22 112 L23 113 L23 115 L25 117 L25 118 L26 119 L27 119 L28 120 L29 120 L30 121 L35 121 L36 122 L36 123 L32 127 L32 134 L31 135 L25 135 L24 136 L23 136 L22 137 L21 137 L20 138 L19 138 L17 140 L17 141 L16 142 L16 143 L15 144 L15 149 L16 150 L16 152 L17 153 L17 154 L19 156 L20 156 L21 157 L32 157 L33 158 L33 165 L37 165 L40 168 L38 170 L35 170 L33 172 L33 173 L32 174 L32 176 L31 177 L31 179 L30 180 L29 180 L27 178 L24 178 L23 179 L22 179 L21 180 L20 180 L18 182 L17 182 L11 188 L11 189 L10 190 L10 191 L11 192 L11 193 L12 194 L12 195 L13 196 L13 197 L17 201 L23 201 L24 200 L25 200 L26 199 L27 199 L28 198 L29 198 L37 190 L38 191 L40 191 L42 193 L42 200 L44 202 L44 203 L45 204 L45 205 L46 206 L46 207 L44 209 L44 210 L42 212 L42 213 L41 214 L41 219 L42 220 L42 221 L43 222 L43 223 L44 224 L44 226 L45 227 L45 228 L48 231 L49 231 L50 232 L51 232 L52 233 L53 233 L55 235 L55 236 L52 239 L52 240 L51 241 L51 242 L50 243 L50 245 L49 246 L49 248 L48 249 L48 253 L49 254 L49 256 L48 257 L45 257 L44 258 L42 258 L41 259 L40 259 L38 261 L37 261 L36 262 L36 263 L35 264 L35 267 L34 268 L34 272 L35 273 L35 274 L36 275 L36 276 L38 278 L39 278 L40 279 L47 279 L48 278 L51 278 L52 279 L52 280 L50 282 L50 283 L49 284 L49 285 L48 286 L48 288 L47 289 L47 300 L46 301 L45 301 L44 302 L42 302 L41 303 L39 303 L38 304 L36 304 L30 310 L30 311 L29 312 L29 314 L28 315 L28 317 L29 318 L29 319 L34 324 L35 324 L36 325 L29 332 L29 333 L28 334 L28 335 L27 336 L27 342 L28 343 L28 344 L30 346 L31 346 L32 347 L33 347 L34 348 L37 348 L38 347 L39 347 L40 346 L41 346 L44 343 L44 342 L45 341 L45 340 L46 339 L46 331 L45 330 L45 327 L46 326 L47 326 L49 324 L50 324 L51 323 L52 323 L52 322 L53 321 L53 320 L54 319 L54 311 L53 310 L53 307 L54 306 L55 306 L56 307 L57 307 L58 306 L62 306 L63 305 L64 305 L65 304 L66 304 L70 300 L70 299 L71 298 L71 291 L70 290 L70 288 L69 287 L69 286 L68 286 L65 283 L65 282 L64 281 L62 281 L61 280 L59 280 L57 278 L58 277 L58 267 L57 266 L57 265 L58 264 L60 264 L61 263 L62 263 L64 261 L64 260 L65 259 L65 258 L66 257 L66 253 L67 252 L67 248 L66 247 L66 243 L67 242 L68 242 L70 244 L70 245 L72 247 L72 248 L74 250 L74 251 L80 257 L81 257 L83 259 L84 259 L88 263 L88 264 L90 266 L90 267 L93 270 L92 271 L89 271 L88 270 L87 270 L86 271 L84 271 L80 275 L80 276 L78 278 L78 281 L77 282 L77 285 L78 286 L78 288 L81 291 L82 291 L83 292 L84 292 L85 293 L93 293 L94 292 L95 292 L96 293 L96 294 L91 299 L91 300 L90 301 L90 302 L89 303 L89 312 L90 313 L90 315 L91 316 L91 317 L94 320 L95 320 L96 321 L97 321 L98 322 L98 323 L97 324 L96 324 L95 325 L93 325 L92 326 L91 326 L90 327 L87 327 L86 328 L84 328 L83 329 L82 329 L81 330 L81 331 L80 332 L80 333 L79 334 L79 339 L80 340 L80 343 L81 344 L81 345 L87 351 L88 351 L89 352 L94 352 L95 353 L92 356 L91 356 L90 357 L89 357 L84 362 L84 363 L83 364 L83 373 L84 374 L84 375 L86 377 L87 377 L88 378 L91 378 L92 379 L100 379 L101 378 L102 379 L102 380 L100 382 L100 383 L99 384 L99 387 L98 388 L98 389 L99 390 L99 394 L100 395 L100 396 L101 397 L101 398 L102 399 L102 401 L101 402 L100 402 L99 403 L97 403 L95 405 L94 405 L91 408 L91 410 L90 411 L90 416 L91 417 L91 418 L99 426 L99 427 L98 428 L98 430 L97 431 L97 432 L96 433 L96 434 L95 435 L95 436 L93 438 L90 438 L89 437 L81 437 L80 438 L79 438 L76 441 L76 442 L75 443 L75 444 L73 446 L73 449 L74 450 L74 452 L76 454 L76 455 L80 459 L81 459 L82 460 L84 460 L85 461 L86 461 L87 460 L89 460 L90 459 L91 459 L93 457 L94 457 L94 456 L96 454 L96 452 L97 451 L97 446 L101 442 L101 440 L102 439 L102 435 L103 434 L103 432 L104 431 L104 429 L107 426 L109 426 L110 425 L111 425 L112 424 L113 424 L114 423 L115 423 L116 422 L118 422 L123 417 L123 415 L124 414 L124 411 L125 410 L125 408 L124 407 L124 403 L123 402 L123 390 L122 389 L122 388 L121 387 L121 386 L117 382 L116 382 L115 381 L112 381 L111 380 L108 380 L106 378 L106 377 L108 375 L108 374 L109 373 L109 372 L110 371 L110 368 L109 367 L109 360 L108 359 L108 358 L107 357 L107 356 L104 353 L103 353 L102 352 L101 352 L99 350 L100 349 L100 348 L101 347 L101 346 L103 344 L103 343 L104 342 L104 341 L105 340 L105 339 L106 338 L106 337 L107 336 L107 333 L106 332 L106 329 L104 327 L104 326 L103 325 L107 321 L108 321 L109 320 L110 320 L112 318 L112 317 L113 316 L113 315 L114 314 L114 307 L113 306 L113 304 L109 300 L108 300 L107 299 L106 299 L105 298 L102 298 L101 297 L101 295 L102 294 L102 293 L103 292 L103 289 L102 288 L102 286 L101 285 L101 284 L102 283 L102 282 L104 280 L106 280 L107 279 L107 278 L109 276 L109 275 L111 273 L111 272 L112 271 L117 271 L118 272 L120 272 L121 273 L125 273 L126 274 L131 274 L132 275 L138 275 L139 276 L140 276 L142 278 L142 279 L141 280 L141 282 L140 283 L140 284 L141 285 L141 287 L142 288 L142 290 L140 292 L140 293 L139 294 L139 296 L138 297 L138 304 L139 305 L139 306 L140 307 L140 308 L142 310 L143 310 L144 311 L145 311 L148 314 L148 315 L149 316 L149 317 L151 319 L151 320 L152 320 L154 322 L155 322 L156 323 L157 323 L160 326 L158 328 L156 328 L152 332 L152 333 L151 334 L151 335 L150 336 L150 342 L151 343 L151 344 L154 347 L155 347 L156 348 L158 348 L159 349 L160 349 L162 351 L162 352 L161 353 L161 354 L160 355 L160 356 L159 357 L159 358 L160 358 L161 359 L161 360 L160 361 L159 361 L159 362 L158 363 L158 364 L157 365 L157 371 L158 372 L158 373 L162 377 L164 377 L165 378 L169 378 L170 377 L171 377 L174 374 L174 373 L175 372 L175 371 L176 370 L176 368 L177 367 L177 365 L176 364 L176 361 L175 360 L175 359 L173 357 L172 357 L171 356 L170 356 L169 355 L169 354 L170 353 L171 353 L176 348 L176 346 L177 345 L177 342 L176 341 L176 339 L174 337 L174 336 L173 336 L171 334 L170 334 L166 330 L166 329 L165 328 L165 327 L164 326 L164 325 L163 324 L163 323 L166 320 L167 320 L170 317 L170 316 L171 315 L171 313 L172 312 L172 303 L171 302 L171 300 L169 298 L169 297 L167 295 L166 295 L165 294 L164 294 L163 293 L162 293 L160 291 L160 280 L163 277 L212 277 L213 276 L218 276 L219 277 L219 280 L220 281 L220 282 L221 283 L221 285 L220 286 L219 286 L219 287 L216 290 L216 291 L215 292 L214 292 L207 299 L207 301 L206 302 L206 308 L207 309 L207 310 L208 311 L208 312 L210 314 L210 315 L211 316 L212 316 L214 318 L221 318 L222 319 L222 320 L218 324 L218 325 L216 327 L216 334 L217 335 L217 337 L219 339 L219 340 L223 344 L224 344 L225 345 L225 346 L223 348 L221 348 L220 349 L219 349 L214 354 L214 355 L213 356 L213 357 L212 358 L212 359 L211 360 L211 365 L213 367 L213 368 L214 369 L215 369 L219 373 L220 373 L222 375 L222 376 L221 377 L221 386 L222 387 L222 388 L223 389 L223 390 L225 392 L225 393 L222 396 L220 396 L219 397 L218 397 L216 399 L215 399 L211 403 L211 404 L210 405 L210 408 L209 409 L209 413 L210 414 L210 415 L214 419 L214 420 L215 421 L215 422 L217 424 L217 425 L220 428 L220 429 L219 430 L214 430 L213 431 L212 431 L211 432 L210 432 L205 437 L205 438 L204 439 L204 440 L203 441 L203 446 L204 447 L204 448 L206 450 L206 451 L208 453 L209 453 L210 454 L211 454 L212 455 L213 455 L214 456 L217 456 L218 457 L220 457 L221 458 L221 459 L219 461 L219 463 L218 464 L218 471 L219 472 L219 474 L221 476 L221 477 L222 477 L225 480 L227 480 L228 481 L235 481 L236 480 L237 480 L238 479 L239 479 L240 478 L240 477 L241 476 L241 475 L242 474 L242 471 L243 470 L243 468 L242 467 L242 465 L235 458 L234 458 L233 457 L231 457 L230 456 L227 456 L226 455 L229 452 L229 451 L230 450 L230 447 L231 446 L231 441 L230 440 L230 438 L229 437 L229 436 L226 433 L226 431 L228 429 L230 429 L231 428 L234 428 L238 424 L238 423 L239 422 L239 420 L240 419 L240 414 L239 413 L239 411 L238 410 L238 409 L233 404 L232 404 L228 400 L228 398 L229 397 L230 397 L231 398 L237 398 L237 397 L238 396 L238 395 L241 392 L241 391 L243 389 L243 387 L244 386 L244 383 L245 382 L245 378 L244 377 L244 375 L238 369 L238 363 L239 362 L238 361 L238 353 L236 351 L233 351 L230 348 L230 347 L231 346 L233 346 L236 349 L237 349 L241 345 L241 343 L242 342 L242 335 L243 334 L243 328 L242 327 L242 325 L241 324 L241 323 L239 321 L239 320 L238 319 L237 319 L236 318 L227 318 L226 317 L226 315 L227 314 L227 313 L228 312 L228 311 L229 310 L229 307 L230 306 L230 303 L229 302 L229 300 L228 299 L228 298 L226 296 L226 295 L223 292 L223 290 L226 287 L227 287 L228 288 L229 288 L230 289 L231 289 L233 291 L233 293 L235 295 L235 296 L239 300 L241 300 L242 301 L243 301 L244 300 L246 300 L247 299 L248 299 L253 294 L253 293 L254 292 L254 291 L255 290 L255 283 L254 282 L254 281 L252 279 L252 278 L249 275 L245 275 L244 274 L242 274 L239 271 L239 270 L240 269 L242 269 L243 268 L244 268 L245 267 L246 267 L247 266 L248 266 L249 265 L250 265 L251 264 L252 264 L253 263 L254 263 L255 262 L256 262 L258 260 L260 260 L261 259 L263 261 L262 262 L262 263 L261 264 L261 265 L260 266 L260 267 L259 268 L259 269 L258 270 L258 275 L259 276 L259 277 L260 278 L260 280 L262 282 L262 283 L263 284 L263 285 L267 289 L267 290 L266 291 L265 291 L264 292 L263 292 L262 293 L262 294 L259 297 L259 298 L258 299 L258 301 L257 302 L257 310 L256 311 L256 317 L257 318 L257 320 L250 327 L250 328 L249 329 L249 335 L250 336 L250 337 L251 338 L251 339 L253 341 L253 342 L254 343 L255 343 L256 344 L257 344 L258 345 L259 345 L260 346 L260 348 L258 350 L258 351 L257 352 L257 358 L258 359 L258 360 L256 362 L255 362 L251 366 L251 368 L250 369 L250 376 L251 377 L251 378 L252 379 L252 380 L255 383 L256 383 L258 385 L259 385 L260 386 L262 386 L263 387 L264 387 L267 390 L267 391 L266 392 L266 393 L265 394 L265 397 L264 398 L264 399 L265 400 L265 402 L266 403 L266 404 L270 408 L271 408 L273 410 L281 410 L282 409 L283 409 L284 408 L284 407 L286 405 L286 397 L285 396 L285 395 L283 393 L282 393 L281 392 L280 392 L279 391 L277 391 L276 390 L274 390 L273 389 L271 389 L269 387 L269 385 L271 383 L271 382 L274 379 L274 377 L275 376 L275 368 L274 367 L274 366 L273 365 L273 363 L272 362 L272 360 L273 359 L273 358 L274 357 L274 350 L273 349 L273 346 L275 344 L275 343 L276 342 L276 340 L277 339 L277 331 L276 330 L276 329 L275 328 L275 327 L274 326 L274 325 L270 321 L271 320 L272 320 L273 319 L274 319 L280 313 L280 311 L281 310 L281 305 L280 304 L280 301 L279 300 L279 299 L278 298 L278 297 L277 296 L277 295 L276 294 L276 292 L277 291 L278 291 L280 289 L280 287 L281 286 L281 285 L282 284 L282 283 L285 280 L285 279 L286 278 L286 277 L287 276 L288 276 L293 281 L294 281 L295 282 L295 284 L294 285 L294 291 L295 292 L295 306 L293 308 L291 308 L289 310 L288 310 L284 314 L284 316 L283 317 L283 324 L284 325 L284 326 L287 329 L288 329 L290 331 L292 331 L294 333 L294 335 L288 341 L287 341 L282 346 L282 347 L281 348 L281 349 L280 350 L280 353 L281 354 L281 356 L282 357 L282 358 L286 362 L287 362 L289 364 L290 364 L291 365 L293 365 L294 366 L295 366 L296 367 L298 367 L301 370 L301 373 L300 374 L300 377 L301 378 L301 380 L302 381 L302 382 L307 387 L308 387 L309 388 L316 388 L321 383 L321 382 L322 381 L322 379 L323 378 L323 377 L322 376 L322 374 L316 368 L315 368 L314 367 L305 367 L303 365 L303 364 L306 361 L306 360 L307 359 L307 358 L308 357 L308 350 L307 349 L307 348 L306 347 L306 345 L305 344 L305 343 L300 338 L300 336 L301 335 L301 333 L300 332 L300 331 L301 330 L302 330 L308 324 L308 322 L309 321 L309 318 L308 317 L308 316 L307 315 L307 314 L302 309 L302 308 L303 307 L304 308 L305 308 L306 309 L307 309 L308 310 L314 310 L315 309 L316 309 L318 307 L319 307 L320 306 L320 305 L321 304 L321 302 L322 301 L322 299 L323 298 L323 295 L322 294 L322 293 L321 292 L321 291 L320 290 L320 289 L319 288 L318 288 L315 285 L314 285 L312 283 L310 283 L309 282 L307 282 L306 281 L306 279 L308 277 L308 276 L309 275 L309 274 L310 273 L310 272 L311 271 L311 270 L312 269 L312 260 L313 259 L313 257 L312 256 L312 252 L311 251 L310 251 L309 250 L308 250 L307 249 L307 247 L308 246 L308 244 L309 243 L309 237 L310 236 L311 236 L312 237 L313 237 L315 239 L320 239 L321 240 L322 240 L323 239 L325 239 L326 238 L327 238 L328 237 L328 236 L332 232 L332 230 L333 229 L333 226 L332 225 L332 224 L330 222 L330 221 L328 219 L327 219 L326 218 L325 218 L324 217 L323 217 L322 216 L321 216 L320 215 L320 209 L321 208 L321 207 L320 206 L320 204 L319 203 L315 203 L314 202 L314 201 L315 200 L315 193 L316 192 L318 192 L319 191 L324 191 L326 189 L326 188 L327 187 L327 179 L326 178 L326 173 L323 170 L322 170 L320 168 L316 168 L315 167 L310 167 L309 166 L310 165 L310 164 L312 162 L312 161 L313 160 L313 159 L314 158 L314 155 L313 154 L313 146 L312 145 L312 144 L309 141 L308 141 L306 139 L306 138 L305 137 L307 135 L307 134 L308 133 L308 132 L307 133 L306 133 L305 132 L305 128 L306 127 L308 129 L310 129 L311 128 L312 128 L313 127 L314 127 L318 123 L318 122 L319 121 L319 120 L320 119 L320 114 L319 113 L319 110 L318 109 L318 108 L317 107 L317 106 L315 104 L314 104 L312 102 L311 102 L310 101 L303 101 L302 102 L300 102 L299 101 L299 99 L298 98 L298 95 L301 92 L301 91 L303 89 L303 86 L304 85 L304 75 L303 74 L303 72 L302 71 L302 70 L297 65 L295 65 L294 64 L289 64 L288 65 L287 65 L286 64 L286 63 L284 61 L284 60 L283 59 L282 59 L279 56 L279 48 L278 47 L278 45 L274 41 L274 40 L273 39 L272 39 L271 38 L269 38 L268 37 L267 37 L266 36 L257 36 L255 34 L249 34 L248 35 L247 35 L246 36 L245 36 L244 37 L243 36 L243 34 L242 33 L242 31 L241 30 L241 29 L240 29 L239 28 L238 28 L237 27 L235 27 L234 26 L231 26 L230 25 L230 21 L231 20 L231 19 L230 18 L230 16 L229 15 L229 14 L227 12 L226 12 L225 11 L222 11 L221 10 Z " fill="black"/></svg>