<svg width="812" height="1122" xmlns="http://www.w3.org/2000/svg"><path d="M766 1096 Z M753 1079 Z M758 1075 Z M754 1075 L754 1076 L756 1076 L756 1075 Z M101 1060 L100 1061 L99 1061 L98 1062 L97 1062 L96 1063 L95 1063 L93 1065 L92 1065 L91 1066 L90 1066 L89 1065 L88 1065 L87 1064 L86 1064 L85 1063 L82 1063 L81 1062 L78 1062 L77 1063 L76 1063 L75 1064 L74 1064 L69 1069 L69 1070 L65 1074 L62 1074 L61 1075 L59 1075 L58 1076 L56 1076 L55 1077 L54 1077 L48 1083 L48 1084 L47 1085 L47 1108 L48 1109 L48 1111 L51 1114 L52 1114 L53 1115 L54 1115 L55 1116 L56 1116 L57 1117 L59 1117 L60 1118 L61 1117 L66 1117 L68 1115 L69 1115 L70 1114 L72 1114 L73 1113 L74 1113 L75 1114 L75 1117 L74 1118 L74 1120 L73 1121 L121 1121 L122 1120 L123 1120 L125 1118 L126 1118 L130 1114 L130 1113 L131 1112 L131 1110 L132 1109 L132 1103 L131 1102 L131 1101 L130 1100 L130 1099 L132 1097 L133 1097 L134 1096 L134 1092 L132 1090 L132 1089 L131 1088 L131 1086 L130 1085 L130 1082 L129 1081 L129 1080 L128 1079 L128 1078 L126 1076 L125 1076 L124 1075 L123 1075 L121 1073 L120 1073 L119 1072 L119 1070 L118 1069 L118 1068 L114 1064 L113 1064 L112 1063 L111 1063 L110 1062 L108 1062 L107 1061 L105 1061 L104 1060 Z M762 1046 L762 1047 L763 1047 L764 1048 L776 1048 L777 1047 L780 1047 L777 1047 L776 1046 Z M761 1041 Z M756 1039 L757 1040 L757 1039 Z M765 1027 L767 1029 L767 1030 L771 1034 L773 1034 L772 1033 L772 1032 L767 1027 Z M757 1025 L758 1025 Z M777 993 L776 994 L775 994 L773 996 L772 996 L771 997 L770 997 L768 999 L767 999 L765 1001 L764 1001 L762 1003 L761 1003 L759 1005 L758 1005 L747 1016 L746 1016 L741 1021 L741 1022 L737 1026 L737 1027 L734 1030 L734 1031 L728 1037 L726 1037 L725 1038 L725 1039 L724 1040 L724 1044 L723 1045 L723 1047 L722 1048 L722 1050 L721 1051 L721 1059 L722 1060 L722 1062 L724 1064 L724 1066 L725 1067 L725 1073 L726 1074 L726 1076 L727 1077 L727 1078 L728 1079 L728 1080 L731 1083 L731 1084 L735 1088 L735 1089 L737 1091 L737 1092 L739 1094 L739 1095 L740 1096 L740 1097 L742 1099 L742 1100 L746 1104 L747 1104 L748 1105 L750 1105 L752 1107 L753 1107 L757 1111 L757 1121 L762 1121 L762 1119 L763 1118 L765 1118 L767 1120 L767 1121 L773 1121 L774 1120 L775 1120 L776 1119 L777 1119 L778 1118 L779 1119 L781 1119 L782 1118 L785 1121 L795 1121 L796 1120 L797 1120 L798 1119 L799 1119 L800 1120 L799 1121 L811 1121 L811 1053 L809 1055 L808 1054 L807 1054 L806 1053 L804 1053 L803 1052 L802 1052 L801 1051 L801 1049 L800 1048 L799 1048 L798 1047 L790 1047 L791 1048 L791 1050 L790 1051 L789 1051 L788 1052 L785 1052 L784 1053 L782 1053 L781 1052 L780 1052 L779 1053 L772 1053 L771 1054 L750 1054 L749 1053 L740 1053 L739 1052 L735 1052 L737 1054 L737 1056 L739 1056 L740 1055 L741 1055 L742 1056 L758 1056 L759 1057 L779 1057 L780 1056 L785 1056 L786 1055 L792 1055 L793 1056 L798 1056 L799 1057 L802 1057 L803 1058 L798 1063 L797 1063 L796 1064 L793 1064 L792 1065 L789 1065 L788 1066 L778 1066 L777 1067 L775 1067 L774 1068 L769 1068 L769 1070 L770 1071 L770 1074 L772 1072 L777 1072 L778 1071 L780 1071 L781 1072 L779 1074 L778 1074 L777 1075 L776 1075 L775 1076 L777 1076 L778 1077 L778 1079 L777 1080 L777 1081 L776 1082 L776 1083 L775 1084 L775 1085 L774 1086 L774 1087 L772 1089 L772 1090 L769 1093 L769 1094 L770 1094 L772 1092 L771 1091 L773 1089 L774 1089 L774 1088 L777 1085 L777 1084 L779 1082 L779 1081 L781 1079 L781 1078 L787 1072 L788 1072 L789 1071 L791 1071 L792 1070 L793 1070 L794 1071 L794 1072 L793 1073 L793 1075 L792 1076 L792 1078 L791 1079 L791 1081 L790 1082 L791 1083 L791 1087 L788 1090 L788 1091 L787 1092 L787 1094 L786 1095 L786 1096 L783 1099 L783 1100 L781 1102 L781 1103 L777 1107 L777 1110 L778 1110 L780 1108 L780 1107 L781 1106 L782 1106 L785 1103 L785 1101 L786 1100 L786 1099 L787 1098 L786 1097 L787 1096 L787 1095 L789 1093 L790 1093 L790 1092 L791 1091 L792 1091 L793 1092 L793 1094 L794 1093 L795 1094 L795 1096 L793 1098 L793 1099 L792 1100 L792 1102 L791 1103 L791 1104 L790 1105 L790 1107 L789 1108 L789 1109 L785 1113 L784 1113 L783 1114 L769 1114 L768 1113 L766 1113 L764 1111 L763 1111 L762 1110 L762 1109 L761 1109 L760 1108 L759 1108 L757 1106 L756 1106 L754 1104 L753 1104 L752 1103 L751 1103 L747 1099 L747 1098 L741 1092 L741 1091 L739 1089 L739 1088 L737 1086 L737 1085 L736 1084 L736 1083 L735 1082 L735 1081 L732 1078 L732 1077 L731 1076 L731 1074 L730 1073 L730 1071 L729 1070 L729 1067 L728 1066 L728 1063 L727 1062 L727 1060 L726 1059 L726 1057 L725 1056 L725 1048 L726 1047 L726 1046 L730 1042 L730 1041 L732 1039 L732 1038 L735 1035 L735 1034 L738 1031 L738 1030 L741 1027 L742 1028 L742 1031 L743 1032 L743 1033 L744 1033 L747 1036 L748 1036 L749 1037 L751 1037 L752 1038 L753 1038 L751 1036 L750 1036 L748 1034 L748 1032 L747 1031 L747 1030 L745 1028 L745 1024 L749 1020 L749 1019 L756 1012 L757 1012 L763 1006 L764 1006 L765 1005 L766 1005 L767 1004 L769 1004 L771 1002 L772 1002 L773 1001 L774 1001 L776 999 L777 999 L778 998 L779 998 L780 997 L785 997 L786 996 L790 996 L787 993 Z M811 991 L810 992 L810 998 L811 999 Z M811 962 L808 965 L808 966 L807 967 L807 968 L805 970 L805 971 L803 973 L803 974 L802 975 L802 976 L801 977 L801 978 L800 979 L800 981 L799 982 L799 984 L798 985 L798 986 L797 987 L797 988 L796 989 L796 990 L795 991 L795 992 L794 993 L794 994 L792 996 L792 998 L798 1004 L799 1004 L800 1005 L800 1006 L801 1006 L804 1009 L804 1010 L806 1012 L806 1014 L807 1015 L807 1032 L806 1033 L806 1037 L805 1038 L805 1039 L804 1040 L798 1034 L798 1031 L794 1027 L793 1027 L789 1023 L788 1023 L782 1017 L782 1016 L781 1015 L781 1014 L784 1011 L785 1011 L786 1010 L786 1008 L785 1008 L784 1007 L782 1007 L781 1008 L783 1010 L782 1011 L781 1011 L778 1008 L777 1008 L774 1005 L773 1005 L773 1006 L774 1007 L774 1008 L775 1009 L775 1010 L778 1013 L778 1014 L777 1015 L776 1015 L775 1014 L774 1014 L772 1012 L771 1012 L770 1011 L769 1011 L768 1010 L767 1010 L768 1011 L768 1014 L769 1015 L768 1016 L765 1016 L766 1017 L766 1018 L770 1014 L773 1017 L773 1018 L776 1021 L777 1021 L778 1022 L777 1023 L778 1023 L779 1024 L779 1025 L781 1025 L784 1028 L786 1028 L788 1030 L789 1030 L790 1031 L790 1032 L793 1035 L793 1037 L795 1039 L796 1039 L797 1040 L798 1040 L800 1042 L802 1042 L805 1045 L806 1045 L807 1046 L808 1046 L811 1049 L811 1002 L810 1002 L809 1003 L808 1003 L807 1004 L806 1004 L805 1003 L804 1003 L803 1002 L802 1002 L801 1001 L800 1001 L799 1000 L798 1000 L797 999 L797 998 L798 997 L798 996 L799 995 L799 993 L800 992 L800 991 L801 990 L801 988 L802 987 L802 986 L803 985 L803 984 L804 983 L804 982 L805 981 L805 980 L806 979 L806 978 L807 977 L807 976 L808 975 L808 974 L809 973 L809 972 L810 971 L810 969 L811 968 Z M168 962 L167 963 L164 963 L163 964 L161 964 L160 965 L159 965 L158 966 L157 966 L156 967 L155 967 L152 970 L152 971 L151 972 L151 973 L150 974 L150 981 L151 982 L151 986 L149 988 L149 989 L147 991 L147 992 L146 993 L146 995 L144 997 L143 996 L143 995 L142 994 L141 994 L140 993 L136 993 L135 992 L134 992 L133 993 L130 993 L129 994 L128 994 L126 996 L126 997 L125 998 L125 1000 L124 1001 L124 1007 L125 1008 L125 1010 L121 1014 L121 1015 L120 1016 L120 1018 L122 1020 L122 1021 L123 1021 L127 1025 L127 1026 L134 1033 L135 1033 L136 1034 L139 1034 L140 1035 L142 1035 L143 1034 L145 1034 L146 1033 L148 1033 L150 1031 L152 1031 L153 1032 L155 1032 L156 1033 L157 1033 L158 1034 L159 1034 L162 1037 L162 1038 L164 1040 L164 1042 L165 1043 L165 1044 L166 1045 L166 1047 L167 1048 L167 1050 L168 1051 L168 1052 L169 1053 L169 1054 L170 1055 L169 1056 L159 1056 L158 1057 L155 1057 L154 1058 L152 1058 L150 1060 L150 1062 L149 1063 L150 1064 L150 1066 L151 1067 L151 1068 L152 1069 L153 1069 L155 1071 L156 1071 L157 1072 L160 1072 L161 1073 L161 1075 L160 1076 L160 1078 L159 1079 L159 1081 L158 1082 L158 1084 L157 1085 L157 1087 L156 1088 L156 1089 L155 1090 L155 1092 L154 1093 L154 1095 L153 1096 L153 1097 L152 1098 L152 1100 L151 1101 L151 1102 L150 1103 L150 1104 L149 1105 L149 1106 L148 1107 L148 1109 L147 1110 L147 1112 L146 1113 L146 1114 L145 1115 L145 1116 L144 1117 L144 1118 L143 1119 L143 1120 L142 1121 L154 1121 L154 1120 L155 1119 L155 1118 L156 1117 L156 1116 L157 1115 L157 1114 L158 1113 L158 1111 L159 1110 L159 1109 L160 1108 L160 1107 L161 1106 L161 1104 L162 1103 L162 1101 L163 1100 L163 1099 L164 1098 L164 1096 L165 1095 L165 1094 L166 1093 L166 1091 L167 1090 L167 1089 L168 1088 L168 1087 L170 1085 L170 1083 L171 1082 L171 1081 L173 1079 L174 1080 L174 1085 L175 1086 L175 1091 L176 1092 L176 1096 L177 1097 L177 1098 L179 1100 L180 1100 L181 1101 L182 1100 L183 1100 L184 1099 L185 1099 L186 1098 L186 1097 L188 1095 L188 1094 L190 1092 L190 1089 L189 1088 L189 1079 L188 1078 L188 1076 L189 1075 L192 1078 L192 1079 L193 1080 L193 1081 L194 1082 L194 1084 L195 1085 L195 1088 L196 1089 L196 1091 L197 1092 L197 1094 L198 1095 L198 1096 L200 1098 L200 1099 L203 1102 L204 1102 L205 1103 L212 1103 L214 1101 L214 1094 L213 1093 L213 1092 L212 1091 L212 1089 L213 1088 L220 1088 L220 1087 L221 1086 L221 1083 L220 1082 L220 1080 L219 1079 L219 1078 L218 1077 L218 1076 L213 1071 L212 1071 L210 1069 L208 1069 L207 1068 L206 1068 L205 1067 L202 1067 L201 1066 L200 1066 L199 1065 L195 1065 L194 1064 L191 1064 L190 1063 L189 1063 L188 1062 L190 1060 L191 1060 L192 1059 L194 1059 L195 1058 L196 1058 L197 1057 L198 1057 L199 1056 L200 1056 L206 1050 L210 1050 L211 1051 L213 1051 L214 1052 L215 1052 L216 1053 L217 1053 L218 1054 L223 1054 L228 1059 L228 1060 L232 1064 L232 1065 L235 1068 L236 1068 L237 1069 L239 1069 L240 1070 L246 1070 L247 1069 L248 1069 L249 1068 L250 1068 L252 1066 L253 1066 L255 1064 L256 1064 L259 1061 L259 1060 L260 1059 L260 1057 L261 1056 L261 1048 L260 1047 L260 1045 L259 1044 L259 1043 L258 1042 L258 1041 L257 1040 L258 1039 L258 1038 L263 1033 L263 1032 L265 1030 L265 1028 L266 1027 L266 1024 L267 1023 L266 1022 L266 1019 L265 1018 L265 1016 L264 1015 L264 1014 L263 1013 L263 1012 L258 1007 L257 1007 L255 1005 L253 1005 L252 1004 L251 1004 L250 1003 L249 1003 L248 1004 L247 1004 L246 1003 L246 996 L245 995 L245 991 L244 990 L244 989 L238 983 L237 983 L233 979 L232 979 L231 978 L225 978 L224 979 L223 979 L221 981 L220 981 L216 985 L215 985 L214 986 L213 986 L212 987 L210 985 L210 984 L209 983 L210 982 L208 980 L208 978 L205 975 L207 973 L207 972 L208 971 L210 973 L210 974 L212 976 L212 977 L213 978 L213 980 L214 981 L214 982 L216 982 L216 981 L217 980 L216 979 L216 977 L215 976 L215 975 L214 974 L214 973 L208 967 L207 967 L206 966 L205 966 L204 965 L197 965 L196 966 L194 966 L191 969 L191 970 L190 971 L189 971 L183 965 L183 964 L182 964 L181 963 L180 963 L179 962 Z M15 908 L15 909 L16 908 Z M0 895 L0 1045 L1 1046 L0 1047 L0 1050 L3 1050 L4 1049 L10 1049 L11 1050 L11 1056 L12 1057 L12 1065 L13 1066 L13 1072 L14 1073 L14 1078 L15 1079 L15 1084 L16 1085 L16 1090 L15 1091 L12 1091 L11 1090 L10 1090 L9 1089 L7 1089 L5 1087 L3 1087 L2 1086 L0 1086 L0 1121 L16 1121 L17 1120 L17 1119 L19 1117 L19 1115 L20 1114 L20 1112 L21 1111 L21 1109 L23 1107 L22 1106 L22 1104 L23 1103 L24 1103 L25 1104 L25 1105 L26 1106 L26 1112 L25 1113 L25 1116 L24 1117 L24 1118 L23 1119 L23 1120 L22 1121 L35 1121 L35 1118 L34 1117 L34 1114 L33 1113 L33 1107 L32 1106 L32 1101 L31 1100 L31 1096 L30 1095 L30 1088 L29 1087 L29 1082 L28 1081 L28 1073 L27 1072 L27 1068 L26 1067 L26 1064 L25 1063 L25 1058 L24 1057 L24 1054 L23 1053 L23 1047 L22 1046 L22 1043 L21 1042 L21 1041 L22 1040 L23 1040 L24 1039 L27 1039 L28 1038 L29 1038 L31 1036 L32 1036 L39 1029 L39 1028 L42 1025 L42 1024 L43 1023 L44 1024 L46 1024 L47 1025 L50 1025 L51 1024 L54 1024 L55 1023 L56 1023 L57 1022 L58 1022 L61 1019 L61 1018 L63 1016 L63 1015 L65 1013 L65 1012 L66 1011 L67 1011 L68 1012 L68 1014 L69 1015 L69 1017 L70 1018 L70 1020 L73 1023 L74 1023 L75 1024 L78 1024 L79 1025 L85 1025 L86 1024 L88 1024 L89 1023 L90 1023 L97 1016 L97 1015 L98 1014 L98 1013 L99 1012 L99 1010 L100 1009 L100 1007 L99 1006 L99 1005 L97 1003 L96 1003 L94 1001 L95 1000 L96 1000 L97 999 L98 999 L99 998 L100 998 L101 997 L102 997 L105 994 L105 993 L106 992 L106 991 L107 990 L107 988 L108 987 L108 982 L107 981 L107 975 L106 974 L106 972 L105 971 L105 970 L104 969 L104 968 L103 967 L103 966 L100 963 L99 963 L98 962 L98 960 L99 959 L99 957 L100 956 L100 950 L99 949 L99 946 L88 935 L86 935 L85 934 L84 935 L82 935 L81 936 L80 936 L79 937 L78 937 L76 935 L76 934 L75 933 L75 931 L74 930 L74 929 L73 928 L73 926 L72 925 L72 922 L71 921 L71 920 L69 918 L69 917 L68 916 L67 916 L66 915 L65 915 L64 914 L63 914 L62 913 L56 913 L55 914 L52 914 L51 915 L49 913 L49 911 L48 910 L48 908 L47 907 L47 905 L45 903 L45 902 L43 900 L42 900 L41 899 L37 899 L36 898 L27 898 L26 899 L25 899 L24 900 L24 901 L23 902 L23 906 L22 907 L22 911 L21 912 L22 913 L22 914 L21 915 L17 915 L16 914 L12 914 L11 913 L11 905 L10 904 L10 903 L7 900 L7 899 L6 899 L3 896 L1 896 Z M527 10 L526 11 L524 11 L523 12 L519 12 L518 13 L514 13 L513 14 L503 14 L502 15 L501 15 L500 14 L499 14 L498 15 L497 14 L496 14 L495 15 L491 15 L490 16 L488 16 L487 17 L485 17 L484 18 L483 18 L482 19 L480 19 L479 20 L477 20 L476 21 L474 21 L473 22 L472 22 L471 23 L470 23 L469 24 L468 24 L467 25 L466 25 L465 26 L464 26 L463 27 L462 27 L461 28 L460 28 L459 29 L458 29 L457 30 L456 30 L454 32 L453 32 L452 33 L451 33 L448 36 L447 36 L437 46 L437 47 L435 49 L435 50 L434 51 L434 52 L433 53 L433 54 L432 55 L432 56 L431 57 L431 58 L429 60 L429 61 L426 64 L426 65 L424 67 L424 68 L421 71 L421 72 L419 74 L418 74 L416 76 L415 76 L411 80 L411 81 L409 83 L409 84 L408 85 L408 86 L407 87 L407 88 L406 89 L406 90 L404 92 L404 93 L402 95 L402 96 L398 100 L398 101 L397 102 L397 103 L396 104 L396 106 L395 107 L395 109 L394 110 L394 112 L393 113 L392 113 L389 110 L388 110 L384 106 L383 106 L381 104 L380 104 L379 103 L378 103 L376 101 L375 101 L373 99 L372 99 L371 98 L370 98 L369 97 L368 97 L367 96 L366 96 L365 95 L364 95 L363 94 L362 94 L361 93 L360 93 L358 91 L355 91 L354 90 L353 91 L348 91 L347 90 L341 90 L340 89 L338 89 L337 88 L335 88 L334 87 L333 87 L332 86 L331 86 L330 85 L329 85 L327 83 L325 83 L323 81 L321 81 L320 80 L319 80 L317 78 L316 78 L315 77 L314 77 L313 76 L312 76 L311 75 L310 75 L309 74 L306 74 L305 73 L303 73 L302 72 L299 72 L298 71 L293 71 L292 70 L281 70 L280 71 L278 71 L277 72 L275 72 L274 73 L272 73 L271 74 L269 74 L268 75 L267 75 L266 76 L264 76 L263 77 L262 77 L261 78 L260 78 L259 79 L258 79 L256 81 L255 81 L252 84 L251 84 L239 96 L238 96 L236 98 L235 98 L233 100 L232 100 L230 102 L229 102 L228 103 L227 103 L225 105 L223 105 L222 106 L205 106 L204 107 L202 107 L201 108 L200 108 L190 118 L190 120 L189 121 L189 122 L188 123 L188 128 L187 129 L187 140 L188 141 L188 146 L189 147 L189 154 L190 155 L190 158 L191 159 L191 162 L192 163 L192 166 L193 167 L193 170 L194 171 L194 174 L195 175 L195 179 L196 180 L196 183 L197 184 L197 186 L198 187 L198 190 L199 191 L199 193 L200 194 L200 199 L199 200 L198 200 L197 199 L185 199 L184 200 L181 200 L180 201 L179 201 L178 202 L177 202 L175 204 L174 204 L172 206 L169 206 L168 207 L159 207 L158 206 L138 206 L137 207 L135 207 L134 208 L133 208 L124 217 L124 218 L122 220 L122 221 L120 223 L120 227 L119 228 L119 231 L118 232 L118 236 L117 237 L117 242 L116 243 L116 247 L117 248 L117 251 L118 252 L118 255 L119 256 L119 259 L120 260 L120 262 L121 263 L121 264 L122 265 L122 267 L123 268 L123 271 L124 272 L124 276 L125 277 L125 280 L126 281 L126 284 L127 285 L127 287 L128 288 L128 289 L130 291 L130 292 L134 296 L134 297 L135 298 L135 299 L136 300 L136 301 L139 304 L139 305 L147 313 L148 313 L151 316 L152 316 L154 318 L155 318 L156 319 L157 319 L159 321 L160 321 L161 322 L162 322 L163 323 L164 323 L165 324 L166 324 L167 325 L168 325 L169 326 L171 326 L172 327 L173 327 L174 328 L175 328 L176 329 L177 329 L178 330 L179 330 L180 331 L182 331 L183 332 L184 332 L185 333 L186 333 L187 334 L188 334 L189 335 L191 335 L193 337 L194 337 L196 339 L197 339 L199 341 L200 341 L202 343 L203 343 L204 344 L205 344 L207 346 L208 346 L209 347 L210 347 L212 349 L213 349 L214 350 L215 350 L216 351 L217 351 L218 352 L219 352 L221 354 L222 354 L228 360 L228 361 L240 373 L240 374 L243 377 L243 378 L246 381 L246 382 L251 387 L251 388 L253 390 L253 391 L255 393 L255 394 L259 398 L260 398 L261 399 L262 399 L265 402 L265 403 L266 404 L266 405 L267 406 L267 407 L268 408 L268 409 L270 411 L270 412 L277 419 L277 420 L278 421 L277 422 L276 422 L269 415 L269 414 L258 403 L258 402 L252 396 L251 396 L250 395 L246 395 L244 393 L243 393 L241 391 L240 391 L237 388 L235 388 L233 386 L232 386 L231 385 L230 385 L229 384 L228 384 L226 382 L225 382 L224 381 L223 381 L222 380 L221 380 L220 379 L219 379 L218 378 L216 378 L215 377 L214 377 L213 376 L210 376 L209 375 L206 375 L205 374 L202 374 L201 373 L197 373 L196 372 L190 372 L189 371 L186 371 L185 370 L184 370 L183 369 L181 369 L180 368 L179 368 L178 367 L177 367 L176 366 L175 366 L172 363 L169 363 L168 362 L166 362 L165 361 L163 361 L162 360 L160 360 L159 359 L141 359 L140 360 L139 360 L138 361 L133 361 L132 362 L126 362 L125 363 L124 363 L121 366 L121 367 L120 368 L117 368 L116 367 L115 368 L114 368 L113 369 L111 369 L110 370 L109 370 L108 371 L105 371 L104 372 L101 372 L100 373 L99 373 L98 374 L87 374 L86 373 L81 373 L80 374 L77 374 L76 375 L75 375 L74 376 L73 376 L72 377 L71 377 L70 378 L69 378 L68 379 L67 379 L66 380 L65 380 L64 381 L63 381 L62 382 L61 382 L60 383 L58 383 L57 384 L56 384 L51 389 L50 389 L43 396 L43 397 L37 403 L37 404 L34 407 L34 408 L32 410 L32 411 L31 412 L31 413 L30 414 L30 415 L29 416 L29 418 L28 419 L28 424 L27 425 L27 434 L26 435 L26 439 L25 440 L25 443 L24 444 L24 447 L23 448 L23 451 L22 452 L22 453 L21 454 L21 455 L20 456 L20 457 L14 463 L14 464 L12 466 L12 468 L11 469 L11 470 L10 471 L10 472 L11 473 L11 477 L13 479 L14 479 L15 480 L16 480 L18 482 L19 482 L21 484 L22 484 L25 487 L26 487 L27 488 L28 488 L30 490 L31 490 L32 491 L33 491 L34 492 L35 492 L36 493 L37 493 L39 495 L40 495 L41 496 L42 496 L43 497 L45 497 L46 498 L49 498 L50 499 L53 499 L54 500 L57 500 L58 501 L61 501 L62 502 L64 502 L65 503 L67 503 L68 504 L69 504 L70 505 L71 505 L72 506 L74 506 L75 507 L76 507 L77 508 L79 508 L80 509 L83 509 L84 510 L87 510 L88 511 L90 511 L97 518 L97 519 L100 522 L100 523 L102 525 L102 526 L105 529 L105 530 L107 532 L107 533 L109 535 L109 536 L111 538 L111 539 L117 545 L117 546 L119 548 L120 548 L126 554 L127 554 L137 564 L138 564 L141 567 L142 567 L144 569 L146 569 L147 570 L148 570 L149 571 L150 571 L151 572 L152 572 L153 573 L154 573 L155 574 L156 574 L157 575 L158 575 L160 577 L161 577 L162 578 L163 578 L164 579 L165 579 L166 580 L167 580 L168 581 L170 581 L171 582 L173 582 L174 583 L175 583 L176 584 L178 584 L179 585 L181 585 L182 586 L185 586 L186 587 L191 587 L192 588 L197 588 L198 589 L223 589 L224 588 L231 588 L232 587 L242 587 L243 586 L267 586 L268 587 L273 587 L274 588 L276 588 L277 589 L278 589 L279 590 L281 590 L282 591 L283 591 L284 592 L285 592 L286 593 L287 593 L288 594 L289 594 L290 595 L291 595 L293 597 L294 597 L296 599 L297 599 L301 603 L302 603 L305 606 L306 606 L309 609 L310 609 L312 611 L313 611 L315 613 L316 613 L317 614 L318 614 L319 615 L320 615 L321 616 L323 616 L324 617 L326 617 L327 618 L329 618 L330 619 L334 619 L335 620 L336 620 L337 621 L340 621 L341 622 L344 622 L345 623 L357 623 L358 624 L374 624 L375 623 L385 623 L401 639 L401 640 L404 643 L404 644 L409 649 L409 650 L411 652 L411 653 L412 654 L412 655 L413 656 L413 659 L414 660 L414 666 L415 667 L415 672 L414 673 L413 673 L412 672 L411 673 L410 672 L399 672 L398 671 L394 671 L393 670 L392 670 L384 662 L384 661 L383 661 L380 658 L379 658 L378 657 L377 657 L375 655 L374 655 L373 654 L372 654 L371 653 L369 653 L368 652 L365 652 L364 651 L360 651 L359 650 L356 650 L355 649 L352 649 L351 648 L344 648 L343 649 L342 648 L341 648 L340 649 L334 649 L333 650 L321 650 L320 651 L319 651 L318 652 L317 652 L316 653 L312 653 L311 654 L305 654 L304 655 L301 655 L300 656 L297 656 L296 657 L278 657 L277 656 L259 656 L258 655 L255 655 L254 654 L251 654 L250 653 L246 653 L245 652 L236 652 L235 651 L234 652 L233 652 L232 651 L228 651 L227 652 L223 652 L222 653 L218 653 L217 654 L212 654 L211 655 L206 655 L205 654 L202 654 L201 655 L197 655 L196 656 L193 656 L192 657 L190 657 L189 658 L186 658 L185 659 L181 659 L180 660 L178 660 L177 661 L176 661 L175 662 L174 662 L172 664 L171 664 L168 667 L167 667 L164 670 L163 670 L156 677 L155 677 L152 680 L151 680 L150 681 L149 681 L147 683 L146 683 L144 685 L143 685 L141 687 L140 687 L138 689 L137 689 L135 691 L134 691 L132 693 L131 693 L129 695 L128 695 L126 697 L125 697 L123 699 L122 699 L117 704 L117 705 L102 720 L102 721 L101 722 L101 723 L100 724 L100 725 L99 726 L99 727 L97 729 L97 730 L96 731 L96 732 L94 734 L94 737 L93 738 L93 741 L92 742 L92 751 L91 752 L91 765 L90 766 L90 773 L89 774 L89 777 L88 778 L88 783 L87 784 L87 788 L86 789 L86 807 L85 808 L85 815 L86 816 L86 820 L87 821 L87 824 L88 825 L88 826 L89 827 L89 828 L90 829 L90 830 L91 831 L91 832 L93 834 L93 835 L96 838 L96 839 L103 846 L103 847 L108 852 L108 853 L111 856 L111 857 L113 859 L113 860 L115 862 L115 863 L117 865 L117 866 L118 867 L118 868 L120 870 L120 871 L121 872 L121 873 L123 875 L123 876 L124 877 L124 878 L125 879 L126 879 L127 880 L132 880 L133 879 L139 879 L140 878 L142 878 L143 877 L145 877 L146 876 L154 876 L155 875 L177 875 L178 874 L186 874 L187 873 L190 873 L191 872 L193 872 L194 871 L196 871 L197 870 L199 870 L200 869 L202 869 L203 868 L205 868 L206 867 L207 867 L208 866 L209 866 L210 865 L211 865 L212 864 L213 864 L214 863 L215 863 L216 862 L217 862 L219 860 L220 860 L221 859 L222 859 L223 858 L224 858 L226 856 L227 856 L228 855 L229 855 L234 850 L235 850 L236 849 L237 849 L238 848 L241 848 L242 847 L244 847 L245 846 L247 846 L248 845 L250 845 L251 844 L252 844 L253 843 L254 843 L255 842 L256 842 L257 841 L258 841 L259 840 L260 840 L261 839 L263 839 L264 838 L265 838 L266 837 L267 837 L268 836 L269 836 L270 835 L271 835 L272 834 L273 834 L275 832 L276 832 L277 831 L278 831 L279 830 L280 830 L282 828 L283 828 L286 825 L287 825 L294 818 L294 817 L297 814 L297 813 L301 809 L301 808 L304 805 L304 804 L306 802 L306 801 L308 799 L308 798 L309 797 L309 796 L310 795 L310 794 L312 792 L312 791 L313 790 L313 789 L314 788 L314 787 L316 785 L316 784 L318 782 L318 781 L319 780 L319 779 L320 778 L320 777 L323 774 L323 773 L324 772 L324 771 L325 770 L325 769 L326 768 L326 767 L328 765 L328 764 L330 762 L330 761 L332 759 L332 758 L334 756 L334 755 L337 752 L337 751 L343 745 L344 745 L345 744 L346 744 L348 742 L350 742 L352 740 L354 740 L355 739 L357 739 L358 738 L361 738 L362 737 L364 737 L365 736 L367 736 L368 735 L370 735 L371 734 L373 734 L374 733 L375 733 L376 732 L377 732 L379 730 L380 730 L382 728 L383 728 L385 726 L386 726 L388 724 L389 724 L395 718 L396 718 L397 717 L398 717 L399 716 L401 716 L402 715 L403 715 L404 714 L404 713 L405 712 L405 711 L411 705 L412 705 L413 704 L414 705 L414 709 L413 710 L413 725 L414 726 L414 731 L412 733 L411 733 L410 734 L401 734 L400 735 L396 735 L395 736 L394 736 L393 737 L392 737 L388 741 L388 742 L386 744 L386 745 L384 747 L384 748 L383 749 L383 750 L382 751 L382 753 L381 754 L381 756 L380 757 L380 781 L381 782 L381 785 L382 786 L382 791 L383 792 L383 794 L384 795 L384 797 L385 798 L385 799 L386 800 L386 801 L388 803 L388 804 L390 806 L390 807 L395 812 L395 813 L397 815 L397 816 L398 817 L398 818 L399 819 L399 820 L400 821 L400 822 L401 823 L401 824 L402 825 L402 827 L403 828 L403 834 L402 835 L402 843 L401 844 L401 850 L400 851 L400 855 L399 856 L399 868 L398 869 L398 873 L397 874 L397 882 L396 883 L396 892 L395 893 L395 900 L394 901 L394 906 L393 907 L393 910 L392 911 L392 913 L391 914 L391 916 L390 917 L390 918 L389 919 L389 920 L388 921 L388 923 L387 924 L387 927 L386 928 L386 933 L385 934 L385 940 L384 941 L384 947 L383 948 L383 957 L384 958 L384 963 L383 964 L383 966 L382 967 L382 969 L381 970 L381 973 L380 974 L380 979 L379 980 L379 986 L378 987 L378 996 L377 997 L377 1001 L376 1002 L376 1005 L375 1006 L375 1009 L374 1010 L374 1013 L373 1014 L373 1019 L372 1020 L372 1024 L371 1025 L371 1028 L370 1029 L370 1031 L369 1032 L369 1035 L368 1036 L368 1041 L367 1042 L367 1047 L366 1048 L366 1053 L365 1054 L365 1058 L364 1059 L364 1063 L363 1064 L363 1068 L362 1069 L362 1074 L361 1075 L361 1081 L360 1082 L360 1091 L359 1092 L359 1103 L358 1104 L358 1106 L359 1107 L359 1108 L360 1109 L360 1110 L363 1110 L364 1109 L364 1107 L365 1106 L365 1103 L366 1102 L366 1098 L367 1097 L367 1094 L368 1093 L368 1092 L370 1090 L373 1090 L374 1089 L374 1088 L375 1087 L375 1085 L376 1084 L376 1083 L377 1082 L378 1083 L378 1086 L379 1087 L380 1087 L381 1086 L382 1087 L384 1087 L385 1088 L385 1089 L387 1089 L388 1088 L391 1088 L391 1087 L392 1086 L392 1084 L393 1083 L393 1081 L394 1080 L394 1076 L395 1075 L395 1070 L396 1069 L396 1065 L397 1064 L397 1061 L398 1060 L398 1057 L399 1056 L399 1051 L400 1050 L400 1045 L401 1044 L401 1037 L402 1036 L402 1031 L403 1030 L403 1022 L404 1021 L404 1010 L405 1009 L405 1004 L406 1003 L406 993 L407 992 L407 991 L408 990 L408 988 L409 987 L409 986 L410 985 L410 981 L411 980 L411 966 L412 965 L412 953 L413 952 L413 945 L414 944 L414 940 L415 939 L415 936 L416 935 L416 930 L417 929 L417 923 L418 922 L418 913 L419 912 L419 902 L420 901 L420 898 L421 897 L422 897 L423 898 L423 901 L424 902 L424 909 L425 910 L425 911 L432 918 L432 919 L433 920 L433 921 L434 922 L434 923 L441 930 L442 930 L446 934 L447 934 L449 936 L450 936 L452 938 L453 938 L455 940 L456 940 L457 941 L458 941 L459 942 L460 942 L461 943 L462 943 L464 945 L466 945 L467 946 L468 946 L469 947 L470 947 L471 948 L472 948 L475 951 L476 951 L480 955 L481 955 L483 957 L484 957 L488 961 L489 961 L495 967 L495 968 L501 974 L501 975 L505 979 L505 980 L511 986 L512 986 L514 988 L515 988 L517 990 L519 990 L520 991 L521 991 L522 992 L523 992 L524 993 L527 993 L528 994 L530 994 L531 995 L534 995 L535 996 L538 996 L539 997 L542 997 L543 998 L547 998 L548 999 L550 999 L551 1000 L560 1000 L561 1001 L581 1001 L582 1000 L593 1000 L594 999 L604 999 L605 998 L611 998 L612 997 L619 997 L620 996 L625 996 L626 995 L631 995 L632 994 L641 994 L642 995 L644 995 L645 996 L648 996 L649 997 L651 997 L652 998 L654 998 L655 999 L666 999 L667 998 L668 998 L674 992 L674 991 L675 990 L675 988 L676 987 L676 986 L677 985 L677 984 L678 983 L678 981 L679 980 L679 979 L680 978 L680 977 L681 976 L681 975 L683 973 L683 972 L684 971 L684 970 L687 967 L687 966 L696 957 L697 957 L700 954 L701 954 L706 949 L707 949 L712 944 L713 944 L721 936 L721 935 L723 933 L723 932 L724 931 L724 930 L725 929 L725 928 L726 927 L726 926 L727 925 L727 924 L728 923 L728 922 L729 921 L729 920 L730 919 L730 918 L731 917 L731 915 L732 914 L732 910 L733 909 L733 905 L734 904 L734 899 L735 898 L735 875 L734 874 L734 868 L733 867 L733 862 L732 861 L732 858 L731 857 L731 849 L730 848 L730 843 L729 842 L729 837 L728 836 L728 831 L727 830 L727 826 L726 825 L726 823 L725 822 L725 815 L724 814 L724 811 L722 809 L722 808 L720 806 L720 805 L718 803 L718 802 L717 801 L717 800 L715 798 L715 797 L696 778 L695 778 L693 776 L692 776 L690 774 L689 774 L688 773 L687 773 L686 772 L684 772 L683 771 L681 771 L679 769 L678 769 L677 768 L676 768 L675 767 L674 767 L661 754 L660 754 L658 752 L657 752 L656 751 L655 751 L654 750 L653 750 L652 749 L651 749 L649 747 L648 747 L644 743 L643 743 L642 742 L641 742 L640 741 L638 741 L637 740 L634 740 L633 739 L631 739 L630 738 L627 738 L626 737 L621 737 L620 736 L613 736 L612 735 L604 735 L603 734 L602 735 L600 735 L599 734 L587 734 L586 733 L574 733 L573 732 L565 732 L564 731 L563 731 L561 729 L560 729 L559 728 L558 728 L556 726 L555 726 L554 725 L553 725 L551 723 L549 723 L545 719 L544 719 L543 718 L541 718 L540 717 L538 717 L537 716 L535 716 L533 714 L532 714 L530 712 L529 712 L528 711 L526 711 L525 710 L524 710 L523 709 L521 709 L520 708 L519 708 L518 707 L515 707 L514 706 L493 706 L492 707 L488 707 L487 708 L486 708 L486 709 L485 710 L478 710 L477 711 L476 711 L475 712 L474 712 L471 715 L470 715 L462 723 L462 724 L461 725 L461 726 L460 727 L460 729 L459 730 L459 731 L458 732 L458 733 L456 735 L448 735 L447 736 L445 736 L444 737 L440 737 L439 736 L439 733 L438 732 L438 727 L439 726 L439 723 L440 722 L440 719 L441 718 L441 715 L442 714 L442 707 L443 706 L443 701 L444 700 L444 699 L445 698 L445 697 L447 695 L447 694 L448 693 L448 692 L450 690 L450 689 L452 687 L452 686 L453 685 L453 684 L454 683 L454 682 L455 681 L455 680 L456 679 L456 678 L458 676 L458 675 L460 673 L460 672 L461 671 L461 670 L462 669 L462 668 L463 667 L463 666 L465 664 L466 665 L467 665 L468 666 L469 666 L470 667 L471 667 L472 668 L474 668 L475 669 L477 669 L478 670 L480 670 L481 671 L484 671 L485 672 L490 672 L491 673 L513 673 L514 672 L516 672 L517 671 L519 671 L520 670 L521 670 L522 669 L523 669 L524 668 L526 668 L527 667 L529 667 L530 666 L532 666 L533 665 L535 665 L536 664 L538 664 L539 663 L541 663 L542 662 L543 662 L548 657 L548 656 L549 655 L549 654 L553 650 L554 650 L555 649 L557 649 L559 647 L560 647 L561 646 L562 646 L564 644 L565 644 L566 643 L567 643 L569 641 L570 641 L571 640 L572 640 L573 639 L574 639 L575 638 L576 638 L577 637 L578 637 L579 636 L580 636 L581 635 L582 635 L583 634 L584 634 L585 633 L586 633 L587 632 L589 632 L590 631 L592 631 L593 630 L594 630 L596 628 L597 628 L599 626 L602 626 L603 625 L611 625 L612 624 L620 624 L621 623 L627 623 L628 622 L638 622 L639 621 L641 621 L642 622 L643 622 L644 621 L655 621 L656 620 L667 620 L668 619 L675 619 L676 618 L679 618 L680 617 L683 617 L684 616 L687 616 L688 615 L690 615 L691 614 L693 614 L694 613 L695 613 L696 612 L697 612 L698 611 L699 611 L700 610 L701 610 L702 609 L703 609 L705 607 L706 607 L707 606 L708 606 L710 604 L711 604 L712 603 L713 603 L715 601 L716 601 L719 598 L720 598 L729 589 L730 589 L733 586 L733 585 L737 581 L737 580 L746 571 L746 570 L757 559 L758 559 L760 557 L761 557 L763 555 L764 555 L765 554 L766 554 L768 552 L769 552 L770 551 L771 551 L773 549 L774 549 L777 546 L778 546 L780 544 L781 544 L785 540 L786 540 L791 535 L791 534 L793 532 L793 531 L794 530 L794 529 L795 528 L795 526 L796 525 L796 523 L797 522 L797 520 L798 519 L798 514 L799 513 L799 505 L800 504 L800 503 L799 502 L799 492 L798 491 L798 488 L797 487 L797 485 L795 483 L795 482 L791 478 L790 478 L789 477 L788 477 L787 476 L785 476 L784 475 L782 475 L781 474 L780 474 L779 473 L778 473 L777 472 L775 472 L773 470 L772 470 L770 468 L769 468 L767 466 L766 466 L762 462 L762 461 L761 460 L761 459 L759 457 L759 456 L758 455 L758 451 L757 450 L757 448 L756 447 L756 446 L754 444 L754 443 L752 441 L751 441 L747 437 L746 437 L743 434 L742 434 L740 432 L739 432 L738 431 L737 431 L735 429 L734 429 L733 428 L732 428 L731 427 L730 427 L729 426 L728 426 L726 424 L724 424 L723 423 L722 423 L721 422 L719 422 L718 421 L715 421 L714 420 L691 420 L690 421 L685 421 L684 422 L681 422 L680 423 L677 423 L676 424 L675 424 L674 425 L672 425 L671 426 L668 426 L667 427 L657 427 L656 426 L642 426 L641 427 L636 427 L635 428 L630 428 L629 429 L625 429 L624 430 L621 430 L620 431 L618 431 L617 432 L616 432 L615 433 L614 433 L613 434 L612 434 L611 435 L609 435 L608 436 L607 436 L606 437 L604 437 L603 438 L602 438 L601 439 L599 439 L598 440 L597 440 L596 441 L595 441 L594 442 L593 442 L592 443 L591 443 L589 445 L588 445 L586 447 L585 447 L583 449 L582 449 L577 454 L576 454 L573 457 L572 457 L566 463 L566 464 L562 468 L562 469 L558 473 L558 474 L553 479 L553 480 L552 481 L552 482 L551 483 L551 484 L549 486 L549 487 L547 489 L547 490 L544 493 L544 494 L541 497 L541 498 L540 499 L540 500 L539 501 L539 502 L538 503 L538 504 L537 505 L537 506 L536 507 L536 508 L535 509 L535 511 L534 512 L534 513 L532 515 L532 516 L530 518 L530 519 L527 522 L527 523 L525 525 L525 526 L522 529 L522 530 L520 532 L520 533 L518 535 L518 536 L516 538 L516 539 L507 548 L506 548 L495 559 L494 559 L485 568 L484 568 L480 572 L479 572 L477 574 L476 574 L466 584 L466 585 L462 589 L462 590 L460 592 L460 593 L458 595 L458 596 L457 597 L457 598 L456 599 L456 600 L455 601 L455 602 L454 603 L454 604 L453 605 L453 606 L452 607 L452 608 L451 609 L451 611 L450 612 L450 613 L449 614 L449 615 L448 616 L448 617 L447 618 L447 620 L446 621 L446 635 L447 636 L447 637 L448 638 L448 640 L449 641 L449 644 L450 645 L450 647 L451 648 L451 649 L452 650 L452 651 L453 652 L453 653 L455 655 L455 657 L453 659 L453 660 L450 663 L450 664 L445 669 L444 669 L443 668 L443 657 L442 656 L442 634 L443 633 L443 629 L442 628 L442 626 L443 625 L443 624 L442 623 L442 607 L443 606 L443 603 L444 602 L444 601 L445 600 L445 599 L446 598 L446 597 L448 595 L448 594 L449 593 L449 592 L451 590 L451 589 L452 588 L452 587 L453 586 L453 585 L454 584 L454 583 L456 581 L456 580 L458 578 L458 577 L459 576 L459 575 L460 574 L460 573 L461 572 L461 571 L462 570 L462 569 L463 568 L463 567 L464 566 L464 565 L465 564 L465 563 L466 562 L466 561 L467 560 L467 559 L468 558 L468 557 L469 556 L469 555 L470 554 L470 553 L471 552 L471 551 L472 550 L472 549 L473 548 L473 547 L474 546 L474 545 L484 535 L485 535 L489 531 L490 531 L494 527 L495 527 L499 523 L500 523 L502 521 L503 521 L505 519 L506 519 L507 518 L508 518 L510 516 L511 516 L513 514 L514 514 L517 511 L518 511 L522 507 L523 507 L529 501 L530 501 L537 494 L537 493 L540 490 L540 489 L546 483 L546 482 L548 480 L548 479 L550 477 L550 476 L551 475 L551 472 L552 471 L552 470 L553 469 L553 468 L556 465 L556 464 L559 461 L559 460 L561 458 L561 457 L563 455 L563 454 L564 453 L564 452 L565 451 L565 450 L566 449 L566 448 L568 446 L568 445 L570 443 L570 442 L571 441 L571 440 L574 437 L574 436 L577 433 L577 432 L584 425 L585 425 L589 421 L590 421 L594 417 L595 417 L599 413 L600 413 L604 409 L605 409 L609 405 L610 405 L612 403 L613 403 L615 401 L616 401 L618 399 L619 399 L621 397 L622 397 L624 395 L625 395 L627 393 L628 393 L631 390 L632 390 L635 387 L636 387 L638 385 L639 385 L641 383 L642 383 L643 382 L644 382 L645 381 L646 381 L649 378 L650 378 L652 376 L653 376 L655 374 L656 374 L659 371 L660 371 L662 369 L663 369 L666 366 L667 366 L668 365 L669 365 L671 363 L672 363 L673 362 L674 362 L676 360 L677 360 L679 358 L680 358 L682 356 L683 356 L685 354 L686 354 L688 352 L689 352 L690 351 L691 351 L692 350 L693 350 L694 349 L695 349 L696 348 L697 348 L699 346 L700 346 L701 345 L702 345 L705 342 L706 342 L709 339 L710 339 L711 338 L712 338 L714 336 L715 336 L716 335 L717 335 L718 334 L719 334 L720 333 L721 333 L722 332 L723 332 L725 330 L726 330 L727 329 L728 329 L729 328 L730 328 L732 326 L733 326 L734 325 L735 325 L736 324 L737 324 L738 323 L739 323 L740 322 L741 322 L742 321 L743 321 L744 320 L745 320 L746 319 L748 319 L749 318 L750 318 L751 317 L753 317 L754 316 L755 316 L756 315 L757 315 L758 314 L760 314 L761 313 L763 313 L764 312 L765 312 L766 311 L767 311 L768 310 L769 310 L770 309 L772 309 L773 308 L774 308 L775 307 L776 307 L777 306 L778 306 L779 305 L780 305 L781 304 L783 304 L784 303 L786 303 L787 302 L788 302 L789 301 L790 301 L792 299 L792 298 L794 296 L794 295 L795 294 L795 292 L796 291 L796 290 L797 289 L797 285 L798 284 L798 281 L799 280 L799 276 L800 275 L800 258 L799 257 L799 249 L798 248 L798 246 L797 245 L797 244 L794 241 L794 240 L791 237 L790 237 L787 234 L786 234 L784 232 L783 232 L781 230 L780 230 L779 229 L777 229 L776 228 L774 228 L773 227 L767 227 L766 226 L765 226 L764 227 L751 227 L750 228 L748 228 L747 229 L746 229 L745 230 L744 230 L743 231 L742 231 L741 232 L740 232 L739 233 L701 233 L700 234 L696 234 L695 235 L693 235 L692 236 L690 236 L689 237 L687 237 L686 238 L685 238 L684 239 L683 239 L682 240 L680 240 L678 242 L677 242 L676 243 L675 243 L671 247 L670 247 L669 248 L668 248 L666 250 L665 250 L664 251 L663 251 L662 252 L661 252 L660 253 L659 253 L657 255 L656 255 L654 257 L653 257 L649 261 L648 261 L643 266 L642 266 L639 269 L638 269 L636 271 L628 271 L627 270 L627 268 L628 267 L628 266 L630 264 L630 263 L637 256 L637 255 L640 252 L640 251 L643 248 L643 247 L647 243 L647 242 L648 241 L648 240 L650 238 L650 237 L651 236 L651 235 L652 234 L652 233 L653 232 L653 230 L654 229 L654 228 L655 227 L655 226 L657 224 L657 223 L659 221 L659 220 L661 218 L661 217 L664 214 L664 213 L666 211 L666 210 L667 209 L667 208 L669 206 L669 205 L670 204 L670 203 L672 201 L672 200 L673 199 L673 198 L675 196 L675 195 L676 194 L676 193 L677 192 L677 191 L679 189 L679 188 L680 187 L680 186 L682 184 L682 183 L683 182 L683 180 L684 179 L684 177 L685 176 L685 173 L686 172 L686 169 L687 168 L687 166 L688 165 L688 163 L689 162 L689 161 L690 160 L690 157 L691 156 L691 147 L690 146 L690 138 L689 137 L689 133 L688 132 L688 130 L687 129 L687 127 L686 126 L686 123 L685 122 L685 121 L684 120 L684 118 L683 117 L683 85 L682 84 L682 72 L681 71 L681 68 L680 67 L680 66 L679 65 L679 64 L678 63 L678 62 L677 61 L677 60 L676 59 L676 58 L675 57 L675 56 L674 55 L674 54 L671 51 L671 50 L667 46 L667 45 L666 44 L665 44 L661 40 L660 40 L657 37 L656 37 L655 36 L654 36 L653 35 L651 35 L650 34 L646 34 L645 35 L644 34 L642 34 L641 35 L635 35 L634 34 L627 34 L626 35 L624 35 L623 36 L620 36 L619 37 L616 37 L615 38 L610 38 L609 39 L593 39 L592 38 L591 38 L590 37 L588 37 L587 36 L586 36 L584 34 L583 34 L581 32 L580 32 L578 30 L576 30 L574 28 L572 28 L570 26 L569 26 L567 24 L567 23 L563 19 L562 19 L560 17 L558 17 L557 16 L555 16 L554 15 L553 15 L552 14 L550 14 L549 13 L546 13 L545 12 L537 12 L536 11 L531 11 L530 10 Z " fill="black"/></svg>