<svg width="616" height="580" xmlns="http://www.w3.org/2000/svg"><path d="M21 11 L18 14 L17 14 L17 15 L16 16 L16 17 L15 18 L15 19 L14 20 L14 22 L13 23 L13 25 L12 26 L12 34 L11 35 L11 60 L12 61 L12 68 L13 69 L13 73 L14 74 L14 78 L15 79 L15 82 L16 83 L16 86 L17 87 L17 89 L18 90 L18 93 L19 94 L19 96 L20 97 L20 98 L21 99 L21 102 L22 103 L22 104 L23 105 L23 107 L24 108 L24 109 L25 110 L25 112 L26 113 L26 114 L27 115 L27 116 L28 117 L28 118 L29 119 L29 120 L30 121 L30 122 L31 123 L31 125 L32 126 L32 127 L34 129 L34 130 L35 131 L35 132 L36 133 L36 134 L37 135 L37 136 L38 137 L38 138 L40 140 L40 141 L42 143 L42 144 L45 147 L45 148 L48 151 L48 152 L50 154 L50 155 L54 159 L54 160 L59 165 L59 166 L63 170 L63 171 L74 182 L75 182 L79 186 L80 186 L85 191 L86 191 L89 194 L90 194 L93 197 L94 197 L97 200 L98 200 L101 203 L102 203 L103 204 L104 204 L105 205 L106 205 L107 206 L108 206 L110 208 L111 208 L112 209 L113 209 L114 210 L115 210 L116 211 L118 211 L119 212 L120 212 L121 213 L122 213 L123 214 L125 214 L126 215 L127 215 L128 216 L130 216 L131 217 L133 217 L134 218 L136 218 L137 219 L139 219 L140 220 L142 220 L143 221 L146 221 L147 222 L150 222 L151 223 L153 223 L154 224 L157 224 L158 225 L162 225 L163 226 L166 226 L167 227 L170 227 L171 228 L172 228 L173 229 L174 229 L178 233 L178 234 L179 235 L179 236 L180 237 L180 238 L181 239 L181 240 L182 241 L182 242 L183 243 L183 244 L184 245 L184 247 L185 248 L185 251 L186 252 L186 256 L187 257 L187 263 L188 264 L188 266 L189 267 L189 270 L190 271 L190 273 L191 274 L191 275 L192 276 L192 278 L193 279 L193 280 L194 281 L194 283 L195 284 L195 285 L196 286 L196 288 L197 289 L197 290 L198 291 L198 293 L199 294 L199 295 L200 296 L200 298 L201 299 L201 300 L202 301 L202 303 L203 304 L203 306 L204 307 L204 308 L205 309 L205 311 L206 312 L206 313 L207 314 L207 315 L208 316 L208 318 L209 319 L209 321 L210 322 L210 323 L211 324 L211 325 L212 326 L212 327 L213 328 L213 329 L214 330 L214 331 L215 332 L215 334 L216 335 L216 337 L217 338 L217 340 L218 341 L218 343 L219 344 L219 346 L221 348 L221 349 L222 350 L222 351 L227 356 L228 356 L229 357 L230 357 L231 358 L232 358 L233 359 L234 359 L235 360 L238 360 L239 361 L242 361 L243 362 L255 362 L256 363 L263 363 L264 364 L268 364 L269 365 L272 365 L273 366 L276 366 L277 367 L279 367 L280 368 L282 368 L283 369 L284 369 L285 370 L286 370 L287 371 L288 371 L289 372 L290 372 L294 376 L295 376 L298 379 L299 379 L313 393 L313 394 L319 400 L319 401 L323 405 L323 406 L328 411 L328 412 L330 414 L330 415 L334 419 L334 420 L337 423 L337 424 L342 429 L342 430 L352 440 L352 441 L367 456 L368 456 L378 466 L379 466 L384 471 L385 471 L388 474 L389 474 L392 477 L393 477 L397 481 L398 481 L402 485 L403 485 L405 487 L406 487 L408 489 L409 489 L412 492 L413 492 L415 494 L416 494 L420 498 L421 498 L426 503 L427 503 L431 507 L432 507 L447 522 L447 523 L451 527 L451 528 L454 531 L454 532 L455 533 L455 534 L457 536 L457 537 L458 538 L458 540 L459 541 L459 542 L460 543 L460 544 L461 545 L461 546 L462 547 L462 548 L463 549 L463 550 L464 551 L464 552 L466 554 L466 555 L468 557 L468 558 L476 566 L477 566 L478 567 L480 567 L481 568 L485 568 L486 567 L488 567 L489 566 L490 566 L492 564 L493 564 L496 561 L496 560 L497 559 L497 558 L498 557 L498 551 L499 550 L499 549 L498 548 L498 541 L497 540 L497 537 L496 536 L496 534 L495 533 L495 531 L494 530 L494 528 L493 527 L493 525 L492 524 L492 522 L491 521 L491 520 L490 519 L490 517 L489 516 L489 515 L488 514 L488 512 L487 511 L487 510 L486 509 L486 508 L485 507 L485 505 L484 504 L484 503 L482 501 L482 499 L480 497 L480 496 L479 495 L479 494 L477 492 L477 491 L476 490 L476 489 L473 486 L473 485 L469 481 L469 480 L463 474 L463 473 L432 442 L431 442 L395 406 L395 405 L386 396 L386 395 L385 395 L382 392 L382 391 L377 386 L377 385 L373 381 L373 380 L370 377 L370 376 L367 373 L367 372 L364 369 L364 368 L360 364 L360 363 L355 358 L355 357 L352 354 L352 353 L348 349 L348 348 L344 344 L344 343 L336 335 L335 335 L332 332 L331 332 L329 330 L328 330 L326 328 L325 328 L324 327 L323 327 L322 326 L321 326 L320 325 L319 325 L318 324 L317 324 L316 323 L314 323 L313 322 L312 322 L311 321 L309 321 L308 320 L306 320 L305 319 L304 319 L303 318 L301 318 L300 317 L299 317 L298 316 L295 316 L294 315 L291 315 L290 314 L289 314 L288 313 L289 312 L291 312 L292 311 L296 311 L297 310 L298 310 L299 309 L300 309 L302 307 L303 307 L304 306 L305 306 L306 305 L307 305 L308 304 L309 304 L310 303 L311 303 L329 285 L329 284 L333 280 L333 279 L335 277 L335 276 L337 274 L337 273 L338 272 L338 271 L339 270 L339 269 L340 268 L340 267 L342 265 L342 264 L343 263 L343 262 L344 261 L344 260 L345 259 L346 259 L347 260 L347 262 L348 263 L348 264 L349 265 L349 266 L351 268 L351 269 L352 270 L352 271 L353 272 L353 273 L355 275 L355 276 L356 277 L356 278 L358 280 L358 281 L360 283 L360 284 L374 298 L375 298 L378 301 L379 301 L382 304 L383 304 L385 306 L386 306 L388 308 L389 308 L391 310 L392 310 L393 311 L394 311 L396 313 L397 313 L399 315 L400 315 L402 317 L403 317 L405 319 L406 319 L408 321 L409 321 L410 322 L411 322 L413 324 L414 324 L416 326 L417 326 L418 327 L419 327 L421 329 L422 329 L424 331 L425 331 L426 332 L427 332 L428 333 L429 333 L431 335 L432 335 L433 336 L434 336 L436 338 L437 338 L438 339 L439 339 L441 341 L442 341 L443 342 L444 342 L446 344 L447 344 L449 346 L450 346 L452 348 L453 348 L455 350 L456 350 L458 352 L459 352 L461 354 L462 354 L464 356 L465 356 L467 358 L468 358 L470 360 L471 360 L473 362 L474 362 L476 364 L477 364 L479 366 L480 366 L483 369 L484 369 L486 371 L487 371 L490 374 L491 374 L493 376 L494 376 L497 379 L498 379 L502 383 L503 383 L511 391 L512 391 L538 417 L538 418 L542 422 L542 423 L546 427 L546 428 L552 434 L552 435 L562 445 L563 445 L567 449 L568 449 L570 451 L572 451 L573 452 L575 452 L576 453 L580 453 L581 454 L585 454 L586 453 L590 453 L591 452 L594 452 L595 451 L596 451 L599 448 L599 447 L603 443 L603 441 L604 440 L604 427 L603 426 L603 423 L602 422 L602 421 L601 420 L601 419 L600 418 L600 416 L599 415 L599 414 L597 412 L597 411 L596 410 L596 409 L595 408 L595 407 L593 405 L593 404 L591 402 L591 401 L589 399 L589 398 L587 396 L587 395 L585 393 L585 392 L583 390 L583 389 L579 385 L579 384 L576 381 L576 380 L571 375 L571 374 L566 369 L566 368 L540 342 L539 342 L530 333 L529 333 L522 326 L521 326 L518 323 L517 323 L512 318 L511 318 L508 315 L507 315 L504 312 L503 312 L499 308 L498 308 L495 305 L494 305 L492 303 L491 303 L488 300 L487 300 L485 298 L484 298 L482 296 L481 296 L479 294 L478 294 L476 292 L475 292 L473 290 L472 290 L471 289 L470 289 L468 287 L467 287 L466 286 L465 286 L463 284 L462 284 L461 283 L460 283 L458 281 L457 281 L455 279 L454 279 L453 278 L452 278 L451 277 L449 277 L447 275 L446 275 L445 274 L444 274 L443 273 L442 273 L441 272 L440 272 L438 270 L437 270 L436 269 L435 269 L433 267 L432 267 L431 266 L430 266 L427 263 L425 263 L424 262 L423 262 L421 260 L420 260 L417 257 L416 257 L401 242 L401 241 L398 238 L398 237 L397 236 L397 235 L395 233 L395 232 L394 231 L394 229 L393 228 L393 226 L392 225 L392 221 L390 219 L390 215 L389 214 L389 212 L388 211 L388 209 L387 208 L387 206 L386 205 L386 204 L385 203 L385 201 L384 200 L384 198 L383 197 L383 193 L382 192 L382 191 L381 190 L381 189 L378 186 L378 185 L376 183 L375 183 L373 181 L372 181 L371 180 L370 180 L369 179 L367 179 L366 178 L362 178 L361 177 L358 177 L357 176 L355 176 L354 175 L351 175 L350 174 L347 174 L346 173 L344 173 L343 172 L341 172 L340 171 L337 171 L336 170 L335 170 L334 169 L331 169 L330 168 L328 168 L327 167 L325 167 L324 166 L322 166 L321 165 L318 165 L317 164 L315 164 L314 163 L312 163 L311 162 L308 162 L307 161 L304 161 L303 160 L301 160 L300 159 L297 159 L296 158 L294 158 L293 157 L291 157 L290 156 L288 156 L287 155 L285 155 L284 154 L282 154 L281 153 L279 153 L278 152 L276 152 L275 151 L273 151 L272 150 L271 150 L270 149 L268 149 L267 148 L265 148 L264 147 L262 147 L261 146 L259 146 L258 145 L256 145 L255 144 L254 144 L253 143 L251 143 L250 142 L248 142 L247 141 L246 141 L245 140 L243 140 L242 139 L240 139 L239 138 L238 138 L237 137 L235 137 L234 136 L232 136 L231 135 L230 135 L229 134 L227 134 L222 129 L221 129 L216 124 L215 124 L210 119 L209 119 L205 115 L204 115 L202 113 L201 113 L198 110 L197 110 L195 108 L194 108 L193 107 L192 107 L190 105 L189 105 L188 104 L187 104 L186 103 L185 103 L184 102 L183 102 L182 101 L181 101 L180 100 L179 100 L178 99 L177 99 L176 98 L175 98 L174 97 L173 97 L172 96 L171 96 L170 95 L169 95 L168 94 L167 94 L166 93 L165 93 L164 92 L163 92 L162 91 L161 91 L160 90 L158 90 L157 89 L156 89 L155 88 L154 88 L153 87 L151 87 L150 86 L149 86 L148 85 L147 85 L146 84 L145 84 L144 83 L142 83 L141 82 L140 82 L139 81 L138 81 L137 80 L136 80 L135 79 L134 79 L133 78 L132 78 L131 77 L130 77 L129 76 L127 76 L126 75 L125 75 L124 74 L123 74 L122 73 L121 73 L120 72 L119 72 L118 71 L117 71 L116 70 L115 70 L114 69 L113 69 L112 68 L111 68 L110 67 L108 67 L107 66 L106 66 L104 64 L102 64 L101 63 L100 63 L99 62 L98 62 L96 60 L95 60 L94 59 L93 59 L92 58 L91 58 L90 57 L89 57 L88 56 L87 56 L85 54 L84 54 L83 53 L82 53 L81 52 L80 52 L78 50 L77 50 L76 49 L75 49 L73 47 L72 47 L71 46 L70 46 L68 44 L67 44 L65 42 L64 42 L62 40 L61 40 L60 39 L59 39 L57 37 L56 37 L54 35 L53 35 L51 33 L50 33 L48 31 L47 31 L45 29 L44 29 L43 28 L42 28 L40 26 L39 26 L38 25 L37 25 L35 23 L34 23 L32 21 L32 20 L31 19 L31 17 L29 15 L29 14 L27 12 L26 12 L25 11 Z " fill="black"/></svg>