<svg width="239" height="492" xmlns="http://www.w3.org/2000/svg"><path d="M137 11 L137 12 L136 13 L136 15 L131 20 L129 20 L125 16 L124 16 L124 20 L126 22 L126 23 L125 24 L125 26 L124 27 L124 28 L122 30 L117 30 L116 29 L115 29 L114 28 L113 29 L113 31 L114 32 L114 33 L115 34 L115 40 L114 41 L114 45 L113 46 L113 47 L109 51 L106 51 L105 50 L104 50 L103 49 L102 50 L102 52 L103 53 L104 53 L110 59 L110 68 L109 69 L109 70 L107 72 L104 72 L103 71 L102 71 L101 70 L99 70 L99 72 L100 73 L100 75 L103 78 L104 78 L106 80 L106 81 L107 82 L107 90 L106 91 L106 92 L104 94 L101 94 L99 96 L103 100 L103 101 L106 104 L106 105 L105 106 L105 107 L103 109 L100 109 L99 110 L98 110 L98 113 L100 115 L101 115 L103 117 L103 118 L104 119 L104 122 L105 123 L105 129 L103 131 L102 131 L102 132 L100 134 L99 134 L98 135 L96 135 L91 130 L91 128 L89 126 L88 126 L87 125 L86 125 L85 126 L84 126 L84 130 L83 131 L83 132 L81 134 L71 134 L69 132 L68 132 L66 130 L65 130 L63 128 L62 128 L62 132 L63 133 L63 136 L59 140 L59 141 L57 143 L57 144 L53 148 L52 148 L51 147 L49 147 L49 149 L50 150 L50 151 L51 152 L51 159 L50 160 L50 162 L45 167 L41 167 L41 169 L42 170 L42 171 L48 177 L48 182 L47 183 L47 184 L46 185 L46 186 L45 187 L41 187 L40 188 L40 191 L44 195 L45 195 L47 197 L47 198 L48 199 L48 205 L49 206 L48 207 L48 210 L45 213 L44 213 L43 214 L43 215 L44 216 L44 218 L45 219 L45 220 L47 222 L48 222 L52 226 L52 228 L51 229 L51 233 L50 234 L50 235 L47 238 L47 239 L43 243 L43 244 L45 244 L47 246 L48 246 L50 248 L51 248 L53 250 L53 252 L52 253 L52 256 L53 257 L53 260 L51 262 L49 262 L48 263 L47 263 L47 264 L48 264 L49 265 L50 265 L51 266 L52 266 L57 271 L57 277 L56 278 L55 278 L54 277 L53 277 L52 276 L48 276 L48 277 L49 277 L50 278 L52 278 L53 279 L53 280 L52 281 L49 281 L48 282 L46 282 L45 283 L43 283 L42 284 L40 284 L39 285 L36 285 L35 286 L33 286 L32 287 L31 287 L30 288 L28 288 L27 289 L26 289 L25 290 L24 290 L23 291 L21 291 L20 292 L19 292 L15 296 L15 297 L13 299 L13 300 L12 301 L12 302 L11 303 L11 319 L12 320 L12 332 L13 333 L13 337 L14 338 L14 340 L15 341 L15 343 L17 345 L17 346 L18 347 L19 347 L20 348 L21 348 L23 350 L23 351 L24 352 L24 356 L25 357 L25 364 L26 365 L26 370 L27 371 L27 374 L28 375 L28 378 L29 379 L29 381 L30 382 L30 384 L31 385 L31 387 L32 388 L32 389 L33 390 L33 392 L34 393 L34 397 L35 398 L35 401 L36 402 L36 407 L37 408 L37 412 L38 413 L38 417 L39 418 L39 420 L40 421 L40 425 L41 426 L41 429 L42 430 L42 432 L43 433 L43 435 L44 436 L44 439 L45 440 L45 442 L46 443 L46 445 L47 446 L47 449 L48 450 L48 452 L49 453 L49 457 L50 458 L50 461 L51 462 L51 463 L52 464 L52 465 L55 468 L56 468 L58 470 L59 470 L60 471 L62 471 L63 472 L64 472 L65 473 L67 473 L68 474 L71 474 L72 475 L76 475 L77 476 L83 476 L84 477 L88 477 L89 476 L90 476 L92 478 L93 478 L94 479 L108 479 L109 480 L136 480 L137 479 L147 479 L148 478 L150 478 L151 477 L162 477 L163 476 L168 476 L169 475 L173 475 L174 474 L175 474 L177 472 L178 472 L180 470 L182 470 L183 469 L184 469 L187 466 L187 465 L188 464 L188 463 L189 462 L189 461 L190 460 L190 455 L191 454 L191 451 L192 450 L192 448 L193 447 L193 445 L194 444 L194 440 L195 439 L195 435 L196 434 L196 431 L197 430 L197 426 L198 425 L198 421 L199 420 L199 416 L200 415 L200 412 L201 411 L201 408 L202 407 L202 404 L203 403 L203 398 L204 397 L204 393 L205 392 L205 389 L206 388 L206 386 L207 385 L207 381 L208 380 L208 377 L209 376 L209 369 L210 368 L210 365 L211 364 L211 362 L212 361 L212 358 L213 357 L213 354 L214 353 L214 352 L218 348 L219 348 L222 345 L222 344 L223 343 L223 341 L224 340 L224 336 L225 335 L225 327 L226 326 L226 312 L227 311 L227 305 L226 304 L226 303 L225 302 L225 301 L222 298 L222 297 L217 292 L216 292 L215 291 L214 291 L213 290 L212 290 L211 289 L210 289 L209 288 L208 288 L207 287 L205 287 L204 286 L202 286 L201 285 L197 285 L196 284 L192 284 L191 283 L187 283 L186 282 L181 282 L180 281 L170 281 L169 280 L169 279 L171 277 L173 277 L174 276 L173 275 L172 275 L171 274 L170 274 L168 272 L168 266 L169 265 L169 264 L173 260 L175 260 L176 259 L177 259 L177 258 L171 252 L171 251 L172 250 L172 243 L170 241 L170 240 L169 239 L170 238 L170 237 L172 235 L172 234 L173 233 L175 233 L175 229 L176 228 L176 227 L177 226 L177 223 L176 223 L175 222 L173 222 L172 221 L172 220 L171 219 L171 218 L170 217 L170 216 L171 215 L171 214 L172 213 L172 211 L173 210 L173 209 L174 208 L174 207 L175 206 L175 204 L174 203 L174 200 L173 199 L172 199 L171 198 L171 197 L170 196 L170 194 L169 193 L169 190 L170 189 L170 188 L171 187 L171 186 L175 182 L176 182 L176 179 L175 179 L170 174 L170 170 L171 169 L171 168 L172 167 L172 165 L175 162 L175 160 L174 159 L172 159 L170 157 L170 151 L171 150 L171 149 L172 148 L172 146 L175 143 L175 142 L176 141 L176 136 L170 130 L170 129 L171 128 L171 126 L172 125 L172 124 L177 119 L177 118 L180 115 L180 112 L179 111 L179 110 L174 105 L174 99 L175 98 L175 96 L176 95 L176 94 L178 92 L179 92 L181 90 L181 88 L180 87 L180 86 L175 86 L174 85 L174 84 L173 83 L173 81 L174 80 L174 77 L175 76 L175 75 L176 74 L176 73 L178 71 L179 71 L180 70 L180 66 L176 66 L175 67 L174 67 L173 66 L173 65 L172 64 L172 56 L173 55 L173 53 L174 52 L174 51 L175 50 L175 49 L176 48 L176 47 L177 46 L177 45 L176 44 L174 44 L173 45 L170 45 L167 42 L167 36 L168 35 L168 34 L170 32 L170 30 L168 28 L161 28 L160 27 L159 27 L156 24 L156 23 L157 22 L157 20 L158 19 L158 18 L159 17 L159 16 L157 14 L155 14 L152 17 L150 17 L149 18 L144 18 L143 17 L142 17 L140 15 L140 13 L139 12 L139 11 Z " fill="black"/></svg>