<svg width="427" height="570" xmlns="http://www.w3.org/2000/svg"><path d="M155 11 L154 12 L153 12 L152 13 L152 14 L151 15 L151 16 L150 17 L150 20 L149 21 L149 30 L150 31 L150 32 L149 33 L149 35 L150 36 L150 37 L151 38 L151 39 L160 48 L160 49 L162 51 L161 52 L160 52 L159 51 L158 51 L157 50 L155 50 L154 49 L153 49 L152 48 L150 48 L149 47 L147 47 L146 46 L141 46 L140 47 L138 47 L137 48 L136 48 L135 49 L134 49 L134 50 L133 51 L133 55 L134 56 L134 58 L135 59 L135 62 L136 63 L136 64 L137 65 L137 67 L138 68 L138 69 L139 70 L139 71 L141 73 L141 74 L145 78 L145 79 L149 83 L149 84 L151 86 L152 86 L156 90 L157 90 L158 91 L158 92 L157 93 L156 93 L155 92 L153 92 L152 91 L150 91 L149 90 L146 90 L145 89 L144 89 L143 88 L141 88 L140 87 L137 87 L135 89 L135 94 L136 95 L136 96 L137 97 L137 98 L138 99 L138 100 L141 103 L141 104 L145 108 L145 109 L146 110 L146 111 L147 112 L147 113 L153 119 L154 119 L156 121 L157 121 L159 123 L160 123 L162 125 L163 125 L165 127 L166 127 L167 128 L168 128 L171 131 L172 131 L173 132 L174 132 L176 134 L178 134 L179 135 L180 135 L181 136 L182 136 L183 137 L185 137 L187 139 L188 139 L190 141 L190 143 L191 144 L191 147 L190 148 L188 148 L183 143 L182 143 L175 136 L174 136 L172 134 L171 134 L170 133 L169 133 L167 131 L166 131 L165 130 L164 130 L163 129 L162 129 L161 128 L159 128 L158 127 L157 127 L156 126 L155 126 L154 125 L152 125 L151 124 L150 124 L149 123 L145 123 L144 124 L143 124 L140 127 L140 131 L141 132 L142 132 L158 148 L159 148 L162 151 L163 151 L164 152 L165 152 L167 154 L168 154 L169 155 L170 155 L172 157 L173 157 L175 159 L176 159 L177 160 L178 160 L180 162 L182 162 L183 163 L184 163 L185 164 L186 164 L187 165 L189 165 L190 166 L191 166 L192 167 L192 168 L194 170 L194 173 L193 174 L192 174 L189 171 L188 171 L185 168 L184 168 L181 165 L180 165 L178 163 L177 163 L176 162 L175 162 L173 160 L171 160 L170 159 L169 159 L168 158 L167 158 L166 157 L164 157 L163 156 L160 156 L159 155 L151 155 L150 156 L150 160 L151 161 L151 163 L152 164 L152 165 L153 166 L153 168 L154 169 L154 170 L156 172 L156 173 L157 174 L157 175 L160 178 L160 179 L163 182 L164 182 L168 186 L169 186 L172 189 L173 189 L176 192 L177 192 L179 194 L180 194 L181 195 L182 195 L183 196 L185 196 L186 197 L188 197 L189 198 L190 198 L191 199 L193 199 L194 200 L195 200 L198 203 L198 206 L199 207 L199 211 L200 212 L200 218 L199 219 L198 219 L196 217 L196 216 L194 214 L194 213 L191 210 L191 209 L184 202 L183 202 L182 201 L179 201 L178 200 L177 200 L175 198 L168 198 L167 199 L166 199 L165 200 L164 200 L163 201 L163 202 L161 204 L161 205 L158 208 L158 209 L150 217 L149 216 L149 215 L150 214 L150 212 L151 211 L151 210 L152 209 L152 207 L153 206 L153 203 L154 202 L154 198 L155 197 L155 184 L154 183 L154 180 L153 179 L153 175 L152 174 L152 172 L149 169 L147 169 L146 168 L141 168 L140 169 L139 169 L137 171 L137 174 L136 175 L136 177 L135 178 L135 180 L134 181 L134 182 L133 183 L133 185 L132 186 L132 188 L131 189 L131 192 L130 193 L129 193 L127 191 L127 190 L126 189 L126 185 L127 184 L127 183 L128 182 L128 179 L129 178 L129 174 L130 173 L130 161 L129 160 L129 150 L128 149 L128 142 L127 141 L127 139 L126 138 L126 136 L125 135 L125 134 L122 134 L120 136 L119 136 L117 138 L116 138 L115 139 L115 140 L114 141 L113 141 L113 142 L111 144 L111 145 L110 146 L110 147 L109 148 L108 148 L106 146 L106 145 L103 142 L103 139 L102 138 L102 131 L101 130 L101 123 L100 122 L100 121 L99 120 L98 120 L95 117 L91 117 L87 121 L87 122 L86 123 L86 125 L84 127 L84 128 L79 133 L78 132 L78 127 L77 126 L77 121 L76 120 L76 119 L74 117 L73 117 L71 115 L71 114 L65 108 L65 107 L59 101 L58 101 L57 100 L56 100 L55 101 L55 103 L54 104 L54 105 L53 106 L53 108 L52 109 L52 110 L51 111 L51 113 L49 115 L49 116 L48 117 L48 120 L49 121 L49 129 L48 130 L47 129 L46 129 L44 127 L43 127 L42 126 L39 126 L38 125 L35 125 L34 124 L33 124 L32 125 L31 124 L28 124 L27 123 L15 123 L13 125 L12 125 L12 126 L11 127 L11 129 L10 130 L10 131 L11 132 L11 135 L12 136 L12 137 L13 138 L13 139 L19 145 L20 145 L22 147 L24 147 L25 148 L26 148 L27 149 L28 149 L29 150 L31 150 L32 151 L34 151 L35 152 L37 152 L38 153 L42 153 L43 154 L44 154 L45 155 L50 155 L51 156 L55 156 L56 157 L57 157 L60 160 L60 161 L59 162 L59 163 L64 163 L65 164 L67 164 L70 167 L70 168 L71 169 L71 170 L74 173 L74 174 L76 176 L76 177 L84 185 L84 186 L85 187 L85 188 L87 190 L87 191 L93 197 L94 197 L95 198 L96 198 L99 201 L99 202 L100 203 L100 207 L101 208 L101 210 L102 211 L102 212 L103 213 L103 214 L104 215 L104 216 L106 218 L107 218 L109 220 L110 220 L112 222 L112 224 L111 225 L112 226 L112 228 L113 229 L113 231 L118 236 L119 236 L123 240 L123 241 L126 244 L126 245 L129 248 L129 249 L130 250 L130 251 L131 252 L131 253 L132 254 L132 255 L133 256 L133 257 L134 258 L134 259 L135 260 L135 265 L136 266 L136 267 L135 268 L135 269 L133 271 L133 273 L134 274 L134 275 L133 276 L132 276 L131 275 L130 275 L129 274 L126 274 L125 273 L123 273 L122 272 L120 272 L119 271 L118 271 L117 270 L116 270 L115 269 L114 269 L113 268 L110 268 L109 267 L108 268 L107 268 L105 270 L105 273 L106 274 L106 276 L107 277 L107 278 L108 279 L108 281 L110 283 L110 284 L112 286 L111 287 L109 287 L108 286 L107 286 L106 285 L105 285 L104 284 L102 284 L101 283 L98 283 L97 282 L93 282 L92 283 L91 283 L91 286 L101 296 L102 296 L104 298 L105 298 L107 300 L108 300 L109 301 L110 301 L111 302 L112 302 L113 303 L115 303 L116 304 L119 304 L120 305 L123 305 L124 306 L125 306 L126 307 L127 307 L128 308 L127 309 L121 309 L120 310 L115 310 L113 312 L112 312 L112 313 L111 314 L112 315 L112 316 L117 321 L118 321 L122 325 L123 325 L124 326 L125 326 L126 327 L128 327 L129 328 L132 328 L133 329 L134 329 L136 331 L137 331 L139 333 L140 333 L142 335 L143 335 L146 338 L147 338 L151 342 L151 343 L152 344 L152 347 L153 348 L153 352 L154 353 L154 359 L155 360 L155 362 L153 364 L151 364 L150 365 L148 365 L147 366 L145 366 L144 367 L142 367 L141 368 L140 368 L139 369 L137 369 L136 370 L135 370 L134 371 L133 371 L131 373 L130 373 L128 375 L127 375 L125 377 L125 378 L123 380 L123 381 L122 382 L122 394 L121 395 L121 397 L122 398 L122 407 L121 408 L121 472 L122 473 L122 479 L123 480 L123 496 L124 497 L124 501 L125 502 L125 504 L129 508 L130 508 L131 509 L132 509 L135 512 L135 519 L136 520 L136 534 L138 536 L139 536 L143 540 L144 540 L147 543 L148 543 L150 545 L151 545 L153 547 L154 547 L155 548 L156 548 L157 549 L159 549 L160 550 L164 550 L165 551 L168 551 L169 552 L171 552 L172 553 L176 553 L177 554 L180 554 L181 555 L185 555 L186 556 L190 556 L191 557 L198 557 L199 558 L239 558 L240 557 L247 557 L248 556 L252 556 L253 555 L257 555 L258 554 L262 554 L263 553 L267 553 L268 552 L270 552 L271 551 L274 551 L275 550 L277 550 L278 549 L279 549 L280 548 L282 548 L283 547 L284 547 L286 545 L287 545 L288 544 L289 544 L292 541 L292 540 L297 535 L297 534 L298 533 L298 518 L299 517 L299 513 L301 511 L302 511 L310 503 L310 502 L311 501 L311 497 L312 496 L312 453 L313 452 L313 384 L312 383 L312 381 L311 380 L311 379 L309 377 L308 377 L307 376 L306 376 L303 373 L302 373 L301 372 L300 372 L299 371 L298 371 L297 370 L296 370 L295 369 L293 369 L292 368 L289 368 L288 367 L285 367 L284 366 L282 366 L281 365 L279 365 L276 362 L276 361 L277 360 L277 358 L278 357 L278 355 L279 354 L279 353 L280 352 L280 351 L283 348 L283 347 L284 346 L285 346 L286 345 L288 345 L289 344 L291 344 L292 343 L294 343 L295 342 L296 342 L297 341 L299 341 L300 340 L301 340 L302 339 L303 339 L304 338 L305 338 L306 337 L307 337 L309 335 L310 335 L312 333 L313 333 L315 331 L316 331 L318 329 L319 329 L321 327 L321 326 L322 325 L322 323 L323 322 L323 317 L320 314 L306 314 L305 315 L303 315 L302 316 L301 316 L300 317 L299 317 L297 319 L296 319 L294 321 L293 320 L293 317 L294 316 L294 315 L295 314 L295 312 L296 311 L296 310 L297 309 L297 308 L298 307 L298 306 L309 295 L309 294 L312 291 L312 290 L315 287 L315 286 L331 270 L331 269 L337 263 L338 263 L339 262 L341 262 L342 261 L343 261 L344 260 L348 260 L349 259 L352 259 L353 258 L355 258 L356 257 L357 257 L358 256 L359 256 L363 252 L364 252 L370 246 L370 245 L372 243 L372 242 L373 241 L373 240 L374 239 L374 234 L373 233 L369 233 L368 232 L367 232 L366 233 L365 232 L359 232 L357 234 L356 234 L353 237 L352 237 L348 241 L347 241 L346 242 L346 243 L343 246 L342 246 L341 245 L341 236 L340 235 L340 229 L341 228 L341 223 L342 222 L342 220 L340 218 L339 218 L338 217 L337 218 L335 218 L334 217 L334 216 L333 215 L331 215 L330 216 L329 216 L327 218 L327 219 L325 221 L325 222 L323 224 L323 225 L320 228 L320 229 L319 230 L319 231 L318 232 L318 234 L317 235 L317 236 L316 237 L316 244 L315 245 L315 247 L314 248 L313 248 L312 247 L312 246 L311 245 L311 244 L309 242 L309 239 L308 238 L308 236 L307 235 L307 233 L305 231 L305 228 L301 224 L300 224 L299 223 L298 223 L297 222 L293 222 L292 223 L290 223 L289 224 L288 224 L286 226 L285 226 L280 231 L279 230 L279 227 L280 226 L280 225 L281 224 L281 223 L282 222 L282 221 L283 220 L283 219 L285 217 L285 216 L288 213 L288 212 L290 210 L290 209 L291 208 L291 207 L292 206 L292 205 L294 203 L294 202 L297 199 L297 198 L302 193 L302 192 L303 191 L302 190 L301 190 L300 189 L298 189 L297 188 L297 186 L300 183 L300 182 L303 179 L303 178 L305 176 L305 175 L307 173 L307 172 L309 170 L309 169 L310 168 L310 167 L315 162 L315 161 L317 159 L317 158 L318 157 L318 156 L319 155 L319 154 L320 153 L320 152 L321 151 L321 149 L322 148 L322 147 L324 145 L324 144 L326 142 L326 141 L327 140 L327 139 L328 138 L328 136 L329 135 L329 134 L333 130 L334 130 L346 118 L346 117 L351 112 L351 111 L352 110 L353 110 L353 109 L354 108 L355 108 L362 101 L363 101 L363 100 L367 96 L374 96 L375 95 L379 95 L380 96 L382 96 L383 95 L397 95 L398 94 L400 94 L401 93 L403 93 L404 92 L405 92 L407 90 L408 90 L411 87 L412 87 L415 84 L411 80 L408 80 L407 79 L405 79 L404 78 L404 77 L410 71 L410 70 L411 69 L411 68 L412 67 L412 61 L409 58 L403 58 L402 57 L398 57 L397 58 L392 58 L391 59 L389 59 L388 60 L385 60 L384 61 L382 61 L381 62 L380 62 L379 63 L377 63 L376 64 L375 64 L370 69 L369 68 L369 63 L370 62 L370 58 L369 57 L369 56 L368 55 L368 52 L367 51 L367 49 L366 48 L366 45 L365 44 L365 43 L362 40 L357 40 L356 41 L355 41 L345 51 L345 52 L344 53 L344 54 L342 56 L342 58 L340 60 L340 61 L339 62 L339 63 L337 65 L337 67 L336 68 L336 71 L335 72 L335 76 L334 77 L334 83 L333 84 L331 82 L331 81 L330 80 L330 79 L329 78 L329 72 L328 71 L328 68 L327 67 L327 66 L326 65 L326 64 L325 63 L325 62 L321 58 L318 58 L317 59 L316 59 L315 60 L315 61 L314 62 L314 63 L313 64 L313 65 L312 66 L312 67 L311 68 L311 69 L310 70 L310 73 L309 74 L309 76 L308 77 L308 78 L307 79 L307 81 L306 82 L306 83 L305 84 L305 86 L304 87 L304 90 L305 91 L305 94 L306 95 L306 98 L305 99 L304 98 L304 97 L303 96 L303 95 L301 93 L301 92 L300 91 L300 90 L294 84 L293 84 L292 83 L290 83 L289 82 L288 82 L287 81 L285 81 L283 83 L283 85 L281 87 L281 89 L280 90 L280 93 L279 94 L279 102 L280 103 L280 108 L281 109 L281 113 L282 114 L282 118 L283 119 L283 124 L282 125 L280 123 L280 122 L278 120 L278 119 L277 118 L277 113 L276 112 L276 111 L275 110 L272 110 L271 111 L267 111 L266 112 L265 112 L265 113 L263 115 L263 118 L262 119 L262 123 L261 124 L261 137 L262 138 L262 141 L263 142 L263 145 L264 146 L264 148 L265 149 L265 150 L266 151 L266 153 L267 154 L267 155 L268 156 L268 157 L269 158 L269 159 L270 160 L269 161 L268 161 L267 160 L267 159 L265 157 L265 156 L264 155 L264 154 L262 152 L262 151 L256 145 L255 145 L253 143 L253 141 L254 140 L254 138 L255 137 L255 131 L253 129 L249 129 L248 130 L246 130 L245 131 L244 131 L243 132 L242 132 L240 134 L239 134 L236 137 L235 137 L232 140 L231 140 L228 143 L227 143 L224 146 L223 146 L219 150 L218 150 L216 152 L215 152 L205 162 L204 161 L204 157 L205 156 L205 145 L213 137 L214 137 L218 133 L219 133 L225 127 L226 127 L228 125 L228 124 L229 123 L230 123 L232 121 L232 120 L235 117 L235 116 L236 115 L236 114 L237 113 L237 112 L238 111 L238 110 L239 109 L239 107 L240 106 L240 105 L241 104 L241 102 L242 101 L242 100 L243 99 L243 98 L244 97 L244 96 L245 95 L245 93 L246 92 L246 90 L245 89 L243 89 L242 90 L241 90 L237 94 L236 94 L235 95 L234 95 L233 96 L232 96 L231 97 L228 97 L227 98 L225 98 L224 99 L222 99 L221 100 L220 100 L218 102 L217 102 L216 103 L215 103 L204 114 L204 115 L203 116 L203 117 L200 120 L199 119 L199 109 L206 102 L207 102 L209 100 L210 100 L213 97 L213 96 L216 93 L216 92 L217 91 L217 90 L218 89 L218 88 L219 87 L219 86 L221 84 L221 83 L222 82 L222 81 L224 79 L224 78 L226 76 L226 75 L228 73 L228 72 L231 69 L231 68 L233 66 L233 65 L234 64 L234 59 L235 58 L235 57 L234 56 L234 55 L232 53 L228 53 L227 54 L226 54 L222 58 L221 58 L219 60 L217 60 L216 61 L214 61 L213 62 L212 62 L211 63 L210 63 L209 64 L208 64 L207 65 L206 65 L201 70 L201 71 L196 76 L195 75 L195 74 L196 73 L196 72 L203 65 L203 64 L207 60 L207 59 L209 57 L209 56 L212 53 L212 52 L214 50 L214 49 L215 48 L215 47 L216 46 L216 44 L217 43 L217 41 L218 40 L218 39 L219 38 L219 36 L220 35 L220 34 L221 33 L221 26 L220 25 L220 24 L218 22 L216 22 L215 23 L214 23 L213 24 L212 24 L211 25 L210 25 L207 28 L206 28 L206 29 L201 34 L201 35 L191 45 L190 44 L190 42 L189 41 L189 39 L188 38 L188 37 L187 36 L187 35 L185 33 L185 32 L178 25 L177 25 L175 23 L174 23 L173 22 L172 22 L169 19 L168 19 L163 14 L163 13 L162 12 L161 12 L160 11 Z " fill="black"/></svg>