<svg width="387" height="392" xmlns="http://www.w3.org/2000/svg"><path d="M2 323 L1 324 L0 324 L0 391 L8 391 L8 383 L10 381 L12 381 L15 378 L14 377 L14 376 L13 375 L13 374 L12 373 L11 373 L10 372 L10 371 L11 370 L12 370 L13 371 L14 370 L16 370 L19 367 L19 366 L18 365 L15 365 L14 366 L13 366 L12 367 L11 367 L10 366 L11 365 L11 364 L12 363 L12 362 L13 361 L13 360 L14 359 L14 358 L12 356 L11 356 L9 358 L9 359 L8 360 L8 361 L7 362 L6 361 L6 359 L5 358 L5 354 L4 353 L4 348 L3 347 L3 345 L2 344 L2 340 L1 339 L1 335 L0 334 L0 330 L1 329 L2 329 L3 330 L5 330 L5 329 L7 327 L7 326 L6 325 L5 325 L4 324 L3 324 Z M5 313 L3 315 L2 315 L1 316 L0 316 L0 320 L1 320 L6 315 L7 315 L7 313 Z M385 204 L376 213 L376 214 L373 217 L373 218 L371 220 L371 221 L370 222 L370 223 L369 224 L369 225 L368 226 L368 228 L367 229 L367 230 L366 231 L366 233 L365 234 L365 240 L364 241 L364 253 L365 254 L365 261 L366 262 L366 265 L367 266 L367 269 L368 270 L368 272 L369 273 L369 274 L370 275 L370 276 L371 277 L371 278 L373 280 L373 281 L374 281 L377 284 L378 284 L380 286 L380 287 L381 288 L381 289 L382 290 L382 293 L383 294 L383 298 L384 299 L384 301 L385 302 L385 303 L386 304 L386 306 L386 204 Z M83 11 L83 18 L84 19 L84 21 L85 22 L85 26 L86 27 L86 28 L87 29 L87 31 L88 32 L88 35 L89 36 L89 40 L90 41 L90 43 L91 44 L91 45 L92 46 L92 49 L93 50 L93 52 L94 53 L94 57 L95 58 L95 62 L96 63 L96 66 L97 67 L97 70 L98 71 L98 74 L99 75 L99 78 L100 79 L100 84 L101 85 L101 90 L102 91 L102 98 L103 99 L103 106 L104 107 L104 117 L105 118 L105 130 L106 131 L106 138 L107 139 L107 141 L108 142 L108 153 L109 154 L109 163 L110 164 L110 168 L111 169 L111 174 L112 175 L112 185 L113 186 L113 191 L114 192 L114 197 L115 198 L115 207 L116 208 L116 213 L115 214 L114 213 L114 212 L113 211 L113 210 L112 209 L112 208 L111 207 L111 206 L110 205 L110 203 L109 202 L109 201 L108 200 L108 199 L107 198 L107 197 L105 195 L105 194 L104 193 L104 192 L103 191 L103 190 L102 189 L102 188 L101 187 L101 186 L99 184 L99 183 L98 182 L98 181 L97 180 L97 179 L95 177 L95 176 L94 175 L94 174 L92 172 L92 170 L90 168 L90 167 L88 165 L88 164 L87 163 L87 158 L84 155 L84 154 L81 151 L81 150 L78 147 L78 146 L76 144 L76 143 L74 141 L74 140 L69 135 L69 134 L66 131 L66 130 L50 114 L49 114 L45 110 L44 110 L40 106 L39 106 L38 105 L37 105 L36 104 L35 104 L34 103 L33 103 L32 102 L31 102 L30 101 L25 101 L26 102 L26 103 L27 104 L27 105 L28 105 L31 108 L31 109 L34 112 L34 113 L35 114 L35 115 L36 116 L36 117 L44 125 L44 126 L46 128 L46 130 L47 131 L47 134 L48 135 L48 136 L49 137 L49 138 L54 143 L54 144 L55 145 L55 146 L56 147 L56 150 L57 151 L57 152 L58 153 L58 155 L59 156 L59 158 L60 159 L60 160 L62 162 L62 163 L63 164 L63 166 L64 167 L64 168 L65 169 L65 170 L66 171 L66 172 L67 173 L67 174 L68 175 L68 177 L69 178 L69 180 L70 181 L70 183 L71 184 L71 185 L72 186 L72 187 L73 188 L73 189 L74 190 L74 192 L75 193 L75 195 L76 196 L76 198 L77 199 L77 201 L78 202 L78 203 L79 204 L79 206 L80 207 L80 208 L81 209 L81 211 L82 212 L82 214 L83 215 L83 216 L84 217 L84 219 L85 220 L85 221 L86 222 L86 224 L87 225 L87 226 L88 227 L88 230 L89 231 L89 233 L90 234 L90 237 L91 238 L91 239 L93 241 L93 242 L94 243 L94 244 L95 245 L95 248 L96 249 L96 251 L97 252 L97 254 L98 255 L98 256 L99 257 L99 259 L100 260 L100 262 L101 263 L101 264 L102 265 L102 267 L103 268 L103 270 L104 271 L104 273 L105 274 L105 276 L106 277 L106 279 L107 280 L107 281 L108 282 L108 283 L109 284 L109 286 L111 288 L111 289 L112 290 L112 291 L114 293 L114 294 L115 295 L115 297 L114 298 L92 276 L92 275 L91 274 L90 274 L77 261 L77 260 L76 259 L75 259 L71 255 L70 255 L69 254 L68 254 L66 252 L65 252 L64 251 L63 251 L62 250 L61 250 L60 249 L59 249 L58 248 L56 248 L55 247 L54 247 L53 246 L52 246 L51 245 L49 245 L48 244 L47 244 L46 243 L45 243 L44 242 L42 242 L41 241 L40 241 L39 240 L36 240 L35 239 L33 239 L32 238 L25 238 L24 237 L13 237 L12 238 L11 238 L11 239 L12 240 L12 242 L14 244 L16 244 L17 245 L19 245 L20 246 L23 246 L24 247 L26 247 L27 248 L28 248 L29 249 L30 249 L31 250 L32 250 L35 253 L36 253 L38 255 L39 255 L41 257 L42 257 L54 269 L54 270 L59 275 L59 276 L61 278 L61 279 L63 281 L63 282 L68 287 L68 288 L73 293 L73 294 L76 297 L76 298 L78 300 L78 301 L80 303 L80 304 L81 305 L81 306 L82 307 L82 308 L85 311 L85 312 L87 314 L87 315 L89 317 L89 318 L90 319 L90 320 L91 321 L91 322 L92 323 L92 324 L93 325 L93 326 L94 327 L94 328 L99 333 L99 334 L105 340 L105 341 L107 343 L107 344 L111 348 L112 348 L121 357 L122 357 L125 360 L126 360 L128 362 L129 362 L132 365 L133 365 L134 366 L135 366 L137 368 L138 368 L139 369 L140 369 L141 370 L143 370 L145 372 L146 372 L147 373 L148 373 L149 374 L151 374 L152 375 L154 375 L155 376 L156 376 L157 377 L159 377 L160 378 L163 378 L164 379 L167 379 L168 380 L184 380 L185 379 L188 379 L189 378 L192 378 L193 377 L202 377 L203 378 L208 378 L209 379 L215 379 L216 378 L218 378 L219 377 L221 377 L222 376 L223 376 L224 375 L225 375 L226 374 L227 374 L229 372 L230 372 L233 369 L234 369 L236 367 L237 367 L239 365 L240 365 L243 362 L244 362 L247 359 L248 359 L252 355 L253 355 L261 347 L261 346 L264 343 L264 342 L268 338 L268 337 L273 332 L273 331 L276 328 L276 327 L278 325 L278 324 L279 323 L279 322 L280 321 L280 320 L281 319 L281 318 L283 316 L283 315 L284 314 L284 313 L285 312 L285 311 L286 310 L286 309 L287 308 L287 307 L288 306 L288 305 L289 304 L289 303 L290 302 L290 301 L292 299 L292 298 L293 297 L293 296 L294 295 L294 291 L295 290 L295 289 L296 288 L296 287 L297 286 L297 285 L300 282 L300 280 L301 279 L301 277 L302 276 L302 275 L303 274 L303 272 L304 271 L304 269 L305 268 L305 265 L306 264 L306 262 L308 260 L308 259 L310 257 L310 255 L311 254 L311 251 L312 250 L312 248 L313 247 L313 246 L314 245 L314 243 L315 242 L315 241 L316 240 L316 239 L317 238 L317 237 L318 236 L318 235 L319 234 L319 232 L320 231 L320 230 L321 229 L321 228 L322 227 L322 226 L323 225 L323 224 L324 223 L324 222 L326 220 L326 219 L327 218 L327 217 L328 216 L328 215 L329 214 L329 213 L330 212 L330 211 L331 210 L331 209 L332 208 L332 207 L333 206 L333 205 L334 204 L334 203 L336 201 L336 200 L338 198 L338 197 L340 195 L340 194 L342 192 L342 191 L345 188 L345 187 L347 185 L347 184 L348 183 L348 182 L349 181 L349 180 L350 179 L350 178 L352 176 L352 175 L353 174 L353 173 L355 171 L355 170 L362 163 L362 162 L366 158 L366 157 L372 151 L372 150 L375 147 L375 146 L371 146 L370 147 L368 147 L366 149 L365 149 L364 150 L363 150 L362 151 L361 151 L360 152 L359 152 L358 153 L357 153 L356 154 L355 154 L354 155 L353 155 L352 156 L351 156 L350 157 L349 157 L347 159 L346 159 L344 161 L343 161 L321 183 L321 184 L318 187 L318 188 L315 191 L315 192 L312 195 L312 196 L310 198 L310 199 L308 201 L308 202 L307 203 L307 204 L306 205 L306 206 L305 207 L305 208 L304 209 L304 210 L303 211 L303 212 L301 214 L301 215 L300 216 L300 217 L295 222 L295 223 L294 224 L294 225 L293 226 L293 227 L292 228 L292 229 L291 230 L291 232 L289 234 L289 235 L287 237 L287 238 L282 243 L282 244 L281 245 L281 246 L279 248 L279 249 L278 250 L278 251 L277 252 L277 253 L276 254 L276 256 L275 257 L275 258 L274 259 L274 260 L272 262 L272 263 L270 265 L269 264 L269 263 L270 262 L270 260 L271 259 L271 256 L272 255 L272 252 L273 251 L273 248 L274 247 L274 245 L275 244 L275 241 L276 240 L276 235 L277 234 L277 230 L278 229 L278 227 L279 226 L279 221 L280 220 L280 216 L281 215 L281 209 L282 208 L282 205 L283 204 L283 202 L284 201 L284 197 L285 196 L285 190 L286 189 L286 187 L287 186 L287 183 L288 182 L288 178 L289 177 L289 172 L290 171 L290 165 L291 164 L291 161 L292 160 L292 159 L293 158 L293 157 L294 156 L294 154 L295 153 L295 149 L296 148 L296 146 L297 145 L297 141 L298 140 L298 138 L299 137 L299 135 L300 134 L300 132 L301 131 L301 130 L302 129 L302 127 L303 126 L303 123 L304 122 L304 121 L305 120 L305 117 L306 116 L306 115 L307 114 L307 112 L308 111 L308 110 L309 109 L309 107 L310 106 L310 105 L311 104 L311 103 L312 102 L312 101 L313 100 L313 99 L314 98 L314 97 L315 96 L315 95 L316 94 L316 93 L317 92 L317 91 L318 90 L318 89 L319 88 L319 87 L320 86 L320 85 L321 84 L321 83 L323 81 L323 80 L324 79 L324 78 L325 77 L325 76 L327 74 L327 72 L323 72 L322 73 L321 73 L318 76 L317 76 L315 78 L314 78 L311 81 L310 81 L306 85 L306 86 L302 90 L302 91 L298 95 L298 96 L295 99 L295 100 L292 103 L292 104 L287 109 L287 110 L286 111 L286 113 L284 115 L284 116 L282 118 L282 119 L281 120 L281 121 L280 122 L280 123 L279 124 L279 125 L278 126 L278 127 L277 128 L277 129 L276 130 L276 132 L275 133 L275 134 L273 136 L273 137 L272 138 L272 140 L271 141 L271 145 L270 146 L270 148 L269 149 L269 150 L268 151 L268 153 L267 154 L267 156 L266 157 L266 159 L265 160 L265 162 L264 163 L264 165 L263 166 L263 168 L262 169 L262 171 L261 172 L261 174 L260 175 L260 177 L259 178 L259 180 L258 181 L258 183 L257 184 L257 188 L256 189 L256 190 L254 192 L254 194 L253 195 L253 196 L252 197 L252 199 L251 200 L251 202 L250 203 L250 205 L249 206 L249 207 L248 208 L248 210 L247 211 L247 212 L246 213 L246 214 L245 215 L245 216 L244 217 L244 218 L243 219 L242 219 L241 218 L241 212 L242 211 L242 203 L243 202 L243 198 L244 197 L244 191 L245 190 L245 172 L246 171 L246 142 L247 141 L247 117 L248 116 L248 112 L249 111 L249 105 L250 104 L250 92 L251 91 L251 82 L252 81 L252 78 L253 77 L253 75 L254 74 L254 72 L255 71 L255 62 L256 61 L256 58 L257 57 L257 56 L258 55 L258 52 L259 51 L259 45 L260 44 L260 42 L261 41 L261 37 L262 36 L262 34 L263 33 L263 31 L264 30 L264 29 L265 28 L265 27 L266 26 L266 22 L267 21 L267 17 L262 17 L256 23 L256 24 L255 25 L255 26 L254 27 L254 30 L251 33 L250 33 L250 34 L249 35 L249 36 L248 37 L248 38 L247 39 L247 40 L246 41 L246 42 L244 44 L244 45 L243 46 L243 47 L242 48 L242 49 L241 50 L241 51 L240 52 L240 53 L239 54 L239 56 L238 57 L238 58 L237 59 L237 61 L236 62 L236 63 L235 64 L235 65 L234 66 L234 68 L233 69 L233 71 L232 72 L232 74 L231 75 L231 76 L230 77 L230 80 L229 81 L229 85 L228 86 L228 91 L227 92 L227 95 L226 96 L226 100 L225 101 L225 104 L224 105 L224 108 L223 109 L223 114 L222 115 L222 120 L221 121 L221 125 L220 126 L220 131 L219 132 L219 136 L218 137 L218 141 L217 142 L217 147 L216 148 L216 153 L215 154 L215 156 L214 157 L214 159 L213 160 L213 167 L212 168 L212 173 L211 174 L211 179 L209 181 L208 180 L208 159 L207 158 L207 144 L206 143 L206 125 L205 124 L205 118 L204 117 L204 114 L203 113 L203 111 L202 110 L202 108 L199 105 L197 105 L196 106 L196 109 L195 110 L195 116 L194 117 L194 125 L193 126 L193 132 L192 133 L192 140 L191 141 L191 148 L190 149 L190 160 L189 161 L189 167 L188 168 L188 180 L187 181 L187 183 L186 184 L185 183 L185 181 L184 180 L184 176 L183 175 L183 171 L182 170 L182 166 L181 165 L181 162 L180 161 L180 159 L179 158 L179 152 L178 151 L178 145 L177 144 L177 141 L176 140 L176 139 L174 137 L174 135 L173 134 L173 131 L172 130 L172 127 L171 126 L171 123 L170 122 L170 118 L169 117 L169 115 L168 114 L168 113 L166 111 L166 110 L165 109 L165 104 L164 103 L164 101 L163 100 L163 98 L162 97 L162 95 L161 94 L161 93 L160 92 L160 91 L159 90 L158 91 L158 92 L157 93 L157 108 L158 109 L158 125 L159 126 L159 174 L158 175 L158 184 L157 185 L156 184 L156 183 L155 182 L155 180 L154 179 L154 177 L153 176 L153 173 L152 172 L152 170 L151 169 L151 166 L150 165 L150 164 L149 163 L149 160 L148 159 L148 157 L147 156 L147 153 L146 152 L146 148 L145 147 L146 146 L146 143 L144 141 L143 141 L141 139 L141 135 L140 134 L140 132 L139 131 L139 129 L138 128 L138 127 L137 126 L137 124 L136 123 L136 121 L135 120 L135 118 L134 117 L134 115 L133 114 L133 112 L132 111 L132 109 L131 108 L131 106 L130 105 L130 103 L129 102 L129 100 L128 99 L128 97 L127 96 L127 94 L126 93 L126 91 L125 90 L125 88 L124 87 L124 85 L123 84 L123 82 L122 81 L122 79 L121 78 L121 76 L120 75 L120 74 L119 73 L119 72 L116 69 L116 68 L115 67 L115 65 L114 64 L114 63 L113 62 L113 61 L112 60 L112 59 L111 58 L111 56 L110 55 L110 53 L109 52 L109 51 L108 50 L108 49 L107 48 L107 46 L106 45 L106 43 L105 42 L105 41 L104 40 L104 39 L103 38 L103 37 L102 36 L102 35 L101 34 L101 32 L100 31 L100 30 L99 29 L99 27 L95 23 L95 22 L93 20 L93 19 L92 18 L92 17 L86 11 Z M330 0 L331 0 L332 1 L333 1 L335 3 L336 3 L338 5 L339 5 L341 7 L342 7 L344 9 L345 9 L347 11 L348 11 L350 13 L351 13 L360 22 L361 22 L372 33 L373 33 L378 38 L379 38 L386 45 L386 0 Z " fill="black"/></svg>