<svg width="360" height="526" xmlns="http://www.w3.org/2000/svg"><path d="M263 11 L261 13 L261 14 L238 37 L238 38 L231 45 L231 46 L225 52 L224 52 L224 53 L221 56 L221 57 L207 71 L206 71 L194 83 L194 84 L189 89 L188 89 L187 90 L186 90 L185 91 L184 91 L183 92 L182 92 L181 93 L180 93 L179 94 L170 94 L169 93 L167 93 L166 92 L166 90 L168 88 L171 88 L172 87 L173 87 L174 86 L175 86 L176 85 L178 85 L179 84 L183 84 L184 83 L184 82 L183 81 L183 80 L182 80 L179 77 L178 77 L177 76 L176 76 L175 75 L175 73 L176 72 L176 71 L177 70 L177 69 L183 63 L183 62 L184 61 L184 59 L185 58 L185 53 L186 52 L186 51 L188 49 L188 48 L189 47 L189 46 L190 45 L190 44 L191 43 L188 43 L187 44 L186 44 L185 45 L184 45 L181 48 L180 48 L178 50 L177 50 L175 52 L172 52 L171 53 L170 53 L169 54 L167 54 L165 56 L164 56 L159 61 L158 61 L155 64 L154 64 L153 63 L153 62 L152 61 L152 55 L153 54 L153 38 L152 37 L152 31 L151 30 L151 27 L149 25 L148 25 L146 27 L146 33 L145 34 L145 36 L142 39 L141 39 L141 40 L138 43 L138 44 L137 45 L137 46 L135 48 L135 49 L134 50 L134 51 L133 52 L133 54 L132 55 L132 57 L131 58 L131 60 L130 61 L130 62 L129 63 L129 65 L128 66 L128 67 L127 68 L127 69 L126 70 L125 70 L123 68 L123 67 L122 66 L122 65 L121 64 L121 62 L120 61 L120 59 L119 58 L119 56 L118 55 L118 50 L117 49 L117 45 L116 44 L116 41 L115 40 L115 39 L114 38 L114 36 L113 35 L113 33 L112 32 L112 31 L111 30 L111 29 L110 28 L110 27 L108 25 L108 24 L107 24 L106 25 L106 28 L105 29 L105 33 L104 34 L104 43 L103 44 L103 47 L102 48 L102 55 L101 56 L101 61 L100 62 L92 54 L92 53 L90 51 L89 51 L85 47 L85 46 L75 36 L74 36 L73 37 L73 40 L74 41 L74 43 L75 44 L75 45 L76 46 L76 47 L78 49 L78 50 L79 51 L79 54 L80 55 L80 58 L81 59 L81 61 L82 62 L82 64 L83 65 L83 66 L84 67 L84 69 L85 70 L85 71 L86 72 L86 74 L87 75 L87 77 L88 78 L88 80 L89 81 L89 84 L90 85 L90 88 L91 89 L91 92 L90 93 L89 93 L88 92 L83 92 L82 91 L79 91 L78 90 L77 90 L76 89 L75 89 L74 88 L73 88 L72 87 L71 87 L70 86 L69 86 L68 85 L67 85 L65 83 L64 83 L63 82 L62 82 L61 81 L60 81 L59 80 L57 80 L56 79 L55 79 L54 78 L53 78 L52 77 L51 77 L49 75 L48 75 L47 74 L44 74 L43 75 L44 76 L44 77 L47 80 L48 80 L54 86 L55 86 L57 88 L58 88 L60 90 L61 90 L63 92 L64 92 L65 93 L66 93 L69 96 L70 96 L73 99 L74 99 L76 101 L77 101 L81 105 L82 105 L85 108 L84 109 L81 109 L80 108 L76 108 L75 107 L71 107 L70 106 L48 106 L47 105 L44 105 L43 104 L42 104 L41 103 L40 103 L39 102 L38 102 L37 101 L36 101 L35 100 L32 100 L31 99 L27 99 L26 98 L25 98 L24 97 L23 97 L20 94 L19 94 L14 89 L12 89 L11 90 L11 92 L13 94 L13 95 L18 100 L18 101 L19 101 L21 103 L22 103 L23 104 L24 104 L29 109 L30 109 L33 112 L34 112 L35 113 L36 113 L38 115 L39 115 L41 117 L42 117 L43 118 L44 118 L46 120 L47 120 L49 122 L50 122 L52 124 L53 124 L54 125 L56 125 L58 127 L59 127 L60 128 L61 128 L62 129 L63 129 L64 130 L66 130 L67 131 L68 131 L69 132 L70 132 L71 133 L72 133 L73 134 L74 134 L75 135 L76 135 L77 136 L79 136 L80 137 L83 137 L84 138 L87 138 L88 139 L90 139 L91 140 L92 140 L93 141 L95 141 L96 142 L98 142 L99 143 L101 143 L102 144 L105 144 L106 145 L108 145 L109 146 L111 146 L112 147 L115 147 L116 148 L120 148 L121 149 L125 149 L126 150 L128 150 L129 151 L134 151 L135 152 L136 152 L137 151 L138 152 L141 152 L142 153 L144 153 L147 156 L147 157 L148 158 L148 160 L149 161 L149 164 L150 165 L150 166 L151 167 L151 168 L152 169 L152 170 L153 171 L153 173 L154 174 L154 176 L155 177 L155 182 L156 183 L156 186 L157 187 L157 190 L158 191 L158 195 L159 196 L159 202 L160 203 L160 208 L161 209 L161 214 L162 215 L162 219 L163 220 L163 223 L164 224 L164 227 L165 228 L165 232 L166 233 L166 237 L167 238 L167 243 L168 244 L168 249 L169 250 L169 254 L170 255 L170 259 L171 260 L171 264 L172 265 L172 272 L171 273 L170 273 L169 272 L169 270 L168 269 L168 267 L167 266 L167 265 L166 264 L166 261 L165 260 L165 258 L164 257 L164 253 L163 252 L163 247 L162 246 L162 241 L161 240 L161 236 L160 235 L160 232 L159 231 L159 228 L158 227 L158 225 L157 224 L157 223 L156 222 L156 220 L155 219 L155 218 L153 216 L153 215 L151 213 L151 212 L150 211 L149 211 L148 210 L148 209 L142 203 L142 202 L141 201 L140 201 L135 196 L134 196 L133 195 L132 195 L131 194 L130 194 L129 193 L128 193 L127 192 L124 192 L123 191 L121 191 L120 190 L118 190 L117 189 L110 189 L108 187 L107 187 L105 185 L101 185 L100 184 L97 184 L96 183 L95 183 L94 182 L93 182 L92 181 L91 181 L90 180 L89 180 L88 179 L86 179 L85 178 L81 178 L80 177 L77 177 L76 176 L75 176 L74 175 L73 175 L72 174 L70 174 L69 173 L68 173 L67 172 L66 172 L65 171 L64 171 L63 170 L62 170 L61 169 L60 169 L59 168 L58 168 L56 170 L56 172 L57 173 L57 174 L58 175 L58 177 L59 178 L59 180 L60 181 L60 182 L61 183 L61 184 L62 185 L63 185 L67 189 L67 192 L68 193 L68 194 L69 195 L69 196 L70 197 L70 198 L72 200 L72 201 L76 205 L77 205 L82 210 L82 211 L84 213 L85 213 L87 215 L88 215 L90 217 L91 217 L93 219 L94 219 L95 220 L96 220 L97 221 L99 221 L103 225 L104 225 L105 226 L106 226 L107 227 L110 227 L111 228 L113 228 L114 229 L116 229 L117 230 L119 230 L120 231 L121 231 L122 232 L123 232 L124 233 L125 233 L126 234 L127 234 L129 236 L130 236 L131 237 L132 237 L133 238 L134 238 L148 252 L148 253 L149 254 L149 255 L150 256 L150 257 L152 259 L152 260 L154 262 L154 263 L155 264 L155 265 L156 266 L156 268 L157 269 L157 271 L158 272 L158 275 L159 276 L159 279 L160 280 L160 283 L161 284 L161 286 L162 287 L162 289 L163 290 L163 292 L164 293 L164 295 L165 296 L165 299 L166 300 L166 304 L167 305 L167 309 L168 310 L168 313 L169 314 L169 335 L168 336 L166 334 L166 327 L165 326 L165 319 L164 318 L164 316 L163 315 L163 313 L162 312 L162 311 L161 310 L161 308 L160 307 L160 306 L159 305 L159 303 L158 302 L158 301 L157 300 L157 299 L156 298 L156 293 L157 292 L157 291 L156 290 L156 288 L155 287 L155 286 L154 285 L154 284 L153 283 L153 281 L152 280 L152 279 L151 278 L151 277 L150 276 L150 275 L149 274 L149 273 L148 272 L148 271 L147 270 L147 269 L146 268 L146 267 L145 266 L145 265 L139 259 L138 259 L134 255 L133 255 L132 254 L131 254 L130 253 L129 253 L128 252 L127 252 L126 251 L125 251 L124 250 L122 250 L121 249 L119 249 L118 248 L114 248 L113 247 L110 247 L109 246 L105 246 L104 245 L103 245 L102 244 L97 244 L96 243 L86 243 L85 244 L82 244 L81 243 L79 243 L78 244 L69 244 L68 243 L60 243 L59 244 L56 244 L54 246 L53 246 L51 248 L50 248 L49 249 L49 251 L52 254 L53 254 L54 255 L55 255 L56 256 L57 256 L58 257 L60 257 L62 259 L63 259 L64 260 L64 261 L65 262 L66 262 L67 263 L69 263 L70 264 L71 264 L72 265 L73 265 L74 266 L75 266 L77 268 L78 268 L80 270 L81 270 L82 271 L83 271 L84 272 L86 272 L87 273 L88 273 L89 274 L91 274 L92 275 L94 275 L95 276 L96 276 L97 277 L100 277 L101 278 L102 278 L103 279 L106 279 L107 280 L110 280 L111 281 L117 281 L118 282 L122 282 L123 283 L125 283 L126 284 L127 284 L128 285 L130 285 L132 287 L133 287 L135 289 L136 289 L143 296 L143 297 L144 298 L144 299 L145 300 L145 301 L146 302 L146 303 L147 304 L147 306 L148 307 L148 309 L149 310 L149 314 L150 315 L150 323 L151 324 L151 330 L152 331 L152 336 L153 337 L153 340 L152 341 L149 341 L148 342 L143 342 L142 343 L136 343 L135 344 L133 344 L132 345 L130 345 L129 346 L128 346 L127 347 L126 347 L125 348 L124 348 L121 351 L120 351 L115 356 L115 357 L114 358 L114 360 L113 361 L113 363 L112 364 L112 366 L111 367 L111 370 L110 371 L110 373 L109 374 L109 376 L108 377 L108 380 L107 381 L107 386 L106 387 L106 390 L105 391 L105 395 L104 396 L104 399 L103 400 L103 403 L102 404 L102 407 L101 408 L101 411 L100 412 L100 416 L98 418 L98 420 L97 421 L97 430 L96 431 L96 455 L95 456 L95 467 L96 468 L96 470 L98 472 L98 473 L99 474 L99 475 L101 477 L101 478 L103 480 L103 481 L104 482 L104 484 L106 486 L106 487 L119 500 L120 500 L121 501 L122 501 L123 502 L124 502 L125 503 L126 503 L129 506 L130 506 L131 507 L135 507 L136 508 L141 508 L142 509 L145 509 L146 510 L149 510 L150 511 L154 511 L155 512 L159 512 L160 513 L164 513 L165 514 L198 514 L199 513 L202 513 L203 512 L220 512 L221 511 L230 511 L231 510 L233 510 L235 508 L238 508 L239 507 L242 507 L243 506 L244 506 L245 505 L247 505 L248 504 L250 504 L251 503 L252 503 L253 502 L254 502 L255 501 L256 501 L265 492 L266 492 L266 491 L267 490 L267 489 L268 488 L268 486 L269 485 L269 484 L270 483 L270 482 L271 481 L271 480 L273 478 L273 477 L274 476 L274 474 L275 473 L275 471 L276 470 L276 469 L277 468 L277 439 L276 438 L276 430 L275 429 L275 424 L274 423 L274 419 L273 418 L273 416 L272 415 L272 413 L271 412 L271 408 L270 407 L270 402 L269 401 L269 396 L268 395 L268 390 L267 389 L267 385 L266 384 L266 381 L265 380 L265 377 L264 376 L264 373 L263 372 L263 368 L262 367 L262 363 L261 362 L261 360 L260 359 L260 357 L257 354 L256 354 L255 353 L254 353 L251 350 L250 350 L248 348 L247 348 L246 347 L245 347 L244 346 L243 346 L242 345 L241 345 L240 344 L237 344 L236 343 L234 343 L233 342 L230 342 L229 341 L225 341 L224 340 L221 340 L220 339 L219 339 L218 338 L218 337 L219 336 L219 334 L220 333 L220 331 L221 330 L221 329 L222 328 L222 326 L223 325 L223 324 L224 323 L224 322 L225 321 L225 320 L226 319 L226 318 L227 317 L227 316 L228 315 L228 314 L236 306 L237 306 L238 305 L241 305 L242 304 L246 304 L247 303 L252 303 L253 302 L255 302 L256 301 L259 301 L260 300 L261 300 L262 299 L264 299 L265 298 L266 298 L267 297 L268 297 L270 295 L272 295 L274 293 L275 293 L277 291 L278 291 L280 289 L281 289 L285 285 L285 284 L291 278 L291 277 L294 274 L294 273 L300 267 L300 266 L302 264 L302 261 L299 261 L297 263 L293 263 L292 264 L287 264 L286 265 L281 265 L280 266 L277 266 L276 267 L271 267 L270 268 L269 268 L268 269 L268 270 L266 272 L261 272 L260 273 L257 273 L256 274 L254 274 L253 275 L252 275 L251 276 L249 276 L248 277 L242 277 L241 278 L239 278 L238 279 L237 279 L236 280 L235 280 L234 281 L232 281 L221 292 L221 293 L219 295 L219 296 L217 298 L217 299 L216 300 L216 301 L215 302 L215 304 L214 305 L214 311 L213 312 L213 313 L212 314 L212 316 L211 317 L211 318 L210 319 L210 320 L208 322 L207 321 L207 319 L208 318 L208 315 L209 314 L209 311 L210 310 L210 307 L211 306 L211 303 L212 302 L212 300 L213 299 L213 297 L214 296 L214 293 L215 292 L215 290 L216 289 L216 287 L217 286 L217 282 L218 281 L218 279 L219 278 L219 276 L220 275 L220 273 L221 272 L221 271 L222 270 L222 267 L223 266 L223 264 L224 263 L224 262 L225 261 L225 259 L226 258 L226 257 L227 256 L227 251 L229 249 L229 248 L234 243 L234 242 L236 240 L236 239 L237 238 L237 237 L238 236 L238 235 L242 231 L243 231 L245 229 L247 229 L248 228 L249 228 L250 227 L252 227 L253 226 L256 226 L257 225 L258 225 L259 224 L262 224 L263 223 L265 223 L266 222 L270 222 L271 221 L273 221 L274 220 L277 220 L278 219 L286 219 L287 218 L288 218 L289 217 L295 217 L296 216 L324 216 L325 217 L332 217 L333 218 L334 218 L335 217 L337 217 L339 215 L339 212 L334 207 L334 206 L332 204 L332 203 L331 202 L331 201 L328 198 L327 198 L326 197 L324 197 L323 196 L318 196 L317 195 L315 195 L314 194 L313 194 L312 193 L308 193 L307 192 L304 192 L302 190 L296 190 L295 191 L292 191 L290 189 L287 189 L286 188 L275 188 L274 189 L271 189 L270 190 L269 190 L268 191 L267 191 L266 192 L259 192 L258 193 L256 193 L255 194 L254 194 L253 195 L250 195 L249 196 L248 196 L247 197 L245 197 L244 198 L243 198 L241 200 L240 200 L232 208 L232 209 L230 211 L230 212 L228 214 L228 215 L227 216 L227 217 L226 218 L226 219 L225 220 L225 221 L224 222 L224 223 L223 224 L223 225 L222 226 L222 227 L220 229 L220 230 L219 231 L219 232 L218 233 L218 234 L217 235 L217 237 L216 238 L216 239 L215 240 L215 242 L214 243 L214 245 L213 246 L213 248 L211 250 L210 249 L210 244 L211 243 L211 240 L212 239 L212 237 L213 236 L213 234 L214 233 L214 231 L215 230 L215 229 L216 228 L216 226 L217 225 L217 224 L218 223 L218 222 L219 221 L219 220 L220 219 L220 218 L221 217 L221 216 L222 215 L222 214 L223 213 L223 212 L224 211 L224 210 L225 209 L225 208 L226 207 L226 206 L228 204 L228 203 L229 202 L229 201 L231 199 L231 198 L233 196 L233 195 L234 194 L234 193 L236 191 L236 190 L237 189 L237 188 L239 186 L239 185 L241 183 L241 182 L245 178 L245 177 L251 171 L252 171 L253 170 L254 170 L255 169 L256 169 L257 168 L258 168 L259 167 L261 167 L262 166 L263 166 L265 164 L266 164 L268 162 L269 162 L269 161 L271 159 L272 159 L273 158 L275 158 L276 157 L277 157 L278 156 L279 156 L280 155 L281 155 L282 154 L283 154 L285 152 L286 152 L290 148 L291 148 L303 136 L304 136 L307 133 L308 133 L311 130 L312 130 L332 110 L332 109 L334 107 L334 106 L335 105 L335 104 L337 102 L337 101 L338 100 L338 99 L339 98 L339 97 L341 95 L341 94 L343 92 L343 91 L346 88 L346 87 L347 86 L347 85 L348 84 L348 80 L344 80 L343 81 L342 81 L340 83 L339 83 L338 84 L337 84 L336 85 L333 85 L332 86 L330 86 L329 87 L324 87 L323 88 L322 88 L321 89 L319 89 L318 90 L316 90 L315 91 L313 91 L312 92 L311 92 L310 93 L308 93 L307 94 L304 94 L303 95 L302 95 L301 96 L296 96 L295 97 L293 97 L292 98 L290 98 L289 99 L287 99 L286 100 L284 100 L283 101 L282 101 L281 102 L280 102 L278 104 L277 104 L276 105 L275 105 L274 106 L273 106 L272 107 L271 107 L270 108 L269 108 L267 110 L266 110 L264 112 L263 112 L260 115 L259 115 L258 116 L257 116 L255 118 L254 118 L253 119 L252 119 L251 120 L250 120 L249 121 L248 121 L247 122 L246 122 L245 123 L244 123 L242 125 L241 125 L239 127 L238 127 L233 132 L232 132 L225 139 L225 140 L222 143 L222 144 L221 145 L221 147 L220 148 L220 149 L219 150 L219 153 L218 154 L218 155 L217 156 L216 156 L215 155 L215 154 L214 153 L214 152 L213 151 L213 150 L212 149 L212 145 L213 144 L213 143 L218 138 L218 137 L228 127 L228 126 L232 122 L232 121 L234 119 L234 118 L236 116 L236 115 L238 113 L238 112 L240 110 L240 109 L242 107 L242 106 L243 105 L243 104 L244 103 L244 102 L245 101 L245 99 L246 98 L246 97 L247 96 L247 94 L248 93 L248 92 L249 91 L249 89 L250 88 L250 87 L251 86 L251 84 L252 83 L252 81 L253 80 L253 78 L254 77 L254 75 L255 74 L255 72 L256 71 L256 68 L257 67 L257 65 L258 64 L258 62 L259 61 L259 58 L260 57 L260 53 L261 52 L261 51 L262 50 L262 47 L263 46 L263 44 L264 43 L264 41 L265 40 L265 35 L266 34 L266 25 L267 24 L267 23 L266 22 L266 17 L267 16 L267 12 L266 11 Z " fill="black"/></svg>