<svg width="259" height="465" xmlns="http://www.w3.org/2000/svg"><path d="M74 90 L74 95 L73 96 L73 101 L75 101 L76 100 L76 91 L75 90 Z M173 11 L172 12 L171 12 L170 13 L169 13 L168 14 L167 14 L166 15 L165 15 L164 16 L163 16 L162 17 L162 18 L161 19 L160 19 L159 20 L156 20 L153 23 L153 24 L151 26 L151 28 L150 29 L150 30 L149 31 L148 31 L146 33 L145 33 L143 35 L142 35 L141 36 L141 37 L140 38 L140 41 L139 42 L139 46 L140 47 L140 49 L142 51 L142 52 L143 53 L144 53 L153 62 L154 62 L155 63 L155 64 L156 65 L156 66 L154 68 L154 69 L150 73 L149 73 L145 77 L144 77 L142 79 L142 80 L143 81 L144 81 L145 82 L145 84 L142 87 L140 87 L140 97 L139 98 L139 102 L138 103 L137 103 L136 104 L135 103 L133 103 L133 105 L137 109 L137 110 L138 111 L138 113 L137 114 L137 116 L135 118 L135 119 L136 120 L136 121 L135 122 L135 123 L136 124 L136 125 L135 126 L135 130 L134 131 L134 132 L133 133 L133 142 L135 144 L134 145 L134 146 L133 147 L131 147 L128 144 L129 143 L129 137 L128 136 L128 134 L127 133 L127 131 L126 130 L126 126 L125 125 L124 125 L123 126 L119 122 L118 122 L116 120 L116 119 L114 117 L114 116 L112 114 L112 112 L116 108 L117 108 L117 107 L116 107 L115 108 L114 108 L113 109 L112 109 L111 110 L110 110 L109 111 L108 110 L106 110 L105 109 L104 109 L103 108 L103 105 L104 104 L104 103 L105 102 L105 100 L104 99 L102 99 L101 100 L100 100 L99 101 L98 101 L94 105 L90 105 L89 104 L89 102 L90 101 L90 99 L91 98 L91 95 L89 95 L89 96 L88 97 L88 98 L87 99 L87 100 L85 102 L83 100 L83 97 L82 96 L80 96 L80 98 L79 99 L79 103 L77 105 L76 105 L75 106 L74 106 L68 100 L67 100 L65 98 L64 98 L61 101 L57 97 L57 98 L58 99 L58 101 L63 106 L63 107 L62 108 L58 108 L53 103 L52 103 L51 102 L49 102 L49 103 L51 105 L51 106 L52 107 L52 108 L54 110 L46 118 L44 118 L43 117 L43 116 L44 115 L43 114 L43 112 L42 111 L42 110 L41 110 L41 111 L42 112 L42 114 L43 115 L43 118 L42 119 L43 120 L42 121 L42 122 L41 123 L39 123 L35 119 L34 119 L34 121 L35 122 L35 124 L36 125 L36 126 L37 127 L37 128 L36 129 L36 130 L34 132 L31 132 L30 131 L25 131 L25 133 L26 134 L27 134 L28 135 L29 135 L30 136 L31 136 L32 137 L32 139 L30 141 L28 141 L26 143 L26 146 L27 147 L28 147 L31 150 L31 151 L30 152 L26 152 L25 153 L24 153 L23 152 L20 152 L19 151 L18 152 L17 152 L18 153 L18 154 L19 155 L20 155 L22 157 L23 157 L24 158 L24 159 L29 164 L28 165 L28 166 L23 171 L22 171 L20 173 L20 174 L21 175 L22 175 L23 174 L24 175 L25 175 L26 176 L26 180 L25 181 L22 181 L21 182 L20 182 L19 183 L19 185 L21 187 L21 188 L22 189 L25 189 L27 191 L27 192 L28 193 L28 195 L26 197 L25 197 L24 198 L24 199 L23 200 L25 200 L26 201 L26 202 L23 205 L23 206 L27 206 L31 210 L31 212 L32 213 L32 215 L31 216 L31 218 L29 220 L27 220 L26 221 L25 221 L24 222 L23 222 L22 223 L21 223 L22 224 L29 224 L31 226 L32 226 L34 228 L35 228 L36 229 L36 234 L31 239 L31 240 L34 240 L35 239 L36 239 L41 244 L41 245 L42 246 L42 247 L41 248 L39 248 L38 249 L34 249 L33 250 L31 250 L30 251 L29 251 L28 252 L27 252 L26 253 L25 253 L23 255 L22 255 L21 256 L20 256 L19 257 L18 257 L13 262 L13 263 L12 264 L12 265 L11 266 L11 272 L12 273 L12 279 L13 280 L13 298 L14 299 L14 305 L15 306 L15 307 L16 308 L16 309 L24 317 L24 318 L27 321 L27 326 L28 327 L28 333 L29 334 L29 339 L30 340 L30 343 L31 344 L31 345 L32 346 L32 348 L33 349 L33 353 L34 354 L34 357 L35 358 L35 362 L36 363 L36 366 L37 367 L37 370 L38 371 L38 373 L39 374 L39 378 L40 379 L40 381 L41 382 L41 385 L42 386 L42 390 L43 391 L43 393 L44 394 L44 398 L45 399 L45 402 L46 403 L46 406 L47 407 L47 410 L48 411 L48 413 L49 414 L49 416 L50 417 L50 420 L51 421 L51 424 L52 425 L52 427 L53 428 L53 430 L54 431 L54 432 L56 434 L56 435 L57 436 L58 436 L61 439 L63 439 L64 440 L65 440 L67 442 L68 442 L70 444 L71 444 L72 445 L79 445 L80 446 L83 446 L84 447 L85 447 L87 449 L100 449 L101 450 L110 450 L111 451 L119 451 L120 452 L127 452 L128 453 L148 453 L149 452 L151 452 L153 450 L163 450 L164 449 L173 449 L174 448 L177 448 L178 447 L180 447 L181 446 L184 446 L185 445 L188 445 L189 444 L191 444 L192 443 L194 443 L195 442 L196 442 L198 440 L199 440 L201 438 L202 438 L204 436 L204 435 L207 432 L207 430 L208 429 L208 427 L209 426 L209 424 L210 423 L210 420 L211 419 L211 416 L212 415 L212 412 L213 411 L213 407 L214 406 L214 403 L215 402 L215 399 L216 398 L216 395 L217 394 L217 391 L218 390 L218 386 L219 385 L219 382 L220 381 L220 378 L221 377 L221 374 L222 373 L222 370 L223 369 L223 367 L224 366 L224 360 L225 359 L225 356 L226 355 L226 350 L227 349 L227 345 L228 344 L228 340 L229 339 L229 336 L230 335 L230 331 L231 330 L231 325 L232 324 L232 320 L233 319 L233 318 L234 317 L235 317 L242 310 L242 309 L243 308 L243 306 L244 305 L244 300 L245 299 L245 293 L246 292 L246 278 L247 277 L247 269 L246 268 L246 264 L245 263 L245 262 L244 261 L244 260 L239 255 L238 255 L236 253 L235 253 L234 252 L233 252 L232 251 L231 251 L230 250 L228 250 L227 249 L225 249 L224 248 L222 248 L221 247 L217 247 L216 246 L215 246 L214 245 L214 242 L216 240 L216 237 L218 235 L221 235 L222 234 L223 234 L224 233 L225 233 L227 231 L227 230 L224 230 L222 232 L220 232 L219 233 L217 233 L216 232 L216 231 L217 230 L217 226 L218 225 L218 224 L220 222 L221 222 L224 219 L224 218 L223 217 L223 216 L225 214 L225 213 L224 213 L223 212 L223 211 L222 210 L222 208 L223 207 L223 206 L224 205 L224 202 L223 201 L223 194 L222 193 L222 192 L223 191 L223 188 L225 186 L226 186 L227 187 L228 186 L228 185 L225 185 L223 183 L223 179 L224 178 L224 176 L227 173 L227 172 L228 171 L229 171 L230 170 L230 169 L229 168 L229 167 L228 166 L228 165 L227 164 L226 164 L225 163 L225 158 L226 157 L226 149 L227 148 L227 147 L228 146 L229 146 L230 145 L231 145 L233 143 L234 143 L235 142 L235 141 L234 140 L233 140 L232 139 L230 139 L229 138 L228 138 L226 136 L226 134 L229 131 L230 131 L231 130 L232 130 L233 129 L233 128 L231 128 L230 127 L229 127 L226 124 L226 120 L229 117 L230 117 L230 116 L233 113 L234 113 L235 112 L236 112 L236 111 L235 111 L234 110 L227 110 L225 108 L225 107 L224 106 L224 98 L225 97 L227 97 L228 96 L228 95 L226 93 L225 93 L224 92 L223 92 L221 90 L221 88 L223 86 L224 86 L225 85 L225 84 L224 84 L223 83 L222 83 L221 82 L220 82 L218 80 L218 77 L220 75 L220 73 L219 72 L219 71 L218 70 L218 67 L217 66 L219 64 L220 64 L221 63 L222 63 L223 62 L224 62 L227 59 L227 58 L229 56 L229 55 L230 54 L230 53 L231 52 L231 51 L233 49 L233 42 L234 41 L234 36 L233 35 L233 33 L232 32 L232 31 L231 30 L227 30 L226 31 L225 31 L224 32 L222 32 L220 30 L223 27 L223 26 L224 25 L224 23 L222 21 L211 21 L210 20 L209 20 L208 19 L207 19 L204 16 L203 16 L200 13 L198 13 L197 12 L196 12 L195 11 L189 11 L188 12 L186 12 L185 13 L184 13 L183 14 L180 14 L177 11 Z " fill="black"/></svg>