<svg width="929" height="1392" xmlns="http://www.w3.org/2000/svg"><path d="M496 88 L495 89 L496 89 Z M492 22 Z M474 15 L473 16 L474 16 Z M449 0 L448 1 L448 3 L447 4 L447 6 L446 7 L446 10 L445 11 L445 14 L444 15 L444 18 L443 19 L443 22 L442 23 L442 26 L441 27 L441 30 L440 31 L440 33 L439 34 L439 38 L438 39 L438 43 L437 44 L437 46 L436 47 L436 50 L435 51 L435 55 L434 56 L434 58 L433 59 L433 61 L432 62 L432 66 L431 67 L431 69 L430 70 L430 73 L429 74 L429 77 L428 78 L428 81 L427 82 L427 85 L426 86 L426 90 L425 91 L425 94 L424 95 L424 99 L423 100 L423 103 L422 104 L422 108 L421 109 L421 113 L420 114 L420 117 L419 118 L419 121 L418 122 L418 126 L417 127 L417 130 L416 131 L416 135 L415 136 L415 139 L414 140 L414 143 L413 144 L413 147 L412 148 L412 151 L411 152 L411 155 L410 156 L410 159 L409 160 L409 163 L408 164 L408 167 L407 168 L407 172 L406 173 L406 176 L405 177 L405 181 L404 182 L404 184 L403 185 L403 188 L402 189 L402 191 L401 192 L401 195 L400 196 L400 197 L399 198 L399 202 L398 203 L398 206 L397 207 L397 211 L396 212 L396 215 L395 216 L395 219 L394 220 L394 222 L393 223 L393 227 L392 228 L392 231 L391 232 L391 236 L390 237 L390 241 L389 242 L389 247 L388 248 L388 249 L387 250 L387 251 L386 252 L386 253 L385 254 L384 254 L383 255 L383 261 L381 263 L380 263 L377 266 L377 268 L376 269 L376 272 L377 273 L377 274 L379 276 L379 278 L373 284 L373 285 L372 286 L372 287 L371 288 L371 294 L373 296 L373 297 L371 299 L371 300 L368 303 L368 304 L367 305 L367 308 L364 311 L364 313 L363 314 L363 316 L364 317 L364 320 L365 321 L365 322 L366 323 L366 328 L367 329 L367 330 L368 331 L368 339 L367 340 L367 343 L366 344 L366 348 L365 349 L365 352 L364 353 L364 355 L363 356 L363 360 L362 361 L362 362 L361 363 L360 363 L358 361 L357 361 L356 360 L355 360 L354 359 L353 359 L352 358 L350 358 L349 357 L348 357 L347 356 L346 356 L345 355 L344 355 L343 354 L342 354 L341 353 L340 353 L339 352 L333 352 L332 351 L331 352 L329 352 L328 351 L323 351 L322 350 L319 350 L318 349 L306 349 L305 350 L304 350 L303 349 L296 349 L295 348 L292 348 L291 349 L285 349 L284 350 L277 350 L276 351 L273 351 L272 352 L267 352 L266 353 L263 353 L262 354 L258 354 L257 355 L256 354 L255 354 L254 355 L253 355 L250 358 L249 358 L248 359 L247 359 L246 360 L244 360 L243 361 L241 361 L240 362 L237 362 L236 363 L234 363 L233 364 L231 364 L230 365 L226 365 L225 366 L222 366 L221 367 L220 367 L219 368 L216 368 L215 369 L213 369 L212 370 L211 370 L210 371 L209 371 L208 372 L206 372 L205 373 L204 373 L202 375 L201 375 L200 376 L199 376 L198 377 L197 377 L196 378 L195 378 L194 379 L193 379 L191 381 L190 381 L189 382 L188 382 L187 383 L186 383 L184 385 L183 385 L180 388 L179 388 L172 395 L172 396 L171 397 L171 398 L172 399 L175 399 L176 398 L177 398 L178 397 L183 397 L184 398 L186 398 L187 399 L188 399 L189 400 L191 400 L192 401 L193 401 L194 402 L196 402 L197 403 L198 403 L201 406 L202 406 L212 416 L212 417 L214 419 L214 420 L215 421 L215 422 L219 426 L220 426 L223 429 L224 429 L231 436 L232 436 L235 439 L237 439 L238 440 L239 440 L240 441 L241 441 L242 442 L243 442 L245 444 L245 445 L247 447 L248 447 L252 451 L253 451 L254 452 L256 452 L257 453 L258 453 L259 454 L260 454 L261 455 L262 455 L265 458 L266 458 L268 460 L269 460 L270 461 L273 461 L274 462 L277 462 L278 463 L279 463 L280 464 L282 464 L283 465 L284 465 L288 469 L289 469 L291 471 L292 471 L293 472 L294 472 L295 473 L296 473 L297 474 L299 474 L300 475 L302 475 L303 476 L306 476 L307 477 L309 477 L310 478 L312 478 L313 479 L314 479 L315 480 L317 480 L318 481 L319 481 L320 482 L321 482 L323 484 L327 484 L328 485 L331 485 L333 487 L332 488 L332 491 L331 492 L331 496 L330 497 L330 500 L329 501 L328 501 L327 500 L326 500 L325 499 L323 499 L322 498 L319 498 L318 497 L315 497 L314 496 L311 496 L310 495 L306 495 L305 494 L302 494 L301 493 L272 493 L272 496 L275 499 L275 500 L277 502 L277 503 L278 504 L278 505 L279 506 L279 507 L280 508 L280 514 L281 514 L282 515 L283 515 L285 517 L286 517 L288 519 L288 521 L287 522 L286 522 L285 523 L284 523 L283 524 L281 524 L280 525 L277 525 L276 526 L271 526 L270 527 L268 527 L267 528 L266 528 L263 531 L262 531 L261 530 L261 522 L260 521 L260 516 L259 515 L259 504 L258 503 L258 502 L257 501 L257 499 L256 498 L256 497 L255 496 L255 495 L253 493 L253 492 L251 490 L250 490 L249 489 L248 489 L247 488 L245 488 L244 487 L243 487 L242 486 L240 486 L239 485 L237 485 L236 484 L232 484 L231 483 L227 483 L226 482 L209 482 L208 483 L206 483 L205 484 L203 484 L201 486 L196 486 L195 487 L190 487 L189 488 L186 488 L185 489 L181 489 L180 490 L176 490 L175 491 L174 491 L173 492 L171 492 L170 493 L169 493 L168 494 L167 494 L165 496 L164 496 L155 505 L155 506 L152 509 L152 510 L146 516 L144 516 L143 517 L141 517 L140 518 L138 518 L137 519 L136 519 L135 520 L134 520 L132 522 L131 522 L115 538 L115 539 L110 544 L110 545 L107 548 L107 549 L104 552 L104 553 L103 554 L103 555 L100 558 L100 559 L99 560 L99 561 L97 563 L97 564 L95 566 L95 567 L94 568 L94 569 L93 570 L93 571 L92 572 L92 573 L91 574 L91 575 L90 576 L90 577 L89 578 L89 579 L88 580 L88 582 L87 583 L87 584 L86 585 L86 587 L85 588 L85 590 L84 591 L84 594 L83 595 L83 601 L85 603 L86 602 L87 602 L90 599 L90 598 L98 590 L99 590 L100 589 L101 589 L103 587 L104 587 L105 586 L106 586 L107 585 L108 585 L109 584 L111 584 L112 583 L113 583 L114 582 L119 582 L120 581 L124 581 L125 582 L130 582 L131 583 L135 583 L136 584 L140 584 L141 585 L145 585 L146 586 L162 586 L163 585 L175 585 L176 584 L186 584 L187 583 L192 583 L193 582 L196 582 L197 581 L199 581 L200 580 L202 580 L203 579 L205 579 L206 578 L208 578 L209 577 L211 577 L212 576 L214 576 L215 575 L216 575 L217 574 L219 574 L220 573 L221 573 L222 572 L224 572 L225 571 L226 571 L227 570 L230 570 L231 569 L232 569 L233 570 L232 571 L232 572 L231 573 L231 574 L230 575 L230 576 L229 577 L229 578 L228 579 L228 580 L227 581 L227 582 L226 583 L226 584 L225 585 L225 587 L224 588 L224 590 L223 591 L223 592 L222 593 L222 595 L221 596 L221 599 L220 600 L220 601 L219 602 L219 605 L218 606 L218 608 L217 609 L217 614 L216 615 L216 621 L217 622 L217 629 L216 630 L216 634 L215 635 L215 640 L214 641 L214 642 L215 643 L215 650 L214 651 L213 650 L205 650 L204 649 L203 650 L202 650 L201 649 L199 649 L198 648 L196 648 L195 647 L195 645 L194 644 L194 643 L193 642 L193 641 L192 640 L192 639 L191 638 L191 637 L182 628 L180 628 L179 627 L176 627 L175 626 L166 626 L165 627 L158 627 L157 628 L154 628 L153 629 L152 629 L151 630 L150 630 L149 631 L148 631 L147 632 L146 632 L145 633 L144 633 L143 634 L142 634 L139 637 L138 637 L136 639 L135 639 L132 642 L131 642 L122 651 L122 652 L119 655 L119 656 L116 659 L116 660 L114 662 L114 663 L112 665 L112 666 L111 667 L111 668 L110 669 L110 670 L109 671 L109 672 L108 673 L108 674 L107 675 L107 677 L106 678 L106 680 L105 681 L105 682 L104 683 L104 686 L103 687 L103 688 L102 689 L102 691 L101 692 L101 693 L100 694 L100 695 L99 696 L99 697 L98 698 L98 699 L97 700 L97 702 L95 704 L95 705 L94 706 L94 707 L93 708 L93 709 L92 710 L92 711 L91 712 L91 713 L90 714 L90 716 L89 717 L89 718 L88 719 L88 721 L87 722 L87 726 L86 727 L86 744 L87 745 L87 768 L88 769 L88 780 L89 781 L89 782 L90 783 L91 783 L93 781 L93 780 L95 778 L95 777 L99 773 L99 772 L107 764 L107 763 L109 761 L110 761 L113 758 L114 758 L116 756 L117 756 L118 755 L119 755 L120 754 L122 754 L123 753 L124 753 L125 752 L126 752 L127 751 L129 751 L130 750 L131 750 L132 749 L134 749 L135 748 L136 748 L137 747 L138 747 L139 746 L141 746 L142 745 L145 745 L146 744 L150 744 L151 743 L153 743 L154 742 L157 742 L158 741 L160 741 L161 740 L162 740 L163 739 L164 739 L166 737 L167 737 L169 735 L170 735 L174 731 L175 731 L178 728 L179 728 L181 726 L182 726 L191 717 L191 716 L195 712 L195 711 L198 708 L198 707 L200 705 L200 703 L201 702 L201 701 L202 700 L202 698 L203 697 L203 694 L204 693 L204 690 L205 689 L205 687 L206 686 L206 682 L207 681 L207 677 L208 676 L208 672 L209 671 L209 669 L208 668 L208 665 L207 664 L207 663 L208 662 L212 662 L213 661 L217 661 L219 663 L219 666 L220 667 L220 671 L221 672 L221 676 L222 677 L222 680 L223 681 L223 683 L224 684 L224 686 L225 687 L225 690 L226 691 L226 693 L227 694 L227 695 L228 696 L228 698 L229 699 L229 700 L230 701 L230 702 L235 707 L239 707 L239 706 L241 704 L241 702 L242 701 L242 700 L243 699 L243 698 L244 697 L244 696 L246 694 L246 693 L248 691 L249 691 L250 690 L251 691 L251 693 L250 694 L250 695 L249 696 L249 698 L248 699 L248 701 L247 702 L247 704 L246 705 L246 707 L245 708 L245 710 L244 711 L244 712 L243 713 L243 715 L242 716 L242 717 L241 718 L241 720 L240 721 L240 722 L239 723 L239 725 L238 726 L238 728 L237 729 L237 732 L236 733 L236 735 L234 737 L233 736 L229 736 L228 737 L225 737 L224 738 L221 738 L220 739 L219 739 L218 740 L216 740 L215 741 L214 741 L213 742 L212 742 L211 743 L210 743 L207 746 L206 746 L205 747 L204 747 L201 750 L201 751 L200 752 L201 753 L191 763 L191 764 L189 766 L189 767 L188 768 L188 769 L186 771 L186 772 L185 773 L185 774 L184 775 L184 777 L183 778 L183 782 L182 783 L182 789 L181 790 L181 791 L180 792 L180 794 L179 795 L179 799 L178 800 L178 803 L177 804 L177 807 L176 808 L176 812 L175 813 L175 821 L174 822 L174 827 L175 828 L175 834 L176 835 L176 843 L177 844 L177 848 L176 849 L175 848 L174 848 L173 847 L172 847 L171 846 L165 846 L164 845 L164 843 L163 842 L163 839 L162 838 L162 837 L161 836 L161 834 L160 833 L160 831 L159 830 L159 829 L158 828 L158 827 L157 826 L157 825 L154 822 L154 821 L151 818 L150 818 L147 815 L146 815 L145 814 L144 814 L143 813 L142 813 L141 812 L139 812 L138 811 L134 811 L133 810 L129 810 L128 811 L123 811 L122 812 L120 812 L119 813 L117 813 L116 814 L113 814 L112 815 L110 815 L109 816 L106 816 L105 817 L104 817 L103 818 L101 818 L100 819 L98 819 L97 820 L96 820 L95 821 L94 821 L93 822 L91 822 L89 824 L88 824 L87 825 L85 825 L83 827 L82 827 L80 829 L79 829 L72 836 L72 837 L68 841 L68 842 L61 849 L60 849 L57 852 L56 852 L53 855 L52 855 L48 859 L47 859 L44 862 L44 863 L33 874 L32 874 L26 880 L25 880 L24 881 L23 881 L22 882 L21 882 L20 883 L18 883 L17 884 L14 884 L11 887 L11 890 L12 891 L12 894 L18 900 L19 900 L23 904 L24 904 L26 906 L27 906 L28 907 L29 907 L31 909 L32 909 L33 910 L34 910 L35 911 L37 911 L38 912 L39 912 L40 913 L41 913 L42 914 L43 914 L44 915 L46 915 L47 916 L48 916 L49 917 L51 917 L52 918 L54 918 L55 919 L57 919 L58 920 L60 920 L61 921 L63 921 L64 922 L67 922 L68 923 L71 923 L72 924 L77 924 L78 925 L82 925 L83 926 L102 926 L103 925 L109 925 L110 924 L114 924 L115 923 L120 923 L121 922 L126 922 L127 921 L132 921 L133 920 L134 921 L135 920 L140 920 L141 919 L143 919 L144 918 L145 918 L146 917 L147 917 L148 916 L149 916 L159 906 L159 905 L165 899 L165 898 L168 895 L168 894 L170 892 L170 891 L172 889 L172 888 L173 887 L173 886 L174 885 L174 884 L175 883 L175 881 L176 880 L176 877 L177 876 L177 872 L178 871 L178 869 L179 868 L180 869 L180 871 L181 872 L181 873 L182 874 L182 876 L183 877 L183 879 L184 880 L184 882 L185 883 L185 886 L186 887 L186 889 L187 890 L187 891 L188 892 L188 893 L189 894 L189 896 L190 897 L190 898 L191 899 L191 900 L192 901 L192 902 L193 903 L193 904 L194 905 L194 906 L196 908 L196 910 L198 912 L198 913 L199 914 L199 915 L201 917 L201 918 L213 930 L217 930 L217 929 L218 928 L218 926 L220 924 L220 923 L221 922 L221 921 L222 920 L222 918 L223 917 L223 916 L225 914 L226 915 L226 917 L225 918 L225 949 L226 950 L226 952 L225 953 L223 951 L222 951 L220 949 L219 949 L218 948 L208 948 L206 950 L205 950 L202 953 L201 953 L200 954 L199 954 L198 955 L197 955 L194 958 L193 958 L188 963 L188 964 L186 966 L186 967 L185 968 L185 969 L184 970 L184 972 L183 973 L183 975 L182 976 L182 978 L181 979 L181 985 L180 986 L180 991 L179 992 L179 1007 L180 1008 L180 1013 L181 1014 L181 1017 L182 1018 L182 1020 L183 1021 L183 1023 L184 1024 L184 1025 L185 1026 L185 1027 L186 1028 L186 1029 L187 1030 L187 1031 L189 1033 L189 1034 L192 1037 L192 1038 L194 1040 L194 1041 L195 1042 L195 1043 L198 1046 L198 1047 L200 1049 L201 1049 L211 1059 L211 1060 L212 1061 L212 1064 L210 1066 L210 1067 L204 1073 L203 1073 L200 1076 L199 1076 L198 1077 L197 1077 L196 1078 L195 1078 L194 1079 L193 1079 L192 1080 L190 1080 L189 1081 L184 1081 L183 1082 L181 1080 L181 1079 L182 1078 L182 1076 L183 1075 L183 1071 L182 1070 L182 1068 L181 1067 L181 1065 L180 1064 L180 1063 L179 1062 L179 1061 L178 1060 L178 1059 L176 1057 L176 1056 L172 1052 L172 1051 L166 1045 L165 1045 L164 1044 L163 1044 L162 1043 L161 1043 L160 1042 L159 1042 L158 1041 L155 1041 L154 1040 L152 1040 L151 1039 L148 1039 L147 1038 L143 1038 L142 1037 L121 1037 L120 1038 L115 1038 L114 1039 L109 1039 L108 1040 L107 1040 L102 1035 L102 1034 L101 1033 L101 1032 L100 1032 L96 1036 L96 1037 L95 1038 L95 1042 L96 1043 L96 1045 L97 1046 L97 1048 L98 1049 L98 1052 L99 1053 L99 1055 L100 1056 L100 1059 L101 1060 L101 1062 L102 1063 L102 1064 L103 1065 L103 1067 L104 1068 L104 1069 L105 1070 L105 1071 L107 1073 L107 1074 L108 1075 L108 1076 L110 1078 L110 1079 L113 1082 L113 1083 L115 1085 L115 1086 L119 1090 L119 1091 L123 1095 L124 1095 L126 1097 L127 1097 L129 1099 L130 1099 L131 1100 L132 1100 L133 1101 L135 1101 L136 1102 L138 1102 L139 1103 L141 1103 L142 1104 L146 1104 L147 1105 L157 1105 L158 1104 L160 1104 L161 1103 L163 1103 L164 1102 L166 1102 L167 1101 L168 1101 L169 1100 L170 1100 L171 1099 L172 1099 L176 1095 L181 1095 L182 1094 L186 1094 L187 1093 L190 1093 L191 1092 L193 1092 L194 1091 L196 1091 L197 1090 L198 1090 L199 1089 L200 1089 L201 1088 L202 1088 L203 1087 L204 1087 L205 1086 L206 1086 L208 1084 L209 1084 L212 1081 L213 1081 L215 1079 L216 1079 L217 1080 L217 1081 L216 1082 L216 1088 L215 1089 L215 1095 L214 1096 L214 1102 L213 1103 L213 1106 L212 1107 L212 1109 L211 1110 L211 1111 L210 1112 L210 1113 L208 1115 L208 1117 L207 1118 L207 1122 L206 1123 L206 1124 L205 1125 L205 1127 L204 1128 L204 1129 L203 1130 L203 1132 L202 1133 L202 1136 L201 1137 L201 1139 L200 1140 L200 1141 L199 1142 L199 1143 L196 1146 L196 1147 L191 1152 L191 1153 L182 1162 L181 1162 L178 1165 L176 1165 L175 1166 L172 1166 L171 1167 L167 1167 L166 1168 L165 1168 L164 1169 L163 1169 L162 1170 L160 1170 L159 1171 L157 1171 L156 1172 L153 1172 L152 1173 L146 1173 L145 1174 L137 1174 L136 1173 L131 1173 L130 1172 L127 1172 L126 1171 L124 1171 L123 1170 L122 1170 L121 1169 L120 1169 L117 1166 L117 1165 L114 1162 L114 1161 L106 1153 L106 1152 L102 1148 L102 1147 L101 1146 L101 1145 L99 1143 L99 1142 L98 1141 L98 1140 L96 1138 L96 1137 L95 1136 L95 1135 L93 1133 L93 1131 L89 1127 L86 1127 L86 1128 L85 1129 L85 1132 L84 1133 L84 1143 L85 1144 L85 1147 L84 1148 L83 1147 L81 1147 L80 1146 L77 1146 L76 1145 L73 1145 L72 1144 L54 1144 L53 1145 L51 1145 L50 1146 L48 1146 L47 1147 L45 1147 L44 1148 L42 1148 L41 1149 L40 1149 L39 1150 L37 1150 L36 1151 L35 1151 L34 1152 L33 1152 L32 1153 L31 1153 L30 1154 L28 1154 L27 1155 L26 1155 L25 1156 L24 1156 L23 1157 L22 1157 L21 1158 L20 1158 L20 1160 L21 1161 L23 1161 L24 1162 L25 1162 L26 1163 L28 1163 L29 1164 L31 1164 L32 1165 L33 1165 L35 1167 L36 1167 L39 1170 L40 1170 L42 1172 L43 1172 L45 1174 L46 1174 L47 1175 L48 1175 L49 1176 L50 1176 L51 1177 L53 1177 L54 1178 L55 1178 L56 1179 L58 1179 L59 1180 L61 1180 L62 1181 L64 1181 L65 1182 L67 1182 L68 1183 L70 1183 L71 1184 L74 1184 L75 1185 L79 1185 L80 1186 L92 1186 L93 1185 L96 1185 L98 1183 L99 1183 L101 1181 L102 1181 L103 1180 L103 1179 L105 1177 L106 1177 L109 1174 L110 1174 L111 1175 L112 1175 L113 1176 L114 1176 L115 1177 L116 1177 L117 1178 L119 1178 L120 1179 L122 1179 L123 1180 L124 1180 L125 1181 L128 1181 L129 1182 L132 1182 L133 1183 L137 1183 L138 1184 L153 1184 L154 1185 L153 1186 L153 1187 L150 1190 L150 1191 L149 1192 L149 1193 L148 1194 L148 1195 L147 1196 L147 1197 L146 1198 L146 1200 L145 1201 L145 1205 L144 1206 L144 1215 L145 1216 L145 1223 L146 1224 L146 1228 L147 1229 L147 1231 L148 1232 L148 1234 L149 1235 L149 1237 L150 1238 L150 1240 L151 1241 L151 1244 L152 1245 L152 1248 L153 1249 L153 1253 L154 1254 L154 1263 L151 1266 L149 1266 L148 1267 L147 1267 L146 1268 L144 1268 L143 1269 L140 1269 L139 1270 L137 1270 L136 1271 L120 1271 L119 1272 L115 1272 L114 1273 L113 1273 L112 1274 L108 1274 L107 1275 L105 1275 L104 1276 L90 1276 L89 1275 L87 1275 L85 1277 L85 1281 L87 1283 L89 1283 L90 1284 L93 1284 L94 1285 L100 1285 L101 1286 L105 1286 L106 1287 L110 1287 L111 1288 L112 1288 L113 1289 L116 1289 L117 1290 L127 1290 L128 1289 L129 1289 L130 1288 L131 1288 L132 1287 L133 1287 L134 1286 L135 1286 L136 1285 L137 1285 L139 1283 L140 1283 L141 1282 L142 1282 L144 1280 L145 1280 L147 1278 L148 1278 L150 1276 L151 1276 L153 1274 L154 1274 L157 1271 L158 1271 L160 1273 L163 1273 L164 1272 L165 1272 L169 1268 L170 1268 L171 1267 L172 1267 L174 1265 L175 1265 L177 1263 L178 1263 L179 1262 L180 1262 L181 1261 L182 1261 L183 1260 L184 1260 L185 1259 L186 1259 L188 1257 L189 1257 L192 1254 L193 1254 L206 1241 L206 1240 L207 1239 L208 1239 L208 1238 L210 1236 L210 1235 L213 1232 L213 1231 L214 1230 L214 1229 L215 1228 L215 1227 L216 1226 L216 1225 L217 1224 L217 1223 L218 1222 L218 1220 L219 1219 L219 1216 L220 1215 L220 1208 L221 1207 L221 1197 L220 1196 L220 1192 L219 1191 L219 1190 L218 1189 L218 1188 L217 1187 L217 1186 L215 1184 L215 1183 L214 1182 L214 1168 L213 1167 L213 1155 L212 1154 L212 1149 L213 1148 L213 1145 L214 1144 L214 1143 L216 1141 L216 1140 L218 1138 L218 1136 L219 1135 L219 1133 L220 1132 L220 1130 L221 1129 L221 1126 L222 1125 L222 1121 L223 1120 L223 1116 L224 1115 L224 1112 L225 1111 L225 1107 L226 1106 L226 1101 L227 1100 L227 1096 L228 1095 L228 1090 L229 1089 L229 1080 L230 1079 L230 1076 L231 1075 L232 1075 L233 1076 L234 1076 L236 1078 L237 1078 L238 1079 L239 1079 L240 1080 L241 1080 L242 1081 L243 1081 L245 1083 L246 1083 L247 1084 L248 1084 L249 1085 L251 1085 L253 1087 L254 1087 L255 1088 L257 1088 L259 1090 L260 1090 L261 1091 L262 1091 L263 1092 L264 1092 L265 1093 L266 1093 L267 1094 L268 1094 L270 1096 L272 1096 L274 1098 L276 1098 L277 1099 L279 1099 L281 1101 L283 1101 L284 1102 L285 1102 L286 1103 L287 1103 L288 1104 L289 1104 L290 1105 L291 1105 L292 1106 L294 1106 L295 1107 L296 1106 L297 1106 L299 1104 L299 1099 L298 1098 L298 1094 L297 1093 L297 1090 L296 1089 L296 1079 L297 1078 L297 1067 L298 1066 L298 1061 L299 1060 L299 1057 L300 1056 L300 1051 L301 1050 L301 1023 L300 1022 L300 1016 L299 1015 L299 998 L298 997 L298 992 L297 991 L297 988 L296 987 L296 986 L295 985 L295 982 L294 981 L294 978 L293 977 L293 975 L292 974 L292 973 L291 972 L291 970 L290 969 L290 967 L289 966 L289 965 L288 964 L288 963 L286 961 L286 960 L285 959 L285 958 L281 954 L281 953 L278 950 L278 949 L270 941 L269 941 L267 939 L266 939 L265 938 L264 938 L263 937 L261 937 L260 936 L258 936 L257 935 L254 935 L253 934 L249 934 L248 933 L247 934 L241 934 L240 933 L240 923 L239 922 L239 912 L238 911 L239 910 L239 900 L240 899 L240 897 L243 894 L243 893 L244 892 L244 891 L250 885 L250 884 L254 880 L254 879 L256 877 L256 876 L258 874 L258 873 L260 871 L260 870 L261 869 L261 868 L263 866 L263 865 L264 864 L264 863 L265 862 L265 861 L266 860 L266 859 L267 858 L267 857 L268 856 L268 855 L269 854 L269 853 L271 851 L271 850 L274 847 L274 846 L276 844 L276 843 L280 839 L280 838 L283 835 L283 834 L285 832 L285 831 L287 829 L287 828 L289 826 L289 825 L290 824 L290 823 L291 822 L291 821 L292 820 L292 819 L293 818 L293 817 L294 816 L294 814 L295 813 L295 812 L296 811 L296 810 L297 809 L297 806 L298 805 L298 802 L299 801 L300 801 L301 802 L301 806 L302 807 L302 812 L303 813 L303 815 L304 816 L304 820 L305 821 L305 824 L306 825 L306 827 L307 828 L307 833 L308 834 L308 838 L309 839 L309 842 L310 843 L310 848 L311 849 L311 853 L312 854 L312 857 L313 858 L313 862 L314 863 L314 868 L315 869 L315 872 L316 873 L316 878 L317 879 L317 883 L318 884 L318 886 L319 887 L319 890 L320 891 L320 895 L321 896 L321 898 L322 899 L322 902 L323 903 L323 906 L324 907 L324 911 L325 912 L325 914 L326 915 L326 922 L327 923 L327 927 L326 928 L326 941 L325 942 L325 949 L331 955 L331 956 L333 958 L333 959 L334 960 L334 961 L336 963 L336 964 L340 968 L340 969 L346 975 L346 976 L348 978 L348 979 L355 986 L356 986 L360 990 L361 990 L364 993 L365 993 L366 994 L367 994 L368 995 L371 995 L372 996 L374 996 L375 997 L379 997 L380 998 L385 998 L386 999 L401 999 L402 1000 L408 1000 L409 1001 L413 1001 L414 1002 L417 1002 L418 1003 L422 1003 L423 1004 L428 1004 L429 1005 L441 1005 L442 1006 L452 1006 L453 1007 L460 1007 L462 1009 L462 1018 L461 1019 L461 1023 L462 1024 L462 1025 L461 1026 L461 1029 L462 1030 L462 1036 L461 1037 L461 1039 L462 1040 L462 1042 L463 1043 L463 1056 L464 1057 L465 1057 L468 1060 L468 1061 L467 1062 L467 1064 L466 1065 L466 1066 L465 1067 L465 1068 L464 1069 L464 1070 L463 1071 L463 1072 L462 1073 L462 1074 L461 1075 L461 1077 L460 1078 L460 1081 L459 1082 L459 1085 L458 1086 L458 1089 L457 1090 L457 1092 L456 1093 L456 1095 L455 1096 L455 1099 L454 1100 L454 1103 L453 1104 L453 1108 L452 1109 L452 1113 L451 1114 L451 1119 L450 1120 L450 1126 L449 1127 L449 1144 L448 1145 L448 1173 L449 1174 L449 1203 L450 1204 L450 1213 L451 1214 L451 1245 L450 1246 L450 1265 L449 1266 L449 1279 L448 1280 L448 1291 L447 1292 L447 1298 L446 1299 L446 1303 L445 1304 L445 1309 L444 1310 L444 1313 L443 1314 L443 1317 L442 1318 L442 1322 L441 1323 L441 1325 L440 1326 L440 1328 L439 1329 L439 1331 L438 1332 L438 1335 L437 1336 L437 1338 L436 1339 L436 1341 L435 1342 L435 1343 L434 1344 L434 1345 L433 1346 L433 1348 L431 1350 L431 1352 L429 1354 L429 1357 L431 1359 L431 1360 L435 1364 L435 1365 L443 1365 L447 1361 L448 1362 L448 1366 L449 1367 L449 1368 L453 1372 L453 1373 L454 1374 L455 1374 L457 1376 L458 1376 L459 1377 L464 1377 L465 1376 L466 1376 L469 1373 L469 1370 L470 1369 L470 1368 L471 1367 L471 1366 L472 1365 L472 1364 L473 1363 L474 1363 L476 1365 L476 1370 L477 1371 L477 1373 L476 1374 L476 1377 L479 1380 L489 1380 L489 1379 L490 1378 L490 1376 L491 1375 L491 1373 L490 1372 L491 1371 L492 1371 L493 1372 L493 1374 L495 1376 L496 1376 L497 1377 L498 1377 L499 1378 L505 1378 L507 1376 L508 1376 L509 1375 L510 1375 L513 1372 L514 1372 L517 1369 L517 1368 L520 1365 L521 1365 L523 1367 L524 1367 L526 1369 L527 1369 L528 1368 L530 1368 L532 1366 L533 1366 L535 1364 L535 1363 L539 1359 L539 1357 L535 1353 L535 1352 L534 1351 L534 1349 L533 1348 L533 1346 L532 1345 L532 1343 L531 1342 L531 1338 L530 1337 L530 1334 L529 1333 L529 1330 L528 1329 L528 1325 L527 1324 L527 1321 L526 1320 L526 1318 L525 1317 L525 1313 L524 1312 L524 1308 L523 1307 L523 1302 L522 1301 L522 1291 L521 1290 L521 1275 L520 1274 L520 1257 L519 1256 L519 1236 L520 1235 L519 1234 L520 1233 L520 1220 L521 1219 L521 1208 L522 1207 L522 1185 L523 1184 L523 1157 L522 1156 L522 1143 L521 1142 L521 1135 L520 1134 L520 1130 L519 1129 L519 1123 L518 1122 L518 1118 L517 1117 L517 1111 L516 1110 L516 1107 L515 1106 L515 1101 L514 1100 L514 1096 L513 1095 L513 1092 L512 1091 L512 1087 L511 1086 L511 1082 L510 1081 L510 1078 L509 1077 L509 1075 L508 1074 L508 1071 L507 1070 L507 1068 L506 1067 L506 1065 L505 1064 L505 1063 L504 1062 L504 1061 L503 1060 L505 1058 L506 1058 L508 1056 L508 1054 L509 1053 L509 1049 L510 1048 L510 1046 L511 1045 L511 1042 L510 1041 L510 1036 L511 1035 L511 1030 L512 1029 L512 1023 L511 1022 L511 1007 L512 1006 L520 1006 L521 1005 L533 1005 L534 1004 L543 1004 L544 1003 L552 1003 L553 1002 L558 1002 L559 1001 L564 1001 L565 1000 L568 1000 L569 999 L572 999 L573 998 L576 998 L577 997 L580 997 L581 998 L584 998 L585 999 L591 999 L592 998 L598 998 L599 997 L601 997 L602 996 L604 996 L605 995 L606 995 L607 994 L608 994 L610 992 L611 992 L612 991 L613 991 L615 989 L616 989 L622 983 L622 982 L623 981 L623 980 L624 979 L624 978 L625 977 L625 976 L627 974 L627 972 L628 971 L628 970 L630 968 L630 967 L632 965 L632 964 L633 963 L633 962 L634 961 L634 959 L635 958 L635 955 L637 953 L638 953 L641 950 L642 950 L642 949 L643 948 L643 947 L644 946 L644 945 L645 944 L645 943 L646 942 L646 938 L647 937 L647 932 L646 931 L646 925 L645 924 L645 923 L642 920 L642 919 L644 917 L644 916 L645 915 L645 908 L646 907 L646 901 L647 900 L647 895 L648 894 L648 889 L649 888 L649 883 L650 882 L650 875 L651 874 L651 870 L652 869 L652 861 L653 860 L653 858 L654 857 L655 857 L656 858 L656 860 L657 861 L657 866 L658 867 L658 869 L659 870 L659 874 L660 875 L660 877 L662 879 L662 881 L664 883 L664 884 L665 885 L665 887 L666 888 L666 890 L667 891 L667 893 L668 894 L668 930 L669 931 L671 931 L675 927 L676 927 L677 926 L678 926 L680 924 L681 924 L682 923 L683 923 L684 922 L685 922 L687 920 L688 920 L690 918 L691 918 L700 909 L701 909 L702 908 L703 908 L705 906 L706 906 L707 905 L708 905 L710 903 L711 903 L712 902 L713 902 L714 901 L715 901 L718 898 L719 898 L720 897 L720 896 L721 895 L722 895 L724 893 L725 894 L725 899 L724 900 L724 906 L723 907 L723 912 L722 913 L722 918 L721 919 L721 927 L720 928 L720 932 L719 933 L719 940 L718 941 L718 947 L717 948 L717 949 L716 950 L715 950 L713 948 L712 948 L711 947 L709 947 L708 946 L706 946 L705 945 L703 945 L702 944 L697 944 L696 945 L694 945 L693 946 L692 946 L691 947 L689 947 L687 949 L686 949 L682 953 L681 953 L678 956 L678 957 L672 963 L672 964 L669 967 L669 968 L667 970 L667 971 L666 972 L666 973 L664 975 L664 976 L663 977 L663 978 L662 979 L662 980 L661 981 L661 982 L660 983 L660 985 L659 986 L659 988 L658 989 L658 991 L657 992 L657 993 L656 994 L656 997 L655 998 L655 1000 L654 1001 L654 1004 L653 1005 L653 1010 L652 1011 L652 1014 L651 1015 L651 1018 L650 1019 L650 1022 L649 1023 L649 1029 L648 1030 L648 1036 L647 1037 L647 1042 L646 1043 L646 1052 L645 1053 L645 1060 L646 1061 L646 1069 L647 1070 L647 1073 L648 1074 L648 1078 L649 1079 L649 1083 L650 1084 L650 1090 L651 1091 L651 1108 L652 1109 L652 1113 L651 1114 L651 1122 L653 1124 L659 1124 L660 1123 L662 1123 L663 1122 L665 1122 L666 1121 L667 1121 L668 1120 L669 1120 L670 1119 L671 1119 L672 1118 L673 1118 L675 1116 L676 1116 L677 1115 L678 1115 L679 1114 L680 1114 L682 1112 L683 1112 L684 1111 L685 1111 L686 1110 L687 1110 L688 1109 L689 1109 L690 1108 L691 1108 L692 1107 L693 1107 L695 1105 L696 1105 L697 1104 L698 1104 L699 1103 L700 1103 L701 1102 L702 1102 L703 1101 L704 1101 L705 1100 L706 1100 L707 1099 L708 1099 L710 1097 L711 1097 L712 1096 L713 1096 L715 1094 L716 1094 L718 1092 L719 1092 L721 1090 L722 1090 L723 1089 L724 1090 L724 1116 L725 1117 L725 1147 L726 1148 L726 1156 L727 1157 L727 1164 L728 1165 L728 1171 L729 1172 L729 1175 L730 1176 L730 1180 L731 1181 L731 1184 L732 1185 L732 1187 L733 1188 L733 1190 L734 1191 L734 1192 L735 1193 L735 1194 L736 1195 L736 1196 L738 1198 L738 1199 L747 1208 L748 1208 L750 1210 L751 1210 L752 1211 L753 1211 L754 1212 L755 1212 L756 1213 L758 1213 L760 1215 L760 1221 L761 1222 L761 1228 L762 1229 L762 1232 L763 1233 L763 1236 L764 1237 L764 1240 L765 1241 L765 1243 L766 1244 L766 1245 L767 1246 L767 1247 L768 1248 L768 1249 L769 1250 L769 1251 L770 1252 L770 1253 L771 1254 L771 1255 L773 1257 L773 1258 L774 1259 L774 1260 L776 1262 L776 1263 L780 1267 L780 1268 L795 1283 L796 1283 L801 1288 L802 1288 L809 1295 L809 1296 L812 1299 L812 1300 L813 1301 L813 1302 L815 1304 L815 1305 L816 1306 L816 1307 L817 1308 L817 1310 L818 1311 L818 1312 L819 1313 L819 1317 L820 1318 L820 1323 L821 1324 L821 1325 L822 1326 L824 1326 L825 1325 L826 1325 L828 1323 L829 1323 L835 1317 L835 1316 L838 1313 L838 1312 L841 1309 L841 1308 L843 1306 L843 1305 L845 1303 L845 1302 L846 1301 L846 1300 L847 1299 L847 1298 L848 1297 L848 1296 L849 1295 L849 1294 L850 1293 L850 1292 L851 1291 L851 1290 L852 1289 L852 1288 L854 1286 L854 1285 L855 1284 L855 1283 L856 1282 L856 1280 L857 1279 L857 1278 L858 1277 L858 1274 L859 1273 L859 1270 L860 1269 L860 1265 L861 1264 L861 1260 L862 1259 L862 1255 L863 1254 L863 1247 L864 1246 L864 1236 L863 1235 L863 1226 L862 1225 L862 1222 L861 1221 L861 1219 L860 1218 L860 1215 L859 1214 L859 1213 L858 1212 L858 1210 L857 1209 L857 1208 L856 1207 L856 1206 L855 1205 L855 1204 L854 1203 L854 1202 L853 1201 L853 1200 L851 1198 L851 1197 L849 1195 L849 1194 L847 1192 L847 1191 L844 1188 L844 1187 L836 1179 L836 1178 L840 1174 L841 1174 L844 1171 L845 1171 L849 1167 L850 1167 L854 1163 L855 1163 L866 1152 L872 1152 L873 1151 L877 1151 L878 1150 L881 1150 L882 1149 L883 1149 L884 1148 L885 1148 L886 1147 L887 1147 L897 1137 L897 1136 L900 1133 L900 1132 L902 1130 L902 1129 L904 1127 L904 1126 L905 1125 L905 1124 L906 1123 L906 1121 L907 1120 L907 1119 L908 1118 L908 1116 L909 1115 L909 1113 L910 1112 L910 1110 L911 1109 L911 1106 L912 1105 L912 1103 L913 1102 L913 1100 L914 1099 L914 1097 L915 1096 L915 1094 L916 1093 L916 1089 L917 1088 L917 1086 L916 1085 L916 1082 L913 1082 L912 1083 L912 1084 L910 1086 L910 1087 L908 1089 L908 1090 L905 1093 L905 1094 L901 1098 L900 1098 L897 1101 L896 1101 L893 1104 L892 1104 L891 1105 L890 1105 L888 1107 L887 1107 L884 1110 L883 1110 L879 1114 L878 1114 L866 1126 L866 1127 L864 1129 L864 1130 L863 1131 L863 1132 L862 1133 L862 1135 L861 1136 L861 1139 L860 1140 L860 1141 L859 1142 L859 1144 L855 1148 L855 1149 L849 1155 L848 1155 L843 1160 L842 1160 L839 1163 L838 1163 L835 1166 L834 1166 L832 1168 L831 1168 L829 1170 L828 1170 L827 1171 L826 1171 L825 1172 L824 1172 L823 1173 L821 1173 L820 1174 L818 1174 L817 1175 L815 1175 L814 1176 L812 1176 L811 1177 L810 1177 L809 1178 L808 1178 L807 1179 L806 1179 L802 1183 L801 1183 L801 1184 L799 1186 L798 1186 L797 1187 L797 1188 L796 1189 L795 1189 L794 1188 L793 1188 L790 1185 L789 1185 L787 1183 L786 1183 L785 1182 L784 1182 L783 1181 L775 1181 L774 1182 L773 1182 L771 1184 L770 1184 L767 1187 L767 1188 L764 1191 L764 1192 L763 1193 L763 1194 L760 1197 L757 1197 L756 1196 L754 1196 L752 1194 L751 1194 L750 1193 L750 1192 L748 1190 L748 1188 L747 1187 L747 1185 L746 1184 L746 1181 L745 1180 L745 1177 L744 1176 L744 1173 L743 1172 L743 1168 L742 1167 L742 1161 L741 1160 L741 1152 L740 1151 L740 1130 L739 1129 L739 1113 L740 1112 L742 1114 L742 1115 L744 1117 L745 1117 L748 1120 L749 1120 L750 1121 L751 1121 L753 1123 L754 1123 L755 1124 L757 1124 L758 1125 L761 1125 L762 1126 L774 1126 L776 1128 L776 1132 L774 1134 L773 1134 L772 1135 L770 1135 L769 1136 L768 1136 L764 1140 L764 1141 L762 1143 L762 1144 L761 1145 L761 1146 L760 1147 L759 1147 L758 1148 L758 1151 L759 1151 L760 1152 L772 1152 L773 1151 L779 1151 L780 1150 L781 1150 L782 1149 L784 1149 L785 1148 L786 1148 L787 1147 L788 1147 L790 1145 L791 1145 L793 1143 L794 1143 L799 1138 L800 1138 L801 1137 L801 1136 L804 1133 L804 1132 L807 1129 L809 1129 L810 1130 L811 1130 L812 1131 L813 1131 L814 1132 L815 1132 L816 1133 L825 1133 L826 1132 L828 1132 L829 1131 L831 1131 L832 1130 L833 1130 L834 1129 L835 1129 L836 1128 L838 1128 L843 1123 L843 1122 L844 1121 L844 1120 L846 1118 L846 1116 L847 1115 L847 1113 L848 1112 L848 1110 L849 1109 L849 1106 L850 1105 L850 1091 L849 1090 L849 1087 L848 1086 L848 1085 L847 1084 L847 1083 L846 1082 L846 1081 L843 1078 L843 1077 L836 1070 L835 1070 L832 1067 L831 1067 L828 1064 L827 1064 L826 1063 L825 1063 L824 1062 L823 1062 L821 1060 L820 1060 L819 1059 L818 1059 L817 1058 L816 1058 L815 1057 L814 1057 L813 1056 L811 1056 L810 1055 L807 1055 L806 1054 L786 1054 L785 1055 L783 1055 L781 1057 L780 1057 L779 1058 L778 1058 L774 1062 L774 1063 L773 1064 L773 1066 L774 1067 L774 1069 L775 1070 L775 1072 L776 1073 L776 1075 L777 1076 L777 1078 L778 1079 L778 1081 L779 1082 L779 1083 L780 1084 L780 1086 L781 1087 L781 1088 L782 1089 L782 1102 L781 1103 L781 1110 L780 1111 L780 1112 L779 1113 L775 1113 L774 1114 L762 1114 L761 1113 L760 1113 L747 1100 L747 1099 L746 1098 L746 1097 L745 1096 L745 1095 L744 1094 L744 1093 L743 1092 L743 1091 L742 1090 L742 1088 L741 1087 L741 1086 L740 1085 L740 1083 L739 1082 L739 1077 L741 1075 L741 1074 L744 1071 L744 1070 L746 1068 L746 1067 L748 1065 L748 1064 L749 1063 L749 1062 L752 1059 L752 1058 L755 1055 L756 1055 L761 1050 L761 1049 L762 1048 L762 1047 L764 1045 L764 1044 L765 1043 L765 1041 L766 1040 L766 1039 L767 1038 L767 1037 L768 1036 L768 1035 L769 1034 L769 1033 L770 1032 L770 1029 L771 1028 L771 1022 L772 1021 L771 1020 L771 1011 L772 1010 L772 1003 L773 1002 L772 1001 L772 994 L771 993 L771 988 L770 987 L770 983 L769 982 L769 981 L768 980 L768 979 L766 977 L766 976 L757 967 L756 967 L755 966 L754 966 L753 965 L752 965 L751 964 L749 964 L748 963 L745 963 L744 962 L737 962 L736 963 L734 963 L733 964 L732 964 L731 965 L730 965 L729 966 L728 966 L727 965 L727 963 L728 962 L728 960 L729 959 L729 957 L730 956 L730 953 L731 952 L731 944 L732 943 L732 939 L734 937 L735 937 L737 935 L738 935 L739 934 L740 934 L749 925 L749 924 L751 922 L751 921 L754 918 L754 917 L755 916 L756 916 L757 917 L757 918 L758 919 L758 920 L759 921 L759 922 L760 923 L760 925 L761 926 L761 927 L762 928 L762 929 L764 931 L764 932 L766 934 L766 935 L769 938 L769 939 L772 942 L772 943 L777 948 L777 949 L778 950 L779 950 L783 954 L784 954 L786 956 L787 956 L789 958 L790 958 L794 962 L794 963 L809 978 L809 979 L812 982 L813 982 L817 986 L818 986 L819 987 L820 987 L822 989 L823 989 L825 991 L826 991 L828 993 L829 993 L830 994 L831 994 L833 996 L834 996 L835 997 L836 997 L839 1000 L840 1000 L845 1005 L845 1006 L848 1009 L848 1010 L854 1016 L855 1016 L858 1013 L858 1012 L860 1010 L860 1009 L861 1008 L861 1006 L862 1005 L862 1003 L863 1002 L863 1001 L864 1000 L864 998 L865 997 L865 994 L866 993 L866 989 L867 988 L867 984 L868 983 L868 980 L869 979 L869 971 L870 970 L870 965 L871 964 L871 949 L870 948 L870 946 L869 945 L869 943 L868 942 L868 940 L867 939 L867 937 L866 936 L866 932 L865 931 L865 926 L864 925 L864 924 L863 923 L863 921 L862 920 L862 915 L863 914 L863 911 L862 910 L862 908 L861 907 L861 906 L860 905 L860 903 L859 902 L859 901 L858 900 L858 898 L857 897 L857 895 L856 894 L856 893 L854 891 L854 890 L852 888 L852 887 L850 885 L850 884 L835 869 L834 869 L831 866 L830 866 L827 863 L826 863 L824 861 L822 861 L821 860 L820 860 L819 859 L818 859 L817 858 L815 858 L814 857 L811 857 L810 856 L796 856 L795 857 L794 857 L793 858 L792 858 L789 861 L789 862 L787 864 L787 866 L786 867 L786 868 L785 869 L785 871 L784 872 L784 873 L782 875 L781 874 L780 874 L779 873 L778 873 L777 872 L775 872 L774 871 L769 871 L768 872 L766 872 L765 873 L764 873 L759 878 L759 879 L758 880 L758 881 L757 882 L757 883 L756 884 L756 887 L755 888 L755 893 L754 894 L754 900 L753 901 L753 902 L752 903 L752 904 L743 913 L743 914 L742 915 L741 915 L737 919 L736 919 L735 918 L735 911 L736 910 L736 901 L737 900 L737 895 L738 894 L738 888 L739 887 L739 883 L741 881 L741 880 L748 873 L748 872 L752 868 L752 867 L755 864 L755 863 L756 862 L756 861 L758 859 L758 858 L759 857 L759 856 L760 855 L760 854 L761 853 L761 852 L762 851 L762 850 L763 849 L763 848 L764 847 L764 845 L765 844 L765 842 L766 841 L766 839 L767 838 L767 835 L768 834 L768 831 L769 830 L769 826 L770 825 L770 818 L771 817 L771 798 L770 797 L770 794 L769 793 L769 791 L768 790 L768 789 L767 788 L767 787 L766 786 L766 785 L764 783 L764 782 L757 775 L756 775 L754 773 L753 773 L752 772 L751 772 L750 771 L747 771 L746 770 L742 770 L741 769 L739 769 L738 768 L737 768 L736 767 L736 766 L735 765 L735 761 L734 760 L734 759 L733 758 L733 752 L735 750 L736 751 L738 751 L739 752 L753 752 L754 751 L758 751 L759 750 L761 750 L762 749 L763 749 L764 748 L766 748 L767 747 L768 747 L769 746 L770 746 L771 745 L772 745 L773 744 L774 744 L776 742 L777 742 L778 741 L779 741 L780 740 L781 740 L783 738 L784 738 L785 739 L785 754 L786 755 L786 757 L787 758 L787 760 L788 761 L788 762 L789 763 L789 764 L790 765 L790 767 L791 768 L791 770 L792 771 L792 772 L793 773 L793 774 L794 775 L794 777 L796 779 L796 780 L797 781 L797 782 L798 783 L798 784 L800 786 L800 787 L802 789 L802 790 L804 792 L804 793 L818 807 L819 807 L821 809 L822 809 L823 810 L824 810 L825 811 L826 811 L827 812 L828 812 L829 813 L833 813 L836 816 L836 817 L837 818 L837 819 L838 820 L838 821 L839 822 L839 823 L841 825 L841 826 L850 835 L851 835 L852 836 L853 836 L855 838 L857 838 L858 839 L859 839 L860 840 L861 840 L862 841 L865 841 L866 842 L871 842 L872 843 L875 843 L876 844 L877 844 L879 846 L880 846 L883 849 L884 849 L888 853 L888 854 L891 857 L891 858 L892 859 L892 860 L893 861 L893 863 L894 864 L894 866 L895 867 L895 869 L896 870 L896 871 L897 872 L897 873 L898 874 L900 874 L901 873 L901 872 L903 870 L903 869 L905 867 L905 866 L906 865 L906 863 L907 862 L907 859 L908 858 L908 853 L909 852 L909 849 L910 848 L910 840 L911 839 L911 814 L910 813 L910 809 L909 808 L909 806 L908 805 L908 804 L907 803 L907 802 L906 801 L906 800 L905 799 L905 798 L900 793 L899 793 L892 786 L892 785 L891 784 L891 783 L892 782 L892 779 L894 777 L894 776 L895 775 L895 774 L896 773 L896 769 L895 768 L895 764 L894 763 L894 759 L893 758 L893 756 L892 755 L892 753 L890 751 L890 749 L889 748 L889 747 L888 746 L888 745 L886 743 L886 742 L885 741 L885 740 L883 738 L883 737 L881 735 L881 734 L879 732 L879 731 L876 728 L876 727 L873 724 L873 723 L869 719 L869 718 L864 713 L863 713 L858 708 L857 708 L855 706 L854 706 L852 704 L851 704 L849 702 L848 702 L847 701 L846 701 L845 700 L842 700 L841 699 L827 699 L826 700 L824 700 L823 701 L822 701 L821 702 L820 702 L819 703 L818 703 L816 705 L815 705 L812 708 L811 708 L808 711 L808 712 L806 714 L806 717 L804 719 L802 719 L801 718 L800 718 L799 717 L796 717 L795 718 L793 718 L792 719 L791 719 L785 725 L784 725 L782 727 L781 727 L779 729 L778 729 L777 730 L776 730 L774 732 L773 732 L772 733 L771 733 L770 734 L768 734 L767 735 L766 735 L765 736 L763 736 L762 737 L759 737 L758 738 L745 738 L744 737 L742 737 L741 736 L740 736 L739 735 L737 735 L736 734 L735 734 L734 733 L734 728 L733 727 L733 723 L732 722 L732 719 L731 718 L731 716 L730 715 L730 714 L729 713 L729 710 L728 709 L728 707 L727 706 L727 704 L726 703 L726 702 L725 701 L725 699 L724 698 L724 696 L723 695 L723 694 L722 693 L722 692 L721 691 L721 689 L720 688 L720 687 L718 685 L718 684 L717 683 L717 682 L716 681 L716 680 L714 678 L714 677 L708 671 L708 670 L699 661 L698 661 L690 653 L689 653 L687 651 L686 651 L684 649 L683 649 L682 648 L681 648 L680 647 L678 647 L677 646 L671 646 L670 645 L670 643 L672 641 L673 641 L674 640 L675 640 L678 637 L679 637 L684 632 L684 631 L688 627 L689 627 L690 628 L691 628 L695 632 L696 632 L709 645 L710 645 L712 647 L713 647 L714 648 L715 648 L717 650 L718 650 L732 664 L733 664 L736 667 L737 667 L739 669 L740 669 L742 671 L743 671 L744 672 L745 672 L746 673 L747 673 L749 675 L751 675 L752 676 L753 676 L754 677 L756 677 L757 678 L758 678 L759 679 L761 679 L762 680 L764 680 L765 681 L767 681 L768 682 L770 682 L771 683 L773 683 L774 684 L775 684 L777 686 L778 686 L780 688 L781 688 L790 697 L790 698 L792 700 L792 701 L793 702 L793 703 L794 704 L794 706 L795 707 L795 708 L796 709 L798 709 L801 706 L801 705 L802 704 L802 703 L803 702 L803 701 L804 700 L804 698 L805 697 L805 695 L806 694 L806 692 L807 691 L807 689 L808 688 L808 683 L809 682 L809 674 L810 673 L810 666 L811 665 L811 640 L810 639 L810 636 L809 635 L809 633 L808 632 L808 630 L807 629 L807 626 L806 625 L806 622 L805 621 L805 617 L804 616 L804 612 L803 611 L803 609 L802 608 L802 606 L801 605 L801 603 L800 602 L800 600 L799 599 L799 598 L798 597 L798 596 L797 595 L797 593 L796 592 L796 591 L795 590 L795 589 L793 587 L793 586 L780 573 L781 572 L782 572 L783 571 L785 571 L786 570 L789 570 L790 569 L792 569 L793 568 L794 568 L795 567 L796 567 L797 566 L798 566 L799 565 L800 565 L801 564 L803 564 L804 563 L805 563 L806 562 L807 562 L808 561 L809 561 L810 560 L811 560 L812 559 L813 559 L814 558 L815 558 L817 556 L818 556 L820 554 L821 554 L822 553 L823 553 L826 550 L827 550 L830 547 L831 547 L835 543 L835 542 L838 539 L838 538 L840 536 L840 535 L841 534 L841 533 L842 532 L842 531 L843 530 L843 529 L844 528 L844 527 L845 526 L845 524 L846 523 L846 522 L847 521 L847 519 L848 518 L848 517 L849 516 L849 514 L850 513 L850 511 L851 510 L851 509 L852 508 L852 507 L853 506 L853 505 L854 504 L854 501 L855 500 L855 497 L856 496 L856 494 L857 493 L857 489 L858 488 L858 485 L859 484 L859 481 L860 480 L860 476 L861 475 L861 469 L862 468 L862 442 L861 441 L861 433 L860 432 L860 427 L859 426 L859 420 L858 419 L858 417 L857 416 L857 414 L856 413 L856 412 L855 411 L855 410 L854 410 L851 407 L850 407 L848 409 L848 411 L847 412 L847 413 L846 414 L846 415 L838 423 L837 423 L834 426 L833 426 L831 428 L830 428 L829 429 L828 429 L827 430 L825 430 L824 431 L820 431 L819 432 L814 432 L813 433 L810 433 L809 434 L806 434 L805 435 L802 435 L801 436 L799 436 L798 437 L795 437 L794 438 L792 438 L791 439 L790 439 L789 440 L787 440 L785 442 L784 442 L780 446 L779 446 L777 448 L776 448 L775 449 L774 449 L773 450 L771 450 L770 451 L769 451 L768 452 L767 452 L766 453 L765 453 L764 454 L763 454 L761 456 L760 456 L759 457 L758 457 L756 459 L755 459 L753 461 L752 461 L749 464 L748 464 L747 465 L746 465 L744 467 L743 467 L742 468 L741 468 L737 472 L736 472 L735 473 L734 473 L733 474 L732 474 L720 462 L720 461 L717 458 L716 458 L715 457 L714 457 L713 456 L712 456 L711 455 L706 455 L705 454 L694 454 L693 453 L676 453 L675 454 L673 454 L672 455 L670 455 L669 456 L668 456 L666 458 L664 458 L662 460 L661 460 L657 464 L656 464 L654 466 L653 466 L653 467 L651 469 L651 470 L648 473 L648 474 L647 475 L647 476 L646 477 L646 480 L645 481 L645 483 L644 484 L643 484 L641 482 L641 481 L639 479 L638 479 L637 478 L636 478 L635 477 L634 477 L633 476 L632 476 L630 474 L630 471 L629 470 L629 467 L628 466 L628 464 L627 463 L627 459 L626 458 L626 455 L625 454 L625 451 L624 450 L624 447 L623 446 L623 441 L625 439 L628 439 L629 438 L631 438 L632 437 L634 437 L635 436 L638 436 L639 435 L641 435 L642 434 L644 434 L645 433 L649 433 L650 432 L653 432 L654 431 L663 431 L664 430 L672 430 L673 429 L678 429 L679 428 L683 428 L684 427 L687 427 L688 426 L691 426 L692 425 L694 425 L695 424 L697 424 L698 423 L700 423 L701 422 L702 422 L703 421 L704 421 L705 420 L707 420 L708 419 L709 419 L710 420 L715 420 L716 421 L719 421 L720 422 L723 422 L724 421 L724 419 L722 417 L722 416 L717 411 L716 411 L714 409 L713 409 L712 408 L711 408 L710 407 L709 407 L707 405 L706 405 L705 404 L704 404 L703 403 L702 403 L700 401 L698 401 L697 400 L696 400 L695 399 L694 399 L693 398 L692 398 L690 396 L689 396 L688 395 L687 395 L684 392 L682 392 L681 391 L680 391 L679 390 L677 390 L676 389 L673 389 L672 388 L654 388 L653 389 L650 389 L649 388 L649 381 L648 380 L648 379 L647 378 L647 377 L646 376 L646 375 L645 375 L644 374 L643 374 L642 373 L641 373 L640 372 L637 372 L636 371 L633 371 L632 370 L629 370 L628 369 L621 369 L620 370 L617 370 L616 371 L614 371 L613 372 L608 372 L606 370 L606 368 L605 367 L605 364 L604 363 L604 359 L603 358 L603 352 L602 351 L602 349 L599 346 L599 343 L600 342 L600 339 L601 338 L601 336 L602 335 L602 326 L601 325 L601 321 L600 320 L600 314 L599 313 L599 312 L597 310 L597 303 L598 302 L598 296 L596 294 L596 293 L594 291 L593 291 L592 290 L591 290 L590 289 L589 289 L588 288 L588 287 L590 285 L590 284 L591 283 L591 282 L592 281 L592 279 L593 278 L593 276 L592 275 L592 272 L591 271 L591 270 L590 269 L590 268 L587 265 L586 265 L585 264 L583 264 L581 262 L581 261 L582 260 L582 255 L581 254 L580 254 L579 253 L579 252 L578 251 L578 249 L577 248 L577 247 L576 246 L576 242 L575 241 L575 238 L574 237 L574 232 L573 231 L573 228 L572 227 L572 224 L571 223 L571 220 L570 219 L570 215 L569 214 L569 211 L568 210 L568 207 L567 206 L567 202 L566 201 L566 198 L565 197 L565 194 L564 193 L564 189 L563 188 L563 184 L562 183 L562 180 L561 179 L561 176 L560 175 L560 171 L559 170 L559 167 L558 166 L558 163 L557 162 L557 159 L556 158 L556 155 L555 154 L555 150 L554 149 L554 146 L553 145 L553 142 L552 141 L552 138 L551 137 L551 134 L550 133 L550 130 L549 129 L549 126 L548 125 L548 122 L547 121 L547 119 L546 118 L546 115 L545 114 L545 110 L544 109 L544 105 L543 104 L543 101 L542 100 L542 97 L541 96 L541 93 L540 92 L540 89 L539 88 L539 85 L538 84 L538 81 L537 80 L537 77 L536 76 L536 73 L535 72 L535 69 L534 68 L534 65 L533 64 L533 60 L532 59 L532 56 L531 55 L531 51 L530 50 L530 47 L529 46 L529 44 L528 43 L528 40 L527 39 L527 36 L526 35 L526 32 L525 31 L525 28 L524 27 L524 24 L523 23 L523 21 L522 20 L522 17 L521 16 L521 12 L520 11 L520 8 L519 7 L519 4 L518 3 L518 0 L513 0 L513 2 L514 3 L514 6 L515 7 L515 10 L516 11 L516 14 L517 15 L517 18 L518 19 L518 23 L519 24 L519 26 L520 27 L520 30 L521 31 L521 35 L522 36 L522 39 L523 40 L523 42 L524 43 L524 45 L525 46 L525 50 L526 51 L526 52 L527 53 L527 58 L528 59 L528 63 L529 64 L529 68 L530 69 L530 72 L531 73 L531 76 L532 77 L532 79 L533 80 L533 83 L534 84 L534 87 L535 88 L535 90 L536 91 L536 95 L537 96 L537 98 L538 99 L537 100 L538 101 L538 104 L539 105 L539 109 L540 110 L540 111 L541 112 L541 116 L542 117 L542 120 L543 121 L543 123 L544 124 L544 127 L545 128 L545 131 L546 132 L546 135 L547 136 L547 138 L548 139 L548 143 L549 144 L549 147 L550 148 L550 152 L551 153 L551 156 L552 157 L552 161 L553 162 L553 165 L554 166 L554 169 L555 170 L555 174 L556 175 L556 179 L557 180 L557 182 L558 183 L558 187 L559 188 L559 192 L560 193 L560 196 L561 197 L561 201 L562 202 L562 205 L563 206 L563 209 L564 210 L564 213 L565 214 L565 218 L566 219 L566 221 L567 222 L567 226 L568 227 L568 230 L569 231 L569 233 L570 234 L570 238 L571 239 L571 242 L572 243 L572 247 L573 248 L573 251 L574 252 L574 253 L575 254 L575 257 L576 258 L576 259 L577 260 L577 263 L576 264 L575 264 L574 265 L572 263 L572 261 L571 260 L571 257 L570 256 L570 254 L569 253 L569 251 L568 250 L568 247 L565 244 L565 243 L564 242 L564 241 L563 240 L563 237 L562 236 L562 232 L561 231 L561 229 L560 228 L560 224 L559 223 L559 220 L558 219 L558 216 L557 215 L557 213 L556 212 L557 211 L556 210 L556 207 L555 206 L555 202 L554 201 L554 197 L553 196 L553 192 L552 191 L552 189 L551 188 L551 184 L550 183 L550 179 L549 178 L549 175 L548 174 L548 171 L547 170 L547 167 L546 166 L546 162 L545 161 L545 157 L544 156 L544 154 L543 153 L543 150 L542 149 L542 145 L541 144 L541 142 L540 141 L540 137 L539 136 L539 134 L538 133 L538 130 L537 129 L537 126 L536 125 L536 121 L535 120 L535 118 L534 117 L534 113 L533 112 L533 110 L532 109 L532 105 L531 104 L531 102 L530 101 L530 98 L529 97 L529 94 L528 93 L528 90 L527 89 L527 87 L526 86 L526 84 L525 83 L525 80 L524 79 L524 76 L523 75 L523 71 L522 70 L522 68 L521 67 L521 63 L520 62 L520 58 L519 57 L519 55 L518 54 L518 50 L517 49 L517 45 L516 44 L516 43 L515 42 L515 38 L514 37 L514 34 L513 33 L513 30 L512 29 L512 26 L511 25 L511 21 L510 20 L510 18 L509 17 L509 13 L508 12 L508 10 L507 9 L507 6 L506 5 L506 2 L505 1 L505 0 L500 0 L500 1 L501 2 L501 5 L502 6 L502 9 L503 10 L503 13 L504 14 L504 17 L505 18 L505 20 L506 21 L506 24 L507 25 L507 28 L508 29 L508 33 L509 34 L509 36 L510 37 L510 41 L511 42 L511 45 L512 46 L512 49 L513 50 L513 53 L514 54 L514 58 L515 59 L515 62 L516 63 L516 67 L517 68 L517 72 L518 73 L518 76 L519 77 L519 79 L520 80 L520 83 L521 84 L521 87 L522 88 L522 91 L523 92 L523 95 L524 96 L524 98 L525 99 L525 102 L526 103 L526 105 L527 106 L527 108 L528 109 L528 112 L529 113 L529 116 L530 117 L530 120 L531 121 L531 125 L532 126 L532 129 L533 130 L533 133 L534 134 L534 138 L535 139 L535 142 L536 143 L536 145 L537 146 L537 149 L538 150 L538 153 L539 154 L539 156 L540 157 L540 161 L541 162 L541 166 L542 167 L542 170 L543 171 L543 174 L544 175 L544 179 L545 180 L545 183 L546 184 L546 187 L547 188 L547 191 L548 192 L548 195 L549 196 L549 200 L550 201 L550 207 L551 208 L551 211 L552 212 L552 215 L553 216 L553 220 L554 221 L554 224 L555 225 L555 227 L556 228 L556 231 L557 232 L557 235 L558 236 L558 238 L559 239 L559 242 L560 243 L560 245 L561 246 L561 248 L562 249 L562 250 L563 251 L563 253 L564 254 L564 257 L565 258 L565 261 L566 262 L566 265 L563 268 L563 269 L562 270 L562 272 L561 273 L561 276 L562 277 L562 280 L563 281 L563 282 L564 283 L564 284 L568 288 L568 291 L565 294 L565 296 L564 297 L564 303 L565 304 L565 305 L566 306 L566 307 L568 309 L568 310 L571 313 L571 314 L572 315 L572 316 L573 317 L573 318 L574 319 L574 321 L573 322 L573 324 L572 325 L572 333 L573 334 L573 335 L576 338 L576 339 L577 339 L580 342 L581 342 L582 343 L582 344 L583 345 L583 348 L584 349 L584 351 L585 352 L585 355 L586 356 L586 358 L587 359 L587 361 L588 362 L588 365 L589 366 L589 368 L590 369 L590 373 L589 374 L586 374 L585 375 L584 375 L583 376 L581 376 L580 377 L578 377 L577 378 L575 378 L574 379 L572 379 L571 380 L570 380 L569 381 L567 381 L566 382 L565 382 L563 384 L562 384 L561 385 L560 385 L557 388 L556 388 L548 396 L548 397 L544 401 L544 402 L539 407 L539 408 L537 410 L537 411 L536 412 L536 413 L535 414 L535 415 L534 416 L534 417 L533 418 L533 421 L532 422 L532 438 L533 439 L533 442 L534 443 L534 444 L535 445 L535 446 L536 447 L536 448 L537 449 L537 450 L539 452 L539 453 L541 455 L541 459 L540 460 L540 462 L539 463 L539 464 L538 465 L538 467 L537 468 L537 470 L536 471 L536 472 L535 473 L535 474 L534 475 L534 478 L531 481 L530 481 L529 480 L530 479 L530 469 L529 468 L529 461 L528 460 L528 444 L527 443 L527 423 L526 422 L526 407 L525 406 L525 395 L524 394 L524 383 L523 382 L523 375 L522 374 L522 365 L521 364 L521 354 L520 353 L520 346 L525 341 L525 340 L526 339 L526 333 L522 329 L522 323 L524 321 L524 318 L525 317 L525 314 L524 313 L524 309 L523 308 L523 307 L521 305 L521 301 L522 300 L522 297 L521 296 L521 292 L522 291 L522 289 L523 288 L523 283 L522 282 L522 281 L521 280 L521 278 L520 277 L520 275 L519 274 L519 272 L518 271 L517 271 L515 269 L515 262 L514 261 L514 242 L513 241 L513 225 L512 224 L512 210 L511 209 L511 193 L510 192 L510 176 L509 175 L509 158 L508 157 L508 139 L507 138 L507 126 L506 125 L506 109 L505 108 L505 89 L504 88 L504 76 L503 75 L503 64 L502 63 L502 53 L501 52 L501 39 L500 38 L500 29 L499 28 L499 20 L498 19 L498 10 L497 9 L497 2 L496 1 L496 0 L493 0 L493 5 L494 6 L494 15 L495 16 L495 33 L496 34 L496 50 L497 51 L497 54 L498 55 L498 66 L499 67 L499 78 L500 79 L500 98 L501 99 L501 112 L502 113 L501 114 L501 118 L502 119 L502 134 L503 135 L503 136 L502 137 L502 141 L503 142 L503 150 L504 151 L504 152 L503 153 L504 154 L504 170 L505 171 L505 188 L506 189 L505 190 L506 191 L506 202 L507 203 L507 212 L508 213 L508 228 L509 229 L509 238 L510 239 L510 256 L511 257 L510 258 L510 260 L511 261 L511 272 L509 274 L508 274 L507 275 L505 273 L506 272 L507 272 L507 271 L506 270 L506 268 L505 267 L505 262 L506 261 L506 260 L505 260 L504 259 L504 250 L503 249 L503 238 L502 237 L502 231 L501 230 L501 219 L500 218 L500 202 L499 201 L499 179 L498 178 L498 165 L497 164 L497 151 L496 150 L496 147 L497 146 L496 145 L496 137 L495 136 L495 135 L496 134 L495 133 L495 121 L494 120 L494 119 L495 118 L495 117 L494 116 L494 101 L493 100 L493 88 L492 87 L492 76 L491 75 L491 71 L492 70 L491 69 L491 59 L490 58 L490 56 L491 55 L491 48 L490 47 L490 42 L491 41 L491 39 L490 38 L490 34 L489 33 L489 30 L490 29 L491 30 L492 30 L492 29 L493 28 L493 27 L492 27 L492 28 L491 29 L490 29 L488 27 L488 22 L489 21 L488 20 L488 12 L487 11 L487 9 L488 8 L488 6 L487 5 L487 0 L475 0 L475 7 L474 8 L475 7 L475 6 L476 5 L477 5 L478 6 L478 21 L477 22 L477 23 L478 24 L478 29 L477 30 L477 39 L476 40 L476 53 L475 54 L475 68 L474 69 L474 80 L473 81 L473 97 L472 98 L472 113 L471 114 L471 128 L470 129 L470 143 L469 144 L469 162 L468 163 L468 178 L467 179 L467 191 L466 192 L466 210 L465 211 L465 220 L464 221 L464 231 L463 232 L463 250 L462 251 L462 264 L461 265 L461 269 L460 270 L455 270 L454 269 L455 268 L455 262 L456 261 L456 247 L457 246 L457 236 L458 235 L458 220 L459 219 L459 207 L460 206 L460 201 L459 200 L459 194 L460 193 L460 191 L459 190 L459 186 L460 185 L460 169 L461 168 L461 158 L462 157 L462 155 L461 154 L461 151 L462 150 L462 132 L463 131 L463 124 L464 123 L464 107 L465 106 L465 93 L466 92 L466 73 L467 72 L467 62 L468 61 L468 50 L469 49 L469 42 L470 41 L470 36 L469 35 L470 34 L470 30 L471 29 L471 28 L472 27 L472 24 L473 23 L473 22 L474 21 L472 21 L471 20 L471 14 L472 13 L472 11 L471 10 L471 9 L472 8 L471 7 L471 4 L473 2 L473 1 L472 0 L461 0 L461 1 L460 2 L460 4 L459 5 L459 9 L458 10 L458 14 L457 15 L457 17 L456 18 L456 22 L455 23 L455 26 L454 27 L454 29 L453 30 L453 33 L452 34 L452 37 L451 38 L451 42 L450 43 L450 45 L449 46 L449 50 L448 51 L448 54 L447 55 L447 57 L446 58 L446 62 L445 63 L445 65 L444 66 L444 69 L443 70 L443 73 L442 74 L442 76 L441 77 L441 80 L440 81 L440 84 L439 85 L439 88 L438 89 L438 92 L437 93 L437 96 L436 97 L436 101 L435 102 L435 105 L434 106 L434 109 L433 110 L433 114 L432 115 L432 118 L431 119 L431 122 L430 123 L430 127 L429 128 L429 132 L428 133 L428 137 L427 138 L427 141 L426 142 L426 146 L425 147 L425 150 L424 151 L424 154 L423 155 L423 158 L422 159 L422 163 L421 164 L421 167 L420 168 L420 171 L419 172 L419 175 L418 176 L418 178 L417 179 L417 182 L416 183 L416 185 L415 186 L415 189 L414 190 L414 194 L413 195 L413 198 L412 199 L412 203 L411 204 L411 206 L410 207 L410 210 L409 211 L409 214 L408 215 L408 218 L407 219 L407 222 L406 223 L406 227 L405 228 L405 230 L404 231 L404 235 L403 236 L403 239 L402 240 L402 242 L401 243 L401 245 L400 246 L400 249 L399 250 L399 254 L398 255 L398 258 L397 259 L397 262 L395 264 L392 264 L390 262 L390 260 L391 259 L391 257 L392 256 L392 252 L393 251 L393 246 L394 245 L394 241 L395 240 L395 237 L396 236 L396 233 L397 232 L397 229 L398 228 L398 225 L399 224 L399 221 L400 220 L400 218 L401 217 L401 216 L402 215 L402 210 L403 209 L403 207 L404 206 L404 202 L405 201 L405 197 L406 196 L406 194 L407 193 L407 191 L408 190 L408 186 L409 185 L409 183 L410 182 L410 178 L411 177 L411 174 L412 173 L412 171 L413 170 L413 166 L414 165 L414 160 L415 159 L415 156 L416 155 L416 153 L417 152 L417 149 L418 148 L418 145 L419 144 L419 140 L420 139 L420 135 L421 134 L421 131 L422 130 L422 126 L423 125 L423 122 L424 121 L424 117 L425 116 L425 114 L426 113 L426 109 L427 108 L427 104 L428 103 L428 101 L429 100 L429 96 L430 95 L430 91 L431 90 L431 86 L432 85 L432 82 L433 81 L433 79 L434 78 L434 75 L435 74 L435 71 L436 70 L436 68 L437 67 L437 64 L438 63 L438 60 L439 59 L439 57 L440 56 L440 53 L441 52 L441 50 L442 49 L442 46 L443 45 L443 43 L444 42 L444 38 L446 36 L446 34 L445 33 L445 31 L446 30 L446 28 L447 27 L447 23 L449 21 L449 17 L450 16 L450 12 L451 11 L451 8 L452 7 L452 5 L453 4 L453 2 L454 1 L454 0 Z " fill="black"/></svg>