<svg width="636" height="548" xmlns="http://www.w3.org/2000/svg"><path d="M437 11 L436 12 L435 12 L434 13 L433 13 L432 14 L431 14 L429 16 L428 16 L425 19 L425 20 L422 23 L422 24 L421 25 L421 26 L419 28 L419 30 L418 31 L418 33 L417 34 L417 36 L416 37 L416 40 L415 41 L415 43 L414 44 L414 47 L413 48 L413 50 L412 51 L412 54 L411 55 L411 58 L410 59 L410 63 L409 64 L409 67 L408 68 L408 71 L407 72 L407 75 L406 76 L406 80 L405 81 L405 84 L404 85 L404 89 L403 90 L403 94 L402 95 L402 99 L401 100 L401 104 L400 105 L400 109 L399 110 L399 112 L398 113 L397 112 L397 107 L398 106 L398 96 L399 95 L399 75 L398 74 L398 68 L397 67 L397 64 L396 63 L396 62 L395 61 L395 60 L394 59 L394 58 L393 57 L393 56 L391 54 L391 53 L386 48 L385 48 L384 47 L381 47 L380 46 L372 46 L371 47 L369 47 L368 48 L367 48 L366 49 L365 49 L357 57 L357 58 L355 60 L355 61 L354 62 L354 63 L353 64 L353 66 L352 67 L352 68 L351 69 L351 71 L350 72 L350 74 L349 75 L349 77 L348 78 L348 81 L347 82 L347 85 L346 86 L346 90 L345 91 L345 94 L344 95 L344 99 L343 100 L343 105 L342 106 L342 110 L341 111 L341 118 L340 119 L340 131 L339 132 L339 144 L338 145 L338 153 L337 154 L337 162 L336 163 L336 171 L335 172 L335 178 L334 179 L334 187 L333 188 L333 194 L332 195 L332 202 L331 203 L331 211 L330 212 L330 220 L329 221 L329 225 L328 226 L328 231 L327 232 L327 238 L326 239 L326 245 L325 246 L325 252 L324 253 L324 258 L323 259 L323 261 L322 262 L321 261 L321 260 L320 259 L320 255 L319 254 L319 249 L318 248 L318 244 L317 243 L317 239 L316 238 L316 235 L315 234 L315 232 L314 231 L314 228 L313 227 L313 224 L312 223 L312 220 L311 219 L311 215 L310 214 L310 212 L309 211 L309 209 L308 208 L308 206 L307 205 L307 203 L306 202 L306 200 L305 199 L305 197 L304 196 L304 193 L303 192 L303 189 L302 188 L302 186 L301 185 L301 182 L300 181 L300 178 L299 177 L299 174 L298 173 L298 169 L297 168 L297 165 L296 164 L296 160 L295 159 L295 156 L294 155 L294 152 L293 151 L293 148 L292 147 L292 143 L291 142 L291 138 L290 137 L290 133 L289 132 L289 127 L288 126 L288 121 L287 120 L287 117 L286 116 L286 113 L285 112 L285 110 L284 109 L284 106 L283 105 L283 103 L282 102 L282 98 L281 97 L281 95 L280 94 L280 91 L279 90 L279 88 L278 87 L278 84 L277 83 L277 81 L276 80 L276 78 L275 77 L275 76 L274 75 L274 73 L273 72 L273 71 L272 70 L272 69 L271 68 L271 67 L269 65 L269 64 L268 63 L268 62 L264 58 L264 57 L259 52 L258 52 L255 49 L254 49 L253 48 L252 48 L251 47 L244 47 L243 48 L240 48 L239 49 L238 49 L237 50 L236 50 L233 53 L232 53 L231 54 L231 55 L228 58 L228 59 L227 60 L227 61 L226 62 L226 64 L225 65 L225 68 L224 69 L224 82 L225 83 L225 91 L226 92 L226 96 L227 97 L227 101 L228 102 L228 105 L229 106 L229 109 L230 110 L230 113 L231 114 L231 117 L232 118 L232 121 L231 122 L230 121 L230 119 L229 118 L229 116 L228 115 L228 113 L227 112 L227 110 L226 109 L226 106 L225 105 L225 103 L224 102 L224 100 L223 99 L223 97 L222 96 L222 94 L221 93 L221 91 L220 90 L220 88 L219 87 L219 84 L218 83 L218 81 L217 80 L217 78 L216 77 L216 74 L215 73 L215 71 L214 70 L214 68 L213 67 L213 64 L212 63 L212 61 L211 60 L211 59 L210 58 L210 56 L209 55 L209 53 L208 52 L208 51 L207 50 L207 48 L206 47 L206 45 L205 44 L205 43 L204 42 L204 41 L203 40 L203 38 L202 37 L202 36 L201 35 L201 34 L199 32 L199 31 L198 30 L198 29 L190 21 L189 21 L188 20 L187 20 L186 19 L185 19 L184 18 L183 18 L182 17 L180 17 L179 16 L175 16 L174 15 L171 15 L170 16 L167 16 L166 17 L163 17 L162 18 L161 18 L160 19 L159 19 L152 26 L152 27 L151 28 L151 29 L150 30 L150 32 L149 33 L149 37 L148 38 L148 50 L149 51 L149 58 L150 59 L150 64 L151 65 L151 67 L152 68 L152 70 L153 71 L153 74 L154 75 L154 78 L155 79 L155 81 L156 82 L156 85 L157 86 L157 89 L158 90 L158 93 L159 94 L159 97 L160 98 L160 101 L161 102 L161 104 L162 105 L162 109 L163 110 L163 113 L164 114 L164 116 L165 117 L165 120 L166 121 L166 124 L167 125 L167 127 L168 128 L168 130 L169 131 L169 134 L170 135 L170 139 L169 140 L168 139 L168 138 L167 137 L167 135 L166 134 L166 132 L165 131 L165 129 L164 128 L164 126 L163 125 L163 123 L162 122 L162 121 L161 120 L161 118 L160 117 L160 115 L159 114 L159 112 L158 111 L158 109 L157 108 L157 107 L156 106 L156 104 L155 103 L155 102 L154 101 L154 99 L153 98 L153 96 L152 95 L152 94 L151 93 L151 91 L150 90 L150 88 L149 87 L149 86 L148 85 L148 83 L147 82 L147 80 L146 79 L146 78 L145 77 L145 75 L144 74 L144 72 L143 71 L143 70 L142 69 L142 67 L141 66 L141 64 L140 63 L140 62 L139 61 L139 60 L138 59 L138 57 L137 56 L137 54 L136 53 L136 52 L135 51 L135 49 L134 48 L134 47 L133 46 L133 45 L132 44 L132 43 L131 42 L131 41 L130 40 L130 39 L128 37 L128 36 L125 33 L125 32 L122 29 L122 28 L119 25 L118 25 L116 23 L115 23 L114 22 L113 22 L112 21 L110 21 L109 20 L105 20 L104 19 L100 19 L99 20 L95 20 L94 21 L92 21 L91 22 L90 22 L89 23 L88 23 L87 24 L86 24 L80 30 L80 31 L78 33 L78 34 L77 35 L77 36 L76 37 L76 38 L75 39 L75 41 L74 42 L74 49 L73 50 L73 55 L74 56 L74 64 L75 65 L75 69 L76 70 L76 72 L77 73 L77 76 L78 77 L78 79 L79 80 L79 82 L80 83 L80 85 L81 86 L81 88 L82 89 L82 91 L83 92 L83 93 L84 94 L84 97 L85 98 L85 100 L86 101 L86 102 L87 103 L87 105 L88 106 L88 108 L89 109 L89 111 L90 112 L90 114 L91 115 L91 118 L92 119 L92 120 L93 121 L93 124 L94 125 L94 127 L95 128 L95 130 L96 131 L96 132 L97 133 L97 135 L98 136 L98 138 L99 139 L99 140 L100 141 L100 143 L101 144 L101 146 L102 147 L102 148 L103 149 L103 151 L104 152 L104 153 L105 154 L105 156 L104 157 L103 156 L103 155 L102 154 L102 153 L101 152 L101 151 L100 150 L100 149 L99 148 L99 147 L98 146 L98 145 L97 144 L97 143 L96 142 L96 141 L95 140 L95 139 L94 138 L94 137 L93 136 L93 135 L92 134 L92 133 L91 132 L91 131 L90 130 L90 129 L89 128 L89 127 L88 126 L88 125 L87 124 L87 123 L86 122 L86 121 L85 120 L85 119 L84 118 L84 117 L82 115 L82 114 L81 113 L81 112 L80 111 L80 110 L79 109 L79 108 L78 107 L78 106 L77 105 L77 104 L76 103 L76 102 L75 101 L75 100 L74 99 L74 98 L73 97 L73 96 L72 95 L72 94 L70 92 L70 91 L69 90 L69 89 L67 87 L67 86 L65 84 L65 83 L59 77 L58 77 L57 76 L56 76 L55 75 L53 75 L52 74 L50 74 L49 73 L47 73 L46 72 L36 72 L35 73 L33 73 L31 75 L30 75 L25 80 L24 80 L23 81 L23 82 L21 84 L21 85 L20 86 L20 87 L19 88 L19 89 L18 90 L18 93 L17 94 L17 110 L18 111 L18 116 L19 117 L19 121 L20 122 L20 124 L21 125 L21 127 L22 128 L22 131 L23 132 L23 133 L24 134 L24 137 L25 138 L25 140 L26 141 L26 142 L27 143 L27 145 L28 146 L28 148 L29 149 L29 150 L30 151 L30 152 L31 153 L31 154 L32 155 L32 157 L33 158 L33 159 L34 160 L34 161 L35 162 L35 163 L36 164 L36 165 L37 166 L37 167 L38 168 L38 169 L39 170 L39 171 L40 172 L40 173 L41 174 L41 175 L42 176 L42 177 L43 178 L43 179 L44 180 L44 181 L45 182 L45 183 L46 184 L46 185 L47 186 L47 187 L48 188 L48 190 L49 191 L49 192 L50 193 L50 194 L51 195 L51 197 L52 198 L52 199 L53 200 L53 202 L54 203 L54 205 L55 206 L55 207 L56 208 L56 209 L57 210 L57 212 L58 213 L58 214 L59 215 L59 216 L60 217 L60 218 L61 219 L61 221 L62 222 L62 223 L63 224 L63 225 L64 226 L64 227 L65 228 L65 229 L66 230 L66 231 L67 232 L67 233 L68 234 L68 236 L69 237 L69 238 L70 239 L70 240 L71 241 L71 242 L72 243 L72 244 L71 245 L69 243 L68 243 L66 241 L65 241 L63 239 L62 239 L61 238 L60 238 L59 237 L57 237 L56 236 L55 236 L54 235 L52 235 L51 234 L50 234 L49 233 L47 233 L46 232 L45 232 L44 231 L42 231 L41 230 L40 230 L39 229 L37 229 L36 228 L33 228 L32 227 L27 227 L26 228 L23 228 L22 229 L21 229 L20 230 L19 230 L18 231 L17 231 L15 233 L15 234 L13 236 L13 237 L12 238 L12 242 L11 243 L11 248 L12 249 L12 254 L13 255 L13 257 L14 258 L14 260 L15 261 L15 263 L16 264 L16 266 L17 267 L17 268 L18 269 L18 270 L19 271 L19 272 L20 273 L20 274 L22 276 L22 277 L24 279 L24 280 L25 281 L25 282 L27 284 L27 285 L28 286 L28 287 L30 289 L30 290 L32 292 L32 293 L34 295 L34 296 L38 300 L38 301 L42 305 L42 306 L46 310 L46 311 L50 315 L50 316 L54 320 L54 321 L57 324 L57 325 L59 327 L59 328 L62 331 L62 332 L65 335 L65 336 L67 338 L67 339 L70 342 L70 343 L72 345 L72 346 L74 348 L74 349 L76 351 L76 352 L78 354 L78 355 L80 357 L80 358 L83 361 L83 362 L86 365 L86 366 L90 370 L90 371 L96 377 L96 378 L104 386 L104 387 L111 394 L112 394 L115 397 L116 397 L119 400 L120 400 L127 407 L128 407 L133 412 L134 412 L140 418 L141 418 L143 420 L143 421 L146 424 L146 425 L147 426 L147 427 L149 429 L149 430 L150 431 L150 432 L151 433 L151 434 L152 435 L152 436 L153 437 L153 439 L154 440 L154 441 L155 442 L155 443 L156 444 L156 445 L157 446 L157 448 L158 449 L158 451 L159 452 L159 454 L160 455 L160 458 L161 459 L161 461 L162 462 L162 465 L163 466 L163 491 L164 492 L164 501 L165 502 L165 508 L166 509 L166 517 L167 518 L167 523 L168 524 L168 526 L169 527 L169 529 L170 530 L170 531 L173 534 L175 534 L176 535 L179 535 L180 536 L186 536 L187 537 L202 537 L203 536 L214 536 L215 535 L221 535 L222 534 L229 534 L230 533 L232 533 L233 532 L237 532 L238 531 L243 531 L244 530 L247 530 L248 529 L251 529 L252 528 L255 528 L256 527 L259 527 L260 526 L262 526 L263 525 L265 525 L266 524 L268 524 L269 523 L271 523 L272 522 L273 522 L274 521 L276 521 L277 520 L279 520 L280 519 L281 519 L282 518 L284 518 L285 517 L287 517 L288 516 L289 516 L290 515 L292 515 L293 514 L295 514 L296 513 L297 513 L298 512 L299 512 L300 511 L302 511 L303 510 L304 510 L306 508 L307 508 L309 506 L310 506 L311 505 L312 505 L313 504 L314 504 L315 503 L318 503 L319 504 L322 504 L323 505 L325 505 L326 506 L327 506 L328 507 L331 507 L332 508 L334 508 L335 509 L336 509 L337 510 L339 510 L340 511 L342 511 L343 512 L345 512 L346 513 L347 513 L348 514 L350 514 L351 515 L353 515 L354 516 L355 516 L356 517 L358 517 L359 518 L361 518 L362 519 L367 519 L368 520 L370 520 L371 521 L374 521 L375 522 L378 522 L379 523 L381 523 L382 524 L385 524 L386 525 L389 525 L390 526 L392 526 L393 527 L396 527 L397 528 L400 528 L401 529 L404 529 L405 530 L409 530 L410 531 L416 531 L417 532 L424 532 L425 533 L457 533 L458 532 L467 532 L468 531 L474 531 L475 530 L476 530 L477 529 L478 529 L483 524 L483 523 L484 522 L484 521 L485 520 L485 519 L486 518 L486 517 L487 516 L487 505 L488 504 L488 495 L489 494 L489 455 L488 454 L488 436 L489 435 L489 432 L491 430 L491 429 L492 428 L492 426 L493 425 L493 424 L495 422 L495 420 L496 419 L496 418 L498 416 L498 415 L499 414 L499 413 L500 412 L500 411 L502 409 L502 408 L503 407 L503 406 L505 404 L505 403 L508 400 L508 399 L511 396 L511 395 L516 390 L516 389 L522 383 L522 382 L531 373 L531 372 L538 365 L538 364 L544 358 L544 357 L546 355 L546 354 L548 352 L548 351 L551 348 L551 347 L553 345 L553 344 L556 341 L556 340 L558 338 L558 337 L560 335 L560 334 L562 332 L562 331 L564 329 L564 328 L566 326 L566 325 L567 324 L567 323 L569 321 L569 320 L571 318 L571 317 L574 314 L574 313 L576 311 L576 310 L578 308 L578 307 L581 304 L581 303 L583 301 L583 300 L585 298 L585 297 L588 294 L588 293 L591 290 L591 289 L594 286 L594 285 L597 282 L597 281 L599 279 L599 278 L601 276 L601 275 L602 274 L602 273 L604 271 L604 270 L605 269 L605 268 L607 266 L607 265 L608 264 L608 263 L610 261 L610 260 L611 259 L611 258 L613 256 L613 255 L614 254 L614 253 L615 252 L615 251 L616 250 L616 249 L617 248 L617 247 L618 246 L618 245 L619 244 L619 242 L620 241 L620 240 L621 239 L621 237 L622 236 L622 234 L623 233 L623 230 L624 229 L624 224 L625 223 L625 219 L624 218 L624 214 L623 213 L623 212 L622 211 L622 210 L620 208 L620 207 L619 206 L618 206 L617 205 L616 205 L615 204 L613 204 L612 203 L606 203 L605 204 L601 204 L600 205 L598 205 L597 206 L596 206 L595 207 L593 207 L592 208 L591 208 L590 209 L589 209 L588 210 L587 210 L585 212 L584 212 L583 213 L582 213 L580 215 L579 215 L577 217 L576 217 L573 220 L572 220 L569 223 L568 223 L563 228 L562 228 L559 231 L558 231 L557 232 L556 232 L555 231 L555 225 L556 224 L556 223 L557 222 L557 220 L558 219 L558 217 L559 216 L559 214 L560 213 L560 212 L561 211 L561 209 L562 208 L562 207 L563 206 L563 204 L564 203 L564 202 L565 201 L565 199 L566 198 L566 197 L567 196 L567 194 L568 193 L568 191 L569 190 L569 189 L570 188 L570 186 L571 185 L571 184 L572 183 L572 181 L573 180 L573 179 L574 178 L574 176 L575 175 L575 173 L576 172 L576 171 L577 170 L577 168 L578 167 L578 166 L579 165 L579 164 L580 163 L580 161 L581 160 L581 159 L582 158 L582 156 L583 155 L583 154 L584 153 L584 151 L585 150 L585 149 L586 148 L586 147 L587 146 L587 144 L588 143 L588 141 L589 140 L589 139 L590 138 L590 137 L591 136 L591 134 L592 133 L592 132 L593 131 L593 129 L594 128 L594 126 L595 125 L595 123 L596 122 L596 120 L597 119 L597 117 L598 116 L598 113 L599 112 L599 110 L600 109 L600 106 L601 105 L601 102 L602 101 L602 97 L603 96 L603 91 L604 90 L604 75 L603 74 L603 72 L602 71 L602 70 L601 69 L601 68 L599 66 L599 65 L593 59 L592 59 L591 58 L590 58 L589 57 L587 57 L586 56 L576 56 L575 57 L572 57 L571 58 L570 58 L568 60 L567 60 L560 67 L560 68 L556 72 L556 73 L554 75 L554 76 L552 78 L552 79 L551 80 L551 81 L549 83 L549 84 L548 85 L548 86 L547 87 L547 88 L546 89 L546 90 L545 91 L545 92 L544 93 L544 94 L543 95 L543 96 L541 98 L541 100 L540 101 L540 102 L539 103 L539 104 L538 105 L538 106 L537 107 L537 108 L536 109 L536 110 L535 111 L535 113 L534 114 L534 116 L533 117 L533 118 L532 119 L532 120 L531 121 L531 123 L530 124 L530 125 L529 126 L529 127 L528 128 L528 130 L527 131 L527 132 L526 133 L525 132 L525 129 L526 128 L526 125 L527 124 L527 122 L528 121 L528 118 L529 117 L529 114 L530 113 L530 111 L531 110 L531 108 L532 107 L532 104 L533 103 L533 100 L534 99 L534 96 L535 95 L535 92 L536 91 L536 87 L537 86 L537 83 L538 82 L538 78 L539 77 L539 74 L540 73 L540 69 L541 68 L541 64 L542 63 L542 58 L543 57 L543 52 L544 51 L544 32 L543 31 L543 29 L542 28 L542 27 L541 26 L541 25 L540 24 L540 23 L537 20 L537 19 L535 17 L534 17 L531 14 L530 14 L529 13 L527 13 L526 12 L524 12 L523 11 L514 11 L513 12 L510 12 L509 13 L507 13 L506 14 L505 14 L504 15 L503 15 L495 23 L495 24 L493 26 L493 27 L492 28 L492 29 L491 30 L491 31 L490 32 L490 34 L489 35 L489 36 L488 37 L488 38 L487 39 L487 41 L486 42 L486 43 L485 44 L485 46 L484 47 L484 49 L483 50 L483 52 L482 53 L482 54 L481 55 L481 57 L480 58 L480 60 L479 61 L479 63 L478 64 L478 67 L477 68 L477 69 L476 70 L476 72 L475 73 L475 76 L474 77 L474 78 L473 79 L473 81 L472 82 L472 85 L471 86 L471 87 L470 88 L470 90 L469 91 L469 93 L468 94 L468 96 L467 97 L467 99 L466 100 L466 102 L465 103 L465 105 L464 106 L464 109 L463 110 L463 112 L462 113 L462 116 L461 117 L460 116 L460 111 L461 110 L461 106 L462 105 L462 98 L463 97 L463 91 L464 90 L464 84 L465 83 L465 77 L466 76 L466 69 L467 68 L467 59 L468 58 L468 46 L469 45 L469 35 L468 34 L468 30 L467 29 L467 27 L466 26 L466 25 L465 24 L465 23 L464 22 L464 21 L458 15 L457 15 L456 14 L455 14 L454 13 L453 13 L452 12 L449 12 L448 11 Z " fill="black"/></svg>