<svg width="716" height="885" xmlns="http://www.w3.org/2000/svg"><path d="M31 808 L30 809 L29 809 L28 810 L27 810 L26 811 L25 811 L24 812 L22 812 L21 813 L20 813 L19 814 L18 814 L17 815 L15 815 L14 816 L13 816 L12 817 L11 817 L10 818 L9 818 L7 820 L6 820 L4 822 L3 822 L1 824 L0 824 L0 862 L1 861 L5 861 L6 860 L8 860 L9 859 L10 859 L11 858 L13 858 L14 857 L16 857 L17 858 L18 858 L20 860 L20 861 L21 862 L21 864 L22 865 L22 866 L23 867 L23 868 L22 869 L18 865 L18 864 L17 863 L10 863 L9 862 L8 862 L7 863 L3 863 L2 864 L1 864 L0 865 L0 884 L119 884 L119 876 L118 875 L118 853 L116 851 L115 851 L114 850 L111 850 L110 849 L107 849 L106 848 L102 848 L101 847 L99 847 L98 846 L96 846 L95 845 L93 845 L92 844 L90 844 L89 843 L71 843 L70 844 L68 844 L67 845 L64 845 L63 846 L61 846 L60 845 L60 843 L59 842 L59 841 L58 840 L58 839 L57 838 L57 836 L56 835 L56 834 L54 832 L54 831 L51 828 L51 827 L48 824 L48 823 L44 819 L44 818 L42 816 L42 815 L41 814 L41 813 L37 809 L36 809 L35 808 Z M466 714 L466 720 L465 721 L465 727 L464 728 L464 734 L463 735 L463 737 L464 738 L464 750 L463 751 L461 749 L461 748 L460 747 L460 746 L459 745 L459 744 L457 742 L457 741 L456 740 L456 739 L455 738 L455 737 L454 736 L454 735 L453 734 L453 733 L452 732 L452 731 L450 729 L450 728 L447 725 L447 724 L445 722 L445 721 L443 719 L443 718 L441 716 L439 718 L439 725 L440 726 L440 730 L441 731 L441 736 L442 737 L442 741 L443 742 L443 744 L444 745 L444 748 L445 749 L445 752 L446 753 L446 756 L447 757 L447 759 L448 760 L448 762 L449 763 L449 765 L450 766 L450 768 L451 769 L451 772 L452 773 L452 776 L453 777 L453 780 L454 781 L454 783 L455 784 L455 787 L456 788 L456 792 L457 793 L457 796 L456 797 L453 794 L452 794 L450 792 L449 792 L447 790 L445 790 L444 789 L441 789 L440 788 L438 788 L436 786 L435 786 L434 785 L433 785 L432 784 L431 784 L430 783 L429 783 L428 782 L427 782 L426 781 L425 781 L424 780 L423 780 L422 779 L421 779 L420 778 L418 778 L417 777 L416 777 L415 776 L413 776 L409 772 L408 772 L405 769 L401 769 L400 768 L399 768 L394 763 L394 762 L390 758 L390 757 L389 756 L388 756 L387 757 L387 759 L388 760 L388 761 L391 764 L391 765 L393 767 L393 768 L397 772 L397 773 L401 777 L401 778 L404 781 L404 783 L405 784 L405 785 L406 786 L406 787 L407 788 L407 790 L408 791 L408 792 L409 793 L409 794 L410 795 L410 797 L409 798 L408 798 L405 795 L404 795 L402 793 L401 793 L399 791 L398 791 L397 790 L396 790 L394 788 L393 788 L391 786 L390 786 L389 785 L388 785 L386 783 L384 783 L383 782 L382 782 L381 781 L380 781 L378 779 L377 779 L376 778 L375 778 L374 779 L374 782 L378 786 L378 787 L380 789 L380 790 L381 791 L381 792 L383 794 L383 795 L393 805 L393 806 L397 810 L397 811 L401 815 L401 816 L403 818 L403 819 L405 821 L405 822 L411 828 L412 828 L419 835 L420 835 L425 840 L426 840 L428 842 L429 842 L431 844 L432 844 L434 846 L435 846 L436 847 L437 847 L438 848 L439 848 L440 849 L441 849 L442 850 L443 850 L444 851 L446 851 L447 852 L449 852 L450 853 L453 853 L454 854 L459 854 L460 855 L469 855 L470 856 L475 856 L476 857 L477 857 L479 859 L480 859 L483 862 L484 862 L486 864 L487 864 L491 868 L491 869 L493 871 L493 872 L494 873 L494 874 L495 875 L495 876 L496 877 L496 883 L495 884 L631 884 L632 883 L633 883 L634 882 L635 882 L636 881 L637 881 L638 880 L640 880 L641 879 L642 879 L643 878 L644 878 L645 877 L646 877 L647 876 L648 876 L650 874 L651 874 L653 872 L654 872 L655 871 L656 871 L658 869 L659 869 L661 867 L662 867 L663 866 L664 866 L665 865 L666 865 L668 863 L669 863 L671 861 L672 861 L674 859 L675 859 L678 856 L679 856 L681 854 L682 854 L683 853 L684 853 L685 852 L686 852 L688 850 L689 850 L692 847 L693 847 L696 844 L697 844 L699 842 L700 842 L702 840 L703 840 L706 837 L707 837 L708 836 L708 835 L705 835 L704 836 L702 836 L701 837 L699 837 L698 838 L696 838 L695 839 L694 839 L693 840 L691 840 L690 841 L688 841 L687 842 L685 842 L684 843 L679 843 L678 844 L674 844 L673 845 L669 845 L668 846 L664 846 L663 847 L659 847 L658 848 L653 848 L652 849 L647 849 L646 850 L643 850 L642 851 L639 851 L638 852 L635 852 L634 853 L629 853 L628 854 L624 854 L623 855 L616 855 L615 856 L609 856 L608 857 L605 857 L604 858 L600 858 L599 859 L594 859 L593 860 L586 860 L585 861 L579 861 L578 862 L577 862 L576 863 L573 863 L572 864 L570 864 L569 865 L565 865 L564 864 L568 860 L569 860 L570 859 L571 859 L572 858 L573 858 L574 857 L575 857 L576 856 L577 856 L578 855 L579 855 L580 854 L582 854 L583 853 L584 853 L585 852 L586 852 L587 851 L588 851 L589 850 L590 850 L591 849 L592 849 L593 848 L594 848 L595 847 L596 847 L598 845 L599 845 L600 844 L601 844 L602 843 L603 843 L605 841 L606 841 L608 839 L609 839 L611 837 L612 837 L613 836 L614 836 L615 835 L616 835 L617 834 L619 834 L620 833 L621 833 L622 832 L623 832 L625 830 L626 830 L627 829 L628 829 L630 827 L631 827 L633 825 L634 825 L636 823 L637 823 L638 822 L639 822 L640 821 L641 821 L642 820 L643 820 L644 819 L645 819 L646 818 L647 818 L648 817 L649 817 L650 816 L651 816 L652 815 L653 815 L654 814 L655 814 L657 812 L657 809 L656 808 L652 808 L651 809 L649 809 L648 810 L646 810 L645 811 L644 811 L643 812 L641 812 L640 813 L639 813 L638 814 L636 814 L635 815 L634 815 L633 816 L632 816 L631 817 L630 817 L629 818 L628 818 L627 819 L625 819 L624 820 L623 820 L622 821 L621 821 L620 822 L619 822 L618 823 L616 823 L615 824 L613 824 L612 825 L608 825 L607 826 L604 826 L603 827 L602 827 L601 828 L600 828 L598 830 L596 830 L595 831 L593 831 L592 832 L588 832 L587 831 L584 831 L583 832 L580 832 L579 833 L576 833 L575 834 L573 834 L572 835 L572 836 L573 837 L573 839 L571 841 L570 841 L569 840 L567 840 L566 839 L566 838 L569 835 L569 833 L570 832 L570 831 L572 829 L572 828 L575 825 L575 824 L577 822 L577 821 L579 819 L579 818 L583 814 L583 813 L585 811 L585 810 L588 807 L588 806 L592 802 L592 801 L597 796 L597 795 L600 792 L600 791 L602 789 L602 788 L605 785 L605 784 L608 781 L608 780 L609 779 L609 778 L612 775 L612 774 L614 772 L614 771 L617 768 L617 767 L620 764 L620 763 L623 760 L623 758 L624 757 L624 754 L622 754 L621 755 L620 755 L619 756 L618 756 L614 760 L613 760 L609 764 L608 764 L604 768 L603 768 L602 769 L601 769 L599 771 L598 771 L595 774 L594 774 L593 775 L592 775 L590 777 L589 777 L587 779 L586 779 L583 782 L582 782 L577 787 L576 787 L575 788 L574 788 L572 790 L571 790 L569 792 L568 792 L567 793 L565 793 L564 794 L563 794 L561 796 L560 796 L558 798 L556 796 L557 795 L557 787 L558 786 L558 783 L559 782 L559 777 L560 776 L560 753 L561 752 L561 730 L562 729 L562 727 L563 726 L563 721 L564 720 L564 719 L563 718 L563 717 L562 717 L559 720 L559 721 L558 722 L558 723 L556 725 L556 726 L555 727 L555 728 L553 730 L553 731 L551 733 L551 734 L549 736 L549 737 L548 738 L548 739 L546 741 L546 742 L545 743 L545 745 L544 746 L544 747 L543 748 L543 749 L542 750 L542 752 L541 753 L541 755 L540 756 L540 757 L539 758 L539 760 L538 761 L538 762 L537 763 L537 765 L536 766 L536 767 L535 768 L535 769 L534 770 L534 771 L532 773 L531 772 L531 768 L532 767 L532 763 L533 762 L533 756 L534 755 L534 750 L533 749 L533 744 L534 743 L534 742 L535 741 L535 738 L536 737 L536 735 L535 734 L535 731 L534 730 L534 729 L532 729 L531 730 L531 732 L530 733 L530 734 L529 735 L529 739 L528 740 L528 746 L527 747 L527 749 L526 750 L526 752 L525 753 L525 754 L524 755 L524 756 L523 757 L523 758 L522 759 L522 761 L521 762 L521 763 L520 764 L520 765 L519 766 L519 767 L518 768 L518 769 L516 771 L516 772 L515 773 L515 774 L514 775 L514 776 L513 777 L513 778 L512 779 L512 780 L511 781 L511 783 L510 784 L510 787 L509 788 L509 790 L508 791 L506 789 L506 788 L505 787 L505 785 L504 784 L504 783 L503 782 L503 781 L501 779 L501 778 L500 777 L500 776 L499 775 L499 774 L498 773 L498 772 L497 771 L497 770 L495 768 L495 767 L493 765 L493 764 L492 763 L492 762 L491 761 L491 760 L490 759 L490 758 L489 757 L489 756 L488 755 L488 753 L487 752 L487 751 L486 750 L486 748 L485 747 L485 746 L483 744 L483 743 L482 742 L482 741 L481 740 L481 739 L480 738 L480 737 L479 736 L479 735 L478 734 L478 733 L477 732 L477 731 L476 730 L476 729 L475 728 L475 727 L474 726 L474 725 L473 724 L473 723 L472 722 L472 721 L471 720 L471 719 L470 718 L470 717 L469 716 L469 715 L468 714 Z M327 11 L326 12 L325 12 L324 13 L323 13 L322 14 L321 14 L320 15 L319 15 L318 16 L317 16 L316 17 L315 17 L314 18 L313 18 L311 20 L310 20 L308 22 L307 22 L305 24 L304 24 L300 28 L299 28 L296 31 L295 31 L294 32 L293 32 L272 53 L272 54 L270 56 L270 57 L267 60 L267 61 L265 63 L265 64 L264 65 L264 66 L263 67 L263 68 L262 69 L262 70 L260 72 L260 73 L259 74 L258 74 L233 49 L232 49 L228 45 L227 45 L224 42 L223 42 L221 40 L220 40 L217 37 L216 37 L214 35 L213 35 L212 34 L211 34 L209 32 L207 32 L206 31 L205 31 L204 30 L203 30 L202 29 L200 29 L199 28 L198 28 L197 27 L195 27 L194 26 L193 26 L192 25 L191 25 L190 24 L188 24 L187 23 L185 23 L184 22 L182 22 L181 21 L180 21 L179 20 L177 20 L176 19 L174 19 L173 18 L169 18 L168 17 L164 17 L163 16 L160 16 L159 15 L154 15 L153 14 L147 14 L146 13 L127 13 L126 14 L123 14 L122 15 L110 15 L109 16 L105 16 L104 17 L102 17 L101 18 L99 18 L98 19 L97 19 L96 20 L95 20 L94 21 L93 21 L93 23 L94 23 L95 24 L97 24 L98 25 L100 25 L101 26 L103 26 L105 28 L106 28 L107 29 L108 29 L110 31 L111 31 L113 33 L114 33 L117 36 L118 36 L130 48 L130 49 L133 52 L133 53 L137 57 L137 58 L139 60 L139 61 L140 62 L140 63 L142 65 L142 66 L143 67 L143 68 L144 69 L144 70 L145 71 L145 72 L146 73 L146 74 L147 75 L147 77 L148 78 L148 80 L149 81 L149 83 L150 84 L150 85 L151 86 L151 88 L152 89 L152 91 L153 92 L153 94 L154 95 L154 96 L155 97 L155 98 L156 99 L156 100 L157 101 L157 102 L158 103 L158 104 L159 105 L159 106 L160 107 L160 108 L161 109 L161 111 L162 112 L162 113 L163 114 L163 115 L164 116 L164 117 L165 118 L165 119 L166 120 L166 121 L168 123 L168 124 L170 126 L170 127 L172 129 L172 130 L174 132 L174 133 L178 137 L178 138 L183 143 L183 144 L190 151 L191 151 L197 157 L198 157 L201 160 L202 160 L204 162 L205 162 L207 164 L208 164 L209 165 L210 165 L211 166 L212 166 L213 167 L214 167 L215 168 L216 168 L218 170 L219 170 L220 171 L221 171 L222 172 L223 172 L224 173 L225 173 L226 174 L227 174 L228 175 L229 175 L231 177 L232 177 L233 178 L234 178 L235 179 L236 179 L237 180 L238 180 L239 181 L240 181 L241 182 L243 182 L244 183 L246 183 L247 184 L256 184 L259 187 L259 201 L257 203 L256 203 L255 204 L254 204 L253 203 L252 203 L251 202 L250 202 L241 193 L240 193 L231 184 L230 184 L225 179 L224 179 L221 176 L220 176 L218 174 L217 174 L216 173 L215 173 L214 172 L213 172 L212 171 L211 171 L210 170 L209 170 L208 169 L206 169 L205 168 L204 168 L203 167 L202 167 L201 166 L200 166 L199 165 L198 165 L197 164 L196 164 L194 162 L193 162 L192 161 L191 161 L190 160 L188 160 L187 159 L186 159 L185 158 L183 158 L182 157 L180 157 L179 156 L174 156 L173 155 L171 155 L170 154 L168 154 L167 153 L166 153 L165 152 L162 152 L161 151 L156 151 L155 150 L135 150 L134 151 L128 151 L127 152 L122 152 L121 153 L116 153 L115 154 L112 154 L111 155 L109 155 L108 156 L106 156 L105 157 L104 157 L103 158 L102 158 L101 159 L100 159 L99 160 L97 160 L95 162 L93 162 L91 164 L90 164 L89 165 L87 165 L86 166 L85 166 L83 168 L82 168 L80 170 L79 170 L77 172 L76 172 L68 180 L67 180 L65 182 L64 182 L62 184 L61 184 L60 185 L60 186 L56 190 L56 191 L54 193 L54 194 L49 199 L49 200 L46 203 L46 204 L44 206 L43 206 L42 207 L42 208 L40 210 L40 212 L39 213 L39 215 L38 216 L38 217 L37 218 L37 219 L35 221 L34 221 L30 225 L30 227 L29 228 L29 229 L28 230 L28 231 L27 232 L27 233 L26 234 L26 235 L25 236 L25 237 L24 238 L24 239 L23 240 L23 241 L22 242 L22 243 L21 244 L21 245 L20 246 L20 247 L18 249 L18 250 L17 251 L17 252 L16 253 L16 254 L15 255 L15 256 L14 257 L14 258 L13 259 L13 261 L12 262 L12 265 L11 266 L11 270 L10 271 L10 273 L11 274 L11 275 L14 275 L18 271 L19 271 L21 269 L22 269 L23 268 L24 268 L25 267 L26 267 L27 266 L28 266 L29 265 L31 265 L32 264 L34 264 L35 263 L37 263 L38 262 L43 262 L44 261 L45 262 L47 262 L48 261 L49 261 L50 262 L52 262 L53 261 L55 261 L56 262 L59 262 L60 261 L61 262 L75 262 L76 263 L82 263 L83 264 L88 264 L89 265 L94 265 L95 266 L97 266 L98 267 L99 267 L100 268 L103 268 L104 269 L108 269 L109 270 L111 270 L112 271 L116 271 L117 272 L119 272 L120 273 L123 273 L124 274 L127 274 L128 275 L132 275 L133 276 L138 276 L139 277 L144 277 L145 278 L155 278 L156 279 L175 279 L176 280 L177 279 L192 279 L193 278 L197 278 L198 277 L201 277 L202 276 L204 276 L205 275 L209 275 L210 274 L212 274 L213 273 L216 273 L217 272 L219 272 L220 271 L221 271 L222 270 L224 270 L225 269 L226 269 L227 268 L228 268 L229 267 L230 267 L231 266 L232 266 L234 264 L235 264 L237 262 L238 262 L245 255 L246 255 L249 252 L250 252 L252 250 L253 250 L254 249 L257 249 L258 250 L258 254 L257 255 L257 260 L256 261 L256 264 L255 265 L255 282 L256 283 L256 292 L257 293 L257 297 L258 298 L258 304 L259 305 L259 306 L258 307 L257 307 L256 308 L255 308 L252 311 L251 311 L247 315 L247 316 L245 318 L245 319 L244 320 L244 323 L243 324 L243 329 L244 330 L244 340 L245 341 L245 346 L246 347 L246 349 L247 350 L247 352 L248 353 L248 354 L250 356 L250 357 L251 358 L251 359 L253 361 L253 362 L255 364 L255 365 L257 367 L257 368 L258 369 L258 370 L260 372 L260 373 L261 374 L261 380 L262 381 L262 402 L263 403 L263 410 L264 411 L264 415 L265 416 L265 420 L264 421 L263 421 L262 420 L260 420 L258 418 L257 418 L254 415 L253 415 L250 412 L250 411 L246 407 L245 407 L242 404 L241 404 L239 402 L238 402 L235 399 L234 399 L232 397 L231 397 L227 393 L226 393 L223 390 L222 390 L221 389 L220 389 L219 388 L216 388 L215 387 L214 387 L213 386 L211 386 L210 385 L208 385 L207 384 L204 384 L203 383 L201 383 L200 382 L197 382 L196 381 L194 381 L193 380 L186 380 L185 379 L166 379 L165 380 L161 380 L160 381 L158 381 L157 382 L155 382 L154 383 L152 383 L151 384 L148 384 L147 385 L145 385 L144 386 L142 386 L141 387 L140 387 L139 388 L138 388 L135 391 L134 391 L133 392 L132 392 L131 393 L130 393 L129 394 L128 394 L127 395 L126 395 L125 396 L124 396 L123 397 L122 397 L121 398 L120 398 L119 399 L118 399 L116 401 L115 401 L113 403 L112 403 L108 407 L107 407 L103 411 L102 411 L94 419 L93 419 L77 435 L77 436 L72 441 L72 442 L70 444 L70 445 L69 446 L69 447 L68 448 L68 449 L67 450 L67 451 L62 456 L62 457 L61 458 L61 459 L60 460 L60 461 L59 462 L59 464 L58 465 L58 467 L57 468 L57 469 L56 470 L56 471 L55 472 L55 474 L54 475 L54 476 L53 477 L53 479 L52 480 L52 481 L51 482 L51 483 L50 484 L50 486 L49 487 L49 488 L48 489 L48 491 L47 492 L47 493 L46 494 L46 495 L45 496 L45 497 L44 498 L44 500 L43 501 L43 502 L42 503 L42 505 L41 506 L41 509 L40 510 L40 512 L39 513 L39 516 L38 517 L38 519 L37 520 L37 521 L36 522 L36 523 L35 524 L35 529 L34 530 L34 537 L33 538 L33 553 L32 554 L32 556 L33 557 L33 562 L34 563 L34 564 L36 564 L50 550 L51 550 L53 548 L54 548 L56 546 L57 546 L59 544 L60 544 L62 542 L63 542 L65 540 L67 540 L68 539 L69 539 L70 538 L72 538 L73 537 L76 537 L77 536 L80 536 L81 535 L86 535 L87 534 L94 534 L95 533 L129 533 L130 532 L136 532 L137 531 L147 531 L148 530 L164 530 L165 529 L175 529 L176 528 L178 528 L179 527 L182 527 L183 526 L186 526 L187 525 L189 525 L190 524 L192 524 L193 523 L196 523 L197 522 L199 522 L200 521 L202 521 L204 519 L205 519 L206 518 L208 518 L209 517 L212 517 L213 516 L216 516 L217 515 L218 515 L219 514 L220 514 L221 513 L222 513 L224 511 L225 511 L228 508 L229 508 L231 506 L232 506 L234 504 L235 504 L236 503 L237 503 L239 501 L240 501 L242 499 L243 499 L245 497 L246 497 L249 494 L250 494 L260 484 L260 483 L264 479 L264 478 L266 476 L266 475 L268 473 L270 473 L271 474 L271 475 L272 476 L272 479 L273 480 L273 486 L274 487 L274 489 L275 490 L275 492 L276 493 L276 496 L277 497 L277 501 L278 502 L278 507 L279 508 L279 511 L280 512 L280 514 L281 515 L281 516 L282 517 L282 519 L283 520 L283 523 L284 524 L284 533 L285 534 L285 537 L286 538 L286 541 L287 542 L287 545 L288 546 L288 556 L289 557 L289 561 L290 562 L290 563 L291 564 L291 566 L292 567 L292 570 L293 571 L293 576 L294 577 L294 581 L295 582 L295 583 L296 584 L296 585 L297 586 L297 588 L298 589 L298 593 L299 594 L299 596 L300 597 L300 600 L301 601 L301 605 L302 606 L302 609 L303 610 L303 614 L304 615 L304 618 L305 619 L305 621 L304 622 L303 621 L302 621 L301 620 L300 620 L292 612 L291 612 L289 610 L287 610 L286 609 L284 609 L283 608 L282 608 L281 607 L280 607 L279 606 L278 606 L277 605 L276 605 L275 604 L274 604 L273 603 L270 603 L269 602 L262 602 L261 601 L254 601 L253 600 L247 600 L246 599 L234 599 L233 600 L228 600 L227 601 L222 601 L221 602 L217 602 L216 603 L213 603 L212 604 L210 604 L209 605 L206 605 L205 606 L203 606 L202 607 L200 607 L199 608 L198 608 L197 609 L196 609 L194 611 L193 611 L192 612 L191 612 L190 613 L189 613 L188 614 L187 614 L186 615 L184 615 L183 616 L182 616 L181 617 L180 617 L179 618 L178 618 L176 620 L175 620 L174 621 L173 621 L172 622 L171 622 L169 624 L168 624 L157 635 L156 635 L151 640 L151 641 L145 647 L145 648 L143 650 L143 651 L140 654 L140 655 L138 657 L137 657 L136 658 L136 659 L135 660 L135 661 L133 663 L133 664 L132 665 L132 666 L131 667 L131 668 L130 669 L129 669 L129 670 L126 673 L126 674 L125 675 L125 676 L124 677 L124 678 L123 679 L123 680 L121 682 L121 683 L119 685 L119 686 L118 687 L118 688 L117 689 L117 690 L116 691 L116 692 L115 693 L115 694 L114 695 L114 697 L113 698 L113 699 L112 700 L112 701 L111 702 L111 704 L110 705 L110 706 L109 707 L109 708 L108 709 L108 711 L107 712 L107 714 L106 715 L106 717 L105 718 L105 721 L104 722 L104 724 L103 725 L103 726 L101 728 L101 732 L100 733 L100 736 L99 737 L99 740 L98 741 L98 743 L97 744 L97 746 L96 747 L96 750 L95 751 L95 754 L94 755 L94 759 L93 760 L93 763 L92 764 L92 769 L91 770 L91 776 L90 777 L90 781 L89 782 L89 790 L88 791 L88 802 L87 803 L87 805 L88 806 L92 806 L94 804 L95 804 L99 800 L100 800 L102 798 L103 798 L105 796 L106 796 L108 794 L109 794 L111 792 L112 792 L113 791 L114 791 L116 789 L117 789 L118 788 L120 788 L121 787 L123 787 L124 786 L128 786 L129 785 L130 785 L131 784 L132 784 L133 783 L134 783 L136 781 L137 781 L138 780 L139 780 L140 779 L143 779 L144 778 L148 778 L149 777 L155 777 L156 776 L162 776 L163 775 L168 775 L169 774 L174 774 L175 773 L183 773 L184 772 L188 772 L189 771 L196 771 L197 770 L203 770 L204 769 L211 769 L212 768 L223 768 L224 767 L229 767 L230 766 L238 766 L239 765 L249 765 L250 764 L252 764 L253 763 L255 763 L256 762 L260 762 L261 761 L264 761 L265 760 L268 760 L269 759 L272 759 L273 758 L275 758 L276 757 L279 757 L280 756 L283 756 L284 755 L285 755 L286 754 L288 754 L289 753 L291 753 L292 752 L293 752 L294 751 L296 751 L297 750 L298 750 L299 749 L300 749 L302 747 L303 747 L308 742 L309 742 L310 741 L311 741 L312 740 L313 741 L314 741 L315 742 L315 744 L316 745 L316 764 L317 765 L317 789 L318 790 L318 798 L319 799 L319 803 L318 804 L318 811 L319 812 L319 858 L320 859 L320 861 L321 862 L321 866 L322 867 L322 865 L323 864 L323 863 L324 862 L325 863 L327 863 L329 861 L330 862 L330 863 L331 863 L331 862 L332 861 L331 860 L332 859 L332 853 L333 852 L333 849 L332 848 L333 847 L333 846 L332 845 L332 837 L333 836 L333 835 L335 833 L336 834 L336 842 L337 843 L337 846 L338 847 L338 852 L339 853 L339 856 L340 857 L340 858 L341 859 L341 862 L342 863 L342 865 L344 867 L344 868 L345 869 L345 870 L346 869 L346 856 L345 855 L345 830 L344 829 L344 817 L343 816 L343 801 L342 800 L342 775 L341 774 L341 742 L342 741 L342 728 L343 727 L343 722 L344 721 L344 717 L345 716 L345 714 L346 713 L346 712 L352 706 L352 705 L355 702 L355 701 L357 699 L357 698 L358 697 L358 696 L360 694 L360 693 L361 692 L361 688 L362 687 L362 678 L361 677 L361 673 L360 672 L360 669 L359 668 L359 666 L358 665 L358 664 L357 663 L357 662 L355 660 L355 659 L353 657 L353 656 L349 652 L349 651 L347 649 L348 648 L348 646 L355 639 L356 639 L362 633 L362 632 L364 630 L364 628 L366 626 L366 625 L367 624 L367 623 L368 622 L368 621 L370 619 L370 618 L372 616 L372 615 L374 613 L374 612 L376 610 L376 609 L378 607 L378 606 L379 605 L379 604 L381 602 L381 601 L382 600 L382 599 L392 589 L392 588 L394 586 L394 585 L396 583 L396 582 L397 581 L397 579 L398 578 L398 577 L399 576 L399 575 L401 573 L402 573 L407 578 L407 579 L408 580 L408 581 L410 583 L410 584 L411 585 L411 586 L412 587 L412 588 L413 589 L413 590 L414 591 L414 592 L416 594 L416 595 L417 596 L417 597 L419 599 L419 600 L421 602 L421 603 L425 607 L425 608 L426 609 L427 609 L428 610 L428 611 L429 612 L430 612 L434 616 L435 616 L441 622 L442 622 L444 624 L445 624 L447 626 L448 626 L449 627 L450 627 L451 628 L453 628 L454 629 L455 629 L457 631 L458 631 L459 632 L460 632 L461 633 L462 633 L463 634 L465 634 L466 635 L467 635 L468 636 L469 636 L470 637 L471 637 L472 638 L473 638 L474 639 L476 639 L477 640 L479 640 L480 641 L482 641 L483 642 L484 642 L485 643 L487 643 L488 644 L489 644 L490 645 L491 645 L492 646 L494 646 L495 647 L496 647 L497 648 L499 648 L500 649 L501 649 L502 650 L504 650 L505 651 L506 651 L507 652 L508 652 L509 653 L511 653 L512 654 L513 654 L514 655 L516 655 L517 656 L519 656 L520 657 L522 657 L523 658 L525 658 L526 659 L528 659 L529 660 L532 660 L533 661 L535 661 L536 662 L539 662 L540 663 L543 663 L544 664 L548 664 L549 665 L553 665 L554 666 L555 666 L556 667 L557 667 L558 668 L559 668 L560 669 L562 669 L563 670 L565 670 L566 671 L567 671 L568 672 L569 672 L570 673 L571 673 L572 674 L573 674 L575 676 L576 676 L577 677 L578 677 L580 679 L581 679 L582 680 L583 680 L585 682 L586 682 L587 683 L588 683 L590 685 L591 685 L593 687 L593 688 L608 703 L608 704 L609 705 L609 706 L610 707 L610 708 L611 709 L611 711 L612 712 L612 713 L615 713 L618 710 L618 709 L619 708 L619 707 L620 706 L620 704 L621 703 L621 701 L622 700 L622 695 L623 694 L623 667 L624 666 L624 662 L623 661 L623 647 L622 646 L622 640 L621 639 L621 635 L620 634 L620 628 L619 627 L619 622 L618 621 L618 618 L617 617 L617 614 L616 613 L616 611 L615 610 L615 608 L614 607 L614 605 L613 604 L613 601 L612 600 L612 597 L611 596 L611 594 L610 593 L610 591 L609 590 L609 587 L608 586 L608 584 L607 583 L607 582 L606 581 L606 580 L605 579 L605 578 L604 577 L604 576 L603 575 L603 574 L602 573 L602 572 L600 570 L600 569 L598 567 L598 566 L597 565 L597 564 L596 563 L596 562 L595 561 L595 560 L593 558 L593 557 L592 556 L592 555 L590 553 L590 552 L588 550 L588 549 L587 548 L587 547 L573 533 L573 532 L571 530 L570 530 L567 527 L566 527 L564 525 L563 525 L562 524 L561 524 L560 523 L559 523 L557 521 L555 521 L552 518 L551 518 L550 517 L549 517 L546 514 L546 513 L543 510 L542 510 L541 509 L540 509 L539 508 L537 508 L536 507 L532 507 L531 506 L529 506 L528 505 L527 505 L526 504 L525 504 L524 503 L522 503 L521 502 L519 502 L518 501 L515 501 L514 500 L511 500 L510 499 L504 499 L503 498 L478 498 L477 499 L472 499 L471 500 L467 500 L466 501 L464 501 L463 502 L461 502 L460 503 L459 503 L458 504 L456 504 L454 506 L453 506 L452 507 L446 507 L445 506 L445 505 L446 504 L446 503 L447 502 L447 501 L448 500 L448 499 L449 498 L449 497 L450 496 L450 495 L451 494 L451 493 L453 491 L453 490 L454 489 L454 488 L455 487 L455 486 L457 484 L457 483 L458 482 L458 481 L463 476 L463 474 L464 473 L464 471 L465 470 L465 468 L466 467 L466 466 L467 465 L467 464 L468 463 L468 462 L470 460 L470 459 L471 458 L471 457 L473 455 L473 454 L475 452 L475 451 L476 450 L476 449 L477 448 L477 447 L478 446 L478 445 L480 443 L480 441 L481 440 L481 439 L482 438 L482 437 L483 436 L483 435 L485 433 L485 432 L486 431 L486 430 L487 429 L487 428 L488 427 L488 426 L489 425 L489 424 L490 423 L490 422 L491 421 L491 419 L492 418 L492 416 L493 415 L493 414 L494 413 L494 412 L495 411 L495 409 L496 408 L496 407 L498 405 L498 404 L501 401 L501 400 L510 391 L511 391 L512 390 L513 390 L514 389 L523 389 L524 390 L536 390 L537 389 L539 389 L540 388 L543 388 L544 387 L549 387 L550 386 L558 386 L559 385 L565 385 L566 384 L573 384 L574 383 L584 383 L585 382 L598 382 L599 381 L610 381 L611 380 L613 380 L614 379 L615 379 L616 378 L617 378 L619 376 L620 376 L621 375 L622 375 L623 374 L624 374 L626 372 L627 372 L628 371 L629 371 L631 369 L632 369 L634 367 L635 367 L642 360 L643 360 L647 356 L648 356 L649 355 L651 355 L652 354 L653 354 L654 353 L656 353 L657 352 L659 352 L660 351 L661 351 L662 350 L664 350 L665 349 L667 349 L668 348 L671 348 L672 347 L679 347 L680 348 L683 348 L684 349 L686 349 L687 350 L689 350 L690 351 L693 351 L694 352 L697 352 L698 353 L701 353 L703 351 L704 351 L705 350 L705 347 L704 346 L704 345 L701 342 L701 341 L694 334 L693 334 L690 331 L689 331 L686 328 L685 328 L684 327 L684 326 L683 325 L683 324 L681 322 L680 322 L678 320 L677 320 L676 319 L675 319 L674 318 L673 318 L672 317 L670 317 L668 315 L667 315 L666 314 L664 314 L662 312 L661 312 L660 311 L659 311 L658 310 L657 310 L656 309 L654 309 L653 308 L651 308 L650 307 L646 307 L645 306 L642 306 L640 304 L639 304 L637 302 L635 302 L634 301 L630 301 L629 300 L622 300 L621 299 L606 299 L605 300 L600 300 L599 301 L596 301 L595 302 L591 302 L590 303 L581 303 L580 302 L578 302 L577 303 L573 303 L572 304 L571 304 L570 305 L568 305 L567 304 L567 302 L568 301 L568 298 L569 297 L569 295 L570 294 L570 293 L575 288 L576 288 L578 286 L579 286 L581 284 L582 284 L582 283 L585 280 L585 279 L586 278 L586 276 L582 272 L581 272 L580 273 L571 273 L569 275 L565 275 L564 276 L563 276 L562 275 L562 253 L561 252 L561 247 L560 246 L560 241 L559 240 L559 236 L558 235 L558 232 L557 231 L557 229 L556 228 L556 226 L555 225 L555 223 L554 222 L554 221 L553 220 L553 218 L552 217 L552 216 L551 215 L551 214 L550 213 L550 211 L549 210 L549 209 L548 208 L548 206 L547 205 L547 204 L546 203 L546 202 L545 201 L545 199 L544 198 L544 196 L542 194 L542 192 L541 191 L541 190 L540 189 L540 188 L539 187 L539 186 L538 185 L538 184 L536 182 L536 181 L535 180 L535 179 L534 178 L534 176 L533 175 L533 174 L532 173 L532 172 L531 171 L531 170 L530 169 L530 168 L529 167 L529 166 L528 165 L528 164 L527 163 L527 162 L526 161 L526 160 L525 159 L525 158 L524 157 L524 156 L523 155 L520 155 L519 156 L518 156 L517 157 L516 157 L514 159 L514 160 L513 161 L513 162 L512 163 L512 165 L511 166 L511 168 L510 169 L510 170 L509 171 L509 172 L508 173 L508 174 L507 175 L507 176 L506 177 L506 178 L504 180 L504 182 L503 183 L503 184 L502 185 L502 187 L501 188 L501 189 L498 192 L498 193 L493 198 L493 199 L492 200 L492 201 L490 203 L490 204 L489 205 L489 206 L487 208 L487 209 L482 214 L482 215 L480 217 L480 218 L479 219 L479 220 L478 221 L478 223 L477 224 L477 225 L476 226 L476 227 L474 229 L474 230 L471 233 L471 234 L468 237 L468 238 L467 239 L467 240 L466 241 L466 242 L465 243 L465 245 L464 246 L464 247 L462 249 L462 250 L461 251 L461 253 L460 254 L460 257 L459 258 L459 260 L458 261 L458 263 L457 264 L457 267 L456 268 L456 294 L455 295 L455 297 L454 298 L450 294 L450 293 L443 286 L443 285 L442 284 L441 284 L432 275 L431 275 L428 272 L427 272 L425 270 L424 270 L422 268 L421 268 L419 266 L418 266 L417 265 L416 265 L413 262 L412 262 L411 261 L410 261 L408 259 L407 259 L406 258 L404 258 L403 257 L402 257 L401 256 L399 256 L398 255 L396 255 L395 254 L394 254 L393 253 L392 253 L391 252 L390 252 L389 251 L387 251 L386 250 L383 250 L382 249 L378 249 L377 248 L371 248 L370 247 L361 247 L360 246 L345 246 L344 245 L339 245 L338 244 L337 244 L336 245 L336 247 L339 250 L339 251 L343 255 L343 256 L345 258 L345 259 L346 260 L346 261 L347 262 L347 263 L348 264 L348 265 L349 266 L349 267 L350 268 L350 269 L352 271 L352 272 L353 273 L353 274 L355 276 L355 277 L356 278 L356 279 L357 280 L357 281 L358 282 L358 283 L360 285 L359 286 L356 286 L355 285 L351 285 L350 284 L346 284 L345 283 L341 283 L340 282 L327 282 L326 283 L322 283 L321 284 L317 284 L316 285 L311 285 L310 286 L309 286 L308 287 L307 287 L306 288 L304 288 L303 289 L302 289 L301 290 L299 290 L298 291 L297 291 L296 292 L295 292 L294 293 L292 293 L291 294 L289 294 L288 295 L286 295 L285 296 L283 296 L283 299 L285 301 L285 302 L283 304 L281 304 L280 305 L278 305 L277 304 L277 301 L276 300 L276 264 L275 263 L275 253 L276 252 L276 240 L277 239 L277 238 L276 237 L276 230 L277 229 L277 223 L278 222 L301 222 L302 223 L326 223 L327 222 L333 222 L334 221 L339 221 L340 220 L343 220 L344 219 L346 219 L347 218 L348 218 L349 217 L351 217 L352 216 L354 216 L355 215 L357 215 L358 214 L361 214 L362 213 L363 213 L364 212 L366 212 L367 211 L368 211 L369 210 L370 210 L371 209 L372 209 L373 208 L374 208 L375 207 L376 207 L377 206 L378 206 L379 205 L380 205 L382 203 L383 203 L384 202 L385 202 L386 201 L387 201 L389 199 L390 199 L391 198 L392 198 L393 197 L394 197 L396 195 L397 195 L400 192 L401 192 L404 189 L405 189 L408 186 L409 186 L413 182 L414 182 L422 174 L422 173 L425 170 L426 170 L436 160 L436 159 L475 120 L476 120 L480 116 L481 116 L484 113 L485 113 L486 112 L487 112 L488 111 L489 111 L490 110 L492 110 L493 109 L494 109 L495 108 L497 108 L498 107 L500 107 L501 106 L502 106 L503 105 L504 105 L505 104 L506 104 L507 103 L508 103 L509 102 L510 102 L511 101 L512 101 L514 99 L515 99 L515 96 L514 95 L513 95 L508 90 L507 90 L505 88 L504 88 L502 86 L501 86 L500 85 L499 85 L498 84 L497 84 L496 83 L495 83 L494 82 L492 82 L491 81 L489 81 L488 80 L486 80 L485 79 L480 79 L479 78 L476 78 L475 77 L472 77 L471 76 L468 76 L467 75 L465 75 L464 74 L461 74 L460 73 L458 73 L457 72 L443 72 L442 71 L441 71 L440 70 L438 70 L437 69 L433 69 L432 68 L427 68 L426 67 L417 67 L416 66 L403 66 L402 67 L394 67 L393 68 L392 68 L391 69 L388 69 L387 70 L381 70 L380 71 L375 71 L374 72 L370 72 L369 73 L366 73 L365 74 L363 74 L362 75 L360 75 L359 76 L357 76 L356 77 L355 77 L354 78 L353 78 L352 79 L351 79 L350 80 L349 80 L348 81 L346 81 L345 82 L344 82 L343 83 L342 83 L341 84 L340 84 L338 86 L337 86 L336 87 L335 87 L333 89 L332 89 L331 90 L330 90 L329 91 L328 91 L326 93 L324 91 L324 89 L323 88 L323 87 L324 86 L323 85 L323 62 L324 61 L324 50 L325 49 L325 39 L326 38 L326 35 L327 34 L327 32 L328 31 L328 30 L329 29 L329 28 L330 27 L330 26 L332 24 L332 23 L333 22 L333 21 L334 20 L334 19 L335 18 L335 16 L336 15 L336 12 L333 12 L332 11 Z M608 0 L609 1 L609 2 L610 3 L610 5 L611 6 L611 8 L612 9 L612 10 L613 11 L613 14 L614 15 L614 18 L615 19 L615 30 L616 31 L616 46 L617 46 L618 47 L618 48 L619 48 L620 49 L621 48 L622 48 L625 45 L625 44 L627 42 L628 42 L631 39 L632 39 L633 38 L634 38 L635 37 L636 37 L637 36 L638 36 L639 35 L641 35 L642 34 L644 34 L645 33 L646 33 L647 32 L651 32 L652 31 L666 31 L667 30 L675 30 L676 29 L680 29 L681 28 L685 28 L686 27 L690 27 L691 26 L696 26 L697 25 L700 25 L701 26 L701 28 L700 29 L700 33 L699 34 L699 36 L698 37 L698 39 L697 40 L697 42 L696 43 L696 46 L695 47 L695 50 L694 51 L694 52 L693 53 L693 56 L692 57 L692 61 L691 62 L691 67 L690 68 L690 73 L689 74 L689 79 L688 80 L688 84 L687 85 L687 88 L686 89 L686 94 L685 95 L685 99 L684 100 L684 106 L683 107 L683 113 L682 114 L682 119 L681 120 L681 126 L680 127 L680 134 L679 135 L679 143 L678 144 L678 149 L677 150 L677 156 L676 157 L676 164 L675 165 L675 177 L674 178 L674 198 L675 199 L675 200 L676 201 L677 200 L677 196 L678 195 L678 190 L679 189 L679 186 L680 185 L680 182 L681 181 L681 176 L682 175 L683 175 L684 176 L684 180 L685 181 L685 186 L686 187 L686 189 L685 190 L685 191 L686 192 L686 196 L687 197 L687 202 L688 203 L688 205 L688 204 L689 203 L689 200 L690 199 L690 195 L691 194 L691 187 L692 186 L692 177 L693 176 L693 167 L694 166 L694 154 L695 153 L695 149 L696 148 L696 143 L697 142 L697 127 L698 126 L698 123 L699 122 L699 118 L700 117 L700 111 L701 110 L701 103 L702 102 L702 96 L703 95 L703 91 L704 90 L704 85 L705 84 L705 79 L706 78 L706 74 L707 73 L707 70 L708 69 L708 65 L709 64 L709 62 L710 61 L710 59 L711 58 L711 53 L712 52 L712 48 L713 47 L713 43 L714 42 L714 39 L715 38 L715 0 Z " fill="black"/></svg>