<svg width="419" height="581" xmlns="http://www.w3.org/2000/svg"><path d="M362 87 L366 87 Z M311 11 L310 12 L306 12 L305 13 L303 13 L301 15 L300 15 L299 16 L298 16 L297 17 L296 17 L290 23 L290 24 L288 26 L288 27 L287 28 L287 29 L286 30 L286 31 L285 32 L285 33 L284 34 L284 37 L283 38 L283 43 L282 44 L282 49 L281 50 L281 54 L280 55 L279 55 L278 54 L278 53 L270 45 L269 45 L266 42 L265 42 L264 41 L262 41 L259 38 L258 38 L257 37 L253 37 L252 36 L247 36 L246 37 L240 37 L239 38 L235 38 L234 39 L232 39 L231 40 L230 40 L229 41 L228 41 L227 42 L226 42 L225 43 L224 43 L223 44 L222 44 L220 46 L219 46 L217 48 L216 48 L216 49 L213 52 L213 53 L211 55 L211 56 L210 57 L210 58 L209 59 L209 60 L207 62 L207 64 L206 65 L206 89 L205 90 L205 98 L207 100 L210 100 L211 99 L211 98 L213 96 L213 95 L217 91 L217 90 L220 87 L220 86 L221 85 L221 84 L224 81 L225 81 L226 80 L227 80 L228 79 L229 79 L230 78 L232 78 L233 77 L235 77 L236 76 L237 76 L238 75 L239 75 L240 74 L242 74 L243 73 L245 73 L246 72 L254 72 L255 73 L256 73 L257 74 L256 75 L254 75 L253 76 L250 76 L249 77 L246 77 L245 78 L244 78 L243 79 L242 79 L239 82 L238 82 L237 83 L236 83 L235 84 L234 84 L233 85 L232 85 L231 86 L230 86 L229 87 L228 87 L227 88 L226 88 L223 91 L222 91 L219 94 L219 96 L217 98 L217 99 L215 101 L215 102 L213 104 L213 105 L212 106 L212 108 L211 109 L211 111 L210 112 L210 116 L209 117 L209 120 L210 121 L210 123 L211 124 L211 125 L213 127 L213 128 L215 130 L215 131 L217 133 L217 134 L218 135 L218 136 L219 137 L219 138 L220 139 L220 140 L221 141 L221 142 L222 143 L222 145 L223 146 L223 147 L224 148 L224 149 L225 150 L225 151 L226 151 L227 152 L227 154 L226 155 L226 156 L225 157 L225 158 L224 159 L224 160 L223 161 L223 162 L222 163 L222 165 L221 166 L221 168 L220 169 L220 175 L219 176 L219 185 L220 186 L218 188 L217 187 L216 187 L215 186 L213 186 L212 185 L210 185 L209 184 L204 184 L203 183 L195 183 L194 182 L194 181 L195 180 L195 175 L196 174 L196 171 L197 170 L197 167 L198 166 L198 163 L199 162 L199 160 L200 159 L200 157 L201 156 L201 151 L202 150 L202 137 L203 136 L202 135 L202 127 L201 126 L201 123 L200 122 L200 118 L199 117 L199 114 L198 113 L198 104 L196 102 L196 101 L190 95 L189 95 L183 89 L182 89 L181 88 L180 88 L179 87 L176 87 L175 86 L168 86 L167 87 L162 87 L161 88 L155 88 L154 89 L152 89 L151 90 L149 90 L148 91 L147 91 L144 94 L143 94 L143 95 L138 100 L137 99 L137 98 L136 97 L136 79 L135 78 L135 76 L134 75 L134 74 L127 67 L126 67 L121 62 L120 62 L118 60 L117 60 L116 59 L114 59 L113 58 L111 58 L110 57 L107 57 L106 56 L98 56 L97 55 L94 55 L93 56 L90 56 L89 57 L87 57 L86 58 L85 58 L84 59 L81 59 L80 60 L78 60 L77 61 L75 61 L74 62 L72 62 L71 63 L70 63 L69 64 L68 64 L67 65 L66 65 L65 66 L64 66 L63 67 L62 67 L61 68 L60 68 L58 70 L57 70 L52 75 L51 75 L44 82 L44 83 L43 84 L43 85 L42 86 L42 87 L41 88 L41 93 L44 93 L46 91 L47 91 L48 90 L50 90 L51 89 L70 89 L71 90 L73 90 L74 91 L76 91 L77 92 L78 92 L81 95 L81 96 L80 97 L79 97 L78 96 L77 96 L76 95 L75 95 L74 94 L65 94 L64 93 L53 93 L52 94 L46 94 L45 95 L42 95 L41 96 L40 96 L39 97 L38 97 L37 98 L36 98 L35 99 L34 99 L32 101 L31 101 L27 105 L27 106 L24 109 L24 110 L23 111 L23 112 L22 113 L22 114 L21 115 L21 117 L20 118 L20 119 L19 120 L19 122 L18 123 L18 128 L17 129 L17 138 L16 139 L16 140 L17 141 L19 141 L20 140 L21 140 L22 139 L23 139 L25 137 L26 137 L27 136 L28 136 L31 133 L31 132 L36 127 L37 127 L39 125 L41 125 L42 124 L45 124 L46 123 L70 123 L71 124 L75 124 L76 125 L77 125 L78 126 L77 127 L51 127 L50 128 L45 128 L44 129 L42 129 L41 130 L39 130 L38 131 L37 131 L29 139 L28 139 L26 141 L25 141 L23 143 L22 143 L16 149 L16 150 L14 152 L14 154 L13 155 L13 157 L12 158 L12 161 L11 162 L11 176 L12 177 L12 182 L13 183 L13 185 L14 186 L14 187 L15 188 L15 189 L16 190 L19 190 L22 187 L22 186 L24 184 L24 183 L25 182 L25 181 L36 170 L37 170 L40 167 L41 167 L42 166 L43 166 L47 162 L48 162 L49 161 L50 161 L51 160 L53 160 L54 159 L55 159 L56 158 L58 158 L59 157 L70 157 L71 158 L64 165 L63 165 L62 166 L57 166 L56 167 L55 167 L50 172 L49 172 L48 171 L48 170 L49 169 L48 168 L46 168 L45 169 L45 171 L46 172 L46 173 L44 175 L43 175 L41 177 L40 177 L28 189 L28 190 L24 194 L24 195 L22 197 L22 198 L21 199 L21 203 L22 204 L22 206 L23 207 L23 209 L24 210 L24 211 L26 213 L26 214 L28 216 L28 217 L31 220 L31 221 L32 222 L32 223 L33 224 L33 225 L34 226 L34 228 L35 229 L35 230 L37 232 L37 233 L39 235 L39 236 L41 238 L41 239 L43 241 L43 242 L44 243 L44 245 L45 246 L45 247 L46 248 L46 249 L48 251 L48 252 L49 253 L50 253 L51 254 L52 254 L53 253 L56 253 L58 251 L59 251 L59 250 L60 249 L60 248 L62 246 L63 246 L64 245 L71 245 L72 244 L84 244 L85 243 L87 243 L88 242 L89 242 L92 239 L93 239 L94 238 L94 237 L96 235 L96 234 L97 233 L97 230 L98 229 L98 210 L97 209 L97 189 L98 188 L98 186 L100 184 L101 184 L103 186 L103 187 L104 188 L104 189 L105 190 L105 191 L106 192 L106 195 L107 196 L107 210 L108 211 L108 215 L107 216 L107 223 L106 224 L106 227 L105 228 L105 231 L104 232 L104 233 L103 234 L103 235 L101 237 L101 238 L100 239 L100 241 L101 242 L101 243 L102 243 L103 244 L107 244 L108 243 L111 243 L112 242 L114 242 L115 241 L116 241 L117 240 L119 240 L120 239 L122 239 L123 238 L125 238 L126 237 L129 237 L130 236 L132 236 L133 235 L134 235 L135 234 L136 234 L137 233 L138 233 L140 231 L141 231 L145 227 L146 227 L150 223 L150 221 L151 220 L151 216 L150 215 L150 206 L149 205 L149 198 L148 197 L148 194 L147 193 L147 191 L144 188 L144 187 L142 185 L142 184 L141 183 L141 182 L139 180 L139 179 L138 178 L138 177 L137 176 L137 175 L136 174 L136 173 L135 172 L135 170 L134 169 L134 163 L133 162 L135 160 L138 160 L140 162 L140 163 L141 164 L141 165 L142 166 L142 168 L143 169 L143 171 L144 172 L144 174 L145 175 L145 176 L146 177 L146 179 L147 180 L147 182 L148 183 L148 184 L149 185 L149 187 L150 188 L150 190 L151 191 L151 194 L152 195 L152 204 L153 205 L153 206 L154 207 L155 207 L156 208 L157 208 L158 209 L159 209 L161 211 L162 211 L163 212 L163 218 L162 219 L162 224 L161 225 L161 230 L160 231 L160 238 L159 239 L159 246 L158 247 L158 254 L159 255 L159 256 L157 258 L155 258 L153 256 L153 254 L152 253 L152 251 L151 250 L151 247 L150 246 L150 245 L148 243 L148 242 L144 238 L140 238 L138 240 L137 240 L136 241 L135 241 L134 242 L133 242 L132 243 L131 243 L130 244 L129 244 L128 245 L127 245 L126 246 L125 246 L124 247 L123 247 L122 248 L121 248 L119 250 L118 250 L116 252 L115 252 L113 254 L112 254 L111 255 L110 255 L108 257 L107 257 L105 259 L105 260 L103 262 L103 263 L102 264 L102 266 L101 267 L101 275 L100 276 L100 285 L101 286 L101 287 L106 287 L107 286 L120 286 L121 287 L131 287 L132 286 L136 286 L137 285 L140 285 L141 284 L143 284 L144 283 L148 283 L149 282 L150 282 L152 284 L152 285 L153 286 L153 287 L155 289 L155 290 L156 291 L156 293 L157 294 L157 295 L158 296 L158 297 L159 298 L159 300 L160 301 L160 303 L161 304 L161 306 L162 307 L162 309 L163 310 L163 311 L164 312 L164 313 L165 314 L165 315 L166 316 L166 318 L167 319 L167 321 L168 322 L168 323 L169 324 L169 326 L170 327 L170 329 L171 330 L171 332 L172 333 L172 337 L173 338 L173 341 L174 342 L174 343 L175 344 L175 346 L176 347 L176 349 L177 350 L177 352 L178 353 L178 356 L179 357 L179 360 L180 361 L180 363 L179 364 L172 357 L172 356 L170 354 L170 353 L167 350 L167 349 L165 347 L165 346 L154 335 L154 334 L152 332 L151 332 L137 318 L136 318 L132 314 L132 313 L131 312 L131 310 L130 309 L130 308 L129 307 L129 306 L128 305 L128 304 L122 298 L121 298 L120 297 L119 297 L118 296 L109 296 L108 297 L104 297 L103 298 L100 298 L99 297 L98 297 L95 294 L94 294 L92 292 L90 292 L89 291 L88 291 L87 292 L86 292 L85 291 L79 291 L78 292 L77 292 L76 293 L75 293 L74 294 L72 294 L71 295 L71 296 L69 298 L68 298 L61 305 L61 306 L59 308 L59 309 L58 310 L58 311 L57 312 L57 313 L56 314 L56 315 L55 316 L55 317 L54 318 L54 323 L53 324 L53 346 L54 347 L54 350 L55 351 L55 353 L56 354 L56 356 L57 357 L57 359 L58 360 L58 362 L59 363 L59 366 L60 367 L60 371 L61 372 L61 376 L62 377 L62 379 L63 380 L63 381 L64 382 L64 384 L66 386 L68 386 L70 384 L70 383 L73 380 L73 379 L78 374 L79 374 L80 373 L81 373 L82 372 L83 372 L84 371 L86 371 L87 370 L88 370 L89 369 L90 369 L91 368 L93 368 L94 367 L95 367 L96 366 L97 366 L98 365 L99 365 L100 364 L102 364 L103 363 L104 363 L105 362 L106 362 L107 361 L108 361 L110 359 L111 359 L113 357 L114 357 L116 355 L117 355 L123 349 L123 348 L125 346 L125 345 L126 344 L126 343 L127 342 L127 341 L128 340 L128 338 L129 337 L129 334 L130 333 L130 329 L131 328 L132 328 L154 350 L154 351 L159 356 L159 357 L160 358 L160 359 L161 360 L161 361 L159 363 L154 363 L153 364 L148 364 L147 365 L142 365 L141 366 L136 366 L135 367 L131 367 L130 368 L127 368 L126 369 L124 369 L123 370 L120 370 L119 371 L118 371 L117 372 L115 372 L114 373 L113 373 L112 374 L111 374 L109 376 L108 376 L107 377 L107 378 L104 381 L104 382 L103 383 L103 385 L102 386 L102 391 L103 392 L103 398 L104 399 L104 407 L105 408 L105 412 L106 413 L106 416 L107 417 L107 418 L108 419 L108 420 L110 422 L111 422 L115 426 L115 427 L116 428 L116 431 L117 432 L117 435 L118 436 L118 438 L119 439 L119 442 L120 443 L120 446 L121 447 L121 448 L122 449 L122 452 L123 453 L123 456 L124 457 L124 458 L125 459 L125 461 L126 462 L126 465 L127 466 L127 470 L128 471 L128 476 L129 477 L129 480 L130 481 L130 484 L131 485 L131 488 L132 489 L132 492 L133 493 L133 497 L134 498 L134 502 L135 503 L135 506 L136 507 L136 508 L137 509 L137 514 L138 515 L138 518 L139 519 L139 522 L140 523 L140 527 L141 528 L141 532 L142 533 L142 537 L143 538 L143 540 L144 541 L144 542 L145 543 L145 545 L146 546 L146 547 L148 549 L148 550 L150 552 L150 553 L151 553 L153 555 L155 555 L156 556 L157 556 L159 558 L160 558 L162 560 L163 560 L164 561 L166 561 L167 562 L168 562 L169 563 L174 563 L175 564 L181 564 L182 565 L187 565 L188 566 L193 566 L194 567 L197 567 L198 568 L208 568 L209 569 L210 569 L211 568 L213 568 L214 569 L225 569 L226 568 L233 568 L234 567 L241 567 L242 566 L248 566 L249 565 L250 565 L251 564 L252 564 L254 562 L262 562 L263 561 L265 561 L266 560 L267 560 L268 559 L269 559 L271 557 L272 557 L273 556 L273 555 L274 554 L278 554 L279 553 L279 552 L281 550 L281 549 L282 548 L282 546 L283 545 L283 540 L284 539 L284 534 L285 533 L285 529 L286 528 L286 524 L287 523 L287 521 L288 520 L288 517 L289 516 L289 513 L290 512 L290 509 L291 508 L291 502 L292 501 L292 496 L293 495 L293 492 L294 491 L294 487 L295 486 L295 482 L296 481 L296 477 L297 476 L297 472 L298 471 L298 466 L299 465 L299 461 L300 460 L300 456 L301 455 L301 451 L302 450 L302 447 L303 446 L303 443 L304 442 L304 439 L305 438 L305 433 L306 432 L306 428 L307 427 L307 426 L309 424 L310 424 L312 422 L313 422 L313 421 L314 420 L314 419 L315 418 L315 414 L316 413 L316 409 L317 408 L317 403 L318 402 L318 393 L319 392 L319 384 L318 383 L318 382 L317 381 L317 380 L316 379 L315 379 L312 376 L311 376 L310 375 L309 375 L307 373 L306 373 L305 372 L304 372 L303 371 L302 371 L301 370 L300 370 L299 369 L296 369 L295 368 L288 368 L287 367 L283 367 L281 365 L280 365 L279 364 L260 364 L259 363 L255 363 L254 362 L254 361 L255 360 L255 358 L256 357 L256 355 L258 353 L259 353 L262 350 L263 350 L268 345 L268 344 L272 340 L273 340 L276 337 L278 337 L280 335 L281 335 L283 337 L285 337 L286 338 L287 338 L288 339 L289 339 L290 340 L291 340 L292 341 L293 341 L294 342 L296 342 L297 343 L299 343 L300 344 L303 344 L304 345 L305 345 L306 346 L307 346 L311 350 L311 352 L312 353 L312 354 L313 355 L313 358 L314 359 L318 359 L319 358 L320 358 L320 357 L321 356 L321 340 L322 339 L322 328 L321 327 L321 323 L320 322 L320 320 L319 319 L319 318 L318 317 L318 316 L317 315 L317 314 L314 311 L313 311 L312 310 L311 310 L310 309 L308 309 L307 308 L306 308 L305 307 L302 307 L301 306 L298 306 L297 305 L302 300 L303 300 L307 296 L309 296 L311 298 L312 298 L316 302 L317 302 L320 305 L321 305 L329 313 L330 313 L332 315 L333 315 L335 317 L336 317 L337 318 L338 318 L339 319 L341 319 L342 320 L345 320 L346 321 L350 321 L351 322 L355 322 L356 323 L359 323 L360 324 L363 324 L364 325 L366 325 L367 326 L368 326 L370 328 L371 328 L372 329 L372 330 L373 331 L373 332 L375 334 L375 336 L376 337 L376 338 L377 339 L377 340 L378 341 L381 341 L385 337 L385 336 L387 334 L387 333 L389 331 L389 330 L393 326 L393 325 L395 323 L395 322 L396 321 L396 320 L397 319 L397 318 L399 316 L399 315 L400 314 L400 313 L401 312 L401 311 L402 310 L402 309 L403 308 L403 306 L404 305 L404 303 L405 302 L405 296 L406 295 L406 287 L407 286 L407 262 L406 261 L406 258 L405 257 L405 256 L404 255 L404 253 L403 252 L403 251 L402 250 L402 249 L401 248 L401 246 L399 244 L399 243 L398 242 L398 241 L396 239 L396 238 L395 237 L395 236 L386 227 L385 227 L383 225 L382 225 L381 224 L380 224 L379 223 L377 223 L376 222 L374 222 L373 221 L363 221 L362 222 L361 222 L360 223 L359 223 L355 227 L355 228 L354 229 L354 230 L353 231 L353 232 L352 233 L352 234 L351 235 L351 237 L350 238 L350 239 L348 241 L346 239 L346 238 L345 237 L345 236 L344 235 L344 234 L345 233 L345 231 L344 232 L343 232 L341 230 L339 230 L338 229 L335 229 L334 228 L325 228 L324 229 L321 229 L320 230 L319 230 L318 231 L317 231 L315 233 L314 233 L313 232 L313 224 L312 223 L312 219 L311 218 L311 216 L310 215 L310 213 L309 212 L309 211 L307 209 L307 208 L301 202 L300 202 L297 199 L296 199 L295 198 L295 197 L296 196 L306 196 L307 197 L310 197 L311 198 L312 198 L313 199 L320 199 L321 200 L324 200 L325 201 L328 201 L329 202 L334 202 L335 203 L342 203 L343 204 L345 204 L347 206 L348 206 L351 209 L351 210 L352 211 L356 211 L357 210 L358 210 L359 211 L360 211 L361 210 L361 206 L363 204 L363 203 L364 202 L364 201 L371 194 L371 193 L373 191 L373 190 L375 188 L375 187 L377 185 L377 184 L385 176 L385 175 L386 174 L386 173 L387 172 L387 171 L388 170 L388 164 L387 163 L387 162 L385 160 L385 159 L383 157 L383 156 L381 154 L381 153 L374 146 L374 145 L370 141 L370 140 L368 138 L368 137 L364 133 L363 133 L362 132 L361 132 L360 131 L358 131 L357 130 L356 130 L355 129 L354 129 L353 128 L352 128 L351 127 L350 127 L344 121 L344 120 L345 119 L347 119 L348 120 L349 120 L351 122 L353 122 L354 123 L355 123 L356 124 L358 124 L359 125 L361 125 L362 126 L363 126 L364 127 L365 127 L366 128 L367 128 L377 138 L377 139 L389 151 L389 155 L390 156 L390 157 L391 158 L392 157 L393 157 L396 154 L396 152 L397 151 L397 147 L398 146 L398 141 L399 140 L399 135 L400 134 L400 131 L401 130 L401 118 L400 117 L400 114 L399 113 L399 111 L398 110 L398 109 L397 108 L397 107 L390 100 L389 100 L386 97 L385 97 L384 96 L381 96 L380 95 L379 95 L378 94 L374 94 L373 93 L371 93 L370 92 L366 92 L365 91 L360 91 L359 90 L356 90 L355 89 L353 89 L352 88 L340 88 L339 87 L336 87 L335 86 L335 85 L337 83 L340 83 L341 82 L345 82 L346 81 L350 81 L351 80 L366 80 L367 81 L370 81 L371 82 L372 82 L373 83 L374 83 L375 84 L376 84 L377 85 L378 85 L380 87 L381 87 L383 89 L384 89 L386 91 L387 91 L390 94 L391 94 L392 95 L396 95 L397 94 L397 88 L396 87 L396 83 L395 82 L395 77 L394 76 L394 74 L393 73 L393 71 L392 70 L392 69 L391 68 L391 66 L388 63 L388 62 L383 57 L383 56 L379 52 L379 51 L378 50 L378 49 L376 47 L376 46 L374 44 L374 42 L373 41 L373 40 L371 38 L371 37 L366 32 L366 31 L362 27 L361 27 L358 24 L357 24 L354 21 L353 21 L351 19 L350 19 L349 18 L347 18 L346 17 L345 17 L344 16 L343 16 L342 15 L340 15 L339 14 L338 14 L337 13 L335 13 L334 12 L331 12 L330 11 Z " fill="black"/></svg>