<svg width="355" height="590" xmlns="http://www.w3.org/2000/svg"><path d="M196 11 L195 12 L191 12 L190 13 L187 13 L186 14 L184 14 L183 15 L182 15 L181 16 L180 16 L179 17 L178 17 L177 18 L176 18 L172 22 L172 23 L171 24 L171 30 L172 31 L172 32 L173 33 L174 33 L175 34 L176 34 L177 35 L182 35 L183 36 L190 36 L191 37 L194 37 L196 39 L196 41 L197 42 L197 43 L198 44 L198 45 L201 48 L201 71 L202 72 L202 126 L203 127 L203 131 L200 134 L198 134 L197 135 L196 135 L192 139 L192 140 L191 141 L191 143 L190 144 L190 148 L189 149 L189 165 L190 166 L190 172 L189 173 L189 185 L188 186 L187 186 L186 185 L183 185 L182 184 L181 184 L180 183 L180 182 L179 181 L179 178 L178 177 L178 175 L177 174 L177 172 L176 171 L176 170 L175 169 L175 167 L173 165 L173 164 L171 162 L171 161 L168 158 L168 157 L164 153 L163 153 L160 150 L159 150 L157 148 L156 148 L155 147 L154 147 L152 145 L151 145 L150 144 L149 144 L148 143 L147 143 L146 142 L145 142 L143 140 L142 140 L141 139 L139 139 L138 138 L137 138 L136 137 L135 137 L134 136 L132 136 L131 135 L129 135 L128 134 L127 134 L126 133 L124 133 L123 132 L122 132 L121 131 L120 131 L119 130 L117 130 L116 129 L115 129 L114 128 L113 128 L112 127 L111 127 L110 126 L108 126 L107 125 L106 125 L105 124 L104 124 L103 123 L102 123 L101 122 L99 122 L98 121 L97 121 L96 120 L95 120 L94 119 L92 119 L91 118 L90 118 L89 117 L87 117 L86 116 L85 116 L84 115 L83 115 L82 114 L81 114 L80 113 L78 113 L77 112 L76 112 L75 111 L74 111 L73 110 L72 110 L71 109 L70 109 L69 108 L68 108 L65 105 L65 103 L64 102 L64 100 L63 99 L63 98 L61 96 L60 96 L59 95 L58 95 L57 94 L56 94 L55 93 L50 93 L49 92 L45 92 L44 91 L39 91 L38 92 L35 92 L34 93 L33 92 L30 92 L29 91 L28 91 L27 90 L21 90 L15 96 L15 97 L14 98 L14 99 L13 100 L13 101 L12 102 L12 104 L11 105 L11 111 L13 113 L13 114 L14 114 L15 115 L16 115 L17 116 L18 116 L20 118 L21 118 L27 124 L27 125 L28 126 L28 127 L30 129 L31 129 L32 130 L33 130 L34 131 L35 131 L36 132 L39 132 L40 133 L47 133 L48 134 L51 134 L52 133 L54 133 L55 132 L59 132 L60 133 L62 133 L63 134 L64 134 L65 135 L66 135 L67 136 L68 136 L69 137 L71 137 L72 138 L73 138 L74 139 L75 139 L76 140 L77 140 L78 141 L79 141 L80 142 L82 142 L83 143 L84 143 L85 144 L86 144 L87 145 L89 145 L90 146 L92 146 L93 147 L94 147 L95 148 L97 148 L98 149 L99 149 L100 150 L102 150 L103 151 L104 151 L105 152 L106 152 L107 153 L109 153 L110 154 L111 154 L112 155 L113 155 L114 156 L116 156 L117 157 L118 157 L119 158 L120 158 L121 159 L122 159 L123 160 L125 160 L126 161 L127 161 L128 162 L129 162 L130 163 L132 163 L133 164 L134 164 L135 165 L136 165 L137 166 L138 166 L139 167 L140 167 L142 169 L143 169 L144 170 L145 170 L151 176 L151 177 L152 178 L152 179 L153 180 L153 181 L154 182 L154 184 L155 185 L155 189 L156 190 L156 196 L157 197 L157 221 L156 222 L156 223 L155 224 L152 224 L151 225 L147 225 L146 226 L144 226 L143 227 L141 227 L140 228 L138 228 L136 230 L135 230 L134 231 L133 231 L133 232 L131 234 L131 236 L130 237 L130 264 L129 265 L129 266 L130 267 L130 268 L133 271 L134 271 L136 273 L137 273 L138 274 L138 275 L136 277 L135 277 L134 278 L133 278 L132 279 L131 279 L130 280 L129 280 L128 281 L127 281 L126 282 L125 282 L124 283 L123 283 L122 284 L121 284 L119 286 L118 286 L117 287 L116 287 L114 289 L113 289 L112 290 L111 290 L109 292 L108 292 L106 294 L105 294 L103 296 L102 296 L98 300 L97 300 L85 312 L85 313 L80 318 L80 319 L78 321 L78 322 L76 324 L76 325 L74 327 L74 328 L73 329 L73 330 L72 331 L72 332 L70 334 L70 335 L69 336 L69 337 L68 338 L68 339 L67 340 L67 342 L66 343 L66 344 L65 345 L65 346 L64 347 L64 349 L63 350 L63 352 L62 353 L62 356 L61 357 L61 359 L60 360 L60 363 L59 364 L59 369 L58 370 L58 383 L57 384 L57 400 L56 401 L56 440 L57 441 L57 493 L58 494 L58 531 L59 532 L59 534 L60 535 L60 536 L61 537 L61 538 L71 548 L72 548 L75 551 L76 551 L78 553 L79 553 L80 554 L81 554 L83 556 L84 556 L85 557 L86 557 L87 558 L88 558 L89 559 L90 559 L91 560 L93 560 L94 561 L95 561 L96 562 L97 562 L98 563 L100 563 L101 564 L103 564 L104 565 L105 565 L106 566 L108 566 L109 567 L111 567 L112 568 L114 568 L115 569 L117 569 L118 570 L122 570 L123 571 L126 571 L127 572 L131 572 L132 573 L138 573 L139 574 L145 574 L146 575 L153 575 L154 576 L162 576 L163 577 L180 577 L181 578 L217 578 L218 577 L233 577 L234 576 L244 576 L245 575 L252 575 L253 574 L260 574 L261 573 L269 573 L270 572 L274 572 L275 571 L279 571 L280 570 L284 570 L285 569 L288 569 L289 568 L291 568 L292 567 L294 567 L295 566 L297 566 L298 565 L300 565 L301 564 L302 564 L303 563 L305 563 L306 562 L307 562 L308 561 L310 561 L311 560 L312 560 L313 559 L314 559 L315 558 L316 558 L318 556 L319 556 L320 555 L321 555 L322 554 L323 554 L326 551 L327 551 L331 547 L332 547 L337 542 L337 541 L340 538 L340 537 L341 536 L341 535 L342 534 L342 533 L343 532 L343 433 L344 432 L344 421 L343 420 L343 419 L344 418 L344 412 L343 411 L343 387 L342 386 L342 378 L341 377 L341 372 L340 371 L340 365 L339 364 L339 362 L338 361 L338 359 L337 358 L337 356 L336 355 L336 353 L335 352 L335 350 L334 349 L334 348 L333 347 L333 345 L332 344 L332 343 L331 342 L331 341 L330 340 L330 338 L329 337 L329 336 L328 335 L328 333 L327 332 L327 331 L326 330 L326 329 L325 328 L325 327 L323 325 L323 324 L322 323 L322 322 L319 319 L319 318 L314 313 L314 312 L306 304 L305 304 L301 300 L300 300 L297 297 L296 297 L294 295 L293 295 L291 293 L290 293 L288 291 L287 291 L286 290 L285 290 L283 288 L282 288 L281 287 L280 287 L278 285 L277 285 L276 284 L275 284 L274 283 L273 283 L272 282 L271 282 L270 281 L269 281 L268 280 L267 280 L266 279 L264 279 L263 278 L262 278 L261 277 L260 277 L259 276 L259 275 L260 274 L261 274 L263 272 L264 272 L266 270 L266 269 L267 268 L267 267 L268 266 L268 261 L267 260 L267 242 L268 241 L278 241 L279 240 L281 240 L282 239 L285 239 L286 238 L289 238 L290 237 L291 237 L292 236 L294 236 L295 235 L296 235 L297 234 L298 234 L299 233 L300 233 L301 232 L302 232 L305 229 L306 229 L311 224 L311 223 L313 221 L313 220 L315 218 L315 217 L316 216 L316 215 L317 214 L317 213 L318 212 L318 211 L319 210 L319 208 L320 207 L320 205 L321 204 L321 201 L322 200 L322 184 L321 183 L321 179 L320 178 L320 176 L319 175 L319 174 L318 173 L318 172 L317 171 L317 170 L316 169 L316 168 L315 167 L315 166 L312 163 L312 162 L302 152 L301 152 L298 149 L297 149 L296 148 L295 148 L294 147 L293 147 L292 146 L291 146 L290 145 L289 145 L288 144 L286 144 L285 143 L283 143 L282 142 L277 142 L276 141 L275 141 L274 142 L263 142 L262 143 L259 143 L258 144 L257 144 L256 145 L254 145 L253 146 L252 146 L251 147 L250 147 L248 149 L247 149 L245 151 L244 151 L240 155 L239 155 L238 154 L238 149 L237 148 L237 143 L236 142 L236 141 L232 137 L232 136 L230 134 L229 134 L227 132 L225 132 L224 131 L224 129 L223 128 L223 116 L224 115 L224 112 L223 111 L223 110 L224 109 L224 83 L223 82 L223 50 L224 49 L224 47 L225 46 L225 44 L227 42 L227 40 L229 38 L232 38 L233 37 L238 37 L239 36 L243 36 L244 35 L247 35 L248 34 L250 34 L255 29 L255 26 L254 25 L254 24 L253 23 L253 22 L249 18 L248 18 L246 16 L245 16 L243 14 L241 14 L240 13 L239 13 L238 12 L234 12 L233 11 Z " fill="black"/></svg>