<svg width="676" height="458" xmlns="http://www.w3.org/2000/svg"><path d="M241 11 L240 12 L226 12 L224 14 L224 17 L223 18 L223 25 L224 26 L224 56 L223 57 L222 56 L222 53 L221 52 L221 50 L220 49 L220 48 L219 47 L219 46 L218 45 L217 45 L216 44 L211 44 L210 45 L208 45 L207 46 L206 46 L205 47 L203 47 L202 48 L200 48 L199 49 L197 49 L196 50 L194 50 L193 51 L191 51 L190 52 L187 52 L186 53 L185 53 L184 54 L182 54 L181 55 L178 55 L177 56 L176 56 L175 57 L173 57 L172 58 L170 58 L169 59 L167 59 L166 60 L164 60 L163 61 L161 61 L160 62 L159 62 L158 63 L156 63 L155 64 L152 64 L151 65 L149 65 L148 66 L146 66 L145 67 L143 67 L142 68 L140 68 L139 69 L137 69 L136 70 L134 70 L133 71 L131 71 L130 72 L128 72 L127 73 L125 73 L124 74 L122 74 L121 75 L120 75 L119 76 L117 76 L116 77 L114 77 L113 78 L111 78 L110 79 L108 79 L107 80 L105 80 L104 81 L102 81 L101 82 L100 82 L99 83 L96 83 L95 84 L93 84 L92 85 L90 85 L89 86 L87 86 L86 87 L84 87 L83 88 L82 88 L81 89 L79 89 L78 90 L76 90 L75 91 L74 91 L73 92 L72 92 L71 93 L69 93 L68 94 L66 94 L65 95 L63 95 L62 96 L61 96 L60 97 L58 97 L57 98 L55 98 L54 99 L52 99 L51 100 L49 100 L48 101 L45 101 L44 102 L43 102 L42 103 L40 103 L39 104 L37 104 L36 105 L35 105 L34 106 L32 106 L31 107 L29 107 L28 108 L27 108 L26 109 L25 109 L24 110 L22 110 L21 111 L20 111 L19 112 L18 112 L17 113 L15 113 L14 114 L13 114 L10 117 L10 118 L11 119 L11 120 L12 121 L12 122 L13 123 L13 124 L14 125 L14 126 L15 127 L15 130 L16 131 L16 133 L17 134 L17 136 L18 137 L18 139 L19 140 L19 143 L20 144 L20 146 L21 147 L21 149 L22 150 L22 152 L23 153 L23 155 L24 156 L24 158 L25 159 L25 161 L26 162 L26 165 L27 166 L27 167 L28 168 L28 170 L29 171 L29 173 L30 174 L30 176 L31 177 L31 178 L32 179 L32 181 L33 182 L33 184 L34 185 L34 187 L35 188 L35 190 L36 191 L36 193 L37 194 L37 195 L38 196 L38 198 L39 199 L39 201 L40 202 L40 204 L41 205 L41 207 L42 208 L42 210 L43 211 L43 213 L44 214 L44 215 L45 216 L45 218 L46 219 L46 221 L47 222 L47 224 L48 225 L48 227 L49 228 L49 231 L50 232 L50 233 L51 234 L51 236 L52 237 L52 239 L53 240 L53 242 L54 243 L54 244 L55 245 L55 247 L56 248 L56 250 L57 251 L57 253 L58 254 L58 256 L59 257 L59 258 L60 259 L60 261 L61 262 L61 264 L62 265 L62 267 L63 268 L63 270 L64 271 L64 273 L65 274 L65 277 L66 278 L66 279 L67 280 L67 282 L68 283 L68 286 L69 287 L69 288 L70 289 L70 291 L71 292 L71 294 L72 295 L72 297 L73 298 L73 300 L74 301 L74 303 L75 304 L75 306 L76 307 L76 309 L77 310 L77 312 L78 313 L78 315 L79 316 L79 318 L80 319 L80 321 L81 322 L81 324 L82 325 L82 327 L83 328 L83 329 L84 330 L84 333 L85 334 L85 336 L86 337 L86 338 L87 339 L87 341 L88 342 L88 344 L89 345 L89 346 L90 347 L90 349 L91 350 L91 351 L92 352 L92 354 L93 355 L93 357 L94 358 L94 359 L95 360 L95 362 L96 363 L96 364 L97 365 L97 366 L98 367 L98 369 L99 370 L99 372 L100 373 L100 374 L101 375 L101 377 L102 378 L102 380 L103 381 L103 382 L104 383 L104 385 L105 386 L105 388 L106 389 L106 390 L107 391 L107 393 L108 394 L108 395 L109 396 L109 398 L110 399 L110 401 L111 402 L111 404 L112 405 L112 407 L113 408 L113 410 L114 411 L114 413 L115 414 L115 416 L116 417 L116 419 L118 421 L118 422 L120 424 L124 424 L125 423 L127 423 L128 422 L129 422 L130 421 L132 421 L133 420 L136 420 L137 419 L139 419 L140 418 L142 418 L143 417 L145 417 L146 416 L147 416 L148 415 L150 415 L151 414 L153 414 L154 413 L157 413 L158 412 L159 412 L160 411 L162 411 L163 410 L165 410 L166 409 L168 409 L169 408 L170 408 L171 407 L173 407 L174 406 L176 406 L177 405 L178 405 L179 404 L181 404 L182 403 L184 403 L185 402 L186 402 L187 401 L189 401 L190 400 L192 400 L193 399 L194 399 L195 398 L197 398 L198 397 L200 397 L201 396 L203 396 L204 395 L205 395 L206 394 L208 394 L209 393 L212 393 L213 392 L215 392 L216 391 L218 391 L219 390 L221 390 L222 389 L224 389 L225 388 L227 388 L228 387 L231 387 L232 386 L235 386 L236 385 L238 385 L239 384 L242 384 L243 383 L245 383 L246 382 L248 382 L249 381 L251 381 L252 380 L254 380 L255 379 L256 379 L257 378 L259 378 L260 377 L262 377 L263 376 L264 376 L265 375 L266 375 L267 374 L269 374 L270 373 L272 373 L273 372 L275 372 L276 371 L278 371 L279 370 L282 370 L283 369 L285 369 L286 368 L288 368 L289 367 L291 367 L292 366 L294 366 L295 365 L298 365 L299 364 L301 364 L302 363 L305 363 L306 362 L308 362 L309 361 L311 361 L312 360 L314 360 L315 359 L316 359 L317 358 L320 358 L321 357 L323 357 L324 356 L325 356 L328 353 L328 352 L329 351 L329 348 L330 347 L330 344 L329 343 L329 340 L331 338 L332 339 L355 339 L356 340 L356 342 L355 343 L355 345 L354 346 L354 348 L353 349 L353 351 L352 352 L352 354 L351 355 L351 356 L350 357 L350 359 L349 360 L349 362 L348 363 L348 364 L347 365 L347 367 L346 368 L346 370 L345 371 L345 374 L348 377 L349 377 L350 378 L351 378 L352 379 L354 379 L355 380 L357 380 L358 381 L360 381 L361 382 L363 382 L364 383 L366 383 L367 384 L369 384 L370 385 L372 385 L373 386 L375 386 L376 387 L379 387 L380 388 L382 388 L383 389 L385 389 L386 390 L388 390 L389 391 L391 391 L392 392 L394 392 L395 393 L398 393 L399 394 L401 394 L402 395 L404 395 L405 396 L407 396 L408 397 L410 397 L411 398 L413 398 L414 399 L416 399 L417 400 L418 400 L419 401 L421 401 L422 402 L423 402 L424 403 L427 403 L428 404 L430 404 L431 405 L432 405 L433 406 L435 406 L436 407 L438 407 L439 408 L441 408 L442 409 L444 409 L445 410 L448 410 L449 411 L450 411 L451 412 L453 412 L454 413 L456 413 L457 414 L459 414 L460 415 L462 415 L463 416 L465 416 L466 417 L469 417 L470 418 L471 418 L472 419 L474 419 L475 420 L478 420 L479 421 L480 421 L481 422 L483 422 L484 423 L486 423 L487 424 L489 424 L490 425 L492 425 L493 426 L495 426 L496 427 L499 427 L500 428 L502 428 L503 429 L505 429 L506 430 L508 430 L509 431 L511 431 L512 432 L515 432 L516 433 L518 433 L519 434 L520 434 L521 435 L523 435 L524 436 L526 436 L527 437 L529 437 L530 438 L532 438 L533 439 L535 439 L536 440 L538 440 L539 441 L541 441 L542 442 L545 442 L546 443 L548 443 L549 444 L550 444 L551 445 L554 445 L555 446 L561 446 L562 445 L562 443 L564 441 L564 440 L565 439 L565 437 L566 436 L566 434 L567 433 L567 432 L568 431 L568 429 L569 428 L569 426 L570 425 L570 424 L571 423 L571 421 L572 420 L572 418 L573 417 L573 414 L574 413 L574 411 L575 410 L575 407 L576 406 L576 404 L577 403 L577 401 L578 400 L578 398 L579 397 L579 394 L580 393 L580 392 L581 391 L581 389 L582 388 L582 386 L583 385 L583 383 L584 382 L584 380 L585 379 L585 377 L586 376 L586 374 L587 373 L587 370 L588 369 L588 367 L589 366 L589 364 L590 363 L590 361 L591 360 L591 358 L592 357 L592 355 L593 354 L593 352 L594 351 L594 349 L595 348 L595 347 L596 346 L596 344 L597 343 L597 342 L598 341 L598 339 L599 338 L599 336 L600 335 L600 333 L601 332 L601 330 L602 329 L602 326 L603 325 L603 324 L604 323 L604 320 L605 319 L605 317 L606 316 L606 314 L607 313 L607 311 L608 310 L608 308 L609 307 L609 305 L610 304 L610 303 L611 302 L611 300 L612 299 L612 297 L613 296 L613 294 L614 293 L614 291 L615 290 L615 288 L616 287 L616 285 L617 284 L617 282 L618 281 L618 278 L619 277 L619 275 L620 274 L620 272 L621 271 L621 269 L622 268 L622 266 L623 265 L623 263 L624 262 L624 260 L625 259 L625 257 L626 256 L626 255 L627 254 L627 251 L628 250 L628 249 L629 248 L629 246 L630 245 L630 243 L631 242 L631 240 L632 239 L632 237 L633 236 L633 235 L634 234 L634 232 L635 231 L635 229 L636 228 L636 226 L637 225 L637 223 L638 222 L638 220 L639 219 L639 216 L640 215 L640 213 L641 212 L641 210 L642 209 L642 207 L643 206 L643 204 L644 203 L644 201 L645 200 L645 198 L646 197 L646 194 L647 193 L647 191 L648 190 L648 188 L649 187 L649 185 L650 184 L650 181 L651 180 L651 178 L652 177 L652 175 L653 174 L653 172 L654 171 L654 168 L655 167 L655 165 L656 164 L656 162 L657 161 L657 159 L658 158 L658 155 L659 154 L659 152 L660 151 L660 149 L661 148 L661 146 L662 145 L662 143 L663 142 L663 139 L664 138 L664 135 L663 134 L663 133 L662 132 L660 132 L659 131 L657 131 L656 130 L654 130 L653 129 L651 129 L650 128 L648 128 L647 127 L646 127 L645 126 L642 126 L641 125 L640 125 L639 124 L637 124 L636 123 L634 123 L633 122 L632 122 L631 121 L629 121 L628 120 L626 120 L625 119 L623 119 L622 118 L621 118 L620 117 L617 117 L616 116 L614 116 L613 115 L611 115 L610 114 L609 114 L608 113 L605 113 L604 112 L602 112 L601 111 L599 111 L598 110 L596 110 L595 109 L593 109 L592 108 L590 108 L589 107 L587 107 L586 106 L583 106 L582 105 L580 105 L579 104 L577 104 L576 103 L574 103 L573 102 L571 102 L570 101 L568 101 L567 100 L565 100 L564 99 L563 99 L562 98 L560 98 L559 97 L557 97 L556 96 L554 96 L553 95 L551 95 L550 94 L547 94 L546 93 L544 93 L543 92 L542 92 L541 91 L539 91 L538 90 L536 90 L535 89 L533 89 L532 88 L531 88 L530 87 L528 87 L527 86 L525 86 L524 85 L522 85 L521 84 L519 84 L518 83 L515 83 L514 82 L512 82 L511 81 L509 81 L508 80 L506 80 L505 79 L503 79 L502 78 L499 78 L498 77 L496 77 L495 76 L493 76 L492 75 L491 75 L490 74 L488 74 L487 73 L485 73 L484 72 L482 72 L481 71 L479 71 L478 70 L477 70 L476 69 L474 69 L473 68 L472 68 L471 67 L469 67 L468 66 L466 66 L465 65 L462 65 L461 64 L459 64 L458 63 L451 63 L450 64 L448 62 L448 40 L449 39 L449 16 L448 15 L448 14 L447 13 L444 13 L443 12 L421 12 L420 13 L388 13 L387 12 L328 12 L327 13 L303 13 L302 12 L273 12 L272 11 L271 11 L270 12 L266 12 L265 11 L251 11 L250 12 L243 12 L242 11 Z " fill="black"/></svg>