<svg width="353" height="504" xmlns="http://www.w3.org/2000/svg"><path d="M7 471 L3 475 L3 476 L0 479 L0 500 L0 498 L1 497 L1 496 L2 495 L2 493 L3 492 L3 491 L4 490 L4 488 L5 487 L5 485 L6 484 L6 483 L7 482 L7 479 L8 478 L8 471 Z M349 450 L348 451 L341 451 L340 452 L336 452 L335 453 L334 453 L333 454 L332 454 L331 455 L330 455 L329 456 L326 456 L325 457 L323 457 L322 458 L320 458 L319 459 L316 459 L315 460 L314 460 L313 461 L311 461 L310 462 L309 462 L308 463 L307 463 L306 464 L304 464 L303 465 L302 465 L301 466 L300 466 L299 467 L298 467 L297 468 L296 468 L295 469 L294 469 L292 471 L291 471 L290 472 L289 472 L288 473 L287 473 L286 474 L285 474 L284 475 L283 475 L282 476 L281 476 L280 477 L279 477 L277 479 L276 479 L275 480 L274 480 L272 482 L271 482 L270 483 L269 483 L267 485 L266 485 L264 487 L263 487 L261 489 L260 489 L259 490 L258 490 L256 492 L255 492 L250 497 L249 497 L249 498 L247 500 L246 500 L244 502 L243 502 L242 503 L241 503 L352 503 L352 450 Z M140 11 L139 12 L135 12 L134 13 L131 13 L130 14 L128 14 L127 15 L126 15 L125 16 L124 16 L122 18 L121 18 L119 20 L118 20 L116 22 L115 22 L112 25 L111 25 L108 28 L107 28 L96 39 L96 40 L93 43 L93 44 L90 47 L90 48 L87 51 L87 52 L83 56 L83 57 L78 62 L78 63 L73 68 L73 69 L70 72 L70 73 L52 91 L52 92 L47 97 L47 98 L44 101 L44 102 L41 105 L41 106 L39 108 L39 109 L38 110 L38 111 L36 113 L36 114 L35 115 L35 116 L34 117 L34 118 L33 119 L33 121 L32 122 L32 123 L31 124 L31 125 L30 126 L30 127 L29 128 L29 130 L28 131 L28 133 L27 134 L27 136 L26 137 L26 141 L25 142 L25 146 L24 147 L24 152 L23 153 L23 157 L22 158 L22 162 L21 163 L21 166 L20 167 L20 170 L19 171 L19 175 L18 176 L18 181 L17 182 L17 186 L16 187 L16 192 L15 193 L15 199 L14 200 L14 205 L13 206 L13 211 L12 212 L12 221 L11 222 L11 251 L12 252 L12 259 L13 260 L13 264 L14 265 L14 267 L15 268 L15 271 L16 272 L16 275 L17 276 L17 278 L18 279 L18 281 L19 282 L19 284 L20 285 L20 287 L21 288 L21 289 L22 290 L22 293 L23 294 L23 296 L24 297 L24 299 L25 300 L25 305 L26 306 L26 314 L27 315 L27 322 L28 323 L28 332 L29 333 L29 354 L30 355 L30 362 L31 363 L31 367 L32 368 L32 371 L33 372 L33 374 L34 375 L34 377 L35 378 L35 380 L36 381 L36 383 L37 384 L37 386 L38 387 L38 389 L39 390 L39 391 L40 392 L40 393 L41 394 L41 395 L42 396 L42 397 L43 398 L43 399 L44 400 L44 401 L45 402 L45 403 L46 404 L46 406 L47 407 L47 408 L48 409 L48 410 L49 411 L49 412 L50 413 L50 414 L51 415 L51 416 L52 417 L52 418 L53 419 L53 420 L54 421 L54 422 L56 424 L56 425 L58 427 L58 428 L60 430 L60 431 L62 433 L62 434 L66 438 L66 439 L69 442 L69 443 L70 444 L70 445 L71 446 L71 447 L72 448 L72 449 L73 450 L73 452 L74 453 L74 454 L75 455 L75 456 L76 457 L76 459 L78 461 L78 462 L79 463 L79 464 L80 465 L80 466 L81 467 L81 468 L82 469 L82 470 L83 471 L83 472 L84 473 L84 474 L85 475 L85 477 L86 478 L86 480 L87 481 L87 488 L88 489 L88 492 L90 492 L92 490 L93 490 L94 489 L94 488 L97 485 L97 483 L98 482 L98 479 L99 478 L99 475 L100 474 L100 471 L101 470 L101 468 L102 467 L102 466 L103 465 L103 464 L105 462 L105 461 L110 456 L110 455 L113 452 L114 452 L116 450 L117 450 L119 448 L120 448 L121 447 L122 447 L123 446 L124 446 L125 445 L126 445 L127 444 L128 444 L130 442 L131 442 L132 441 L133 441 L135 439 L136 439 L137 438 L138 438 L139 437 L140 437 L141 436 L142 436 L143 435 L144 435 L145 434 L146 434 L147 433 L148 433 L151 430 L152 430 L155 427 L156 427 L158 425 L159 425 L160 424 L161 424 L162 423 L163 423 L164 422 L165 422 L167 420 L168 420 L169 419 L170 419 L174 415 L175 415 L179 411 L180 411 L182 409 L183 409 L185 407 L186 407 L190 403 L191 403 L194 400 L194 399 L197 396 L197 395 L201 391 L201 390 L205 386 L205 385 L211 379 L211 378 L214 375 L214 374 L218 370 L218 369 L221 366 L221 365 L223 363 L223 362 L225 360 L225 359 L227 357 L227 356 L228 355 L228 354 L230 352 L230 351 L232 349 L232 348 L234 346 L234 345 L236 343 L236 342 L246 332 L247 332 L252 327 L253 327 L256 324 L257 324 L260 321 L261 321 L264 318 L265 318 L269 314 L270 314 L275 309 L276 309 L291 294 L291 293 L295 289 L295 288 L298 285 L298 284 L300 282 L300 281 L302 279 L302 278 L304 276 L304 275 L306 273 L306 272 L307 271 L307 270 L308 269 L308 268 L310 266 L310 265 L311 264 L311 263 L312 262 L312 261 L313 260 L313 259 L314 258 L314 256 L315 255 L315 254 L316 253 L316 252 L317 251 L317 250 L318 249 L318 248 L319 247 L319 246 L320 245 L320 244 L321 243 L321 241 L322 240 L322 239 L323 238 L323 237 L324 236 L324 235 L325 234 L325 232 L326 231 L326 230 L327 229 L327 228 L328 227 L328 225 L329 224 L329 223 L330 222 L330 220 L331 219 L331 217 L332 216 L332 214 L333 213 L333 210 L334 209 L334 206 L335 205 L335 201 L336 200 L336 192 L337 191 L337 174 L336 173 L336 162 L335 161 L335 153 L334 152 L334 150 L335 149 L335 141 L336 140 L336 138 L337 137 L337 135 L338 134 L338 132 L339 131 L339 127 L340 126 L340 121 L341 120 L341 101 L340 100 L340 95 L339 94 L339 91 L338 90 L338 87 L337 86 L337 84 L336 83 L336 82 L334 80 L334 79 L332 77 L332 76 L330 74 L329 74 L328 73 L328 72 L324 68 L323 68 L319 64 L318 64 L315 61 L314 61 L313 60 L312 60 L311 59 L310 59 L309 58 L308 58 L307 57 L306 57 L305 56 L301 56 L300 55 L276 55 L275 56 L269 56 L268 57 L264 57 L263 58 L261 58 L260 59 L258 59 L257 60 L256 60 L255 61 L254 61 L253 62 L252 62 L251 63 L250 63 L249 64 L248 64 L247 65 L246 65 L244 67 L243 67 L240 70 L239 70 L235 74 L234 74 L231 77 L231 78 L228 81 L228 82 L226 84 L226 85 L223 88 L223 89 L219 93 L217 93 L216 94 L214 94 L213 95 L212 94 L211 94 L208 91 L208 90 L205 87 L205 86 L204 85 L204 84 L203 83 L203 80 L202 79 L202 69 L201 68 L201 63 L200 62 L200 58 L199 57 L199 55 L198 54 L198 49 L197 48 L197 45 L195 43 L195 42 L192 39 L192 38 L189 35 L189 34 L186 31 L186 30 L179 23 L178 23 L176 21 L175 21 L173 19 L172 19 L171 18 L170 18 L169 17 L168 17 L167 16 L166 16 L165 15 L163 15 L162 14 L160 14 L159 13 L156 13 L155 12 L150 12 L149 11 Z " fill="black"/></svg>