<svg width="605" height="434" xmlns="http://www.w3.org/2000/svg"><path d="M279 11 L278 12 L276 12 L275 13 L274 13 L272 15 L271 15 L268 18 L267 18 L262 23 L261 23 L256 28 L255 28 L249 34 L248 34 L245 37 L244 37 L241 40 L240 40 L236 44 L235 44 L231 48 L230 48 L226 52 L225 52 L222 55 L221 55 L217 59 L216 59 L212 63 L211 63 L208 66 L207 66 L203 70 L202 70 L197 75 L196 75 L191 80 L190 80 L186 84 L185 84 L181 88 L180 88 L176 92 L175 92 L171 96 L170 96 L166 100 L165 100 L160 105 L159 105 L154 110 L153 110 L149 114 L148 114 L142 120 L141 120 L137 124 L136 124 L133 127 L132 127 L128 131 L127 131 L124 134 L123 134 L119 138 L118 138 L114 142 L113 142 L109 146 L108 146 L104 150 L103 150 L99 154 L98 154 L93 159 L92 159 L88 163 L87 163 L83 167 L82 167 L76 173 L75 173 L70 178 L69 178 L64 183 L63 183 L58 188 L57 188 L53 192 L52 192 L49 195 L48 195 L43 200 L42 200 L37 205 L36 205 L32 209 L31 209 L28 212 L27 212 L12 227 L12 229 L11 230 L11 241 L12 242 L12 247 L13 248 L13 252 L14 253 L14 255 L15 256 L15 258 L16 259 L16 260 L17 261 L17 262 L18 263 L18 264 L23 269 L24 269 L27 272 L28 272 L30 274 L31 274 L32 275 L33 275 L35 277 L36 277 L37 278 L38 278 L39 279 L40 279 L41 280 L42 280 L43 281 L44 281 L46 283 L47 283 L48 284 L49 284 L50 285 L51 285 L53 287 L54 287 L55 288 L56 288 L57 289 L58 289 L59 290 L60 290 L61 291 L62 291 L63 292 L64 292 L65 293 L66 293 L67 294 L68 294 L70 296 L71 296 L72 297 L73 297 L74 298 L75 298 L76 299 L77 299 L78 300 L79 300 L81 302 L82 302 L83 303 L84 303 L85 304 L86 304 L87 305 L88 305 L89 306 L90 306 L91 307 L92 307 L94 309 L95 309 L96 310 L97 310 L98 311 L99 311 L100 312 L101 312 L103 314 L104 314 L105 315 L106 315 L107 316 L108 316 L109 317 L110 317 L111 318 L112 318 L113 319 L114 319 L115 320 L116 320 L117 321 L118 321 L119 322 L120 322 L121 323 L122 323 L123 324 L124 324 L125 325 L126 325 L128 327 L129 327 L130 328 L131 328 L132 329 L133 329 L134 330 L135 330 L136 331 L137 331 L138 332 L139 332 L141 334 L142 334 L143 335 L144 335 L145 336 L146 336 L147 337 L148 337 L149 338 L150 338 L151 339 L152 339 L153 340 L154 340 L155 341 L156 341 L157 342 L158 342 L159 343 L160 343 L162 345 L163 345 L164 346 L165 346 L166 347 L167 347 L168 348 L169 348 L170 349 L171 349 L172 350 L173 350 L174 351 L175 351 L176 352 L177 352 L178 353 L179 353 L180 354 L181 354 L182 355 L183 355 L184 356 L185 356 L186 357 L187 357 L188 358 L189 358 L190 359 L191 359 L192 360 L194 360 L195 361 L196 361 L198 363 L200 363 L201 364 L202 364 L204 366 L205 366 L206 367 L208 367 L210 369 L211 369 L212 370 L213 370 L214 371 L215 371 L216 372 L217 372 L218 373 L219 373 L221 375 L222 375 L223 376 L224 376 L225 377 L226 377 L227 378 L228 378 L229 379 L230 379 L232 381 L233 381 L234 382 L235 382 L236 383 L237 383 L238 384 L239 384 L240 385 L241 385 L242 386 L243 386 L244 387 L245 387 L246 388 L247 388 L248 389 L249 389 L250 390 L251 390 L252 391 L253 391 L254 392 L255 392 L256 393 L257 393 L259 395 L260 395 L261 396 L262 396 L263 397 L264 397 L265 398 L266 398 L267 399 L268 399 L269 400 L270 400 L271 401 L272 401 L274 403 L276 403 L278 405 L279 405 L280 406 L281 406 L282 407 L283 407 L284 408 L285 408 L286 409 L287 409 L288 410 L289 410 L290 411 L291 411 L292 412 L293 412 L295 414 L296 414 L297 415 L298 415 L299 416 L300 416 L301 417 L302 417 L303 418 L304 418 L305 419 L306 419 L307 420 L308 420 L309 421 L310 421 L311 422 L315 422 L316 423 L321 423 L322 422 L325 422 L327 420 L328 420 L333 415 L334 415 L340 409 L341 409 L346 404 L347 404 L352 399 L353 399 L359 393 L360 393 L367 386 L368 386 L376 378 L377 378 L386 369 L387 369 L395 361 L396 361 L402 355 L403 355 L410 348 L411 348 L417 342 L418 342 L426 334 L427 334 L433 328 L434 328 L441 321 L442 321 L450 313 L451 313 L456 308 L457 308 L465 300 L466 300 L475 291 L476 291 L481 286 L482 286 L485 283 L488 283 L489 284 L490 284 L491 285 L493 285 L494 286 L495 286 L496 287 L497 287 L498 288 L499 288 L500 289 L501 289 L502 290 L503 290 L504 291 L505 291 L506 292 L507 292 L508 293 L509 293 L510 294 L511 294 L512 295 L513 295 L514 296 L515 296 L516 297 L517 297 L518 298 L519 298 L520 299 L521 299 L522 300 L524 300 L525 301 L526 301 L527 302 L528 302 L529 303 L530 303 L531 304 L533 304 L534 305 L535 305 L536 306 L537 306 L538 307 L540 307 L541 308 L544 308 L545 309 L550 309 L551 308 L552 308 L553 307 L554 307 L555 306 L556 306 L557 305 L558 305 L559 304 L560 304 L561 303 L562 303 L563 302 L564 302 L565 301 L566 301 L567 300 L568 300 L570 298 L571 298 L572 297 L573 297 L574 296 L575 296 L576 295 L577 295 L578 294 L579 294 L580 293 L581 293 L582 292 L583 292 L585 290 L586 290 L589 287 L589 286 L590 285 L590 281 L591 280 L591 277 L592 276 L592 238 L593 237 L593 151 L592 150 L592 149 L591 148 L591 145 L590 144 L590 143 L586 139 L585 139 L584 138 L583 138 L582 137 L581 137 L579 135 L578 135 L577 134 L576 134 L575 133 L573 133 L572 132 L571 132 L570 131 L569 131 L568 130 L567 130 L566 129 L565 129 L564 128 L563 128 L562 127 L560 127 L559 126 L558 126 L557 125 L556 125 L555 124 L554 124 L553 123 L552 123 L551 122 L550 122 L549 121 L548 121 L547 120 L546 120 L545 119 L543 119 L542 118 L541 118 L540 117 L539 117 L538 116 L537 116 L536 115 L535 115 L534 114 L532 114 L531 113 L530 113 L529 112 L528 112 L527 111 L526 111 L525 110 L524 110 L523 109 L521 109 L520 108 L519 108 L518 107 L517 107 L516 106 L514 106 L513 105 L512 105 L511 104 L510 104 L509 103 L507 103 L506 102 L505 102 L504 101 L503 101 L502 100 L500 100 L499 99 L497 99 L496 98 L495 98 L494 97 L492 97 L491 96 L490 96 L489 95 L488 95 L487 94 L486 94 L485 93 L484 93 L483 92 L482 92 L481 91 L479 91 L478 90 L476 90 L475 89 L474 89 L473 88 L471 88 L470 87 L469 87 L468 86 L466 86 L465 85 L464 85 L463 84 L462 84 L461 83 L460 83 L459 82 L458 82 L457 81 L455 81 L454 80 L453 80 L452 79 L451 79 L450 78 L449 78 L448 77 L446 77 L445 76 L444 76 L443 75 L442 75 L441 74 L439 74 L438 73 L437 73 L436 72 L434 72 L433 71 L432 71 L431 70 L429 70 L428 69 L427 69 L426 68 L424 68 L423 67 L422 67 L421 66 L420 66 L419 65 L417 65 L416 64 L415 64 L414 63 L412 63 L411 62 L410 62 L409 61 L408 61 L407 60 L405 60 L404 59 L403 59 L402 58 L400 58 L399 57 L397 57 L396 56 L395 56 L394 55 L392 55 L391 54 L389 54 L388 53 L387 53 L386 52 L385 52 L384 51 L382 51 L381 50 L380 50 L379 49 L378 49 L377 48 L376 48 L375 47 L374 47 L373 46 L372 46 L371 45 L369 45 L368 44 L367 44 L366 43 L364 43 L363 42 L362 42 L361 41 L360 41 L359 40 L357 40 L356 39 L355 39 L354 38 L353 38 L352 37 L350 37 L349 36 L348 36 L347 35 L346 35 L345 34 L343 34 L342 33 L341 33 L340 32 L339 32 L338 31 L336 31 L335 30 L334 30 L333 29 L332 29 L331 28 L329 28 L328 27 L327 27 L326 26 L325 26 L324 25 L322 25 L321 24 L319 24 L318 23 L317 23 L316 22 L315 22 L314 21 L312 21 L311 20 L310 20 L309 19 L308 19 L307 18 L305 18 L304 17 L303 17 L302 16 L301 16 L300 15 L298 15 L297 14 L295 14 L294 13 L293 13 L292 12 L290 12 L289 11 Z " fill="black"/></svg>