<svg width="423" height="500" xmlns="http://www.w3.org/2000/svg"><path d="M133 11 L132 12 L131 12 L129 14 L128 13 L122 13 L121 14 L120 14 L119 15 L118 15 L117 16 L116 16 L114 18 L113 18 L111 20 L110 20 L108 22 L107 22 L104 25 L103 25 L97 31 L97 32 L90 39 L90 40 L89 41 L88 41 L84 45 L84 46 L81 49 L81 51 L79 53 L79 54 L77 56 L76 56 L74 58 L73 58 L69 62 L69 63 L64 68 L64 69 L62 71 L62 72 L61 73 L61 74 L60 75 L60 77 L59 78 L59 79 L58 80 L58 81 L57 82 L57 83 L56 84 L56 85 L55 86 L55 87 L54 88 L54 93 L53 94 L54 95 L54 96 L55 97 L56 97 L61 92 L61 91 L63 89 L64 89 L70 83 L71 83 L75 79 L76 79 L77 78 L78 78 L79 77 L89 77 L90 78 L91 77 L92 77 L93 78 L114 78 L115 77 L127 77 L128 76 L129 76 L130 75 L133 75 L134 74 L135 74 L136 73 L137 73 L138 72 L139 72 L141 70 L142 70 L144 68 L145 68 L146 67 L147 67 L148 66 L149 66 L151 68 L151 69 L152 70 L152 73 L153 74 L153 88 L152 89 L152 101 L153 102 L153 105 L154 106 L154 107 L156 109 L156 110 L160 114 L161 114 L166 119 L166 120 L167 121 L167 122 L168 123 L168 126 L169 127 L169 131 L170 132 L170 136 L171 137 L171 144 L172 145 L172 150 L173 151 L173 155 L174 156 L174 172 L175 173 L175 174 L173 176 L172 176 L171 177 L168 177 L167 178 L165 178 L164 179 L163 179 L162 180 L161 180 L160 181 L158 181 L157 182 L155 182 L154 181 L154 180 L153 179 L153 178 L152 177 L152 176 L151 175 L151 174 L150 173 L150 172 L149 171 L149 170 L148 169 L148 168 L147 167 L147 166 L146 165 L146 164 L145 163 L145 162 L144 161 L144 160 L143 159 L143 157 L142 156 L142 154 L145 151 L145 150 L147 148 L147 147 L149 145 L149 143 L150 142 L150 137 L149 136 L149 135 L148 134 L148 133 L141 126 L136 126 L135 127 L134 127 L133 128 L132 128 L127 133 L126 133 L125 134 L124 134 L123 135 L121 135 L119 133 L119 127 L120 126 L120 116 L117 113 L102 113 L101 114 L100 114 L99 115 L98 115 L97 116 L96 116 L94 118 L93 118 L92 119 L90 119 L89 120 L88 120 L87 121 L86 121 L83 124 L82 124 L76 130 L75 130 L74 131 L73 131 L71 133 L70 133 L69 134 L69 135 L67 137 L67 138 L65 140 L64 140 L63 141 L62 141 L61 142 L60 142 L58 144 L56 144 L55 145 L54 145 L53 146 L52 146 L51 147 L50 147 L48 149 L47 149 L44 152 L43 152 L41 154 L39 154 L38 155 L37 155 L34 158 L33 158 L27 164 L27 165 L25 167 L25 168 L24 169 L24 170 L22 172 L22 173 L20 175 L20 177 L19 178 L19 180 L18 181 L18 188 L17 189 L17 190 L16 191 L16 192 L15 193 L15 194 L14 195 L14 196 L12 198 L12 199 L11 200 L11 204 L12 205 L16 205 L19 202 L19 201 L24 196 L25 196 L29 192 L30 192 L32 190 L33 190 L34 189 L35 189 L37 187 L39 187 L40 186 L42 186 L43 185 L45 185 L46 184 L53 184 L54 185 L90 185 L91 184 L92 184 L93 183 L105 183 L106 182 L110 182 L111 181 L113 181 L114 180 L115 180 L116 179 L118 179 L121 176 L122 176 L128 170 L128 169 L130 167 L130 166 L131 165 L131 164 L132 163 L132 162 L133 161 L133 160 L134 159 L136 161 L136 162 L138 164 L138 165 L139 166 L139 167 L140 168 L140 169 L142 171 L142 172 L143 173 L143 174 L144 175 L144 176 L145 177 L145 178 L146 179 L146 181 L147 182 L147 184 L148 185 L148 188 L142 194 L142 195 L139 198 L139 199 L137 201 L137 202 L135 204 L135 205 L134 206 L134 208 L133 209 L133 212 L132 213 L132 225 L131 226 L129 226 L128 225 L126 225 L125 224 L123 224 L122 223 L120 223 L119 222 L118 222 L117 223 L116 223 L115 224 L114 224 L113 225 L112 225 L110 227 L109 227 L106 230 L106 231 L105 232 L105 233 L104 234 L104 236 L102 238 L102 239 L100 241 L99 241 L98 242 L96 240 L96 236 L97 235 L97 220 L98 219 L98 216 L97 215 L97 213 L95 211 L91 211 L90 210 L88 210 L87 211 L81 211 L80 212 L77 212 L76 213 L74 213 L73 214 L72 214 L71 215 L69 215 L68 216 L67 216 L58 225 L57 225 L53 229 L53 230 L47 236 L47 237 L45 239 L45 240 L44 241 L44 242 L43 243 L43 244 L42 245 L42 246 L41 247 L41 248 L39 250 L39 251 L38 252 L38 255 L37 256 L37 258 L36 259 L36 271 L37 272 L37 278 L38 279 L38 288 L39 289 L39 295 L40 296 L40 297 L41 298 L41 300 L42 301 L42 303 L43 304 L43 307 L44 308 L44 312 L45 313 L45 315 L46 316 L46 317 L47 318 L47 321 L48 322 L48 324 L49 325 L49 332 L50 333 L50 337 L52 339 L56 339 L57 338 L57 337 L58 336 L58 333 L59 332 L59 328 L60 327 L60 325 L61 324 L61 322 L62 321 L62 320 L64 318 L64 317 L66 315 L67 315 L68 314 L68 313 L71 310 L72 310 L73 309 L74 309 L75 308 L77 308 L79 306 L80 306 L84 302 L85 302 L86 301 L88 301 L89 300 L90 300 L91 299 L92 299 L93 298 L94 298 L95 297 L96 297 L98 295 L99 295 L101 293 L102 293 L104 291 L105 291 L108 288 L108 287 L112 283 L112 282 L113 281 L113 280 L115 278 L115 277 L120 272 L123 272 L125 274 L126 274 L129 277 L129 278 L132 281 L132 282 L134 284 L134 285 L137 288 L137 289 L141 293 L141 294 L143 296 L143 297 L145 299 L145 300 L146 301 L146 302 L147 303 L147 304 L148 305 L148 306 L149 307 L149 308 L150 309 L150 310 L151 311 L151 312 L150 313 L144 313 L143 314 L139 314 L138 315 L135 315 L134 316 L132 316 L131 317 L129 317 L125 321 L125 322 L123 324 L123 325 L122 326 L122 328 L121 329 L121 331 L120 332 L120 339 L119 340 L119 350 L118 351 L118 358 L117 359 L117 366 L116 367 L116 376 L115 377 L115 385 L114 386 L114 393 L113 394 L113 411 L112 412 L112 425 L111 426 L111 451 L112 452 L112 453 L114 455 L114 456 L115 457 L115 458 L116 459 L116 460 L117 461 L117 462 L119 464 L119 465 L120 466 L121 466 L123 468 L124 468 L127 471 L128 471 L129 472 L130 472 L132 474 L133 474 L134 475 L135 475 L137 477 L139 477 L140 478 L141 478 L142 479 L144 479 L145 480 L146 480 L147 481 L149 481 L150 482 L153 482 L154 483 L156 483 L157 484 L162 484 L163 485 L170 485 L171 486 L174 486 L175 487 L180 487 L181 488 L248 488 L249 487 L253 487 L254 486 L258 486 L259 485 L262 485 L263 484 L265 484 L266 483 L268 483 L269 482 L272 482 L273 481 L275 481 L276 480 L278 480 L279 479 L280 479 L281 478 L282 478 L283 477 L284 477 L285 476 L286 476 L287 475 L288 475 L289 474 L290 474 L292 472 L293 472 L295 470 L296 470 L297 469 L298 469 L304 463 L304 462 L305 461 L305 460 L306 459 L306 457 L307 456 L307 452 L308 451 L308 410 L307 409 L307 402 L306 401 L306 392 L305 391 L305 378 L304 377 L304 364 L303 363 L303 347 L302 346 L302 337 L301 336 L301 334 L300 333 L300 332 L299 331 L299 330 L298 329 L298 327 L296 325 L296 324 L295 324 L291 320 L290 320 L289 319 L288 319 L286 317 L286 315 L287 314 L288 314 L288 313 L286 313 L285 314 L284 314 L283 315 L282 315 L281 316 L279 316 L278 315 L275 315 L274 314 L269 314 L268 313 L265 313 L264 312 L261 312 L260 311 L263 308 L264 308 L267 305 L268 305 L269 304 L269 303 L271 301 L271 300 L272 299 L272 298 L273 297 L273 296 L274 295 L274 294 L275 293 L275 290 L276 289 L276 287 L277 286 L277 285 L278 284 L283 289 L283 290 L295 302 L296 302 L297 303 L299 303 L300 304 L303 304 L304 305 L310 305 L311 306 L315 306 L316 307 L318 307 L319 308 L321 308 L322 309 L324 309 L326 311 L327 311 L331 315 L332 315 L333 316 L334 316 L335 317 L336 317 L337 318 L338 318 L339 319 L340 319 L342 321 L342 322 L343 323 L343 324 L344 325 L344 326 L346 328 L348 328 L349 327 L349 324 L350 323 L350 318 L349 317 L349 312 L348 311 L348 309 L347 308 L347 307 L346 306 L346 304 L345 303 L345 300 L344 299 L344 297 L343 296 L343 294 L342 293 L342 289 L341 288 L341 286 L340 285 L340 281 L339 280 L339 277 L338 276 L338 273 L337 272 L337 270 L336 269 L336 266 L335 265 L335 264 L334 263 L334 258 L333 257 L333 256 L332 255 L332 254 L330 252 L330 251 L329 250 L329 249 L328 248 L328 247 L326 245 L326 244 L324 242 L324 241 L316 233 L312 233 L311 232 L301 232 L295 238 L295 239 L292 242 L292 243 L290 245 L290 246 L288 248 L288 249 L284 253 L282 251 L281 251 L275 245 L274 245 L273 244 L272 244 L270 242 L267 242 L266 241 L265 241 L264 242 L263 242 L260 245 L260 246 L259 247 L259 249 L258 250 L257 250 L256 249 L255 249 L253 247 L253 246 L254 245 L254 244 L255 243 L255 242 L256 241 L256 240 L257 239 L257 238 L258 237 L258 236 L259 235 L259 234 L261 232 L261 231 L262 230 L262 228 L263 227 L263 225 L264 224 L264 223 L265 222 L265 219 L266 218 L266 216 L267 215 L267 212 L268 211 L268 210 L269 209 L270 210 L272 210 L273 211 L274 211 L276 213 L277 213 L278 214 L279 214 L281 216 L283 216 L285 218 L287 218 L288 219 L291 219 L292 220 L297 220 L298 219 L299 219 L300 220 L305 220 L306 221 L317 221 L318 222 L320 222 L321 223 L322 223 L323 224 L324 224 L325 225 L326 225 L327 226 L328 226 L334 232 L338 232 L339 231 L339 226 L338 225 L338 218 L337 217 L337 214 L336 213 L336 211 L335 210 L335 208 L334 207 L334 203 L333 202 L333 197 L332 196 L332 193 L331 192 L331 191 L330 190 L331 189 L333 189 L334 190 L336 190 L337 191 L338 191 L339 192 L340 192 L341 193 L342 193 L344 195 L345 195 L346 196 L349 196 L350 197 L357 197 L358 198 L389 198 L390 199 L395 199 L396 200 L398 200 L407 209 L408 209 L409 210 L410 210 L411 209 L411 208 L410 207 L410 195 L409 194 L409 193 L398 182 L398 181 L396 179 L396 178 L395 177 L395 176 L393 174 L393 171 L392 170 L392 169 L391 168 L391 164 L389 162 L389 161 L388 160 L388 159 L387 158 L387 155 L386 154 L386 152 L385 151 L385 150 L384 149 L384 147 L381 144 L381 143 L380 142 L379 142 L374 137 L374 136 L371 133 L370 133 L367 130 L366 130 L365 129 L364 129 L363 128 L361 128 L360 127 L357 127 L356 126 L346 126 L345 127 L335 127 L334 128 L332 128 L331 127 L330 127 L328 125 L328 124 L327 123 L327 122 L317 112 L316 112 L311 107 L310 107 L307 104 L306 104 L305 103 L304 103 L303 102 L298 102 L296 104 L296 106 L295 107 L295 108 L294 109 L294 110 L293 111 L293 113 L288 118 L287 118 L286 117 L282 117 L281 118 L280 118 L280 119 L279 120 L279 121 L278 122 L277 122 L276 121 L275 121 L273 119 L272 119 L271 118 L270 118 L269 117 L266 117 L265 116 L259 116 L258 117 L257 117 L249 125 L248 124 L248 123 L266 105 L269 105 L270 106 L271 106 L272 107 L273 107 L274 108 L275 108 L277 110 L278 110 L280 112 L281 112 L282 113 L288 113 L291 110 L291 108 L290 107 L290 106 L287 103 L287 102 L281 96 L281 93 L280 92 L280 91 L271 82 L271 78 L272 77 L272 74 L273 73 L273 68 L275 66 L276 66 L277 65 L277 64 L281 60 L281 59 L282 58 L282 52 L281 51 L281 48 L280 47 L280 46 L277 43 L276 43 L275 42 L273 42 L272 41 L246 41 L245 42 L243 42 L234 51 L233 51 L231 49 L230 49 L229 48 L228 48 L226 46 L225 46 L224 45 L223 45 L222 44 L221 44 L220 43 L218 43 L217 42 L216 42 L215 41 L214 41 L213 42 L210 42 L209 43 L208 43 L207 44 L205 44 L197 52 L197 53 L196 54 L196 55 L195 56 L195 58 L194 59 L194 62 L193 63 L193 67 L191 69 L189 69 L188 70 L186 70 L185 71 L183 71 L182 72 L181 72 L177 76 L175 76 L174 77 L173 77 L172 78 L171 78 L170 79 L169 79 L168 80 L167 80 L165 82 L164 82 L163 81 L163 79 L162 78 L162 75 L161 74 L161 72 L160 71 L160 68 L159 67 L159 65 L158 64 L158 59 L167 50 L168 50 L169 49 L170 49 L173 46 L174 46 L179 41 L179 40 L180 39 L180 36 L179 35 L179 34 L180 33 L180 31 L179 30 L179 29 L175 25 L175 24 L174 23 L174 22 L171 22 L170 23 L170 24 L168 26 L167 26 L166 27 L165 27 L164 28 L161 28 L160 29 L157 29 L156 30 L155 29 L154 29 L146 21 L146 20 L145 19 L145 18 L141 14 L140 14 L138 12 L136 12 L135 11 Z " fill="black"/></svg>