<svg width="736" height="470" xmlns="http://www.w3.org/2000/svg"><path d="M460 11 L459 12 L457 12 L453 16 L453 21 L454 22 L454 24 L455 25 L455 26 L456 27 L456 28 L457 29 L457 30 L458 31 L458 32 L459 33 L459 34 L460 35 L460 36 L462 38 L462 39 L464 41 L464 42 L472 50 L473 50 L475 52 L477 52 L478 53 L479 53 L480 54 L481 54 L482 55 L485 55 L486 56 L489 56 L490 57 L493 57 L494 58 L496 58 L497 59 L497 60 L498 61 L498 63 L499 64 L499 65 L501 67 L501 68 L502 69 L502 71 L503 72 L503 83 L501 85 L499 85 L498 86 L494 86 L493 87 L489 87 L488 88 L484 88 L483 89 L479 89 L478 90 L474 90 L473 91 L469 91 L468 92 L463 92 L462 93 L459 93 L458 94 L454 94 L453 95 L449 95 L448 96 L446 96 L445 97 L441 97 L440 98 L436 98 L435 99 L432 99 L431 100 L428 100 L427 101 L424 101 L423 102 L419 102 L418 103 L415 103 L414 104 L410 104 L409 105 L404 105 L403 106 L399 106 L398 107 L393 107 L392 106 L392 103 L391 102 L391 95 L392 94 L392 93 L394 91 L396 91 L397 90 L398 90 L399 89 L401 89 L402 88 L403 88 L404 87 L405 87 L406 86 L407 86 L409 84 L410 84 L417 77 L417 76 L419 74 L419 73 L421 71 L421 69 L422 68 L422 67 L423 66 L423 63 L424 62 L424 55 L425 54 L425 53 L424 52 L424 46 L423 45 L423 41 L422 40 L422 39 L420 37 L419 37 L418 36 L413 36 L412 37 L411 37 L410 38 L409 38 L408 39 L407 39 L406 40 L405 40 L404 41 L403 41 L401 43 L400 43 L398 45 L397 45 L393 49 L392 49 L392 50 L389 53 L389 54 L388 55 L388 56 L387 57 L387 58 L386 59 L386 60 L385 61 L385 64 L384 65 L384 69 L383 70 L383 83 L382 84 L381 84 L380 83 L380 81 L379 80 L379 79 L378 78 L378 77 L377 76 L377 75 L375 73 L375 72 L373 70 L372 70 L369 67 L368 67 L366 65 L365 65 L364 64 L363 64 L362 63 L361 63 L360 62 L358 62 L357 61 L353 61 L352 60 L337 60 L336 61 L332 61 L331 62 L330 62 L330 63 L329 64 L329 70 L330 71 L330 73 L331 74 L331 75 L333 77 L333 78 L334 79 L334 80 L336 82 L336 83 L344 91 L345 91 L347 93 L348 93 L349 94 L350 94 L351 95 L352 95 L353 96 L354 96 L355 97 L358 97 L359 98 L373 98 L374 99 L375 99 L378 102 L378 103 L379 104 L379 110 L377 112 L374 112 L373 113 L369 113 L368 114 L363 114 L362 115 L358 115 L357 116 L353 116 L352 117 L348 117 L347 118 L343 118 L342 119 L339 119 L338 120 L334 120 L333 121 L329 121 L328 122 L323 122 L322 123 L318 123 L317 124 L312 124 L311 125 L306 125 L305 126 L302 126 L301 127 L297 127 L296 128 L293 128 L292 129 L289 129 L288 130 L284 130 L283 131 L280 131 L279 132 L274 132 L273 133 L270 133 L269 134 L268 133 L267 134 L265 134 L263 132 L263 130 L262 129 L262 114 L265 111 L266 111 L267 110 L268 110 L269 109 L270 109 L271 108 L272 108 L274 106 L275 106 L278 103 L279 103 L291 91 L291 90 L293 88 L293 87 L294 86 L294 85 L295 84 L295 81 L296 80 L296 76 L297 75 L297 73 L298 72 L298 69 L299 68 L299 66 L300 65 L300 57 L299 56 L299 55 L298 55 L296 53 L295 53 L294 52 L282 52 L281 53 L279 53 L278 54 L276 54 L275 55 L274 55 L273 56 L272 56 L271 57 L270 57 L269 58 L268 58 L264 62 L263 62 L257 68 L257 69 L255 71 L255 72 L254 73 L254 74 L253 75 L253 76 L252 77 L252 78 L251 79 L251 80 L250 81 L250 83 L249 84 L249 99 L250 100 L250 106 L249 107 L247 105 L247 104 L245 102 L245 101 L242 98 L242 97 L238 93 L237 93 L235 91 L234 91 L233 90 L232 90 L231 89 L230 89 L229 88 L227 88 L226 87 L209 87 L208 88 L202 88 L201 89 L199 89 L198 90 L197 90 L196 91 L195 91 L191 95 L191 96 L190 97 L190 100 L205 115 L206 115 L208 117 L209 117 L210 118 L211 118 L212 119 L214 119 L215 120 L218 120 L219 121 L230 121 L231 120 L236 120 L237 119 L239 119 L240 118 L244 118 L247 121 L247 122 L248 123 L248 124 L249 125 L249 128 L250 129 L250 134 L251 135 L251 138 L250 139 L249 139 L248 140 L244 140 L243 141 L239 141 L238 142 L235 142 L234 143 L230 143 L229 144 L225 144 L224 145 L221 145 L220 146 L216 146 L215 147 L212 147 L211 148 L207 148 L206 149 L203 149 L202 150 L198 150 L197 151 L193 151 L192 152 L184 152 L183 153 L181 153 L180 154 L177 154 L176 155 L175 155 L174 156 L171 156 L170 157 L168 157 L167 158 L163 158 L162 159 L160 159 L159 160 L155 160 L154 161 L151 161 L150 162 L146 162 L145 163 L141 163 L140 164 L137 164 L136 165 L132 165 L131 166 L128 166 L127 165 L127 162 L126 161 L127 160 L127 154 L128 153 L128 152 L133 147 L134 147 L135 146 L136 146 L137 145 L138 145 L139 144 L140 144 L141 143 L142 143 L143 142 L144 142 L145 141 L146 141 L149 138 L150 138 L158 130 L158 129 L161 126 L161 125 L162 124 L162 123 L163 122 L163 121 L164 120 L164 119 L165 118 L165 116 L166 115 L166 113 L167 112 L167 109 L168 108 L168 105 L169 104 L169 100 L170 99 L170 97 L169 96 L169 94 L167 92 L166 92 L165 91 L153 91 L152 92 L148 92 L147 93 L145 93 L144 94 L142 94 L141 95 L139 95 L137 97 L136 97 L135 98 L134 98 L123 109 L123 110 L122 111 L122 112 L121 113 L121 114 L120 115 L120 116 L119 117 L119 118 L118 119 L118 122 L117 123 L117 139 L116 140 L115 139 L115 138 L114 137 L114 136 L113 135 L113 134 L112 133 L112 132 L110 130 L110 129 L107 126 L106 126 L102 122 L101 122 L99 120 L98 120 L97 119 L96 119 L95 118 L92 118 L91 117 L87 117 L86 116 L70 116 L69 117 L64 117 L63 118 L61 118 L59 120 L58 120 L57 121 L55 121 L53 123 L53 124 L52 125 L52 127 L53 128 L53 130 L54 131 L54 132 L55 133 L55 134 L56 135 L56 136 L59 139 L59 140 L60 141 L61 141 L66 146 L67 146 L69 148 L70 148 L71 149 L72 149 L73 150 L74 150 L75 151 L76 151 L77 152 L78 152 L79 153 L81 153 L82 154 L85 154 L86 155 L90 155 L91 156 L97 156 L98 157 L111 157 L112 158 L112 160 L113 161 L113 163 L114 164 L114 168 L113 169 L111 169 L110 170 L106 170 L105 171 L102 171 L101 172 L95 172 L94 173 L91 173 L90 174 L88 174 L87 175 L84 175 L83 176 L79 176 L78 177 L73 177 L72 178 L69 178 L68 179 L64 179 L63 180 L59 180 L58 181 L55 181 L54 182 L51 182 L50 183 L47 183 L46 184 L42 184 L41 185 L36 185 L35 186 L31 186 L30 187 L29 187 L28 188 L25 188 L24 189 L22 189 L21 190 L19 190 L18 191 L17 191 L15 193 L15 194 L14 195 L14 196 L13 197 L13 200 L12 201 L12 203 L11 204 L11 212 L12 213 L12 215 L15 218 L15 219 L17 221 L18 221 L20 223 L21 223 L25 227 L26 227 L29 230 L29 232 L30 233 L30 238 L31 239 L31 242 L32 243 L32 247 L33 248 L33 249 L34 250 L34 252 L35 253 L35 256 L36 257 L36 259 L37 260 L37 262 L38 263 L38 266 L39 267 L39 268 L40 269 L40 271 L41 272 L41 275 L42 276 L42 279 L43 280 L43 282 L44 283 L44 286 L45 287 L45 289 L46 290 L46 293 L47 294 L47 296 L48 297 L48 300 L49 301 L49 304 L50 305 L50 307 L51 308 L51 310 L52 311 L52 313 L53 314 L53 316 L54 317 L54 319 L55 320 L55 323 L56 324 L56 326 L57 327 L57 329 L58 330 L58 333 L59 334 L59 336 L60 337 L60 339 L61 340 L61 342 L62 343 L62 346 L63 347 L63 348 L66 351 L66 352 L67 353 L68 353 L74 359 L75 359 L79 363 L80 363 L85 368 L86 368 L92 374 L93 374 L106 387 L108 387 L109 388 L111 388 L112 387 L115 387 L116 386 L118 386 L119 385 L121 385 L122 384 L125 384 L126 383 L128 383 L130 385 L130 386 L131 387 L131 388 L132 389 L132 391 L133 392 L133 395 L134 396 L134 399 L135 400 L135 402 L136 403 L136 404 L137 405 L137 407 L138 408 L138 410 L139 411 L139 412 L140 413 L140 415 L142 417 L142 418 L152 428 L153 428 L156 431 L157 431 L161 435 L162 435 L164 437 L165 437 L172 444 L173 444 L179 450 L180 450 L183 453 L184 453 L185 454 L186 454 L188 456 L189 456 L190 457 L191 457 L192 458 L202 458 L203 457 L205 457 L206 456 L209 456 L210 455 L212 455 L213 454 L217 454 L218 453 L223 453 L224 452 L226 452 L227 451 L229 451 L230 450 L234 450 L235 449 L238 449 L239 448 L242 448 L243 447 L246 447 L247 446 L250 446 L251 445 L254 445 L255 444 L260 444 L261 443 L268 443 L269 442 L270 442 L271 441 L271 440 L273 438 L273 437 L274 436 L274 435 L275 434 L275 432 L276 431 L276 428 L277 427 L277 425 L278 424 L278 422 L279 421 L279 418 L280 417 L280 414 L281 413 L281 410 L282 409 L282 405 L283 404 L283 401 L284 400 L284 397 L285 396 L285 393 L287 391 L296 400 L297 400 L299 402 L300 402 L302 404 L303 404 L305 406 L306 406 L309 409 L310 409 L314 413 L315 413 L318 416 L319 416 L321 418 L322 418 L324 420 L325 420 L326 421 L327 421 L328 422 L329 422 L330 423 L337 423 L338 422 L342 422 L343 421 L344 421 L345 420 L348 420 L349 419 L352 419 L353 418 L356 418 L357 417 L360 417 L361 416 L363 416 L364 415 L367 415 L368 414 L372 414 L373 413 L375 413 L376 412 L379 412 L380 411 L383 411 L384 410 L388 410 L389 409 L391 409 L392 408 L396 408 L397 407 L402 407 L407 402 L407 401 L408 400 L408 399 L409 398 L409 397 L410 396 L410 393 L411 392 L411 390 L412 389 L412 387 L413 386 L413 384 L414 383 L414 381 L415 380 L415 377 L416 376 L416 373 L417 372 L417 369 L418 368 L418 366 L419 365 L419 362 L420 361 L420 360 L421 359 L422 359 L423 360 L424 360 L425 361 L426 361 L429 364 L430 364 L435 369 L436 369 L440 373 L441 373 L444 376 L445 376 L448 379 L449 379 L451 381 L452 381 L454 383 L455 383 L456 384 L457 384 L458 385 L459 385 L460 386 L463 386 L464 387 L471 387 L472 386 L475 386 L476 385 L478 385 L479 384 L482 384 L483 383 L486 383 L487 382 L489 382 L490 381 L493 381 L494 380 L498 380 L499 379 L501 379 L502 378 L505 378 L506 377 L508 377 L509 376 L511 376 L512 375 L517 375 L518 374 L521 374 L522 373 L525 373 L526 372 L529 372 L530 371 L532 371 L534 369 L534 368 L537 365 L537 364 L539 362 L539 361 L540 360 L540 359 L541 358 L541 357 L542 356 L542 352 L543 351 L543 348 L544 347 L544 345 L545 344 L545 341 L546 340 L546 338 L547 337 L547 336 L548 335 L548 332 L550 330 L551 331 L552 331 L553 332 L554 332 L555 333 L556 333 L557 334 L558 334 L559 335 L561 335 L562 336 L563 336 L564 337 L565 337 L566 338 L568 338 L569 339 L570 339 L572 341 L573 341 L574 342 L575 342 L576 343 L577 343 L579 345 L580 345 L582 347 L583 347 L584 348 L585 348 L586 349 L587 349 L588 350 L589 350 L590 351 L594 351 L595 352 L596 352 L597 351 L599 351 L600 350 L601 350 L602 349 L605 349 L606 348 L609 348 L610 347 L612 347 L613 346 L615 346 L616 345 L618 345 L619 344 L621 344 L622 343 L624 343 L625 342 L627 342 L628 341 L631 341 L632 340 L633 340 L634 339 L638 339 L639 338 L644 338 L645 337 L648 337 L649 336 L652 336 L653 335 L656 335 L657 334 L658 334 L659 333 L660 333 L661 332 L662 332 L665 329 L665 327 L666 326 L666 324 L667 323 L667 321 L668 320 L668 317 L669 316 L669 315 L670 314 L670 311 L671 310 L671 308 L672 307 L672 305 L673 304 L673 301 L674 300 L674 299 L675 298 L675 296 L676 295 L676 292 L677 291 L677 289 L678 288 L678 287 L679 286 L679 283 L680 282 L680 280 L681 279 L681 278 L682 277 L682 275 L683 274 L683 271 L684 270 L684 267 L685 266 L685 264 L686 263 L686 261 L687 260 L687 257 L688 256 L688 254 L689 253 L689 250 L690 249 L690 247 L691 246 L691 245 L692 244 L692 242 L693 241 L693 239 L694 238 L694 236 L695 235 L695 232 L696 231 L696 229 L697 228 L697 225 L698 224 L698 221 L699 220 L699 218 L700 217 L700 215 L702 213 L703 213 L704 212 L707 212 L708 211 L711 211 L712 210 L716 210 L717 209 L719 209 L720 208 L722 208 L724 206 L724 204 L725 203 L725 196 L724 195 L724 189 L721 186 L720 186 L719 185 L718 185 L717 184 L716 184 L714 182 L713 182 L712 181 L711 181 L710 180 L709 180 L708 179 L707 179 L706 178 L705 178 L704 177 L703 177 L702 176 L701 176 L699 174 L698 174 L697 173 L696 173 L694 171 L693 171 L692 170 L691 170 L689 168 L688 168 L687 167 L686 167 L685 166 L684 166 L682 164 L681 164 L680 163 L678 163 L677 162 L676 162 L675 161 L674 161 L673 160 L672 160 L671 159 L670 159 L669 158 L668 158 L667 157 L666 157 L665 156 L664 156 L662 154 L661 154 L659 152 L658 152 L656 150 L655 150 L653 148 L652 148 L651 147 L650 147 L649 146 L648 146 L646 144 L645 144 L644 143 L643 143 L642 142 L641 142 L640 141 L639 141 L637 139 L636 139 L634 137 L633 137 L631 135 L630 135 L629 134 L628 134 L626 132 L625 132 L624 131 L623 131 L621 129 L620 129 L619 128 L619 122 L620 121 L620 117 L621 116 L621 112 L624 109 L630 109 L631 108 L640 108 L641 107 L644 107 L645 106 L647 106 L648 105 L650 105 L651 104 L653 104 L654 103 L655 103 L656 102 L658 102 L659 101 L660 101 L661 100 L663 100 L664 99 L665 99 L666 98 L667 98 L669 96 L670 96 L672 94 L672 93 L673 92 L673 87 L672 86 L672 85 L669 82 L668 82 L666 80 L665 80 L664 79 L663 79 L662 78 L661 78 L660 77 L658 77 L657 76 L655 76 L654 75 L641 75 L640 76 L638 76 L637 77 L635 77 L634 78 L633 78 L632 79 L631 79 L629 81 L628 81 L624 85 L624 86 L622 88 L622 89 L621 90 L621 91 L620 92 L620 93 L618 95 L616 93 L616 91 L615 90 L615 88 L614 87 L614 86 L613 85 L613 84 L612 83 L612 82 L610 80 L610 79 L603 72 L602 72 L599 69 L598 69 L597 68 L596 68 L595 67 L593 67 L592 66 L590 66 L589 65 L583 65 L582 64 L581 65 L575 65 L574 66 L571 66 L570 67 L569 67 L567 69 L566 69 L565 70 L565 71 L564 72 L564 79 L565 80 L565 81 L566 82 L566 83 L567 84 L567 85 L568 86 L568 87 L570 89 L570 90 L575 95 L575 96 L576 97 L577 97 L581 101 L582 101 L584 103 L585 103 L586 104 L587 104 L588 105 L589 105 L590 106 L593 106 L594 107 L597 107 L598 108 L603 108 L606 111 L606 119 L605 120 L603 120 L602 119 L601 119 L600 118 L599 118 L598 117 L597 117 L595 115 L593 115 L592 114 L591 114 L590 113 L589 113 L588 112 L587 112 L586 111 L584 111 L583 110 L582 110 L581 109 L580 109 L579 108 L578 108 L577 107 L576 107 L575 106 L574 106 L573 105 L572 105 L570 103 L569 103 L568 102 L567 102 L565 100 L564 100 L563 99 L562 99 L561 98 L560 98 L558 96 L557 96 L556 95 L555 95 L554 94 L553 94 L551 92 L550 92 L549 91 L548 91 L546 89 L545 89 L543 87 L542 87 L540 85 L539 85 L537 83 L536 83 L535 82 L531 82 L530 81 L519 81 L518 82 L517 82 L516 81 L516 73 L517 72 L517 67 L518 66 L518 64 L520 62 L536 62 L537 61 L540 61 L541 60 L542 60 L543 59 L544 59 L545 58 L546 58 L547 57 L548 57 L549 56 L550 56 L552 54 L553 54 L556 51 L557 51 L559 49 L560 49 L563 46 L564 46 L568 42 L568 41 L569 40 L569 39 L570 38 L570 37 L571 36 L571 30 L568 27 L567 27 L566 26 L565 26 L564 25 L563 25 L562 24 L561 24 L560 23 L558 23 L557 22 L553 22 L552 21 L545 21 L544 22 L539 22 L538 23 L535 23 L534 24 L532 24 L531 25 L530 25 L528 27 L527 27 L519 35 L519 36 L517 38 L517 39 L516 40 L516 41 L515 42 L515 43 L514 44 L514 46 L513 47 L513 49 L512 50 L512 51 L511 52 L510 51 L510 49 L509 48 L510 47 L510 44 L509 43 L509 37 L508 36 L508 34 L507 33 L507 31 L506 30 L506 29 L504 27 L504 26 L502 24 L502 23 L500 21 L499 21 L496 18 L495 18 L494 17 L493 17 L492 16 L491 16 L490 15 L489 15 L488 14 L486 14 L485 13 L481 13 L480 12 L475 12 L474 11 Z " fill="black"/></svg>