<svg width="314" height="355" xmlns="http://www.w3.org/2000/svg"><path d="M16 307 L15 308 L10 308 L9 309 L8 309 L7 310 L4 310 L3 311 L1 311 L0 310 L1 309 L1 308 L0 308 L0 354 L32 354 L34 352 L34 351 L32 349 L31 349 L30 348 L28 348 L25 345 L24 345 L23 344 L22 344 L21 343 L20 343 L19 342 L18 342 L17 341 L16 341 L15 340 L13 340 L12 339 L9 339 L8 338 L3 338 L2 337 L3 336 L4 336 L5 335 L6 335 L8 333 L9 333 L11 331 L12 331 L14 329 L15 329 L16 328 L17 328 L23 322 L23 321 L24 320 L24 319 L25 318 L25 317 L26 316 L26 314 L21 309 L20 309 L19 308 L17 308 Z M0 54 L0 118 L0 117 L2 115 L2 114 L3 113 L3 112 L4 111 L4 110 L5 109 L5 107 L6 106 L6 104 L7 103 L7 100 L8 99 L8 96 L9 95 L9 91 L10 90 L10 76 L9 75 L9 72 L8 71 L8 70 L7 69 L7 67 L6 66 L6 65 L5 64 L5 63 L3 61 L3 60 L2 59 L2 58 L1 57 L1 56 L0 55 Z M286 11 L284 13 L283 13 L274 22 L274 23 L272 25 L269 25 L268 26 L267 26 L266 27 L267 27 L268 26 L269 27 L269 28 L268 29 L268 30 L266 32 L266 33 L265 34 L263 34 L261 36 L260 36 L260 37 L256 41 L256 42 L252 46 L252 47 L249 50 L249 51 L246 54 L246 55 L243 58 L243 59 L240 62 L240 63 L236 67 L236 68 L234 70 L234 71 L233 72 L233 73 L231 75 L231 76 L230 77 L230 78 L229 79 L229 80 L228 81 L227 81 L224 84 L224 85 L223 86 L223 89 L222 90 L222 91 L221 92 L221 93 L220 94 L220 95 L218 97 L218 98 L216 100 L216 101 L214 103 L214 104 L213 105 L213 107 L212 108 L212 109 L211 110 L211 111 L210 112 L210 113 L209 114 L209 115 L208 116 L208 117 L206 119 L206 121 L205 122 L205 123 L204 124 L204 125 L203 126 L203 127 L202 128 L202 129 L201 130 L201 132 L200 133 L200 134 L199 135 L199 136 L198 137 L198 139 L197 140 L197 142 L196 143 L196 144 L195 145 L195 148 L194 149 L194 152 L193 153 L193 156 L192 157 L192 160 L191 161 L191 170 L190 171 L191 172 L191 173 L190 174 L189 174 L188 173 L188 171 L187 170 L187 167 L186 166 L186 162 L185 161 L185 158 L184 157 L184 153 L183 152 L183 149 L182 148 L182 144 L181 143 L181 142 L180 141 L180 139 L179 138 L179 137 L178 136 L178 132 L177 131 L177 129 L176 128 L176 126 L175 125 L173 125 L171 127 L171 128 L170 129 L170 131 L169 132 L169 134 L168 135 L168 137 L167 138 L167 140 L166 141 L166 143 L165 144 L165 145 L164 146 L164 147 L163 148 L163 149 L162 150 L161 150 L160 149 L160 148 L159 147 L159 145 L158 144 L158 143 L157 142 L157 140 L156 139 L156 137 L155 136 L155 135 L154 134 L154 133 L153 132 L153 131 L152 130 L152 129 L151 128 L151 127 L150 126 L150 125 L148 123 L148 122 L147 121 L147 120 L145 118 L145 117 L144 116 L144 115 L143 114 L143 113 L142 112 L142 111 L141 110 L141 109 L140 108 L140 107 L138 105 L138 104 L137 103 L137 102 L136 101 L136 100 L134 98 L134 97 L132 95 L132 94 L130 92 L130 91 L128 89 L128 88 L126 86 L126 85 L124 83 L124 82 L122 80 L122 79 L120 77 L120 76 L117 73 L117 72 L113 68 L113 67 L110 64 L110 63 L107 60 L107 59 L105 57 L105 56 L101 52 L101 51 L98 48 L98 47 L85 34 L84 34 L80 30 L78 30 L77 29 L76 29 L74 31 L74 32 L73 33 L73 34 L72 35 L72 37 L71 38 L71 41 L70 42 L70 58 L69 59 L69 66 L68 67 L69 68 L69 69 L68 70 L68 72 L69 73 L69 79 L68 80 L68 110 L69 111 L69 124 L70 125 L70 133 L71 134 L71 140 L72 141 L72 144 L73 145 L73 148 L74 149 L74 153 L75 154 L75 159 L76 160 L76 164 L77 165 L77 169 L78 170 L78 173 L79 174 L79 176 L80 177 L80 179 L81 180 L81 182 L82 183 L82 185 L83 186 L83 188 L84 189 L84 191 L85 192 L85 194 L86 195 L86 197 L87 198 L87 199 L88 200 L88 202 L89 203 L89 205 L90 206 L90 208 L89 209 L87 207 L86 207 L84 205 L83 205 L81 203 L80 203 L79 202 L78 202 L76 200 L75 200 L73 198 L72 198 L71 197 L70 197 L69 196 L68 196 L66 194 L65 194 L64 193 L63 193 L62 192 L61 192 L60 191 L59 191 L58 190 L57 190 L56 189 L54 189 L53 188 L52 188 L51 187 L49 187 L48 186 L46 186 L45 185 L43 185 L42 184 L39 184 L38 183 L36 183 L35 182 L29 182 L28 181 L13 181 L11 183 L11 186 L12 187 L12 188 L13 189 L13 190 L15 192 L15 193 L18 196 L18 197 L27 206 L27 207 L29 209 L29 210 L30 211 L30 212 L32 214 L32 216 L33 217 L33 218 L34 219 L34 220 L35 221 L35 222 L36 223 L36 224 L37 225 L37 226 L38 227 L38 228 L39 229 L39 230 L40 231 L40 233 L41 234 L41 235 L42 236 L42 237 L43 238 L43 239 L44 240 L44 241 L45 242 L45 243 L47 245 L47 247 L48 248 L48 249 L50 251 L50 252 L51 253 L51 254 L52 255 L52 256 L54 258 L54 259 L56 261 L56 262 L57 263 L57 264 L58 265 L58 266 L60 268 L60 269 L63 272 L63 273 L69 279 L69 280 L76 287 L76 288 L86 298 L87 298 L92 303 L93 303 L97 307 L98 307 L100 309 L101 309 L104 312 L105 312 L107 314 L108 314 L110 316 L111 316 L112 317 L113 317 L115 319 L116 319 L118 321 L119 321 L121 323 L122 323 L125 326 L126 326 L129 329 L130 329 L133 332 L134 332 L136 334 L137 334 L138 335 L139 335 L140 336 L142 336 L143 337 L145 337 L146 338 L151 338 L152 339 L157 339 L158 340 L159 340 L160 339 L161 340 L165 340 L166 341 L169 341 L170 342 L175 342 L176 343 L187 343 L188 344 L189 344 L190 343 L196 343 L197 342 L201 342 L202 341 L207 341 L208 340 L210 340 L211 339 L213 339 L214 338 L216 338 L218 336 L219 336 L220 335 L221 335 L222 334 L223 334 L225 332 L226 332 L231 327 L231 326 L239 318 L239 317 L242 314 L242 313 L244 311 L244 310 L245 309 L245 308 L247 306 L247 305 L250 302 L250 301 L252 299 L252 298 L253 297 L253 296 L255 294 L255 293 L257 291 L257 290 L260 287 L260 286 L262 284 L262 283 L264 281 L264 280 L266 278 L266 277 L268 275 L268 274 L271 271 L271 270 L273 268 L273 267 L275 265 L275 264 L277 262 L277 261 L279 259 L279 258 L281 256 L281 255 L283 253 L283 252 L285 250 L285 249 L288 246 L288 245 L289 244 L289 243 L290 242 L290 241 L292 239 L292 238 L293 237 L293 236 L294 235 L294 234 L296 232 L296 231 L297 230 L297 228 L298 227 L298 225 L299 224 L299 222 L300 221 L300 219 L301 218 L301 214 L302 213 L302 201 L303 200 L302 199 L302 196 L301 195 L299 195 L291 203 L290 203 L283 210 L282 210 L279 213 L278 213 L275 216 L274 216 L270 220 L269 220 L263 226 L262 226 L260 228 L258 228 L255 231 L254 231 L245 240 L244 240 L239 245 L238 245 L237 244 L240 241 L240 240 L241 239 L241 238 L242 237 L242 236 L244 234 L244 233 L245 232 L245 231 L246 230 L246 229 L247 228 L247 227 L248 226 L248 225 L249 224 L249 223 L250 222 L250 221 L251 220 L251 218 L252 217 L252 216 L253 215 L253 213 L254 212 L254 211 L255 210 L255 208 L256 207 L256 205 L257 204 L257 203 L258 202 L258 200 L259 199 L259 196 L260 195 L260 193 L261 192 L261 191 L262 190 L262 189 L263 188 L263 186 L264 185 L264 183 L265 182 L265 181 L266 180 L266 178 L267 177 L267 175 L268 174 L268 173 L269 172 L269 170 L270 169 L270 167 L271 166 L271 164 L272 163 L272 158 L273 157 L273 154 L274 153 L274 151 L275 150 L275 149 L276 148 L276 147 L277 146 L277 143 L278 142 L278 139 L279 138 L279 135 L280 134 L280 131 L281 130 L281 127 L282 126 L282 123 L283 122 L283 118 L284 117 L284 114 L285 113 L285 109 L286 108 L286 104 L287 103 L287 97 L288 96 L288 90 L289 89 L289 83 L290 82 L290 75 L291 74 L291 60 L292 59 L292 40 L293 39 L293 36 L292 35 L292 24 L293 23 L293 18 L294 17 L294 14 L293 13 L293 12 L292 11 Z M162 0 L162 1 L164 3 L167 3 L168 2 L169 2 L171 0 Z " fill="black"/></svg>