<svg width="749" height="1193" xmlns="http://www.w3.org/2000/svg"><path d="M181 943 L181 944 Z M140 11 L138 13 L137 13 L136 14 L136 15 L133 18 L133 19 L131 21 L131 22 L129 24 L129 26 L128 27 L128 29 L127 30 L127 32 L126 33 L126 36 L125 37 L125 39 L124 40 L124 42 L123 43 L123 46 L122 47 L122 50 L121 51 L121 59 L120 60 L119 59 L119 58 L114 53 L112 53 L111 52 L108 52 L107 51 L99 51 L98 50 L94 50 L93 51 L90 51 L89 52 L86 52 L85 53 L83 53 L82 54 L80 54 L79 55 L78 55 L76 57 L75 57 L75 58 L71 62 L70 62 L70 63 L67 66 L67 67 L66 68 L66 70 L65 71 L65 73 L64 74 L64 78 L63 79 L63 84 L62 85 L62 98 L63 99 L63 103 L64 104 L64 106 L65 107 L65 108 L66 109 L66 110 L67 111 L67 112 L68 113 L68 114 L70 116 L70 117 L73 120 L73 121 L79 127 L78 128 L76 128 L75 127 L69 127 L68 128 L67 128 L66 129 L65 129 L64 130 L62 130 L61 129 L61 124 L60 123 L60 119 L59 118 L59 115 L58 114 L58 111 L57 110 L57 108 L56 107 L56 105 L55 104 L55 103 L54 102 L54 100 L53 99 L53 96 L52 95 L52 93 L51 92 L51 90 L50 89 L50 88 L49 87 L49 86 L47 84 L43 84 L43 85 L42 86 L42 87 L41 88 L41 89 L40 90 L40 93 L39 94 L39 97 L38 98 L38 104 L37 105 L37 117 L36 118 L36 124 L35 125 L34 124 L34 122 L33 121 L33 120 L32 119 L32 117 L31 116 L31 115 L30 114 L30 113 L29 112 L28 112 L27 111 L26 112 L25 112 L25 113 L24 114 L24 115 L23 116 L23 123 L22 124 L22 126 L21 127 L21 129 L20 130 L20 132 L19 133 L19 136 L18 137 L18 140 L17 141 L17 143 L16 144 L16 145 L15 146 L15 147 L14 148 L14 150 L13 151 L13 153 L12 154 L12 156 L11 157 L11 172 L12 173 L12 177 L13 178 L13 180 L14 181 L14 183 L15 184 L15 185 L16 186 L16 187 L18 189 L18 190 L24 196 L24 197 L27 200 L27 204 L26 205 L26 210 L27 211 L27 215 L26 216 L26 217 L25 218 L25 220 L24 221 L24 223 L23 224 L23 227 L24 228 L24 235 L23 236 L23 239 L22 240 L22 241 L20 243 L20 245 L18 247 L18 248 L17 249 L17 251 L16 252 L16 259 L17 260 L17 261 L19 263 L20 263 L21 264 L27 264 L28 263 L29 263 L30 262 L31 262 L32 261 L33 261 L34 262 L34 265 L35 266 L35 272 L39 276 L45 276 L46 275 L48 275 L55 268 L55 267 L57 265 L57 264 L59 262 L59 261 L60 260 L60 259 L61 258 L61 257 L63 255 L63 254 L64 253 L64 252 L66 250 L66 249 L68 247 L68 246 L69 245 L69 244 L70 243 L70 242 L71 241 L71 240 L73 238 L73 237 L74 236 L75 236 L76 235 L77 236 L77 239 L78 240 L78 246 L79 247 L79 253 L80 254 L80 258 L81 259 L81 261 L82 262 L82 263 L83 264 L83 265 L87 269 L88 269 L90 271 L91 271 L92 272 L94 272 L95 273 L99 273 L101 271 L101 269 L102 268 L102 265 L101 264 L101 259 L100 258 L100 242 L101 241 L101 239 L102 238 L102 237 L103 236 L103 235 L105 233 L106 233 L107 232 L108 232 L109 231 L110 231 L111 230 L112 230 L113 229 L114 229 L115 228 L116 228 L117 227 L118 227 L119 226 L120 226 L121 225 L122 225 L123 224 L129 224 L130 223 L131 223 L133 221 L133 217 L132 216 L132 215 L130 213 L129 213 L127 211 L126 211 L125 210 L124 210 L117 203 L117 202 L116 201 L116 200 L117 199 L121 199 L122 200 L123 200 L124 201 L125 201 L127 203 L128 203 L130 205 L131 205 L135 209 L136 209 L138 211 L139 211 L141 213 L142 213 L144 215 L145 215 L146 216 L147 216 L149 218 L150 218 L151 219 L152 219 L153 220 L154 220 L156 222 L157 222 L158 223 L159 223 L160 224 L161 224 L162 225 L163 225 L164 226 L166 226 L167 227 L168 227 L169 228 L170 228 L171 229 L173 229 L174 230 L176 230 L177 231 L179 231 L180 232 L184 232 L185 233 L186 233 L187 234 L187 238 L186 239 L186 242 L185 243 L185 248 L184 249 L184 253 L183 254 L182 254 L180 252 L180 251 L176 247 L176 246 L175 246 L173 244 L172 244 L171 243 L169 243 L168 242 L165 242 L164 241 L154 241 L153 242 L148 242 L147 243 L143 243 L142 244 L139 244 L138 245 L135 245 L134 246 L133 246 L132 247 L130 247 L129 248 L127 248 L126 249 L125 249 L124 250 L123 250 L122 251 L121 251 L118 254 L117 254 L115 256 L115 257 L113 259 L113 260 L112 261 L112 263 L111 264 L111 265 L110 266 L110 267 L109 268 L109 270 L108 271 L108 275 L107 276 L107 296 L108 297 L108 300 L109 301 L109 304 L110 305 L110 306 L111 307 L111 309 L112 310 L112 311 L113 312 L113 313 L115 315 L115 316 L116 317 L116 318 L118 320 L118 321 L125 328 L126 328 L128 330 L129 330 L130 331 L131 331 L132 332 L133 332 L134 333 L135 333 L136 334 L139 334 L140 335 L145 335 L147 337 L141 343 L141 344 L138 347 L138 348 L136 350 L136 351 L135 352 L135 353 L134 354 L134 355 L133 356 L133 357 L132 358 L132 360 L131 361 L131 363 L130 364 L130 366 L129 367 L129 373 L128 374 L128 380 L127 381 L127 386 L128 387 L131 387 L132 388 L146 388 L147 387 L152 387 L153 386 L156 386 L157 385 L159 385 L160 384 L162 384 L163 383 L165 383 L166 382 L167 382 L168 381 L170 381 L171 380 L172 380 L173 379 L174 379 L175 378 L176 378 L178 376 L179 376 L180 375 L181 376 L181 384 L182 385 L182 386 L183 387 L183 388 L184 389 L184 390 L185 391 L185 392 L186 393 L186 394 L187 395 L187 396 L189 398 L189 399 L192 402 L193 402 L195 404 L198 404 L199 405 L201 405 L202 406 L211 406 L212 405 L218 405 L219 404 L221 404 L222 403 L223 403 L224 402 L225 402 L227 400 L228 400 L231 397 L231 396 L233 394 L233 393 L234 392 L234 391 L235 390 L235 389 L236 388 L236 387 L237 386 L237 382 L238 381 L238 376 L237 375 L237 365 L236 364 L236 360 L237 359 L240 362 L240 363 L241 364 L241 365 L242 366 L242 367 L243 368 L243 369 L247 373 L247 374 L248 374 L250 376 L250 377 L251 378 L251 383 L252 384 L252 389 L253 390 L253 395 L254 396 L254 401 L255 402 L255 407 L256 408 L256 417 L257 418 L257 424 L258 425 L258 431 L259 432 L259 436 L260 437 L260 442 L261 443 L261 448 L262 449 L262 455 L263 456 L263 465 L264 466 L264 473 L265 474 L265 480 L266 481 L266 487 L267 488 L267 493 L268 494 L268 498 L269 499 L269 503 L270 504 L270 511 L271 512 L271 519 L272 520 L272 526 L273 527 L273 532 L272 533 L271 532 L271 530 L270 529 L270 528 L269 527 L269 526 L268 525 L268 524 L267 523 L267 522 L265 520 L265 519 L264 518 L264 517 L263 516 L263 515 L261 513 L261 512 L260 511 L260 510 L259 509 L259 508 L257 506 L257 505 L255 503 L255 502 L253 500 L253 499 L251 497 L251 496 L249 494 L249 493 L246 490 L246 489 L243 486 L243 485 L218 460 L217 460 L213 456 L212 456 L208 452 L207 452 L205 450 L204 450 L202 448 L201 448 L199 446 L198 446 L197 445 L196 445 L195 444 L194 444 L193 443 L192 443 L191 442 L190 442 L188 440 L187 440 L186 439 L185 439 L184 438 L183 438 L181 436 L180 436 L178 434 L177 434 L176 433 L175 433 L174 432 L173 432 L172 431 L171 431 L170 430 L169 430 L168 429 L166 429 L165 428 L164 428 L163 427 L162 427 L161 426 L160 426 L159 425 L158 425 L157 424 L155 424 L154 423 L153 423 L152 422 L150 422 L149 421 L148 421 L147 420 L145 420 L144 419 L141 419 L140 418 L136 418 L135 417 L130 417 L129 416 L120 416 L119 415 L115 415 L114 414 L112 414 L111 413 L109 413 L108 412 L106 412 L105 411 L102 411 L101 410 L98 410 L97 409 L93 409 L92 408 L83 408 L82 409 L76 409 L75 410 L73 410 L72 411 L70 411 L69 412 L68 412 L66 414 L65 414 L62 417 L62 418 L59 421 L59 423 L60 424 L67 424 L68 425 L72 425 L73 426 L77 426 L78 427 L88 427 L89 428 L92 428 L93 429 L95 429 L96 430 L97 430 L98 431 L100 431 L101 432 L103 432 L104 433 L105 433 L106 434 L107 434 L108 435 L109 435 L110 436 L112 436 L113 437 L114 437 L116 439 L117 439 L118 440 L119 440 L120 441 L121 441 L123 443 L124 443 L126 445 L127 445 L130 448 L131 448 L133 450 L134 450 L139 455 L140 455 L156 471 L156 472 L162 478 L162 479 L165 482 L165 483 L168 486 L168 487 L169 488 L170 488 L177 495 L177 496 L179 498 L179 500 L180 501 L180 502 L183 505 L184 505 L193 514 L194 514 L203 523 L204 523 L208 527 L209 527 L212 530 L213 530 L215 532 L216 532 L218 534 L219 534 L221 536 L222 536 L224 538 L225 538 L227 540 L228 540 L230 542 L231 542 L232 543 L233 543 L235 545 L236 545 L237 546 L238 546 L240 548 L241 548 L242 549 L243 549 L245 551 L246 551 L248 553 L249 553 L251 555 L252 555 L255 558 L256 558 L262 564 L262 565 L264 567 L264 568 L266 570 L266 571 L267 572 L267 574 L268 575 L268 576 L269 577 L269 578 L270 579 L270 581 L271 582 L271 584 L272 585 L272 586 L273 587 L273 590 L274 591 L274 593 L275 594 L275 596 L276 597 L276 598 L275 599 L274 599 L273 598 L273 597 L257 581 L256 581 L252 577 L251 577 L248 574 L247 574 L244 571 L243 571 L241 569 L240 569 L238 567 L237 567 L235 565 L234 565 L233 564 L232 564 L230 562 L229 562 L228 561 L227 561 L226 560 L225 560 L224 559 L223 559 L222 558 L221 558 L220 557 L219 557 L218 556 L217 556 L216 555 L215 555 L214 554 L213 554 L212 553 L210 553 L209 552 L207 552 L206 551 L203 551 L202 550 L199 550 L198 549 L195 549 L194 548 L190 548 L189 547 L186 547 L185 546 L183 546 L182 545 L179 545 L178 544 L149 544 L148 545 L144 545 L143 546 L139 546 L138 547 L134 547 L133 548 L130 548 L129 549 L127 549 L126 550 L123 550 L122 551 L119 551 L118 552 L116 552 L115 553 L108 553 L107 552 L101 552 L100 551 L87 551 L86 552 L78 552 L77 553 L73 553 L72 554 L69 554 L68 555 L66 555 L65 556 L64 556 L63 557 L62 557 L61 558 L60 558 L57 561 L56 561 L50 567 L50 568 L47 571 L47 572 L46 573 L46 574 L45 575 L45 576 L44 577 L44 578 L43 579 L43 582 L42 583 L42 585 L43 586 L43 587 L44 588 L51 588 L52 587 L55 587 L56 586 L57 586 L58 585 L59 585 L60 584 L61 584 L62 583 L63 583 L64 582 L66 582 L67 581 L73 581 L74 580 L76 580 L77 579 L79 579 L80 578 L81 578 L82 577 L84 577 L85 576 L87 576 L88 575 L89 575 L90 574 L93 574 L94 573 L96 573 L97 572 L99 572 L100 571 L103 571 L104 570 L106 570 L107 569 L110 569 L111 568 L112 569 L114 569 L115 570 L117 570 L118 571 L120 571 L121 572 L123 572 L124 573 L125 573 L126 574 L127 574 L129 576 L130 576 L131 577 L132 577 L134 579 L135 579 L137 581 L138 581 L140 583 L141 583 L143 585 L144 585 L146 587 L147 587 L150 590 L151 590 L152 591 L153 591 L155 593 L156 593 L158 595 L159 595 L161 597 L162 597 L163 598 L164 598 L166 600 L167 600 L170 603 L171 603 L172 604 L173 604 L174 605 L175 605 L176 606 L177 606 L178 607 L180 607 L181 608 L182 608 L183 609 L185 609 L186 610 L188 610 L189 611 L191 611 L192 612 L194 612 L195 613 L198 613 L199 614 L200 614 L201 615 L204 615 L205 616 L208 616 L209 617 L214 617 L215 618 L218 618 L219 619 L221 619 L222 620 L225 620 L226 621 L228 621 L229 622 L233 622 L234 623 L237 623 L238 624 L242 624 L243 625 L247 625 L248 626 L251 626 L252 627 L254 627 L255 628 L257 628 L258 629 L259 629 L260 630 L262 630 L263 631 L264 631 L265 632 L266 632 L267 633 L268 633 L270 635 L271 635 L273 637 L273 638 L275 640 L275 641 L276 642 L276 643 L277 644 L277 645 L278 646 L278 648 L279 649 L279 651 L280 652 L280 654 L281 655 L281 657 L282 658 L282 661 L283 662 L283 667 L284 668 L284 673 L285 674 L285 679 L286 680 L286 686 L287 687 L287 691 L288 692 L288 701 L289 702 L289 707 L290 708 L290 712 L291 713 L291 715 L292 716 L292 718 L293 719 L293 721 L294 722 L294 724 L295 725 L295 726 L296 727 L296 730 L297 731 L297 733 L298 734 L298 736 L299 737 L299 739 L300 740 L300 741 L301 742 L301 744 L302 745 L302 747 L303 748 L303 749 L304 750 L304 751 L305 752 L305 754 L306 755 L306 756 L307 757 L307 758 L308 759 L308 760 L309 761 L309 762 L310 763 L310 764 L311 765 L311 766 L312 767 L312 768 L313 769 L313 770 L314 771 L314 772 L315 773 L315 774 L316 775 L316 776 L315 777 L314 776 L309 776 L308 777 L303 777 L302 778 L297 778 L296 779 L291 779 L290 780 L286 780 L285 781 L280 781 L279 782 L275 782 L274 783 L271 783 L270 784 L266 784 L265 785 L262 785 L261 786 L257 786 L256 787 L254 787 L253 788 L251 788 L250 789 L248 789 L247 790 L245 790 L244 791 L242 791 L241 792 L240 792 L239 793 L238 793 L237 794 L235 794 L233 796 L232 796 L231 797 L230 797 L229 798 L228 798 L224 802 L223 802 L219 806 L219 807 L216 810 L216 811 L214 813 L214 817 L213 818 L213 828 L214 829 L214 831 L215 832 L215 834 L216 835 L216 836 L217 837 L217 838 L218 839 L218 840 L219 841 L219 842 L220 843 L220 844 L221 845 L221 846 L222 847 L222 848 L223 849 L223 850 L224 851 L224 853 L225 854 L225 863 L224 864 L224 867 L223 868 L223 870 L222 871 L222 873 L221 874 L221 875 L220 876 L220 878 L219 879 L219 880 L218 881 L218 883 L217 884 L217 885 L216 886 L216 887 L215 888 L215 889 L214 890 L214 891 L213 892 L213 893 L212 894 L212 895 L211 896 L211 897 L210 898 L210 899 L209 900 L209 901 L208 902 L208 903 L207 904 L207 905 L206 906 L206 908 L205 909 L205 910 L204 911 L204 913 L203 914 L203 915 L202 916 L202 918 L201 919 L201 920 L200 921 L200 923 L199 924 L199 925 L198 926 L198 928 L197 929 L197 930 L196 931 L196 933 L195 934 L195 936 L194 937 L194 939 L193 940 L193 943 L192 944 L192 947 L191 948 L191 955 L190 956 L190 962 L189 963 L189 972 L188 973 L188 983 L189 984 L189 995 L190 996 L190 1002 L191 1003 L191 1007 L192 1008 L192 1013 L193 1014 L193 1017 L194 1018 L194 1021 L195 1022 L195 1025 L196 1026 L196 1028 L197 1029 L197 1031 L198 1032 L198 1034 L199 1035 L199 1036 L200 1037 L200 1039 L201 1040 L201 1042 L202 1043 L202 1044 L203 1045 L203 1047 L204 1048 L204 1049 L205 1050 L205 1051 L206 1052 L206 1053 L207 1054 L207 1055 L208 1056 L208 1057 L209 1058 L209 1059 L210 1060 L210 1061 L211 1062 L211 1063 L212 1064 L212 1065 L213 1066 L213 1067 L215 1069 L215 1071 L217 1073 L217 1074 L218 1075 L218 1076 L219 1077 L219 1078 L221 1080 L221 1081 L223 1083 L223 1084 L225 1086 L225 1087 L236 1098 L236 1099 L258 1121 L259 1121 L264 1126 L264 1131 L265 1132 L265 1134 L266 1135 L266 1138 L267 1139 L267 1141 L268 1142 L268 1144 L269 1145 L269 1146 L270 1147 L270 1148 L271 1149 L271 1150 L276 1155 L277 1155 L279 1157 L280 1157 L281 1158 L282 1158 L284 1160 L285 1160 L286 1161 L287 1161 L288 1162 L289 1162 L290 1163 L291 1163 L292 1164 L294 1164 L295 1165 L297 1165 L298 1166 L299 1166 L300 1167 L302 1167 L303 1168 L306 1168 L307 1169 L309 1169 L310 1170 L312 1170 L313 1171 L315 1171 L316 1172 L318 1172 L319 1173 L322 1173 L323 1174 L327 1174 L328 1175 L332 1175 L333 1176 L338 1176 L339 1177 L345 1177 L346 1178 L353 1178 L354 1179 L363 1179 L364 1180 L375 1180 L376 1181 L426 1181 L427 1180 L438 1180 L439 1179 L443 1179 L444 1178 L456 1178 L457 1177 L465 1177 L466 1176 L470 1176 L471 1175 L475 1175 L476 1174 L479 1174 L480 1173 L482 1173 L483 1172 L485 1172 L486 1171 L488 1171 L489 1170 L490 1170 L491 1169 L493 1169 L494 1168 L496 1168 L497 1167 L498 1167 L499 1166 L501 1166 L502 1165 L503 1165 L504 1164 L505 1164 L506 1163 L507 1163 L508 1162 L510 1162 L511 1161 L512 1161 L514 1159 L515 1159 L517 1157 L517 1156 L519 1154 L520 1154 L523 1151 L523 1149 L524 1148 L524 1147 L525 1146 L525 1143 L526 1142 L526 1140 L527 1139 L527 1135 L528 1134 L528 1132 L529 1131 L529 1128 L539 1118 L540 1118 L554 1104 L554 1103 L565 1092 L565 1091 L569 1087 L569 1086 L571 1084 L571 1083 L573 1081 L573 1080 L574 1079 L574 1078 L576 1076 L576 1075 L577 1074 L577 1073 L578 1072 L578 1071 L579 1070 L579 1069 L580 1068 L580 1067 L581 1066 L581 1065 L582 1064 L582 1063 L583 1062 L583 1061 L584 1060 L584 1059 L585 1058 L585 1056 L586 1055 L586 1054 L587 1053 L587 1052 L588 1051 L588 1049 L589 1048 L589 1046 L590 1045 L590 1044 L591 1043 L591 1042 L592 1041 L592 1038 L593 1037 L593 1036 L594 1035 L594 1033 L595 1032 L595 1030 L596 1029 L596 1026 L597 1025 L597 1022 L598 1021 L598 1018 L599 1017 L599 1013 L600 1012 L600 1002 L601 1001 L601 989 L602 988 L602 959 L601 958 L601 953 L600 952 L600 947 L599 946 L599 942 L598 941 L598 938 L597 937 L597 934 L596 933 L596 930 L595 929 L595 926 L594 925 L594 923 L593 922 L593 920 L592 919 L592 917 L591 916 L591 915 L590 914 L590 912 L589 911 L589 910 L588 909 L588 908 L587 907 L587 906 L586 905 L586 904 L585 903 L585 902 L583 900 L583 898 L581 896 L581 895 L580 894 L580 893 L579 892 L579 891 L578 890 L578 889 L577 888 L577 887 L576 886 L576 885 L575 884 L575 883 L574 882 L574 880 L573 879 L573 877 L572 876 L572 875 L571 874 L571 872 L570 871 L570 868 L569 867 L569 864 L568 863 L568 851 L569 850 L569 848 L570 847 L570 846 L572 844 L572 843 L574 841 L574 840 L575 839 L575 837 L576 836 L576 835 L577 834 L577 831 L578 830 L578 826 L579 825 L579 817 L578 816 L578 813 L577 812 L577 810 L576 809 L576 808 L575 807 L575 806 L571 802 L570 802 L566 798 L565 798 L563 796 L562 796 L561 795 L560 795 L558 793 L557 793 L556 792 L555 792 L554 791 L553 791 L552 790 L550 790 L549 789 L548 789 L547 788 L545 788 L544 787 L541 787 L540 786 L538 786 L537 785 L535 785 L534 784 L532 784 L531 783 L528 783 L527 782 L524 782 L523 781 L519 781 L518 780 L513 780 L512 779 L505 779 L504 778 L498 778 L497 777 L492 777 L491 776 L487 776 L486 775 L484 775 L482 773 L483 772 L483 770 L484 769 L484 767 L485 766 L485 765 L486 764 L486 762 L487 761 L487 760 L488 759 L488 757 L489 756 L489 754 L490 753 L490 752 L491 751 L491 749 L492 748 L492 746 L493 745 L493 743 L494 742 L494 738 L493 737 L493 736 L494 735 L494 734 L495 733 L495 732 L496 731 L496 728 L497 727 L497 722 L498 721 L498 718 L499 717 L499 714 L500 713 L500 710 L501 709 L501 708 L502 707 L502 705 L503 704 L503 703 L504 702 L504 701 L506 699 L506 698 L507 697 L507 696 L509 694 L509 693 L513 689 L513 688 L519 682 L520 682 L523 679 L524 679 L525 678 L526 678 L527 677 L528 677 L529 676 L532 676 L533 675 L536 675 L537 674 L539 674 L540 673 L542 673 L543 672 L546 672 L547 671 L550 671 L551 670 L560 670 L561 669 L564 669 L565 668 L567 668 L568 667 L570 667 L571 666 L582 666 L583 665 L590 665 L591 664 L593 664 L594 663 L596 663 L597 662 L601 662 L602 663 L604 663 L605 664 L606 664 L607 665 L608 665 L609 666 L611 666 L612 667 L613 667 L614 668 L616 668 L617 669 L619 669 L620 670 L622 670 L623 671 L625 671 L626 672 L628 672 L629 673 L632 673 L633 674 L637 674 L638 675 L644 675 L645 676 L648 676 L649 677 L651 677 L652 678 L653 678 L654 679 L663 679 L664 680 L669 680 L670 681 L672 681 L673 682 L675 682 L676 683 L682 683 L684 681 L684 680 L685 679 L685 672 L684 671 L684 670 L683 669 L683 667 L682 666 L682 665 L680 663 L680 662 L671 653 L670 653 L668 651 L667 651 L666 650 L665 650 L663 648 L662 648 L661 647 L660 647 L659 646 L658 646 L657 645 L656 645 L655 644 L653 644 L652 643 L651 643 L650 642 L643 642 L642 641 L621 641 L620 642 L615 642 L614 643 L609 643 L608 644 L598 644 L597 643 L595 643 L594 642 L592 642 L591 641 L587 641 L586 640 L581 640 L580 639 L576 639 L575 638 L571 638 L570 637 L563 637 L562 636 L552 636 L551 635 L541 635 L540 636 L534 636 L533 637 L531 637 L530 638 L528 638 L527 639 L525 639 L524 640 L523 640 L522 641 L521 641 L520 642 L519 642 L517 644 L516 644 L515 645 L514 645 L513 644 L513 640 L514 639 L514 638 L515 637 L515 635 L517 633 L517 632 L519 630 L519 629 L524 624 L525 624 L529 620 L530 620 L531 619 L532 619 L534 617 L535 617 L536 616 L537 616 L538 615 L539 615 L540 614 L541 614 L542 613 L543 613 L544 612 L545 612 L546 611 L548 611 L549 610 L551 610 L552 609 L553 609 L554 608 L556 608 L557 607 L559 607 L560 606 L562 606 L563 605 L564 605 L565 604 L567 604 L568 603 L569 603 L570 602 L572 602 L573 601 L574 601 L575 600 L577 600 L578 599 L579 599 L580 598 L581 598 L582 597 L583 597 L584 596 L585 596 L586 595 L587 595 L588 594 L589 594 L590 593 L591 593 L593 591 L594 591 L596 589 L597 589 L599 587 L600 587 L602 585 L603 585 L605 583 L606 583 L609 580 L610 580 L619 571 L620 571 L621 570 L622 570 L623 569 L624 569 L625 568 L626 568 L631 563 L632 563 L637 558 L638 558 L641 555 L642 555 L644 553 L645 553 L647 551 L648 551 L659 540 L660 540 L666 534 L667 534 L675 526 L676 526 L678 524 L679 524 L681 522 L682 522 L684 520 L685 520 L687 518 L688 518 L689 517 L690 517 L691 516 L692 516 L693 515 L694 515 L695 514 L696 514 L697 513 L698 513 L699 512 L702 512 L703 511 L707 511 L708 510 L709 510 L710 509 L710 505 L706 501 L705 501 L704 500 L703 500 L702 499 L701 499 L700 498 L698 498 L697 497 L693 497 L692 496 L688 496 L687 495 L668 495 L667 496 L659 496 L658 497 L652 497 L651 498 L647 498 L646 499 L642 499 L641 500 L638 500 L637 501 L634 501 L633 502 L631 502 L630 503 L627 503 L626 504 L624 504 L623 505 L620 505 L619 506 L618 506 L617 507 L615 507 L614 508 L612 508 L611 509 L610 509 L609 510 L608 510 L607 511 L606 511 L605 512 L604 512 L603 513 L602 513 L601 514 L600 514 L599 515 L598 515 L597 516 L596 516 L595 517 L594 517 L593 518 L592 518 L591 519 L590 519 L589 520 L588 520 L587 521 L586 521 L585 522 L584 522 L583 523 L582 523 L581 524 L580 524 L578 526 L577 526 L576 527 L575 527 L573 529 L572 529 L570 531 L569 531 L566 534 L565 534 L562 537 L561 537 L554 544 L553 544 L548 549 L547 549 L540 556 L539 556 L537 558 L537 559 L531 565 L531 566 L527 570 L526 569 L526 567 L527 566 L527 564 L528 563 L528 561 L529 560 L529 558 L530 557 L530 553 L531 552 L531 549 L532 548 L532 545 L533 544 L533 539 L534 538 L534 533 L535 532 L535 529 L536 528 L536 524 L537 523 L537 515 L538 514 L538 508 L539 507 L539 502 L540 501 L540 497 L541 496 L541 491 L542 490 L542 487 L543 486 L543 481 L544 480 L544 474 L545 473 L545 465 L546 464 L546 462 L549 459 L551 459 L552 458 L554 458 L555 457 L557 457 L558 456 L560 456 L561 455 L563 455 L564 454 L565 454 L566 453 L567 453 L568 452 L570 452 L571 451 L572 451 L573 450 L574 450 L575 449 L576 449 L578 447 L579 447 L586 440 L587 440 L592 435 L593 436 L593 440 L592 441 L592 447 L591 448 L591 456 L592 457 L592 460 L593 461 L593 463 L594 464 L594 465 L595 466 L595 467 L599 471 L600 471 L603 474 L604 474 L605 475 L606 475 L608 477 L609 477 L610 478 L612 478 L613 479 L615 479 L616 480 L625 480 L626 479 L629 479 L630 478 L631 478 L633 476 L634 476 L641 469 L642 469 L641 468 L641 466 L642 465 L642 464 L643 463 L643 461 L644 460 L644 458 L645 457 L645 448 L646 447 L647 448 L648 448 L649 449 L650 449 L651 450 L652 450 L654 452 L655 452 L656 453 L658 453 L659 454 L660 454 L661 455 L666 455 L667 456 L671 456 L672 457 L674 457 L675 458 L676 458 L677 459 L684 459 L685 458 L687 458 L688 457 L689 457 L691 455 L691 447 L690 446 L690 444 L689 443 L689 440 L688 439 L688 437 L687 436 L687 435 L684 432 L684 431 L682 429 L682 428 L681 427 L681 426 L679 424 L679 423 L678 422 L678 421 L677 420 L677 419 L675 417 L675 416 L673 414 L673 413 L672 412 L672 411 L669 408 L669 407 L664 402 L665 401 L673 401 L674 400 L680 400 L681 399 L683 399 L684 398 L685 398 L686 397 L687 397 L693 391 L694 391 L694 390 L699 385 L699 384 L700 383 L700 382 L701 381 L701 380 L702 379 L702 378 L703 377 L703 376 L704 375 L704 373 L705 372 L705 370 L706 369 L706 365 L707 364 L707 360 L708 359 L708 352 L707 351 L707 346 L706 345 L706 342 L705 341 L705 339 L704 338 L704 337 L703 336 L702 336 L700 334 L698 334 L697 333 L696 333 L695 332 L693 332 L691 330 L690 330 L689 329 L688 329 L687 328 L686 328 L685 327 L683 327 L682 326 L680 326 L679 325 L675 325 L674 324 L664 324 L663 325 L660 325 L659 326 L658 326 L657 327 L656 327 L653 330 L652 330 L651 331 L650 331 L648 333 L647 333 L644 336 L643 336 L641 338 L641 339 L638 342 L636 340 L636 327 L635 326 L635 321 L634 320 L634 316 L633 315 L633 313 L632 312 L632 309 L631 308 L631 307 L630 306 L630 304 L629 303 L629 302 L628 301 L628 299 L626 297 L626 296 L625 295 L625 294 L623 292 L623 291 L624 290 L626 290 L627 291 L635 291 L636 290 L655 290 L656 291 L660 291 L661 292 L664 292 L665 293 L668 293 L669 294 L671 294 L672 295 L675 295 L676 296 L677 296 L678 297 L679 297 L680 298 L682 298 L684 300 L685 300 L686 301 L687 301 L688 302 L689 302 L691 304 L692 304 L693 305 L694 305 L695 306 L696 306 L697 307 L699 307 L700 308 L702 308 L703 309 L706 309 L707 310 L713 310 L714 309 L716 309 L718 307 L718 302 L717 301 L717 300 L716 299 L716 297 L715 296 L715 295 L714 294 L714 293 L713 292 L713 291 L714 290 L725 290 L726 291 L728 291 L729 290 L731 290 L732 289 L733 289 L737 285 L737 279 L736 278 L736 277 L735 276 L735 275 L734 274 L734 273 L733 272 L733 271 L732 270 L732 269 L725 262 L724 262 L723 261 L722 261 L721 260 L720 260 L717 257 L717 254 L716 253 L716 251 L715 250 L715 248 L714 247 L714 246 L713 245 L713 242 L714 241 L714 239 L715 238 L715 237 L716 236 L716 234 L717 233 L717 232 L718 231 L718 227 L719 226 L719 223 L720 222 L720 219 L721 218 L721 214 L722 213 L722 200 L721 199 L721 197 L720 196 L720 195 L718 193 L718 192 L715 189 L714 189 L713 188 L711 188 L710 189 L709 189 L708 190 L707 190 L706 191 L705 191 L703 193 L702 193 L700 195 L699 195 L697 197 L696 197 L693 200 L692 200 L688 204 L687 203 L687 199 L688 198 L688 195 L687 194 L687 185 L686 184 L686 181 L685 180 L685 178 L684 177 L684 175 L683 174 L683 173 L682 172 L682 171 L681 170 L681 169 L679 167 L679 166 L677 164 L677 163 L674 160 L673 160 L672 159 L670 159 L669 160 L668 160 L667 161 L666 161 L665 162 L665 167 L666 168 L666 176 L667 177 L667 187 L666 188 L666 197 L665 198 L665 202 L664 203 L664 206 L663 207 L663 209 L662 210 L662 212 L661 213 L661 214 L660 215 L660 217 L659 218 L659 219 L658 220 L658 221 L657 222 L657 223 L655 225 L655 226 L653 228 L653 229 L648 234 L648 235 L644 239 L644 240 L642 242 L640 242 L639 241 L627 241 L626 242 L624 242 L622 244 L621 244 L619 246 L619 247 L616 250 L616 251 L614 253 L614 254 L612 256 L612 257 L611 258 L611 259 L609 261 L609 262 L607 264 L607 265 L605 267 L605 268 L603 270 L603 271 L600 274 L600 275 L594 281 L592 279 L592 278 L591 277 L591 265 L590 264 L590 254 L591 253 L591 250 L592 249 L592 248 L593 247 L593 246 L594 245 L594 244 L595 243 L595 242 L596 241 L596 240 L597 239 L597 238 L598 237 L598 236 L599 235 L599 233 L601 231 L601 230 L603 228 L616 228 L617 227 L619 227 L620 226 L622 226 L623 225 L624 225 L625 224 L626 224 L628 222 L629 222 L636 215 L636 214 L638 212 L638 211 L640 209 L640 207 L641 206 L641 205 L642 204 L642 202 L643 201 L643 199 L644 198 L644 196 L645 195 L645 192 L646 191 L646 187 L647 186 L647 184 L645 182 L638 182 L637 183 L635 183 L634 184 L631 184 L630 185 L628 185 L627 186 L624 186 L623 187 L622 187 L621 188 L620 188 L619 189 L618 189 L617 190 L616 190 L614 192 L613 192 L611 194 L610 194 L607 197 L606 197 L603 200 L603 201 L602 202 L602 203 L601 204 L601 205 L600 206 L600 208 L599 209 L599 212 L598 213 L598 216 L597 217 L597 219 L595 221 L595 222 L594 223 L594 224 L589 229 L587 227 L587 226 L586 225 L586 224 L585 223 L585 221 L584 220 L584 214 L585 213 L585 211 L586 210 L586 207 L587 206 L587 204 L588 203 L588 197 L589 196 L589 182 L588 181 L588 174 L587 173 L587 170 L586 169 L586 166 L585 165 L585 164 L584 163 L584 162 L583 161 L583 159 L582 158 L582 157 L580 155 L580 154 L573 147 L573 146 L572 146 L571 145 L570 145 L568 143 L566 143 L565 144 L564 144 L559 149 L559 150 L557 152 L557 153 L556 154 L556 156 L555 157 L555 158 L554 159 L554 161 L553 162 L553 164 L552 165 L552 168 L551 169 L551 172 L550 173 L550 191 L551 192 L551 195 L552 196 L552 198 L553 199 L553 200 L554 201 L554 202 L555 203 L555 204 L556 205 L556 206 L560 210 L560 211 L567 218 L568 218 L569 219 L570 219 L571 220 L572 220 L575 223 L575 224 L576 225 L576 228 L577 229 L577 233 L578 234 L578 238 L579 239 L579 244 L580 245 L580 253 L579 254 L579 268 L578 269 L577 269 L576 268 L575 268 L574 267 L573 267 L572 266 L571 266 L570 265 L568 265 L567 264 L564 264 L563 263 L545 263 L544 264 L540 264 L539 265 L537 265 L536 266 L535 266 L534 267 L533 267 L532 268 L531 268 L526 273 L526 274 L525 275 L525 276 L523 278 L523 279 L521 281 L520 280 L520 271 L519 270 L519 267 L518 266 L518 264 L517 263 L517 261 L516 260 L516 259 L515 258 L515 256 L514 255 L514 254 L513 253 L513 252 L511 250 L511 249 L510 248 L510 247 L508 245 L508 244 L507 243 L507 242 L505 240 L505 239 L503 237 L503 236 L500 233 L500 232 L496 228 L495 228 L494 227 L493 227 L492 226 L491 227 L490 227 L485 232 L485 233 L483 235 L483 237 L482 238 L482 239 L481 240 L481 242 L480 243 L480 244 L479 245 L479 247 L478 248 L478 249 L477 250 L477 252 L476 253 L476 255 L475 256 L475 260 L474 261 L474 269 L473 270 L473 280 L474 281 L474 282 L473 283 L472 283 L466 277 L465 277 L463 275 L462 275 L460 273 L459 273 L458 272 L456 272 L455 271 L453 271 L452 270 L447 270 L446 269 L435 269 L434 270 L429 270 L428 271 L425 271 L424 272 L423 272 L422 273 L420 273 L419 274 L418 274 L417 275 L416 275 L413 278 L412 278 L402 288 L402 289 L400 291 L400 301 L401 302 L401 318 L402 319 L402 322 L403 323 L403 324 L404 325 L404 327 L405 328 L405 329 L407 331 L407 332 L410 335 L410 336 L413 339 L413 340 L417 344 L418 344 L421 347 L422 347 L423 348 L424 348 L425 349 L427 349 L428 350 L432 350 L433 351 L442 351 L443 352 L443 353 L437 359 L437 360 L434 363 L434 364 L432 366 L432 367 L431 368 L431 369 L430 370 L430 371 L429 372 L429 373 L428 374 L428 375 L427 376 L427 378 L426 379 L426 381 L425 382 L425 387 L424 388 L424 395 L423 396 L423 399 L422 400 L422 402 L424 404 L428 404 L429 403 L435 403 L436 402 L440 402 L441 401 L444 401 L445 400 L449 400 L450 399 L453 399 L454 398 L456 398 L457 397 L459 397 L460 396 L461 396 L462 395 L463 395 L464 394 L465 394 L466 393 L467 393 L468 392 L469 392 L471 390 L472 390 L479 383 L480 384 L480 386 L479 387 L479 390 L478 391 L478 394 L479 395 L479 397 L480 398 L480 399 L481 400 L481 401 L487 407 L488 407 L491 410 L492 410 L494 412 L496 412 L497 413 L502 413 L503 414 L510 414 L511 413 L512 413 L513 412 L515 412 L516 411 L518 411 L519 410 L520 410 L521 409 L522 409 L523 408 L524 408 L527 405 L528 405 L531 402 L532 402 L533 403 L533 404 L534 405 L534 406 L535 407 L535 411 L536 412 L536 426 L535 427 L535 428 L533 430 L533 431 L532 432 L532 433 L530 435 L530 436 L529 437 L529 438 L528 439 L528 440 L527 441 L527 442 L526 443 L526 444 L525 445 L525 447 L524 448 L524 449 L523 450 L523 454 L522 455 L522 456 L523 457 L523 458 L524 458 L525 459 L526 459 L527 460 L529 460 L530 461 L530 466 L529 467 L529 471 L528 472 L528 474 L527 475 L527 478 L526 479 L526 483 L525 484 L525 488 L524 489 L524 493 L523 494 L523 503 L522 504 L522 515 L521 516 L521 519 L520 520 L520 524 L519 525 L519 529 L518 530 L518 534 L517 535 L517 538 L516 539 L516 544 L515 545 L515 549 L514 550 L514 553 L513 554 L513 558 L512 559 L512 561 L511 562 L511 565 L510 566 L510 570 L509 571 L509 575 L508 576 L508 580 L507 581 L507 582 L506 583 L505 582 L505 577 L504 576 L504 572 L503 571 L503 568 L502 567 L502 566 L501 565 L501 563 L500 562 L500 560 L499 559 L499 557 L498 556 L498 555 L497 554 L497 552 L496 551 L496 550 L495 549 L495 548 L494 547 L494 545 L493 544 L493 542 L492 541 L492 540 L491 539 L491 537 L490 536 L490 535 L489 534 L489 533 L487 531 L487 530 L486 529 L486 528 L485 527 L485 526 L484 525 L484 524 L483 523 L483 522 L481 520 L481 519 L480 518 L480 517 L478 515 L478 514 L477 513 L477 512 L475 510 L475 509 L474 508 L474 507 L471 504 L471 503 L470 502 L470 501 L467 498 L467 497 L464 494 L464 493 L466 491 L467 491 L469 489 L470 489 L471 488 L472 488 L475 485 L476 485 L478 483 L479 483 L481 481 L482 481 L484 479 L485 479 L486 478 L487 478 L489 476 L490 476 L494 472 L494 470 L492 468 L491 468 L490 467 L488 467 L487 466 L482 466 L481 465 L472 465 L471 466 L463 466 L462 467 L457 467 L456 468 L452 468 L451 469 L446 469 L445 468 L445 466 L446 465 L446 464 L447 463 L447 462 L448 461 L448 457 L449 456 L449 444 L450 443 L450 440 L453 437 L453 436 L455 434 L455 429 L454 428 L452 428 L451 427 L451 425 L450 424 L450 419 L449 418 L449 417 L448 416 L448 415 L447 415 L446 414 L444 414 L443 415 L441 415 L435 421 L435 422 L434 423 L434 424 L433 425 L433 427 L432 428 L432 430 L431 431 L431 432 L430 433 L430 436 L429 437 L429 438 L428 439 L428 441 L427 442 L427 444 L426 445 L426 447 L425 448 L425 449 L424 450 L424 451 L421 454 L420 454 L419 453 L418 453 L417 452 L416 452 L415 451 L414 451 L412 449 L411 449 L410 448 L409 448 L408 447 L407 447 L406 446 L405 446 L403 444 L401 444 L400 443 L399 443 L398 442 L396 442 L395 441 L393 441 L392 440 L388 440 L387 439 L379 439 L378 440 L376 440 L375 441 L374 441 L372 443 L372 454 L373 455 L373 456 L374 457 L374 459 L375 460 L375 461 L376 462 L376 463 L377 464 L377 465 L378 466 L378 467 L379 468 L379 469 L380 470 L380 471 L381 472 L381 473 L382 474 L382 475 L383 476 L383 477 L384 478 L384 479 L385 480 L385 481 L386 482 L386 483 L387 484 L387 486 L388 487 L388 489 L386 491 L385 491 L384 492 L382 492 L381 493 L380 493 L379 494 L378 494 L377 495 L376 495 L375 496 L374 496 L373 497 L372 497 L371 498 L370 498 L368 500 L367 500 L364 503 L363 503 L361 505 L360 505 L357 508 L356 508 L353 511 L352 511 L349 514 L348 514 L344 518 L343 518 L340 521 L339 521 L335 525 L334 525 L330 529 L330 530 L326 534 L325 534 L318 541 L318 542 L317 543 L317 544 L316 545 L316 546 L314 548 L314 549 L313 550 L313 551 L311 553 L311 554 L309 556 L309 557 L308 558 L308 559 L307 560 L307 561 L306 562 L306 563 L304 565 L303 564 L303 563 L304 562 L304 559 L305 558 L305 556 L306 555 L306 552 L307 551 L307 549 L308 548 L308 546 L309 545 L309 544 L310 543 L310 541 L311 540 L311 539 L312 538 L312 537 L313 536 L313 535 L314 534 L314 533 L316 531 L316 530 L318 528 L318 527 L321 524 L321 523 L326 518 L326 517 L329 514 L329 513 L333 509 L333 508 L336 505 L336 504 L338 502 L338 501 L340 499 L340 498 L341 497 L341 496 L343 494 L343 493 L344 492 L344 491 L346 489 L346 488 L347 487 L347 486 L349 484 L349 483 L350 482 L350 481 L351 480 L351 479 L352 478 L352 477 L353 476 L353 475 L354 474 L354 473 L355 472 L355 471 L356 470 L356 468 L357 467 L357 465 L358 464 L358 462 L359 461 L359 459 L360 458 L360 457 L361 456 L361 455 L362 454 L362 452 L363 451 L363 450 L364 449 L364 448 L365 447 L365 446 L366 445 L366 443 L367 442 L367 440 L368 439 L368 437 L369 436 L369 434 L370 433 L370 431 L371 430 L371 428 L372 427 L372 424 L373 423 L373 421 L374 420 L374 419 L375 418 L375 415 L376 414 L376 412 L377 411 L377 409 L378 408 L378 406 L379 405 L379 403 L380 402 L380 400 L381 399 L381 398 L382 397 L382 395 L383 394 L383 392 L384 391 L384 389 L385 388 L385 387 L386 386 L386 384 L387 383 L387 382 L388 381 L388 380 L389 379 L389 378 L390 377 L390 376 L391 375 L391 374 L392 373 L392 372 L393 371 L393 370 L394 369 L394 368 L396 366 L396 365 L397 364 L397 363 L398 362 L398 361 L399 360 L399 359 L400 358 L400 349 L397 346 L388 346 L387 347 L384 347 L383 348 L382 348 L381 349 L380 349 L379 350 L378 350 L377 351 L376 351 L375 352 L374 352 L373 353 L372 353 L371 354 L370 354 L368 356 L367 356 L365 358 L364 358 L362 360 L361 360 L356 365 L355 365 L351 369 L350 369 L343 376 L342 376 L334 384 L334 385 L327 392 L327 393 L323 397 L323 398 L320 401 L320 402 L317 405 L317 406 L315 408 L315 409 L313 411 L313 412 L312 413 L312 414 L310 416 L310 417 L308 419 L308 420 L306 422 L306 423 L305 424 L305 425 L304 426 L304 427 L302 429 L302 431 L300 433 L300 435 L299 436 L299 437 L298 438 L298 439 L297 440 L297 441 L296 442 L296 444 L295 445 L295 446 L294 447 L294 449 L293 450 L293 451 L292 452 L292 454 L291 455 L291 456 L290 457 L290 459 L289 460 L289 462 L288 463 L288 465 L287 466 L287 468 L286 469 L286 472 L285 473 L285 474 L284 475 L283 474 L283 472 L282 471 L282 468 L281 467 L281 465 L280 464 L280 461 L279 460 L279 456 L278 455 L278 449 L277 448 L277 441 L276 440 L276 433 L275 432 L275 428 L274 427 L274 419 L273 418 L273 414 L272 413 L272 409 L271 408 L271 404 L270 403 L270 397 L269 396 L269 391 L268 390 L268 386 L267 385 L268 384 L272 384 L273 385 L274 385 L275 386 L283 386 L284 387 L297 387 L298 386 L302 386 L303 385 L305 385 L306 384 L307 384 L307 383 L308 382 L307 381 L307 378 L306 377 L306 375 L305 374 L305 373 L304 372 L304 371 L303 370 L303 369 L302 368 L302 367 L301 366 L301 365 L300 364 L300 363 L298 361 L298 360 L295 357 L295 356 L292 353 L292 352 L290 350 L290 349 L287 346 L287 345 L284 342 L284 341 L281 338 L280 338 L279 337 L279 336 L280 335 L287 335 L288 334 L290 334 L291 333 L292 333 L293 332 L294 332 L296 330 L297 330 L300 327 L301 327 L305 323 L305 322 L308 319 L308 318 L310 316 L310 315 L313 312 L313 311 L315 309 L315 308 L316 307 L316 306 L317 305 L317 303 L318 302 L318 301 L319 300 L319 296 L320 295 L320 291 L321 290 L321 273 L320 272 L320 269 L319 268 L319 267 L318 266 L318 264 L316 262 L316 261 L314 259 L314 258 L311 255 L310 255 L308 253 L307 253 L305 251 L304 251 L303 250 L302 250 L301 249 L300 249 L299 248 L297 248 L296 247 L295 247 L294 246 L292 246 L291 245 L288 245 L287 244 L283 244 L282 243 L282 242 L283 241 L284 241 L285 240 L286 240 L287 239 L289 239 L290 238 L291 238 L292 237 L293 237 L295 235 L296 235 L299 232 L300 232 L305 227 L305 226 L308 223 L308 222 L309 221 L309 220 L312 217 L313 218 L313 232 L314 233 L314 236 L315 237 L315 239 L316 240 L316 241 L317 242 L317 243 L319 245 L319 246 L326 253 L327 253 L329 255 L330 255 L331 256 L332 256 L333 257 L335 257 L336 258 L338 258 L339 259 L340 259 L341 260 L347 260 L348 259 L349 259 L350 258 L352 258 L353 257 L354 257 L355 256 L356 256 L357 255 L358 255 L362 251 L362 250 L363 249 L363 248 L364 247 L364 246 L365 245 L365 244 L366 243 L366 241 L367 240 L367 239 L368 238 L368 236 L369 235 L370 235 L372 237 L373 237 L374 238 L375 238 L376 239 L377 239 L378 240 L379 240 L380 241 L381 241 L382 242 L383 242 L384 243 L386 243 L387 244 L391 244 L392 245 L409 245 L410 244 L414 244 L415 243 L417 243 L418 242 L418 241 L419 240 L418 239 L418 235 L417 234 L417 232 L416 231 L416 228 L415 227 L415 225 L414 224 L414 222 L413 221 L413 220 L412 219 L412 218 L411 217 L411 216 L410 215 L410 213 L408 211 L408 210 L407 209 L407 208 L405 206 L405 205 L394 194 L395 193 L400 193 L401 192 L406 192 L407 191 L408 191 L409 190 L410 190 L411 189 L412 189 L414 187 L415 187 L423 179 L423 178 L425 176 L425 175 L427 173 L427 172 L428 171 L428 170 L429 169 L429 168 L430 167 L430 166 L431 165 L431 163 L432 162 L432 161 L433 160 L433 158 L434 157 L434 155 L435 154 L435 151 L436 150 L436 146 L437 145 L437 141 L436 140 L436 137 L435 136 L435 134 L434 133 L434 132 L432 130 L432 129 L430 127 L430 126 L427 123 L427 122 L425 120 L425 119 L418 112 L417 112 L415 110 L414 110 L413 109 L412 109 L410 107 L409 107 L408 106 L407 106 L406 105 L405 105 L404 104 L402 104 L401 103 L399 103 L398 102 L391 102 L390 103 L383 103 L382 104 L379 104 L378 105 L376 105 L375 106 L373 106 L372 107 L371 107 L363 115 L363 116 L361 118 L361 119 L360 120 L360 121 L359 122 L357 120 L357 113 L356 112 L356 102 L355 101 L355 99 L354 98 L354 96 L353 95 L353 94 L352 93 L352 91 L351 90 L351 88 L350 87 L350 85 L349 84 L349 83 L348 82 L348 80 L347 79 L347 78 L346 77 L346 76 L345 75 L345 74 L342 71 L341 71 L339 69 L338 69 L334 65 L329 65 L320 74 L320 75 L319 76 L319 77 L318 78 L318 79 L317 80 L317 82 L316 83 L316 85 L315 86 L315 88 L314 89 L314 90 L313 91 L313 93 L312 94 L312 96 L311 97 L311 99 L310 100 L310 102 L309 103 L309 106 L308 107 L308 109 L307 110 L307 113 L306 114 L306 117 L305 118 L304 118 L301 115 L301 114 L294 107 L293 107 L292 106 L291 106 L290 105 L289 105 L288 104 L287 104 L286 103 L282 103 L281 102 L277 102 L276 103 L269 103 L268 104 L265 104 L264 105 L262 105 L261 106 L260 106 L259 107 L257 107 L256 108 L255 108 L254 109 L253 109 L252 110 L250 110 L248 112 L247 112 L245 114 L244 114 L241 117 L241 118 L240 119 L240 120 L237 123 L236 123 L235 124 L235 125 L234 126 L234 127 L233 128 L233 130 L232 131 L232 141 L233 142 L233 146 L234 147 L234 149 L235 150 L235 152 L236 153 L236 154 L237 155 L237 157 L238 158 L238 160 L239 161 L239 169 L240 170 L240 172 L241 173 L241 174 L242 175 L242 176 L243 177 L243 178 L244 179 L244 180 L247 183 L247 184 L252 189 L253 189 L255 191 L256 191 L257 192 L258 192 L259 193 L261 193 L262 194 L267 194 L268 195 L268 196 L259 205 L259 206 L257 208 L257 209 L255 211 L255 212 L254 213 L254 214 L252 216 L252 217 L251 218 L251 219 L250 220 L250 221 L248 223 L247 223 L244 226 L244 227 L241 230 L236 225 L236 224 L234 222 L234 221 L233 220 L233 219 L232 218 L232 217 L231 216 L231 215 L229 213 L229 211 L227 209 L227 208 L225 206 L225 205 L220 200 L220 199 L218 197 L218 195 L217 194 L217 192 L218 191 L219 191 L220 190 L224 190 L225 189 L229 189 L230 188 L237 188 L238 187 L238 185 L239 184 L239 183 L238 182 L238 175 L237 174 L237 171 L236 170 L236 169 L235 168 L235 167 L232 164 L232 163 L231 162 L231 161 L230 160 L230 159 L229 158 L229 157 L228 156 L228 155 L227 154 L227 153 L226 152 L226 151 L224 149 L224 148 L222 146 L222 145 L219 142 L219 141 L215 137 L214 137 L213 136 L215 134 L217 134 L218 133 L220 133 L221 132 L222 132 L225 129 L226 129 L226 128 L229 125 L229 124 L230 123 L230 122 L231 121 L231 120 L232 119 L232 118 L233 117 L233 115 L234 114 L234 113 L235 112 L235 111 L239 107 L239 101 L240 100 L240 95 L241 94 L241 89 L242 88 L242 83 L243 82 L243 65 L242 64 L242 63 L240 61 L239 61 L238 60 L237 60 L235 58 L234 58 L233 57 L232 57 L230 55 L229 55 L228 54 L227 54 L226 53 L225 53 L224 52 L223 52 L222 51 L221 51 L220 50 L219 50 L218 49 L217 49 L216 48 L215 48 L214 47 L212 47 L211 46 L209 46 L208 45 L198 45 L197 46 L193 46 L192 47 L190 47 L189 48 L187 48 L186 49 L185 49 L184 50 L182 50 L181 51 L180 51 L178 53 L177 53 L173 57 L173 58 L171 60 L171 61 L169 63 L168 62 L168 61 L167 60 L167 59 L166 58 L166 55 L165 54 L165 52 L164 51 L164 48 L163 47 L163 44 L162 43 L162 42 L161 41 L161 39 L160 38 L160 36 L159 35 L159 34 L158 33 L158 32 L157 31 L157 30 L156 29 L156 28 L155 27 L155 26 L154 25 L154 24 L153 23 L153 22 L152 21 L152 20 L151 19 L151 18 L150 17 L150 16 L146 12 L145 12 L144 11 Z " fill="black"/></svg>