<svg width="465" height="264" xmlns="http://www.w3.org/2000/svg"><path d="M214 10 L213 11 L202 11 L201 12 L187 12 L186 13 L174 13 L173 14 L166 14 L165 15 L159 15 L158 16 L151 16 L150 17 L144 17 L143 18 L139 18 L138 19 L134 19 L133 20 L129 20 L128 21 L126 21 L125 22 L122 22 L121 23 L118 23 L117 24 L115 24 L114 25 L111 25 L110 26 L107 26 L106 27 L104 27 L103 28 L101 28 L100 29 L98 29 L97 30 L95 30 L94 31 L93 31 L92 32 L90 32 L89 33 L87 33 L86 34 L84 34 L83 35 L82 35 L81 36 L79 36 L78 37 L76 37 L75 38 L74 38 L73 39 L72 39 L71 40 L70 40 L69 41 L67 41 L66 42 L65 42 L64 43 L63 43 L62 44 L61 44 L60 45 L59 45 L58 46 L57 46 L55 48 L54 48 L53 49 L52 49 L50 51 L49 51 L47 53 L46 53 L43 56 L42 56 L39 59 L38 59 L34 63 L33 63 L22 74 L22 75 L20 77 L20 78 L18 80 L18 81 L16 83 L16 84 L15 85 L15 86 L14 87 L14 88 L13 89 L13 91 L12 92 L12 96 L11 97 L11 101 L10 102 L10 109 L11 110 L11 120 L12 121 L12 127 L13 128 L13 131 L14 132 L14 134 L15 135 L15 136 L16 137 L16 139 L17 140 L17 141 L18 142 L18 143 L19 144 L19 146 L20 147 L20 148 L22 150 L22 151 L23 152 L23 153 L25 155 L25 156 L28 159 L28 160 L36 168 L37 168 L40 171 L41 171 L43 173 L44 173 L50 179 L50 180 L51 181 L51 182 L52 183 L52 184 L53 185 L53 186 L55 188 L55 189 L57 191 L57 192 L59 194 L59 195 L61 197 L61 198 L65 202 L65 203 L70 208 L71 208 L76 213 L77 213 L79 215 L80 215 L83 218 L84 218 L86 220 L87 220 L88 221 L89 221 L90 222 L91 222 L92 223 L93 223 L94 224 L95 224 L96 225 L97 225 L98 226 L99 226 L100 227 L101 227 L102 228 L104 228 L105 229 L106 229 L107 230 L109 230 L110 231 L111 231 L112 232 L113 232 L114 233 L117 233 L118 234 L120 234 L121 235 L122 235 L123 236 L126 236 L127 237 L130 237 L131 238 L133 238 L134 239 L136 239 L137 240 L141 240 L142 241 L145 241 L146 242 L148 242 L149 243 L153 243 L154 244 L158 244 L159 245 L163 245 L164 246 L169 246 L170 247 L176 247 L177 248 L182 248 L183 249 L191 249 L192 250 L203 250 L204 251 L218 251 L219 252 L258 252 L259 251 L272 251 L273 250 L281 250 L282 249 L288 249 L289 248 L293 248 L294 247 L300 247 L301 246 L305 246 L306 245 L310 245 L311 244 L314 244 L315 243 L319 243 L320 242 L324 242 L325 241 L328 241 L329 240 L332 240 L333 239 L335 239 L336 238 L338 238 L339 237 L342 237 L343 236 L345 236 L346 235 L347 235 L348 234 L350 234 L351 233 L353 233 L354 232 L356 232 L357 231 L358 231 L359 230 L360 230 L361 229 L362 229 L363 228 L364 228 L365 227 L366 227 L367 226 L368 226 L369 225 L370 225 L371 224 L372 224 L373 223 L374 223 L375 222 L376 222 L377 221 L378 221 L379 220 L380 220 L382 218 L383 218 L384 217 L385 217 L387 215 L388 215 L390 213 L391 213 L395 209 L396 209 L401 204 L401 203 L405 199 L405 198 L407 196 L407 195 L409 193 L409 192 L410 191 L410 190 L411 189 L411 188 L412 187 L412 186 L413 185 L413 184 L414 183 L414 181 L415 180 L415 179 L416 178 L416 177 L439 154 L439 153 L441 151 L441 150 L443 148 L443 147 L445 145 L445 144 L446 143 L446 142 L447 141 L447 140 L448 139 L448 138 L449 137 L449 134 L450 133 L450 129 L451 128 L451 123 L452 122 L452 117 L453 116 L453 101 L452 100 L452 97 L451 96 L451 91 L450 90 L450 87 L449 86 L449 84 L448 83 L448 82 L446 80 L446 79 L444 77 L444 76 L442 74 L442 73 L437 68 L437 67 L433 63 L432 63 L428 59 L427 59 L422 54 L421 54 L419 52 L418 52 L416 50 L415 50 L413 48 L412 48 L411 47 L410 47 L409 46 L408 46 L407 45 L406 45 L405 44 L404 44 L402 42 L401 42 L400 41 L399 41 L398 40 L397 40 L396 39 L395 39 L394 38 L392 38 L391 37 L390 37 L389 36 L388 36 L387 35 L386 35 L385 34 L383 34 L382 33 L381 33 L380 32 L378 32 L377 31 L375 31 L374 30 L372 30 L371 29 L369 29 L368 28 L365 28 L364 27 L361 27 L360 26 L357 26 L356 25 L354 25 L353 24 L352 24 L351 23 L348 23 L347 22 L345 22 L344 21 L341 21 L340 20 L337 20 L336 19 L332 19 L331 18 L328 18 L327 17 L323 17 L322 16 L316 16 L315 15 L308 15 L307 14 L299 14 L298 13 L290 13 L289 12 L274 12 L273 11 L252 11 L251 10 Z " fill="black"/></svg>