<svg width="398" height="505" xmlns="http://www.w3.org/2000/svg"><path d="M235 11 L234 12 L233 12 L231 14 L230 14 L225 19 L224 19 L222 21 L221 21 L220 22 L218 22 L217 23 L216 23 L214 25 L212 25 L200 37 L199 37 L198 38 L197 38 L195 40 L194 40 L180 54 L180 55 L177 58 L177 59 L175 61 L175 63 L174 64 L174 65 L173 66 L173 67 L172 68 L172 70 L171 71 L171 72 L170 73 L170 74 L169 75 L169 77 L168 78 L168 79 L167 80 L167 83 L166 84 L166 85 L165 86 L162 83 L162 82 L159 79 L159 78 L153 72 L152 72 L148 68 L147 68 L145 66 L144 66 L143 65 L139 65 L137 63 L137 62 L135 60 L135 59 L134 59 L132 57 L131 57 L129 55 L128 55 L127 54 L126 54 L125 53 L124 53 L123 52 L121 52 L120 51 L117 51 L116 50 L115 50 L114 49 L112 49 L111 48 L108 48 L107 47 L106 47 L105 46 L102 46 L101 45 L99 45 L98 44 L95 44 L94 43 L86 43 L85 42 L79 42 L78 41 L68 41 L67 40 L57 40 L56 41 L53 41 L52 42 L51 42 L50 43 L49 43 L48 44 L48 47 L49 47 L51 49 L52 49 L54 51 L55 51 L58 54 L59 54 L61 56 L62 56 L65 59 L65 60 L67 62 L67 65 L68 66 L68 69 L69 70 L69 71 L70 72 L70 73 L71 74 L71 77 L72 78 L72 79 L73 80 L73 82 L74 83 L74 85 L75 86 L75 89 L76 90 L76 95 L77 96 L77 98 L78 99 L78 101 L79 102 L79 103 L81 105 L81 106 L90 115 L90 116 L91 117 L91 118 L94 121 L94 122 L95 123 L95 124 L96 125 L96 126 L95 127 L95 128 L87 136 L87 137 L85 139 L85 140 L83 142 L83 143 L82 144 L82 145 L80 147 L80 148 L79 149 L79 150 L78 151 L78 152 L77 153 L77 155 L76 156 L76 159 L74 161 L73 161 L72 162 L67 162 L66 163 L61 163 L60 164 L58 164 L57 165 L56 165 L51 170 L50 170 L46 174 L44 174 L43 175 L42 175 L41 176 L40 176 L34 182 L33 182 L33 183 L28 188 L28 189 L26 191 L26 192 L25 193 L24 193 L20 197 L19 197 L18 198 L17 198 L13 202 L13 203 L12 204 L12 207 L11 208 L11 210 L14 210 L15 209 L16 209 L17 208 L18 208 L20 206 L22 206 L23 205 L24 205 L25 206 L29 206 L30 207 L34 207 L35 208 L37 208 L38 209 L40 209 L41 210 L42 210 L43 211 L45 211 L46 212 L49 212 L50 213 L52 213 L53 214 L55 214 L56 215 L57 215 L58 216 L59 216 L60 217 L61 217 L62 218 L65 218 L66 219 L67 219 L68 220 L72 220 L73 221 L75 221 L76 222 L77 222 L78 223 L81 223 L82 224 L86 224 L87 225 L97 225 L98 224 L103 224 L104 223 L112 223 L113 222 L119 222 L120 221 L127 221 L128 220 L133 220 L134 219 L137 219 L138 218 L144 218 L145 219 L146 219 L147 220 L148 220 L149 221 L150 221 L152 223 L153 223 L161 231 L161 232 L163 234 L163 235 L167 239 L167 240 L169 242 L169 243 L171 245 L171 248 L170 249 L169 248 L168 248 L167 247 L164 247 L163 246 L161 246 L159 244 L158 244 L157 243 L156 243 L154 241 L153 241 L152 240 L151 240 L150 239 L149 239 L148 238 L146 238 L145 237 L126 237 L125 238 L122 238 L121 239 L120 239 L119 240 L118 240 L115 243 L113 243 L112 244 L111 244 L110 245 L107 245 L106 246 L105 246 L104 247 L103 247 L96 254 L96 255 L90 261 L90 262 L88 264 L88 265 L87 266 L87 268 L86 269 L86 270 L85 271 L85 272 L83 274 L83 275 L79 279 L79 280 L78 281 L78 283 L77 284 L77 287 L76 288 L76 291 L75 292 L75 295 L74 296 L74 302 L73 303 L73 311 L72 312 L72 314 L71 315 L71 330 L70 331 L70 335 L69 336 L69 337 L71 339 L72 339 L73 338 L74 338 L75 337 L76 337 L77 336 L78 336 L79 335 L80 335 L81 334 L82 334 L83 333 L84 333 L85 332 L86 332 L87 331 L88 331 L89 330 L90 330 L91 329 L92 329 L93 328 L96 328 L97 329 L97 330 L98 331 L98 339 L99 340 L99 350 L100 351 L100 357 L101 358 L101 364 L102 365 L102 369 L103 370 L103 373 L104 374 L104 378 L105 379 L105 384 L106 385 L106 391 L107 392 L107 394 L108 395 L108 396 L109 397 L109 400 L110 401 L110 404 L111 405 L111 408 L112 409 L112 411 L113 412 L113 416 L114 417 L114 419 L115 420 L115 423 L116 424 L116 427 L117 428 L117 429 L118 430 L118 431 L119 432 L119 434 L120 435 L120 436 L121 437 L121 438 L122 439 L122 442 L123 443 L121 445 L120 445 L119 446 L118 446 L115 449 L115 450 L114 451 L114 453 L115 454 L115 459 L116 460 L116 462 L117 463 L117 464 L119 466 L119 467 L122 470 L122 471 L127 476 L128 476 L130 478 L131 478 L133 480 L134 480 L135 481 L136 481 L137 482 L138 482 L139 483 L141 483 L142 484 L143 484 L144 485 L145 485 L146 486 L148 486 L149 487 L151 487 L152 488 L155 488 L156 489 L158 489 L159 490 L164 490 L165 491 L168 491 L169 492 L173 492 L174 493 L222 493 L223 492 L233 492 L234 491 L242 491 L243 490 L248 490 L249 489 L252 489 L253 488 L256 488 L257 487 L260 487 L261 486 L263 486 L264 485 L265 485 L266 484 L267 484 L268 483 L269 483 L270 482 L271 482 L273 480 L274 480 L275 479 L276 479 L281 474 L282 474 L286 470 L286 469 L289 466 L289 465 L290 464 L290 463 L291 462 L291 461 L292 460 L292 459 L293 458 L293 455 L294 454 L294 452 L293 451 L293 449 L292 448 L292 446 L290 444 L290 443 L288 441 L288 438 L289 437 L289 433 L290 432 L290 423 L291 422 L291 419 L293 417 L293 414 L294 413 L294 409 L295 408 L295 404 L296 403 L296 400 L297 399 L297 394 L298 393 L298 389 L299 388 L299 385 L300 384 L300 377 L301 376 L301 370 L302 369 L302 366 L303 365 L303 362 L304 361 L304 356 L305 355 L305 350 L306 349 L306 341 L307 340 L307 313 L306 312 L306 308 L305 307 L305 305 L306 304 L308 304 L309 305 L310 305 L311 306 L313 306 L314 307 L315 307 L316 308 L318 308 L319 309 L322 309 L323 310 L324 310 L325 311 L328 311 L329 312 L331 312 L332 313 L333 313 L334 314 L336 314 L337 315 L338 315 L339 316 L343 316 L344 317 L346 317 L346 316 L347 315 L346 314 L346 308 L345 307 L345 303 L344 302 L344 299 L343 298 L343 294 L342 293 L342 290 L341 289 L341 286 L340 285 L340 281 L339 280 L339 277 L338 276 L338 273 L337 272 L337 271 L336 270 L335 270 L334 269 L334 268 L333 267 L333 265 L332 264 L332 260 L331 259 L331 258 L330 257 L330 255 L329 254 L329 253 L328 252 L328 251 L324 247 L323 247 L320 244 L319 244 L318 243 L318 242 L319 241 L322 241 L323 240 L325 240 L327 238 L328 238 L329 237 L330 237 L331 236 L332 236 L333 235 L335 235 L336 234 L337 234 L338 233 L340 233 L341 232 L342 232 L343 231 L344 231 L345 230 L346 230 L347 229 L348 229 L349 228 L350 228 L352 226 L353 226 L354 225 L355 225 L356 224 L357 224 L358 223 L359 223 L361 221 L362 221 L364 219 L365 219 L367 217 L368 217 L371 214 L372 214 L373 213 L374 213 L375 212 L378 212 L379 211 L382 211 L383 210 L385 210 L385 209 L386 208 L386 206 L385 205 L384 205 L382 203 L381 203 L380 202 L379 202 L378 201 L377 201 L376 200 L375 200 L374 199 L373 199 L372 198 L371 198 L370 197 L369 197 L368 196 L367 196 L366 195 L365 195 L364 194 L363 194 L361 192 L360 192 L357 189 L357 188 L356 188 L355 187 L354 187 L353 186 L352 186 L351 185 L350 185 L349 184 L348 184 L347 183 L346 183 L345 182 L342 182 L341 181 L335 181 L334 180 L313 180 L312 181 L303 181 L302 182 L300 182 L299 183 L297 183 L296 184 L294 184 L293 185 L292 185 L290 187 L289 187 L288 188 L287 188 L286 189 L285 189 L284 190 L283 190 L282 191 L281 191 L280 192 L279 192 L277 194 L276 194 L275 195 L274 195 L272 197 L271 197 L264 204 L263 204 L262 205 L261 205 L260 206 L259 206 L257 204 L256 204 L252 200 L252 199 L253 198 L258 198 L259 197 L260 197 L261 196 L262 196 L264 194 L265 194 L268 191 L269 191 L273 187 L274 187 L276 185 L277 185 L278 184 L279 184 L280 183 L281 183 L282 182 L283 182 L285 180 L285 179 L289 175 L289 174 L292 171 L292 170 L300 162 L300 161 L304 157 L305 157 L306 156 L313 156 L314 155 L318 155 L319 154 L321 154 L322 153 L323 153 L324 152 L326 152 L327 151 L328 151 L329 150 L331 150 L332 149 L333 149 L334 148 L336 148 L337 147 L338 147 L339 146 L340 146 L341 145 L342 145 L349 138 L350 138 L351 137 L352 137 L353 136 L371 136 L372 137 L377 137 L378 136 L378 135 L375 132 L375 131 L371 127 L371 126 L370 126 L368 124 L367 124 L366 123 L354 123 L353 124 L335 124 L334 123 L323 123 L322 122 L310 122 L309 123 L307 123 L306 124 L304 124 L303 125 L302 125 L300 127 L299 127 L294 132 L293 132 L291 134 L290 134 L289 135 L288 135 L287 136 L286 136 L285 137 L283 137 L282 138 L278 138 L277 139 L274 139 L273 140 L272 140 L271 139 L271 137 L275 133 L276 133 L277 132 L278 132 L283 127 L283 126 L284 125 L284 124 L285 123 L285 122 L286 121 L286 120 L287 119 L287 116 L288 115 L288 114 L289 113 L289 112 L290 111 L290 110 L291 109 L291 108 L292 107 L292 103 L293 102 L293 99 L294 98 L294 94 L295 93 L295 88 L296 87 L296 85 L297 84 L297 83 L298 82 L298 81 L299 80 L299 79 L301 77 L301 76 L304 73 L304 72 L306 70 L306 69 L309 66 L309 65 L310 64 L309 63 L296 63 L295 64 L294 64 L293 65 L291 65 L290 66 L289 66 L288 67 L286 67 L285 68 L283 68 L282 69 L281 69 L280 68 L276 68 L275 69 L272 69 L271 70 L270 70 L268 72 L266 72 L264 74 L263 74 L262 75 L261 75 L260 76 L259 76 L258 77 L257 77 L256 78 L255 78 L254 79 L253 79 L252 80 L251 80 L250 81 L249 81 L248 82 L247 82 L246 83 L245 83 L244 84 L242 84 L240 82 L240 62 L239 61 L239 60 L237 58 L237 55 L236 54 L236 49 L235 48 L235 38 L234 37 L234 30 L235 29 L235 24 L236 23 L236 21 L242 15 L242 14 L241 13 L237 13 Z " fill="black"/></svg>