<svg width="619" height="625" xmlns="http://www.w3.org/2000/svg"><path d="M82 10 L81 11 L77 11 L76 12 L73 12 L72 13 L70 13 L69 14 L68 14 L67 15 L66 15 L65 16 L64 16 L63 17 L62 17 L59 20 L58 20 L55 23 L54 23 L43 34 L43 35 L41 37 L41 38 L39 40 L39 41 L37 43 L37 44 L36 45 L36 46 L35 47 L35 48 L34 49 L34 50 L33 51 L33 52 L32 53 L32 54 L31 55 L31 56 L30 57 L30 58 L29 59 L29 60 L28 61 L28 62 L27 63 L27 65 L26 66 L26 68 L25 69 L25 70 L24 71 L24 73 L23 74 L23 77 L22 78 L22 80 L21 81 L21 84 L20 85 L20 88 L19 89 L19 91 L18 92 L18 95 L17 96 L17 99 L16 100 L16 104 L15 105 L15 109 L14 110 L14 115 L13 116 L13 123 L12 124 L12 132 L11 133 L11 158 L12 159 L12 166 L13 167 L13 173 L14 174 L14 178 L15 179 L15 182 L16 183 L16 186 L17 187 L17 190 L18 191 L18 193 L19 194 L19 196 L20 197 L20 199 L21 200 L21 201 L22 202 L22 203 L23 204 L23 205 L24 206 L24 207 L25 208 L25 209 L27 211 L27 212 L30 215 L30 216 L36 222 L37 222 L39 224 L40 224 L42 226 L43 226 L44 227 L45 227 L46 228 L47 228 L48 229 L49 229 L50 230 L52 230 L53 231 L56 231 L57 232 L58 232 L59 233 L62 233 L63 234 L66 234 L67 235 L71 235 L72 236 L76 236 L77 237 L81 237 L82 238 L86 238 L87 239 L92 239 L93 240 L98 240 L99 241 L110 241 L111 240 L115 240 L116 239 L117 239 L118 238 L119 238 L120 237 L123 237 L124 238 L127 238 L128 239 L132 239 L133 240 L138 240 L139 241 L145 241 L146 242 L153 242 L154 243 L184 243 L185 242 L187 242 L188 241 L190 241 L191 240 L193 240 L194 239 L196 239 L197 238 L198 238 L199 237 L200 237 L201 236 L202 236 L203 235 L204 235 L205 234 L206 234 L208 232 L209 232 L211 230 L212 230 L215 227 L216 227 L220 223 L221 223 L225 219 L226 219 L228 217 L229 217 L231 215 L240 215 L244 219 L245 219 L248 222 L248 223 L250 225 L250 228 L252 230 L253 230 L254 231 L255 231 L257 233 L257 234 L259 236 L259 237 L260 238 L260 240 L261 241 L261 242 L262 243 L262 244 L263 245 L263 247 L264 248 L264 249 L265 250 L265 251 L266 252 L266 253 L267 254 L267 256 L268 257 L268 260 L269 261 L269 265 L270 266 L270 290 L269 291 L269 297 L270 298 L270 301 L271 302 L271 303 L272 304 L272 305 L273 306 L273 307 L275 309 L275 310 L280 315 L280 316 L283 319 L283 320 L284 321 L284 322 L285 323 L285 324 L286 325 L286 328 L287 329 L287 332 L288 333 L288 337 L289 338 L289 339 L288 340 L288 346 L287 347 L287 352 L286 353 L286 361 L285 362 L285 369 L284 370 L284 385 L285 386 L285 390 L286 391 L286 392 L287 393 L287 394 L288 395 L288 396 L294 402 L294 403 L295 404 L295 405 L296 406 L296 407 L297 408 L297 409 L298 410 L298 411 L299 412 L299 413 L300 414 L300 415 L301 416 L301 418 L302 419 L302 421 L303 422 L303 425 L304 426 L304 427 L305 428 L305 431 L306 432 L306 443 L305 444 L305 448 L304 449 L304 452 L303 453 L303 457 L302 458 L302 469 L303 470 L303 473 L304 474 L304 475 L305 476 L305 477 L306 478 L306 480 L307 481 L307 482 L308 483 L308 484 L309 485 L309 486 L310 487 L310 488 L312 490 L312 491 L313 492 L313 493 L314 494 L314 495 L315 496 L315 497 L316 498 L316 499 L318 501 L318 502 L319 503 L319 505 L320 506 L320 526 L319 527 L319 532 L318 533 L318 535 L317 536 L317 537 L316 538 L316 541 L315 542 L315 545 L314 546 L314 567 L315 568 L315 572 L316 573 L316 575 L317 576 L317 578 L318 579 L318 580 L319 581 L319 583 L320 584 L320 585 L321 586 L321 587 L322 588 L322 589 L323 590 L323 591 L324 592 L324 593 L325 594 L325 595 L326 596 L326 597 L328 599 L328 600 L330 602 L330 603 L335 608 L336 608 L337 609 L338 609 L339 610 L341 610 L342 611 L345 611 L346 612 L350 612 L351 613 L358 613 L359 614 L376 614 L377 613 L387 613 L388 612 L396 612 L397 611 L402 611 L403 610 L406 610 L407 609 L411 609 L412 608 L416 608 L417 607 L420 607 L421 606 L423 606 L424 605 L427 605 L428 604 L430 604 L431 603 L433 603 L434 602 L437 602 L438 601 L440 601 L441 600 L443 600 L444 599 L446 599 L447 598 L449 598 L450 597 L451 597 L452 596 L453 596 L454 595 L455 595 L456 594 L458 594 L460 592 L462 592 L464 590 L465 590 L466 589 L467 589 L469 587 L470 587 L476 581 L476 580 L478 578 L478 577 L479 576 L479 575 L480 574 L480 568 L481 567 L481 535 L480 534 L480 525 L479 524 L479 519 L478 518 L478 515 L477 514 L477 512 L476 511 L476 509 L475 508 L475 507 L474 506 L474 502 L473 501 L473 498 L472 497 L472 496 L471 495 L471 492 L470 491 L470 487 L469 486 L469 483 L468 482 L468 476 L467 475 L467 470 L466 469 L466 468 L465 467 L465 463 L464 462 L464 457 L463 456 L463 453 L462 452 L462 448 L461 447 L461 444 L460 443 L460 439 L459 438 L459 435 L458 434 L458 431 L457 430 L457 427 L456 426 L456 423 L455 422 L455 419 L454 418 L454 415 L453 414 L453 412 L452 411 L452 410 L451 409 L451 406 L450 405 L450 403 L449 402 L449 400 L448 399 L448 397 L447 396 L447 394 L446 393 L446 392 L445 391 L445 390 L444 389 L444 387 L443 386 L443 384 L442 383 L442 379 L440 377 L440 376 L438 374 L438 372 L437 371 L437 368 L436 367 L436 366 L435 365 L435 364 L434 363 L434 362 L433 361 L433 359 L432 358 L432 356 L431 355 L431 353 L430 352 L430 350 L429 349 L429 348 L428 347 L428 346 L427 345 L427 344 L426 343 L426 342 L425 341 L425 338 L424 337 L424 335 L423 334 L423 331 L422 330 L422 329 L421 328 L421 326 L419 324 L419 323 L418 322 L418 321 L417 320 L417 317 L416 316 L416 311 L417 310 L417 308 L419 306 L422 309 L423 309 L456 342 L456 343 L463 350 L463 351 L468 356 L468 357 L472 361 L472 362 L476 366 L476 367 L479 370 L479 371 L481 373 L481 374 L484 377 L484 378 L485 379 L485 380 L487 382 L487 383 L489 385 L489 386 L491 388 L491 389 L493 391 L493 392 L494 393 L494 394 L496 396 L496 397 L497 398 L497 399 L499 401 L499 402 L500 403 L500 404 L501 405 L501 406 L502 407 L502 408 L503 409 L503 410 L504 411 L504 412 L505 413 L505 414 L506 415 L506 416 L507 417 L507 418 L508 419 L508 420 L509 421 L509 422 L510 423 L510 425 L511 426 L511 427 L512 428 L512 429 L513 430 L513 432 L514 433 L514 434 L515 435 L515 436 L516 437 L516 439 L517 440 L517 442 L518 443 L518 444 L519 445 L519 447 L520 448 L520 450 L521 451 L521 452 L522 453 L522 455 L523 456 L523 458 L524 459 L524 461 L525 462 L525 464 L526 465 L526 468 L527 469 L527 471 L528 472 L528 474 L529 475 L529 477 L530 478 L530 479 L531 480 L531 482 L532 483 L532 484 L533 485 L533 487 L534 488 L534 489 L535 490 L535 491 L537 493 L537 494 L539 496 L539 497 L544 502 L544 503 L549 508 L550 508 L554 512 L555 512 L556 513 L557 513 L558 514 L559 514 L560 515 L561 515 L562 516 L564 516 L565 517 L580 517 L581 516 L583 516 L584 515 L585 515 L586 514 L587 514 L588 513 L589 513 L597 505 L597 504 L599 502 L599 501 L600 500 L600 499 L602 497 L602 496 L603 495 L603 493 L604 492 L604 490 L605 489 L605 486 L606 485 L606 481 L607 480 L607 471 L608 470 L608 464 L607 463 L607 457 L606 456 L606 453 L605 452 L605 449 L604 448 L604 446 L603 445 L603 443 L602 442 L602 440 L601 439 L601 437 L600 436 L600 435 L599 434 L599 432 L598 431 L598 430 L597 429 L597 427 L596 426 L596 425 L595 424 L595 423 L594 422 L594 421 L593 420 L593 419 L592 418 L592 417 L591 416 L591 415 L589 413 L589 412 L588 411 L588 410 L586 408 L586 407 L584 405 L584 404 L583 403 L583 402 L581 400 L581 399 L579 397 L579 396 L578 395 L578 394 L575 391 L575 390 L573 388 L573 387 L570 384 L570 383 L567 380 L567 379 L564 376 L564 375 L561 372 L561 371 L557 367 L557 366 L552 361 L552 360 L546 354 L546 353 L540 347 L540 346 L524 330 L524 329 L513 318 L513 317 L508 312 L508 311 L503 306 L503 305 L496 298 L496 297 L494 295 L494 294 L493 293 L493 292 L492 291 L492 290 L491 289 L491 287 L490 286 L490 284 L489 283 L489 281 L490 280 L490 279 L487 276 L487 274 L486 273 L486 262 L487 261 L487 257 L488 256 L488 254 L489 253 L489 251 L490 250 L490 249 L491 248 L491 247 L501 237 L502 237 L504 235 L505 235 L507 233 L508 233 L510 231 L511 231 L515 227 L515 226 L516 225 L516 220 L515 219 L515 217 L514 216 L514 215 L513 214 L513 213 L512 212 L511 212 L509 210 L505 210 L504 209 L494 209 L493 210 L476 210 L475 209 L472 209 L470 207 L471 206 L476 206 L477 205 L478 205 L479 204 L480 204 L481 203 L482 203 L487 198 L487 197 L490 194 L490 193 L492 191 L492 190 L493 189 L493 187 L494 186 L494 180 L495 179 L495 172 L494 171 L494 165 L493 164 L493 162 L492 161 L492 160 L491 159 L491 158 L490 157 L489 157 L486 154 L485 154 L484 153 L483 153 L481 151 L479 151 L478 150 L476 150 L474 148 L473 148 L472 147 L471 147 L470 146 L468 146 L467 145 L463 145 L462 144 L455 144 L453 142 L453 141 L452 140 L452 139 L451 138 L451 137 L448 134 L448 133 L444 129 L444 128 L439 123 L438 123 L437 122 L436 122 L435 121 L432 121 L431 120 L424 120 L423 119 L419 119 L418 118 L418 116 L417 115 L417 114 L416 113 L416 112 L415 111 L415 110 L413 108 L413 107 L408 102 L407 102 L406 101 L403 101 L402 100 L399 100 L398 101 L395 101 L394 102 L393 102 L392 103 L391 103 L382 112 L381 112 L380 111 L376 111 L375 110 L373 110 L372 109 L369 109 L368 108 L365 108 L364 107 L361 107 L360 106 L356 106 L355 105 L352 105 L351 104 L348 104 L347 103 L343 103 L342 102 L338 102 L337 101 L333 101 L332 100 L328 100 L327 99 L323 99 L322 98 L318 98 L317 97 L314 97 L313 96 L309 96 L308 95 L303 95 L302 94 L297 94 L296 93 L292 93 L291 92 L287 92 L286 91 L282 91 L281 90 L277 90 L276 89 L272 89 L271 88 L264 88 L263 87 L257 87 L256 86 L255 86 L254 85 L253 85 L246 78 L246 77 L244 75 L244 74 L242 72 L242 71 L240 69 L240 68 L238 66 L238 65 L235 62 L235 61 L231 57 L231 56 L221 46 L220 46 L217 43 L216 43 L214 41 L213 41 L211 39 L210 39 L208 37 L207 37 L206 36 L205 36 L204 35 L202 35 L201 34 L199 34 L198 33 L196 33 L195 32 L192 32 L191 31 L189 31 L188 30 L185 30 L184 29 L180 29 L179 28 L174 28 L173 27 L166 27 L165 26 L160 26 L159 25 L156 25 L155 24 L154 24 L153 23 L152 23 L150 21 L149 21 L148 20 L147 20 L146 19 L145 19 L143 17 L141 17 L140 16 L138 16 L137 15 L134 15 L133 14 L129 14 L128 13 L122 13 L121 12 L113 12 L112 11 L99 11 L98 10 L93 10 L92 11 L91 10 Z " fill="black"/></svg>