<svg width="334" height="391" xmlns="http://www.w3.org/2000/svg"><path d="M164 11 L160 15 L160 16 L157 19 L157 20 L156 21 L156 22 L155 23 L155 24 L154 25 L154 26 L152 28 L152 29 L149 32 L149 33 L147 35 L144 32 L143 32 L142 31 L141 31 L140 30 L139 31 L138 31 L137 32 L137 33 L136 34 L136 37 L135 38 L135 39 L134 40 L133 40 L131 38 L130 38 L126 34 L125 34 L114 23 L113 23 L111 25 L111 26 L110 27 L110 28 L109 29 L109 30 L108 31 L108 32 L107 33 L107 37 L106 38 L106 46 L107 47 L107 62 L108 63 L108 64 L107 65 L106 65 L98 57 L97 57 L94 54 L93 54 L92 53 L91 53 L88 50 L87 50 L83 46 L81 46 L80 45 L79 45 L78 44 L73 44 L72 45 L72 46 L71 47 L71 56 L72 57 L72 64 L73 65 L73 70 L74 71 L74 74 L75 75 L75 77 L76 78 L76 80 L77 81 L77 84 L78 85 L78 87 L79 88 L79 90 L80 91 L80 93 L81 94 L81 95 L82 96 L82 97 L83 98 L83 99 L82 100 L81 100 L80 99 L78 99 L77 98 L76 98 L75 97 L73 97 L72 96 L69 96 L68 95 L67 95 L66 94 L64 94 L63 93 L62 93 L61 92 L60 92 L59 91 L57 91 L56 90 L55 90 L54 89 L50 89 L49 88 L47 88 L46 89 L45 89 L44 90 L44 96 L45 97 L45 99 L46 100 L46 101 L48 103 L48 104 L50 106 L50 107 L51 108 L51 110 L53 112 L53 114 L54 115 L54 117 L55 118 L55 120 L56 121 L56 122 L57 123 L57 124 L60 127 L60 128 L67 135 L65 137 L60 137 L59 138 L53 138 L52 139 L47 139 L46 140 L45 140 L44 141 L43 141 L42 142 L42 145 L43 146 L43 147 L52 156 L53 156 L58 161 L59 161 L64 166 L64 169 L62 171 L62 172 L59 175 L59 176 L58 177 L58 178 L56 180 L56 181 L55 182 L55 183 L54 184 L54 185 L53 186 L53 187 L52 188 L52 189 L51 190 L51 191 L50 192 L50 193 L49 194 L49 195 L47 197 L47 199 L46 200 L46 201 L45 202 L45 203 L44 204 L44 206 L43 207 L43 208 L42 209 L42 210 L40 212 L40 213 L38 215 L38 216 L36 218 L36 219 L35 220 L35 221 L34 222 L34 223 L33 224 L33 225 L32 226 L32 228 L31 229 L31 230 L30 231 L30 232 L29 233 L29 234 L27 236 L27 237 L25 239 L25 240 L24 241 L24 242 L23 243 L23 244 L22 245 L22 246 L21 247 L21 248 L20 249 L20 250 L19 251 L19 252 L18 253 L18 254 L17 255 L17 256 L13 260 L13 261 L12 262 L12 263 L11 264 L11 271 L12 272 L12 273 L13 274 L13 275 L14 276 L14 278 L15 279 L15 280 L16 281 L16 282 L17 283 L17 284 L19 286 L19 287 L21 289 L21 290 L23 292 L23 293 L25 295 L25 296 L27 298 L27 299 L28 300 L28 301 L30 303 L30 304 L32 306 L32 307 L34 309 L34 310 L36 312 L36 313 L38 315 L38 316 L40 318 L40 319 L43 322 L43 323 L46 326 L46 327 L50 331 L50 332 L53 335 L53 336 L56 339 L56 340 L59 343 L59 344 L61 346 L61 347 L63 349 L63 350 L64 350 L65 351 L66 351 L67 352 L68 352 L70 354 L71 354 L73 356 L74 356 L76 358 L77 358 L79 360 L80 360 L81 361 L82 361 L83 362 L85 362 L86 363 L87 363 L88 364 L89 364 L90 365 L91 365 L92 366 L93 366 L94 367 L95 367 L96 368 L97 368 L98 369 L99 369 L101 371 L102 371 L103 372 L104 372 L105 373 L106 373 L107 374 L108 374 L110 376 L112 376 L113 377 L129 377 L130 378 L151 378 L152 379 L161 379 L162 378 L172 378 L173 379 L178 379 L179 378 L187 378 L188 379 L191 379 L192 378 L201 378 L202 377 L215 377 L216 378 L218 378 L219 377 L220 377 L221 376 L222 376 L223 375 L225 375 L226 374 L227 374 L228 373 L230 373 L232 371 L233 371 L234 370 L235 370 L236 369 L237 369 L238 368 L239 368 L240 367 L241 367 L243 365 L244 365 L245 364 L246 364 L247 363 L248 363 L249 362 L250 362 L251 361 L252 361 L253 360 L254 360 L256 358 L257 358 L258 357 L259 357 L261 355 L262 355 L264 353 L265 353 L269 349 L270 349 L270 348 L273 345 L273 344 L277 340 L277 339 L280 336 L280 335 L282 333 L282 332 L285 329 L285 328 L287 326 L287 325 L289 323 L289 322 L291 320 L291 319 L293 317 L293 316 L295 314 L295 313 L296 312 L296 311 L297 310 L297 309 L299 307 L299 306 L300 305 L300 304 L302 302 L302 301 L304 299 L304 298 L306 296 L306 295 L308 293 L308 292 L309 291 L309 290 L311 288 L311 287 L312 286 L312 285 L314 283 L314 282 L315 281 L315 280 L316 279 L316 278 L317 277 L317 276 L319 274 L319 273 L320 272 L320 271 L321 270 L321 269 L322 268 L322 263 L321 262 L321 261 L320 260 L320 259 L319 258 L319 257 L317 255 L317 254 L316 253 L316 252 L315 251 L315 250 L314 249 L314 248 L313 247 L313 245 L311 243 L311 241 L310 240 L310 239 L308 237 L308 236 L307 235 L307 234 L305 232 L305 231 L304 230 L304 229 L302 227 L302 226 L301 225 L301 224 L300 223 L300 222 L299 221 L299 220 L298 219 L298 218 L296 216 L296 215 L295 214 L295 213 L294 212 L294 211 L293 210 L293 209 L292 208 L292 207 L291 206 L291 205 L289 203 L289 202 L288 201 L288 200 L287 199 L287 198 L286 197 L286 196 L285 195 L285 194 L284 193 L284 191 L283 190 L283 189 L282 188 L282 187 L281 186 L281 185 L280 184 L280 183 L279 182 L279 181 L278 180 L278 178 L277 177 L277 176 L276 175 L276 174 L275 173 L275 172 L274 171 L274 170 L273 169 L273 168 L272 167 L272 166 L271 165 L271 163 L277 157 L278 157 L285 150 L286 150 L286 149 L294 141 L294 140 L297 137 L297 136 L298 135 L298 133 L297 132 L297 131 L296 131 L295 130 L288 130 L287 131 L283 131 L282 132 L279 132 L278 131 L278 130 L280 128 L280 127 L281 126 L281 125 L283 123 L283 122 L284 121 L284 120 L285 119 L285 117 L286 116 L286 115 L287 114 L287 113 L288 112 L288 111 L289 110 L289 108 L290 107 L290 106 L291 105 L291 104 L292 103 L292 102 L296 98 L296 97 L297 96 L297 90 L292 90 L291 91 L290 91 L289 92 L288 92 L287 93 L286 93 L285 94 L284 94 L283 95 L282 95 L281 96 L279 96 L278 97 L275 97 L274 98 L270 98 L269 99 L265 99 L264 100 L263 100 L262 101 L261 101 L259 103 L258 102 L258 100 L260 98 L260 96 L261 95 L261 94 L263 92 L263 90 L264 89 L264 88 L266 86 L266 85 L267 84 L267 83 L268 82 L268 81 L270 79 L270 78 L271 77 L271 76 L273 74 L273 73 L274 72 L274 71 L275 70 L275 69 L276 68 L276 66 L277 65 L277 64 L276 63 L276 62 L272 62 L271 63 L270 63 L269 64 L266 64 L265 65 L264 65 L263 66 L262 66 L261 67 L259 67 L258 68 L257 68 L256 67 L256 64 L257 63 L257 53 L258 52 L258 41 L257 40 L257 38 L256 37 L256 36 L252 36 L249 39 L248 39 L244 43 L243 43 L241 45 L240 45 L237 48 L236 48 L234 50 L233 50 L228 55 L225 52 L225 51 L224 50 L224 48 L223 47 L223 46 L222 45 L222 44 L221 43 L221 42 L220 41 L220 40 L219 39 L219 38 L218 37 L218 36 L217 35 L217 34 L216 33 L216 32 L215 31 L215 30 L214 29 L214 28 L213 27 L213 26 L212 25 L212 24 L208 20 L207 20 L201 26 L200 26 L198 28 L196 28 L195 27 L194 27 L193 28 L192 28 L189 31 L189 32 L188 33 L187 33 L186 32 L186 31 L183 28 L183 27 L167 11 Z " fill="black"/></svg>