<svg width="640" height="560" xmlns="http://www.w3.org/2000/svg"><path d="M467 11 L466 12 L465 12 L464 13 L462 13 L461 14 L460 14 L458 16 L457 16 L451 22 L451 23 L450 24 L450 25 L449 26 L449 39 L450 40 L450 45 L451 46 L451 51 L452 52 L452 55 L453 56 L453 57 L452 58 L450 58 L449 57 L447 57 L446 56 L443 56 L442 55 L440 55 L439 54 L437 54 L436 53 L434 53 L433 52 L431 52 L430 51 L427 51 L426 50 L423 50 L422 49 L410 49 L409 50 L404 50 L403 51 L399 51 L398 52 L394 52 L393 53 L389 53 L388 54 L384 54 L383 55 L379 55 L378 56 L373 56 L372 57 L367 57 L366 58 L362 58 L361 59 L357 59 L356 60 L351 60 L350 61 L346 61 L345 62 L342 62 L341 63 L337 63 L336 64 L332 64 L331 65 L327 65 L326 66 L322 66 L321 67 L316 67 L315 68 L310 68 L309 69 L306 69 L305 70 L301 70 L300 71 L296 71 L295 72 L291 72 L290 73 L285 73 L284 74 L279 74 L278 75 L275 75 L274 76 L270 76 L269 77 L264 77 L263 78 L260 78 L259 79 L255 79 L254 80 L250 80 L249 81 L245 81 L244 82 L241 82 L240 83 L235 83 L234 84 L230 84 L229 85 L226 85 L225 86 L220 86 L219 87 L215 87 L214 88 L211 88 L210 89 L205 89 L204 90 L200 90 L199 91 L195 91 L194 92 L189 92 L188 93 L184 93 L183 94 L179 94 L178 95 L174 95 L173 96 L169 96 L168 97 L163 97 L162 98 L159 98 L158 99 L154 99 L153 100 L148 100 L147 101 L144 101 L143 102 L139 102 L138 103 L134 103 L133 104 L131 104 L130 105 L127 105 L126 106 L123 106 L122 107 L119 107 L118 108 L116 108 L115 109 L114 109 L112 111 L112 112 L111 113 L111 119 L110 120 L110 122 L109 123 L107 123 L106 122 L103 122 L102 121 L99 121 L98 120 L96 120 L95 119 L93 119 L92 118 L91 118 L90 117 L89 117 L88 116 L87 116 L86 115 L85 115 L84 114 L83 114 L82 113 L81 113 L80 112 L79 112 L76 109 L75 109 L73 107 L72 107 L69 104 L68 104 L67 103 L66 103 L64 101 L63 101 L61 99 L60 99 L59 98 L58 98 L56 96 L55 96 L53 94 L52 94 L51 93 L50 93 L49 92 L48 92 L47 91 L46 91 L45 90 L42 90 L41 89 L35 89 L34 88 L30 88 L29 89 L26 89 L25 90 L23 90 L22 91 L21 91 L19 93 L18 93 L17 94 L17 95 L15 97 L15 98 L14 99 L14 100 L13 101 L13 103 L12 104 L12 106 L11 107 L11 114 L12 115 L12 121 L13 122 L13 127 L14 128 L14 132 L15 133 L15 137 L16 138 L16 142 L17 143 L17 147 L18 148 L18 152 L19 153 L19 156 L20 157 L20 160 L21 161 L21 166 L22 167 L22 170 L23 171 L23 175 L24 176 L24 180 L25 181 L25 184 L26 185 L26 188 L27 189 L27 193 L28 194 L28 197 L29 198 L29 201 L30 202 L30 354 L31 355 L31 359 L30 360 L30 364 L29 365 L29 368 L28 369 L28 372 L27 373 L27 377 L26 378 L26 381 L25 382 L25 385 L24 386 L24 389 L23 390 L23 393 L22 394 L22 397 L21 398 L21 401 L20 402 L20 405 L19 406 L19 409 L18 410 L18 412 L17 413 L17 416 L16 417 L16 420 L15 421 L15 424 L14 425 L14 429 L13 430 L13 445 L14 446 L14 449 L15 450 L15 451 L16 452 L16 453 L17 454 L17 455 L18 456 L18 457 L21 460 L21 461 L24 464 L25 464 L28 467 L29 467 L30 468 L31 468 L32 469 L33 469 L35 471 L36 471 L37 472 L38 472 L40 474 L41 474 L42 475 L43 475 L45 477 L46 477 L47 478 L48 478 L49 479 L50 479 L51 480 L52 480 L53 481 L54 481 L55 482 L56 482 L57 483 L58 483 L59 484 L60 484 L61 485 L63 485 L64 486 L65 486 L66 487 L67 487 L68 488 L70 488 L71 489 L72 489 L73 490 L74 490 L75 491 L76 491 L77 492 L78 492 L79 493 L80 493 L81 494 L82 494 L85 497 L86 497 L90 501 L91 501 L95 505 L96 505 L102 511 L103 511 L114 522 L115 522 L116 523 L116 524 L117 525 L118 525 L125 532 L126 532 L130 536 L131 536 L134 539 L135 539 L137 541 L138 541 L140 543 L141 543 L143 545 L144 545 L145 546 L146 546 L147 547 L148 547 L149 548 L151 548 L152 549 L157 549 L158 548 L162 548 L163 547 L165 547 L166 546 L167 546 L168 545 L169 545 L170 544 L171 544 L172 543 L173 543 L175 541 L176 541 L180 537 L180 536 L181 535 L181 534 L182 533 L182 530 L183 529 L183 519 L182 518 L182 512 L181 511 L181 507 L180 506 L180 502 L179 501 L179 497 L178 496 L178 493 L177 492 L177 488 L176 487 L176 484 L175 483 L175 478 L174 477 L174 474 L173 473 L173 468 L172 467 L172 464 L171 463 L171 459 L170 458 L170 455 L169 454 L169 451 L168 450 L168 448 L167 447 L167 444 L166 443 L166 440 L165 439 L165 435 L164 434 L164 431 L163 430 L163 426 L162 425 L162 261 L163 260 L163 257 L164 256 L164 254 L165 253 L165 250 L166 249 L166 246 L167 245 L167 243 L168 242 L168 239 L169 238 L169 235 L170 234 L170 231 L171 230 L171 227 L172 226 L172 223 L173 222 L173 220 L174 219 L177 219 L178 218 L180 218 L181 217 L183 217 L184 216 L187 216 L188 215 L191 215 L193 217 L194 217 L195 218 L197 218 L198 219 L199 219 L200 220 L201 220 L202 221 L204 221 L205 222 L206 222 L207 223 L208 223 L209 224 L211 224 L212 225 L213 225 L214 226 L215 226 L216 227 L218 227 L219 228 L221 228 L222 229 L226 229 L227 230 L229 230 L230 229 L236 229 L237 228 L241 228 L242 227 L245 227 L246 226 L249 226 L250 225 L254 225 L255 224 L258 224 L259 223 L262 223 L263 222 L267 222 L268 221 L271 221 L272 220 L275 220 L276 219 L279 219 L280 218 L284 218 L285 217 L288 217 L289 216 L292 216 L293 215 L297 215 L298 214 L301 214 L302 213 L304 213 L305 212 L309 212 L310 211 L313 211 L314 210 L317 210 L318 209 L322 209 L323 208 L327 208 L328 207 L331 207 L332 206 L336 206 L337 205 L340 205 L341 204 L345 204 L346 203 L349 203 L350 202 L353 202 L354 201 L357 201 L358 200 L361 200 L362 199 L366 199 L367 198 L371 198 L372 197 L375 197 L376 196 L380 196 L381 195 L384 195 L385 194 L389 194 L390 193 L393 193 L394 192 L398 192 L399 191 L402 191 L403 190 L406 190 L407 189 L410 189 L411 188 L414 188 L415 187 L419 187 L420 186 L423 186 L424 185 L428 185 L429 184 L432 184 L433 183 L436 183 L437 182 L441 182 L442 181 L444 181 L445 180 L448 180 L449 179 L452 179 L453 178 L457 178 L458 177 L460 177 L461 176 L463 176 L464 177 L464 190 L465 191 L465 223 L464 224 L464 268 L463 269 L463 272 L462 273 L462 275 L461 276 L461 279 L460 280 L460 283 L459 284 L459 286 L458 287 L458 290 L457 291 L457 293 L456 294 L456 296 L455 297 L455 300 L454 301 L454 304 L453 305 L453 307 L452 308 L452 310 L451 311 L451 314 L450 315 L450 319 L449 320 L449 323 L448 324 L448 329 L447 330 L447 338 L446 339 L446 343 L447 344 L447 349 L448 350 L448 351 L449 352 L449 353 L454 358 L454 359 L455 360 L456 360 L459 363 L460 363 L462 365 L463 365 L464 366 L465 366 L466 367 L467 367 L468 368 L469 368 L470 369 L472 369 L473 370 L475 370 L476 371 L478 371 L479 372 L481 372 L482 373 L485 373 L486 374 L488 374 L489 375 L492 375 L493 376 L497 376 L498 377 L501 377 L502 378 L505 378 L506 379 L508 379 L509 380 L512 380 L513 381 L514 381 L515 382 L516 382 L517 383 L519 383 L520 384 L521 384 L522 385 L523 385 L524 386 L525 386 L526 387 L527 387 L528 388 L529 388 L530 389 L531 389 L533 391 L534 391 L536 393 L537 393 L538 394 L539 394 L541 396 L542 396 L544 398 L545 398 L546 399 L547 399 L549 401 L550 401 L552 403 L553 403 L555 405 L556 405 L557 406 L558 406 L560 408 L561 408 L562 409 L563 409 L566 412 L567 412 L569 414 L570 414 L572 416 L573 416 L574 417 L575 417 L577 419 L578 419 L579 420 L580 420 L581 421 L582 421 L583 422 L584 422 L585 423 L586 423 L588 425 L589 425 L590 426 L591 426 L593 428 L594 428 L595 429 L604 429 L605 428 L607 428 L608 427 L609 427 L610 426 L611 426 L612 425 L613 425 L615 423 L616 423 L619 420 L620 420 L621 419 L621 418 L622 417 L622 416 L623 415 L623 412 L624 411 L624 400 L623 399 L623 395 L622 394 L622 391 L621 390 L621 388 L620 387 L620 384 L619 383 L619 379 L618 378 L618 375 L617 374 L617 371 L616 370 L616 367 L615 366 L615 363 L614 362 L614 359 L613 358 L613 355 L612 354 L612 350 L611 349 L611 346 L610 345 L610 341 L609 340 L609 336 L608 335 L608 332 L607 331 L607 328 L606 327 L606 324 L605 323 L605 319 L604 318 L604 315 L603 314 L603 272 L604 271 L604 269 L603 268 L604 267 L603 266 L603 262 L604 261 L604 166 L605 165 L605 163 L606 162 L606 160 L607 159 L607 158 L608 157 L608 155 L609 154 L609 152 L610 151 L610 148 L611 147 L611 145 L612 144 L612 142 L613 141 L613 139 L614 138 L614 135 L615 134 L615 132 L616 131 L616 129 L617 128 L617 125 L618 124 L618 122 L619 121 L619 119 L620 118 L620 115 L621 114 L621 111 L622 110 L622 107 L623 106 L623 102 L624 101 L624 99 L625 98 L625 94 L626 93 L626 90 L627 89 L627 86 L628 85 L628 79 L629 78 L629 74 L628 73 L628 69 L627 68 L627 67 L626 66 L626 64 L625 63 L625 62 L623 60 L623 59 L620 56 L619 56 L617 54 L616 54 L614 52 L612 52 L611 51 L610 51 L609 50 L607 50 L606 49 L604 49 L603 48 L599 48 L598 47 L593 47 L592 46 L588 46 L587 45 L582 45 L581 44 L575 44 L574 43 L568 43 L567 42 L561 42 L560 41 L554 41 L553 40 L548 40 L547 39 L544 39 L543 38 L541 38 L540 37 L537 37 L536 36 L535 36 L534 35 L532 35 L531 34 L530 34 L529 33 L528 33 L527 32 L526 32 L525 31 L524 31 L523 30 L521 30 L520 29 L519 29 L518 28 L517 28 L516 27 L515 27 L514 26 L513 26 L512 25 L511 25 L510 24 L508 24 L507 23 L506 23 L505 22 L504 22 L503 21 L502 21 L501 20 L500 20 L499 19 L498 19 L497 18 L496 18 L495 17 L494 17 L493 16 L492 16 L491 15 L489 15 L488 14 L487 14 L486 13 L484 13 L483 12 L479 12 L478 11 Z " fill="black"/></svg>