<svg width="514" height="636" xmlns="http://www.w3.org/2000/svg"><path d="M370 11 L369 12 L368 12 L367 13 L360 13 L359 14 L355 14 L354 15 L351 15 L350 16 L348 16 L347 17 L345 17 L344 18 L343 18 L342 19 L341 19 L340 20 L339 20 L336 23 L335 23 L330 28 L330 29 L328 31 L328 32 L326 34 L326 35 L325 36 L325 37 L324 38 L324 40 L323 41 L323 42 L322 43 L322 46 L321 47 L321 48 L320 49 L320 51 L319 52 L319 55 L318 56 L318 58 L317 59 L317 61 L316 62 L316 67 L315 68 L315 74 L314 75 L315 76 L315 82 L314 83 L314 86 L313 87 L313 90 L312 91 L312 94 L311 95 L311 99 L310 100 L310 103 L309 104 L309 108 L308 109 L308 113 L307 114 L307 117 L306 118 L306 122 L305 123 L305 126 L304 127 L304 130 L303 131 L303 135 L302 136 L302 139 L301 140 L301 143 L300 144 L300 147 L299 148 L299 152 L298 153 L298 156 L297 157 L297 161 L296 162 L296 166 L295 167 L295 171 L294 172 L294 176 L293 177 L293 180 L292 181 L292 184 L291 185 L291 188 L290 189 L290 193 L289 194 L289 197 L288 198 L288 200 L287 201 L287 205 L286 206 L286 210 L285 211 L285 216 L284 217 L284 221 L283 222 L283 226 L282 227 L282 230 L281 231 L281 234 L280 235 L280 238 L279 239 L279 244 L278 245 L278 248 L277 249 L277 252 L276 253 L276 255 L275 256 L275 259 L274 260 L274 263 L273 264 L273 269 L272 270 L272 273 L271 274 L271 277 L270 278 L270 280 L269 281 L269 284 L268 285 L268 288 L267 289 L267 292 L266 293 L266 296 L265 297 L265 300 L264 301 L264 305 L263 306 L263 310 L262 311 L262 313 L261 314 L261 317 L260 318 L260 321 L259 322 L259 324 L258 325 L258 326 L257 327 L257 329 L256 330 L256 332 L255 333 L255 335 L254 336 L254 338 L253 339 L253 342 L252 343 L252 344 L251 345 L251 347 L250 348 L250 349 L249 350 L249 351 L248 352 L248 353 L247 354 L247 356 L245 358 L244 358 L243 359 L241 359 L240 360 L239 360 L238 361 L236 361 L235 362 L234 362 L232 364 L231 364 L224 371 L223 371 L222 370 L221 370 L220 369 L219 369 L218 368 L217 368 L215 366 L214 366 L213 365 L212 365 L211 364 L210 364 L209 363 L207 363 L206 362 L204 362 L203 361 L201 361 L200 360 L198 360 L197 359 L195 359 L194 358 L192 358 L191 357 L189 357 L188 356 L185 356 L184 355 L181 355 L180 354 L177 354 L176 353 L172 353 L171 352 L163 352 L162 351 L140 351 L139 352 L137 352 L136 353 L134 353 L133 354 L131 354 L130 355 L128 355 L127 356 L126 356 L125 357 L123 357 L122 358 L121 358 L120 359 L119 359 L118 360 L117 360 L116 361 L115 361 L114 362 L113 362 L111 364 L110 364 L109 365 L108 365 L106 367 L105 367 L104 368 L103 368 L99 372 L98 372 L94 376 L93 376 L84 385 L84 386 L78 392 L78 393 L74 397 L74 398 L72 400 L72 401 L71 402 L71 403 L69 405 L69 406 L68 407 L68 408 L66 410 L66 411 L65 412 L65 413 L63 415 L63 416 L62 417 L62 418 L61 419 L61 420 L60 421 L60 422 L59 423 L59 424 L58 425 L58 427 L57 428 L57 429 L56 430 L56 432 L55 433 L55 434 L54 435 L54 437 L53 438 L53 440 L52 441 L52 443 L51 444 L51 446 L50 447 L50 450 L49 451 L49 454 L48 455 L48 457 L47 458 L47 465 L46 466 L46 473 L45 474 L45 475 L44 476 L44 481 L43 482 L43 497 L42 498 L42 505 L40 507 L38 507 L37 508 L36 508 L35 509 L34 509 L33 510 L32 510 L30 512 L29 512 L28 513 L27 513 L26 514 L25 514 L24 515 L23 515 L22 516 L21 516 L18 519 L17 519 L13 523 L13 524 L12 525 L12 526 L11 527 L11 533 L15 537 L15 538 L16 539 L17 539 L20 542 L20 545 L21 546 L21 555 L20 556 L20 593 L19 594 L19 605 L22 608 L25 608 L26 607 L27 607 L31 603 L31 602 L32 601 L32 600 L34 598 L35 599 L35 600 L36 601 L35 602 L35 607 L36 608 L36 609 L35 610 L35 613 L37 615 L39 615 L40 616 L41 615 L44 615 L45 614 L46 614 L47 613 L48 613 L52 609 L52 608 L53 607 L53 606 L55 604 L55 603 L56 602 L56 601 L57 600 L58 600 L59 601 L59 613 L60 614 L60 618 L61 619 L61 620 L62 620 L63 621 L68 621 L69 620 L70 620 L70 619 L73 616 L73 615 L75 613 L75 612 L76 611 L76 610 L78 608 L78 607 L79 606 L80 607 L80 618 L81 619 L81 622 L83 624 L88 624 L89 623 L90 623 L92 621 L93 621 L97 617 L97 616 L101 612 L101 611 L103 609 L103 608 L104 607 L104 606 L106 604 L106 603 L107 602 L107 601 L109 599 L109 598 L110 597 L110 596 L111 595 L111 594 L112 593 L112 592 L113 591 L113 589 L114 588 L117 588 L118 589 L119 589 L120 590 L121 590 L122 591 L123 591 L124 592 L125 592 L126 593 L127 593 L128 594 L129 594 L130 595 L133 595 L134 596 L139 596 L140 597 L145 597 L146 596 L151 596 L152 595 L155 595 L156 594 L159 594 L160 593 L161 593 L162 592 L164 592 L165 591 L166 591 L167 590 L168 590 L169 589 L170 589 L171 588 L172 588 L173 587 L174 587 L175 586 L176 586 L177 585 L178 585 L180 583 L181 583 L183 581 L184 581 L188 577 L189 577 L199 567 L204 567 L205 568 L211 568 L212 567 L214 567 L215 566 L216 566 L217 565 L218 565 L219 564 L220 564 L221 563 L222 563 L223 562 L224 562 L225 563 L225 565 L226 566 L226 569 L227 570 L227 572 L228 573 L228 574 L229 575 L229 576 L230 577 L230 579 L231 580 L231 581 L233 583 L233 584 L239 590 L240 590 L242 592 L244 592 L245 593 L246 593 L247 594 L248 594 L249 595 L250 595 L251 596 L252 596 L253 597 L255 597 L256 598 L259 598 L260 599 L266 599 L267 600 L269 600 L270 601 L280 601 L281 600 L284 600 L285 599 L286 599 L287 598 L288 598 L289 597 L290 597 L291 596 L292 596 L293 595 L294 595 L305 584 L305 583 L307 581 L307 580 L309 578 L309 577 L310 576 L310 575 L311 574 L311 572 L312 571 L312 570 L313 569 L313 567 L314 566 L314 563 L315 562 L315 560 L316 559 L316 556 L317 555 L317 551 L318 550 L318 546 L319 545 L319 538 L320 537 L320 515 L319 514 L319 507 L320 506 L321 507 L321 511 L322 512 L322 516 L323 517 L323 520 L324 521 L324 522 L325 523 L325 525 L326 526 L326 527 L328 529 L328 530 L332 534 L333 534 L335 536 L337 536 L338 537 L339 537 L340 538 L342 538 L343 539 L349 539 L350 540 L352 540 L353 541 L357 541 L358 542 L363 542 L364 541 L368 541 L369 540 L371 540 L372 539 L373 539 L374 538 L375 538 L376 537 L377 537 L381 533 L381 532 L385 528 L385 527 L386 526 L386 525 L388 523 L388 522 L389 521 L389 520 L390 519 L390 518 L391 517 L391 515 L392 514 L392 512 L393 511 L393 509 L394 508 L394 506 L395 505 L395 502 L396 501 L396 497 L397 496 L397 490 L398 489 L398 479 L397 478 L397 472 L396 471 L396 467 L395 466 L395 462 L394 461 L394 459 L393 458 L393 456 L392 455 L392 453 L391 452 L391 451 L390 450 L390 449 L388 447 L388 446 L387 446 L385 444 L384 444 L383 443 L382 443 L381 442 L379 442 L378 441 L376 441 L375 440 L373 440 L372 439 L370 439 L369 438 L365 438 L364 437 L355 437 L354 438 L351 438 L350 439 L349 439 L348 440 L346 440 L345 441 L344 441 L341 444 L340 444 L339 443 L339 407 L338 406 L338 400 L337 399 L337 387 L336 386 L336 381 L335 380 L335 378 L334 377 L334 375 L333 374 L334 373 L334 369 L335 368 L335 366 L336 365 L336 362 L337 361 L337 357 L338 356 L338 353 L339 352 L339 349 L340 348 L340 345 L341 344 L341 342 L342 341 L342 338 L343 337 L343 335 L344 334 L344 333 L345 332 L345 330 L346 329 L346 328 L347 327 L347 326 L348 325 L348 324 L349 323 L349 322 L350 321 L350 320 L351 319 L351 318 L352 317 L352 316 L353 315 L353 314 L355 312 L355 311 L356 310 L356 309 L358 307 L358 306 L359 305 L359 304 L360 303 L360 302 L361 301 L361 300 L363 298 L363 297 L364 296 L364 295 L366 293 L366 292 L368 290 L368 289 L369 288 L369 287 L370 286 L370 285 L371 284 L371 283 L372 282 L372 281 L373 280 L373 279 L375 277 L375 276 L376 275 L376 274 L378 272 L378 271 L379 270 L379 269 L380 268 L380 267 L381 266 L381 265 L382 264 L382 263 L384 261 L384 260 L385 259 L385 258 L386 257 L386 256 L388 254 L388 253 L389 252 L389 251 L391 249 L391 248 L392 247 L392 246 L394 244 L394 243 L395 242 L395 241 L396 240 L396 239 L398 237 L398 236 L399 235 L399 234 L401 232 L401 231 L402 230 L402 229 L403 228 L403 227 L404 226 L404 225 L406 223 L406 222 L407 221 L407 220 L409 218 L409 217 L410 216 L410 215 L411 214 L411 213 L413 211 L413 210 L414 209 L414 208 L415 207 L415 206 L416 205 L416 204 L418 202 L418 201 L419 200 L419 199 L421 197 L421 196 L422 195 L422 194 L423 193 L423 192 L424 191 L424 190 L426 188 L426 187 L427 186 L427 185 L429 183 L429 182 L430 181 L430 180 L432 178 L432 177 L433 176 L433 175 L434 174 L434 173 L436 171 L436 170 L437 169 L437 168 L439 166 L439 165 L440 164 L440 163 L442 161 L442 160 L443 159 L443 158 L445 156 L445 155 L446 154 L446 153 L448 151 L448 150 L450 148 L450 147 L452 145 L452 144 L453 143 L453 142 L455 140 L455 139 L456 138 L456 137 L457 136 L457 135 L458 134 L458 133 L460 131 L460 130 L461 129 L461 128 L462 127 L462 126 L463 125 L463 124 L465 122 L465 121 L466 120 L466 119 L467 118 L467 117 L469 115 L469 114 L470 113 L470 112 L472 110 L472 109 L473 108 L473 107 L476 104 L477 104 L483 98 L483 97 L486 94 L486 93 L487 92 L487 91 L489 89 L489 88 L490 87 L490 86 L492 84 L492 83 L493 82 L493 81 L494 80 L494 79 L495 78 L495 77 L496 76 L496 74 L497 73 L497 71 L498 70 L498 69 L499 68 L499 66 L500 65 L500 63 L501 62 L501 57 L502 56 L502 50 L501 49 L501 45 L500 44 L500 42 L499 41 L499 40 L498 39 L498 38 L497 37 L497 36 L493 32 L493 31 L492 31 L489 28 L488 28 L487 27 L486 27 L485 26 L484 26 L483 25 L482 25 L481 24 L479 24 L478 23 L474 23 L473 22 L469 22 L468 21 L463 21 L462 20 L461 20 L460 19 L458 19 L457 18 L453 18 L452 17 L443 17 L442 16 L432 16 L431 15 L423 15 L422 14 L414 14 L413 13 L406 13 L405 12 L392 12 L391 11 Z " fill="black"/></svg>