<svg width="319" height="486" xmlns="http://www.w3.org/2000/svg"><path d="M129 11 L127 13 L126 13 L123 16 L123 17 L119 21 L118 21 L115 24 L114 24 L113 25 L110 25 L108 27 L109 28 L109 29 L111 29 L112 30 L111 31 L111 32 L110 33 L110 34 L108 36 L108 39 L109 40 L109 41 L110 42 L110 43 L111 44 L111 49 L112 50 L112 51 L113 52 L113 53 L117 57 L118 57 L119 58 L120 58 L126 64 L127 64 L132 69 L132 70 L131 71 L126 71 L125 72 L124 72 L123 73 L123 75 L124 76 L124 79 L121 82 L120 82 L117 85 L117 87 L119 89 L119 92 L118 93 L118 98 L117 99 L117 103 L114 106 L114 107 L117 110 L117 112 L118 113 L118 116 L119 117 L119 118 L118 119 L118 120 L116 122 L116 123 L117 124 L117 125 L119 127 L119 134 L120 135 L120 136 L122 138 L122 141 L123 142 L123 143 L122 144 L122 148 L123 149 L123 150 L125 152 L125 153 L126 154 L126 157 L127 158 L127 159 L128 160 L128 162 L129 163 L129 165 L130 166 L130 167 L131 168 L131 169 L132 170 L132 171 L134 173 L134 174 L135 175 L135 176 L136 177 L136 179 L132 183 L131 183 L130 184 L128 184 L127 185 L126 185 L125 186 L122 186 L121 187 L120 187 L119 188 L119 191 L117 193 L116 192 L116 178 L115 177 L115 169 L114 168 L114 166 L113 165 L113 162 L114 161 L114 158 L113 157 L113 156 L112 156 L108 152 L108 144 L103 139 L103 137 L104 136 L104 132 L100 132 L99 131 L99 130 L97 128 L97 127 L96 126 L96 125 L93 122 L93 121 L92 120 L92 119 L89 116 L87 116 L86 115 L84 115 L83 114 L82 114 L79 111 L79 109 L78 108 L76 108 L73 111 L72 111 L71 112 L69 112 L67 110 L67 107 L66 106 L66 87 L65 86 L65 85 L63 83 L63 80 L62 79 L62 77 L61 76 L61 74 L60 73 L60 72 L59 71 L59 70 L57 68 L55 68 L54 69 L53 69 L52 70 L50 70 L49 69 L48 69 L47 70 L45 70 L44 69 L42 69 L41 70 L39 70 L36 73 L36 74 L35 75 L34 75 L29 80 L29 81 L28 82 L28 84 L27 85 L27 92 L28 93 L28 95 L29 96 L29 97 L30 98 L30 99 L31 100 L31 101 L32 102 L32 109 L33 110 L33 112 L35 114 L36 114 L38 116 L39 116 L40 117 L40 119 L38 121 L37 121 L35 119 L34 119 L33 118 L32 118 L30 116 L29 116 L28 115 L22 115 L21 116 L21 117 L20 118 L20 119 L17 122 L16 122 L15 123 L15 125 L17 127 L17 128 L18 129 L18 132 L15 135 L14 135 L11 138 L11 141 L12 142 L12 143 L13 144 L13 149 L16 152 L16 153 L20 157 L27 157 L30 160 L30 161 L31 161 L34 164 L34 165 L35 166 L34 167 L34 168 L33 169 L33 173 L34 174 L35 173 L37 173 L38 174 L38 175 L39 176 L39 177 L40 178 L40 179 L41 180 L41 181 L45 185 L45 186 L51 192 L51 193 L54 196 L55 196 L62 203 L63 203 L64 204 L65 204 L67 206 L68 206 L70 208 L71 208 L72 209 L74 209 L75 210 L76 210 L77 211 L78 211 L79 212 L81 212 L82 213 L87 213 L88 214 L90 214 L91 215 L92 215 L95 218 L96 218 L97 219 L97 225 L96 226 L96 233 L95 234 L95 241 L94 242 L94 244 L93 245 L93 247 L92 248 L92 254 L91 255 L91 258 L92 259 L92 261 L93 262 L93 263 L94 264 L94 267 L95 268 L95 272 L96 273 L96 275 L97 276 L97 277 L95 279 L87 279 L86 280 L80 280 L79 281 L78 281 L77 282 L76 282 L75 283 L73 283 L72 284 L69 284 L68 285 L66 285 L64 287 L63 287 L60 290 L59 290 L50 299 L50 300 L49 301 L49 302 L48 303 L48 367 L49 368 L49 386 L50 387 L50 410 L51 411 L51 427 L52 428 L52 435 L53 436 L53 439 L54 440 L54 442 L55 443 L55 445 L56 446 L56 447 L57 448 L57 449 L61 453 L62 453 L65 456 L66 456 L68 458 L69 458 L70 459 L71 459 L72 460 L73 460 L74 461 L75 461 L76 462 L80 462 L81 463 L84 463 L85 464 L86 464 L87 465 L88 465 L89 466 L92 466 L93 467 L95 467 L96 468 L99 468 L100 469 L103 469 L104 470 L107 470 L108 471 L115 471 L116 472 L128 472 L129 473 L141 473 L142 474 L176 474 L177 473 L189 473 L190 472 L207 472 L208 471 L215 471 L216 470 L221 470 L222 469 L225 469 L226 468 L227 468 L228 467 L230 467 L231 466 L232 466 L233 465 L235 465 L236 464 L238 464 L239 463 L241 463 L242 462 L244 462 L245 461 L246 461 L247 460 L248 460 L249 459 L250 459 L251 458 L252 458 L253 457 L254 457 L255 456 L256 456 L257 455 L258 455 L260 453 L261 453 L265 449 L265 448 L266 447 L266 445 L267 444 L267 441 L268 440 L268 435 L269 434 L269 429 L270 428 L270 418 L271 417 L271 349 L270 348 L270 346 L271 345 L270 344 L270 340 L271 339 L270 338 L270 308 L269 307 L269 299 L268 298 L268 297 L267 296 L267 295 L258 286 L257 286 L256 285 L255 285 L254 284 L253 284 L252 283 L250 283 L249 282 L248 282 L247 281 L245 281 L244 280 L242 280 L241 279 L238 279 L237 278 L232 278 L231 277 L229 277 L228 276 L228 274 L229 273 L229 272 L231 270 L231 269 L230 268 L230 262 L231 261 L231 260 L232 259 L232 257 L230 255 L230 254 L229 253 L229 247 L228 246 L228 238 L229 237 L232 237 L233 238 L234 238 L235 237 L240 237 L241 236 L244 236 L245 235 L246 235 L247 234 L248 234 L249 233 L251 233 L252 232 L254 232 L256 230 L257 230 L260 227 L261 227 L263 225 L264 225 L265 224 L266 224 L268 222 L269 222 L276 215 L276 214 L278 212 L278 211 L286 203 L286 202 L287 201 L287 200 L288 199 L288 198 L289 197 L289 196 L290 195 L290 193 L291 192 L291 191 L292 190 L292 189 L295 186 L295 179 L299 175 L299 174 L298 174 L295 171 L295 167 L296 166 L296 165 L298 163 L298 161 L297 160 L297 157 L296 156 L296 155 L292 151 L292 150 L291 149 L291 147 L293 145 L294 145 L297 142 L298 142 L302 138 L303 138 L303 137 L306 134 L306 133 L307 132 L307 121 L306 120 L306 119 L305 118 L305 117 L302 114 L301 114 L300 113 L299 113 L298 112 L297 112 L295 110 L295 107 L294 107 L292 109 L291 109 L290 110 L289 110 L288 109 L286 109 L285 110 L282 110 L281 111 L279 111 L278 112 L277 112 L270 119 L270 120 L269 121 L269 123 L268 124 L268 126 L269 127 L269 129 L270 130 L270 131 L272 133 L272 134 L273 135 L272 136 L271 136 L270 137 L269 137 L268 136 L264 136 L262 134 L262 123 L263 122 L263 120 L264 119 L264 118 L263 117 L263 116 L262 115 L262 114 L261 113 L261 112 L260 111 L259 111 L258 110 L258 109 L257 108 L257 106 L258 105 L258 104 L257 103 L257 102 L251 96 L251 95 L249 93 L246 93 L245 94 L241 94 L240 95 L239 95 L238 94 L237 94 L236 95 L235 95 L232 98 L232 101 L229 104 L226 104 L225 105 L225 107 L227 109 L227 110 L226 111 L226 112 L224 114 L224 118 L225 119 L225 122 L226 123 L226 128 L224 130 L224 131 L225 131 L227 133 L227 134 L228 135 L228 136 L231 139 L231 140 L237 146 L239 146 L240 147 L229 158 L229 159 L227 161 L226 161 L225 162 L225 163 L224 164 L224 166 L223 167 L223 168 L220 171 L219 171 L216 174 L216 175 L215 176 L215 177 L216 178 L216 180 L214 182 L214 183 L213 184 L213 186 L212 187 L212 192 L211 193 L211 196 L209 198 L208 198 L206 196 L206 194 L202 190 L201 190 L199 188 L197 188 L195 186 L195 185 L193 183 L192 183 L191 182 L184 182 L183 181 L183 180 L186 177 L186 176 L185 175 L183 175 L182 176 L181 176 L179 174 L181 172 L181 171 L185 167 L186 167 L190 163 L190 162 L191 161 L191 159 L192 158 L192 155 L193 154 L193 152 L195 150 L195 148 L196 147 L196 145 L197 144 L197 142 L198 141 L198 138 L199 137 L198 136 L198 135 L196 133 L197 132 L197 128 L198 127 L199 127 L200 126 L200 116 L203 113 L203 111 L202 110 L202 101 L200 99 L200 95 L201 94 L201 93 L202 92 L202 91 L199 88 L199 85 L200 84 L201 84 L203 82 L205 82 L206 81 L207 81 L211 77 L212 77 L213 76 L214 77 L215 77 L217 75 L217 71 L219 69 L222 69 L224 67 L225 67 L225 66 L226 65 L226 63 L227 62 L227 61 L230 58 L230 57 L231 56 L231 54 L233 52 L233 48 L234 47 L234 45 L236 43 L236 42 L237 41 L237 39 L236 38 L235 38 L233 36 L234 35 L234 34 L235 33 L235 31 L234 30 L234 26 L233 26 L232 25 L231 25 L230 24 L230 23 L229 22 L230 21 L230 19 L228 17 L227 17 L225 15 L224 15 L223 14 L221 14 L219 12 L218 12 L217 11 L215 11 L213 13 L207 13 L206 14 L205 14 L204 15 L203 15 L202 16 L202 17 L201 18 L200 18 L198 20 L198 21 L196 23 L196 24 L195 25 L195 26 L194 27 L192 27 L192 28 L191 29 L191 33 L190 34 L190 39 L189 40 L189 42 L187 44 L186 44 L185 43 L184 44 L183 44 L182 45 L182 50 L183 51 L183 53 L182 54 L182 56 L180 58 L179 58 L178 59 L177 59 L176 58 L171 58 L169 56 L169 53 L168 53 L167 52 L164 52 L163 53 L158 53 L157 54 L155 54 L153 52 L153 46 L154 45 L154 44 L156 42 L156 39 L154 37 L154 36 L153 36 L150 33 L150 29 L149 28 L149 26 L148 25 L148 22 L147 21 L147 19 L145 17 L144 17 L143 16 L139 16 L138 15 L137 15 L133 11 Z " fill="black"/></svg>