<svg width="1032" height="1179" xmlns="http://www.w3.org/2000/svg"><path d="M290 130 L290 131 Z M502 11 L501 12 L499 12 L498 13 L497 13 L495 15 L495 16 L494 17 L494 19 L488 25 L488 26 L487 27 L487 31 L486 32 L486 37 L485 38 L485 39 L484 40 L475 40 L474 41 L472 41 L471 42 L470 42 L469 43 L468 43 L467 44 L462 44 L461 43 L460 43 L459 42 L456 42 L455 43 L453 43 L452 44 L447 44 L446 45 L437 45 L436 46 L434 46 L433 47 L429 47 L428 46 L426 46 L425 45 L422 45 L421 46 L419 44 L419 42 L418 41 L418 40 L417 39 L417 38 L415 36 L415 35 L411 31 L403 31 L402 32 L400 32 L399 31 L396 31 L394 29 L393 29 L390 26 L389 26 L388 25 L387 25 L386 24 L381 24 L380 25 L377 25 L376 26 L374 26 L373 27 L371 27 L370 28 L368 28 L367 29 L364 29 L363 30 L355 30 L354 29 L353 29 L350 26 L341 26 L340 27 L331 27 L330 26 L328 26 L327 25 L313 25 L312 26 L311 26 L310 27 L310 29 L309 30 L309 31 L308 32 L308 33 L307 34 L305 34 L304 35 L300 35 L299 36 L299 38 L294 43 L294 44 L293 45 L293 46 L292 47 L292 48 L290 50 L290 51 L289 52 L289 58 L290 59 L290 61 L291 62 L291 65 L292 66 L292 73 L291 74 L291 75 L290 76 L290 77 L289 78 L289 86 L288 87 L288 93 L289 94 L289 100 L290 101 L290 103 L291 104 L291 107 L292 108 L292 110 L293 111 L293 113 L294 114 L294 116 L295 117 L295 121 L298 124 L298 125 L294 129 L294 130 L292 132 L292 133 L291 134 L291 136 L290 137 L290 147 L291 148 L291 155 L290 156 L290 158 L289 159 L289 160 L288 161 L288 168 L287 169 L287 175 L286 176 L286 180 L285 181 L285 185 L284 186 L284 189 L285 190 L285 194 L286 195 L286 196 L287 197 L287 198 L288 199 L288 202 L289 203 L289 205 L288 206 L288 216 L287 217 L287 225 L288 226 L288 230 L287 231 L287 234 L288 235 L287 236 L287 241 L288 242 L288 257 L287 258 L285 258 L283 256 L283 255 L279 251 L278 251 L277 250 L276 250 L274 248 L273 248 L271 246 L270 246 L268 244 L268 243 L266 241 L265 241 L263 239 L261 239 L260 238 L257 238 L256 237 L253 237 L252 236 L250 236 L249 235 L236 235 L235 234 L234 234 L233 233 L232 233 L229 230 L229 229 L226 226 L226 225 L225 224 L225 223 L224 222 L223 222 L221 220 L211 220 L210 219 L209 219 L208 218 L207 218 L206 217 L204 217 L203 216 L202 216 L201 215 L195 215 L193 217 L193 218 L192 219 L191 219 L190 220 L186 220 L185 219 L175 219 L174 220 L172 220 L171 221 L169 221 L168 222 L165 222 L164 223 L163 223 L162 224 L161 224 L160 225 L159 225 L155 229 L155 230 L154 231 L154 233 L153 234 L153 236 L150 239 L145 239 L144 240 L142 240 L138 244 L138 245 L137 246 L137 247 L134 250 L133 250 L132 251 L129 251 L128 250 L126 250 L125 249 L124 249 L121 246 L121 245 L120 244 L120 243 L119 242 L119 240 L115 236 L109 236 L108 235 L104 235 L103 236 L101 236 L98 239 L98 241 L97 242 L97 243 L96 244 L96 246 L95 247 L94 247 L93 248 L92 248 L91 247 L90 247 L89 246 L88 246 L87 245 L85 245 L84 244 L83 244 L82 245 L81 245 L79 247 L78 247 L77 248 L76 248 L75 249 L72 249 L71 248 L69 248 L69 249 L60 258 L60 261 L62 263 L62 264 L63 265 L63 266 L64 267 L64 269 L65 270 L65 274 L64 275 L64 276 L63 277 L63 281 L64 282 L64 284 L65 285 L65 286 L67 288 L67 289 L68 290 L68 295 L67 296 L67 297 L64 300 L64 301 L63 302 L63 303 L61 305 L61 306 L58 309 L57 309 L56 310 L55 310 L54 311 L52 311 L51 312 L50 312 L47 315 L47 316 L46 317 L46 326 L47 327 L47 328 L48 329 L48 330 L52 334 L52 335 L54 337 L54 338 L59 343 L59 344 L61 346 L61 347 L62 348 L62 349 L66 353 L67 353 L68 354 L71 354 L75 358 L75 360 L76 361 L76 362 L78 364 L79 364 L83 368 L83 370 L82 371 L82 375 L81 376 L82 377 L82 378 L85 381 L86 381 L88 383 L89 383 L90 384 L91 384 L92 385 L92 386 L95 389 L95 390 L97 390 L98 391 L101 391 L102 390 L104 390 L105 389 L106 389 L107 388 L108 388 L109 387 L115 387 L118 390 L118 391 L119 392 L119 398 L118 399 L118 401 L119 402 L119 403 L120 404 L120 405 L121 405 L123 407 L123 409 L122 410 L122 420 L123 421 L123 422 L124 423 L124 424 L125 425 L125 426 L127 428 L127 429 L134 436 L135 436 L136 437 L137 437 L138 438 L139 438 L141 440 L142 440 L143 441 L144 441 L146 443 L147 443 L149 445 L151 445 L152 446 L154 446 L155 445 L161 445 L162 446 L163 446 L165 448 L169 448 L170 449 L171 449 L172 448 L177 448 L178 447 L179 448 L180 448 L181 449 L182 449 L183 450 L183 451 L184 452 L184 453 L186 455 L184 457 L184 458 L181 461 L180 461 L176 465 L175 465 L172 468 L171 468 L167 472 L166 472 L157 481 L156 481 L155 482 L154 481 L153 481 L152 480 L151 480 L150 479 L149 479 L148 478 L147 478 L146 477 L145 477 L143 475 L142 475 L141 474 L140 474 L139 473 L138 473 L137 472 L136 472 L135 471 L134 471 L133 470 L132 470 L130 468 L128 468 L127 467 L126 467 L125 466 L123 466 L122 465 L120 465 L119 464 L118 464 L117 463 L115 463 L114 462 L113 462 L112 461 L110 461 L109 460 L108 460 L107 459 L105 459 L104 458 L103 458 L102 457 L101 457 L100 456 L99 456 L98 455 L95 455 L94 454 L92 454 L91 453 L89 453 L88 452 L83 452 L82 451 L79 451 L78 450 L74 450 L73 449 L70 449 L69 448 L65 448 L64 447 L59 447 L58 446 L41 446 L40 447 L36 447 L35 448 L30 448 L29 449 L27 449 L26 450 L25 450 L24 451 L23 451 L21 453 L20 453 L18 455 L18 456 L17 457 L16 457 L15 458 L13 458 L12 459 L12 462 L11 463 L11 468 L10 469 L10 471 L11 472 L11 475 L12 476 L12 477 L13 478 L13 479 L14 480 L14 481 L16 483 L16 484 L17 485 L17 486 L19 488 L19 489 L22 492 L22 493 L25 496 L25 497 L28 500 L28 501 L32 505 L32 506 L64 538 L65 538 L72 545 L73 545 L81 553 L82 553 L86 557 L87 557 L90 560 L91 560 L93 562 L94 562 L99 567 L99 568 L98 569 L98 570 L97 571 L97 574 L96 575 L96 581 L95 582 L95 590 L96 591 L96 594 L97 595 L97 598 L98 599 L98 603 L97 604 L97 606 L98 607 L98 609 L101 612 L102 612 L103 613 L104 613 L105 614 L106 614 L107 615 L109 615 L110 616 L114 616 L119 611 L120 611 L121 610 L122 610 L123 609 L124 609 L125 608 L126 608 L127 607 L128 607 L128 606 L129 605 L129 604 L130 603 L130 602 L134 598 L136 598 L137 597 L139 597 L140 598 L140 599 L142 601 L146 601 L147 602 L148 602 L149 603 L150 603 L155 608 L156 608 L158 610 L159 610 L161 612 L162 612 L164 614 L165 614 L167 616 L168 616 L172 620 L173 620 L175 622 L176 622 L178 624 L179 624 L180 625 L181 625 L182 626 L183 626 L184 627 L185 627 L187 629 L188 629 L189 630 L190 630 L192 632 L193 632 L194 633 L195 633 L196 634 L197 634 L199 636 L200 636 L207 643 L209 643 L210 644 L211 644 L212 645 L213 645 L216 648 L216 649 L217 650 L217 651 L218 652 L218 653 L219 654 L220 654 L221 655 L222 655 L223 656 L226 656 L227 655 L228 655 L229 654 L230 654 L231 653 L233 653 L235 655 L236 655 L239 658 L240 658 L241 659 L242 659 L244 661 L245 661 L247 663 L248 663 L250 665 L251 665 L253 667 L254 667 L256 669 L257 669 L260 672 L261 672 L264 675 L265 675 L269 679 L270 679 L274 683 L275 683 L279 687 L280 687 L291 698 L291 699 L292 700 L292 702 L291 703 L291 704 L290 705 L290 706 L289 707 L289 711 L288 712 L288 716 L289 717 L289 722 L290 723 L290 731 L289 732 L289 739 L290 740 L290 752 L289 753 L288 753 L281 760 L280 760 L277 763 L277 765 L276 766 L276 771 L275 772 L275 781 L276 782 L276 785 L277 786 L277 788 L278 789 L278 791 L279 792 L279 795 L280 796 L280 798 L281 799 L281 802 L282 803 L282 805 L283 806 L283 818 L282 819 L282 826 L283 827 L283 829 L285 831 L285 832 L287 834 L287 835 L288 836 L288 837 L289 838 L289 842 L288 843 L288 844 L286 846 L286 847 L285 848 L285 849 L284 850 L284 852 L283 853 L283 861 L282 862 L282 875 L281 876 L281 883 L280 884 L280 887 L279 888 L279 891 L278 892 L278 898 L277 899 L277 901 L276 902 L276 903 L277 904 L277 906 L278 907 L278 909 L279 910 L279 913 L280 914 L280 916 L281 917 L281 919 L282 920 L282 922 L283 923 L283 925 L284 926 L284 927 L285 928 L285 929 L289 933 L290 933 L291 934 L292 934 L293 935 L294 935 L299 940 L299 942 L300 943 L300 944 L301 945 L301 954 L302 955 L302 966 L303 967 L303 975 L304 976 L303 977 L303 981 L304 982 L304 983 L301 986 L301 987 L298 990 L298 991 L295 994 L295 995 L294 996 L294 997 L293 998 L293 999 L292 1000 L292 1003 L291 1004 L291 1008 L290 1009 L290 1016 L291 1017 L291 1021 L292 1022 L292 1024 L295 1027 L298 1027 L299 1026 L299 1025 L301 1023 L302 1023 L303 1024 L303 1046 L304 1047 L304 1048 L305 1048 L307 1050 L307 1053 L306 1054 L306 1058 L305 1059 L305 1064 L304 1065 L304 1070 L303 1071 L303 1074 L302 1075 L302 1079 L301 1080 L301 1083 L300 1084 L300 1095 L301 1096 L301 1103 L302 1104 L302 1106 L304 1108 L304 1109 L305 1110 L305 1112 L306 1113 L306 1114 L307 1115 L307 1116 L308 1117 L308 1119 L309 1120 L309 1129 L310 1130 L310 1138 L311 1139 L311 1142 L312 1143 L312 1144 L319 1151 L320 1151 L322 1153 L323 1153 L324 1154 L325 1154 L326 1155 L327 1155 L328 1156 L331 1156 L332 1157 L336 1157 L337 1158 L338 1158 L339 1159 L344 1159 L346 1157 L347 1157 L348 1158 L348 1159 L351 1159 L353 1157 L354 1157 L355 1156 L359 1156 L361 1158 L361 1159 L362 1160 L362 1161 L373 1161 L374 1162 L376 1162 L381 1167 L388 1167 L389 1166 L401 1166 L402 1167 L403 1167 L404 1166 L406 1166 L407 1165 L409 1165 L411 1163 L412 1163 L415 1160 L416 1160 L417 1159 L418 1159 L419 1158 L422 1158 L423 1159 L425 1159 L426 1160 L428 1160 L429 1161 L430 1161 L431 1162 L436 1162 L437 1163 L446 1163 L447 1162 L455 1162 L456 1163 L467 1163 L468 1162 L470 1162 L471 1161 L472 1161 L473 1160 L475 1160 L476 1159 L480 1159 L481 1158 L485 1158 L486 1157 L488 1157 L489 1156 L491 1156 L492 1155 L493 1155 L494 1154 L495 1154 L496 1153 L497 1153 L498 1152 L499 1152 L500 1151 L502 1151 L503 1150 L504 1150 L505 1149 L506 1149 L507 1148 L508 1148 L509 1147 L510 1147 L513 1144 L513 1143 L518 1138 L519 1138 L521 1136 L521 1135 L522 1134 L522 1132 L524 1130 L526 1130 L528 1132 L530 1132 L532 1130 L532 1129 L533 1128 L533 1126 L534 1125 L538 1125 L539 1126 L542 1126 L543 1125 L544 1125 L545 1124 L546 1124 L550 1128 L554 1128 L559 1123 L559 1122 L561 1120 L561 1119 L562 1118 L562 1117 L563 1116 L564 1116 L565 1117 L565 1118 L569 1122 L570 1122 L571 1123 L584 1123 L585 1122 L587 1122 L589 1120 L589 1119 L590 1118 L590 1117 L591 1116 L591 1115 L595 1111 L596 1111 L597 1110 L603 1110 L604 1111 L610 1111 L611 1110 L612 1110 L613 1109 L614 1110 L614 1114 L613 1115 L613 1118 L612 1119 L612 1121 L611 1122 L611 1124 L610 1125 L610 1126 L609 1127 L609 1128 L608 1129 L608 1130 L607 1131 L607 1132 L606 1133 L606 1134 L605 1135 L605 1136 L603 1138 L603 1139 L602 1140 L602 1141 L601 1142 L601 1144 L600 1145 L600 1152 L601 1153 L601 1154 L602 1155 L602 1158 L604 1160 L604 1161 L605 1162 L607 1162 L609 1160 L610 1160 L611 1159 L611 1158 L613 1156 L613 1155 L615 1153 L615 1151 L616 1150 L616 1149 L618 1147 L618 1146 L620 1144 L620 1143 L622 1141 L622 1140 L623 1139 L623 1138 L625 1136 L625 1135 L626 1134 L626 1133 L627 1132 L627 1131 L628 1130 L628 1128 L629 1127 L629 1123 L630 1122 L630 1112 L631 1111 L631 1110 L632 1109 L647 1109 L648 1110 L650 1110 L651 1111 L655 1111 L656 1112 L664 1112 L665 1111 L670 1111 L671 1110 L672 1110 L673 1111 L676 1111 L677 1110 L692 1110 L693 1111 L696 1111 L698 1109 L699 1109 L700 1108 L711 1108 L712 1107 L714 1107 L715 1106 L717 1106 L718 1105 L719 1105 L720 1104 L721 1104 L722 1103 L723 1103 L724 1102 L727 1102 L728 1101 L729 1101 L730 1100 L731 1100 L732 1099 L733 1099 L734 1098 L735 1098 L739 1094 L740 1094 L745 1089 L745 1088 L746 1087 L746 1086 L748 1084 L748 1083 L749 1082 L749 1081 L750 1080 L750 1079 L751 1078 L750 1077 L751 1076 L751 1061 L752 1060 L752 1047 L751 1046 L751 1041 L750 1040 L750 1034 L751 1033 L751 1032 L753 1030 L756 1030 L758 1028 L759 1028 L762 1025 L763 1025 L764 1024 L764 1023 L765 1022 L765 1015 L766 1014 L766 1007 L765 1006 L765 1004 L764 1003 L764 1002 L763 1001 L763 1000 L762 999 L762 997 L761 996 L761 994 L760 993 L760 992 L758 990 L758 989 L756 987 L756 986 L754 984 L754 983 L753 982 L753 980 L751 978 L750 978 L749 977 L748 977 L747 976 L747 970 L748 969 L748 966 L747 965 L747 958 L746 957 L746 953 L745 952 L745 940 L746 939 L749 942 L749 943 L750 944 L750 945 L751 946 L751 947 L752 948 L752 949 L753 950 L753 951 L754 952 L754 953 L756 955 L760 955 L764 951 L764 950 L765 949 L765 948 L766 947 L766 938 L765 937 L765 935 L763 933 L763 932 L757 926 L757 925 L746 914 L745 914 L743 912 L742 912 L739 909 L740 908 L742 908 L743 909 L744 908 L745 908 L746 907 L746 892 L747 891 L747 886 L748 885 L748 884 L749 883 L749 881 L750 880 L750 875 L749 874 L749 869 L748 868 L748 861 L747 860 L747 859 L748 858 L748 852 L749 851 L749 848 L750 847 L750 845 L751 844 L751 843 L752 842 L752 838 L753 837 L753 829 L754 828 L754 824 L755 823 L755 818 L756 817 L756 816 L755 815 L755 805 L758 802 L758 801 L760 799 L760 795 L761 794 L761 779 L760 778 L760 773 L759 772 L759 769 L758 768 L758 766 L757 765 L757 764 L756 763 L756 762 L754 760 L754 759 L753 758 L753 757 L752 756 L752 755 L751 754 L751 751 L750 750 L750 744 L749 743 L749 730 L750 729 L750 724 L751 723 L751 719 L750 718 L750 714 L751 713 L751 711 L750 710 L750 704 L751 703 L752 703 L753 704 L762 704 L763 703 L767 703 L768 702 L769 703 L777 703 L778 702 L780 702 L781 701 L781 700 L782 699 L782 698 L784 696 L784 695 L785 694 L785 692 L787 690 L789 692 L789 694 L791 696 L795 696 L796 695 L800 695 L801 696 L810 696 L811 695 L812 695 L812 694 L813 693 L813 691 L815 689 L816 690 L816 694 L818 696 L819 696 L820 697 L825 697 L826 696 L827 696 L828 695 L829 695 L830 694 L836 694 L837 693 L838 693 L840 691 L841 691 L844 688 L845 688 L849 684 L849 683 L851 681 L853 681 L854 680 L855 680 L856 679 L857 679 L859 677 L860 677 L861 676 L861 674 L862 673 L862 665 L861 664 L861 662 L860 661 L861 660 L865 660 L866 659 L867 659 L868 658 L868 657 L869 656 L869 655 L872 652 L872 650 L873 649 L873 648 L874 647 L874 642 L872 640 L871 640 L870 639 L869 639 L867 637 L867 632 L868 631 L868 630 L872 626 L872 625 L873 624 L873 622 L874 621 L874 620 L877 617 L879 617 L880 618 L881 618 L883 620 L884 620 L886 622 L887 622 L888 623 L889 623 L891 625 L892 625 L894 627 L895 627 L897 629 L898 629 L900 631 L901 631 L902 632 L904 632 L905 633 L907 633 L908 634 L910 634 L911 635 L912 635 L913 636 L914 636 L917 639 L918 639 L920 641 L921 641 L923 643 L924 643 L925 644 L926 644 L927 645 L928 645 L929 646 L930 646 L931 647 L933 647 L934 648 L935 648 L936 649 L938 649 L939 650 L940 650 L941 651 L941 652 L944 655 L945 655 L946 656 L948 656 L949 657 L953 657 L954 658 L958 658 L959 657 L960 657 L961 656 L962 656 L963 655 L963 654 L965 652 L965 650 L966 649 L966 647 L967 646 L967 642 L966 641 L966 635 L965 634 L965 628 L964 627 L964 619 L963 618 L963 615 L962 614 L962 610 L961 609 L961 606 L960 605 L960 602 L959 601 L959 598 L958 597 L958 594 L957 593 L957 591 L956 590 L956 589 L955 588 L955 587 L953 585 L953 584 L952 583 L952 582 L949 579 L949 578 L948 577 L948 576 L947 575 L947 574 L946 573 L946 572 L945 571 L945 570 L944 569 L944 568 L942 566 L942 565 L940 563 L940 562 L937 559 L937 558 L932 553 L932 552 L904 524 L903 524 L897 518 L896 518 L889 511 L888 511 L885 508 L884 508 L883 507 L882 507 L881 506 L880 506 L879 505 L877 505 L876 504 L875 504 L874 503 L873 503 L872 502 L871 502 L869 500 L872 497 L873 497 L874 498 L877 498 L878 499 L887 499 L888 498 L892 498 L893 497 L895 497 L896 496 L899 496 L900 495 L902 495 L903 494 L904 494 L905 493 L906 493 L910 489 L910 488 L913 485 L914 485 L915 486 L917 486 L918 485 L920 485 L921 484 L923 484 L924 483 L925 483 L927 481 L928 481 L929 480 L930 480 L931 479 L932 479 L935 476 L936 476 L937 475 L937 474 L938 473 L938 472 L939 471 L939 466 L940 465 L940 464 L944 460 L944 458 L945 457 L945 447 L946 446 L946 445 L947 444 L947 443 L948 442 L949 442 L951 440 L952 440 L953 439 L954 439 L956 437 L957 438 L958 438 L959 439 L965 439 L967 437 L968 437 L970 435 L971 435 L972 434 L973 434 L974 433 L976 433 L979 430 L979 429 L980 428 L980 426 L981 425 L981 418 L980 417 L980 413 L981 412 L982 413 L983 413 L984 414 L988 414 L989 413 L991 413 L992 412 L993 412 L994 411 L995 411 L1002 404 L1003 404 L1008 399 L1008 398 L1009 397 L1009 394 L1010 393 L1010 392 L1012 390 L1012 389 L1013 388 L1013 387 L1015 385 L1015 384 L1016 383 L1016 382 L1017 381 L1017 380 L1018 379 L1018 378 L1019 377 L1019 373 L1020 372 L1020 357 L1017 354 L1016 354 L1011 349 L1011 348 L1005 342 L1003 342 L1002 341 L1001 341 L1000 340 L999 340 L997 338 L997 336 L999 334 L999 332 L1000 331 L1000 328 L999 327 L999 326 L998 325 L998 324 L997 323 L997 318 L998 317 L998 316 L999 315 L999 308 L998 307 L998 306 L996 304 L996 303 L995 303 L994 302 L993 302 L992 301 L990 301 L989 300 L985 300 L984 299 L974 299 L973 300 L970 300 L966 296 L963 296 L962 295 L956 295 L955 296 L952 296 L951 297 L950 297 L949 298 L949 299 L946 302 L945 302 L944 303 L939 303 L938 302 L937 302 L936 301 L935 301 L934 300 L933 300 L931 298 L930 298 L929 297 L928 297 L926 295 L923 295 L922 294 L918 294 L917 295 L915 295 L914 294 L914 292 L915 291 L915 290 L917 288 L917 287 L918 286 L918 285 L920 283 L920 282 L921 281 L921 280 L922 279 L922 278 L923 277 L923 276 L925 274 L925 273 L926 272 L926 271 L927 270 L927 269 L929 267 L929 266 L930 265 L930 264 L931 263 L931 262 L932 261 L932 260 L933 259 L933 258 L934 257 L934 256 L935 255 L935 254 L937 252 L937 251 L938 250 L938 249 L939 248 L939 247 L941 245 L941 244 L943 242 L943 241 L944 240 L944 239 L945 238 L945 237 L946 236 L946 235 L947 234 L947 232 L948 231 L948 230 L949 229 L949 227 L950 226 L950 225 L951 224 L951 222 L952 221 L952 220 L953 219 L953 217 L954 216 L954 215 L955 214 L955 213 L956 212 L956 211 L957 210 L957 208 L958 207 L958 205 L959 204 L959 203 L960 202 L960 200 L961 199 L961 197 L962 196 L962 193 L963 192 L963 190 L964 189 L964 187 L965 186 L965 184 L966 183 L966 180 L967 179 L967 169 L968 168 L968 164 L967 163 L967 159 L966 158 L966 157 L965 156 L965 155 L964 154 L964 153 L962 151 L955 151 L954 150 L952 150 L951 149 L950 149 L946 145 L945 145 L944 144 L941 144 L940 143 L938 143 L937 144 L933 144 L932 145 L930 145 L929 146 L925 146 L924 147 L922 147 L921 148 L919 148 L918 149 L916 149 L915 150 L913 150 L912 151 L911 151 L910 152 L909 152 L908 153 L907 153 L905 155 L904 155 L903 156 L901 156 L900 157 L899 157 L898 158 L897 158 L896 159 L895 159 L894 160 L893 160 L892 161 L891 161 L890 162 L889 162 L886 165 L885 165 L883 167 L882 167 L880 169 L879 169 L877 171 L876 171 L874 173 L873 173 L871 175 L870 175 L867 178 L866 178 L864 180 L863 180 L852 191 L851 191 L844 198 L843 198 L840 201 L839 201 L836 204 L836 205 L831 210 L831 211 L826 216 L826 217 L814 229 L814 230 L809 235 L809 236 L805 240 L805 241 L803 243 L803 244 L801 246 L801 247 L799 249 L799 250 L797 252 L797 253 L796 254 L796 255 L794 257 L794 258 L793 259 L793 260 L791 262 L791 263 L790 264 L790 265 L788 267 L788 268 L786 270 L786 271 L785 272 L785 273 L783 275 L783 276 L782 277 L782 279 L780 281 L779 280 L779 276 L780 275 L780 264 L779 263 L779 251 L778 250 L778 242 L777 241 L777 236 L776 235 L776 229 L775 228 L775 224 L774 223 L774 221 L773 220 L773 217 L772 216 L772 214 L771 213 L771 211 L770 210 L770 208 L769 207 L769 204 L768 203 L768 201 L767 200 L767 198 L766 197 L766 195 L765 194 L765 191 L764 190 L764 189 L763 188 L763 187 L760 184 L760 183 L759 182 L759 180 L757 178 L757 176 L756 175 L756 174 L755 173 L755 172 L754 171 L754 170 L752 168 L752 167 L749 164 L748 164 L747 163 L747 162 L740 155 L739 155 L737 153 L736 153 L735 152 L733 152 L732 151 L731 151 L730 150 L727 150 L726 149 L725 150 L723 150 L722 151 L721 151 L720 152 L718 152 L716 154 L716 155 L715 156 L715 158 L714 159 L714 160 L713 161 L713 167 L712 168 L712 170 L711 171 L711 172 L710 173 L710 175 L709 176 L709 181 L708 182 L708 188 L707 189 L707 191 L706 192 L706 194 L705 195 L705 196 L704 197 L704 199 L703 200 L703 201 L702 202 L701 201 L701 199 L700 198 L700 195 L699 194 L699 189 L698 188 L698 156 L697 155 L697 145 L695 143 L695 142 L694 141 L694 140 L693 139 L693 133 L692 132 L692 116 L693 115 L693 112 L692 111 L692 101 L691 100 L691 96 L690 95 L690 94 L684 88 L683 88 L682 87 L680 87 L677 84 L677 83 L676 82 L676 81 L675 80 L675 79 L673 77 L673 76 L672 75 L671 75 L670 74 L669 74 L667 72 L666 72 L665 71 L653 71 L652 72 L641 72 L639 74 L639 75 L638 76 L638 77 L637 78 L637 79 L636 80 L636 82 L634 84 L634 85 L632 87 L632 88 L629 91 L622 91 L620 89 L618 91 L613 91 L612 90 L606 90 L605 89 L602 89 L601 88 L600 88 L599 87 L598 87 L597 86 L592 86 L591 87 L587 87 L586 86 L583 86 L582 85 L579 85 L578 84 L576 84 L575 83 L572 83 L570 81 L570 80 L569 79 L569 78 L568 77 L568 70 L567 69 L567 67 L566 66 L566 59 L567 58 L567 50 L566 49 L566 48 L565 47 L565 46 L562 43 L562 42 L561 41 L561 39 L560 38 L560 37 L557 34 L556 34 L555 33 L549 33 L546 30 L546 29 L545 28 L545 27 L537 19 L536 19 L535 18 L534 18 L533 17 L532 17 L531 16 L524 16 L523 15 L520 15 L519 14 L515 14 L514 13 L511 13 L510 12 L506 12 L505 11 Z " fill="black"/></svg>