<svg width="423" height="499" xmlns="http://www.w3.org/2000/svg"><path d="M305 11 L304 12 L302 12 L301 13 L298 13 L297 14 L296 14 L294 16 L293 16 L292 17 L291 17 L290 18 L289 18 L288 19 L287 19 L286 20 L285 20 L284 21 L283 21 L282 22 L281 22 L278 25 L277 25 L275 27 L274 27 L271 30 L270 30 L267 33 L266 33 L265 34 L264 34 L263 35 L262 35 L260 37 L259 37 L258 38 L257 38 L255 40 L254 40 L253 41 L252 41 L250 43 L249 43 L245 47 L244 47 L242 49 L241 49 L233 57 L232 57 L232 58 L221 69 L221 70 L216 75 L216 76 L210 82 L210 83 L208 85 L208 86 L207 87 L207 88 L206 89 L206 90 L205 91 L205 93 L204 94 L204 97 L203 98 L203 103 L202 104 L202 110 L201 111 L201 113 L200 114 L200 116 L199 117 L199 118 L198 119 L197 119 L196 118 L196 115 L195 114 L195 112 L194 111 L194 108 L193 107 L193 106 L192 105 L192 104 L188 100 L188 99 L187 99 L185 97 L184 97 L183 96 L182 96 L180 98 L179 98 L176 95 L175 95 L169 89 L168 89 L164 85 L163 85 L161 83 L160 83 L158 81 L157 81 L156 80 L154 80 L153 79 L152 79 L149 76 L148 76 L143 71 L142 71 L138 67 L137 67 L136 66 L135 66 L126 57 L126 56 L122 52 L121 52 L119 50 L115 50 L114 51 L114 55 L115 56 L115 59 L116 60 L116 62 L117 63 L117 65 L118 66 L118 68 L119 69 L119 70 L120 71 L120 78 L121 79 L120 80 L120 94 L119 95 L119 100 L120 101 L120 111 L121 112 L121 119 L122 120 L122 124 L121 125 L120 125 L119 124 L118 124 L117 123 L115 123 L114 122 L112 122 L111 121 L110 121 L109 120 L108 120 L107 119 L103 119 L102 118 L97 118 L96 117 L93 117 L92 116 L88 116 L87 115 L72 115 L71 114 L70 114 L69 115 L64 115 L62 117 L60 117 L59 118 L57 118 L56 119 L52 119 L51 120 L49 120 L48 121 L45 121 L44 122 L42 122 L41 123 L39 123 L38 124 L37 124 L36 125 L35 125 L34 126 L33 126 L32 127 L31 127 L30 128 L29 128 L27 130 L26 130 L25 131 L24 131 L23 132 L22 132 L20 134 L19 134 L18 135 L17 135 L14 138 L17 141 L18 141 L19 142 L21 142 L22 143 L24 143 L25 144 L44 144 L45 145 L51 145 L52 146 L55 146 L56 147 L58 147 L59 148 L60 148 L62 150 L63 150 L64 151 L66 151 L67 152 L69 152 L70 153 L73 153 L74 154 L83 154 L84 155 L85 155 L86 156 L87 156 L88 157 L89 157 L93 161 L94 161 L95 162 L96 162 L97 163 L98 163 L99 164 L100 164 L101 165 L102 165 L103 166 L104 166 L105 167 L106 167 L109 170 L110 170 L125 185 L126 185 L136 195 L137 195 L155 213 L155 214 L158 217 L158 218 L161 221 L161 222 L164 225 L164 226 L167 229 L167 230 L168 231 L168 232 L169 233 L169 234 L170 235 L170 236 L171 237 L171 239 L172 240 L172 241 L173 242 L173 243 L174 244 L174 245 L175 246 L175 247 L177 249 L177 250 L179 252 L179 253 L180 254 L180 256 L181 257 L181 258 L180 259 L179 259 L177 257 L177 256 L176 255 L176 254 L175 253 L175 252 L174 251 L174 250 L172 248 L172 247 L170 245 L170 244 L169 243 L169 242 L168 241 L168 240 L166 238 L166 237 L164 235 L164 234 L162 232 L162 231 L161 230 L161 229 L160 228 L160 227 L159 226 L159 225 L157 223 L157 222 L156 221 L156 220 L151 215 L150 215 L148 213 L147 213 L146 212 L144 212 L143 211 L142 211 L140 209 L139 209 L138 208 L138 207 L137 207 L132 202 L131 202 L130 201 L129 201 L128 200 L127 200 L126 199 L125 199 L124 198 L123 198 L122 197 L120 197 L119 196 L117 196 L116 195 L113 195 L112 194 L108 194 L107 193 L89 193 L88 194 L84 194 L83 195 L81 195 L80 196 L78 196 L77 197 L74 197 L73 198 L72 198 L71 199 L69 199 L68 200 L67 200 L66 201 L65 201 L64 202 L63 202 L62 203 L61 203 L60 204 L57 204 L56 205 L54 205 L53 206 L52 206 L51 207 L50 207 L49 208 L48 208 L44 212 L44 213 L43 214 L43 215 L42 216 L42 217 L41 218 L41 219 L40 220 L40 221 L38 223 L38 224 L34 228 L34 229 L31 232 L31 233 L27 237 L27 238 L25 240 L25 241 L22 244 L22 245 L20 247 L20 248 L17 251 L17 252 L14 255 L14 256 L13 257 L13 258 L12 259 L12 260 L11 261 L11 264 L10 265 L11 266 L11 267 L12 268 L14 268 L15 269 L16 269 L17 268 L21 268 L22 267 L23 267 L24 266 L26 266 L27 265 L28 265 L29 264 L30 264 L31 263 L32 263 L34 261 L35 261 L36 260 L37 260 L38 259 L40 259 L41 258 L44 258 L45 257 L60 257 L61 258 L68 258 L69 259 L80 259 L81 258 L84 258 L85 257 L87 257 L88 256 L90 256 L91 255 L92 255 L93 254 L95 254 L96 253 L97 253 L99 251 L101 251 L102 250 L104 250 L105 251 L107 251 L108 252 L110 252 L111 253 L114 253 L115 254 L121 254 L122 255 L140 255 L141 254 L159 254 L160 255 L161 255 L162 256 L163 256 L171 264 L171 265 L172 266 L172 267 L173 268 L173 269 L174 270 L174 272 L175 273 L175 276 L176 277 L176 279 L177 280 L177 282 L178 283 L178 286 L179 287 L179 289 L180 290 L180 293 L179 294 L176 291 L176 289 L174 287 L174 286 L172 284 L172 283 L170 281 L170 280 L162 272 L162 271 L157 266 L155 266 L154 265 L144 265 L143 264 L140 264 L139 263 L135 263 L134 262 L131 262 L130 261 L120 261 L119 262 L116 262 L115 263 L113 263 L111 265 L110 265 L109 266 L108 266 L107 267 L106 267 L103 270 L102 270 L102 271 L99 274 L99 275 L98 276 L98 277 L97 278 L97 279 L96 280 L96 281 L93 284 L92 284 L82 294 L82 295 L79 298 L79 299 L75 303 L75 304 L72 307 L72 308 L69 311 L69 312 L68 313 L68 314 L67 315 L67 316 L66 317 L66 318 L65 319 L65 321 L64 322 L64 323 L63 324 L63 325 L59 329 L59 330 L56 333 L56 334 L55 335 L55 336 L53 338 L53 339 L54 340 L70 340 L71 339 L72 339 L73 338 L74 338 L75 337 L78 337 L79 336 L82 336 L83 335 L85 335 L86 334 L88 334 L89 333 L91 333 L92 332 L94 332 L95 331 L96 331 L97 330 L100 330 L101 329 L103 329 L104 328 L106 328 L107 327 L108 327 L109 326 L111 326 L112 325 L113 325 L115 323 L116 323 L121 318 L122 318 L123 317 L124 317 L125 316 L126 316 L127 315 L128 315 L129 314 L130 314 L131 313 L133 313 L134 312 L135 312 L136 311 L138 311 L139 310 L141 310 L142 309 L143 309 L146 306 L147 306 L160 293 L160 292 L162 290 L162 289 L164 287 L165 287 L167 289 L167 290 L169 292 L169 293 L171 295 L171 296 L172 297 L172 298 L173 299 L173 300 L174 301 L174 302 L175 303 L175 304 L176 305 L176 306 L177 307 L177 309 L176 310 L163 310 L162 311 L155 311 L154 312 L150 312 L149 313 L147 313 L146 314 L144 314 L143 315 L142 315 L141 316 L140 316 L139 317 L137 317 L136 318 L134 318 L133 319 L131 319 L129 321 L128 321 L123 326 L123 327 L121 329 L121 331 L120 332 L120 333 L119 334 L119 336 L118 337 L118 369 L119 370 L119 386 L120 387 L120 393 L121 394 L121 398 L122 399 L122 406 L123 407 L123 414 L124 415 L124 418 L125 419 L125 424 L126 425 L126 428 L127 429 L127 432 L128 433 L128 435 L129 436 L129 438 L130 439 L130 441 L131 442 L131 444 L132 445 L132 448 L133 449 L133 450 L134 451 L134 452 L135 453 L135 454 L136 455 L136 457 L138 459 L138 460 L139 461 L139 462 L141 464 L141 465 L144 468 L144 469 L145 470 L145 471 L148 474 L150 474 L151 475 L152 475 L153 476 L154 476 L155 477 L158 477 L159 478 L161 478 L163 480 L163 481 L164 482 L165 482 L166 483 L171 483 L172 484 L181 484 L182 485 L185 485 L186 486 L189 486 L190 487 L221 487 L222 486 L227 486 L228 485 L241 485 L242 484 L248 484 L249 483 L250 483 L251 482 L252 482 L253 481 L254 481 L255 482 L256 481 L257 481 L262 476 L263 476 L270 469 L270 468 L271 467 L271 466 L272 465 L272 464 L273 463 L273 462 L274 461 L274 460 L276 458 L276 457 L277 456 L277 455 L278 454 L278 453 L279 452 L279 450 L280 449 L280 448 L281 447 L281 445 L282 444 L282 443 L283 442 L283 440 L284 439 L284 435 L285 434 L285 429 L286 428 L286 425 L287 424 L287 422 L288 421 L288 419 L289 418 L289 415 L290 414 L290 410 L291 409 L291 406 L292 405 L292 404 L293 403 L293 398 L294 397 L294 384 L295 383 L295 375 L296 374 L296 369 L297 368 L297 361 L298 360 L298 351 L299 350 L299 338 L298 337 L298 333 L297 332 L297 330 L295 328 L295 327 L291 323 L290 323 L286 319 L285 319 L282 316 L281 316 L279 314 L278 314 L274 310 L274 309 L273 308 L273 306 L274 305 L277 305 L278 306 L281 306 L282 307 L300 307 L301 306 L302 306 L303 305 L313 305 L314 306 L318 306 L319 307 L325 307 L326 306 L331 306 L332 305 L335 305 L336 304 L339 304 L340 303 L348 303 L349 302 L354 302 L355 301 L360 301 L361 300 L363 300 L364 299 L366 299 L367 298 L368 298 L369 297 L370 297 L372 295 L373 295 L373 294 L374 293 L374 291 L373 290 L373 289 L372 288 L371 288 L370 287 L368 287 L367 286 L364 286 L363 285 L361 285 L360 284 L357 284 L356 283 L350 283 L349 282 L347 282 L345 280 L344 280 L343 279 L337 279 L336 278 L331 278 L330 277 L324 277 L323 276 L320 276 L319 275 L314 275 L313 274 L309 274 L308 273 L305 273 L304 272 L302 272 L301 271 L299 271 L298 270 L296 270 L292 266 L290 266 L289 265 L290 264 L294 264 L295 265 L297 265 L298 266 L302 266 L303 267 L320 267 L321 266 L323 266 L324 265 L325 265 L326 264 L328 264 L329 263 L331 263 L332 262 L335 262 L336 261 L341 261 L342 260 L362 260 L363 261 L382 261 L383 260 L385 260 L386 259 L387 259 L388 258 L391 258 L392 257 L394 257 L395 256 L407 256 L408 255 L409 255 L411 253 L411 251 L408 248 L407 248 L406 247 L405 247 L403 245 L402 245 L400 243 L399 243 L397 241 L396 241 L395 240 L393 240 L392 239 L391 239 L389 237 L388 237 L386 235 L385 235 L383 233 L382 233 L380 231 L379 231 L378 230 L377 230 L375 228 L374 228 L373 227 L371 227 L370 226 L369 226 L368 225 L366 225 L365 224 L364 224 L363 223 L362 223 L361 222 L360 222 L359 221 L358 221 L357 220 L356 220 L354 218 L353 218 L352 217 L351 217 L349 215 L348 215 L347 214 L346 214 L345 213 L343 213 L342 212 L340 212 L339 211 L337 211 L335 209 L334 209 L333 208 L332 208 L331 207 L329 207 L328 206 L326 206 L325 205 L322 205 L321 204 L318 204 L317 203 L314 203 L313 202 L311 202 L310 201 L304 201 L303 200 L301 200 L300 199 L302 197 L303 197 L304 196 L305 196 L307 194 L308 194 L309 193 L310 193 L311 192 L312 192 L314 190 L315 190 L317 188 L318 188 L319 187 L320 187 L327 180 L327 179 L330 176 L330 175 L332 173 L332 172 L333 171 L333 170 L335 168 L335 167 L337 165 L337 164 L338 163 L338 162 L342 158 L342 157 L344 155 L344 154 L346 152 L346 151 L347 150 L347 149 L349 147 L349 146 L350 145 L350 144 L351 143 L351 142 L352 141 L352 140 L353 139 L353 138 L354 137 L354 136 L355 135 L355 134 L356 133 L356 132 L357 131 L357 130 L358 129 L358 127 L359 126 L359 121 L360 120 L360 119 L361 118 L361 117 L363 115 L363 114 L364 113 L364 112 L365 111 L365 109 L366 108 L366 106 L367 105 L367 104 L368 103 L368 102 L369 101 L369 99 L370 98 L370 97 L375 92 L375 86 L373 84 L371 84 L370 85 L367 85 L366 86 L363 86 L362 87 L361 87 L360 88 L359 88 L358 89 L357 89 L356 90 L355 90 L354 91 L353 91 L351 93 L350 93 L347 96 L346 96 L345 97 L344 97 L343 98 L342 98 L341 99 L339 99 L338 100 L337 100 L336 101 L334 101 L333 102 L331 102 L330 103 L328 103 L327 104 L326 104 L325 105 L323 105 L322 106 L321 106 L320 107 L319 107 L318 108 L317 108 L316 109 L315 109 L314 110 L313 110 L312 111 L311 111 L310 112 L308 112 L307 113 L306 113 L305 114 L304 114 L303 115 L302 115 L301 116 L300 116 L298 118 L297 118 L296 119 L295 119 L294 120 L293 120 L292 121 L291 121 L290 122 L289 122 L288 123 L287 123 L286 124 L285 124 L284 125 L283 124 L283 122 L284 121 L284 120 L287 117 L287 116 L288 115 L288 114 L289 113 L289 112 L290 111 L290 110 L291 109 L291 108 L292 107 L292 106 L293 105 L293 104 L294 103 L294 102 L295 101 L295 100 L296 99 L296 98 L298 96 L298 95 L299 94 L299 93 L300 92 L300 91 L301 90 L301 89 L302 88 L302 86 L303 85 L303 80 L304 79 L304 62 L303 61 L303 57 L304 56 L304 55 L303 54 L303 46 L304 45 L304 32 L305 31 L305 29 L306 28 L306 25 L307 24 L307 22 L309 20 L309 19 L310 18 L310 16 L311 15 L311 12 L310 11 Z " fill="black"/></svg>