<svg width="884" height="973" xmlns="http://www.w3.org/2000/svg"><path d="M883 897 L883 898 L882 899 L882 900 L881 901 L881 902 L878 905 L878 906 L877 907 L877 908 L876 909 L876 911 L875 912 L875 913 L874 914 L874 915 L873 916 L873 917 L872 918 L872 919 L871 920 L871 921 L870 922 L870 923 L869 924 L869 928 L868 929 L868 931 L867 932 L867 933 L866 934 L866 935 L865 936 L865 937 L864 938 L864 939 L863 940 L863 942 L862 943 L862 944 L861 945 L861 947 L860 948 L860 950 L859 951 L859 953 L858 954 L858 956 L857 957 L857 959 L856 960 L856 965 L855 966 L855 968 L854 969 L854 972 L858 972 L858 969 L859 968 L859 967 L860 966 L860 965 L861 964 L861 963 L862 962 L862 960 L863 959 L863 958 L864 957 L864 956 L865 955 L865 954 L866 953 L867 953 L868 954 L868 958 L867 959 L867 961 L866 962 L866 972 L870 972 L870 971 L871 970 L871 969 L872 968 L872 967 L873 966 L873 965 L874 964 L874 961 L875 960 L875 958 L876 957 L876 956 L877 955 L877 954 L878 953 L878 952 L879 951 L879 950 L880 949 L880 948 L881 947 L881 946 L882 945 L882 944 L883 943 Z M873 714 L872 715 L862 715 L861 716 L855 716 L854 717 L849 717 L848 718 L846 718 L845 719 L843 719 L842 720 L840 720 L839 721 L838 721 L837 722 L835 722 L834 723 L832 723 L831 724 L829 724 L828 725 L826 725 L825 726 L824 726 L823 727 L822 727 L821 728 L820 728 L819 729 L818 729 L817 730 L816 730 L814 732 L813 732 L810 735 L809 735 L808 736 L807 736 L805 738 L804 738 L800 742 L799 742 L797 744 L796 744 L789 751 L788 751 L774 765 L774 766 L771 769 L771 770 L769 772 L769 773 L768 774 L768 775 L767 776 L767 777 L766 778 L766 779 L765 780 L765 781 L764 782 L764 783 L763 784 L763 787 L762 788 L762 792 L761 793 L761 794 L760 795 L760 798 L761 798 L762 799 L763 798 L765 798 L766 797 L767 797 L768 796 L770 796 L771 795 L774 795 L775 794 L777 794 L778 793 L779 793 L780 792 L781 792 L783 790 L785 790 L786 789 L787 789 L788 788 L789 788 L790 787 L792 787 L793 786 L796 786 L797 785 L802 785 L803 784 L807 784 L808 783 L812 783 L813 782 L824 782 L825 783 L828 783 L829 784 L830 784 L831 785 L833 785 L834 786 L837 786 L838 787 L841 787 L842 788 L845 788 L846 789 L849 789 L850 790 L854 790 L855 791 L857 791 L858 792 L859 792 L861 794 L862 794 L863 795 L864 795 L865 796 L871 796 L872 797 L874 797 L875 796 L876 796 L877 797 L883 797 L883 715 L880 715 L879 714 L877 714 L876 715 L874 715 Z M569 11 L568 12 L568 16 L567 17 L567 20 L566 21 L566 23 L565 24 L565 28 L564 29 L564 38 L565 39 L565 40 L564 41 L564 45 L563 46 L563 48 L562 49 L562 52 L563 53 L563 55 L564 56 L564 59 L565 60 L565 61 L566 62 L565 63 L564 63 L562 61 L561 61 L558 58 L557 58 L554 55 L552 55 L551 54 L550 54 L549 53 L548 53 L547 52 L544 52 L543 51 L540 51 L539 50 L536 50 L535 49 L522 49 L521 50 L520 50 L519 51 L517 51 L516 52 L511 52 L511 55 L512 56 L512 57 L513 58 L514 58 L515 59 L516 59 L517 60 L518 60 L519 61 L520 61 L526 67 L526 68 L527 69 L527 70 L529 72 L529 74 L530 75 L530 76 L532 78 L532 79 L539 86 L540 86 L542 88 L541 89 L539 89 L538 90 L537 90 L536 91 L533 91 L532 92 L529 92 L528 93 L504 93 L503 94 L501 94 L500 95 L498 95 L497 96 L496 96 L495 97 L494 97 L493 98 L492 98 L491 99 L490 99 L488 101 L487 101 L486 102 L486 103 L484 105 L484 107 L487 107 L488 108 L492 108 L493 109 L498 109 L499 110 L502 110 L503 111 L505 111 L509 115 L509 116 L510 117 L510 120 L509 121 L507 121 L506 122 L504 122 L503 123 L499 123 L498 124 L497 124 L496 125 L494 125 L493 126 L492 126 L487 131 L486 131 L483 134 L482 134 L480 136 L479 136 L478 137 L477 137 L476 138 L476 140 L477 141 L478 141 L479 142 L480 142 L481 143 L483 143 L484 144 L487 144 L488 145 L489 145 L491 147 L493 147 L495 149 L497 149 L498 150 L499 150 L500 151 L502 151 L503 152 L505 152 L506 153 L511 153 L512 154 L512 155 L511 156 L511 157 L501 167 L500 167 L499 168 L498 168 L497 169 L496 169 L495 170 L494 170 L493 171 L490 171 L489 172 L488 172 L486 174 L485 174 L483 176 L482 176 L482 177 L479 180 L479 181 L478 182 L478 184 L479 185 L479 187 L477 189 L477 190 L473 194 L473 195 L472 196 L472 197 L470 199 L470 200 L468 202 L467 201 L467 198 L468 197 L468 194 L469 193 L469 190 L468 189 L468 184 L467 183 L467 181 L466 180 L466 177 L465 176 L465 175 L464 174 L463 174 L462 173 L460 173 L457 170 L457 169 L455 167 L455 166 L454 165 L454 164 L453 163 L453 162 L452 161 L452 160 L451 159 L451 158 L450 157 L450 156 L448 154 L447 154 L443 158 L443 159 L442 160 L441 160 L439 162 L435 158 L435 152 L436 151 L436 138 L435 137 L435 135 L434 134 L434 133 L433 132 L433 130 L432 129 L432 125 L431 124 L431 121 L430 120 L430 118 L429 117 L429 116 L428 115 L428 113 L427 112 L427 110 L418 101 L417 101 L414 98 L414 97 L409 92 L408 92 L405 89 L404 89 L402 87 L401 87 L400 86 L399 86 L397 84 L396 84 L392 80 L391 80 L389 82 L389 94 L390 95 L390 99 L391 100 L391 105 L390 106 L390 108 L389 109 L389 121 L390 122 L390 125 L391 126 L391 127 L394 130 L394 132 L395 133 L395 135 L396 136 L396 139 L397 140 L397 142 L398 143 L398 144 L400 146 L400 147 L402 149 L402 150 L414 162 L414 166 L415 167 L415 168 L414 169 L413 168 L412 168 L410 166 L410 165 L408 163 L407 164 L407 183 L406 184 L405 184 L404 185 L403 185 L401 187 L401 190 L402 191 L402 193 L403 194 L403 196 L404 197 L404 204 L405 205 L405 211 L406 212 L406 215 L405 216 L403 216 L401 218 L401 222 L402 223 L402 225 L403 226 L403 228 L404 229 L404 230 L405 231 L405 233 L406 234 L406 237 L407 238 L407 241 L408 242 L408 245 L409 246 L409 247 L410 248 L410 250 L411 251 L411 252 L413 254 L413 255 L415 257 L415 258 L433 276 L434 276 L436 278 L437 278 L440 281 L439 282 L438 282 L430 290 L429 289 L428 289 L427 288 L426 288 L425 287 L417 287 L416 288 L416 289 L415 290 L415 298 L414 299 L414 302 L413 303 L413 305 L412 306 L412 308 L411 309 L410 309 L409 308 L409 307 L408 306 L408 303 L407 302 L407 290 L405 288 L405 287 L404 287 L403 286 L401 286 L400 287 L399 287 L396 290 L393 290 L391 288 L391 284 L392 283 L392 275 L393 274 L393 259 L392 258 L392 255 L391 254 L391 252 L390 251 L390 250 L389 249 L389 247 L388 246 L388 245 L386 243 L386 242 L384 240 L384 239 L383 238 L383 237 L382 236 L382 227 L383 226 L383 225 L384 224 L384 223 L385 222 L385 219 L383 217 L379 217 L376 214 L376 213 L375 212 L374 212 L371 209 L371 208 L370 207 L370 206 L371 205 L372 205 L373 204 L375 204 L376 203 L377 203 L378 202 L379 202 L380 201 L381 201 L382 200 L383 200 L386 197 L387 197 L388 196 L388 190 L386 188 L386 187 L381 182 L380 182 L379 181 L378 181 L377 180 L375 180 L374 179 L372 179 L371 178 L369 178 L368 177 L367 177 L366 176 L364 176 L363 175 L362 175 L361 174 L359 174 L358 173 L357 173 L356 172 L354 172 L353 171 L358 166 L359 166 L361 164 L362 164 L364 162 L365 162 L366 161 L367 161 L368 160 L369 160 L370 159 L371 159 L372 158 L373 158 L374 157 L375 157 L379 153 L380 153 L381 152 L381 151 L382 150 L380 148 L379 148 L378 147 L377 147 L375 145 L374 145 L373 144 L372 144 L370 142 L369 142 L368 141 L366 141 L365 140 L364 140 L363 139 L361 139 L360 138 L358 138 L357 137 L354 137 L353 136 L342 136 L341 137 L337 137 L336 138 L334 138 L333 139 L331 139 L330 140 L328 140 L327 141 L325 141 L324 142 L320 142 L319 141 L320 140 L320 139 L322 137 L323 137 L323 136 L336 123 L336 122 L337 121 L337 117 L338 116 L338 106 L339 105 L339 101 L340 100 L340 98 L341 97 L341 96 L343 94 L343 93 L344 92 L344 89 L345 88 L345 85 L344 84 L334 84 L333 85 L330 85 L329 86 L326 86 L325 87 L324 87 L323 88 L320 88 L319 89 L318 89 L317 90 L315 90 L314 91 L313 91 L312 92 L311 92 L309 94 L308 94 L301 101 L300 100 L300 64 L299 63 L299 61 L298 60 L298 59 L297 58 L294 58 L286 66 L285 66 L280 71 L279 71 L276 74 L276 75 L273 78 L273 79 L272 80 L272 81 L271 82 L271 83 L270 84 L270 85 L269 86 L269 88 L268 89 L268 90 L266 92 L264 90 L264 89 L263 88 L263 87 L262 86 L262 85 L261 84 L261 83 L260 82 L260 81 L257 78 L257 77 L249 69 L248 69 L243 64 L243 63 L239 59 L239 58 L237 56 L237 55 L236 55 L234 53 L233 53 L232 54 L231 54 L231 55 L230 56 L230 66 L229 67 L229 72 L228 73 L228 88 L229 89 L229 92 L228 93 L225 93 L224 92 L218 92 L217 93 L216 93 L214 95 L214 96 L213 97 L213 99 L212 100 L212 104 L211 105 L209 105 L208 106 L206 106 L205 105 L204 105 L202 103 L200 103 L199 102 L191 102 L190 103 L189 103 L188 104 L188 105 L187 106 L187 109 L188 110 L188 112 L189 113 L189 114 L190 115 L190 116 L192 118 L193 118 L194 119 L201 119 L202 120 L202 121 L203 122 L204 122 L210 128 L211 128 L213 130 L214 130 L222 138 L223 138 L224 139 L223 140 L222 140 L221 141 L219 141 L218 142 L216 142 L215 143 L214 143 L213 144 L212 144 L211 145 L210 145 L208 147 L207 147 L206 148 L205 148 L202 151 L201 151 L198 154 L197 154 L194 157 L193 157 L192 158 L191 158 L188 161 L188 162 L189 163 L190 163 L191 164 L192 164 L193 165 L196 165 L197 166 L199 166 L200 167 L203 167 L204 168 L207 168 L208 169 L213 169 L214 170 L224 170 L225 171 L229 171 L230 172 L229 173 L229 174 L228 175 L228 177 L227 178 L227 185 L226 186 L226 190 L225 191 L225 196 L224 197 L224 203 L223 204 L223 222 L224 223 L224 226 L225 227 L225 228 L226 229 L227 229 L230 232 L231 232 L232 233 L233 232 L234 232 L238 228 L238 227 L239 226 L239 225 L240 224 L240 223 L241 222 L241 220 L242 219 L242 218 L245 215 L245 214 L246 213 L247 213 L248 214 L248 219 L249 220 L249 223 L250 224 L250 226 L251 227 L251 228 L252 229 L252 230 L254 232 L254 233 L264 243 L265 243 L266 244 L267 244 L269 246 L269 247 L270 248 L270 249 L271 250 L271 251 L272 252 L272 253 L274 255 L274 256 L275 257 L275 258 L277 260 L277 261 L278 262 L278 263 L279 264 L279 265 L281 267 L284 267 L286 265 L286 263 L287 262 L287 261 L288 260 L288 258 L289 257 L289 256 L290 255 L290 254 L292 252 L292 251 L294 249 L294 248 L296 246 L296 245 L298 243 L300 245 L300 246 L302 248 L302 249 L304 251 L304 252 L306 254 L306 256 L307 257 L307 258 L308 259 L308 260 L310 262 L311 262 L312 263 L313 263 L314 264 L316 264 L317 265 L321 265 L322 266 L324 266 L325 267 L326 267 L328 269 L328 270 L329 271 L329 272 L330 273 L330 275 L331 276 L331 277 L332 278 L332 280 L333 281 L333 282 L334 283 L334 284 L339 289 L340 289 L341 290 L342 290 L343 291 L344 291 L346 293 L347 293 L348 294 L349 294 L350 295 L351 295 L352 296 L353 296 L354 297 L355 297 L356 298 L360 298 L361 299 L362 298 L366 298 L367 299 L364 302 L363 302 L362 303 L361 303 L359 305 L359 306 L358 307 L358 310 L359 311 L359 313 L360 314 L360 315 L361 316 L361 319 L362 320 L362 323 L361 324 L360 323 L360 322 L359 321 L359 320 L358 319 L358 318 L354 314 L353 314 L352 315 L351 315 L351 316 L350 317 L350 319 L351 320 L351 321 L350 322 L346 322 L345 321 L345 319 L343 317 L343 316 L341 314 L340 314 L338 312 L336 312 L335 313 L335 314 L334 315 L334 319 L333 320 L332 320 L328 316 L328 314 L326 312 L326 311 L322 307 L318 307 L317 308 L317 309 L316 310 L316 312 L315 313 L315 324 L313 326 L313 327 L311 329 L308 326 L308 325 L307 324 L307 322 L306 321 L306 320 L304 318 L303 318 L302 317 L300 317 L299 316 L299 315 L297 313 L297 312 L296 312 L295 311 L294 312 L293 312 L292 313 L291 313 L291 314 L290 315 L290 316 L289 317 L289 318 L288 319 L287 319 L286 318 L286 316 L285 315 L285 312 L284 311 L284 309 L283 308 L283 305 L282 304 L282 300 L281 299 L281 295 L280 294 L280 291 L279 290 L279 288 L278 287 L278 286 L277 285 L277 284 L276 283 L276 282 L275 281 L275 280 L273 278 L273 277 L271 275 L271 274 L270 274 L265 269 L264 269 L262 267 L261 267 L258 264 L257 264 L256 263 L256 262 L255 262 L254 261 L254 260 L253 259 L252 259 L250 257 L249 257 L248 256 L247 256 L246 255 L245 255 L243 253 L242 253 L241 252 L239 252 L238 251 L237 251 L235 249 L234 249 L233 248 L232 248 L231 247 L230 248 L230 252 L231 253 L231 256 L230 257 L229 257 L228 256 L227 256 L226 255 L225 255 L224 254 L221 254 L220 253 L219 253 L218 252 L217 252 L216 251 L213 251 L212 250 L208 250 L207 251 L206 251 L203 254 L199 254 L198 253 L195 253 L194 252 L195 251 L196 251 L197 250 L198 250 L199 249 L200 249 L201 248 L202 248 L203 247 L204 247 L205 246 L206 246 L207 245 L208 245 L209 244 L210 244 L211 243 L213 243 L214 242 L215 242 L217 240 L217 239 L218 238 L218 237 L219 236 L219 232 L220 231 L220 228 L218 226 L212 226 L211 225 L210 225 L209 224 L207 224 L206 223 L201 223 L200 222 L195 222 L194 221 L192 221 L188 217 L185 217 L184 216 L179 216 L178 217 L174 217 L173 216 L175 214 L175 213 L177 211 L177 210 L179 208 L179 207 L180 206 L180 205 L182 203 L182 202 L183 201 L183 199 L184 198 L184 197 L185 196 L185 195 L186 194 L186 192 L187 191 L187 188 L188 187 L187 186 L183 186 L182 187 L178 187 L177 188 L174 188 L173 189 L171 189 L170 190 L167 190 L164 193 L163 193 L160 196 L159 196 L158 197 L156 197 L155 198 L153 198 L152 199 L151 199 L150 200 L149 200 L148 201 L147 201 L147 202 L137 212 L137 213 L134 216 L134 217 L133 218 L133 219 L132 220 L132 221 L131 222 L131 224 L130 225 L130 228 L129 229 L129 237 L130 238 L130 239 L131 240 L131 241 L132 242 L132 243 L134 245 L134 247 L133 248 L132 247 L126 247 L125 246 L122 246 L121 245 L119 245 L118 244 L116 244 L115 243 L112 243 L111 242 L113 240 L114 240 L116 238 L117 238 L122 233 L122 232 L123 231 L123 230 L124 229 L124 228 L125 227 L125 225 L126 224 L126 223 L127 222 L127 220 L128 219 L128 216 L129 215 L129 213 L130 212 L130 209 L131 208 L131 207 L132 206 L132 203 L133 202 L133 200 L134 199 L134 195 L135 194 L135 190 L136 189 L136 186 L137 185 L137 183 L136 182 L136 177 L135 176 L135 175 L132 175 L131 176 L131 177 L129 179 L128 179 L127 180 L125 180 L124 181 L121 181 L120 182 L119 182 L118 183 L116 183 L108 191 L107 191 L105 193 L104 193 L103 194 L102 194 L100 196 L99 196 L95 200 L95 201 L94 202 L94 203 L93 204 L93 205 L92 206 L91 205 L91 202 L90 201 L90 196 L89 195 L89 192 L88 191 L88 186 L87 185 L87 182 L86 181 L86 178 L85 177 L85 176 L84 175 L84 174 L83 173 L83 172 L82 171 L82 170 L81 169 L81 167 L80 166 L80 165 L77 162 L76 162 L72 166 L72 167 L71 168 L71 169 L70 170 L70 171 L69 172 L69 173 L68 174 L68 176 L67 177 L67 179 L66 180 L66 182 L65 183 L65 185 L64 186 L64 189 L63 190 L63 196 L62 197 L62 209 L63 210 L63 214 L62 215 L61 215 L60 214 L59 214 L58 213 L57 213 L56 212 L54 212 L53 211 L52 211 L51 210 L50 210 L48 208 L47 208 L46 207 L42 207 L41 206 L35 206 L34 205 L29 205 L28 206 L27 205 L21 205 L20 206 L19 206 L19 209 L20 210 L20 211 L21 212 L21 213 L23 215 L23 216 L24 217 L24 218 L25 219 L25 220 L26 221 L26 222 L28 224 L28 225 L29 226 L29 227 L32 230 L32 231 L42 241 L40 243 L35 243 L34 244 L32 244 L31 245 L30 245 L29 246 L28 246 L26 248 L25 248 L23 250 L22 250 L19 253 L18 253 L13 258 L12 258 L11 259 L11 261 L12 261 L13 262 L16 262 L17 263 L18 263 L19 264 L19 270 L18 271 L18 277 L19 278 L19 279 L20 280 L29 280 L30 281 L32 281 L33 282 L31 284 L31 285 L30 286 L30 287 L29 288 L29 289 L28 290 L28 291 L27 292 L27 293 L26 294 L26 295 L25 296 L25 297 L24 298 L24 299 L23 300 L23 302 L22 303 L22 304 L23 305 L41 305 L42 304 L51 304 L52 303 L55 303 L56 302 L58 302 L59 301 L62 301 L63 300 L65 300 L66 301 L66 308 L67 309 L67 313 L68 314 L68 315 L71 318 L72 318 L73 319 L74 319 L75 320 L76 320 L77 321 L77 322 L78 322 L82 326 L83 326 L86 329 L87 329 L89 331 L90 331 L92 333 L93 333 L95 335 L96 335 L105 344 L106 344 L107 345 L110 345 L113 342 L113 341 L114 340 L114 335 L113 334 L113 327 L112 326 L112 323 L111 322 L111 319 L110 318 L110 316 L109 315 L109 313 L108 312 L108 310 L107 309 L107 308 L106 307 L106 306 L105 305 L105 303 L104 302 L104 301 L103 300 L104 299 L105 299 L106 298 L116 298 L117 299 L117 301 L118 302 L118 303 L119 304 L119 305 L120 306 L120 308 L121 309 L121 310 L122 311 L122 312 L123 313 L123 314 L125 316 L125 317 L127 319 L127 320 L133 326 L134 326 L136 328 L137 328 L139 330 L140 330 L142 332 L143 332 L144 333 L145 333 L146 334 L147 334 L148 335 L149 335 L151 337 L153 337 L154 338 L156 338 L157 339 L161 339 L162 340 L165 340 L166 341 L168 341 L169 342 L176 342 L176 340 L174 338 L174 337 L172 335 L172 334 L171 333 L171 332 L169 330 L169 329 L168 328 L168 327 L167 326 L167 324 L166 323 L166 322 L165 321 L165 320 L164 319 L164 318 L162 316 L162 315 L160 313 L160 312 L157 309 L157 308 L156 307 L156 306 L155 305 L156 304 L157 304 L163 310 L164 310 L166 312 L167 312 L168 313 L169 313 L170 314 L172 314 L173 315 L189 315 L190 314 L191 315 L192 314 L199 314 L200 313 L204 313 L205 312 L210 312 L211 313 L212 313 L214 315 L214 318 L215 318 L216 319 L217 319 L218 320 L219 320 L220 321 L224 321 L225 322 L227 322 L228 323 L237 323 L238 324 L240 324 L241 325 L242 325 L243 326 L244 326 L245 327 L246 327 L247 328 L248 328 L249 329 L251 329 L252 330 L257 330 L258 329 L261 329 L262 328 L263 328 L264 327 L265 327 L266 328 L263 331 L262 331 L261 332 L261 334 L260 335 L261 336 L261 337 L260 338 L260 341 L259 342 L255 342 L254 343 L254 346 L256 348 L256 349 L257 350 L257 352 L258 353 L258 357 L259 358 L259 360 L260 361 L260 362 L261 363 L261 364 L262 365 L262 366 L263 367 L263 368 L264 369 L264 370 L261 373 L261 374 L259 376 L257 376 L254 373 L253 373 L246 366 L245 366 L244 365 L242 365 L241 366 L240 366 L240 367 L239 368 L239 370 L238 371 L236 371 L235 370 L234 370 L233 369 L232 369 L229 366 L228 366 L225 363 L223 363 L222 362 L221 362 L220 361 L213 361 L212 362 L212 363 L211 364 L211 371 L210 372 L209 372 L208 371 L208 370 L207 369 L207 367 L205 365 L205 364 L195 354 L194 354 L193 353 L192 353 L191 352 L190 352 L189 351 L188 351 L187 350 L183 350 L182 349 L181 349 L180 348 L176 348 L175 347 L172 347 L171 346 L168 346 L167 345 L165 345 L164 344 L161 344 L160 343 L153 343 L152 342 L146 342 L146 343 L147 344 L146 345 L145 345 L144 346 L137 346 L136 345 L134 345 L133 344 L132 344 L131 343 L126 343 L125 342 L124 343 L123 342 L122 342 L120 344 L120 351 L118 353 L110 353 L109 354 L108 354 L107 355 L106 355 L105 356 L105 359 L107 361 L108 361 L109 362 L111 362 L114 365 L114 366 L113 367 L112 367 L111 366 L108 366 L107 365 L104 365 L103 364 L83 364 L82 365 L79 365 L78 366 L76 366 L75 367 L73 367 L72 368 L71 368 L68 371 L67 371 L63 375 L62 375 L57 380 L56 380 L52 384 L52 385 L48 389 L48 390 L45 393 L45 394 L44 395 L44 396 L43 397 L43 401 L44 402 L45 402 L46 403 L50 403 L51 404 L60 404 L61 405 L64 405 L65 404 L77 404 L78 403 L82 403 L83 402 L86 402 L87 401 L92 401 L93 400 L95 400 L97 398 L98 398 L103 393 L104 393 L107 390 L108 390 L109 391 L109 392 L111 394 L113 394 L114 395 L132 395 L134 397 L134 401 L137 401 L138 402 L139 402 L140 401 L144 401 L145 400 L158 400 L159 399 L164 399 L168 403 L173 403 L174 402 L177 402 L178 401 L181 401 L182 400 L186 400 L187 399 L189 399 L190 398 L193 398 L195 396 L196 396 L197 395 L198 395 L199 394 L201 394 L202 395 L202 396 L197 401 L195 401 L194 402 L194 403 L195 404 L195 405 L196 406 L196 407 L200 411 L201 411 L202 412 L203 412 L205 414 L206 414 L210 418 L211 418 L212 419 L213 419 L214 420 L215 420 L216 421 L218 421 L219 422 L222 422 L223 423 L228 423 L229 424 L230 424 L231 425 L229 427 L226 427 L225 428 L219 428 L218 429 L213 429 L212 430 L209 430 L208 431 L205 431 L204 432 L202 432 L201 433 L200 433 L199 434 L198 434 L197 435 L196 435 L191 440 L191 443 L195 443 L196 444 L198 444 L200 446 L200 448 L199 449 L198 449 L197 448 L194 448 L193 447 L185 447 L184 448 L181 448 L180 449 L179 449 L178 450 L177 450 L176 451 L175 451 L174 452 L172 452 L171 453 L169 453 L168 454 L167 454 L166 455 L165 455 L163 457 L162 457 L159 460 L159 461 L139 481 L139 482 L138 483 L138 489 L137 490 L137 491 L136 492 L136 493 L127 502 L127 503 L126 504 L126 505 L125 506 L125 507 L124 508 L124 516 L127 519 L129 519 L130 520 L133 520 L135 522 L135 523 L131 527 L131 528 L128 531 L128 532 L125 535 L124 535 L121 538 L120 538 L115 543 L115 544 L112 547 L112 548 L111 549 L111 550 L110 551 L110 553 L109 554 L109 555 L108 556 L108 558 L107 559 L107 562 L106 563 L106 566 L105 567 L105 574 L104 575 L104 576 L105 577 L105 579 L104 580 L104 590 L105 591 L105 600 L106 601 L106 604 L107 605 L107 606 L108 607 L108 608 L109 609 L109 610 L112 613 L114 613 L116 611 L116 610 L119 607 L119 606 L127 598 L127 597 L132 592 L132 591 L134 589 L134 588 L135 587 L135 586 L137 584 L137 583 L138 582 L138 581 L140 579 L140 578 L142 576 L142 575 L143 574 L143 573 L144 572 L144 571 L146 569 L146 567 L147 566 L147 564 L148 563 L148 562 L149 561 L149 559 L150 558 L150 542 L151 541 L151 535 L153 533 L154 534 L155 534 L158 537 L159 537 L164 542 L165 542 L166 543 L168 543 L170 541 L170 538 L171 537 L171 535 L172 534 L172 533 L176 529 L177 529 L179 527 L180 527 L181 526 L182 526 L186 522 L187 522 L187 521 L190 518 L190 517 L192 515 L192 514 L195 511 L195 510 L197 508 L197 507 L199 505 L199 504 L200 503 L200 502 L202 500 L202 499 L204 497 L204 495 L205 494 L205 493 L206 492 L206 490 L207 489 L207 485 L208 484 L208 481 L209 480 L209 475 L210 474 L212 474 L213 475 L214 475 L216 477 L217 477 L219 479 L220 479 L221 480 L222 480 L223 481 L228 481 L229 480 L232 480 L233 479 L236 479 L237 478 L238 479 L241 479 L242 480 L255 480 L256 479 L258 479 L259 478 L261 478 L263 476 L264 476 L266 474 L267 474 L268 473 L269 473 L270 472 L271 472 L272 471 L273 471 L274 470 L275 470 L277 468 L278 468 L279 467 L281 467 L283 469 L281 471 L279 471 L278 472 L278 474 L282 478 L282 479 L290 487 L290 488 L291 489 L290 490 L290 491 L288 493 L288 494 L287 495 L288 496 L288 498 L290 500 L290 501 L296 507 L296 508 L298 510 L298 511 L299 512 L299 513 L302 516 L302 517 L308 523 L309 523 L311 525 L312 525 L314 527 L315 527 L317 529 L323 529 L324 530 L328 530 L329 531 L330 531 L331 532 L333 532 L337 536 L337 538 L334 541 L330 541 L329 542 L329 543 L324 548 L324 549 L323 550 L323 554 L322 555 L322 557 L321 558 L321 561 L319 563 L317 563 L316 564 L314 564 L313 565 L307 565 L306 566 L300 566 L299 567 L296 567 L295 568 L285 568 L284 569 L283 569 L282 570 L280 570 L279 571 L268 571 L265 574 L264 574 L263 575 L260 575 L259 576 L254 576 L253 577 L252 577 L251 578 L250 578 L249 579 L248 579 L247 580 L244 580 L243 581 L240 581 L239 582 L238 582 L237 583 L236 583 L235 584 L234 584 L233 585 L232 585 L231 586 L230 586 L228 588 L227 588 L226 589 L225 589 L224 590 L223 590 L222 591 L222 592 L221 593 L221 596 L220 597 L220 605 L219 606 L219 627 L220 628 L220 631 L221 632 L221 636 L222 637 L222 641 L223 642 L223 647 L224 648 L224 653 L225 654 L225 657 L226 658 L226 660 L227 661 L227 665 L228 666 L228 672 L229 673 L229 675 L230 676 L230 677 L234 681 L235 681 L237 683 L238 683 L239 684 L240 684 L241 685 L242 685 L243 686 L244 686 L246 688 L246 698 L247 699 L247 703 L248 704 L248 710 L249 711 L249 719 L250 720 L250 721 L251 722 L251 725 L252 726 L252 729 L253 730 L253 733 L254 734 L254 739 L255 740 L255 743 L256 744 L256 747 L257 748 L257 751 L258 752 L258 753 L259 754 L259 757 L260 758 L260 763 L261 764 L261 768 L262 769 L262 772 L263 773 L263 779 L264 780 L264 786 L265 787 L265 791 L266 792 L266 794 L267 795 L267 799 L268 800 L268 804 L269 805 L269 810 L270 811 L270 815 L271 816 L271 820 L272 821 L272 826 L273 827 L273 829 L274 830 L274 834 L275 835 L275 838 L276 839 L276 842 L277 843 L277 849 L278 850 L278 852 L279 853 L279 856 L280 857 L280 860 L281 861 L281 867 L282 868 L282 873 L283 874 L283 875 L284 876 L284 878 L285 879 L285 880 L286 881 L286 884 L287 885 L287 888 L288 889 L288 896 L289 897 L289 899 L290 900 L290 901 L291 902 L291 906 L292 907 L292 910 L293 911 L293 912 L294 913 L294 916 L295 917 L295 918 L296 919 L296 920 L297 921 L297 923 L298 924 L298 926 L299 927 L299 928 L303 932 L304 932 L305 933 L306 933 L308 935 L309 935 L311 937 L312 937 L315 940 L316 940 L317 941 L318 941 L319 942 L320 942 L321 943 L322 943 L323 944 L324 944 L325 945 L326 945 L327 946 L328 946 L329 947 L331 947 L332 948 L334 948 L335 949 L338 949 L339 950 L341 950 L342 951 L345 951 L346 952 L349 952 L350 953 L353 953 L354 954 L358 954 L359 955 L364 955 L365 956 L369 956 L370 957 L375 957 L376 958 L379 958 L380 959 L387 959 L388 960 L394 960 L395 961 L415 961 L416 962 L418 962 L419 961 L423 961 L424 962 L425 962 L426 961 L429 961 L430 962 L431 962 L432 961 L458 961 L459 960 L465 960 L466 959 L472 959 L473 958 L479 958 L480 957 L486 957 L487 956 L491 956 L492 955 L494 955 L495 954 L498 954 L499 953 L502 953 L503 952 L505 952 L506 951 L509 951 L510 950 L511 950 L512 949 L513 949 L514 948 L516 948 L517 947 L518 947 L519 946 L521 946 L522 945 L523 945 L524 944 L526 944 L527 943 L528 943 L529 942 L530 942 L531 941 L532 941 L533 940 L534 940 L536 938 L537 938 L538 937 L539 937 L540 936 L541 936 L543 934 L544 934 L547 931 L547 930 L549 928 L549 927 L550 926 L550 924 L551 923 L551 922 L552 921 L552 920 L553 919 L553 918 L554 917 L554 916 L555 915 L555 911 L556 910 L556 908 L557 907 L557 905 L558 904 L558 902 L559 901 L559 899 L560 898 L560 895 L561 894 L561 892 L562 891 L562 888 L563 887 L563 883 L564 882 L564 877 L565 876 L565 869 L566 868 L566 864 L567 863 L567 859 L568 858 L568 855 L569 854 L569 851 L570 850 L570 846 L571 845 L571 841 L572 840 L572 834 L573 833 L573 829 L574 828 L574 824 L575 823 L575 819 L576 818 L576 815 L577 814 L577 810 L578 809 L578 804 L579 803 L579 798 L580 797 L580 792 L581 791 L581 785 L582 784 L582 780 L583 779 L583 773 L584 772 L584 769 L585 768 L585 763 L586 762 L586 757 L587 756 L587 752 L588 751 L588 748 L589 747 L589 743 L590 742 L590 737 L591 736 L591 732 L592 731 L592 727 L593 726 L593 721 L594 720 L594 715 L595 714 L595 710 L596 709 L596 705 L597 704 L597 701 L598 700 L598 694 L599 693 L599 689 L601 687 L602 687 L604 685 L605 685 L610 680 L610 678 L612 676 L612 675 L614 673 L614 672 L615 671 L615 670 L616 669 L616 668 L617 667 L617 665 L618 664 L618 657 L619 656 L619 655 L620 654 L620 653 L621 652 L621 647 L622 646 L622 640 L623 639 L623 612 L624 611 L624 610 L623 609 L623 608 L624 607 L624 606 L623 605 L623 597 L622 596 L622 594 L620 592 L620 591 L614 585 L613 585 L611 583 L610 583 L609 582 L608 582 L606 580 L604 580 L603 579 L601 579 L600 578 L598 578 L597 577 L595 577 L594 576 L592 576 L591 575 L589 575 L588 574 L586 574 L585 573 L583 573 L582 572 L579 572 L578 571 L575 571 L574 570 L570 570 L569 569 L567 569 L566 568 L563 568 L562 567 L560 567 L559 566 L551 566 L550 565 L544 565 L543 564 L539 564 L538 563 L534 563 L533 562 L529 562 L528 561 L526 561 L525 560 L525 558 L524 557 L524 556 L523 555 L523 553 L522 552 L522 537 L521 536 L521 534 L519 534 L517 536 L514 536 L512 534 L512 533 L514 531 L516 531 L517 530 L520 530 L521 529 L522 529 L523 528 L526 528 L527 527 L539 527 L540 526 L545 526 L546 525 L546 524 L550 520 L555 520 L556 519 L557 519 L561 515 L562 515 L567 510 L568 510 L577 501 L577 500 L578 499 L578 498 L579 497 L579 496 L580 495 L580 494 L581 493 L581 492 L583 490 L583 489 L584 488 L585 488 L586 489 L586 495 L587 496 L587 499 L588 500 L588 502 L589 503 L589 504 L590 505 L590 506 L592 508 L592 509 L598 515 L598 516 L601 519 L601 520 L604 523 L605 523 L607 525 L608 525 L609 526 L610 526 L613 529 L614 529 L621 536 L621 537 L626 542 L627 542 L629 544 L634 544 L635 543 L640 543 L641 544 L642 544 L646 548 L646 549 L648 551 L648 552 L652 556 L653 555 L654 555 L655 554 L656 554 L656 553 L657 552 L657 551 L658 550 L658 548 L659 547 L660 547 L662 549 L662 550 L664 552 L664 554 L665 555 L665 556 L666 557 L666 562 L667 563 L667 568 L668 569 L668 571 L669 572 L669 574 L670 575 L670 576 L671 577 L671 579 L672 580 L672 581 L673 582 L673 583 L675 585 L675 586 L677 588 L677 589 L680 592 L680 593 L689 602 L690 602 L697 609 L698 609 L703 614 L704 614 L706 616 L707 616 L709 618 L713 618 L716 621 L717 621 L719 623 L720 623 L720 621 L721 620 L721 618 L722 617 L722 609 L723 608 L723 606 L722 605 L722 597 L721 596 L721 593 L720 592 L720 589 L719 588 L719 586 L718 585 L718 584 L717 583 L717 582 L716 581 L716 579 L715 578 L715 577 L713 575 L713 573 L711 571 L711 570 L710 569 L710 568 L709 567 L709 566 L708 565 L708 564 L707 563 L707 562 L705 560 L705 559 L703 557 L703 556 L684 537 L683 537 L680 534 L681 533 L682 533 L685 530 L685 523 L684 522 L684 520 L683 519 L683 517 L682 516 L682 514 L681 513 L681 512 L679 510 L679 509 L678 508 L677 508 L674 505 L674 503 L675 502 L676 502 L677 501 L677 500 L671 494 L670 494 L666 490 L665 490 L663 488 L662 488 L652 478 L651 478 L646 473 L645 473 L643 471 L642 471 L641 470 L640 470 L639 469 L638 469 L637 468 L636 468 L635 467 L634 467 L633 466 L632 466 L631 465 L630 465 L629 464 L628 464 L627 463 L627 462 L628 461 L640 461 L641 460 L644 460 L645 459 L647 459 L648 458 L649 458 L650 457 L651 457 L653 455 L654 455 L655 454 L656 454 L657 453 L658 453 L659 452 L660 452 L662 450 L663 450 L664 449 L665 449 L670 444 L671 444 L672 443 L673 443 L673 440 L670 437 L670 436 L668 434 L668 433 L666 431 L666 430 L667 429 L667 420 L668 419 L668 416 L669 415 L673 415 L675 413 L672 410 L667 410 L666 409 L664 409 L661 406 L660 406 L657 403 L657 402 L656 401 L656 399 L657 398 L657 397 L656 396 L656 395 L654 395 L653 396 L652 396 L651 397 L650 397 L649 398 L644 398 L643 399 L639 399 L638 400 L635 400 L634 401 L632 401 L631 402 L629 402 L628 403 L624 403 L622 401 L620 401 L619 402 L618 402 L616 404 L614 404 L613 405 L610 405 L609 406 L606 406 L605 407 L603 407 L602 408 L601 408 L600 409 L599 409 L595 413 L594 413 L593 414 L591 414 L590 415 L589 415 L588 416 L587 416 L586 417 L585 417 L579 423 L579 424 L578 425 L578 426 L577 427 L577 428 L576 429 L576 430 L574 432 L574 433 L573 434 L573 435 L572 436 L572 437 L571 438 L571 440 L570 441 L570 442 L569 443 L569 445 L568 446 L568 448 L563 453 L562 453 L560 455 L559 455 L558 456 L557 456 L556 457 L555 457 L554 458 L553 458 L552 459 L551 459 L550 460 L549 460 L548 461 L546 461 L545 460 L546 459 L546 458 L547 457 L547 456 L548 455 L548 454 L549 453 L549 452 L550 451 L550 450 L551 449 L551 448 L554 445 L554 442 L557 439 L558 439 L559 438 L561 438 L563 436 L564 436 L566 434 L567 434 L568 433 L568 432 L570 430 L570 429 L572 427 L572 426 L573 425 L573 424 L576 421 L576 420 L580 416 L581 416 L583 414 L584 414 L588 410 L589 410 L589 409 L592 406 L592 405 L593 404 L594 404 L603 395 L603 394 L604 393 L604 392 L605 391 L605 388 L606 387 L606 386 L607 385 L607 384 L608 383 L608 382 L609 381 L609 377 L610 376 L610 375 L611 374 L611 373 L610 372 L610 371 L611 370 L611 368 L612 367 L617 367 L618 368 L622 368 L623 369 L627 369 L628 370 L640 370 L641 369 L653 369 L654 368 L657 368 L658 367 L659 367 L660 366 L661 366 L667 360 L669 360 L670 359 L672 359 L673 360 L672 361 L672 362 L668 366 L668 372 L669 373 L669 374 L670 375 L670 376 L674 380 L675 380 L676 381 L677 381 L679 383 L680 383 L681 384 L682 384 L683 385 L684 385 L686 387 L687 387 L688 388 L689 388 L690 389 L691 389 L692 390 L692 392 L691 393 L691 394 L690 395 L690 396 L687 399 L687 400 L685 402 L685 403 L682 406 L682 407 L678 411 L678 412 L677 413 L677 414 L680 417 L687 417 L688 416 L690 416 L691 415 L693 415 L694 416 L694 418 L693 419 L693 421 L692 422 L692 429 L693 430 L693 431 L696 434 L698 434 L699 435 L701 435 L702 436 L709 436 L710 435 L715 435 L716 434 L719 434 L720 433 L722 433 L723 432 L724 432 L725 431 L726 431 L729 428 L730 428 L732 426 L732 425 L738 419 L739 419 L740 420 L740 421 L741 422 L741 423 L742 424 L742 425 L743 426 L743 427 L744 428 L744 429 L745 430 L745 431 L746 432 L746 433 L747 434 L747 435 L749 437 L749 438 L743 444 L743 445 L741 447 L741 449 L740 450 L740 455 L739 456 L739 461 L742 464 L745 464 L746 463 L748 463 L750 461 L751 461 L752 460 L754 460 L755 459 L757 459 L759 457 L761 457 L762 456 L765 459 L765 461 L766 462 L766 464 L767 465 L767 469 L768 470 L768 471 L769 472 L769 474 L770 475 L770 476 L771 477 L771 479 L772 480 L772 481 L773 482 L773 483 L774 484 L774 485 L775 486 L775 487 L779 487 L781 485 L781 484 L782 483 L782 482 L783 481 L783 480 L784 479 L784 476 L785 475 L785 474 L786 473 L786 471 L787 470 L787 469 L788 468 L788 466 L789 465 L789 464 L790 463 L790 462 L791 461 L791 460 L792 459 L792 457 L793 456 L793 455 L794 454 L794 452 L795 451 L795 449 L796 448 L796 447 L797 446 L797 445 L798 444 L801 444 L802 445 L803 445 L807 449 L808 449 L817 458 L818 458 L819 459 L820 459 L821 460 L826 460 L827 459 L827 456 L828 455 L828 454 L829 453 L829 451 L830 450 L831 450 L832 451 L832 452 L833 453 L833 456 L834 457 L834 460 L835 461 L835 464 L836 465 L836 467 L838 469 L838 470 L839 471 L839 472 L841 474 L842 474 L843 475 L846 475 L847 474 L848 474 L851 471 L851 470 L852 469 L852 468 L853 467 L853 465 L854 464 L854 458 L853 457 L853 456 L850 453 L849 453 L847 451 L846 451 L842 447 L841 447 L838 444 L838 443 L835 440 L835 439 L830 434 L830 433 L828 431 L829 430 L830 430 L834 434 L835 434 L837 436 L841 436 L842 435 L842 432 L840 430 L840 429 L833 422 L834 421 L844 421 L845 420 L849 420 L850 419 L853 419 L854 418 L860 418 L861 417 L866 417 L867 416 L868 416 L870 414 L870 413 L871 412 L871 410 L867 406 L866 406 L862 402 L861 402 L857 398 L856 398 L848 390 L849 389 L851 389 L852 388 L854 388 L855 387 L857 387 L858 386 L859 386 L861 384 L862 384 L871 375 L871 374 L872 373 L872 369 L870 367 L866 367 L865 366 L860 366 L859 365 L854 365 L853 364 L849 364 L848 363 L837 363 L836 364 L835 364 L834 363 L834 361 L835 360 L835 358 L836 357 L836 356 L837 355 L837 354 L838 353 L838 352 L839 351 L839 350 L840 349 L840 348 L842 346 L842 345 L843 344 L843 343 L845 341 L845 339 L846 338 L846 336 L847 335 L847 333 L848 332 L848 330 L849 329 L849 328 L850 327 L850 321 L851 320 L851 317 L850 316 L850 315 L848 315 L847 316 L846 316 L845 317 L844 317 L843 318 L841 318 L840 319 L839 319 L838 320 L836 320 L834 322 L833 322 L832 323 L830 323 L829 324 L827 324 L826 325 L825 325 L824 326 L822 326 L820 328 L819 328 L818 329 L817 329 L816 330 L815 330 L813 332 L813 333 L810 336 L810 337 L807 340 L807 341 L806 342 L806 343 L803 346 L803 347 L802 348 L802 349 L800 351 L800 352 L799 353 L799 354 L796 357 L796 358 L792 362 L791 362 L790 363 L788 363 L787 364 L784 364 L783 363 L781 363 L780 362 L779 362 L778 361 L776 361 L775 360 L774 360 L773 359 L772 359 L771 358 L770 358 L769 357 L768 357 L767 356 L766 356 L765 355 L764 355 L763 354 L762 354 L761 353 L763 351 L764 351 L765 350 L766 350 L767 349 L768 349 L769 348 L770 348 L771 347 L772 347 L774 345 L775 345 L777 343 L778 343 L784 337 L784 336 L785 335 L785 334 L786 333 L786 330 L787 329 L787 319 L786 318 L786 312 L785 311 L785 308 L784 307 L784 306 L783 305 L783 303 L782 302 L782 301 L781 300 L781 299 L780 298 L780 297 L779 296 L779 295 L778 294 L778 292 L776 290 L776 289 L775 288 L775 287 L774 286 L774 285 L771 282 L769 282 L767 284 L767 286 L766 287 L766 288 L765 289 L765 298 L764 299 L764 305 L763 306 L763 309 L762 310 L762 313 L761 314 L761 316 L760 317 L760 318 L759 319 L759 320 L758 321 L758 322 L757 323 L757 324 L756 325 L754 323 L754 322 L753 321 L753 320 L752 319 L752 318 L750 316 L750 315 L748 313 L747 313 L744 310 L743 310 L741 308 L740 308 L737 305 L736 305 L735 304 L734 304 L733 303 L732 303 L731 302 L730 302 L729 301 L727 301 L726 300 L724 300 L723 299 L722 299 L721 298 L718 298 L717 299 L715 299 L715 302 L714 303 L714 304 L715 305 L715 308 L716 309 L716 311 L717 312 L717 313 L718 314 L718 315 L721 318 L721 319 L724 322 L724 324 L723 325 L716 325 L715 324 L711 324 L710 323 L706 323 L705 322 L704 322 L703 321 L702 321 L700 319 L699 319 L698 318 L696 318 L695 317 L694 317 L693 316 L689 316 L688 315 L687 315 L684 312 L684 311 L683 310 L683 307 L681 305 L677 305 L676 306 L672 306 L671 307 L666 307 L665 308 L659 308 L658 309 L650 309 L649 308 L649 306 L648 306 L647 305 L646 305 L645 306 L642 306 L640 308 L639 308 L638 309 L637 309 L635 311 L633 311 L632 312 L629 312 L628 313 L626 313 L625 314 L624 314 L623 315 L622 315 L621 316 L620 316 L619 317 L618 317 L617 318 L615 318 L614 319 L613 319 L611 321 L610 321 L609 322 L608 322 L602 328 L602 329 L598 333 L598 334 L595 337 L595 338 L594 339 L592 339 L590 337 L586 337 L585 338 L584 337 L584 325 L585 324 L585 320 L586 319 L586 316 L585 315 L585 314 L584 313 L584 312 L585 311 L588 311 L589 312 L592 312 L593 313 L600 313 L601 314 L604 314 L605 313 L610 313 L611 312 L614 312 L615 311 L617 311 L618 310 L619 310 L621 308 L622 308 L624 306 L625 306 L626 305 L627 305 L628 304 L632 304 L634 302 L635 302 L640 297 L641 297 L643 295 L644 295 L645 294 L646 294 L647 293 L649 293 L650 292 L652 292 L653 291 L654 291 L655 290 L656 290 L657 289 L657 286 L656 285 L656 284 L655 283 L655 282 L656 281 L657 281 L659 279 L661 279 L662 278 L665 278 L666 277 L669 277 L673 273 L673 272 L676 269 L676 268 L677 267 L677 266 L678 265 L678 263 L676 261 L675 261 L674 260 L673 260 L671 258 L671 257 L672 256 L673 256 L674 255 L676 255 L677 256 L678 256 L679 257 L680 257 L681 258 L682 258 L683 259 L684 259 L685 260 L688 260 L689 261 L690 261 L691 262 L692 262 L693 263 L695 263 L696 264 L697 264 L698 265 L699 265 L700 266 L702 266 L703 267 L706 267 L707 268 L726 268 L727 267 L731 267 L732 266 L734 266 L735 265 L737 265 L738 264 L740 264 L741 263 L742 263 L743 262 L744 262 L745 261 L748 261 L749 260 L752 260 L753 259 L755 259 L756 258 L757 258 L760 255 L761 255 L763 253 L763 252 L765 250 L766 250 L767 249 L769 249 L770 248 L772 248 L773 247 L774 247 L775 246 L777 246 L778 245 L780 245 L781 244 L782 244 L783 243 L784 243 L785 242 L786 242 L787 241 L788 241 L793 236 L793 235 L795 233 L795 232 L794 231 L793 231 L791 229 L790 229 L788 227 L787 227 L786 226 L785 226 L784 225 L783 225 L782 224 L781 224 L780 223 L779 223 L778 222 L777 222 L776 221 L775 221 L774 220 L772 220 L771 219 L770 219 L768 217 L766 217 L765 216 L764 216 L763 215 L761 215 L760 214 L758 214 L757 213 L755 213 L754 212 L750 212 L749 211 L734 211 L733 210 L714 210 L713 211 L709 211 L708 212 L706 212 L705 213 L704 213 L703 214 L701 214 L700 215 L699 215 L698 216 L697 216 L696 217 L695 217 L694 218 L693 218 L692 219 L691 219 L690 220 L689 220 L687 222 L686 222 L684 224 L683 224 L678 229 L677 229 L676 230 L675 230 L674 231 L673 231 L672 232 L671 232 L670 233 L668 233 L667 234 L664 234 L663 235 L661 235 L659 233 L659 227 L658 226 L657 226 L656 225 L653 225 L652 226 L647 226 L646 227 L638 227 L637 228 L635 228 L634 229 L631 229 L630 230 L628 230 L627 231 L625 231 L624 232 L623 232 L622 233 L614 233 L613 234 L611 234 L610 235 L609 235 L608 236 L607 236 L606 237 L605 237 L603 239 L602 239 L601 240 L600 240 L598 242 L597 242 L595 244 L594 244 L591 247 L590 247 L588 249 L587 249 L586 250 L585 250 L583 252 L581 252 L579 254 L578 254 L572 260 L572 261 L570 263 L570 264 L569 265 L569 266 L567 268 L567 269 L566 270 L566 271 L565 272 L565 273 L564 274 L564 276 L563 277 L563 279 L562 280 L562 299 L560 301 L559 301 L558 302 L557 302 L556 301 L556 300 L555 299 L555 297 L554 296 L554 295 L553 294 L553 293 L551 293 L546 298 L546 299 L545 300 L544 300 L540 304 L540 305 L537 308 L537 309 L536 310 L536 311 L535 312 L535 313 L533 315 L532 315 L531 314 L531 310 L532 309 L532 300 L531 299 L531 297 L536 292 L536 286 L535 285 L535 284 L532 284 L531 285 L530 285 L527 288 L527 289 L524 292 L518 292 L517 291 L515 291 L514 290 L513 290 L512 289 L511 289 L510 288 L508 288 L505 285 L503 285 L502 286 L502 289 L501 290 L501 291 L500 292 L500 293 L499 294 L499 295 L498 296 L498 297 L490 305 L488 303 L489 302 L488 301 L488 295 L487 294 L487 292 L484 289 L483 289 L481 287 L480 287 L478 285 L478 283 L480 281 L481 281 L482 280 L483 281 L489 281 L491 279 L492 279 L493 278 L494 278 L496 276 L497 276 L499 274 L500 274 L501 273 L502 273 L504 271 L505 271 L511 265 L511 264 L514 261 L514 260 L515 259 L515 258 L518 255 L518 254 L519 253 L519 252 L521 250 L521 249 L522 248 L522 247 L524 245 L524 244 L525 243 L525 241 L526 240 L526 232 L527 231 L527 228 L528 227 L528 226 L529 225 L529 224 L531 222 L531 221 L534 218 L534 217 L537 214 L537 213 L538 212 L538 211 L537 211 L534 208 L532 208 L531 207 L531 206 L532 205 L532 204 L533 203 L534 203 L535 202 L536 202 L537 201 L538 201 L539 200 L540 200 L541 199 L542 199 L544 197 L545 197 L548 194 L548 193 L551 190 L552 190 L553 191 L553 192 L554 193 L554 194 L555 195 L555 196 L556 197 L556 199 L557 200 L557 201 L558 202 L558 205 L559 206 L559 208 L560 209 L560 211 L561 212 L561 214 L562 215 L562 217 L563 218 L563 220 L564 221 L564 224 L565 225 L565 227 L566 228 L566 229 L568 231 L570 231 L572 229 L572 228 L573 227 L573 226 L574 225 L574 223 L575 222 L575 218 L576 217 L576 215 L577 214 L577 213 L578 212 L578 211 L580 209 L580 208 L584 204 L584 203 L587 200 L587 199 L590 196 L591 196 L596 201 L596 202 L599 205 L599 206 L601 208 L605 208 L607 206 L607 202 L608 201 L608 174 L609 173 L609 167 L610 166 L610 163 L611 162 L611 161 L612 160 L612 159 L613 158 L613 157 L614 156 L615 156 L621 162 L622 162 L625 165 L626 165 L628 167 L629 167 L631 169 L632 169 L634 171 L635 171 L636 172 L637 172 L638 173 L639 173 L640 174 L642 174 L643 175 L646 175 L648 173 L648 171 L647 170 L647 169 L646 168 L646 166 L645 165 L645 163 L644 162 L644 155 L643 154 L643 152 L644 151 L644 146 L641 143 L641 141 L640 140 L640 135 L639 134 L639 132 L638 131 L638 130 L637 129 L637 128 L636 127 L636 126 L632 122 L632 121 L628 117 L628 116 L629 115 L632 115 L633 114 L637 114 L638 113 L641 113 L642 112 L643 112 L644 111 L646 111 L647 110 L648 110 L650 108 L652 108 L653 107 L654 107 L655 106 L656 106 L657 105 L658 105 L659 104 L660 104 L661 103 L662 103 L663 102 L664 102 L665 101 L667 101 L668 100 L669 100 L670 99 L671 99 L672 98 L673 98 L678 93 L678 92 L676 90 L675 90 L674 89 L672 89 L669 86 L668 86 L667 85 L666 85 L665 84 L664 84 L663 83 L662 83 L661 82 L660 82 L659 81 L657 81 L656 80 L653 80 L652 79 L647 79 L646 78 L647 77 L648 77 L649 76 L650 76 L652 74 L653 74 L655 72 L656 72 L658 70 L659 70 L660 69 L661 69 L667 63 L667 62 L668 61 L668 60 L669 59 L669 58 L670 57 L670 55 L665 50 L664 50 L663 49 L661 49 L660 48 L659 49 L654 49 L653 50 L652 50 L651 51 L648 51 L647 52 L645 52 L644 51 L645 50 L645 49 L644 49 L644 52 L643 53 L642 53 L641 54 L639 54 L638 55 L637 55 L636 54 L636 49 L637 48 L637 40 L638 39 L638 17 L637 16 L637 15 L634 15 L632 17 L631 17 L629 19 L628 19 L625 22 L624 22 L621 25 L620 25 L618 27 L617 27 L615 29 L614 29 L611 32 L610 32 L603 39 L603 40 L600 43 L600 44 L598 46 L596 44 L596 42 L595 41 L595 39 L594 38 L594 37 L592 35 L592 34 L591 33 L591 32 L590 31 L590 30 L589 29 L589 28 L588 27 L588 25 L585 22 L585 21 L584 20 L583 20 L580 17 L579 17 L578 16 L577 16 L572 11 Z M698 0 L700 2 L700 3 L701 4 L701 5 L702 6 L702 7 L704 9 L704 10 L707 13 L707 14 L713 20 L713 21 L720 28 L720 29 L730 39 L731 39 L736 44 L737 44 L741 48 L742 48 L744 50 L745 50 L748 53 L749 53 L751 55 L752 55 L754 57 L755 57 L756 58 L757 58 L759 60 L760 60 L762 62 L763 62 L765 64 L766 64 L769 67 L770 67 L773 70 L774 70 L777 73 L778 73 L780 75 L781 75 L782 76 L783 76 L784 77 L786 77 L787 78 L789 78 L790 79 L795 79 L796 80 L801 80 L802 81 L803 81 L804 80 L805 81 L809 81 L810 82 L813 82 L814 83 L819 83 L820 84 L831 84 L832 85 L833 85 L834 84 L840 84 L841 83 L845 83 L846 82 L851 82 L852 81 L854 81 L855 80 L857 80 L858 79 L860 79 L862 77 L863 77 L864 76 L865 76 L866 75 L867 75 L869 73 L870 73 L875 68 L875 67 L883 59 L883 0 Z M158 0 L160 0 L162 2 L163 2 L164 3 L165 3 L166 4 L168 4 L169 5 L171 5 L172 6 L173 6 L174 7 L176 7 L177 8 L180 8 L181 9 L184 9 L185 10 L201 10 L202 9 L205 9 L206 8 L209 8 L210 7 L219 7 L220 8 L225 8 L226 9 L232 9 L233 8 L235 8 L236 7 L238 7 L239 6 L240 6 L241 5 L242 5 L243 4 L244 4 L246 2 L247 2 L249 0 Z M0 0 L0 177 L0 176 L1 175 L1 173 L2 172 L2 166 L3 165 L3 159 L4 158 L4 155 L5 154 L5 150 L7 148 L14 148 L15 147 L16 147 L17 146 L16 145 L16 143 L15 142 L15 138 L13 136 L12 136 L10 134 L10 133 L11 132 L11 126 L12 125 L12 119 L13 118 L13 115 L14 114 L14 113 L15 112 L17 112 L18 111 L20 111 L23 108 L23 107 L18 102 L19 101 L22 101 L23 102 L28 102 L28 100 L27 99 L26 99 L25 98 L22 98 L20 96 L22 94 L23 94 L26 91 L26 90 L22 90 L21 91 L20 91 L19 90 L19 88 L20 87 L20 85 L21 84 L21 81 L20 80 L20 69 L23 66 L23 62 L22 61 L22 60 L23 59 L24 59 L25 60 L25 61 L26 61 L27 62 L29 62 L28 61 L28 59 L27 58 L27 57 L26 56 L27 55 L28 55 L29 54 L30 55 L32 55 L33 54 L33 53 L32 52 L31 52 L30 51 L26 51 L25 50 L25 47 L27 45 L28 45 L29 44 L30 45 L31 45 L33 43 L33 41 L32 40 L29 40 L26 43 L25 43 L24 42 L24 39 L25 38 L25 13 L27 11 L29 11 L32 8 L31 7 L31 6 L30 5 L30 4 L29 3 L28 3 L27 2 L27 1 L28 0 L29 0 L30 1 L31 0 L33 0 Z " fill="black"/></svg>