<svg width="310" height="297" xmlns="http://www.w3.org/2000/svg"><path d="M190 11 L189 12 L188 12 L187 13 L186 13 L185 14 L184 14 L183 15 L181 15 L180 16 L179 16 L178 17 L177 17 L176 18 L174 18 L173 19 L172 19 L171 20 L170 20 L169 21 L168 21 L166 23 L165 23 L163 25 L162 25 L160 27 L159 27 L157 29 L156 29 L154 31 L153 30 L152 30 L151 29 L148 29 L147 28 L145 28 L144 27 L142 27 L141 26 L140 26 L139 25 L138 25 L137 24 L135 24 L134 23 L133 23 L132 22 L131 22 L130 21 L128 21 L127 20 L124 20 L123 19 L115 19 L114 18 L111 18 L110 17 L108 17 L107 16 L106 16 L105 15 L103 15 L102 14 L98 14 L97 15 L97 16 L95 18 L95 20 L94 21 L94 22 L93 23 L93 24 L92 25 L92 26 L91 27 L91 28 L90 29 L90 30 L89 31 L89 32 L88 33 L88 34 L87 35 L87 36 L86 37 L86 38 L85 39 L85 40 L83 42 L83 44 L82 45 L82 46 L81 47 L81 49 L80 50 L80 52 L79 53 L79 56 L77 58 L75 58 L74 59 L70 59 L69 60 L62 60 L61 61 L52 61 L51 62 L48 62 L47 63 L46 63 L44 65 L44 66 L43 67 L43 69 L42 70 L42 94 L40 96 L39 96 L33 102 L33 103 L32 104 L31 104 L31 105 L25 111 L24 111 L16 119 L15 119 L11 123 L11 125 L12 126 L12 128 L13 129 L13 130 L14 131 L14 132 L15 133 L15 134 L17 136 L17 137 L18 138 L18 140 L19 141 L19 143 L20 144 L20 146 L21 147 L21 148 L22 149 L22 150 L23 151 L23 152 L24 153 L24 154 L26 156 L26 157 L33 164 L34 164 L37 167 L38 167 L41 170 L41 172 L39 174 L39 175 L37 177 L37 178 L36 179 L36 180 L35 181 L35 183 L34 184 L34 185 L33 186 L33 188 L32 189 L32 196 L31 197 L31 215 L30 216 L30 220 L32 222 L33 222 L34 223 L41 223 L42 224 L45 224 L47 226 L49 226 L50 227 L51 227 L52 228 L53 228 L54 229 L56 229 L57 230 L58 230 L59 231 L62 231 L63 232 L66 232 L67 233 L73 233 L74 234 L85 234 L86 233 L90 233 L91 234 L91 236 L92 237 L92 240 L93 241 L93 245 L94 246 L94 249 L95 250 L95 252 L96 253 L96 255 L97 256 L97 257 L99 259 L99 260 L101 262 L101 263 L108 270 L108 271 L109 271 L111 273 L111 274 L122 285 L124 285 L125 286 L126 286 L127 285 L129 285 L130 284 L132 284 L133 283 L134 283 L135 282 L137 282 L138 281 L139 281 L141 279 L142 279 L143 278 L145 278 L146 277 L149 277 L150 276 L154 276 L155 275 L156 275 L157 274 L158 274 L159 273 L160 273 L161 272 L162 272 L164 270 L165 270 L170 265 L170 264 L174 260 L175 261 L177 261 L178 262 L180 262 L181 263 L183 263 L184 264 L187 264 L188 265 L192 265 L193 266 L195 266 L196 267 L199 267 L200 268 L202 268 L203 267 L204 267 L205 266 L206 266 L208 264 L208 263 L210 261 L211 261 L213 259 L213 258 L217 254 L217 253 L219 251 L219 250 L220 249 L220 248 L221 247 L221 246 L224 243 L226 243 L227 244 L241 244 L242 243 L248 243 L249 242 L252 242 L253 241 L256 241 L257 240 L259 240 L260 239 L262 239 L263 238 L265 238 L266 237 L267 237 L268 236 L270 236 L271 235 L273 235 L274 234 L275 234 L276 233 L277 233 L278 232 L279 232 L281 230 L281 213 L280 212 L280 209 L279 208 L279 200 L280 199 L280 195 L279 194 L279 191 L278 190 L278 189 L277 188 L277 187 L276 186 L276 185 L274 183 L274 182 L273 181 L273 180 L270 177 L270 176 L269 176 L268 175 L268 174 L271 171 L272 171 L273 170 L274 170 L276 168 L277 168 L282 163 L282 162 L283 161 L283 160 L284 159 L284 158 L286 156 L286 155 L287 154 L287 153 L289 151 L289 150 L290 149 L290 148 L292 146 L292 144 L293 143 L293 142 L294 141 L294 140 L295 139 L295 138 L296 137 L296 136 L297 135 L297 134 L298 133 L298 129 L282 113 L281 113 L279 111 L278 111 L275 108 L275 107 L276 106 L276 105 L277 104 L277 103 L278 102 L278 99 L279 98 L279 94 L278 93 L278 79 L277 78 L277 56 L275 54 L274 54 L273 53 L270 53 L269 52 L266 52 L265 51 L261 51 L260 50 L258 50 L257 49 L255 49 L254 48 L252 48 L251 47 L249 47 L248 46 L230 46 L229 47 L227 47 L226 48 L223 48 L222 49 L220 49 L219 48 L219 46 L218 45 L218 44 L217 43 L217 42 L216 41 L216 39 L215 38 L215 37 L213 35 L213 34 L210 31 L210 30 L207 27 L207 26 L203 22 L203 21 L201 19 L201 18 L200 17 L200 16 L196 12 L195 12 L194 11 Z M247 0 L247 5 L246 6 L246 8 L247 9 L251 9 L253 7 L254 7 L258 3 L259 3 L261 1 L262 1 L263 0 Z " fill="black"/></svg>