<svg width="797" height="1199" xmlns="http://www.w3.org/2000/svg"><path d="M210 10 L209 11 L209 12 L208 13 L208 14 L207 15 L207 16 L206 17 L206 18 L204 20 L204 21 L203 22 L203 23 L202 24 L202 26 L201 27 L201 30 L200 31 L200 36 L199 37 L199 51 L200 52 L200 57 L199 58 L198 57 L197 57 L196 56 L194 56 L193 55 L192 55 L191 54 L188 54 L187 53 L183 53 L182 52 L175 52 L174 51 L165 51 L164 50 L160 50 L157 47 L157 46 L156 45 L156 44 L155 43 L155 42 L154 41 L154 40 L153 39 L153 38 L150 35 L147 35 L145 33 L142 33 L141 34 L140 34 L139 35 L139 36 L138 37 L138 40 L137 41 L136 41 L129 34 L128 34 L127 33 L126 33 L125 32 L124 33 L120 33 L118 35 L118 36 L117 37 L117 41 L118 42 L118 43 L119 44 L119 45 L120 46 L120 48 L121 49 L121 51 L120 52 L119 52 L118 51 L115 51 L114 52 L114 57 L116 59 L116 60 L117 61 L117 62 L118 63 L118 64 L120 66 L120 67 L121 68 L121 69 L122 70 L122 72 L121 73 L120 72 L119 72 L118 71 L117 71 L116 70 L115 70 L114 69 L113 69 L112 68 L111 68 L108 65 L107 65 L105 63 L105 61 L104 61 L103 60 L102 61 L101 61 L100 62 L100 64 L99 65 L99 67 L100 68 L100 70 L101 71 L101 74 L99 76 L99 79 L102 82 L102 83 L101 84 L100 84 L99 85 L98 85 L96 87 L96 91 L97 92 L97 94 L96 95 L81 95 L80 96 L78 96 L77 97 L76 97 L74 99 L74 100 L73 101 L73 108 L74 109 L74 110 L75 111 L75 112 L83 120 L83 121 L88 126 L89 126 L91 128 L93 128 L94 129 L96 129 L97 130 L97 131 L95 133 L93 133 L92 134 L91 134 L90 135 L88 135 L87 136 L86 136 L85 137 L82 137 L79 134 L77 134 L76 135 L76 136 L75 137 L75 138 L74 139 L64 139 L63 140 L62 140 L61 141 L61 144 L62 145 L62 147 L61 148 L61 149 L58 152 L58 156 L59 157 L59 158 L60 159 L61 159 L62 160 L65 160 L66 159 L70 159 L72 161 L72 162 L71 163 L71 166 L72 167 L72 173 L73 174 L71 176 L65 176 L64 177 L63 177 L62 178 L62 181 L65 184 L65 185 L63 187 L63 188 L61 190 L61 193 L62 194 L62 195 L65 198 L65 201 L63 203 L62 203 L61 202 L51 202 L50 203 L48 203 L47 204 L46 204 L45 205 L44 205 L43 206 L42 206 L41 207 L41 212 L42 213 L42 215 L43 216 L43 217 L44 218 L44 219 L45 220 L45 221 L52 228 L53 228 L54 229 L55 229 L56 230 L57 230 L58 231 L59 231 L60 232 L62 232 L63 233 L70 233 L71 232 L72 232 L73 233 L75 233 L76 232 L81 232 L82 231 L84 231 L85 230 L87 230 L88 229 L90 229 L91 230 L88 233 L88 234 L86 236 L86 237 L85 238 L85 239 L84 240 L84 241 L83 242 L83 244 L82 245 L82 247 L81 248 L81 250 L80 251 L80 255 L79 256 L79 270 L78 271 L78 272 L79 273 L79 275 L80 276 L80 277 L81 278 L81 279 L83 281 L83 282 L89 288 L90 288 L91 289 L96 289 L96 288 L98 286 L98 284 L99 283 L99 282 L100 281 L100 280 L101 279 L101 278 L104 275 L104 274 L107 271 L107 270 L108 269 L108 268 L110 266 L110 265 L111 264 L111 262 L112 261 L112 258 L113 257 L113 253 L114 252 L114 249 L115 248 L115 244 L116 243 L116 241 L118 239 L119 239 L120 240 L121 240 L122 241 L122 242 L124 244 L124 245 L125 246 L125 247 L126 248 L125 249 L125 250 L123 252 L123 253 L120 256 L120 257 L117 260 L117 261 L116 262 L116 267 L117 268 L117 269 L123 275 L124 275 L126 277 L127 277 L128 278 L129 278 L130 279 L133 279 L134 280 L136 280 L137 281 L140 281 L141 282 L143 282 L144 283 L153 283 L154 282 L157 282 L158 281 L160 281 L161 280 L163 280 L164 281 L164 282 L163 283 L163 285 L162 286 L162 287 L161 288 L161 290 L160 291 L160 293 L159 294 L159 296 L158 297 L158 300 L157 301 L157 303 L156 304 L156 305 L150 311 L149 311 L148 312 L147 312 L147 315 L148 315 L149 316 L150 315 L151 315 L152 314 L153 314 L154 313 L155 313 L156 312 L157 313 L157 315 L158 316 L158 320 L159 321 L159 324 L160 325 L160 328 L161 329 L161 330 L162 331 L162 332 L163 333 L163 334 L164 335 L164 336 L165 337 L166 337 L167 338 L171 338 L172 337 L173 337 L174 336 L175 336 L176 335 L177 335 L179 333 L180 333 L182 331 L182 330 L185 327 L185 326 L187 324 L187 322 L188 321 L188 319 L189 318 L189 315 L190 314 L190 312 L191 311 L191 309 L192 308 L192 307 L193 306 L193 303 L194 302 L194 296 L195 295 L195 293 L196 292 L197 292 L198 293 L198 294 L201 297 L201 298 L202 299 L202 301 L203 302 L203 303 L211 311 L212 311 L213 312 L216 312 L217 313 L219 313 L220 314 L223 314 L224 315 L227 315 L228 316 L233 316 L234 315 L237 315 L238 316 L239 316 L240 317 L240 318 L253 331 L253 333 L254 334 L254 339 L255 340 L255 351 L256 352 L256 360 L257 361 L257 367 L258 368 L258 381 L259 382 L259 386 L258 387 L258 393 L257 394 L257 398 L258 399 L258 403 L259 404 L259 410 L260 411 L260 417 L261 418 L261 427 L262 428 L262 445 L263 446 L263 454 L264 455 L264 460 L265 461 L265 465 L266 466 L266 471 L265 472 L263 470 L263 469 L262 468 L262 467 L261 466 L261 465 L260 464 L260 463 L259 462 L259 461 L257 459 L257 458 L255 456 L255 455 L253 453 L253 452 L250 449 L250 448 L248 446 L248 445 L244 441 L244 440 L238 434 L238 433 L232 427 L232 426 L226 420 L225 420 L221 416 L220 416 L217 413 L216 413 L213 410 L212 410 L209 407 L208 407 L206 405 L205 405 L203 403 L202 403 L200 401 L199 401 L197 399 L196 399 L195 398 L194 398 L192 396 L191 396 L190 395 L189 395 L188 394 L187 394 L186 393 L185 393 L184 392 L182 392 L181 391 L180 391 L179 390 L178 390 L177 389 L176 389 L175 388 L173 388 L172 387 L171 387 L170 386 L169 386 L168 385 L167 385 L166 384 L165 384 L164 383 L162 383 L161 382 L160 382 L159 381 L158 381 L157 380 L156 380 L155 379 L153 379 L152 378 L150 378 L149 377 L147 377 L146 376 L144 376 L143 375 L141 375 L140 374 L137 374 L136 373 L132 373 L131 372 L129 372 L128 371 L126 371 L125 370 L123 370 L122 369 L118 369 L117 368 L107 368 L106 367 L101 367 L100 368 L85 368 L84 369 L77 369 L76 370 L75 370 L74 371 L73 371 L72 372 L72 373 L69 376 L69 377 L68 378 L68 379 L69 380 L69 381 L77 389 L78 389 L86 397 L87 397 L91 401 L92 401 L99 408 L100 408 L104 412 L105 412 L108 415 L109 415 L112 418 L113 418 L117 422 L118 422 L120 424 L121 424 L123 426 L124 426 L126 428 L127 428 L129 430 L130 430 L133 433 L134 433 L136 435 L137 435 L140 438 L141 438 L142 439 L143 439 L144 440 L145 440 L147 442 L148 442 L150 444 L151 444 L153 446 L154 446 L155 447 L156 447 L158 449 L159 449 L160 450 L161 450 L162 451 L164 451 L166 453 L167 453 L168 454 L169 454 L170 455 L171 455 L172 456 L173 456 L174 457 L175 457 L177 459 L178 459 L179 460 L181 460 L182 461 L183 461 L184 462 L185 462 L186 463 L187 463 L188 464 L189 464 L190 465 L191 465 L192 466 L193 466 L194 467 L195 467 L196 468 L197 468 L198 469 L199 469 L200 470 L202 470 L203 471 L204 471 L205 472 L206 472 L207 473 L208 473 L209 474 L211 474 L212 475 L213 475 L214 476 L215 476 L216 477 L217 477 L218 478 L219 478 L220 479 L221 479 L222 480 L223 480 L224 481 L225 481 L226 482 L227 482 L229 484 L230 484 L231 485 L232 485 L234 487 L235 487 L237 489 L238 489 L243 494 L244 494 L245 495 L245 496 L249 500 L249 501 L253 505 L253 506 L255 508 L255 509 L256 510 L256 511 L258 513 L258 515 L259 516 L259 517 L260 518 L260 520 L261 521 L261 523 L262 524 L262 527 L263 528 L263 530 L264 531 L264 534 L265 535 L265 540 L266 541 L265 542 L264 542 L262 540 L262 539 L258 535 L258 534 L248 524 L247 524 L243 520 L242 520 L239 517 L238 517 L236 515 L235 515 L233 513 L232 513 L230 511 L229 511 L228 510 L227 510 L226 509 L225 509 L224 508 L223 508 L222 507 L221 507 L220 506 L219 506 L218 505 L216 505 L213 502 L212 502 L209 499 L207 499 L206 498 L204 498 L203 497 L202 497 L201 496 L200 496 L197 493 L196 493 L195 492 L194 492 L193 491 L191 491 L190 490 L188 490 L187 489 L184 489 L183 488 L180 488 L179 487 L177 487 L176 486 L172 486 L171 485 L168 485 L167 484 L164 484 L163 483 L161 483 L160 482 L157 482 L156 481 L153 481 L152 480 L147 480 L146 479 L141 479 L140 478 L135 478 L134 477 L127 477 L126 476 L92 476 L91 477 L82 477 L81 478 L69 478 L68 479 L65 479 L64 480 L61 480 L60 481 L57 481 L56 482 L53 482 L52 483 L50 483 L49 484 L47 484 L46 485 L44 485 L43 486 L41 486 L40 487 L39 487 L38 488 L37 488 L36 489 L34 489 L32 491 L31 491 L30 492 L29 492 L28 493 L27 493 L26 494 L25 494 L20 499 L20 500 L19 501 L19 504 L20 505 L20 506 L21 507 L21 508 L23 510 L24 510 L26 512 L27 512 L28 513 L29 513 L31 515 L32 515 L33 516 L34 516 L35 517 L36 517 L37 518 L38 518 L39 519 L41 519 L42 520 L45 520 L46 521 L50 521 L51 522 L56 522 L57 523 L61 523 L63 525 L65 525 L66 526 L69 526 L70 527 L72 527 L73 528 L76 528 L77 529 L81 529 L82 530 L85 530 L86 531 L89 531 L90 532 L94 532 L95 533 L99 533 L100 534 L105 534 L106 535 L111 535 L112 536 L119 536 L120 537 L126 537 L127 538 L131 538 L132 539 L142 539 L143 540 L143 554 L144 555 L144 562 L145 563 L145 567 L146 568 L146 576 L147 577 L147 581 L148 582 L148 584 L149 585 L149 588 L150 589 L150 591 L151 592 L151 595 L152 596 L152 598 L153 599 L153 602 L154 603 L154 605 L155 606 L155 608 L156 609 L156 612 L157 613 L157 614 L156 615 L155 615 L154 614 L151 614 L150 613 L147 613 L146 612 L140 612 L139 611 L130 611 L129 610 L117 610 L116 611 L106 611 L105 610 L104 610 L103 609 L102 609 L101 608 L100 608 L99 607 L98 607 L96 605 L95 605 L94 604 L93 604 L92 603 L91 603 L90 602 L89 602 L88 601 L87 601 L86 600 L84 600 L83 599 L82 599 L81 598 L79 598 L78 597 L75 597 L74 596 L62 596 L61 597 L56 597 L55 598 L51 598 L50 599 L47 599 L46 600 L44 600 L43 601 L41 601 L40 602 L39 602 L38 603 L37 603 L36 604 L35 604 L33 606 L32 606 L31 607 L30 607 L28 609 L27 609 L25 611 L24 611 L17 618 L17 619 L14 622 L14 623 L13 624 L13 625 L12 626 L12 628 L11 629 L11 636 L12 637 L12 638 L13 639 L13 640 L14 641 L20 641 L21 640 L27 640 L28 639 L33 639 L34 638 L39 638 L40 637 L44 637 L45 636 L48 636 L49 635 L52 635 L53 634 L57 634 L58 633 L60 633 L61 632 L67 632 L68 631 L74 631 L75 630 L79 630 L80 629 L84 629 L85 628 L89 628 L90 627 L95 627 L96 626 L100 626 L101 625 L106 625 L107 626 L109 626 L110 627 L112 627 L113 628 L114 628 L115 629 L116 629 L117 630 L118 630 L120 632 L121 632 L122 633 L123 633 L124 634 L125 634 L128 637 L129 637 L132 640 L133 640 L136 643 L137 643 L141 647 L142 647 L147 652 L148 652 L162 666 L162 667 L174 679 L175 679 L178 682 L179 682 L181 684 L182 684 L186 688 L187 688 L201 702 L201 703 L203 705 L203 706 L205 708 L205 709 L207 711 L207 712 L209 714 L209 715 L211 717 L211 718 L213 720 L213 721 L215 723 L215 724 L217 726 L217 727 L218 728 L218 729 L220 731 L220 732 L222 734 L222 735 L225 738 L225 739 L227 741 L227 742 L230 745 L230 746 L232 748 L232 749 L235 752 L235 753 L237 755 L237 756 L239 758 L239 759 L242 762 L242 763 L243 764 L243 765 L242 766 L233 766 L232 767 L230 767 L229 768 L226 768 L225 769 L222 769 L221 770 L219 770 L218 771 L215 771 L214 772 L211 772 L210 773 L209 773 L208 774 L205 774 L204 775 L203 775 L202 776 L200 776 L199 777 L198 777 L197 778 L196 778 L195 779 L194 779 L193 780 L191 780 L190 781 L188 781 L187 782 L186 782 L185 783 L184 783 L183 784 L182 784 L181 785 L179 785 L178 786 L177 786 L170 793 L170 794 L168 796 L168 797 L165 800 L165 801 L163 803 L163 810 L162 811 L162 815 L163 816 L163 818 L162 819 L162 820 L163 821 L163 835 L164 836 L164 843 L165 844 L165 850 L166 851 L166 856 L167 857 L167 863 L168 864 L168 870 L169 871 L169 877 L170 878 L170 882 L171 883 L171 885 L172 886 L172 888 L173 889 L173 891 L174 892 L174 893 L176 895 L176 896 L178 898 L178 899 L179 899 L183 903 L184 903 L186 905 L187 905 L189 907 L190 907 L195 912 L195 915 L196 916 L196 921 L197 922 L197 929 L198 930 L198 934 L199 935 L199 939 L200 940 L200 943 L201 944 L201 946 L202 947 L202 949 L203 950 L203 953 L204 954 L204 958 L205 959 L205 965 L206 966 L206 970 L207 971 L207 973 L208 974 L208 976 L209 977 L209 981 L210 982 L210 985 L211 986 L211 989 L212 990 L212 994 L213 995 L213 999 L214 1000 L214 1003 L215 1004 L215 1008 L216 1009 L216 1013 L217 1014 L217 1019 L218 1020 L218 1023 L219 1024 L219 1027 L220 1028 L220 1031 L221 1032 L221 1035 L222 1036 L222 1040 L223 1041 L223 1045 L224 1046 L224 1048 L225 1049 L225 1052 L226 1053 L226 1057 L227 1058 L227 1061 L228 1062 L228 1065 L229 1066 L229 1071 L230 1072 L230 1076 L231 1077 L231 1081 L232 1082 L232 1085 L233 1086 L233 1089 L234 1090 L234 1091 L235 1092 L235 1094 L236 1095 L236 1097 L237 1098 L237 1101 L238 1102 L238 1106 L239 1107 L239 1109 L240 1110 L240 1112 L241 1113 L241 1115 L242 1116 L242 1118 L243 1119 L243 1121 L244 1122 L244 1123 L245 1124 L245 1126 L246 1127 L246 1129 L247 1130 L247 1132 L248 1133 L248 1135 L249 1136 L249 1138 L250 1139 L250 1141 L251 1142 L251 1144 L252 1145 L252 1147 L254 1149 L254 1150 L257 1153 L257 1154 L262 1159 L263 1159 L266 1162 L267 1162 L268 1163 L269 1163 L270 1164 L271 1164 L272 1165 L273 1165 L274 1166 L275 1166 L276 1167 L277 1167 L278 1168 L279 1168 L280 1169 L282 1169 L283 1170 L284 1170 L285 1171 L286 1171 L287 1172 L288 1172 L289 1173 L291 1173 L292 1174 L294 1174 L295 1175 L297 1175 L298 1176 L300 1176 L301 1177 L303 1177 L304 1178 L308 1178 L309 1179 L314 1179 L315 1180 L317 1180 L318 1181 L321 1181 L322 1182 L326 1182 L327 1183 L333 1183 L334 1184 L341 1184 L342 1185 L352 1185 L353 1186 L369 1186 L370 1187 L417 1187 L418 1186 L425 1186 L426 1185 L434 1185 L435 1184 L441 1184 L442 1183 L447 1183 L448 1182 L452 1182 L453 1181 L456 1181 L457 1180 L460 1180 L461 1179 L466 1179 L467 1178 L469 1178 L470 1177 L473 1177 L474 1176 L476 1176 L477 1175 L478 1175 L479 1174 L481 1174 L482 1173 L483 1173 L484 1172 L485 1172 L486 1171 L488 1171 L489 1170 L490 1170 L491 1169 L493 1169 L495 1167 L496 1167 L497 1166 L498 1166 L499 1165 L500 1165 L502 1163 L503 1163 L511 1155 L512 1155 L514 1153 L514 1151 L515 1150 L515 1149 L516 1148 L516 1145 L517 1144 L517 1142 L518 1141 L518 1139 L519 1138 L519 1136 L520 1135 L520 1132 L521 1131 L521 1129 L522 1128 L522 1125 L523 1124 L523 1122 L524 1121 L524 1118 L525 1117 L525 1110 L526 1109 L526 1106 L527 1105 L527 1102 L528 1101 L528 1099 L529 1098 L529 1094 L530 1093 L530 1089 L531 1088 L531 1085 L532 1084 L532 1081 L533 1080 L533 1076 L534 1075 L534 1072 L535 1071 L535 1068 L536 1067 L536 1064 L537 1063 L537 1059 L538 1058 L538 1053 L539 1052 L539 1048 L540 1047 L540 1043 L541 1042 L541 1038 L542 1037 L542 1033 L543 1032 L543 1028 L544 1027 L544 1023 L545 1022 L545 1017 L546 1016 L546 1013 L547 1012 L547 1009 L548 1008 L548 1004 L549 1003 L549 998 L550 997 L550 994 L551 993 L551 988 L552 987 L552 981 L553 980 L553 976 L554 975 L554 971 L555 970 L555 967 L556 966 L556 963 L557 962 L557 958 L558 957 L558 953 L559 952 L559 949 L560 948 L560 944 L561 943 L561 938 L562 937 L562 933 L563 932 L563 929 L564 928 L564 924 L565 923 L565 920 L566 919 L566 916 L567 915 L567 913 L570 910 L571 910 L572 909 L573 909 L575 907 L576 907 L579 904 L580 904 L584 900 L584 899 L585 898 L585 897 L587 895 L587 894 L588 893 L588 892 L589 891 L589 889 L590 888 L590 886 L591 885 L591 881 L592 880 L592 877 L593 876 L593 871 L594 870 L594 864 L595 863 L595 857 L596 856 L596 849 L597 848 L597 839 L598 838 L598 828 L599 827 L599 807 L598 806 L598 803 L597 802 L597 801 L596 800 L596 799 L595 798 L595 797 L592 794 L592 793 L589 790 L588 790 L583 785 L582 785 L580 783 L579 783 L577 781 L576 781 L575 780 L574 780 L573 779 L572 779 L571 778 L570 778 L569 777 L568 777 L567 776 L566 776 L565 775 L563 775 L562 774 L560 774 L559 773 L557 773 L556 772 L555 772 L554 771 L551 771 L550 770 L549 770 L548 769 L545 769 L544 768 L541 768 L540 767 L537 767 L536 766 L532 766 L531 765 L527 765 L526 764 L520 764 L519 763 L515 763 L514 762 L505 762 L504 761 L498 761 L497 760 L490 760 L489 759 L489 758 L490 757 L490 756 L491 755 L491 754 L492 753 L492 752 L493 751 L493 750 L494 749 L494 748 L495 747 L495 746 L496 745 L496 743 L497 742 L497 741 L498 740 L498 739 L499 738 L499 736 L500 735 L500 734 L501 733 L501 731 L502 730 L502 729 L503 728 L503 726 L504 725 L504 723 L505 722 L505 720 L506 719 L506 718 L507 717 L507 715 L508 714 L508 712 L509 711 L509 709 L510 708 L510 706 L511 705 L511 703 L512 702 L512 700 L513 699 L513 698 L514 697 L514 696 L515 695 L515 693 L516 692 L516 690 L518 688 L518 687 L519 686 L519 685 L523 681 L524 681 L525 680 L526 680 L527 679 L528 679 L529 678 L531 678 L532 677 L535 677 L536 676 L539 676 L540 675 L542 675 L543 674 L546 674 L547 673 L549 673 L550 672 L552 672 L553 671 L555 671 L556 670 L558 670 L559 669 L562 669 L563 668 L572 668 L573 667 L575 667 L576 666 L578 666 L579 665 L580 665 L581 664 L584 664 L585 663 L589 663 L590 662 L595 662 L596 661 L602 661 L603 660 L609 660 L610 659 L615 659 L616 658 L621 658 L622 657 L629 657 L630 656 L635 656 L636 657 L642 657 L643 658 L645 658 L646 659 L647 659 L648 660 L651 660 L652 661 L654 661 L655 662 L656 662 L657 663 L658 663 L661 666 L662 666 L666 670 L666 671 L668 673 L669 673 L671 675 L672 675 L673 676 L674 676 L675 677 L676 677 L678 679 L679 679 L680 680 L681 680 L682 681 L683 681 L684 682 L685 682 L687 684 L688 684 L689 685 L690 685 L691 686 L692 686 L694 688 L695 688 L696 689 L697 689 L698 690 L699 690 L700 691 L701 691 L702 692 L704 692 L705 693 L707 693 L708 694 L710 694 L711 695 L712 695 L713 696 L714 696 L715 697 L716 697 L717 698 L719 698 L720 699 L723 699 L724 700 L726 700 L727 699 L727 698 L728 697 L728 694 L729 693 L729 687 L728 686 L728 684 L727 683 L727 681 L726 680 L726 679 L724 677 L724 676 L716 668 L716 667 L715 666 L715 665 L705 655 L704 655 L703 654 L702 654 L700 652 L699 652 L697 650 L696 650 L695 649 L693 649 L692 648 L691 648 L690 647 L688 647 L687 646 L685 646 L684 645 L681 645 L680 644 L677 644 L676 643 L669 643 L668 642 L658 642 L657 641 L648 641 L647 640 L645 640 L644 639 L643 639 L642 638 L641 638 L640 637 L638 637 L637 636 L636 636 L635 635 L634 635 L633 634 L631 634 L630 633 L628 633 L627 632 L624 632 L623 631 L620 631 L619 630 L615 630 L614 629 L610 629 L609 628 L606 628 L605 627 L602 627 L601 626 L596 626 L595 625 L571 625 L570 626 L567 626 L566 627 L561 627 L560 628 L554 628 L553 629 L550 629 L549 630 L546 630 L545 631 L543 631 L542 632 L541 632 L540 633 L539 633 L538 634 L537 634 L536 635 L535 635 L534 636 L533 636 L532 637 L531 637 L530 638 L529 637 L529 636 L530 635 L530 634 L531 633 L531 632 L532 631 L532 630 L533 629 L533 628 L534 627 L534 626 L535 625 L535 624 L536 623 L536 622 L537 621 L537 620 L538 619 L538 618 L539 617 L539 616 L540 615 L540 614 L541 613 L541 612 L542 611 L542 610 L543 609 L543 608 L544 607 L544 606 L545 605 L545 604 L547 602 L547 601 L549 599 L549 598 L551 596 L551 595 L555 591 L556 591 L557 590 L559 590 L560 589 L562 589 L563 588 L566 588 L567 587 L570 587 L571 586 L573 586 L574 585 L576 585 L577 584 L580 584 L581 583 L583 583 L584 582 L587 582 L588 581 L590 581 L591 580 L593 580 L594 579 L596 579 L597 578 L599 578 L600 577 L602 577 L603 576 L604 576 L605 575 L607 575 L608 574 L609 574 L610 573 L611 573 L612 572 L614 572 L615 571 L616 571 L617 570 L618 570 L619 569 L620 569 L621 568 L622 568 L623 567 L624 567 L625 566 L626 566 L627 565 L629 565 L630 564 L631 564 L632 563 L633 563 L634 562 L635 562 L636 561 L637 561 L638 560 L639 560 L640 559 L641 559 L643 557 L644 557 L646 555 L647 555 L649 553 L650 553 L651 552 L653 552 L654 551 L655 551 L656 550 L657 550 L658 549 L659 549 L660 548 L661 548 L663 546 L664 546 L669 541 L670 541 L674 537 L675 537 L679 533 L680 533 L694 519 L695 519 L700 514 L701 514 L711 504 L711 503 L729 485 L730 485 L730 484 L732 482 L732 479 L729 476 L729 475 L728 475 L727 474 L726 474 L725 473 L724 473 L723 472 L720 472 L719 471 L711 471 L710 470 L696 470 L695 471 L687 471 L686 472 L681 472 L680 473 L676 473 L675 474 L671 474 L670 475 L667 475 L666 476 L663 476 L662 477 L659 477 L658 478 L656 478 L655 479 L652 479 L651 480 L649 480 L648 481 L646 481 L645 482 L643 482 L642 483 L640 483 L639 484 L637 484 L636 485 L635 485 L634 486 L632 486 L631 487 L630 487 L629 488 L628 488 L627 489 L626 489 L624 491 L623 491 L622 492 L621 492 L620 493 L619 493 L617 495 L616 495 L615 496 L614 496 L613 497 L612 497 L611 498 L610 498 L608 500 L607 500 L605 502 L604 502 L603 503 L602 503 L599 506 L598 506 L596 508 L595 508 L593 510 L592 510 L590 512 L589 512 L587 514 L586 514 L584 516 L583 516 L581 518 L580 518 L578 520 L577 520 L573 524 L572 524 L566 530 L565 530 L561 534 L560 534 L559 533 L559 530 L560 529 L560 527 L561 526 L561 523 L562 522 L562 520 L563 519 L563 518 L564 517 L564 514 L565 513 L565 511 L566 510 L566 508 L567 507 L567 505 L568 504 L568 501 L569 500 L569 498 L570 497 L570 494 L571 493 L571 490 L572 489 L572 485 L573 484 L573 481 L574 480 L574 477 L575 476 L575 472 L576 471 L576 467 L577 466 L577 462 L578 461 L578 456 L579 455 L579 451 L580 450 L580 447 L581 446 L581 441 L582 440 L582 438 L583 437 L583 434 L584 433 L584 429 L585 428 L585 425 L586 424 L586 422 L587 421 L587 420 L588 419 L588 418 L592 414 L592 413 L596 409 L598 409 L599 410 L620 410 L621 409 L622 409 L623 408 L625 408 L626 407 L627 407 L630 404 L631 404 L639 396 L640 397 L640 411 L641 412 L641 418 L642 419 L642 422 L643 423 L643 425 L644 426 L644 428 L645 429 L645 430 L646 431 L646 432 L647 433 L647 434 L648 435 L648 436 L650 438 L650 439 L654 443 L655 443 L656 444 L661 444 L662 443 L663 443 L668 438 L668 437 L669 436 L669 434 L670 433 L670 431 L671 430 L671 428 L672 427 L672 425 L673 424 L673 423 L674 422 L674 416 L675 415 L675 411 L674 410 L674 397 L675 396 L676 396 L678 398 L680 398 L681 399 L682 399 L683 400 L685 400 L686 401 L688 401 L689 402 L708 402 L709 401 L712 401 L713 400 L715 400 L716 399 L717 399 L718 398 L719 398 L720 397 L721 397 L724 394 L724 393 L725 392 L725 391 L726 390 L726 387 L725 386 L725 385 L724 384 L724 383 L721 380 L721 379 L724 376 L724 375 L725 374 L725 373 L726 372 L726 366 L727 365 L729 367 L729 368 L732 371 L732 372 L744 384 L745 384 L749 388 L750 388 L751 389 L756 389 L759 386 L759 384 L760 383 L760 368 L759 367 L759 364 L758 363 L758 361 L757 360 L757 359 L756 358 L756 357 L755 356 L755 355 L754 354 L754 353 L744 343 L745 342 L759 342 L760 341 L763 341 L764 340 L766 340 L767 339 L769 339 L770 338 L771 338 L773 336 L774 336 L777 333 L778 333 L779 332 L779 331 L783 327 L783 326 L784 325 L784 324 L785 323 L785 319 L784 318 L784 317 L783 316 L782 316 L781 315 L780 315 L779 314 L778 314 L777 313 L775 313 L774 312 L756 312 L755 313 L752 313 L751 314 L749 314 L748 313 L748 312 L749 311 L749 309 L750 308 L750 305 L751 304 L751 300 L752 299 L752 291 L753 290 L753 284 L752 283 L752 282 L754 280 L757 280 L758 279 L761 279 L762 278 L763 278 L766 275 L767 275 L776 266 L777 266 L778 265 L779 265 L780 264 L781 264 L783 262 L783 261 L782 260 L782 259 L775 252 L774 252 L772 250 L771 250 L770 249 L768 249 L767 248 L766 248 L765 247 L762 247 L761 246 L754 246 L753 245 L754 244 L755 244 L760 239 L760 237 L761 236 L760 235 L760 233 L758 231 L757 231 L756 230 L755 230 L754 229 L751 229 L750 228 L749 228 L748 227 L747 227 L745 225 L745 224 L750 219 L750 218 L752 216 L753 216 L753 215 L754 214 L755 214 L759 210 L760 210 L760 209 L761 208 L761 206 L758 206 L757 205 L757 204 L756 203 L757 202 L757 197 L754 194 L753 194 L752 195 L751 195 L748 198 L747 198 L746 199 L745 199 L744 200 L742 200 L741 199 L742 198 L742 195 L743 194 L743 189 L742 188 L740 188 L731 197 L730 196 L730 195 L729 194 L729 193 L728 192 L726 192 L725 191 L724 192 L723 192 L722 193 L722 198 L723 199 L723 201 L722 202 L722 205 L721 206 L721 208 L720 209 L720 211 L718 213 L717 213 L712 208 L712 207 L711 206 L711 205 L709 203 L707 203 L706 204 L706 205 L705 206 L705 207 L703 209 L703 210 L702 211 L702 212 L701 213 L701 214 L700 215 L700 217 L699 218 L699 221 L698 222 L695 219 L694 219 L691 216 L689 216 L688 215 L687 215 L686 214 L684 214 L683 213 L681 213 L680 212 L676 212 L674 210 L673 210 L672 209 L671 209 L669 207 L670 206 L686 206 L687 205 L692 205 L693 204 L695 204 L696 203 L698 203 L699 202 L700 202 L701 201 L702 201 L703 200 L704 200 L713 191 L713 190 L715 188 L715 187 L716 186 L716 184 L712 180 L712 179 L709 176 L708 176 L706 174 L704 174 L703 173 L700 173 L699 172 L684 172 L683 173 L681 173 L680 174 L677 174 L676 175 L675 175 L674 176 L673 176 L672 177 L671 176 L671 175 L672 174 L672 172 L673 171 L673 170 L674 169 L674 168 L675 167 L675 165 L676 164 L676 161 L677 160 L677 157 L678 156 L678 139 L677 138 L677 134 L676 133 L676 130 L675 129 L675 127 L674 126 L671 126 L670 127 L669 127 L668 128 L665 128 L664 129 L663 129 L662 130 L661 130 L659 132 L658 132 L653 137 L652 137 L647 142 L647 143 L646 144 L646 145 L645 146 L645 147 L644 148 L644 149 L643 150 L643 151 L642 152 L642 153 L641 154 L641 156 L640 157 L640 162 L639 163 L638 163 L636 161 L636 160 L634 158 L634 157 L627 150 L626 150 L622 146 L621 146 L620 145 L619 145 L618 144 L617 144 L616 143 L614 143 L613 142 L609 142 L608 141 L600 141 L598 143 L598 145 L597 146 L597 153 L598 154 L598 158 L599 159 L599 161 L600 162 L600 165 L601 166 L601 167 L602 168 L602 170 L603 171 L603 172 L604 173 L604 174 L615 185 L616 185 L622 191 L621 192 L616 192 L615 193 L611 193 L608 190 L605 190 L604 189 L603 190 L601 190 L600 191 L600 199 L601 200 L601 203 L600 204 L599 204 L598 203 L597 203 L591 197 L590 197 L587 194 L587 187 L584 184 L574 184 L573 185 L571 185 L570 186 L568 186 L567 187 L565 187 L564 188 L563 188 L562 189 L561 189 L557 193 L556 193 L552 197 L551 196 L551 195 L552 194 L552 190 L553 189 L553 184 L554 183 L554 163 L553 162 L553 159 L552 158 L552 156 L551 155 L551 153 L548 150 L548 149 L545 146 L545 145 L541 141 L538 141 L536 143 L536 144 L534 146 L534 147 L531 150 L531 151 L530 152 L530 153 L529 154 L529 155 L528 156 L528 157 L527 158 L527 159 L526 160 L526 161 L525 162 L525 165 L524 166 L524 169 L523 170 L523 174 L522 175 L522 184 L521 185 L521 188 L520 189 L514 183 L513 183 L511 181 L510 181 L509 180 L507 180 L506 179 L505 179 L504 178 L502 178 L501 177 L498 177 L497 176 L487 176 L486 177 L483 177 L481 179 L480 179 L480 180 L478 182 L478 190 L479 191 L479 194 L480 195 L480 196 L481 197 L481 199 L482 200 L482 201 L483 202 L483 203 L484 204 L484 205 L486 207 L486 208 L491 213 L492 213 L495 216 L496 216 L497 217 L498 217 L500 219 L501 219 L502 220 L504 220 L505 221 L507 221 L508 222 L509 222 L510 223 L509 224 L506 224 L505 225 L501 225 L500 226 L497 226 L496 227 L494 227 L493 228 L491 228 L490 229 L488 229 L487 230 L486 230 L485 231 L484 231 L483 232 L482 232 L481 233 L480 233 L478 235 L477 235 L473 239 L472 239 L471 240 L471 241 L470 242 L470 243 L468 245 L468 248 L467 249 L467 256 L470 259 L471 259 L472 260 L481 260 L482 259 L489 259 L490 258 L494 258 L495 257 L498 257 L499 258 L499 261 L500 262 L500 266 L501 267 L501 272 L502 273 L502 276 L503 277 L503 280 L504 281 L504 283 L505 284 L505 285 L506 286 L505 287 L498 287 L497 286 L494 286 L493 285 L491 285 L490 284 L487 284 L486 283 L483 283 L482 282 L473 282 L472 283 L470 283 L469 284 L468 284 L467 285 L465 285 L464 286 L463 286 L462 287 L460 287 L458 289 L457 289 L453 293 L452 293 L451 294 L451 299 L453 301 L453 302 L455 304 L455 305 L456 306 L456 307 L462 313 L463 313 L465 315 L466 315 L468 317 L469 317 L470 318 L471 318 L472 319 L474 319 L475 320 L477 320 L478 321 L498 321 L499 322 L490 331 L490 332 L488 334 L488 335 L486 337 L486 338 L485 339 L485 341 L484 342 L484 344 L483 345 L483 346 L482 347 L482 350 L481 351 L481 356 L480 357 L480 361 L481 362 L481 366 L482 367 L482 368 L483 369 L483 370 L485 372 L485 373 L486 373 L487 374 L495 374 L496 373 L499 373 L500 372 L501 372 L502 371 L503 371 L514 360 L514 359 L516 357 L516 356 L518 354 L518 353 L519 352 L519 350 L520 349 L520 348 L521 347 L521 346 L522 345 L522 343 L523 342 L523 341 L524 340 L526 342 L526 343 L527 344 L527 345 L529 347 L529 348 L539 358 L540 358 L541 359 L542 359 L543 360 L544 360 L545 361 L546 361 L547 362 L549 362 L550 363 L551 363 L552 364 L554 364 L555 365 L557 365 L558 366 L562 366 L563 367 L566 367 L567 366 L570 366 L572 364 L572 362 L573 361 L573 353 L572 352 L572 349 L573 348 L574 348 L575 349 L575 350 L577 352 L577 353 L578 354 L578 355 L580 357 L580 359 L581 360 L581 361 L582 362 L582 363 L583 364 L583 374 L580 377 L579 377 L575 373 L573 373 L572 374 L571 374 L571 375 L570 376 L570 379 L571 380 L571 383 L572 384 L572 385 L573 386 L573 387 L574 388 L574 391 L575 392 L575 394 L576 395 L576 399 L575 400 L575 404 L574 405 L574 409 L573 410 L573 414 L572 415 L572 418 L571 419 L571 422 L570 423 L570 426 L569 427 L569 429 L568 430 L568 433 L567 434 L567 438 L566 439 L566 441 L565 442 L565 445 L564 446 L564 450 L563 451 L563 454 L562 455 L562 459 L561 460 L561 465 L560 466 L560 476 L559 477 L559 481 L558 482 L558 485 L557 486 L557 489 L556 490 L556 492 L555 493 L555 496 L554 497 L554 499 L553 500 L553 502 L552 503 L552 506 L551 507 L551 509 L550 510 L550 512 L549 513 L549 515 L548 516 L548 518 L547 519 L546 518 L546 516 L545 515 L545 507 L544 506 L544 501 L543 500 L543 497 L542 496 L542 492 L541 491 L541 488 L540 487 L540 485 L539 484 L539 482 L538 481 L538 478 L537 477 L537 475 L536 474 L536 471 L535 470 L535 467 L534 466 L534 464 L533 463 L533 461 L532 460 L532 458 L531 457 L531 455 L530 454 L530 453 L529 452 L529 451 L528 450 L528 449 L527 448 L527 446 L526 445 L526 444 L525 443 L525 442 L524 441 L524 440 L523 439 L523 437 L522 436 L522 435 L521 434 L521 433 L519 431 L519 430 L518 429 L518 428 L517 427 L517 426 L516 425 L516 424 L515 423 L515 422 L513 420 L513 419 L512 418 L512 417 L510 415 L510 414 L509 413 L509 412 L506 409 L506 408 L504 406 L504 405 L499 400 L499 399 L487 387 L486 387 L484 385 L483 385 L482 384 L480 384 L479 383 L472 383 L471 384 L471 394 L470 395 L470 401 L469 402 L469 412 L468 413 L468 422 L469 423 L469 439 L470 440 L470 445 L471 446 L471 450 L472 451 L472 456 L473 457 L473 462 L474 463 L474 467 L475 468 L475 472 L476 473 L476 476 L477 477 L477 480 L478 481 L478 483 L479 484 L479 487 L480 488 L480 490 L481 491 L481 494 L482 495 L482 498 L483 499 L483 501 L484 502 L484 503 L485 504 L485 506 L486 507 L486 509 L487 510 L487 511 L488 512 L488 513 L489 514 L489 515 L490 516 L490 518 L489 519 L482 519 L481 520 L478 520 L477 521 L474 521 L473 522 L472 522 L470 520 L469 520 L464 515 L464 514 L456 506 L456 505 L453 502 L452 502 L449 499 L448 499 L440 491 L439 491 L437 489 L436 489 L434 487 L433 487 L430 484 L430 482 L434 478 L434 477 L437 474 L437 473 L439 471 L439 470 L440 469 L440 468 L441 467 L441 466 L442 465 L442 464 L443 463 L443 462 L445 460 L445 459 L447 457 L447 456 L449 454 L449 453 L451 451 L451 450 L453 448 L453 447 L454 446 L454 445 L455 444 L455 443 L456 442 L456 441 L457 440 L457 439 L458 438 L458 437 L459 436 L459 434 L460 433 L460 431 L461 430 L461 428 L462 427 L462 423 L463 422 L463 416 L460 413 L454 413 L453 414 L447 414 L446 415 L442 415 L441 416 L439 416 L438 417 L435 417 L434 418 L432 418 L431 419 L430 419 L429 420 L426 420 L425 421 L424 421 L423 422 L421 422 L420 423 L419 423 L418 424 L416 424 L415 425 L414 425 L413 426 L412 426 L410 428 L409 428 L408 429 L407 429 L406 430 L405 430 L403 432 L402 432 L401 433 L400 433 L398 435 L397 435 L395 437 L394 437 L392 439 L391 439 L387 443 L386 443 L382 447 L381 447 L377 451 L376 451 L373 454 L372 454 L368 458 L367 458 L344 481 L344 482 L339 487 L339 488 L336 491 L336 492 L332 496 L332 497 L328 501 L328 502 L325 505 L325 506 L322 509 L322 510 L321 511 L321 512 L319 514 L319 515 L317 517 L317 518 L315 520 L315 521 L314 522 L314 523 L313 524 L313 525 L311 527 L311 528 L310 529 L310 530 L309 531 L309 532 L308 533 L308 535 L307 536 L307 537 L306 538 L306 539 L305 540 L304 539 L304 536 L305 535 L305 531 L306 530 L306 528 L307 527 L307 526 L308 525 L308 523 L309 522 L309 521 L310 520 L310 519 L311 518 L311 517 L312 516 L312 515 L314 513 L314 512 L316 510 L316 509 L320 505 L320 504 L324 500 L324 499 L329 494 L329 493 L333 489 L333 488 L337 484 L337 483 L341 479 L341 478 L344 475 L344 474 L347 471 L347 470 L350 467 L350 466 L352 464 L352 463 L355 460 L355 459 L357 457 L357 456 L360 453 L360 452 L362 450 L362 449 L364 447 L364 446 L367 443 L367 442 L369 440 L369 439 L371 437 L371 436 L373 434 L373 433 L374 432 L374 431 L375 430 L375 429 L377 427 L377 426 L378 425 L378 424 L380 422 L380 421 L381 420 L381 419 L382 418 L382 417 L384 415 L384 414 L385 413 L385 412 L387 410 L387 409 L388 408 L388 407 L389 406 L389 405 L390 404 L390 403 L391 402 L391 401 L392 400 L392 399 L393 398 L393 397 L394 396 L394 395 L395 394 L395 393 L396 392 L396 391 L397 390 L397 389 L398 388 L398 387 L400 385 L400 384 L401 383 L401 382 L402 381 L402 380 L403 379 L403 378 L404 377 L404 376 L405 375 L405 374 L406 373 L406 372 L407 371 L407 370 L408 369 L408 368 L409 367 L409 366 L410 365 L410 364 L411 363 L411 362 L412 361 L412 360 L413 359 L413 358 L414 357 L414 356 L415 355 L415 354 L416 353 L416 352 L417 351 L417 350 L418 349 L418 348 L419 347 L419 346 L420 345 L420 344 L421 343 L421 342 L422 341 L422 340 L423 339 L423 335 L421 333 L420 333 L419 332 L417 332 L416 331 L412 331 L411 330 L408 330 L407 331 L404 331 L403 332 L401 332 L400 333 L399 333 L398 334 L397 334 L396 335 L395 335 L394 336 L392 336 L391 337 L390 337 L389 338 L388 338 L387 339 L385 339 L384 340 L383 340 L382 341 L381 341 L380 342 L379 342 L377 344 L376 344 L375 345 L374 345 L373 346 L372 346 L370 348 L369 348 L367 350 L366 350 L364 352 L363 352 L361 354 L360 354 L357 357 L356 357 L352 361 L351 361 L327 385 L327 386 L324 389 L324 390 L322 392 L322 393 L321 394 L321 395 L319 397 L319 398 L313 404 L313 405 L311 407 L311 408 L310 409 L310 410 L308 412 L308 413 L307 414 L307 415 L306 416 L306 417 L305 418 L305 419 L304 420 L304 421 L302 423 L302 424 L301 425 L301 426 L300 427 L300 428 L299 429 L299 430 L298 431 L298 432 L297 433 L297 434 L296 435 L296 436 L295 437 L295 438 L294 439 L294 440 L293 441 L293 442 L292 443 L292 445 L291 446 L291 448 L290 449 L290 451 L289 452 L289 453 L288 454 L288 456 L287 457 L287 459 L286 460 L286 462 L285 463 L285 465 L284 466 L284 467 L283 468 L282 467 L282 456 L281 455 L281 444 L280 443 L280 433 L279 432 L279 423 L278 422 L278 415 L277 414 L277 409 L276 408 L276 386 L275 385 L275 376 L274 375 L274 370 L273 369 L273 359 L272 358 L272 353 L271 352 L271 345 L270 344 L270 339 L269 338 L269 326 L268 325 L268 310 L269 309 L269 308 L270 307 L270 306 L271 305 L271 304 L274 301 L275 301 L276 302 L277 302 L280 305 L282 305 L283 306 L284 306 L285 305 L291 305 L292 304 L294 304 L295 303 L296 303 L297 302 L298 302 L300 300 L301 300 L304 297 L305 297 L313 289 L313 288 L314 287 L314 286 L316 284 L316 283 L317 282 L317 281 L318 280 L318 278 L319 277 L319 275 L320 274 L320 273 L321 272 L322 273 L322 277 L323 278 L323 282 L324 283 L324 285 L325 286 L325 287 L328 290 L328 291 L331 294 L331 295 L332 296 L332 297 L338 303 L338 304 L339 304 L341 306 L342 306 L343 307 L344 307 L345 308 L346 308 L347 309 L348 309 L350 311 L354 311 L355 310 L355 308 L357 306 L357 305 L358 304 L358 302 L359 301 L359 298 L360 297 L360 284 L359 283 L359 278 L358 277 L358 275 L359 274 L360 274 L361 275 L362 275 L363 276 L363 278 L364 278 L365 279 L366 279 L367 278 L368 278 L369 277 L369 276 L371 274 L372 274 L373 273 L384 273 L385 272 L385 269 L384 268 L384 267 L380 263 L380 262 L379 262 L372 255 L371 255 L368 252 L367 252 L366 251 L366 250 L368 248 L370 248 L371 247 L372 247 L373 246 L374 246 L376 244 L377 244 L383 238 L383 237 L384 236 L384 235 L386 233 L386 232 L387 231 L387 230 L388 229 L388 228 L390 226 L390 225 L392 223 L394 223 L395 224 L397 224 L398 225 L401 225 L402 226 L404 226 L405 227 L406 227 L407 228 L409 228 L410 229 L411 229 L413 231 L414 231 L415 232 L416 232 L419 229 L419 227 L420 226 L420 220 L419 219 L419 216 L418 215 L418 211 L417 210 L417 209 L416 208 L416 207 L415 206 L415 205 L413 203 L413 202 L411 200 L411 199 L408 196 L408 195 L400 187 L399 187 L398 186 L398 185 L399 184 L409 184 L410 183 L412 183 L413 182 L414 182 L415 181 L416 181 L421 176 L421 174 L422 173 L422 171 L423 170 L423 165 L425 163 L425 162 L426 161 L426 160 L427 159 L427 157 L428 156 L428 153 L427 152 L427 151 L423 151 L422 152 L421 152 L420 153 L418 153 L417 152 L417 146 L418 145 L418 141 L417 140 L416 140 L414 138 L415 137 L415 136 L416 135 L416 133 L415 132 L415 131 L414 131 L413 130 L411 130 L409 128 L407 128 L406 129 L405 129 L404 130 L403 130 L402 129 L402 128 L398 128 L395 131 L394 131 L394 132 L393 133 L392 133 L391 132 L391 122 L392 121 L392 119 L393 118 L393 116 L395 114 L397 114 L400 111 L400 109 L401 108 L401 105 L398 102 L396 102 L395 101 L392 101 L391 102 L388 102 L387 103 L383 103 L382 104 L380 102 L380 99 L381 98 L382 98 L383 97 L383 94 L382 93 L382 92 L381 92 L380 91 L379 91 L377 89 L376 89 L373 86 L372 86 L371 85 L369 85 L368 84 L365 84 L364 83 L358 83 L357 82 L352 82 L351 81 L353 79 L353 78 L354 77 L355 77 L355 76 L358 73 L358 72 L360 70 L360 69 L361 68 L361 66 L360 65 L360 64 L359 64 L358 63 L358 62 L357 61 L357 59 L356 58 L356 57 L353 54 L353 51 L348 51 L347 52 L345 52 L344 53 L343 53 L342 54 L339 54 L338 55 L335 52 L335 51 L336 50 L336 48 L337 47 L337 46 L338 45 L338 44 L340 42 L340 41 L342 39 L342 38 L346 34 L347 34 L349 32 L349 31 L350 30 L350 26 L346 26 L345 27 L344 26 L341 26 L339 24 L338 24 L333 19 L331 19 L328 22 L327 22 L326 23 L325 22 L325 21 L323 19 L323 18 L322 17 L322 16 L321 15 L319 15 L318 16 L318 17 L317 18 L317 20 L316 21 L316 22 L314 24 L314 26 L313 27 L313 28 L312 29 L312 30 L311 31 L310 30 L310 29 L308 27 L308 26 L307 25 L307 24 L306 24 L305 23 L302 23 L302 24 L300 26 L299 26 L297 28 L296 28 L295 29 L292 29 L292 30 L291 31 L291 32 L295 36 L295 37 L296 38 L296 40 L297 41 L297 42 L298 43 L298 46 L299 47 L299 50 L300 51 L300 54 L298 56 L291 56 L290 57 L290 58 L289 59 L289 68 L288 69 L287 69 L286 68 L285 68 L283 66 L282 66 L280 64 L279 64 L278 63 L276 63 L275 62 L274 62 L273 61 L272 61 L271 60 L269 60 L267 58 L268 57 L268 55 L269 54 L269 52 L270 51 L270 50 L271 49 L271 48 L272 47 L272 45 L273 44 L273 43 L274 42 L274 41 L275 40 L275 39 L276 38 L276 35 L275 34 L275 33 L274 33 L273 32 L264 32 L263 33 L261 33 L260 34 L259 34 L258 35 L257 35 L255 37 L254 37 L252 39 L251 39 L242 48 L242 49 L241 50 L241 51 L240 52 L240 53 L239 54 L239 55 L237 57 L237 58 L236 59 L235 58 L235 56 L234 55 L234 44 L233 43 L233 38 L232 37 L232 35 L231 34 L231 33 L230 32 L230 31 L229 30 L229 29 L227 27 L227 26 L218 17 L218 16 L214 12 L213 12 L211 10 Z " fill="black"/></svg>