<svg width="420" height="389" xmlns="http://www.w3.org/2000/svg"><path d="M96 10 L95 11 L94 11 L94 12 L91 15 L90 15 L89 14 L81 14 L78 17 L78 18 L76 20 L76 21 L75 22 L75 23 L74 24 L74 29 L73 30 L73 31 L74 32 L74 37 L75 38 L75 39 L76 40 L76 41 L79 44 L79 45 L80 46 L81 46 L82 47 L83 47 L84 48 L86 48 L87 49 L96 49 L97 48 L99 48 L100 47 L101 47 L102 46 L103 46 L105 44 L106 44 L108 42 L109 42 L110 41 L113 41 L114 42 L116 42 L117 43 L118 43 L119 44 L120 44 L121 45 L123 45 L125 47 L126 47 L138 59 L138 60 L140 62 L140 63 L141 64 L141 65 L143 67 L143 69 L144 70 L144 80 L145 81 L145 84 L146 85 L146 86 L147 87 L147 89 L149 91 L149 92 L150 93 L150 103 L151 104 L151 105 L153 107 L153 108 L155 110 L155 111 L156 112 L156 113 L157 114 L157 117 L158 118 L158 121 L157 122 L153 118 L153 117 L151 115 L151 114 L149 112 L149 111 L145 107 L145 106 L141 102 L141 101 L138 98 L138 97 L135 94 L134 94 L133 93 L132 93 L131 92 L129 92 L128 91 L125 91 L124 90 L121 90 L120 89 L119 89 L117 87 L117 86 L115 84 L115 83 L113 81 L112 81 L111 80 L109 80 L109 81 L110 82 L110 83 L112 85 L111 86 L110 86 L111 87 L111 88 L110 89 L109 89 L107 87 L107 86 L108 85 L108 84 L106 82 L105 83 L103 83 L102 82 L102 81 L103 80 L106 80 L102 76 L101 76 L99 74 L97 74 L96 73 L92 73 L91 74 L91 77 L87 81 L86 80 L85 80 L84 79 L88 75 L87 74 L86 75 L83 75 L82 76 L81 76 L80 77 L79 77 L77 79 L76 79 L74 81 L73 81 L72 82 L71 82 L70 83 L65 78 L64 78 L62 76 L61 76 L60 75 L59 75 L58 74 L54 74 L53 75 L52 75 L51 76 L50 76 L49 77 L49 78 L47 80 L47 81 L40 88 L39 88 L38 89 L37 89 L36 90 L34 90 L32 92 L31 92 L25 98 L24 98 L23 99 L22 99 L12 109 L12 110 L10 112 L10 113 L11 114 L11 115 L12 115 L13 116 L15 116 L16 115 L27 115 L28 114 L33 114 L34 113 L39 113 L42 116 L43 116 L46 119 L48 119 L49 120 L50 120 L51 121 L53 121 L54 122 L56 122 L57 123 L59 123 L60 124 L64 124 L65 125 L70 125 L71 124 L84 124 L85 123 L88 123 L89 122 L90 122 L91 121 L92 121 L94 123 L94 124 L96 126 L96 127 L94 129 L93 129 L92 130 L91 130 L90 131 L88 131 L87 132 L85 132 L84 133 L83 133 L82 134 L80 134 L79 135 L78 135 L77 136 L76 136 L75 137 L72 137 L71 138 L68 138 L67 139 L66 139 L65 140 L64 140 L63 141 L62 141 L58 145 L57 145 L55 147 L55 148 L53 150 L52 150 L51 151 L48 151 L47 152 L46 152 L45 153 L44 153 L42 155 L41 155 L38 158 L38 159 L30 167 L30 168 L29 169 L29 171 L28 172 L28 181 L27 182 L27 185 L26 186 L26 188 L25 189 L25 193 L24 194 L24 205 L25 206 L28 206 L29 205 L30 205 L32 203 L32 202 L35 199 L35 198 L36 197 L36 196 L38 194 L38 193 L40 191 L40 190 L45 185 L46 185 L53 178 L54 178 L57 175 L59 175 L60 174 L64 174 L65 173 L67 173 L68 174 L71 174 L72 175 L73 175 L77 171 L77 170 L78 169 L78 167 L79 166 L79 164 L81 162 L81 161 L83 159 L84 159 L86 157 L87 157 L88 156 L89 156 L90 155 L93 155 L94 156 L97 156 L98 157 L100 157 L101 156 L106 156 L107 157 L107 158 L108 159 L108 160 L109 161 L109 162 L114 167 L116 167 L117 168 L126 168 L127 167 L133 167 L134 166 L140 166 L141 165 L146 165 L149 168 L149 169 L148 170 L146 170 L145 169 L144 170 L136 170 L135 171 L122 171 L121 172 L107 172 L105 170 L104 170 L103 169 L102 169 L101 170 L99 170 L98 171 L96 171 L95 172 L94 172 L92 174 L91 174 L87 178 L87 179 L85 181 L85 182 L84 183 L84 184 L83 185 L83 187 L82 188 L82 189 L81 190 L81 192 L80 193 L80 194 L79 195 L79 196 L78 197 L78 200 L77 201 L77 203 L76 204 L76 207 L75 208 L75 210 L74 211 L74 212 L72 214 L72 215 L71 216 L71 217 L70 218 L70 219 L69 220 L69 221 L68 222 L68 224 L67 225 L67 226 L66 227 L66 237 L65 238 L65 255 L66 256 L66 269 L65 270 L65 273 L67 275 L68 275 L69 276 L71 276 L72 275 L74 275 L76 273 L77 273 L79 271 L79 270 L88 261 L89 261 L95 255 L96 255 L99 252 L100 252 L101 251 L102 251 L103 250 L104 250 L105 249 L109 249 L110 248 L112 248 L113 247 L114 247 L116 245 L117 245 L123 239 L125 239 L126 240 L127 240 L129 242 L129 245 L128 246 L128 248 L127 249 L127 252 L126 253 L126 257 L125 258 L125 267 L124 268 L124 272 L123 273 L123 276 L122 277 L122 282 L121 283 L121 301 L122 302 L122 305 L123 306 L123 309 L124 310 L124 321 L125 322 L125 324 L126 325 L126 326 L127 327 L127 328 L128 329 L128 330 L129 331 L129 332 L130 333 L130 334 L131 335 L131 336 L133 338 L133 339 L135 341 L135 342 L140 347 L140 348 L146 354 L146 355 L149 358 L150 358 L151 359 L152 359 L153 360 L154 360 L155 361 L156 361 L157 362 L158 362 L162 366 L163 366 L165 368 L166 368 L167 369 L168 369 L169 370 L170 370 L171 371 L172 371 L173 372 L180 372 L181 373 L183 373 L185 375 L186 375 L187 376 L199 376 L200 377 L227 377 L228 376 L233 376 L234 375 L237 375 L238 374 L249 374 L250 373 L252 373 L255 370 L256 370 L257 369 L258 369 L259 368 L260 368 L261 367 L262 367 L263 366 L264 366 L265 365 L266 365 L268 363 L269 363 L273 359 L274 359 L276 357 L276 356 L279 353 L279 352 L280 351 L280 350 L284 346 L284 345 L287 342 L287 341 L290 338 L290 337 L291 336 L291 335 L292 334 L292 332 L293 331 L293 329 L294 328 L294 326 L295 325 L295 322 L296 321 L296 316 L297 315 L297 311 L298 310 L298 304 L299 303 L299 294 L298 293 L298 286 L297 285 L297 279 L296 278 L296 275 L295 274 L295 273 L294 272 L294 271 L293 270 L293 268 L292 267 L292 264 L291 263 L291 259 L290 258 L290 254 L291 253 L292 254 L293 254 L297 258 L298 258 L299 259 L300 259 L302 261 L303 261 L305 263 L306 263 L307 264 L308 264 L309 265 L310 265 L312 267 L313 267 L315 269 L316 269 L320 273 L321 273 L322 274 L323 274 L324 275 L325 275 L328 278 L328 280 L330 282 L332 282 L335 279 L335 275 L336 274 L336 269 L337 268 L337 266 L338 265 L338 262 L339 261 L339 249 L340 248 L340 246 L341 245 L341 243 L342 242 L342 234 L341 233 L341 226 L340 225 L340 219 L339 218 L339 214 L338 213 L338 211 L337 210 L337 207 L336 206 L336 205 L328 197 L328 196 L324 192 L324 191 L322 189 L322 188 L319 185 L319 184 L316 181 L316 180 L311 175 L310 175 L309 174 L308 174 L307 173 L306 173 L305 172 L303 172 L301 170 L301 169 L302 168 L304 168 L305 167 L307 167 L308 166 L310 166 L311 165 L314 165 L315 164 L320 164 L321 163 L330 163 L331 162 L333 162 L334 161 L337 161 L338 160 L339 160 L340 161 L341 161 L342 162 L343 162 L344 163 L345 163 L346 164 L347 164 L348 165 L349 165 L350 166 L352 166 L353 167 L354 167 L355 168 L356 168 L361 173 L361 174 L364 177 L366 177 L366 176 L367 175 L366 174 L366 171 L367 170 L367 166 L366 165 L366 164 L365 163 L365 162 L361 158 L361 157 L357 153 L357 152 L355 150 L355 149 L350 144 L349 144 L346 141 L345 141 L340 136 L336 136 L335 135 L334 136 L333 135 L332 136 L317 136 L316 135 L312 135 L311 134 L309 134 L308 133 L304 133 L303 132 L302 132 L301 131 L300 131 L299 130 L297 130 L296 129 L294 129 L293 128 L293 127 L296 124 L298 124 L299 123 L304 123 L305 122 L309 122 L310 121 L318 121 L319 120 L341 120 L342 119 L355 119 L356 120 L364 120 L365 121 L367 121 L368 122 L370 122 L371 123 L372 123 L374 125 L375 125 L377 127 L378 127 L380 129 L381 129 L383 131 L384 131 L385 132 L386 132 L387 133 L388 133 L389 134 L390 134 L392 136 L393 136 L394 137 L395 137 L398 140 L399 140 L401 142 L403 142 L404 143 L407 143 L408 142 L408 135 L407 134 L407 132 L406 131 L406 129 L405 128 L405 126 L404 125 L404 124 L403 123 L403 122 L402 121 L402 120 L397 115 L396 115 L394 113 L393 113 L391 111 L390 111 L389 110 L388 110 L387 109 L386 109 L380 103 L379 103 L377 101 L376 101 L375 100 L374 100 L373 99 L372 99 L370 97 L370 96 L369 95 L369 94 L368 94 L367 93 L366 93 L365 92 L363 92 L362 91 L343 91 L342 90 L340 90 L338 88 L337 88 L332 83 L331 83 L328 80 L326 80 L325 79 L322 79 L321 78 L320 78 L319 77 L313 77 L312 78 L306 78 L305 79 L304 79 L303 80 L302 80 L301 81 L300 81 L298 83 L297 83 L294 86 L291 86 L290 87 L288 87 L286 85 L286 82 L287 81 L287 80 L288 79 L288 77 L289 76 L289 75 L290 74 L290 73 L291 72 L291 69 L292 68 L292 65 L293 64 L293 57 L294 56 L294 55 L303 46 L304 46 L306 44 L308 44 L309 43 L310 43 L311 42 L311 40 L308 37 L306 37 L305 36 L298 36 L297 37 L296 37 L295 38 L294 38 L293 39 L287 39 L286 38 L282 38 L281 39 L279 39 L278 40 L273 40 L272 41 L263 41 L262 42 L260 42 L259 43 L258 43 L257 44 L256 44 L253 47 L252 47 L251 48 L250 48 L249 49 L248 49 L247 50 L246 50 L243 53 L242 53 L239 56 L238 56 L235 59 L234 59 L232 57 L231 57 L228 54 L227 54 L226 53 L225 53 L222 50 L221 50 L220 49 L219 49 L218 48 L211 48 L210 49 L203 49 L202 48 L200 48 L199 47 L198 47 L193 42 L193 41 L191 39 L191 37 L190 36 L190 30 L189 29 L189 28 L188 27 L188 26 L187 26 L186 25 L185 25 L184 24 L183 24 L182 23 L180 23 L179 22 L177 22 L176 21 L173 21 L172 22 L163 22 L162 21 L160 21 L159 20 L158 20 L156 18 L155 18 L154 17 L153 17 L151 15 L143 15 L142 16 L140 16 L139 17 L137 17 L136 18 L135 18 L134 19 L123 19 L122 20 L119 20 L118 19 L113 19 L112 18 L111 18 L109 16 L108 16 L106 14 L105 14 L103 12 L101 12 L100 11 L97 11 Z " fill="black"/></svg>