<svg width="575" height="461" xmlns="http://www.w3.org/2000/svg"><path d="M363 10 L362 11 L175 11 L174 12 L171 12 L170 13 L169 13 L168 14 L167 14 L165 16 L164 16 L161 19 L160 19 L159 20 L159 21 L156 24 L156 25 L154 27 L154 28 L153 29 L153 30 L152 31 L152 32 L150 34 L147 34 L146 35 L144 35 L143 36 L139 36 L138 37 L134 37 L133 38 L130 38 L129 39 L126 39 L125 40 L122 40 L121 41 L118 41 L117 42 L113 42 L112 43 L109 43 L108 44 L105 44 L104 45 L100 45 L99 46 L95 46 L94 47 L91 47 L90 48 L86 48 L85 49 L81 49 L80 50 L77 50 L76 51 L73 51 L72 52 L68 52 L67 53 L63 53 L62 54 L58 54 L57 55 L54 55 L53 56 L49 56 L48 57 L44 57 L43 58 L39 58 L38 59 L34 59 L33 60 L30 60 L29 61 L27 61 L26 62 L25 62 L24 63 L23 63 L16 70 L16 71 L15 72 L15 73 L14 74 L14 75 L13 76 L13 77 L12 78 L12 81 L11 82 L11 93 L12 94 L12 102 L13 103 L13 107 L14 108 L14 110 L15 111 L15 114 L16 115 L16 118 L17 119 L17 122 L18 123 L18 126 L19 127 L19 131 L20 132 L20 136 L21 137 L21 141 L22 142 L22 147 L23 148 L23 152 L24 153 L24 156 L25 157 L25 161 L26 162 L26 165 L27 166 L27 169 L28 170 L28 172 L29 173 L29 175 L30 176 L30 178 L31 179 L31 180 L32 181 L32 182 L34 184 L34 185 L35 186 L35 187 L40 192 L41 192 L42 193 L43 193 L44 194 L46 194 L47 195 L64 195 L65 194 L69 194 L70 193 L72 193 L73 192 L77 192 L78 191 L81 191 L82 190 L86 190 L87 189 L91 189 L92 188 L97 188 L98 187 L105 187 L106 188 L110 188 L111 189 L112 189 L113 190 L114 190 L115 191 L116 191 L117 192 L118 192 L125 199 L125 200 L127 202 L127 203 L128 204 L128 205 L129 206 L129 207 L130 208 L130 210 L131 211 L131 213 L132 214 L132 216 L133 217 L133 219 L134 220 L134 223 L135 224 L135 226 L136 227 L136 230 L137 231 L137 234 L138 235 L138 238 L139 239 L139 241 L140 242 L140 245 L141 246 L141 249 L142 250 L142 253 L143 254 L143 258 L144 259 L144 263 L145 264 L145 267 L146 268 L146 272 L147 273 L147 276 L148 277 L148 280 L149 281 L149 285 L150 286 L150 289 L151 290 L151 293 L152 294 L152 298 L153 299 L153 303 L154 304 L154 308 L155 309 L155 311 L156 312 L156 316 L157 317 L157 320 L158 321 L158 324 L159 325 L159 328 L160 329 L160 332 L161 333 L161 336 L162 337 L162 340 L163 341 L163 345 L164 346 L164 349 L165 350 L165 353 L166 354 L166 357 L167 358 L167 361 L168 362 L168 365 L169 366 L169 369 L170 370 L170 374 L171 375 L171 378 L172 379 L172 381 L173 382 L173 385 L174 386 L174 388 L175 389 L175 391 L176 392 L176 394 L177 395 L177 397 L178 398 L178 399 L179 400 L179 402 L180 403 L180 404 L181 405 L181 406 L182 407 L182 408 L183 409 L183 410 L184 411 L184 412 L186 414 L186 415 L187 416 L187 417 L189 419 L189 420 L190 421 L190 422 L191 423 L191 424 L193 426 L193 427 L195 429 L195 430 L196 431 L196 432 L199 435 L199 436 L206 443 L206 444 L210 448 L211 448 L212 449 L216 449 L219 446 L219 445 L220 444 L220 442 L221 441 L221 433 L222 432 L222 408 L223 407 L223 397 L222 396 L222 388 L221 387 L221 385 L220 384 L220 380 L219 379 L219 377 L218 376 L218 372 L217 371 L217 368 L216 367 L216 364 L215 363 L215 359 L214 358 L214 354 L213 353 L213 350 L212 349 L212 346 L211 345 L211 341 L210 340 L210 336 L209 335 L209 331 L208 330 L208 327 L207 326 L207 322 L206 321 L206 317 L205 316 L205 313 L204 312 L204 308 L203 307 L203 304 L202 303 L202 300 L201 299 L201 296 L200 295 L200 291 L199 290 L199 287 L198 286 L198 283 L197 282 L197 278 L196 277 L196 274 L195 273 L195 270 L194 269 L194 265 L193 264 L193 261 L192 260 L192 256 L191 255 L191 251 L190 250 L190 246 L189 245 L189 242 L188 241 L188 238 L187 237 L187 232 L186 231 L186 228 L185 227 L185 222 L184 221 L184 216 L183 215 L183 208 L182 207 L182 188 L183 187 L183 184 L184 183 L184 182 L186 180 L186 179 L188 177 L188 176 L194 170 L195 170 L197 168 L198 168 L199 167 L200 167 L201 166 L202 166 L203 165 L205 165 L206 164 L208 164 L209 163 L211 163 L212 162 L215 162 L216 161 L218 161 L219 160 L221 160 L222 159 L225 159 L226 158 L229 158 L230 157 L231 158 L232 158 L235 161 L235 162 L236 163 L236 164 L238 166 L238 168 L239 169 L239 171 L240 172 L240 174 L241 175 L241 178 L242 179 L242 203 L243 204 L243 249 L244 250 L244 320 L245 321 L245 371 L246 372 L246 380 L247 381 L247 384 L248 385 L248 387 L249 388 L249 389 L250 390 L250 391 L251 392 L251 393 L252 394 L252 395 L253 396 L253 397 L254 398 L254 400 L255 401 L255 402 L256 403 L256 404 L257 405 L257 407 L258 408 L258 409 L259 410 L259 411 L260 412 L260 413 L261 414 L261 415 L262 416 L262 417 L263 418 L263 419 L265 421 L266 421 L267 422 L270 422 L271 421 L272 421 L275 418 L275 416 L276 415 L276 414 L277 413 L277 411 L278 410 L278 408 L279 407 L279 404 L280 403 L280 401 L281 400 L281 399 L282 398 L282 396 L283 395 L283 392 L284 391 L284 390 L285 389 L285 387 L286 386 L286 383 L287 382 L287 379 L288 378 L288 291 L289 290 L289 245 L288 244 L289 243 L289 242 L288 241 L289 240 L289 187 L290 186 L290 179 L291 178 L291 175 L292 174 L292 172 L293 171 L293 169 L294 168 L294 167 L295 166 L295 165 L297 163 L297 162 L303 156 L304 156 L306 154 L307 154 L308 153 L310 153 L311 152 L313 152 L314 151 L317 151 L318 150 L325 150 L326 149 L365 149 L366 150 L368 150 L369 151 L371 151 L372 152 L373 152 L374 153 L375 153 L377 155 L378 155 L380 157 L381 157 L390 166 L390 167 L391 168 L391 170 L392 171 L392 172 L393 173 L393 190 L392 191 L392 196 L391 197 L391 200 L390 201 L390 204 L389 205 L389 208 L388 209 L388 211 L387 212 L387 214 L386 215 L386 218 L385 219 L385 222 L384 223 L384 226 L383 227 L383 231 L382 232 L382 235 L381 236 L381 240 L380 241 L380 245 L379 246 L379 249 L378 250 L378 253 L377 254 L377 258 L376 259 L376 262 L375 263 L375 266 L374 267 L374 271 L373 272 L373 276 L372 277 L372 280 L371 281 L371 284 L370 285 L370 289 L369 290 L369 293 L368 294 L368 297 L367 298 L367 301 L366 302 L366 306 L365 307 L365 310 L364 311 L364 314 L363 315 L363 319 L362 320 L362 322 L361 323 L361 327 L360 328 L360 331 L359 332 L359 335 L358 336 L358 339 L357 340 L357 344 L356 345 L356 347 L355 348 L355 351 L354 352 L354 355 L353 356 L353 359 L352 360 L352 362 L351 363 L351 365 L350 366 L350 369 L349 370 L349 373 L348 374 L348 377 L347 378 L347 407 L348 408 L348 420 L349 421 L349 429 L350 430 L350 432 L351 433 L351 434 L352 435 L353 435 L355 437 L361 437 L365 433 L365 432 L368 429 L368 428 L370 426 L370 425 L372 423 L372 422 L374 420 L374 419 L376 417 L376 416 L377 415 L377 414 L379 412 L379 411 L380 410 L380 409 L381 408 L381 407 L382 406 L382 405 L383 404 L383 403 L384 402 L384 401 L385 400 L385 399 L386 398 L386 397 L387 396 L387 395 L388 394 L388 393 L389 392 L389 391 L390 390 L390 389 L391 388 L391 386 L392 385 L392 383 L393 382 L393 379 L394 378 L394 375 L395 374 L395 371 L396 370 L396 367 L397 366 L397 363 L398 362 L398 359 L399 358 L399 356 L400 355 L400 352 L401 351 L401 349 L402 348 L402 345 L403 344 L403 340 L404 339 L404 335 L405 334 L405 331 L406 330 L406 327 L407 326 L407 323 L408 322 L408 319 L409 318 L409 315 L410 314 L410 311 L411 310 L411 307 L412 306 L412 303 L413 302 L413 299 L414 298 L414 295 L415 294 L415 291 L416 290 L416 288 L417 287 L417 283 L418 282 L418 280 L419 279 L419 277 L420 276 L420 273 L421 272 L421 269 L422 268 L422 265 L423 264 L423 261 L424 260 L424 258 L425 257 L425 253 L426 252 L426 249 L427 248 L427 245 L428 244 L428 242 L429 241 L429 238 L430 237 L430 234 L431 233 L431 231 L432 230 L432 228 L433 227 L433 224 L434 223 L434 220 L435 219 L435 216 L436 215 L436 212 L437 211 L437 208 L438 207 L438 205 L439 204 L439 202 L440 201 L440 199 L442 197 L442 196 L444 194 L444 193 L447 190 L447 189 L451 185 L452 185 L454 183 L455 183 L456 182 L458 182 L459 181 L461 181 L462 180 L466 180 L467 179 L471 179 L472 180 L477 180 L478 181 L484 181 L485 182 L489 182 L490 183 L492 183 L493 184 L496 184 L497 185 L501 185 L502 186 L505 186 L506 187 L512 187 L513 188 L520 188 L521 187 L524 187 L525 186 L527 186 L528 185 L529 185 L534 180 L534 179 L536 177 L536 176 L537 175 L537 174 L538 173 L538 172 L539 171 L539 170 L540 169 L540 168 L541 167 L541 165 L542 164 L542 161 L543 160 L543 158 L544 157 L544 154 L545 153 L545 150 L546 149 L546 147 L547 146 L547 144 L548 143 L548 140 L549 139 L549 136 L550 135 L550 133 L551 132 L551 130 L552 129 L552 126 L553 125 L553 123 L554 122 L554 119 L555 118 L555 115 L556 114 L556 111 L557 110 L557 107 L558 106 L558 103 L559 102 L559 98 L560 97 L560 96 L561 95 L561 92 L562 91 L562 88 L563 87 L563 82 L564 81 L564 76 L563 75 L563 71 L562 70 L562 68 L561 67 L561 65 L559 63 L559 62 L555 58 L554 58 L552 56 L551 56 L550 55 L549 55 L548 54 L547 54 L546 53 L544 53 L543 52 L541 52 L540 51 L537 51 L536 50 L534 50 L533 49 L529 49 L528 48 L525 48 L524 47 L521 47 L520 46 L516 46 L515 45 L512 45 L511 44 L508 44 L507 43 L504 43 L503 42 L499 42 L498 41 L496 41 L495 40 L492 40 L491 39 L488 39 L487 38 L484 38 L483 37 L481 37 L480 36 L477 36 L476 35 L473 35 L472 34 L469 34 L468 33 L465 33 L464 32 L462 32 L461 31 L458 31 L457 30 L454 30 L453 29 L450 29 L449 28 L446 28 L445 27 L442 27 L441 26 L438 26 L437 25 L433 25 L432 24 L430 24 L429 23 L426 23 L425 22 L422 22 L421 21 L418 21 L417 20 L414 20 L413 19 L410 19 L409 18 L406 18 L405 17 L402 17 L401 16 L398 16 L397 15 L394 15 L393 14 L391 14 L390 13 L386 13 L385 12 L381 12 L380 11 L375 11 L374 10 Z " fill="black"/></svg>