<svg width="421" height="551" xmlns="http://www.w3.org/2000/svg"><path d="M171 11 L171 15 L170 16 L170 21 L169 22 L169 25 L168 26 L168 28 L167 29 L167 31 L166 32 L166 34 L165 35 L165 38 L164 39 L164 40 L163 41 L163 43 L162 44 L162 46 L161 47 L161 49 L160 50 L160 52 L159 53 L159 55 L158 56 L158 57 L157 58 L157 61 L156 62 L156 64 L155 65 L155 69 L154 70 L154 96 L155 97 L155 102 L154 103 L153 102 L152 102 L151 101 L150 101 L149 100 L148 100 L147 99 L146 99 L145 98 L144 98 L143 97 L142 97 L141 96 L140 96 L139 95 L138 95 L135 92 L133 92 L132 91 L130 91 L129 90 L125 90 L124 89 L123 89 L122 88 L121 88 L120 87 L119 87 L118 86 L116 86 L115 85 L109 85 L108 84 L103 84 L102 83 L96 83 L95 82 L85 82 L84 81 L83 81 L82 82 L71 82 L70 83 L68 83 L67 84 L64 84 L63 85 L61 85 L60 86 L56 86 L54 88 L53 88 L51 90 L50 90 L49 91 L44 91 L43 92 L42 92 L41 93 L40 93 L39 94 L38 94 L36 96 L35 96 L34 97 L33 97 L31 99 L29 99 L28 100 L27 100 L26 101 L24 101 L23 102 L23 105 L26 108 L27 108 L29 110 L30 110 L39 119 L39 120 L43 124 L43 125 L47 129 L47 130 L48 131 L48 132 L50 134 L50 135 L51 136 L51 141 L52 142 L52 143 L53 144 L53 145 L55 147 L55 148 L62 155 L62 156 L63 157 L63 158 L70 165 L71 165 L75 169 L76 169 L79 172 L80 172 L82 174 L83 174 L85 176 L86 176 L88 178 L89 178 L90 179 L91 179 L92 180 L93 180 L94 181 L95 181 L96 182 L98 182 L101 185 L102 185 L103 186 L104 186 L105 187 L106 187 L107 188 L108 188 L110 190 L109 191 L106 191 L105 190 L102 190 L101 191 L99 191 L98 190 L97 191 L93 191 L92 190 L90 190 L89 191 L85 191 L84 192 L81 192 L80 193 L79 193 L78 194 L77 194 L76 195 L75 195 L74 196 L72 196 L71 197 L66 197 L65 198 L62 198 L61 199 L60 199 L59 200 L57 200 L55 202 L54 202 L53 203 L51 203 L49 205 L48 205 L47 206 L45 206 L44 207 L43 207 L42 208 L41 208 L40 209 L39 209 L35 213 L34 213 L27 220 L27 221 L22 226 L22 227 L19 230 L19 231 L18 232 L18 234 L17 235 L17 236 L16 237 L16 238 L14 240 L14 241 L13 242 L13 243 L12 244 L12 247 L11 248 L12 249 L14 249 L15 248 L16 248 L17 247 L19 247 L20 246 L21 246 L22 245 L24 245 L25 244 L44 244 L45 243 L50 243 L51 242 L62 242 L63 243 L64 243 L65 242 L66 243 L67 243 L68 244 L77 244 L78 243 L79 244 L86 244 L87 243 L91 243 L92 244 L103 244 L104 245 L113 245 L114 244 L125 244 L126 245 L126 246 L125 247 L124 247 L122 249 L121 249 L120 250 L119 250 L118 251 L117 251 L116 252 L114 252 L112 254 L111 254 L105 260 L104 260 L98 266 L98 267 L95 270 L95 271 L93 273 L93 274 L92 275 L92 277 L91 278 L91 279 L90 280 L90 282 L89 283 L89 285 L88 286 L88 287 L85 290 L85 296 L84 297 L84 299 L83 300 L83 303 L82 304 L82 306 L81 307 L81 312 L80 313 L80 339 L81 340 L80 341 L80 342 L81 343 L81 345 L82 346 L82 349 L83 350 L83 352 L86 355 L90 355 L92 353 L93 353 L94 352 L95 352 L96 351 L97 351 L99 349 L100 349 L101 348 L102 348 L103 347 L105 347 L106 346 L107 346 L108 347 L108 348 L106 350 L106 351 L105 352 L105 359 L104 360 L104 365 L105 366 L105 385 L106 386 L106 389 L107 390 L107 391 L108 392 L108 394 L116 402 L116 403 L117 404 L117 408 L118 409 L118 412 L119 413 L119 417 L120 418 L120 421 L121 422 L121 423 L122 424 L122 427 L123 428 L123 434 L124 435 L124 439 L125 440 L125 445 L126 446 L126 447 L127 448 L127 450 L128 451 L128 453 L129 454 L129 458 L130 459 L130 465 L131 466 L131 470 L132 471 L132 474 L133 475 L133 478 L134 479 L134 483 L135 484 L135 487 L136 488 L136 489 L137 490 L137 491 L138 492 L138 496 L139 497 L139 500 L140 501 L140 506 L141 507 L141 512 L142 513 L142 514 L143 515 L143 516 L146 519 L147 519 L150 522 L150 523 L153 526 L155 526 L156 527 L159 527 L160 528 L161 528 L163 530 L164 530 L166 532 L170 532 L171 533 L177 533 L178 534 L182 534 L183 535 L185 535 L186 536 L197 536 L198 537 L204 537 L205 538 L224 538 L225 539 L231 539 L232 538 L237 538 L238 537 L243 537 L244 536 L249 536 L250 535 L254 535 L255 534 L259 534 L260 533 L262 533 L263 532 L264 532 L265 531 L266 531 L267 530 L268 531 L272 531 L274 529 L274 528 L275 527 L276 527 L277 526 L278 526 L279 525 L280 525 L281 524 L281 523 L284 520 L284 519 L285 518 L285 517 L287 515 L287 512 L288 511 L288 509 L289 508 L289 504 L290 503 L290 501 L289 500 L290 499 L290 496 L291 495 L291 494 L292 493 L292 490 L293 489 L293 482 L294 481 L294 478 L295 477 L295 476 L296 475 L296 471 L297 470 L297 462 L298 461 L298 456 L299 455 L299 454 L300 453 L300 450 L301 449 L301 446 L302 445 L302 441 L303 440 L303 436 L304 435 L304 425 L305 424 L305 422 L306 421 L306 420 L307 419 L307 415 L308 414 L308 410 L309 409 L309 406 L310 405 L310 402 L312 400 L313 400 L314 399 L315 399 L316 398 L316 397 L317 396 L318 396 L319 395 L319 394 L320 393 L320 384 L321 383 L321 378 L322 377 L322 359 L323 358 L323 355 L322 354 L322 353 L321 352 L321 351 L320 350 L320 349 L317 346 L317 345 L315 343 L315 338 L316 337 L316 314 L317 313 L318 314 L319 314 L320 315 L322 315 L323 316 L325 316 L326 317 L334 317 L335 318 L339 318 L340 317 L342 317 L343 318 L346 318 L347 317 L351 317 L352 316 L355 316 L356 315 L359 315 L360 314 L364 314 L365 313 L369 313 L370 312 L374 312 L375 311 L381 311 L382 310 L382 308 L381 307 L381 306 L374 299 L374 298 L369 293 L369 292 L368 292 L367 291 L367 290 L363 286 L363 285 L361 283 L361 282 L359 280 L359 279 L358 279 L356 277 L355 277 L354 276 L353 276 L351 274 L350 274 L348 272 L348 271 L346 269 L345 269 L344 268 L343 268 L341 266 L339 266 L337 264 L336 264 L333 261 L332 261 L330 259 L330 258 L329 258 L328 257 L327 257 L326 256 L324 256 L323 255 L320 255 L319 254 L316 254 L315 253 L312 253 L311 252 L308 252 L307 251 L306 251 L305 250 L304 250 L302 248 L301 248 L300 247 L300 246 L299 246 L294 241 L295 240 L309 240 L310 239 L315 239 L316 238 L320 238 L321 237 L326 237 L327 236 L329 236 L330 235 L333 235 L334 234 L337 234 L338 233 L341 233 L342 232 L344 232 L345 231 L347 231 L348 230 L349 230 L350 229 L351 229 L352 228 L353 228 L354 227 L355 227 L356 226 L357 226 L358 225 L359 225 L362 222 L363 222 L366 219 L367 219 L370 216 L371 216 L382 205 L382 204 L384 202 L384 201 L389 196 L389 195 L391 193 L391 192 L393 190 L393 189 L394 188 L394 187 L395 186 L395 185 L396 184 L396 183 L397 182 L397 179 L398 178 L398 176 L399 175 L399 173 L402 170 L402 168 L403 167 L403 165 L404 164 L404 162 L405 161 L405 159 L406 158 L406 152 L407 151 L407 147 L408 146 L408 141 L409 140 L409 136 L408 135 L407 135 L406 134 L402 134 L401 133 L394 133 L393 132 L389 132 L388 131 L382 131 L381 130 L377 130 L376 129 L368 129 L367 128 L362 128 L361 127 L358 127 L357 126 L353 126 L352 125 L349 125 L348 124 L346 124 L345 123 L345 122 L346 121 L346 119 L347 118 L347 117 L348 116 L348 115 L349 114 L349 112 L350 111 L350 108 L351 107 L351 104 L352 103 L352 100 L353 99 L353 97 L354 96 L354 95 L356 93 L356 91 L357 90 L357 86 L358 85 L358 84 L359 83 L359 78 L358 77 L357 77 L356 78 L353 78 L352 79 L349 79 L348 80 L343 80 L342 81 L332 81 L331 82 L326 82 L325 83 L323 83 L322 84 L318 84 L317 85 L314 85 L313 84 L312 85 L311 85 L311 86 L309 88 L308 88 L307 89 L303 89 L302 90 L300 90 L299 91 L297 91 L296 92 L295 92 L294 93 L293 93 L291 95 L290 95 L288 97 L287 97 L284 100 L283 100 L281 102 L280 102 L279 103 L278 103 L277 104 L276 104 L275 105 L274 105 L272 107 L269 107 L266 104 L266 100 L265 99 L265 88 L264 87 L264 78 L263 77 L263 73 L262 72 L262 71 L260 69 L260 68 L259 67 L259 66 L258 65 L258 64 L257 63 L257 61 L256 60 L256 59 L255 58 L255 57 L253 55 L253 54 L252 53 L251 53 L248 50 L248 46 L247 46 L245 44 L244 44 L241 41 L241 40 L236 35 L235 36 L233 36 L232 35 L231 35 L230 34 L229 34 L228 33 L227 33 L225 31 L224 31 L223 30 L222 30 L221 29 L220 29 L219 28 L217 28 L216 27 L215 27 L213 25 L211 25 L210 24 L209 24 L208 23 L207 23 L206 22 L205 22 L204 21 L203 21 L202 20 L200 20 L199 19 L197 19 L196 18 L194 18 L193 17 L192 17 L191 16 L189 16 L187 14 L184 14 L183 13 L180 13 L179 12 L175 12 L174 11 Z " fill="black"/></svg>