<svg width="410" height="472" xmlns="http://www.w3.org/2000/svg"><path d="M16 401 L15 402 L10 402 L9 403 L4 403 L3 404 L0 404 L0 471 L3 471 L4 470 L5 470 L7 468 L8 469 L9 469 L10 470 L11 470 L12 471 L56 471 L56 468 L55 467 L55 465 L54 464 L54 461 L53 460 L53 457 L52 456 L52 454 L51 453 L51 452 L50 451 L50 450 L49 449 L49 448 L48 447 L48 446 L46 444 L46 443 L45 442 L45 440 L44 439 L44 438 L43 437 L43 436 L42 435 L42 434 L41 433 L41 432 L40 431 L40 429 L39 428 L39 427 L38 426 L38 425 L37 424 L37 423 L36 422 L36 421 L35 420 L35 419 L34 418 L34 417 L33 416 L33 415 L30 412 L30 411 L27 408 L27 407 L23 403 L22 403 L20 401 Z M408 378 L407 379 L406 379 L405 380 L404 380 L402 382 L401 382 L400 383 L399 383 L398 384 L397 384 L395 386 L393 386 L391 388 L390 388 L389 389 L389 390 L388 391 L388 392 L387 393 L387 394 L386 395 L386 401 L385 402 L385 403 L384 404 L384 405 L383 406 L383 407 L380 410 L380 411 L378 413 L378 414 L365 427 L364 427 L362 429 L360 429 L359 430 L356 430 L355 431 L339 431 L338 432 L336 432 L335 433 L334 433 L329 438 L329 439 L328 440 L328 441 L327 442 L327 444 L326 445 L326 447 L325 448 L325 451 L324 452 L324 455 L323 456 L323 460 L320 463 L320 464 L315 469 L315 470 L314 471 L409 471 L409 410 L408 409 L407 409 L405 407 L405 406 L404 405 L404 403 L403 402 L403 401 L405 399 L406 400 L407 400 L408 401 L409 401 L409 378 Z M147 27 L147 28 L148 27 Z M108 11 L105 14 L105 15 L101 19 L101 20 L99 22 L99 23 L98 24 L98 27 L97 28 L97 31 L96 32 L96 34 L95 35 L93 35 L92 34 L88 34 L87 33 L77 33 L76 34 L74 34 L73 35 L72 35 L68 39 L65 39 L64 40 L63 40 L60 43 L60 44 L59 45 L59 48 L58 49 L58 53 L57 54 L57 59 L60 62 L61 62 L64 65 L64 66 L65 67 L65 78 L66 79 L66 80 L65 81 L61 81 L56 76 L55 76 L53 74 L51 74 L50 73 L44 73 L43 74 L42 74 L40 76 L39 76 L35 80 L35 81 L34 82 L34 93 L35 94 L35 96 L36 97 L36 98 L37 99 L37 100 L38 101 L38 102 L37 103 L33 103 L32 104 L31 104 L28 107 L28 108 L27 109 L27 110 L26 111 L26 112 L25 113 L25 117 L24 118 L24 127 L25 128 L25 130 L26 131 L26 132 L28 134 L28 135 L29 135 L31 137 L31 138 L38 145 L39 145 L41 147 L43 147 L44 148 L47 148 L50 151 L50 152 L51 153 L51 154 L52 155 L53 155 L55 157 L56 157 L58 159 L59 159 L60 160 L61 160 L62 161 L64 161 L65 162 L66 162 L67 163 L70 163 L72 161 L73 161 L74 160 L74 159 L75 158 L75 157 L86 146 L87 146 L93 152 L94 152 L96 154 L97 154 L98 155 L99 155 L100 156 L106 156 L107 155 L108 155 L109 156 L109 161 L110 162 L110 163 L114 167 L115 167 L116 168 L117 168 L119 170 L121 170 L122 171 L123 171 L124 172 L127 172 L128 171 L129 171 L130 170 L131 170 L132 169 L135 169 L136 168 L142 168 L143 169 L143 175 L144 176 L144 184 L145 185 L145 191 L146 192 L146 197 L147 198 L147 203 L148 204 L148 209 L147 210 L144 210 L143 209 L142 209 L141 208 L139 208 L137 206 L135 206 L134 205 L132 205 L131 204 L125 204 L124 205 L122 205 L121 206 L120 206 L119 207 L116 207 L115 208 L114 207 L113 207 L112 206 L111 206 L108 203 L107 203 L106 202 L104 202 L103 201 L101 201 L100 202 L99 202 L98 203 L97 203 L95 205 L94 205 L93 206 L92 206 L91 207 L90 207 L89 208 L88 208 L85 211 L84 211 L84 212 L80 216 L79 216 L78 217 L77 217 L76 218 L74 218 L73 219 L68 219 L67 220 L65 220 L64 221 L62 221 L60 223 L60 224 L58 226 L58 233 L59 234 L59 235 L63 239 L64 239 L67 242 L68 242 L71 245 L72 245 L73 246 L74 246 L75 247 L90 247 L91 248 L94 248 L95 249 L98 249 L99 250 L102 250 L103 251 L106 251 L107 252 L121 252 L122 253 L124 253 L125 254 L126 254 L127 255 L127 256 L128 257 L128 258 L129 259 L129 260 L130 261 L130 262 L131 263 L131 264 L132 265 L132 266 L133 267 L133 268 L134 269 L134 270 L135 271 L135 272 L136 273 L136 274 L137 275 L137 276 L138 277 L138 278 L139 279 L139 280 L140 281 L140 282 L141 283 L141 284 L143 286 L143 287 L144 288 L144 289 L146 291 L146 292 L145 293 L142 290 L141 290 L140 289 L138 289 L137 288 L127 288 L126 289 L124 289 L123 290 L120 290 L119 291 L118 291 L117 292 L116 292 L113 295 L112 295 L112 296 L105 303 L105 304 L102 307 L101 306 L101 305 L102 304 L102 303 L103 302 L103 301 L105 299 L105 298 L107 296 L107 295 L109 293 L109 292 L111 290 L111 289 L112 288 L112 286 L113 285 L113 271 L112 270 L112 266 L111 265 L111 264 L110 263 L110 262 L104 256 L103 256 L102 255 L101 255 L100 254 L97 254 L96 253 L88 253 L87 252 L86 252 L85 253 L80 253 L79 254 L77 254 L76 255 L74 255 L72 257 L71 257 L70 258 L66 258 L65 257 L63 257 L62 256 L57 256 L56 257 L53 257 L52 258 L50 258 L43 265 L43 266 L42 267 L42 268 L41 269 L41 270 L37 274 L30 274 L29 275 L28 275 L27 276 L26 276 L23 279 L23 280 L22 281 L22 282 L21 283 L21 286 L14 293 L14 295 L13 296 L13 305 L14 306 L14 309 L13 310 L13 312 L12 313 L12 314 L11 315 L11 320 L10 321 L10 322 L11 323 L11 325 L12 326 L12 330 L13 331 L13 334 L14 335 L14 336 L16 338 L16 339 L22 345 L25 345 L26 346 L29 346 L30 345 L32 345 L33 344 L34 344 L35 343 L36 344 L36 345 L34 347 L34 348 L33 349 L33 350 L32 351 L32 354 L33 355 L33 356 L35 358 L35 359 L44 368 L45 368 L47 370 L48 370 L49 371 L51 371 L52 372 L55 372 L56 373 L59 373 L60 374 L66 374 L67 373 L69 373 L71 371 L72 371 L74 369 L75 369 L76 368 L77 368 L78 367 L80 367 L83 370 L84 370 L85 371 L86 371 L87 372 L103 372 L104 371 L106 371 L107 370 L108 370 L111 367 L111 366 L114 363 L124 363 L125 362 L127 362 L128 361 L129 361 L130 360 L131 360 L133 358 L133 357 L139 351 L144 356 L144 357 L147 360 L147 361 L149 363 L149 364 L154 369 L154 370 L161 377 L161 378 L164 381 L164 382 L166 384 L166 385 L168 387 L168 388 L169 389 L169 390 L170 391 L170 392 L171 393 L171 394 L173 396 L173 398 L174 399 L174 400 L175 401 L175 402 L176 403 L176 404 L177 405 L177 406 L178 407 L178 408 L179 409 L179 411 L178 412 L177 412 L169 404 L168 404 L167 403 L166 403 L165 404 L165 405 L166 406 L166 407 L167 408 L167 409 L169 411 L169 412 L171 414 L171 415 L172 416 L172 417 L173 418 L173 419 L174 420 L174 421 L175 422 L175 424 L176 425 L176 427 L177 428 L177 429 L178 430 L178 431 L179 432 L179 446 L178 447 L178 450 L179 451 L179 456 L180 457 L181 456 L181 455 L182 454 L183 454 L184 453 L184 447 L185 446 L185 438 L186 437 L186 436 L188 434 L190 436 L190 438 L191 439 L191 444 L190 445 L190 452 L191 453 L191 458 L192 458 L194 456 L194 454 L195 453 L195 451 L196 450 L196 449 L197 448 L197 442 L198 441 L198 435 L199 434 L199 432 L209 422 L210 422 L215 417 L215 416 L217 414 L217 413 L218 412 L218 411 L220 409 L220 408 L222 406 L222 405 L223 404 L223 403 L220 403 L219 404 L218 404 L216 406 L215 406 L210 411 L210 412 L209 413 L209 414 L207 416 L206 415 L206 413 L207 412 L207 411 L208 410 L208 409 L209 408 L209 405 L210 404 L210 402 L211 401 L211 399 L212 398 L212 397 L213 396 L213 395 L214 394 L214 393 L215 392 L215 391 L217 389 L217 388 L218 387 L218 386 L220 384 L220 383 L222 381 L222 380 L224 378 L224 377 L225 376 L225 375 L228 372 L228 371 L236 363 L237 363 L239 365 L239 366 L245 372 L246 372 L247 373 L249 373 L250 374 L253 374 L254 375 L258 375 L259 374 L260 374 L261 373 L262 373 L263 374 L263 375 L265 377 L265 378 L266 379 L266 380 L267 381 L267 382 L270 385 L271 385 L272 386 L274 386 L275 387 L279 387 L280 388 L283 388 L284 387 L285 388 L289 388 L290 387 L292 387 L293 386 L294 386 L299 381 L299 380 L300 379 L300 378 L303 375 L305 377 L305 378 L306 379 L306 380 L309 383 L310 383 L311 384 L313 384 L314 385 L316 385 L317 386 L325 386 L326 385 L328 385 L329 384 L330 384 L334 380 L335 380 L337 378 L343 378 L344 377 L346 377 L347 376 L348 376 L351 373 L351 372 L352 371 L352 370 L353 369 L353 365 L354 364 L354 363 L357 360 L357 352 L358 351 L358 343 L356 341 L356 340 L353 337 L355 335 L356 335 L358 333 L359 333 L360 332 L361 332 L361 331 L364 328 L364 327 L365 326 L365 318 L364 317 L364 313 L363 312 L363 309 L362 308 L362 306 L361 305 L361 304 L360 303 L360 302 L351 293 L351 285 L350 284 L350 281 L349 280 L349 279 L346 276 L346 275 L344 273 L343 273 L340 270 L339 270 L338 269 L337 269 L336 268 L333 268 L332 267 L325 267 L324 268 L322 268 L321 269 L319 269 L317 267 L317 266 L313 262 L313 261 L312 261 L310 259 L309 259 L308 258 L307 258 L306 257 L305 257 L304 256 L301 256 L300 255 L294 255 L293 256 L292 256 L287 261 L286 261 L285 260 L282 260 L281 259 L279 259 L278 258 L277 258 L276 257 L278 255 L278 254 L280 252 L280 251 L281 250 L281 249 L282 248 L282 247 L283 246 L283 245 L284 244 L284 243 L285 242 L285 241 L286 240 L286 239 L287 238 L287 237 L288 236 L288 235 L289 234 L289 233 L290 232 L290 230 L291 229 L291 228 L292 227 L292 226 L293 225 L293 223 L294 222 L294 220 L295 219 L295 218 L296 217 L296 215 L297 214 L297 213 L298 212 L298 210 L299 209 L299 208 L300 207 L300 206 L302 204 L302 202 L303 201 L303 200 L305 198 L306 199 L306 204 L307 205 L307 210 L308 211 L308 215 L309 216 L309 217 L311 219 L312 219 L313 220 L314 219 L315 219 L316 218 L317 218 L318 217 L318 216 L320 214 L320 213 L322 211 L322 208 L321 207 L321 198 L320 197 L320 195 L321 194 L324 197 L324 198 L325 199 L325 200 L326 201 L326 203 L327 204 L327 207 L328 208 L328 210 L329 211 L329 213 L330 214 L330 215 L332 217 L332 218 L335 221 L336 221 L337 222 L344 222 L346 220 L346 213 L345 212 L345 211 L344 210 L344 208 L345 207 L352 207 L352 206 L353 205 L353 202 L352 201 L352 199 L351 198 L351 197 L350 196 L350 195 L345 190 L344 190 L342 188 L340 188 L339 187 L338 187 L337 186 L334 186 L333 185 L332 185 L331 184 L327 184 L326 183 L323 183 L322 182 L321 182 L320 181 L322 179 L323 179 L324 178 L326 178 L327 177 L328 177 L329 176 L330 176 L331 175 L332 175 L338 169 L342 169 L343 170 L345 170 L346 171 L347 171 L348 172 L349 172 L350 173 L355 173 L360 178 L360 179 L364 183 L364 184 L367 187 L368 187 L369 188 L371 188 L372 189 L378 189 L379 188 L380 188 L381 187 L382 187 L384 185 L385 185 L387 183 L388 183 L391 180 L391 179 L392 178 L392 176 L393 175 L393 167 L392 166 L392 164 L391 163 L391 162 L390 161 L390 160 L389 159 L390 158 L390 157 L395 152 L395 151 L397 149 L397 147 L398 146 L398 143 L399 142 L398 141 L398 138 L397 137 L397 135 L396 134 L396 133 L395 132 L395 131 L390 126 L389 126 L387 124 L385 124 L384 123 L383 123 L382 122 L381 122 L380 123 L379 123 L378 122 L378 115 L377 114 L377 110 L376 109 L376 108 L370 102 L369 102 L365 98 L364 98 L363 97 L357 97 L356 98 L355 98 L353 100 L352 100 L348 104 L347 104 L346 105 L345 105 L344 106 L342 104 L342 103 L341 102 L342 101 L340 99 L340 97 L337 94 L339 92 L339 91 L340 90 L342 92 L342 93 L344 95 L344 96 L345 97 L345 99 L346 100 L346 101 L348 101 L348 100 L349 99 L348 98 L348 96 L347 95 L347 94 L346 93 L346 92 L340 86 L339 86 L338 85 L337 85 L336 84 L329 84 L328 85 L326 85 L323 88 L323 89 L322 90 L321 90 L315 84 L315 83 L314 83 L313 82 L312 82 L311 81 L300 81 L299 82 L296 82 L295 83 L293 83 L292 84 L291 84 L290 85 L289 85 L288 86 L287 86 L284 89 L284 90 L283 91 L283 92 L282 93 L282 100 L283 101 L283 105 L281 107 L281 108 L279 110 L279 111 L278 112 L278 114 L276 116 L275 115 L275 114 L274 113 L273 113 L272 112 L268 112 L267 111 L266 111 L265 112 L262 112 L261 113 L260 113 L258 115 L258 116 L257 117 L257 119 L256 120 L256 126 L257 127 L257 129 L253 133 L253 134 L252 135 L252 137 L254 139 L254 140 L255 140 L259 144 L259 145 L266 152 L267 152 L268 153 L271 153 L272 154 L274 154 L275 153 L277 153 L278 152 L280 152 L282 150 L284 150 L285 151 L287 151 L288 152 L289 152 L290 153 L291 153 L294 156 L294 157 L296 159 L296 161 L297 162 L297 163 L298 164 L298 166 L299 167 L299 169 L300 170 L300 171 L301 172 L301 173 L302 174 L301 175 L291 175 L290 176 L287 176 L286 177 L284 177 L282 179 L282 181 L281 182 L282 183 L282 185 L283 186 L283 187 L284 188 L285 188 L287 190 L288 190 L289 191 L292 191 L293 192 L293 194 L292 195 L292 197 L291 198 L291 200 L290 201 L290 203 L289 204 L289 206 L288 207 L288 208 L287 209 L287 211 L286 212 L286 214 L285 215 L285 216 L284 217 L284 219 L283 220 L283 221 L282 222 L282 223 L281 224 L281 225 L280 226 L280 228 L279 229 L279 231 L278 232 L278 233 L277 234 L277 235 L276 236 L276 237 L275 238 L275 239 L274 240 L274 242 L273 243 L273 244 L272 245 L272 246 L271 247 L271 248 L270 249 L270 250 L268 252 L268 253 L267 254 L267 255 L266 256 L266 257 L265 258 L265 259 L264 260 L264 261 L263 262 L263 263 L262 264 L262 265 L260 267 L260 268 L259 269 L259 270 L257 272 L257 273 L256 274 L256 275 L255 276 L255 277 L254 278 L254 279 L252 281 L252 282 L251 283 L251 284 L250 285 L250 286 L248 288 L248 289 L246 291 L246 292 L245 293 L244 293 L243 294 L238 294 L237 295 L236 295 L235 296 L234 296 L229 301 L228 301 L222 307 L222 308 L221 309 L221 310 L220 311 L220 314 L219 315 L219 323 L218 324 L218 326 L219 327 L219 332 L216 335 L216 336 L214 338 L214 339 L213 340 L213 341 L212 342 L212 343 L211 344 L211 345 L209 347 L209 348 L208 349 L208 350 L206 352 L206 353 L205 354 L205 355 L203 357 L203 358 L202 359 L202 360 L200 362 L199 361 L199 347 L200 346 L200 336 L201 335 L201 313 L200 312 L200 311 L201 310 L201 309 L207 303 L207 302 L208 301 L209 301 L210 300 L214 300 L215 299 L217 299 L218 298 L219 298 L220 297 L221 297 L224 294 L224 293 L225 292 L225 291 L226 290 L226 289 L227 288 L227 282 L226 281 L226 276 L225 275 L225 274 L224 273 L224 272 L221 269 L221 268 L220 268 L212 260 L211 260 L210 259 L210 257 L211 256 L211 252 L212 251 L212 247 L213 246 L215 246 L216 247 L226 247 L227 246 L230 246 L231 245 L232 245 L233 244 L235 244 L236 245 L237 245 L238 246 L239 246 L240 247 L241 247 L242 248 L246 248 L247 247 L248 247 L251 244 L251 243 L252 242 L252 241 L254 239 L255 239 L257 237 L258 237 L262 233 L262 232 L263 231 L263 229 L264 228 L264 222 L263 221 L263 220 L262 219 L262 218 L264 216 L265 216 L266 215 L266 211 L264 209 L264 208 L263 207 L263 205 L262 204 L262 201 L261 200 L261 199 L260 198 L260 197 L258 195 L257 195 L256 194 L255 194 L253 192 L252 192 L251 191 L251 189 L250 188 L250 187 L246 183 L245 183 L244 182 L243 182 L242 181 L240 181 L239 180 L237 180 L236 179 L233 179 L232 180 L231 180 L230 181 L229 181 L228 182 L227 182 L225 184 L224 184 L223 185 L222 185 L221 184 L220 184 L219 183 L218 183 L217 182 L214 182 L213 181 L210 181 L209 182 L208 182 L207 183 L206 183 L201 188 L201 189 L197 193 L194 193 L193 194 L191 194 L190 195 L188 195 L187 196 L186 196 L180 202 L180 203 L179 204 L179 227 L180 228 L180 230 L183 233 L184 233 L185 234 L186 234 L187 235 L188 235 L189 236 L191 236 L192 237 L193 236 L198 236 L200 234 L201 234 L202 233 L204 233 L205 232 L206 232 L207 233 L207 236 L206 237 L206 239 L205 240 L205 242 L204 243 L204 247 L203 248 L203 253 L202 254 L199 254 L198 255 L196 255 L195 256 L194 256 L190 260 L190 261 L189 262 L189 263 L190 264 L190 266 L189 267 L187 265 L187 261 L186 261 L185 260 L184 260 L183 259 L178 259 L177 258 L172 258 L170 256 L170 253 L169 252 L169 248 L168 247 L168 243 L167 242 L167 237 L166 236 L166 233 L165 232 L165 226 L164 225 L164 220 L163 219 L163 215 L162 214 L162 207 L161 206 L161 201 L160 200 L160 192 L159 191 L159 187 L158 186 L158 183 L157 182 L157 177 L156 176 L156 173 L155 172 L155 166 L154 165 L154 162 L153 161 L153 160 L154 159 L155 159 L156 158 L159 158 L160 157 L161 157 L163 155 L164 155 L171 148 L171 147 L174 144 L174 143 L175 142 L176 143 L178 143 L179 144 L182 144 L183 143 L186 143 L187 142 L188 142 L189 141 L190 141 L193 138 L193 137 L195 135 L195 134 L197 132 L197 131 L198 130 L199 130 L200 131 L200 133 L201 134 L201 136 L202 137 L202 139 L205 142 L206 142 L207 143 L210 143 L211 144 L217 144 L218 143 L220 143 L221 142 L222 142 L229 135 L229 134 L230 133 L230 132 L231 131 L231 129 L232 128 L232 126 L231 125 L231 124 L229 122 L228 122 L226 120 L227 119 L228 119 L229 118 L230 118 L231 117 L232 117 L233 116 L234 116 L237 113 L237 112 L238 111 L238 110 L239 109 L239 107 L240 106 L240 101 L239 100 L239 94 L238 93 L238 91 L237 90 L237 89 L236 88 L236 87 L235 86 L235 85 L232 82 L231 82 L230 81 L230 79 L231 78 L231 76 L232 75 L232 69 L231 68 L231 65 L220 54 L218 54 L217 53 L216 54 L214 54 L213 55 L212 55 L211 56 L210 56 L208 54 L208 53 L207 52 L207 50 L206 49 L206 48 L205 47 L205 45 L204 44 L204 41 L203 40 L203 39 L201 37 L201 36 L200 35 L199 35 L198 34 L197 34 L196 33 L195 33 L194 32 L188 32 L187 33 L184 33 L183 34 L181 32 L181 30 L180 29 L180 27 L179 26 L179 24 L177 22 L177 21 L175 19 L174 19 L173 18 L169 18 L168 17 L159 17 L158 18 L157 18 L156 19 L156 20 L155 21 L155 25 L154 26 L154 30 L153 31 L154 32 L154 33 L153 34 L149 34 L148 33 L144 33 L143 32 L143 24 L142 23 L142 22 L139 19 L139 18 L138 18 L135 15 L133 15 L132 14 L128 14 L127 13 L122 13 L121 12 L117 12 L116 11 Z " fill="black"/></svg>