<svg width="795" height="870" xmlns="http://www.w3.org/2000/svg"><path d="M177 869 L178 869 Z M91 869 Z M214 868 Z M311 867 L311 869 Z M189 863 L190 863 Z M173 863 L172 864 L172 865 L171 866 L171 867 L170 868 L170 869 L171 869 L171 868 L172 867 L172 865 L173 864 Z M91 863 Z M97 862 L98 863 L98 865 L100 867 L100 869 L102 869 L102 868 L101 867 L101 864 L99 862 Z M90 861 Z M174 860 L175 861 L175 860 Z M89 859 Z M175 858 Z M298 856 L297 857 L296 857 L295 858 L294 858 L290 862 L289 862 L288 863 L287 863 L285 865 L284 865 L281 868 L281 869 L285 869 L286 868 L287 868 L289 866 L290 866 L292 864 L293 864 L294 863 L295 863 L296 862 L298 862 L299 861 L308 861 L309 862 L310 862 L312 864 L312 865 L316 869 L323 869 L319 865 L318 865 L312 859 L312 858 L310 856 Z M199 854 L198 855 L199 855 Z M90 854 L90 855 Z M171 848 L171 851 L170 852 L170 856 L171 857 L172 857 L172 856 L173 855 L173 854 L172 853 L172 851 L171 850 Z M793 847 L793 848 L792 849 L792 852 L793 853 L793 856 L792 857 L792 858 L790 860 L790 863 L794 867 L794 847 Z M179 840 L179 842 L178 843 L178 847 L177 848 L177 851 L176 852 L176 854 L177 855 L177 857 L177 855 L178 854 L178 851 L180 849 L180 844 L182 842 L182 841 L181 840 Z M125 799 L124 800 L123 800 L121 802 L120 802 L114 808 L113 808 L112 809 L110 809 L107 812 L106 812 L106 813 L105 814 L105 815 L104 816 L104 817 L103 818 L103 819 L101 821 L101 822 L100 823 L100 824 L98 826 L98 827 L96 829 L96 830 L95 831 L95 832 L94 833 L94 834 L92 836 L92 837 L90 839 L89 839 L87 841 L83 841 L82 842 L81 842 L80 843 L76 843 L75 844 L74 844 L73 843 L69 843 L68 842 L67 842 L63 838 L62 838 L60 836 L59 836 L55 832 L54 832 L50 828 L49 828 L47 826 L46 826 L44 824 L43 824 L42 823 L41 823 L40 822 L39 822 L38 821 L37 821 L35 819 L34 819 L33 818 L32 818 L31 817 L26 817 L24 819 L23 819 L19 823 L19 824 L12 831 L12 832 L9 835 L9 836 L8 837 L8 838 L7 839 L7 840 L6 841 L6 842 L5 843 L5 845 L4 846 L4 847 L3 848 L3 852 L2 853 L2 854 L1 855 L0 855 L0 867 L2 869 L8 869 L8 867 L9 866 L9 863 L8 862 L8 860 L7 859 L7 858 L8 857 L8 855 L7 854 L8 853 L8 849 L9 848 L9 846 L10 845 L10 844 L11 843 L11 841 L13 839 L13 838 L14 837 L14 836 L17 833 L17 832 L18 831 L18 830 L24 824 L25 824 L26 823 L28 823 L29 824 L34 824 L35 825 L38 825 L39 826 L40 826 L42 828 L43 828 L44 829 L45 829 L47 831 L48 831 L51 834 L51 837 L52 838 L52 843 L51 844 L51 846 L50 847 L49 846 L48 847 L47 847 L46 846 L46 845 L45 844 L44 844 L43 845 L42 844 L42 842 L40 842 L39 841 L39 837 L38 836 L38 834 L37 833 L36 833 L35 832 L35 830 L34 829 L30 829 L29 830 L28 830 L23 835 L23 836 L20 839 L20 843 L21 844 L20 845 L20 847 L19 848 L19 853 L17 855 L17 859 L18 860 L18 863 L19 864 L19 865 L20 866 L19 867 L19 868 L20 869 L22 869 L22 868 L21 867 L21 866 L22 865 L24 865 L25 866 L25 867 L26 866 L27 866 L28 867 L28 869 L57 869 L58 868 L58 867 L61 864 L61 863 L63 861 L63 860 L68 855 L69 855 L72 852 L73 852 L74 851 L75 851 L76 850 L77 850 L79 848 L82 848 L83 847 L90 847 L91 848 L92 847 L95 847 L96 846 L97 847 L100 847 L101 848 L102 848 L103 849 L104 849 L113 858 L113 859 L114 860 L114 863 L115 864 L115 866 L114 867 L114 869 L156 869 L156 868 L155 867 L155 865 L154 864 L154 863 L153 862 L153 853 L154 852 L154 850 L155 849 L155 848 L157 846 L157 845 L162 840 L163 840 L164 839 L165 839 L166 838 L167 838 L168 837 L169 837 L170 836 L172 836 L173 835 L177 835 L178 834 L185 834 L186 835 L191 835 L192 836 L195 836 L196 837 L198 837 L199 838 L200 838 L201 839 L202 839 L203 840 L204 840 L206 842 L207 842 L209 844 L210 844 L211 845 L212 845 L213 846 L214 846 L215 847 L216 847 L217 848 L218 848 L220 850 L221 850 L228 857 L228 858 L229 858 L233 862 L234 862 L236 864 L237 864 L238 865 L240 865 L241 866 L242 866 L244 868 L244 869 L249 869 L249 867 L246 864 L245 864 L244 863 L242 863 L241 862 L240 862 L238 860 L237 860 L235 858 L234 858 L231 855 L231 854 L226 849 L225 849 L222 846 L221 846 L220 845 L219 845 L218 844 L217 844 L215 842 L214 842 L212 840 L211 840 L209 838 L208 838 L206 836 L205 836 L204 835 L203 835 L202 834 L201 834 L200 833 L199 833 L198 832 L197 832 L196 831 L194 831 L193 830 L185 830 L184 829 L179 829 L178 830 L175 830 L174 831 L172 831 L171 832 L170 832 L169 833 L168 833 L167 834 L165 834 L164 833 L164 832 L163 831 L163 830 L162 829 L162 828 L161 827 L161 826 L158 823 L158 822 L157 821 L156 821 L146 811 L145 811 L143 809 L142 809 L140 807 L139 807 L138 806 L137 806 L133 802 L132 802 L130 800 L129 800 L128 799 Z M733 785 L732 786 L732 788 L731 789 L731 793 L730 794 L730 799 L729 800 L727 798 L727 793 L726 792 L726 788 L724 788 L723 789 L723 792 L722 793 L722 797 L721 798 L721 799 L720 800 L719 800 L718 801 L717 801 L716 802 L715 802 L714 803 L713 803 L711 805 L711 807 L712 808 L712 809 L713 809 L714 810 L715 810 L717 812 L719 812 L720 813 L725 813 L727 815 L727 816 L728 817 L728 818 L729 819 L729 820 L728 821 L727 820 L726 820 L725 819 L724 819 L723 818 L720 818 L719 819 L719 821 L718 822 L718 827 L719 828 L719 829 L720 830 L720 831 L724 835 L725 835 L726 836 L727 836 L730 839 L728 841 L727 841 L723 845 L723 846 L722 847 L722 854 L723 855 L723 857 L728 862 L727 863 L727 869 L772 869 L773 868 L773 866 L772 865 L772 863 L771 862 L771 861 L769 859 L769 858 L770 857 L770 848 L769 847 L769 846 L766 843 L765 843 L764 842 L764 841 L765 840 L765 839 L768 836 L768 835 L769 834 L769 833 L770 832 L770 827 L769 826 L768 826 L767 825 L761 825 L760 826 L758 826 L757 825 L758 824 L758 823 L757 823 L756 822 L756 821 L757 820 L757 818 L758 817 L758 816 L761 813 L761 812 L760 811 L760 806 L759 806 L758 805 L757 806 L755 806 L753 804 L753 803 L754 802 L754 795 L753 794 L753 793 L752 793 L751 792 L750 793 L749 793 L749 794 L748 795 L748 797 L747 798 L747 800 L746 801 L746 802 L745 803 L745 804 L744 805 L743 805 L742 804 L742 797 L741 796 L741 793 L739 791 L739 790 L738 789 L738 788 L735 785 Z M794 139 L793 140 L792 140 L791 141 L790 141 L786 145 L786 146 L784 148 L784 149 L783 150 L783 151 L782 152 L782 155 L781 156 L781 160 L780 161 L780 166 L779 167 L779 178 L780 179 L780 181 L781 182 L781 184 L782 185 L782 186 L783 187 L783 188 L784 189 L784 191 L785 192 L785 193 L786 194 L786 195 L787 196 L787 197 L788 198 L788 199 L790 201 L790 202 L792 204 L792 205 L793 206 L793 207 L794 208 L794 210 Z M480 11 L479 12 L477 12 L476 13 L472 13 L471 14 L465 14 L464 15 L462 15 L461 16 L458 16 L457 17 L425 17 L424 18 L421 18 L420 19 L417 19 L416 20 L414 20 L413 21 L412 21 L411 22 L409 22 L408 23 L405 23 L404 24 L402 24 L401 25 L398 25 L396 27 L395 27 L392 30 L391 30 L389 32 L388 32 L387 33 L386 33 L382 37 L381 37 L380 38 L379 38 L375 42 L374 42 L372 44 L371 44 L364 51 L364 52 L358 58 L358 59 L353 64 L352 64 L351 65 L351 66 L350 67 L350 69 L349 70 L349 72 L348 73 L348 74 L347 75 L347 76 L344 79 L344 80 L343 81 L343 83 L342 84 L342 88 L341 89 L341 93 L340 94 L340 97 L339 98 L339 102 L338 103 L338 109 L337 110 L337 129 L338 130 L338 135 L339 136 L339 140 L340 141 L340 145 L341 146 L341 149 L342 150 L342 152 L343 153 L343 154 L344 155 L344 157 L345 158 L345 161 L346 162 L346 165 L347 166 L347 168 L348 169 L348 171 L349 172 L349 175 L350 176 L350 180 L351 181 L351 187 L352 188 L352 207 L351 208 L351 211 L350 212 L350 213 L347 216 L341 216 L340 215 L339 215 L335 211 L335 209 L333 207 L333 205 L332 204 L332 203 L329 200 L329 199 L328 198 L328 197 L326 195 L326 194 L325 193 L325 192 L324 191 L324 190 L323 189 L323 188 L322 187 L322 186 L321 185 L321 184 L320 183 L320 182 L319 181 L319 180 L318 179 L318 177 L317 176 L317 175 L316 174 L316 173 L315 172 L315 170 L314 169 L314 168 L313 167 L313 166 L312 165 L312 163 L311 162 L311 160 L310 159 L310 157 L309 156 L309 155 L308 154 L308 153 L307 152 L307 150 L306 149 L306 148 L305 147 L305 145 L304 144 L304 143 L303 142 L303 141 L301 139 L301 138 L300 137 L300 136 L298 134 L298 133 L297 132 L297 131 L294 128 L294 127 L291 124 L291 123 L282 114 L282 113 L281 112 L280 112 L277 109 L276 109 L274 107 L273 107 L271 105 L270 105 L269 104 L268 104 L267 103 L266 103 L265 102 L264 102 L262 100 L261 100 L260 99 L258 99 L257 98 L255 98 L254 97 L253 97 L252 96 L250 96 L249 95 L247 95 L246 94 L244 94 L243 93 L242 93 L241 92 L237 92 L236 91 L233 91 L232 90 L229 90 L228 89 L220 89 L219 88 L193 88 L192 89 L186 89 L185 90 L181 90 L180 91 L176 91 L175 92 L171 92 L170 93 L166 93 L165 94 L162 94 L161 95 L158 95 L157 96 L156 96 L155 97 L153 97 L152 98 L150 98 L149 99 L148 99 L147 100 L145 100 L144 101 L142 101 L141 102 L140 102 L139 103 L136 103 L135 104 L132 104 L131 105 L130 105 L129 106 L127 106 L126 107 L124 107 L123 108 L122 108 L121 109 L120 109 L119 110 L118 110 L116 112 L115 112 L114 113 L113 113 L111 115 L110 115 L109 116 L108 116 L105 119 L104 119 L101 122 L100 122 L97 125 L96 125 L88 133 L88 134 L87 135 L87 136 L85 138 L85 139 L83 141 L83 142 L80 145 L80 146 L78 148 L78 149 L77 150 L77 151 L76 152 L76 153 L74 155 L74 156 L73 157 L73 158 L72 159 L72 161 L71 162 L71 163 L70 164 L70 165 L69 166 L69 167 L68 168 L68 169 L66 171 L66 172 L65 173 L65 174 L64 175 L64 180 L65 181 L65 184 L67 186 L68 186 L69 185 L70 185 L75 180 L76 180 L77 179 L81 179 L82 178 L84 178 L85 177 L88 177 L89 176 L91 176 L92 175 L94 175 L95 174 L99 174 L100 173 L103 173 L104 172 L105 172 L106 171 L108 171 L109 170 L112 170 L113 169 L117 169 L118 168 L124 168 L125 167 L149 167 L150 168 L161 168 L162 169 L164 169 L165 170 L166 170 L167 171 L168 171 L169 172 L170 172 L171 173 L173 173 L174 174 L176 174 L177 175 L179 175 L180 176 L183 176 L184 177 L185 177 L186 178 L187 178 L188 179 L190 179 L192 181 L192 186 L187 191 L186 191 L185 192 L183 192 L182 193 L179 193 L178 194 L166 194 L165 193 L161 193 L160 192 L153 192 L152 191 L145 191 L144 190 L141 190 L140 189 L132 189 L131 188 L125 188 L124 189 L123 188 L106 188 L105 187 L104 188 L100 188 L99 187 L95 187 L94 188 L77 188 L76 189 L71 189 L70 190 L68 190 L67 191 L66 191 L65 192 L64 192 L63 193 L61 193 L60 194 L59 194 L58 195 L57 195 L56 196 L55 196 L54 197 L53 197 L50 200 L50 201 L46 205 L46 206 L44 208 L44 209 L42 211 L42 212 L41 213 L41 214 L39 216 L39 217 L37 219 L37 220 L34 223 L34 224 L31 227 L31 228 L28 231 L28 232 L27 233 L27 234 L26 235 L26 237 L25 238 L25 240 L24 241 L24 244 L23 245 L23 248 L22 249 L22 252 L21 253 L21 255 L20 256 L20 259 L19 260 L19 262 L18 263 L18 265 L17 266 L17 269 L16 270 L16 278 L15 279 L15 286 L14 287 L14 292 L13 293 L13 300 L12 301 L12 320 L11 321 L11 323 L12 324 L12 325 L11 326 L11 330 L12 331 L12 343 L13 344 L13 348 L14 349 L14 350 L16 352 L18 352 L19 351 L19 350 L21 348 L21 347 L24 344 L24 343 L30 337 L30 336 L39 327 L40 327 L46 321 L47 321 L57 311 L58 311 L62 307 L63 307 L65 305 L66 305 L68 303 L69 303 L71 301 L72 301 L73 300 L74 300 L76 298 L77 298 L78 297 L79 297 L80 296 L81 296 L82 295 L83 295 L84 294 L85 294 L87 292 L88 292 L89 291 L90 291 L91 290 L93 290 L94 289 L95 289 L96 288 L98 288 L99 287 L101 287 L102 286 L104 286 L105 285 L109 285 L110 284 L112 284 L113 283 L115 283 L116 282 L119 282 L120 281 L122 281 L123 280 L125 280 L126 279 L128 279 L129 278 L132 278 L133 277 L136 277 L137 276 L139 276 L140 275 L141 275 L142 274 L144 274 L145 273 L147 273 L148 272 L151 272 L152 271 L156 271 L157 270 L164 270 L165 269 L188 269 L189 270 L195 270 L196 271 L197 271 L199 273 L199 278 L198 279 L198 280 L195 283 L193 283 L192 284 L191 284 L190 285 L189 285 L188 286 L187 286 L186 287 L185 287 L184 288 L183 288 L182 289 L181 289 L180 290 L179 290 L178 291 L177 291 L176 292 L175 292 L174 293 L173 293 L172 294 L171 294 L170 295 L168 295 L167 296 L166 296 L165 297 L163 297 L162 298 L160 298 L159 299 L157 299 L156 300 L154 300 L153 301 L151 301 L150 302 L148 302 L147 303 L146 303 L145 304 L144 304 L143 305 L142 305 L141 306 L139 306 L138 307 L135 307 L134 308 L131 308 L130 309 L128 309 L127 310 L126 310 L125 311 L123 311 L122 312 L118 312 L117 313 L115 313 L114 314 L112 314 L111 315 L109 315 L108 316 L107 316 L106 317 L105 317 L104 318 L103 318 L102 319 L100 319 L99 320 L97 320 L96 321 L95 321 L94 322 L92 322 L91 323 L90 323 L89 324 L87 324 L86 325 L84 325 L83 326 L81 326 L80 327 L78 327 L77 328 L76 328 L75 329 L73 329 L72 330 L70 330 L69 331 L68 331 L67 332 L65 332 L64 333 L63 333 L61 335 L60 335 L56 339 L54 339 L53 340 L52 340 L51 341 L50 341 L47 344 L47 345 L37 355 L36 355 L31 360 L30 360 L27 363 L27 364 L25 366 L25 367 L22 370 L22 371 L20 373 L20 374 L19 375 L19 376 L17 378 L17 380 L16 381 L16 382 L15 383 L15 384 L14 385 L14 387 L13 388 L13 391 L12 392 L12 406 L11 407 L11 434 L12 435 L12 441 L13 442 L13 445 L14 446 L14 451 L15 452 L15 454 L16 455 L16 458 L17 459 L17 462 L18 463 L18 466 L19 467 L19 469 L20 470 L20 472 L21 473 L21 475 L22 476 L22 478 L23 479 L23 480 L24 481 L24 482 L25 483 L25 484 L26 485 L26 487 L27 488 L27 489 L28 490 L28 491 L29 492 L29 493 L31 495 L31 496 L32 497 L32 498 L33 499 L33 500 L34 501 L34 502 L35 503 L35 504 L36 505 L36 506 L37 507 L37 509 L38 510 L38 512 L39 513 L39 515 L40 516 L40 517 L41 518 L41 519 L42 520 L42 522 L43 523 L43 524 L44 525 L44 526 L45 527 L45 528 L46 529 L46 531 L47 532 L47 536 L48 537 L48 538 L49 539 L49 540 L52 543 L53 543 L54 544 L55 544 L56 545 L58 545 L59 544 L60 544 L62 542 L62 540 L63 539 L63 536 L64 535 L64 532 L65 531 L65 529 L66 528 L66 527 L67 526 L67 525 L68 524 L68 523 L69 522 L69 521 L70 520 L70 519 L71 518 L71 517 L73 515 L73 514 L74 513 L74 512 L75 511 L75 510 L77 508 L77 507 L78 506 L78 504 L79 503 L79 502 L80 501 L80 500 L81 499 L81 498 L85 494 L85 489 L86 488 L86 487 L87 486 L87 485 L88 484 L88 483 L89 482 L89 481 L91 479 L91 478 L94 475 L94 474 L98 470 L98 469 L110 457 L110 456 L117 449 L117 448 L125 440 L126 440 L131 435 L132 435 L137 430 L138 430 L143 425 L144 425 L149 420 L150 420 L155 415 L156 415 L169 402 L170 402 L179 393 L180 393 L180 392 L182 390 L183 390 L183 389 L193 379 L194 379 L199 374 L200 374 L204 370 L205 370 L208 367 L209 367 L211 365 L212 365 L214 363 L215 363 L216 362 L218 362 L219 361 L223 361 L224 362 L228 362 L230 364 L230 366 L229 367 L229 368 L228 369 L228 370 L226 372 L226 373 L220 379 L220 380 L199 401 L198 401 L191 408 L190 408 L187 411 L186 411 L184 413 L183 413 L178 418 L177 418 L173 422 L172 422 L167 427 L166 427 L161 432 L160 432 L154 438 L153 438 L147 444 L146 444 L119 471 L119 472 L115 476 L115 477 L113 479 L113 480 L111 482 L111 483 L109 485 L109 486 L107 488 L107 489 L105 491 L105 492 L103 494 L103 495 L101 497 L101 498 L99 500 L99 501 L98 502 L98 503 L96 505 L96 506 L95 507 L95 508 L94 509 L94 510 L92 512 L92 513 L91 514 L91 515 L90 516 L90 517 L88 519 L88 520 L87 521 L87 522 L85 524 L85 525 L84 526 L84 527 L83 528 L83 529 L82 530 L82 531 L80 533 L80 534 L79 535 L79 536 L78 537 L78 538 L77 539 L77 540 L76 541 L76 543 L75 544 L75 545 L74 546 L74 547 L73 548 L73 551 L72 552 L72 556 L71 557 L71 570 L72 571 L72 575 L73 576 L73 580 L74 581 L74 583 L76 585 L76 586 L77 587 L77 588 L78 589 L78 590 L79 591 L79 592 L80 593 L80 594 L82 596 L82 597 L83 598 L83 599 L85 601 L85 602 L86 603 L86 604 L88 606 L88 607 L90 609 L90 610 L91 611 L91 612 L94 615 L94 616 L98 620 L98 621 L104 627 L104 628 L110 634 L110 635 L117 642 L117 643 L123 649 L123 650 L127 654 L127 655 L130 658 L130 659 L133 662 L133 663 L135 665 L135 666 L137 668 L137 669 L140 672 L140 673 L147 680 L147 681 L149 683 L150 683 L152 685 L153 685 L154 686 L158 686 L159 685 L159 684 L160 683 L160 682 L161 681 L161 680 L162 679 L162 678 L163 677 L163 676 L164 675 L164 672 L165 671 L165 642 L166 641 L166 635 L167 634 L167 629 L168 628 L168 625 L169 624 L169 621 L170 620 L170 618 L171 617 L171 616 L172 615 L172 614 L173 613 L173 612 L174 611 L174 609 L175 608 L175 606 L176 605 L176 603 L177 602 L177 599 L178 598 L178 595 L179 594 L179 592 L180 591 L180 589 L181 588 L181 586 L183 584 L183 583 L184 582 L184 581 L185 580 L185 579 L186 578 L186 577 L187 576 L187 575 L188 574 L188 573 L189 572 L189 571 L190 570 L190 569 L191 568 L191 567 L193 565 L193 564 L194 563 L194 562 L196 560 L196 559 L198 557 L198 556 L200 554 L200 553 L201 552 L201 551 L203 549 L203 548 L205 546 L205 545 L207 543 L207 542 L209 540 L209 539 L211 537 L211 536 L213 534 L213 533 L215 531 L215 530 L217 528 L217 527 L219 525 L219 524 L220 523 L220 522 L222 520 L222 519 L224 517 L224 516 L226 514 L226 513 L227 512 L227 511 L228 510 L228 509 L229 508 L229 506 L231 504 L231 503 L233 501 L233 500 L236 497 L236 496 L237 495 L237 494 L238 493 L238 492 L240 490 L240 489 L243 486 L243 485 L244 484 L244 483 L245 482 L245 481 L247 479 L247 478 L251 474 L251 473 L253 471 L253 470 L256 467 L256 466 L257 465 L257 464 L260 461 L261 461 L264 458 L264 457 L273 448 L274 448 L276 446 L278 446 L280 444 L281 444 L282 443 L283 443 L284 442 L288 442 L289 443 L289 445 L288 446 L288 450 L287 451 L287 453 L286 454 L286 457 L285 458 L285 459 L284 460 L284 461 L283 462 L283 463 L281 465 L281 466 L280 467 L280 468 L279 469 L279 470 L278 471 L278 472 L276 474 L276 475 L275 476 L275 477 L274 478 L274 479 L273 480 L273 481 L272 482 L272 483 L271 484 L271 485 L270 486 L270 487 L268 489 L268 490 L267 491 L267 492 L265 494 L265 495 L263 497 L263 498 L260 501 L260 502 L259 503 L259 504 L257 506 L257 507 L255 509 L255 510 L253 512 L253 513 L252 514 L252 515 L251 516 L251 517 L247 521 L247 522 L244 525 L244 526 L243 527 L243 528 L240 531 L240 532 L237 535 L237 536 L233 540 L233 541 L232 542 L232 543 L229 546 L229 547 L227 549 L227 550 L225 552 L225 553 L222 556 L222 557 L220 559 L220 560 L218 562 L218 563 L217 564 L217 565 L216 566 L216 567 L215 568 L215 569 L214 570 L214 571 L213 572 L213 573 L211 575 L211 576 L209 578 L209 579 L208 580 L208 581 L206 583 L206 585 L205 586 L205 587 L204 588 L204 589 L203 590 L203 591 L202 592 L202 593 L201 594 L201 595 L200 596 L200 597 L199 598 L199 599 L198 600 L198 602 L197 603 L197 604 L196 605 L196 607 L195 608 L195 610 L192 613 L192 614 L191 615 L191 616 L190 617 L190 618 L189 619 L189 621 L188 622 L188 624 L187 625 L187 626 L186 627 L186 629 L185 630 L185 632 L184 633 L184 635 L183 636 L183 639 L182 640 L182 642 L181 643 L181 646 L180 647 L180 650 L179 651 L179 655 L178 656 L178 663 L177 664 L177 685 L178 686 L178 693 L179 694 L179 697 L180 698 L180 700 L181 701 L181 702 L182 703 L182 704 L184 706 L184 707 L188 711 L188 712 L194 718 L195 718 L202 725 L203 725 L209 731 L210 731 L213 734 L214 734 L217 737 L218 737 L222 741 L223 741 L225 743 L226 743 L229 746 L230 746 L232 748 L233 748 L235 750 L236 750 L238 752 L239 752 L243 756 L244 756 L252 764 L253 764 L257 768 L258 768 L260 770 L261 770 L263 772 L264 772 L267 775 L268 775 L270 777 L271 777 L272 778 L273 778 L275 780 L276 780 L277 781 L279 781 L280 782 L282 782 L283 783 L284 783 L285 784 L286 784 L287 785 L289 785 L290 786 L293 786 L294 785 L297 785 L298 784 L298 782 L297 781 L297 778 L296 777 L296 774 L295 773 L295 771 L294 770 L294 767 L293 766 L293 760 L292 759 L292 754 L291 753 L291 748 L290 747 L290 746 L291 745 L291 719 L292 718 L292 711 L293 710 L293 706 L294 705 L294 699 L295 698 L295 695 L296 694 L296 690 L297 689 L297 687 L298 686 L298 684 L299 683 L299 680 L300 679 L300 678 L301 677 L301 675 L302 674 L302 673 L303 672 L303 670 L304 669 L304 667 L305 666 L305 665 L306 664 L306 662 L307 661 L307 659 L308 658 L308 656 L309 655 L309 653 L310 652 L310 650 L311 649 L311 647 L312 646 L312 645 L313 644 L313 642 L314 641 L314 639 L315 638 L315 636 L316 635 L316 633 L317 632 L317 630 L318 629 L318 626 L319 625 L319 623 L320 622 L320 619 L321 618 L321 616 L322 615 L322 613 L323 612 L323 609 L324 608 L324 605 L325 604 L325 602 L326 601 L326 599 L327 598 L327 595 L328 594 L328 591 L329 590 L329 588 L330 587 L330 584 L331 583 L331 581 L332 580 L332 577 L333 576 L333 573 L334 572 L334 569 L335 568 L335 565 L336 564 L336 562 L337 561 L337 560 L338 559 L338 557 L339 556 L339 554 L340 553 L340 552 L341 551 L341 550 L342 549 L342 548 L343 547 L343 546 L344 545 L344 544 L348 540 L348 539 L349 538 L349 537 L350 536 L350 535 L351 534 L351 533 L358 526 L359 526 L362 523 L362 522 L368 516 L370 516 L371 515 L372 515 L374 513 L377 513 L378 512 L385 512 L389 516 L389 517 L390 518 L390 524 L389 525 L389 539 L388 540 L388 543 L387 544 L387 546 L386 547 L386 548 L385 549 L385 551 L384 552 L384 553 L383 554 L383 556 L382 557 L382 559 L381 560 L381 561 L380 562 L380 564 L379 565 L379 566 L377 568 L377 569 L376 570 L376 571 L375 572 L375 574 L374 575 L374 576 L373 577 L373 578 L372 579 L372 580 L371 581 L371 582 L370 583 L370 584 L369 585 L369 587 L368 588 L368 590 L367 591 L367 593 L366 594 L366 596 L362 600 L362 601 L361 602 L361 603 L360 604 L360 605 L359 606 L359 608 L358 609 L358 610 L357 611 L357 612 L356 613 L356 615 L354 617 L354 618 L353 619 L353 620 L352 621 L352 622 L351 623 L351 626 L350 627 L350 629 L349 630 L349 632 L348 633 L348 635 L347 636 L347 639 L346 640 L346 642 L345 643 L345 645 L344 646 L344 648 L343 649 L343 651 L342 652 L342 654 L341 655 L341 657 L340 658 L340 660 L339 661 L339 663 L338 664 L338 667 L337 668 L337 670 L336 671 L336 673 L335 674 L335 677 L334 678 L334 680 L333 681 L333 684 L332 685 L332 687 L331 688 L331 690 L330 691 L330 693 L329 694 L329 696 L328 697 L328 703 L327 704 L327 714 L326 715 L326 719 L325 720 L325 731 L324 732 L324 760 L325 761 L325 764 L326 765 L326 768 L327 769 L327 773 L328 774 L328 776 L329 777 L329 778 L332 781 L332 782 L333 783 L333 785 L334 786 L334 788 L335 789 L335 790 L336 791 L336 792 L337 793 L337 794 L347 804 L348 804 L349 805 L351 805 L352 806 L353 806 L354 807 L355 807 L356 808 L357 808 L358 809 L360 809 L361 810 L363 810 L364 811 L366 811 L367 812 L369 812 L370 813 L372 813 L373 814 L375 814 L376 815 L378 815 L379 816 L380 816 L381 817 L383 817 L384 818 L386 818 L387 819 L389 819 L390 820 L393 820 L394 821 L396 821 L397 822 L400 822 L401 823 L403 823 L404 824 L406 824 L407 825 L409 825 L410 826 L412 826 L413 827 L414 827 L415 828 L417 828 L418 829 L420 829 L421 830 L423 830 L424 831 L425 831 L426 832 L428 832 L429 833 L432 833 L433 834 L453 834 L455 832 L455 829 L454 828 L454 826 L452 824 L452 823 L450 821 L450 820 L445 815 L444 815 L436 807 L436 806 L435 805 L435 803 L434 802 L434 801 L432 799 L432 798 L431 797 L431 796 L430 795 L430 794 L429 793 L429 791 L428 790 L428 787 L427 786 L427 782 L426 781 L426 778 L425 777 L425 774 L424 773 L424 764 L423 763 L423 760 L422 760 L421 759 L421 758 L422 757 L423 757 L423 744 L424 743 L424 726 L425 725 L425 715 L426 714 L426 700 L427 699 L427 693 L428 692 L428 690 L429 689 L429 688 L430 687 L430 686 L431 685 L431 683 L432 682 L432 679 L433 678 L433 676 L434 675 L434 673 L435 672 L435 670 L436 669 L436 667 L437 666 L437 664 L438 663 L438 661 L439 660 L439 658 L440 657 L440 655 L441 654 L441 653 L442 652 L442 651 L443 650 L443 649 L447 645 L448 645 L450 643 L452 643 L453 642 L456 642 L457 643 L458 643 L459 644 L459 645 L460 646 L460 671 L459 672 L459 676 L458 677 L458 680 L457 681 L457 685 L456 686 L456 690 L455 691 L455 696 L454 697 L454 702 L453 703 L453 707 L452 708 L452 715 L451 716 L451 731 L450 732 L450 760 L451 761 L451 784 L452 785 L452 789 L453 790 L453 793 L454 794 L454 796 L455 797 L455 799 L456 800 L456 802 L457 803 L457 804 L458 805 L458 806 L459 807 L459 808 L460 809 L460 810 L461 811 L461 812 L467 818 L467 819 L468 819 L475 826 L476 826 L479 829 L481 829 L482 830 L483 830 L484 831 L486 831 L487 832 L488 832 L489 833 L500 833 L501 834 L540 834 L541 835 L548 835 L549 836 L552 836 L553 837 L556 837 L557 838 L561 838 L562 839 L565 839 L566 840 L568 840 L569 841 L573 841 L574 842 L576 842 L578 844 L579 844 L589 854 L589 855 L592 858 L593 858 L594 859 L595 859 L596 858 L598 858 L600 856 L601 856 L601 855 L603 853 L603 851 L604 850 L604 848 L605 847 L605 844 L606 843 L606 841 L607 840 L607 838 L608 837 L608 836 L609 835 L609 834 L610 833 L610 832 L611 831 L611 830 L612 829 L612 828 L613 827 L613 826 L614 825 L614 824 L616 822 L616 821 L621 816 L621 815 L627 809 L627 808 L631 804 L631 803 L635 799 L635 798 L640 793 L640 792 L643 789 L643 788 L649 782 L649 781 L665 765 L665 764 L672 757 L672 756 L684 744 L684 743 L687 740 L687 739 L689 737 L689 736 L690 735 L690 732 L691 731 L691 728 L692 727 L692 724 L693 723 L693 718 L692 717 L692 714 L691 713 L691 709 L690 708 L690 705 L689 704 L689 702 L688 701 L688 699 L687 698 L687 696 L686 695 L686 694 L684 692 L684 690 L681 687 L681 686 L679 684 L679 683 L678 682 L678 681 L677 680 L677 679 L676 678 L676 677 L675 676 L675 675 L674 674 L674 673 L673 672 L673 671 L672 670 L672 669 L670 667 L670 666 L669 665 L669 664 L666 661 L666 660 L662 656 L662 655 L638 631 L637 631 L627 621 L626 621 L616 611 L615 611 L604 600 L604 599 L603 598 L602 598 L588 584 L588 583 L586 581 L586 580 L585 579 L585 578 L584 577 L584 575 L583 574 L583 572 L582 571 L582 570 L581 569 L581 568 L580 567 L580 566 L579 565 L579 560 L580 559 L581 559 L583 557 L585 557 L586 556 L594 556 L595 557 L597 557 L598 558 L599 558 L600 559 L601 559 L603 561 L604 561 L605 562 L606 562 L608 564 L609 564 L614 569 L615 569 L622 576 L622 577 L625 580 L625 581 L630 586 L630 587 L637 594 L637 595 L644 602 L644 603 L668 627 L668 628 L671 631 L671 632 L673 634 L673 635 L675 637 L675 638 L677 640 L677 641 L678 642 L678 643 L680 645 L680 646 L682 648 L682 649 L684 651 L684 652 L686 654 L686 655 L688 657 L688 658 L689 659 L689 660 L691 662 L691 663 L692 664 L692 665 L693 666 L693 667 L694 668 L694 670 L695 671 L695 672 L696 673 L696 675 L697 676 L697 680 L698 681 L698 689 L699 690 L699 699 L700 700 L700 703 L701 704 L701 705 L702 706 L702 707 L703 708 L705 708 L707 706 L708 706 L720 694 L720 693 L723 690 L723 689 L725 687 L725 686 L726 685 L726 684 L727 683 L727 681 L728 680 L728 678 L729 677 L729 676 L730 675 L730 674 L732 672 L732 671 L733 670 L733 669 L734 668 L734 666 L735 665 L735 662 L736 661 L736 658 L737 657 L737 654 L738 653 L738 652 L739 651 L739 649 L740 648 L740 646 L741 645 L741 644 L742 643 L742 642 L743 641 L743 639 L744 638 L744 637 L746 635 L746 632 L747 631 L747 630 L748 629 L748 628 L750 626 L750 624 L751 623 L751 621 L753 619 L753 616 L754 615 L754 612 L755 611 L755 605 L754 604 L754 602 L753 601 L753 600 L749 596 L749 595 L747 593 L747 592 L746 591 L746 590 L745 589 L745 588 L744 587 L744 586 L743 585 L743 584 L742 583 L742 582 L741 581 L741 580 L740 579 L740 578 L738 576 L738 575 L737 574 L737 573 L735 571 L735 570 L732 567 L732 566 L730 564 L730 563 L726 559 L726 558 L714 546 L714 545 L698 529 L697 529 L691 523 L690 523 L685 518 L684 518 L681 515 L680 515 L679 514 L679 513 L678 513 L669 504 L668 504 L665 501 L664 501 L662 499 L661 499 L658 496 L657 496 L655 494 L654 494 L652 492 L651 492 L649 490 L648 490 L647 489 L646 489 L645 488 L644 488 L643 487 L642 487 L641 486 L639 486 L638 485 L637 485 L636 484 L634 484 L633 483 L632 483 L631 482 L630 482 L629 481 L628 481 L627 480 L626 480 L625 479 L623 479 L622 478 L621 478 L620 477 L618 477 L616 475 L615 475 L614 474 L613 474 L612 473 L611 473 L609 471 L608 471 L607 470 L606 470 L604 468 L603 468 L602 467 L601 467 L599 465 L598 465 L597 464 L596 464 L595 463 L593 463 L592 462 L590 462 L589 461 L587 461 L586 460 L584 460 L582 458 L581 458 L578 455 L577 455 L576 454 L575 454 L574 453 L572 453 L571 452 L569 452 L568 451 L567 451 L566 450 L565 450 L564 449 L563 449 L561 447 L560 447 L558 445 L557 445 L556 444 L555 444 L545 434 L545 433 L542 430 L542 429 L540 427 L540 425 L539 424 L539 423 L540 422 L540 421 L543 418 L544 418 L545 417 L546 417 L547 416 L548 416 L549 415 L557 415 L558 416 L562 416 L563 417 L566 417 L567 418 L569 418 L570 419 L572 419 L573 420 L575 420 L576 421 L577 421 L578 422 L579 422 L580 423 L581 423 L582 424 L583 424 L584 425 L585 425 L586 426 L587 426 L589 428 L590 428 L591 429 L592 429 L594 431 L595 431 L597 433 L598 433 L599 434 L600 434 L602 436 L603 436 L606 439 L607 439 L611 443 L612 443 L616 447 L617 447 L625 455 L626 455 L633 462 L634 462 L637 465 L638 465 L641 468 L642 468 L643 469 L646 469 L647 470 L648 470 L651 473 L652 473 L655 476 L656 476 L658 478 L659 478 L665 484 L666 484 L669 487 L670 487 L673 490 L674 490 L678 494 L679 494 L681 496 L682 496 L684 498 L685 498 L686 499 L687 499 L689 501 L691 501 L692 502 L693 502 L695 504 L696 504 L698 506 L699 506 L706 513 L707 513 L717 523 L718 523 L724 529 L724 530 L727 533 L727 534 L730 537 L730 538 L733 541 L733 542 L735 544 L735 545 L738 548 L738 549 L740 551 L740 553 L741 554 L741 555 L742 556 L742 557 L743 558 L743 559 L744 560 L744 561 L746 563 L746 564 L751 569 L751 570 L755 574 L756 574 L757 575 L760 575 L763 572 L763 571 L764 570 L764 569 L765 568 L765 566 L766 565 L766 560 L767 559 L767 547 L768 546 L768 541 L769 540 L769 538 L770 537 L770 535 L771 534 L771 532 L772 531 L772 529 L773 528 L773 525 L774 524 L774 521 L775 520 L775 516 L776 515 L776 512 L777 511 L777 508 L778 507 L778 503 L779 502 L779 497 L780 496 L780 492 L781 491 L781 486 L782 485 L782 477 L783 476 L783 462 L782 461 L782 457 L781 456 L781 453 L780 452 L780 450 L779 449 L779 446 L778 445 L778 443 L777 442 L777 439 L776 438 L776 436 L775 435 L775 433 L773 431 L773 430 L772 429 L772 428 L771 427 L771 426 L759 414 L758 414 L744 400 L743 400 L738 395 L737 395 L732 390 L731 390 L727 386 L726 386 L725 385 L724 385 L722 383 L721 383 L719 381 L718 381 L717 380 L716 380 L714 378 L713 378 L712 377 L711 377 L710 376 L709 376 L708 375 L707 375 L706 374 L705 374 L704 373 L703 373 L702 372 L701 372 L700 371 L699 371 L698 370 L697 370 L696 369 L694 369 L693 368 L691 368 L690 367 L688 367 L687 366 L686 366 L685 365 L682 365 L681 364 L680 364 L679 363 L677 363 L676 362 L674 362 L673 361 L671 361 L670 360 L667 360 L666 359 L665 359 L664 358 L662 358 L661 357 L657 357 L656 356 L652 356 L651 355 L648 355 L647 354 L643 354 L642 353 L638 353 L637 352 L634 352 L633 351 L628 351 L627 350 L623 350 L622 349 L619 349 L618 348 L616 348 L614 346 L613 346 L612 345 L608 345 L607 344 L601 344 L600 343 L593 343 L592 342 L588 342 L587 341 L584 341 L583 340 L581 340 L580 339 L578 339 L577 338 L575 338 L574 337 L570 337 L569 336 L567 336 L566 335 L566 334 L567 333 L567 331 L566 331 L565 330 L564 330 L563 329 L561 331 L561 332 L562 333 L561 334 L559 334 L558 333 L557 333 L556 332 L556 331 L555 331 L552 328 L552 327 L551 326 L545 326 L543 328 L541 326 L541 325 L540 324 L540 323 L539 322 L538 322 L537 321 L535 321 L534 320 L533 320 L532 319 L534 317 L535 317 L536 316 L537 316 L539 314 L542 314 L543 313 L549 313 L550 312 L559 312 L560 313 L569 313 L570 314 L576 314 L577 315 L580 315 L581 316 L583 316 L584 317 L586 317 L587 318 L590 318 L591 319 L595 319 L596 320 L599 320 L600 321 L604 321 L605 322 L607 322 L608 323 L610 323 L611 324 L613 324 L614 325 L616 325 L617 326 L618 326 L619 327 L621 327 L622 328 L624 328 L625 329 L626 329 L627 330 L629 330 L630 331 L631 331 L632 332 L634 332 L635 333 L638 333 L639 334 L643 334 L644 335 L647 335 L648 336 L652 336 L653 337 L657 337 L658 338 L662 338 L663 339 L667 339 L668 340 L671 340 L672 341 L674 341 L675 342 L678 342 L679 343 L681 343 L682 344 L684 344 L685 345 L687 345 L688 346 L689 346 L690 347 L691 347 L692 348 L693 348 L696 351 L697 351 L698 352 L700 352 L701 353 L702 353 L703 354 L704 354 L705 355 L706 355 L707 356 L708 356 L709 357 L710 357 L712 359 L713 359 L714 360 L715 360 L718 363 L720 363 L721 364 L722 364 L723 365 L724 365 L726 367 L727 367 L729 369 L730 369 L736 375 L737 375 L740 378 L741 378 L745 382 L746 382 L748 384 L748 385 L749 386 L750 386 L760 396 L761 396 L764 399 L765 399 L768 402 L770 402 L772 404 L773 404 L776 407 L777 407 L779 409 L780 409 L781 410 L782 409 L782 407 L783 406 L783 388 L782 387 L782 384 L781 383 L781 381 L780 380 L780 377 L779 376 L779 374 L778 373 L778 371 L777 370 L777 368 L776 367 L776 363 L775 362 L775 357 L774 356 L774 351 L773 350 L773 345 L772 344 L772 335 L771 334 L771 325 L770 324 L770 319 L769 318 L769 315 L768 314 L768 311 L767 310 L767 308 L766 307 L766 305 L765 304 L765 300 L764 299 L764 296 L763 295 L763 293 L762 292 L762 290 L761 289 L761 286 L760 285 L760 283 L759 282 L759 281 L758 280 L758 278 L756 276 L756 275 L755 274 L755 273 L754 272 L754 271 L753 270 L753 269 L752 268 L752 267 L751 266 L751 264 L749 262 L749 261 L747 259 L747 258 L743 254 L743 253 L741 251 L741 250 L739 248 L739 247 L736 244 L735 244 L734 243 L732 243 L731 242 L730 242 L729 241 L728 241 L727 240 L726 240 L725 239 L724 239 L723 238 L721 238 L720 237 L718 237 L717 236 L715 236 L714 235 L712 235 L711 234 L708 234 L707 233 L705 233 L704 232 L702 232 L701 231 L697 231 L696 230 L693 230 L692 229 L686 229 L685 228 L680 228 L679 227 L673 227 L672 226 L664 226 L663 225 L629 225 L628 226 L616 226 L615 227 L604 227 L603 228 L597 228 L596 229 L590 229 L589 230 L585 230 L584 231 L578 231 L577 232 L572 232 L571 233 L564 233 L563 234 L555 234 L554 235 L550 235 L549 236 L542 236 L541 237 L519 237 L518 236 L517 236 L513 232 L513 231 L514 230 L514 229 L522 221 L523 221 L525 219 L526 219 L528 217 L529 217 L530 216 L531 216 L532 215 L533 215 L534 214 L536 214 L537 213 L538 213 L539 212 L541 212 L542 211 L545 211 L546 210 L550 210 L551 209 L558 209 L559 208 L571 208 L572 207 L578 207 L579 206 L584 206 L585 205 L590 205 L591 204 L595 204 L596 203 L602 203 L603 202 L608 202 L609 201 L643 201 L644 202 L654 202 L655 203 L662 203 L663 204 L667 204 L668 205 L673 205 L674 206 L680 206 L681 207 L684 207 L685 208 L689 208 L690 209 L692 209 L693 210 L694 210 L697 213 L698 213 L700 215 L701 215 L703 217 L704 217 L705 218 L706 218 L707 219 L708 219 L709 220 L710 220 L711 221 L712 221 L713 222 L714 222 L715 223 L716 223 L717 224 L718 224 L719 225 L720 225 L721 226 L724 226 L725 225 L725 218 L724 217 L724 214 L723 213 L723 212 L722 211 L722 209 L721 208 L721 207 L720 206 L720 205 L719 204 L719 203 L718 202 L718 201 L717 200 L717 199 L715 197 L715 196 L714 195 L714 194 L713 193 L713 191 L712 190 L712 189 L711 188 L711 187 L710 186 L710 185 L709 184 L709 183 L708 182 L708 180 L707 179 L707 178 L706 177 L706 175 L705 174 L705 173 L704 172 L704 170 L703 169 L703 168 L702 167 L702 166 L701 165 L701 163 L700 162 L700 161 L699 160 L699 159 L697 157 L697 156 L696 155 L696 153 L695 152 L695 151 L694 150 L694 149 L692 147 L692 146 L690 144 L690 143 L689 142 L689 141 L688 140 L688 139 L687 138 L687 137 L686 136 L686 134 L685 133 L685 132 L683 130 L683 129 L682 128 L682 127 L680 125 L680 124 L678 122 L678 121 L671 114 L670 114 L665 109 L665 108 L663 106 L663 105 L660 102 L659 102 L656 99 L655 99 L653 97 L652 97 L651 96 L650 96 L648 94 L647 94 L646 93 L645 93 L642 90 L641 90 L640 89 L639 89 L638 88 L636 88 L635 87 L633 87 L631 85 L628 85 L627 84 L625 84 L623 82 L613 82 L612 83 L607 83 L606 84 L603 84 L602 85 L600 85 L599 86 L598 86 L597 87 L595 87 L594 88 L592 88 L591 89 L589 89 L588 90 L586 90 L585 91 L583 91 L582 92 L581 92 L580 93 L578 93 L577 94 L576 94 L575 95 L574 95 L573 96 L572 96 L571 97 L569 97 L568 98 L567 98 L566 99 L565 99 L564 100 L563 100 L562 101 L561 101 L560 102 L559 102 L558 103 L557 103 L555 105 L554 105 L552 107 L551 107 L550 108 L549 108 L547 110 L546 110 L544 112 L543 112 L542 113 L541 113 L540 114 L539 114 L538 115 L536 115 L535 116 L534 116 L533 117 L531 117 L529 119 L528 119 L526 121 L525 121 L518 128 L517 128 L516 129 L515 129 L513 131 L512 131 L511 132 L510 132 L508 134 L507 134 L505 136 L504 136 L503 137 L502 137 L500 139 L499 139 L497 141 L496 141 L495 142 L494 142 L492 144 L491 144 L490 145 L489 145 L488 146 L487 146 L486 147 L479 147 L477 145 L476 145 L475 144 L475 143 L474 142 L473 142 L472 141 L472 140 L471 139 L471 134 L473 132 L473 131 L474 130 L474 129 L475 128 L475 127 L476 126 L476 121 L479 118 L480 118 L486 112 L486 109 L493 102 L494 102 L496 100 L497 100 L499 98 L500 98 L502 96 L503 96 L505 94 L506 94 L508 92 L509 92 L510 91 L511 91 L512 90 L513 90 L514 89 L515 89 L517 87 L518 87 L519 86 L520 86 L521 85 L523 85 L524 84 L525 84 L526 83 L528 83 L529 82 L534 82 L535 81 L541 81 L542 80 L543 80 L544 79 L545 79 L546 78 L551 78 L552 77 L567 77 L568 78 L577 78 L578 79 L583 79 L584 80 L591 80 L592 79 L593 79 L595 77 L595 76 L596 75 L595 74 L595 72 L594 71 L594 70 L592 68 L592 67 L590 65 L590 64 L588 62 L588 61 L582 55 L581 55 L579 53 L578 53 L576 51 L575 51 L572 48 L571 48 L567 44 L566 44 L561 39 L560 39 L553 32 L552 32 L550 30 L549 30 L548 29 L547 29 L545 27 L544 27 L542 25 L541 25 L540 24 L539 24 L538 23 L537 23 L536 22 L535 22 L534 21 L532 21 L531 20 L530 20 L529 19 L528 19 L527 18 L525 18 L524 17 L523 17 L522 16 L521 16 L519 14 L517 14 L516 13 L515 13 L514 12 L510 12 L509 11 L502 11 L501 12 L500 12 L499 11 L498 11 L497 12 L495 12 L494 11 Z M751 0 L756 0 L757 1 L763 1 L764 2 L765 2 L766 3 L767 3 L768 4 L768 5 L767 6 L766 6 L765 7 L755 7 L754 6 L748 6 L747 5 L742 5 L741 4 L734 4 L733 3 L723 3 L723 5 L725 5 L726 6 L728 6 L729 7 L732 7 L733 8 L736 8 L737 9 L740 9 L741 10 L743 10 L744 11 L746 11 L747 12 L749 12 L750 13 L753 13 L754 14 L752 16 L748 16 L747 17 L737 17 L736 18 L734 18 L733 19 L732 19 L731 20 L730 20 L728 22 L727 22 L725 24 L724 24 L720 28 L720 29 L719 30 L719 31 L718 32 L718 34 L717 35 L717 37 L716 38 L716 39 L715 40 L715 42 L714 43 L714 45 L713 46 L713 47 L712 48 L712 51 L714 51 L716 49 L717 49 L718 48 L719 48 L720 47 L725 47 L726 46 L728 46 L729 45 L732 45 L733 44 L734 44 L735 43 L737 43 L738 42 L739 42 L743 38 L743 37 L744 36 L744 35 L746 33 L746 32 L747 31 L747 30 L748 29 L748 27 L749 26 L749 25 L757 17 L758 17 L760 15 L761 15 L762 14 L764 14 L765 13 L766 13 L767 12 L771 12 L772 11 L774 11 L775 12 L775 13 L764 24 L764 25 L763 26 L763 27 L762 28 L762 30 L761 31 L761 34 L760 35 L760 48 L759 49 L759 58 L758 59 L758 61 L761 61 L762 60 L764 60 L770 54 L770 53 L773 50 L773 49 L774 48 L774 47 L776 45 L776 44 L778 42 L778 41 L779 40 L779 39 L782 36 L783 37 L783 39 L784 40 L784 41 L785 42 L785 43 L786 44 L782 48 L782 49 L780 51 L780 52 L779 53 L779 54 L778 55 L778 57 L777 58 L777 59 L776 60 L776 61 L775 62 L775 63 L774 64 L774 65 L773 66 L773 67 L771 69 L771 70 L770 71 L770 72 L769 73 L769 74 L768 75 L768 77 L767 78 L767 81 L766 82 L766 91 L765 92 L765 100 L761 104 L760 104 L754 110 L754 111 L753 112 L753 113 L752 114 L752 118 L751 119 L751 123 L752 124 L752 129 L753 130 L753 133 L754 134 L754 135 L755 136 L755 138 L757 140 L757 141 L758 142 L758 144 L760 146 L760 147 L761 148 L761 149 L763 151 L763 152 L764 152 L766 150 L766 149 L767 148 L767 147 L769 145 L769 144 L771 142 L771 141 L773 139 L774 139 L779 134 L780 134 L783 131 L783 130 L784 129 L784 128 L785 127 L785 125 L786 124 L786 115 L785 114 L785 112 L784 111 L784 110 L783 109 L783 108 L780 105 L780 104 L779 103 L779 101 L778 100 L778 98 L779 97 L779 85 L780 84 L780 69 L781 68 L781 66 L782 65 L782 62 L783 61 L783 59 L784 58 L784 56 L785 55 L785 54 L786 53 L786 52 L787 51 L789 53 L790 53 L791 54 L792 54 L793 53 L794 53 L794 0 L780 0 L779 1 L778 1 L776 3 L775 2 L774 2 L772 0 Z " fill="black"/></svg>