<svg width="471" height="495" xmlns="http://www.w3.org/2000/svg"><path d="M410 186 L411 186 Z M315 11 L314 12 L313 12 L308 17 L308 18 L307 19 L306 19 L301 24 L299 22 L300 21 L300 19 L301 18 L301 14 L298 14 L295 17 L294 17 L289 22 L289 23 L287 25 L287 26 L286 27 L286 29 L285 30 L285 32 L283 34 L281 32 L281 27 L280 26 L280 25 L278 23 L277 23 L276 24 L275 24 L274 25 L274 26 L272 28 L272 30 L271 31 L271 32 L270 33 L270 34 L269 35 L269 36 L267 38 L266 38 L265 37 L265 36 L263 34 L260 34 L259 35 L259 36 L258 37 L258 39 L257 40 L257 43 L256 44 L256 45 L257 46 L257 50 L256 51 L254 49 L254 48 L253 47 L253 46 L251 44 L248 44 L248 45 L247 46 L247 49 L254 56 L254 57 L253 58 L252 58 L249 55 L248 55 L247 54 L245 54 L244 55 L243 55 L242 56 L242 63 L243 64 L243 67 L242 68 L241 68 L240 67 L239 67 L238 66 L232 66 L230 68 L230 75 L232 75 L232 74 L233 73 L234 73 L235 74 L235 75 L232 78 L231 78 L230 79 L230 85 L229 86 L227 86 L226 85 L222 85 L221 86 L221 88 L226 93 L227 93 L236 102 L236 103 L237 104 L237 107 L238 108 L236 110 L234 108 L234 107 L232 105 L232 104 L227 99 L226 99 L225 98 L224 98 L223 97 L222 98 L222 100 L221 101 L219 101 L218 100 L218 99 L216 97 L215 98 L214 98 L212 96 L214 94 L214 93 L215 92 L215 91 L216 90 L216 87 L215 86 L211 86 L210 87 L209 87 L208 88 L207 88 L205 86 L205 76 L204 76 L202 74 L202 71 L201 70 L201 69 L199 67 L198 68 L197 68 L197 69 L195 71 L193 71 L192 72 L190 72 L188 70 L188 67 L189 66 L189 65 L188 64 L188 62 L187 61 L187 59 L185 57 L185 56 L184 55 L179 55 L178 54 L178 52 L177 51 L177 50 L176 49 L176 48 L175 47 L175 46 L174 46 L173 45 L171 45 L167 49 L167 50 L164 53 L163 52 L163 51 L162 50 L162 49 L161 48 L161 47 L160 46 L160 44 L157 41 L155 41 L155 42 L154 43 L154 45 L153 46 L153 48 L152 49 L152 51 L151 52 L149 50 L149 49 L148 48 L148 46 L147 45 L147 43 L146 42 L146 41 L144 39 L144 38 L143 37 L142 37 L135 30 L131 30 L130 31 L129 31 L129 32 L128 33 L128 35 L127 36 L125 34 L125 33 L124 32 L124 31 L121 28 L118 28 L118 29 L117 30 L117 34 L116 35 L112 31 L112 30 L108 26 L108 25 L107 24 L101 24 L99 26 L96 26 L95 27 L94 27 L93 28 L93 29 L94 30 L94 31 L93 32 L90 29 L91 28 L91 25 L90 24 L90 23 L87 23 L82 28 L80 28 L79 27 L79 26 L78 26 L77 25 L73 25 L72 26 L71 26 L71 27 L70 28 L70 31 L73 34 L74 34 L75 35 L77 35 L78 36 L80 36 L81 37 L82 37 L83 38 L85 38 L86 39 L87 39 L88 40 L89 40 L90 41 L91 41 L92 42 L94 42 L95 43 L97 43 L98 44 L98 45 L95 48 L95 49 L94 50 L94 51 L96 53 L101 53 L102 52 L109 52 L110 51 L113 51 L114 52 L114 53 L112 55 L112 59 L116 63 L122 63 L123 62 L127 62 L128 63 L127 64 L126 64 L125 65 L123 65 L122 66 L120 66 L116 70 L116 73 L118 75 L135 75 L136 76 L135 77 L133 77 L132 78 L130 78 L129 79 L128 79 L125 82 L125 84 L124 85 L124 89 L125 90 L128 90 L129 89 L130 89 L131 88 L134 88 L135 87 L136 88 L136 90 L135 91 L135 92 L130 97 L130 98 L131 99 L131 105 L132 106 L132 108 L131 109 L131 110 L129 112 L128 111 L126 111 L121 106 L121 103 L120 102 L115 102 L113 104 L111 104 L111 105 L110 106 L110 107 L109 108 L109 109 L107 111 L106 110 L106 107 L105 106 L105 105 L103 103 L103 102 L100 99 L98 99 L97 98 L96 98 L95 97 L93 97 L91 99 L91 100 L90 101 L90 103 L89 104 L88 103 L88 102 L86 100 L86 99 L84 97 L82 97 L81 96 L80 97 L79 97 L78 98 L78 99 L77 100 L77 105 L76 106 L75 105 L75 104 L74 103 L74 102 L73 101 L73 100 L72 99 L72 98 L71 97 L70 97 L68 95 L66 95 L63 98 L63 99 L61 101 L59 101 L58 100 L56 100 L55 99 L54 99 L53 98 L52 98 L51 97 L49 97 L48 96 L44 96 L43 97 L41 97 L40 98 L39 98 L35 102 L35 104 L38 107 L39 107 L40 108 L42 108 L43 109 L45 109 L46 110 L47 110 L48 111 L48 113 L49 114 L51 114 L54 117 L57 117 L58 118 L61 118 L62 119 L63 118 L68 118 L69 117 L71 117 L72 118 L67 123 L67 124 L68 125 L73 125 L73 124 L74 123 L74 122 L75 121 L75 120 L77 118 L79 118 L80 119 L82 119 L83 120 L83 122 L82 123 L82 124 L80 126 L80 127 L79 128 L78 128 L77 129 L77 130 L78 131 L79 131 L80 130 L86 130 L88 128 L89 128 L91 130 L91 131 L93 133 L96 133 L96 132 L97 131 L97 126 L98 125 L99 125 L100 124 L101 124 L102 125 L102 126 L101 127 L101 130 L100 131 L100 132 L99 133 L99 134 L96 137 L95 137 L95 139 L96 140 L98 140 L100 138 L101 138 L102 137 L103 137 L104 136 L106 138 L106 141 L107 142 L107 143 L110 143 L111 142 L112 142 L116 138 L117 138 L118 137 L120 137 L121 138 L121 139 L119 141 L119 143 L118 144 L118 146 L117 147 L117 148 L116 149 L116 151 L114 153 L110 149 L109 149 L108 148 L107 148 L106 149 L105 149 L104 150 L104 151 L103 152 L103 157 L104 158 L104 159 L103 160 L95 152 L94 152 L93 151 L92 151 L91 150 L88 150 L87 151 L87 153 L88 154 L88 161 L87 162 L85 162 L84 161 L82 161 L81 160 L80 160 L79 159 L77 159 L76 158 L75 158 L74 159 L73 159 L72 160 L69 160 L68 161 L69 162 L72 162 L73 161 L74 161 L75 162 L75 164 L76 165 L76 166 L75 167 L73 167 L72 166 L71 166 L70 165 L68 165 L67 164 L65 164 L63 166 L60 166 L59 167 L59 168 L60 169 L60 170 L61 171 L60 172 L50 172 L49 173 L48 173 L47 174 L47 177 L43 181 L42 181 L40 183 L39 183 L38 184 L37 184 L36 185 L35 185 L34 186 L33 186 L32 187 L31 187 L30 188 L29 188 L26 191 L25 191 L25 192 L23 194 L23 201 L21 203 L21 204 L18 207 L18 208 L11 215 L11 217 L12 218 L12 219 L13 219 L14 220 L18 220 L19 219 L20 219 L21 218 L22 218 L27 213 L28 213 L29 212 L30 212 L31 211 L39 211 L40 210 L41 210 L44 207 L44 203 L43 202 L43 201 L45 199 L45 198 L46 197 L47 197 L48 198 L48 199 L49 200 L49 202 L50 203 L50 206 L55 206 L57 204 L57 203 L58 202 L58 200 L59 199 L59 198 L61 196 L62 197 L62 204 L63 205 L63 206 L66 206 L67 207 L69 207 L70 206 L71 206 L72 205 L73 205 L73 204 L74 203 L74 202 L75 201 L75 200 L76 199 L76 198 L77 197 L77 196 L78 195 L79 195 L80 196 L80 200 L81 201 L81 205 L83 205 L86 202 L86 200 L87 199 L87 196 L88 195 L88 194 L89 193 L89 192 L90 191 L92 193 L92 194 L95 194 L96 193 L97 193 L98 194 L98 196 L97 197 L97 199 L96 200 L96 202 L95 203 L95 206 L97 206 L98 205 L98 204 L99 203 L99 202 L100 201 L100 200 L101 199 L101 198 L103 196 L104 196 L105 197 L105 198 L104 199 L104 202 L106 204 L109 204 L111 202 L111 201 L112 200 L113 200 L114 201 L114 202 L113 203 L113 204 L111 206 L108 206 L107 207 L102 207 L101 208 L102 209 L103 209 L106 212 L107 212 L108 213 L108 214 L107 215 L104 215 L103 216 L97 216 L96 217 L94 217 L93 218 L91 218 L90 219 L90 221 L96 227 L95 228 L82 228 L80 230 L80 232 L82 234 L82 235 L83 235 L85 237 L85 238 L84 239 L83 239 L82 238 L73 238 L72 239 L70 239 L69 240 L68 240 L67 241 L67 242 L68 243 L69 243 L70 244 L72 244 L73 245 L74 245 L75 246 L75 247 L74 248 L72 248 L71 249 L70 249 L69 250 L63 250 L62 251 L60 251 L59 252 L58 252 L56 254 L56 255 L57 256 L57 257 L58 257 L62 261 L62 262 L61 263 L60 263 L58 265 L57 265 L55 267 L54 267 L52 269 L51 269 L50 270 L50 271 L49 272 L50 273 L57 273 L59 275 L59 276 L58 277 L57 277 L55 279 L54 279 L51 282 L50 282 L49 283 L48 283 L47 284 L47 286 L48 287 L50 287 L51 288 L53 288 L55 290 L48 297 L47 297 L45 299 L45 301 L46 302 L47 302 L48 303 L50 303 L51 304 L52 304 L53 305 L53 307 L51 309 L51 310 L49 312 L48 312 L45 315 L45 317 L46 318 L47 318 L50 321 L50 323 L48 325 L48 329 L49 329 L50 330 L51 330 L52 331 L52 332 L44 340 L44 341 L43 342 L43 343 L42 344 L42 351 L43 352 L43 353 L44 354 L48 354 L49 353 L51 353 L58 346 L58 345 L62 341 L62 340 L64 338 L64 337 L66 335 L67 336 L68 336 L70 338 L71 337 L72 337 L72 336 L73 335 L73 333 L74 332 L74 328 L75 327 L76 327 L77 326 L80 326 L81 325 L81 321 L80 320 L80 318 L75 313 L75 312 L72 309 L72 308 L71 307 L71 306 L72 305 L75 308 L76 308 L83 315 L85 315 L86 314 L86 308 L85 307 L85 306 L82 303 L82 301 L83 300 L84 300 L85 301 L86 301 L87 302 L90 302 L91 301 L91 300 L92 299 L92 298 L93 297 L94 297 L95 298 L96 298 L98 296 L98 295 L97 294 L97 293 L95 291 L95 290 L94 289 L94 288 L95 287 L96 287 L99 290 L102 290 L104 288 L104 286 L103 285 L103 281 L102 280 L102 279 L101 278 L101 277 L98 274 L98 273 L97 272 L97 271 L98 270 L100 272 L101 272 L103 274 L104 274 L105 275 L106 275 L107 276 L109 276 L110 275 L111 275 L112 274 L116 274 L117 273 L118 273 L120 271 L120 270 L121 269 L120 268 L120 266 L119 265 L119 264 L121 262 L123 264 L123 266 L126 269 L126 270 L127 271 L127 272 L128 273 L128 281 L127 282 L127 299 L126 300 L126 325 L125 326 L125 329 L126 330 L126 340 L125 341 L125 359 L126 360 L126 379 L127 380 L127 392 L128 393 L128 401 L129 402 L129 415 L130 416 L130 420 L131 421 L131 426 L132 427 L132 431 L133 432 L133 434 L134 435 L134 436 L135 437 L135 439 L136 440 L136 442 L138 444 L138 445 L139 446 L139 447 L140 448 L140 449 L142 451 L142 452 L144 454 L144 455 L147 458 L147 459 L149 461 L150 461 L152 463 L153 463 L155 465 L156 465 L158 467 L159 467 L161 469 L162 469 L163 470 L164 470 L165 471 L167 471 L168 472 L170 472 L171 473 L172 473 L173 474 L175 474 L176 475 L177 475 L178 476 L179 476 L180 477 L181 477 L182 478 L185 478 L186 479 L193 479 L194 480 L200 480 L201 481 L216 481 L217 482 L223 482 L224 483 L267 483 L268 482 L274 482 L275 481 L282 481 L283 480 L287 480 L288 479 L294 479 L295 478 L301 478 L302 477 L304 477 L305 476 L306 476 L307 475 L308 475 L309 474 L310 474 L311 473 L312 473 L313 472 L314 472 L315 471 L316 471 L317 470 L318 470 L319 469 L320 469 L322 467 L323 467 L333 457 L333 456 L334 455 L334 454 L335 453 L335 452 L336 451 L336 450 L337 449 L337 448 L339 446 L339 445 L340 444 L340 442 L341 441 L341 440 L342 439 L342 437 L343 436 L343 431 L344 430 L344 426 L345 425 L345 422 L346 421 L346 416 L347 415 L347 401 L348 400 L348 390 L349 389 L349 315 L348 314 L348 302 L349 301 L349 299 L352 296 L353 297 L353 300 L352 301 L352 309 L353 310 L353 312 L354 313 L354 314 L356 316 L358 316 L359 315 L359 314 L360 313 L361 314 L361 316 L359 318 L358 318 L357 319 L357 320 L355 322 L355 328 L356 329 L356 330 L358 330 L364 324 L365 325 L365 327 L364 328 L364 329 L363 330 L363 331 L362 332 L362 335 L361 336 L362 337 L362 339 L365 342 L368 342 L371 339 L371 338 L372 337 L372 336 L374 334 L375 334 L376 335 L376 338 L374 340 L374 341 L373 342 L372 342 L369 345 L368 345 L367 346 L367 347 L366 348 L366 349 L365 350 L365 351 L366 352 L366 353 L368 355 L372 355 L373 354 L374 354 L375 355 L375 356 L376 357 L376 360 L377 361 L377 365 L378 366 L378 369 L379 370 L379 371 L384 376 L388 376 L389 375 L389 374 L390 373 L390 368 L391 367 L391 352 L390 351 L390 349 L389 348 L389 347 L390 346 L393 346 L395 344 L395 343 L396 342 L396 338 L395 337 L395 336 L393 334 L393 333 L392 332 L391 332 L389 330 L389 329 L390 328 L393 328 L394 327 L395 327 L396 326 L396 323 L395 322 L395 321 L392 318 L391 318 L390 317 L389 317 L388 316 L387 316 L386 315 L386 314 L387 313 L390 313 L391 312 L392 312 L393 311 L393 309 L394 308 L394 307 L393 306 L393 305 L392 304 L392 303 L391 302 L391 301 L389 299 L389 298 L385 294 L387 292 L388 292 L389 291 L391 291 L392 290 L392 286 L389 283 L387 283 L386 282 L384 282 L383 281 L381 281 L380 280 L378 280 L377 279 L378 278 L379 278 L380 277 L385 277 L386 276 L387 276 L388 275 L389 275 L391 273 L391 272 L392 271 L392 268 L388 264 L387 264 L386 263 L385 263 L384 262 L383 262 L382 261 L380 261 L379 260 L380 259 L383 259 L384 258 L384 256 L383 255 L383 254 L382 253 L382 252 L376 246 L375 246 L373 244 L372 244 L370 242 L371 241 L371 239 L372 238 L372 237 L371 236 L371 228 L372 227 L373 227 L375 229 L375 231 L376 232 L376 234 L378 236 L378 237 L380 239 L380 240 L381 241 L383 241 L385 239 L385 236 L384 235 L384 234 L380 230 L380 229 L379 228 L379 226 L378 225 L378 223 L380 221 L383 224 L383 225 L388 230 L388 231 L392 235 L392 236 L394 238 L395 238 L396 239 L399 239 L399 238 L400 237 L400 233 L401 232 L401 230 L400 229 L400 228 L401 227 L401 226 L402 225 L402 223 L403 222 L404 223 L404 225 L405 226 L405 228 L406 229 L406 234 L407 235 L407 238 L409 240 L412 240 L414 238 L414 237 L415 236 L415 235 L416 234 L416 229 L417 228 L419 230 L419 231 L420 232 L420 233 L421 234 L421 236 L422 237 L422 238 L425 241 L428 241 L430 239 L430 235 L429 234 L429 231 L430 230 L431 231 L431 232 L432 233 L432 236 L433 237 L433 240 L434 241 L434 242 L435 243 L435 244 L437 246 L439 246 L440 245 L442 245 L443 246 L447 246 L448 247 L452 247 L453 246 L455 246 L459 242 L459 238 L458 237 L458 236 L457 235 L456 235 L455 234 L454 234 L453 233 L451 233 L450 232 L449 232 L448 231 L449 230 L449 229 L448 228 L448 224 L445 221 L444 221 L443 220 L442 220 L441 219 L440 219 L439 218 L431 218 L430 217 L430 216 L431 215 L432 215 L434 213 L436 213 L437 212 L437 210 L436 209 L435 209 L434 208 L433 208 L432 207 L430 207 L429 206 L427 206 L426 205 L424 205 L423 204 L423 203 L424 202 L424 200 L422 198 L421 198 L420 197 L417 197 L414 194 L413 194 L412 193 L411 193 L410 194 L407 194 L406 193 L405 193 L405 194 L404 195 L403 195 L402 194 L402 192 L401 191 L401 189 L400 188 L400 187 L401 186 L403 186 L404 185 L408 185 L407 185 L406 184 L399 184 L397 182 L397 172 L396 171 L396 169 L395 168 L395 166 L396 165 L397 165 L401 169 L402 169 L403 170 L404 170 L405 171 L409 171 L410 170 L410 169 L409 168 L409 165 L408 164 L408 161 L407 160 L407 159 L408 158 L409 159 L410 159 L420 169 L421 169 L422 170 L424 170 L425 169 L426 169 L427 168 L427 167 L428 166 L428 165 L427 164 L427 162 L426 161 L426 160 L424 158 L425 157 L426 157 L427 158 L428 158 L429 157 L436 157 L438 159 L440 159 L441 160 L449 160 L450 159 L451 159 L452 158 L454 158 L455 157 L455 156 L453 154 L452 154 L450 152 L449 152 L448 151 L447 151 L445 149 L445 148 L444 147 L444 145 L440 141 L438 141 L437 140 L432 140 L431 139 L425 139 L424 140 L423 140 L422 141 L420 141 L419 140 L419 137 L416 134 L412 134 L411 135 L409 135 L408 136 L407 136 L404 139 L403 139 L402 140 L401 140 L400 139 L400 135 L399 134 L399 133 L397 131 L393 131 L392 132 L391 132 L390 133 L389 133 L388 134 L387 134 L385 136 L383 136 L382 135 L382 134 L380 132 L375 132 L367 140 L366 139 L366 138 L369 135 L369 134 L370 133 L370 130 L368 130 L367 131 L362 131 L361 132 L360 132 L358 134 L357 134 L353 138 L352 138 L351 137 L352 136 L352 135 L353 134 L353 130 L352 129 L352 128 L353 127 L352 126 L337 126 L336 125 L335 125 L334 124 L334 122 L335 121 L352 121 L353 120 L353 118 L351 116 L350 116 L348 114 L346 114 L345 113 L344 113 L343 112 L344 111 L349 111 L350 112 L358 112 L360 110 L360 107 L359 106 L359 105 L353 99 L354 98 L355 98 L356 99 L358 99 L359 100 L361 100 L362 101 L364 101 L365 102 L368 102 L369 101 L370 101 L372 99 L372 98 L364 90 L365 89 L367 89 L368 90 L369 90 L370 91 L372 91 L373 92 L378 92 L379 91 L379 90 L378 89 L378 88 L377 87 L377 86 L376 85 L375 85 L373 83 L374 82 L376 82 L377 81 L380 81 L381 82 L385 82 L386 81 L388 81 L389 80 L390 80 L391 79 L391 77 L390 76 L390 75 L391 74 L396 74 L397 73 L398 73 L399 72 L400 72 L401 71 L401 69 L400 68 L401 67 L402 67 L403 66 L405 66 L406 65 L407 65 L408 64 L408 63 L409 62 L410 62 L411 61 L412 61 L413 60 L414 60 L415 59 L417 59 L418 58 L421 58 L423 56 L422 55 L422 54 L419 51 L418 51 L417 50 L415 50 L414 49 L413 49 L412 48 L409 48 L408 47 L407 47 L405 45 L393 45 L392 46 L389 46 L387 48 L386 48 L385 49 L384 49 L383 48 L383 47 L382 46 L382 45 L378 45 L373 50 L373 51 L368 56 L367 55 L362 55 L361 56 L360 56 L355 61 L355 62 L354 63 L354 64 L352 66 L351 66 L350 65 L350 64 L349 63 L349 62 L348 62 L347 61 L344 61 L343 62 L342 62 L340 64 L340 65 L339 66 L339 71 L338 72 L338 74 L337 75 L335 73 L335 72 L334 71 L334 70 L331 67 L330 67 L328 69 L328 71 L327 72 L327 77 L326 78 L326 83 L327 84 L327 86 L328 87 L328 88 L329 89 L329 90 L328 91 L326 89 L326 88 L325 87 L325 86 L323 84 L323 82 L319 78 L316 78 L315 79 L314 79 L313 80 L312 80 L311 81 L310 81 L306 85 L306 86 L304 88 L304 90 L303 91 L303 94 L302 95 L302 104 L301 105 L300 104 L300 103 L298 101 L298 100 L295 97 L292 97 L289 100 L289 101 L288 102 L288 107 L287 108 L286 108 L282 104 L281 104 L280 103 L279 103 L277 101 L277 100 L278 99 L280 99 L281 98 L282 99 L283 99 L284 98 L285 98 L286 97 L286 96 L284 94 L284 93 L283 93 L281 91 L280 91 L279 90 L278 90 L277 89 L278 88 L280 88 L281 87 L286 87 L287 86 L288 86 L289 85 L289 83 L287 81 L287 79 L283 75 L284 74 L286 74 L287 73 L290 73 L291 72 L293 72 L294 71 L295 71 L295 70 L296 69 L296 68 L291 63 L291 62 L292 61 L294 61 L295 60 L298 60 L299 59 L301 59 L303 57 L302 56 L302 55 L301 54 L301 53 L300 52 L298 52 L296 50 L295 50 L293 48 L294 47 L298 47 L299 48 L300 48 L301 49 L302 49 L303 50 L304 50 L305 49 L307 49 L308 48 L308 46 L307 45 L308 44 L310 44 L310 41 L309 40 L307 40 L306 39 L304 39 L303 38 L304 37 L307 37 L308 36 L309 36 L311 34 L312 34 L313 33 L313 30 L312 29 L312 28 L315 25 L316 25 L321 20 L321 14 L318 11 Z " fill="black"/></svg>