<svg width="285" height="554" xmlns="http://www.w3.org/2000/svg"><path d="M107 11 L106 12 L100 12 L99 13 L94 13 L93 14 L90 14 L89 15 L88 15 L87 16 L86 16 L82 20 L82 21 L81 22 L81 25 L80 26 L80 30 L79 31 L79 41 L78 42 L78 68 L77 69 L77 75 L75 77 L74 77 L73 78 L72 78 L71 79 L70 79 L68 81 L68 82 L67 83 L67 85 L66 86 L66 90 L65 91 L65 110 L66 111 L66 114 L59 121 L58 121 L42 137 L42 138 L37 143 L37 144 L34 147 L34 148 L32 150 L32 151 L30 153 L30 154 L28 156 L28 157 L27 158 L27 159 L26 160 L26 161 L25 162 L25 164 L24 165 L24 167 L23 168 L23 171 L22 172 L22 180 L21 181 L21 190 L20 191 L20 206 L19 207 L19 218 L18 219 L18 228 L17 229 L17 239 L16 240 L16 252 L15 253 L15 267 L14 268 L14 282 L13 283 L13 296 L12 297 L12 324 L11 325 L11 376 L12 377 L12 410 L13 411 L13 423 L14 424 L14 440 L15 441 L15 451 L16 452 L16 461 L17 462 L17 471 L18 472 L18 487 L19 488 L19 496 L20 497 L20 503 L21 504 L21 507 L22 508 L22 511 L23 512 L23 513 L24 514 L24 515 L25 516 L25 517 L26 518 L26 519 L28 521 L28 522 L34 528 L35 528 L37 530 L38 530 L40 532 L41 532 L42 533 L43 533 L44 534 L46 534 L47 535 L49 535 L50 536 L53 536 L54 537 L59 537 L60 538 L64 538 L65 539 L71 539 L72 540 L83 540 L84 541 L113 541 L114 542 L183 542 L184 541 L204 541 L205 540 L222 540 L223 539 L231 539 L232 538 L236 538 L237 537 L239 537 L240 536 L242 536 L243 535 L245 535 L246 534 L247 534 L248 533 L249 533 L250 532 L251 532 L253 530 L254 530 L258 526 L258 525 L259 524 L259 523 L261 521 L261 519 L262 518 L262 517 L263 516 L263 514 L264 513 L264 511 L265 510 L265 507 L266 506 L266 499 L267 498 L267 490 L268 489 L268 481 L269 480 L269 470 L270 469 L270 459 L271 458 L271 443 L272 442 L272 420 L273 419 L273 324 L272 323 L272 302 L271 301 L271 287 L270 286 L270 268 L269 267 L269 251 L268 250 L268 238 L267 237 L267 229 L266 228 L266 219 L265 218 L265 210 L264 209 L264 199 L263 198 L263 191 L262 190 L262 186 L261 185 L261 183 L260 182 L260 180 L259 179 L259 178 L258 177 L258 176 L257 175 L257 174 L255 172 L255 171 L251 167 L251 166 L240 155 L239 155 L233 149 L232 149 L228 145 L227 145 L224 142 L223 142 L220 139 L219 139 L217 137 L216 137 L213 134 L212 134 L210 132 L209 132 L207 130 L206 130 L204 128 L203 128 L201 126 L200 126 L198 124 L197 124 L195 122 L194 122 L191 119 L190 119 L186 115 L186 114 L185 113 L185 99 L184 98 L184 88 L183 87 L183 83 L178 78 L177 78 L176 77 L175 77 L173 75 L173 65 L172 64 L172 53 L171 52 L171 37 L170 36 L170 28 L169 27 L169 23 L168 22 L168 20 L164 16 L162 16 L161 15 L160 15 L159 14 L156 14 L155 13 L151 13 L150 12 L144 12 L143 11 Z " fill="black"/></svg>