<svg width="804" height="1190" xmlns="http://www.w3.org/2000/svg"><path d="M442 11 L441 12 L438 12 L437 13 L435 13 L434 14 L433 14 L432 15 L431 15 L428 18 L427 18 L419 26 L419 27 L415 31 L415 32 L414 33 L414 34 L412 36 L412 37 L411 38 L411 39 L410 40 L410 41 L409 42 L409 45 L408 46 L408 52 L407 53 L391 53 L390 54 L388 54 L387 55 L386 55 L385 56 L384 56 L383 57 L382 57 L381 58 L379 58 L378 59 L377 59 L376 60 L375 60 L373 62 L372 62 L369 65 L368 65 L366 67 L365 67 L362 70 L361 70 L360 71 L359 71 L354 76 L353 76 L345 84 L345 85 L344 86 L343 86 L338 91 L338 92 L332 98 L332 99 L331 100 L331 101 L330 102 L330 106 L329 107 L329 110 L328 111 L328 114 L327 115 L327 121 L326 122 L326 124 L327 125 L327 132 L328 133 L328 141 L327 142 L326 141 L321 141 L320 140 L313 140 L312 139 L310 139 L308 137 L308 134 L307 133 L307 131 L305 129 L305 127 L303 125 L303 124 L302 123 L302 122 L301 121 L301 120 L299 118 L299 117 L292 110 L291 110 L289 108 L289 107 L285 103 L284 103 L283 102 L279 102 L278 101 L276 101 L275 100 L269 100 L268 101 L265 101 L263 103 L262 103 L261 104 L260 104 L258 106 L257 106 L248 115 L248 116 L246 118 L246 119 L245 120 L245 121 L243 123 L243 124 L242 125 L242 126 L241 127 L241 128 L240 129 L240 130 L239 131 L239 134 L238 135 L238 137 L237 138 L237 139 L236 140 L231 140 L230 139 L228 139 L227 140 L220 140 L219 141 L213 141 L212 142 L211 142 L210 143 L207 143 L206 144 L204 144 L203 145 L202 145 L201 146 L200 146 L198 148 L197 148 L195 150 L195 151 L194 152 L193 152 L190 155 L189 155 L187 157 L186 157 L183 160 L182 160 L180 162 L179 162 L166 175 L166 176 L157 185 L157 187 L156 188 L156 189 L155 190 L155 191 L154 192 L154 193 L153 194 L153 195 L152 196 L152 200 L151 201 L151 210 L152 211 L152 223 L153 224 L153 229 L154 230 L154 232 L155 233 L155 236 L156 237 L157 237 L160 240 L160 241 L161 242 L161 243 L162 244 L162 245 L164 247 L164 249 L165 250 L165 251 L176 262 L176 263 L177 264 L178 264 L181 267 L182 267 L183 268 L184 268 L186 270 L186 271 L184 273 L184 276 L183 277 L183 286 L182 287 L182 299 L183 300 L183 302 L184 303 L184 304 L185 305 L187 305 L189 307 L190 307 L191 308 L193 308 L194 309 L197 309 L198 310 L203 310 L204 311 L207 311 L208 310 L214 310 L215 309 L219 309 L220 308 L222 308 L223 307 L225 307 L227 305 L228 305 L229 304 L231 304 L233 302 L234 302 L235 301 L236 301 L237 300 L238 300 L240 298 L241 298 L243 296 L244 296 L247 293 L248 293 L250 291 L252 291 L253 292 L254 292 L256 294 L257 294 L258 295 L259 295 L260 296 L261 296 L262 297 L267 297 L268 296 L269 296 L271 294 L272 294 L274 292 L279 292 L280 291 L281 291 L281 290 L286 285 L289 285 L292 288 L293 288 L300 295 L301 295 L306 300 L306 310 L305 311 L305 317 L304 318 L304 327 L303 328 L303 332 L302 333 L302 336 L300 338 L299 338 L297 340 L297 341 L296 342 L296 343 L295 344 L295 346 L290 351 L290 356 L289 357 L289 360 L288 361 L288 362 L289 363 L289 364 L292 367 L292 371 L291 372 L291 376 L290 377 L290 380 L289 381 L289 386 L288 387 L288 391 L287 392 L287 396 L286 397 L286 399 L285 400 L285 404 L284 405 L284 408 L283 409 L282 409 L280 411 L280 417 L281 418 L281 425 L280 426 L280 433 L279 434 L279 441 L278 442 L278 453 L277 454 L277 467 L276 468 L276 501 L275 502 L275 522 L276 523 L276 539 L277 540 L277 551 L278 552 L278 560 L279 561 L279 566 L280 567 L280 573 L281 574 L281 579 L282 580 L282 586 L283 587 L283 593 L284 594 L284 599 L285 600 L285 606 L286 607 L286 611 L287 612 L287 616 L288 617 L288 622 L289 623 L289 626 L290 627 L290 632 L291 633 L291 635 L292 636 L292 643 L293 644 L293 649 L294 650 L294 656 L295 657 L295 663 L296 664 L296 668 L297 669 L297 673 L298 674 L298 678 L299 679 L299 683 L300 684 L300 687 L301 688 L301 694 L302 695 L302 701 L303 702 L303 706 L304 707 L304 714 L305 715 L305 730 L304 731 L300 727 L300 726 L298 724 L298 723 L295 720 L295 719 L292 716 L292 715 L289 712 L289 711 L286 708 L286 707 L282 703 L282 702 L276 696 L276 695 L264 683 L264 682 L259 677 L258 677 L250 669 L249 669 L245 665 L244 665 L241 662 L240 662 L236 658 L235 658 L230 653 L229 653 L227 651 L226 651 L224 649 L223 649 L221 647 L220 647 L218 645 L217 645 L215 643 L214 643 L213 642 L212 642 L211 641 L210 641 L208 639 L207 639 L206 638 L205 638 L204 637 L203 637 L202 636 L201 636 L200 635 L198 635 L197 634 L196 634 L195 633 L194 633 L193 632 L191 632 L190 631 L189 631 L188 630 L187 630 L186 629 L184 629 L183 628 L182 628 L181 627 L180 627 L179 626 L177 626 L176 625 L175 625 L174 624 L172 624 L171 623 L169 623 L168 622 L165 622 L164 621 L162 621 L161 620 L158 620 L157 619 L154 619 L153 618 L151 618 L150 617 L147 617 L146 616 L142 616 L141 615 L135 615 L134 614 L127 614 L126 613 L89 613 L88 614 L84 614 L83 615 L80 615 L79 616 L77 616 L76 617 L74 617 L73 618 L71 618 L70 619 L69 619 L68 620 L67 620 L66 621 L65 621 L64 622 L63 622 L62 623 L60 623 L58 625 L57 625 L56 626 L55 626 L52 629 L51 629 L42 638 L41 638 L37 642 L36 642 L34 644 L34 645 L33 646 L33 649 L34 650 L34 651 L35 652 L35 654 L36 655 L36 657 L37 658 L37 659 L38 660 L38 661 L39 662 L39 663 L40 664 L40 666 L41 667 L41 668 L42 669 L42 670 L44 672 L44 673 L46 675 L46 676 L49 679 L49 680 L58 689 L59 689 L66 696 L67 696 L70 699 L71 699 L74 702 L75 702 L77 704 L78 704 L81 707 L82 707 L85 710 L86 710 L89 713 L90 713 L91 714 L92 714 L94 716 L95 716 L96 717 L97 717 L98 718 L99 718 L101 720 L102 720 L103 721 L104 721 L105 722 L106 722 L107 723 L108 723 L109 724 L110 724 L111 725 L113 725 L114 726 L116 726 L117 727 L118 727 L119 728 L121 728 L122 729 L124 729 L125 730 L127 730 L128 731 L131 731 L132 732 L134 732 L135 733 L137 733 L138 734 L141 734 L142 735 L145 735 L146 736 L148 736 L149 737 L151 737 L152 738 L154 738 L155 739 L158 739 L159 740 L161 740 L162 741 L164 741 L165 742 L168 742 L169 743 L171 743 L172 744 L175 744 L176 745 L179 745 L180 746 L182 746 L183 747 L186 747 L187 748 L190 748 L191 749 L193 749 L194 750 L196 750 L197 751 L200 751 L201 752 L202 752 L203 753 L205 753 L206 754 L208 754 L209 755 L211 755 L212 756 L213 756 L214 757 L216 757 L217 758 L219 758 L220 759 L221 759 L222 760 L224 760 L225 761 L227 761 L228 762 L229 762 L230 763 L231 763 L232 764 L233 764 L234 765 L235 765 L236 766 L237 766 L239 768 L240 768 L243 771 L244 771 L246 773 L247 773 L249 775 L250 775 L252 777 L253 777 L255 779 L256 779 L257 780 L258 780 L261 783 L262 783 L265 786 L266 786 L276 796 L277 796 L295 814 L295 815 L296 816 L295 817 L294 817 L292 815 L291 815 L287 811 L286 811 L283 808 L282 808 L280 806 L279 806 L278 805 L277 805 L276 804 L275 804 L274 803 L273 803 L271 801 L270 801 L269 800 L268 800 L267 799 L266 799 L265 798 L264 798 L263 797 L262 797 L261 796 L260 796 L259 795 L258 795 L257 794 L256 794 L255 793 L252 793 L251 792 L250 792 L249 791 L247 791 L246 790 L244 790 L243 789 L242 789 L241 788 L239 788 L238 787 L237 787 L236 786 L234 786 L233 785 L232 785 L231 784 L229 784 L228 783 L226 783 L225 782 L223 782 L222 781 L219 781 L218 780 L214 780 L213 779 L208 779 L207 778 L202 778 L201 777 L196 777 L195 776 L187 776 L186 775 L176 775 L175 774 L151 774 L150 775 L142 775 L141 776 L135 776 L134 777 L128 777 L127 778 L122 778 L121 779 L118 779 L117 780 L115 780 L114 781 L112 781 L111 782 L109 782 L108 783 L106 783 L105 784 L103 784 L102 785 L100 785 L99 786 L96 786 L95 787 L93 787 L92 788 L90 788 L89 789 L87 789 L86 790 L85 790 L84 791 L83 791 L81 793 L79 793 L78 794 L76 794 L75 795 L73 795 L72 796 L71 796 L70 797 L69 797 L67 799 L65 799 L63 801 L62 801 L61 802 L60 802 L58 804 L57 804 L55 806 L54 806 L51 809 L50 809 L45 814 L44 814 L43 815 L42 815 L38 819 L38 820 L33 825 L33 826 L29 830 L29 831 L27 833 L27 834 L25 836 L25 837 L23 839 L23 840 L22 841 L22 842 L21 843 L21 844 L19 846 L19 848 L18 849 L18 850 L17 851 L17 852 L16 853 L16 854 L15 855 L15 857 L14 858 L14 859 L13 860 L13 862 L12 863 L12 868 L11 869 L11 886 L12 887 L12 890 L13 891 L13 893 L16 896 L17 896 L18 897 L22 897 L23 898 L30 898 L31 899 L56 899 L57 898 L62 898 L63 897 L66 897 L67 896 L71 896 L72 895 L76 895 L77 894 L78 894 L79 893 L82 893 L83 892 L86 892 L87 891 L89 891 L90 890 L92 890 L93 889 L95 889 L96 888 L98 888 L99 887 L101 887 L102 886 L104 886 L105 885 L107 885 L108 884 L109 884 L110 883 L112 883 L113 882 L114 882 L115 881 L116 881 L117 880 L118 880 L119 879 L121 879 L122 878 L123 878 L124 877 L125 877 L126 876 L128 876 L129 875 L130 875 L131 874 L132 874 L133 873 L134 873 L135 872 L136 872 L137 871 L138 871 L139 870 L140 870 L142 868 L143 868 L144 867 L145 867 L146 866 L147 866 L148 865 L149 865 L151 863 L153 863 L155 861 L156 861 L157 860 L158 860 L160 858 L161 858 L162 857 L163 857 L164 856 L165 856 L166 855 L167 855 L168 854 L169 854 L170 853 L171 853 L172 852 L173 852 L174 851 L175 851 L176 850 L177 850 L178 849 L179 849 L180 848 L181 848 L182 847 L183 847 L184 846 L187 846 L188 845 L190 845 L191 846 L191 847 L190 848 L188 848 L187 849 L185 849 L184 850 L182 850 L181 851 L180 851 L179 852 L178 852 L177 853 L176 853 L175 854 L174 854 L173 855 L172 855 L171 856 L170 856 L169 857 L168 857 L163 862 L163 864 L162 865 L162 875 L161 876 L161 896 L162 897 L162 908 L163 909 L163 930 L164 931 L164 936 L165 937 L165 940 L166 941 L166 942 L167 943 L167 944 L168 945 L168 946 L171 949 L171 950 L172 950 L175 953 L176 953 L179 956 L180 956 L183 959 L183 962 L184 963 L184 965 L185 966 L185 970 L186 971 L186 975 L187 976 L187 980 L188 981 L188 985 L189 986 L189 989 L190 990 L190 995 L191 996 L191 999 L192 1000 L192 1003 L193 1004 L193 1007 L194 1008 L194 1012 L195 1013 L195 1016 L196 1017 L196 1021 L197 1022 L197 1027 L198 1028 L198 1031 L199 1032 L199 1036 L200 1037 L200 1041 L201 1042 L201 1044 L202 1045 L202 1049 L203 1050 L203 1054 L204 1055 L204 1057 L205 1058 L205 1061 L206 1062 L206 1065 L207 1066 L207 1069 L208 1070 L208 1072 L209 1073 L209 1075 L210 1076 L210 1078 L211 1079 L211 1082 L212 1083 L212 1087 L213 1088 L213 1090 L214 1091 L214 1094 L215 1095 L215 1098 L216 1099 L216 1102 L217 1103 L217 1106 L218 1107 L218 1110 L219 1111 L219 1118 L220 1119 L220 1123 L221 1124 L221 1130 L222 1131 L222 1132 L223 1133 L223 1135 L224 1136 L224 1139 L225 1140 L225 1141 L226 1142 L226 1144 L227 1145 L227 1146 L229 1148 L229 1149 L234 1154 L235 1154 L237 1156 L238 1156 L239 1157 L240 1157 L241 1158 L242 1158 L243 1159 L244 1159 L245 1160 L246 1160 L247 1161 L249 1161 L250 1162 L252 1162 L253 1163 L255 1163 L256 1164 L258 1164 L259 1165 L261 1165 L262 1166 L264 1166 L265 1167 L267 1167 L268 1168 L271 1168 L272 1169 L275 1169 L276 1170 L279 1170 L280 1171 L284 1171 L285 1172 L288 1172 L289 1173 L294 1173 L295 1174 L300 1174 L301 1175 L307 1175 L308 1176 L317 1176 L318 1177 L338 1177 L339 1178 L362 1178 L363 1177 L371 1177 L372 1176 L380 1176 L381 1175 L387 1175 L388 1174 L393 1174 L394 1173 L399 1173 L400 1172 L404 1172 L405 1171 L409 1171 L410 1170 L412 1170 L413 1169 L416 1169 L417 1168 L419 1168 L420 1167 L422 1167 L423 1166 L425 1166 L426 1165 L428 1165 L429 1164 L431 1164 L432 1163 L433 1163 L434 1162 L436 1162 L437 1161 L439 1161 L440 1160 L441 1160 L442 1159 L443 1159 L445 1157 L446 1157 L448 1155 L448 1154 L453 1149 L453 1148 L455 1146 L455 1145 L456 1144 L456 1142 L457 1141 L457 1138 L458 1137 L458 1134 L459 1133 L459 1128 L460 1127 L460 1122 L461 1121 L461 1116 L462 1115 L462 1112 L463 1111 L463 1106 L464 1105 L464 1102 L465 1101 L465 1097 L466 1096 L466 1092 L467 1091 L467 1087 L468 1086 L468 1084 L469 1083 L469 1080 L470 1079 L470 1075 L471 1074 L471 1071 L472 1070 L472 1066 L473 1065 L473 1061 L474 1060 L474 1056 L475 1055 L475 1050 L476 1049 L476 1045 L477 1044 L477 1038 L478 1037 L478 1034 L479 1033 L479 1028 L480 1027 L480 1023 L481 1022 L481 1017 L482 1016 L482 1012 L483 1011 L483 1007 L484 1006 L484 1001 L485 1000 L485 997 L486 996 L486 992 L487 991 L487 987 L488 986 L488 982 L489 981 L489 977 L490 976 L490 972 L491 971 L491 967 L492 966 L492 963 L493 962 L493 959 L494 958 L494 957 L496 955 L497 955 L498 954 L499 954 L501 952 L502 952 L505 949 L505 948 L509 944 L509 942 L510 941 L510 934 L511 933 L511 929 L512 928 L512 922 L513 921 L513 913 L514 912 L514 894 L515 893 L515 870 L514 869 L514 864 L513 863 L513 861 L506 854 L505 854 L503 852 L502 852 L500 850 L499 850 L498 849 L497 849 L496 848 L495 848 L494 847 L492 847 L491 846 L489 846 L488 845 L485 845 L484 844 L482 844 L481 843 L477 843 L476 842 L472 842 L471 841 L467 841 L466 840 L460 840 L459 839 L453 839 L452 838 L448 838 L447 837 L447 836 L448 835 L454 835 L455 834 L483 834 L484 835 L489 835 L490 836 L493 836 L494 837 L496 837 L497 838 L499 838 L500 839 L502 839 L503 840 L504 840 L505 841 L507 841 L508 842 L509 842 L510 843 L512 843 L513 844 L514 844 L515 845 L516 845 L517 846 L519 846 L520 847 L521 847 L522 848 L523 848 L524 849 L525 849 L526 850 L527 850 L528 851 L529 851 L530 852 L531 852 L532 853 L533 853 L534 854 L535 854 L536 855 L537 855 L538 856 L539 856 L540 857 L541 857 L542 858 L543 858 L544 859 L545 859 L546 860 L548 860 L549 861 L550 861 L551 862 L552 862 L553 863 L554 863 L555 864 L557 864 L558 865 L559 865 L560 866 L561 866 L562 867 L564 867 L565 868 L566 868 L567 869 L568 869 L569 870 L571 870 L572 871 L573 871 L574 872 L576 872 L577 873 L579 873 L580 874 L581 874 L582 875 L584 875 L585 876 L587 876 L588 877 L590 877 L591 878 L592 878 L593 879 L595 879 L596 880 L597 880 L598 881 L599 881 L600 882 L602 882 L603 883 L604 883 L605 884 L607 884 L608 885 L610 885 L611 886 L613 886 L614 887 L618 887 L619 888 L623 888 L624 887 L627 887 L631 883 L631 882 L632 881 L632 879 L633 878 L633 873 L632 872 L632 868 L631 867 L631 864 L630 863 L630 861 L629 860 L629 859 L628 858 L628 855 L627 854 L627 853 L626 852 L626 851 L625 850 L625 849 L623 847 L623 846 L621 844 L621 843 L618 840 L618 839 L616 837 L616 836 L612 832 L612 831 L609 828 L609 827 L600 818 L599 818 L595 814 L594 814 L591 811 L590 811 L588 809 L587 809 L585 807 L584 807 L583 806 L582 806 L581 805 L580 805 L579 804 L578 804 L577 803 L576 803 L575 802 L574 802 L573 801 L571 801 L570 800 L568 800 L567 799 L565 799 L564 798 L562 798 L561 797 L560 797 L559 796 L557 796 L556 795 L554 795 L553 794 L551 794 L550 793 L548 793 L547 792 L546 792 L545 791 L544 791 L543 790 L541 790 L540 789 L538 789 L537 788 L534 788 L533 787 L527 787 L526 786 L521 786 L520 785 L518 785 L517 784 L512 784 L511 783 L504 783 L503 782 L495 782 L494 781 L471 781 L470 782 L461 782 L460 783 L452 783 L451 784 L446 784 L445 785 L442 785 L441 786 L439 786 L438 787 L435 787 L434 788 L433 788 L432 789 L430 789 L429 790 L427 790 L426 791 L425 791 L424 792 L422 792 L421 793 L419 793 L418 794 L417 794 L416 795 L415 795 L414 796 L412 796 L411 797 L409 797 L408 798 L407 798 L406 799 L404 799 L403 800 L402 800 L401 801 L400 801 L399 802 L398 802 L397 803 L395 803 L394 804 L393 804 L392 805 L391 805 L390 806 L389 806 L383 812 L382 812 L380 814 L379 813 L379 812 L387 804 L388 804 L393 799 L394 799 L401 792 L402 792 L405 789 L406 789 L408 787 L409 787 L411 785 L412 785 L413 784 L414 784 L416 782 L417 782 L418 781 L419 781 L420 780 L421 780 L423 778 L424 778 L425 777 L426 777 L428 775 L429 775 L430 774 L431 774 L432 773 L433 773 L434 772 L435 772 L436 771 L438 771 L439 770 L440 770 L441 769 L443 769 L444 768 L445 768 L446 767 L448 767 L449 766 L450 766 L451 765 L453 765 L454 764 L456 764 L457 763 L459 763 L460 762 L462 762 L463 761 L466 761 L467 760 L469 760 L470 759 L472 759 L473 758 L476 758 L477 757 L479 757 L480 756 L482 756 L483 755 L486 755 L487 754 L489 754 L490 753 L493 753 L494 752 L497 752 L498 751 L502 751 L503 750 L506 750 L507 749 L510 749 L511 748 L515 748 L516 747 L518 747 L519 746 L521 746 L522 745 L525 745 L526 744 L528 744 L529 743 L530 743 L531 742 L533 742 L534 741 L536 741 L537 740 L538 740 L539 739 L540 739 L541 738 L542 738 L543 737 L544 737 L545 736 L546 736 L547 735 L548 735 L549 734 L550 734 L551 733 L552 733 L553 732 L554 732 L555 731 L557 731 L558 730 L559 730 L560 729 L561 729 L563 727 L564 727 L566 725 L567 725 L569 723 L570 723 L572 721 L573 721 L575 719 L576 719 L578 717 L579 717 L580 716 L581 716 L585 712 L586 712 L588 710 L589 710 L592 707 L593 707 L596 704 L597 704 L613 688 L613 687 L625 675 L625 674 L639 660 L639 659 L641 657 L641 656 L644 653 L644 652 L645 651 L645 650 L646 649 L646 645 L644 643 L644 642 L642 640 L642 639 L641 638 L641 637 L639 635 L638 635 L636 633 L635 633 L634 632 L633 632 L632 631 L631 631 L630 630 L629 630 L627 628 L626 628 L625 627 L624 627 L623 626 L622 626 L620 624 L619 624 L618 623 L617 623 L616 622 L614 622 L613 621 L612 621 L611 620 L608 620 L607 619 L599 619 L598 618 L586 618 L585 617 L557 617 L556 618 L545 618 L544 619 L538 619 L537 620 L534 620 L533 621 L529 621 L528 622 L525 622 L524 623 L521 623 L520 624 L518 624 L517 625 L515 625 L514 626 L512 626 L511 627 L510 627 L509 628 L507 628 L506 629 L504 629 L503 630 L502 630 L501 631 L500 631 L499 632 L497 632 L496 633 L495 633 L494 634 L493 634 L492 635 L491 635 L490 636 L489 636 L488 637 L487 637 L486 638 L485 638 L484 639 L483 639 L482 640 L481 640 L480 641 L479 641 L478 642 L477 642 L476 643 L475 643 L474 644 L473 644 L472 645 L471 645 L470 646 L469 646 L468 647 L467 647 L466 648 L465 648 L463 650 L462 650 L460 652 L459 652 L458 653 L457 653 L455 655 L454 655 L452 657 L451 657 L450 658 L449 658 L447 660 L446 660 L444 662 L443 662 L441 664 L440 664 L437 667 L436 667 L432 671 L431 671 L427 675 L426 675 L421 680 L420 680 L416 684 L415 684 L406 693 L405 693 L399 699 L399 700 L390 709 L390 710 L385 715 L385 716 L380 721 L380 722 L377 725 L377 726 L374 729 L374 730 L371 733 L371 734 L369 736 L369 737 L363 743 L363 744 L361 746 L361 747 L360 748 L360 749 L358 751 L358 752 L356 754 L356 755 L355 756 L355 757 L353 759 L353 760 L352 761 L352 762 L350 764 L350 765 L349 766 L349 767 L348 768 L348 769 L347 770 L347 771 L346 772 L346 773 L345 774 L345 775 L344 776 L344 777 L343 778 L343 779 L342 780 L342 781 L341 782 L341 783 L340 784 L339 783 L339 782 L338 781 L338 776 L337 775 L337 770 L336 769 L336 765 L335 764 L335 758 L334 757 L334 752 L333 751 L333 747 L332 746 L332 742 L331 741 L331 738 L330 737 L330 734 L329 733 L329 729 L328 728 L328 724 L327 723 L327 719 L326 718 L326 713 L325 712 L325 708 L324 707 L324 703 L323 702 L323 697 L322 696 L322 691 L321 690 L321 681 L320 680 L320 654 L319 653 L319 523 L318 522 L318 446 L317 445 L317 444 L318 443 L318 431 L317 430 L317 429 L318 428 L318 372 L319 371 L319 369 L321 367 L322 367 L323 366 L323 365 L324 364 L324 360 L325 359 L325 358 L326 357 L326 352 L325 351 L325 349 L322 346 L322 337 L323 336 L323 334 L324 333 L324 331 L325 330 L325 329 L326 328 L326 327 L327 326 L327 325 L328 324 L328 323 L329 322 L329 321 L331 319 L331 318 L332 317 L332 316 L333 315 L333 313 L335 311 L335 310 L338 307 L344 307 L345 306 L350 306 L351 305 L353 305 L354 304 L356 304 L357 303 L358 303 L361 300 L361 299 L362 298 L362 296 L363 295 L363 291 L364 290 L364 285 L363 284 L363 278 L362 277 L362 274 L361 273 L361 270 L364 267 L364 266 L381 249 L382 249 L385 246 L386 246 L387 245 L388 245 L390 243 L391 243 L392 242 L393 242 L395 240 L397 240 L398 239 L399 239 L401 237 L402 237 L403 236 L404 236 L405 235 L406 235 L408 233 L409 233 L410 232 L411 232 L412 231 L414 231 L415 230 L416 230 L417 229 L419 229 L420 228 L421 228 L422 227 L423 227 L424 226 L426 226 L427 225 L428 225 L429 224 L431 224 L432 223 L434 223 L435 222 L437 222 L438 221 L443 221 L444 220 L450 220 L451 219 L480 219 L481 220 L484 220 L485 221 L486 221 L487 222 L490 222 L491 223 L491 224 L485 230 L484 230 L479 235 L478 235 L471 242 L471 243 L468 246 L468 247 L465 250 L465 251 L464 252 L464 253 L463 254 L463 255 L462 256 L462 257 L461 258 L461 259 L460 260 L460 262 L459 263 L459 270 L458 271 L458 274 L459 275 L459 284 L460 285 L460 287 L461 288 L461 290 L463 292 L463 295 L464 296 L464 299 L465 300 L465 301 L466 302 L466 303 L470 307 L470 308 L472 310 L472 311 L474 313 L474 314 L476 316 L476 317 L479 320 L479 321 L486 328 L487 328 L488 329 L488 331 L487 332 L487 333 L486 334 L486 337 L485 338 L485 354 L486 355 L486 357 L490 361 L492 361 L493 362 L495 362 L496 363 L519 363 L520 362 L523 362 L524 361 L526 361 L528 359 L529 359 L530 358 L531 358 L533 356 L534 356 L536 354 L537 354 L540 351 L541 351 L550 342 L551 343 L551 344 L552 345 L552 346 L554 348 L554 349 L556 351 L556 352 L558 354 L559 354 L561 356 L562 356 L564 358 L565 358 L566 359 L568 359 L569 360 L575 360 L576 359 L579 359 L580 358 L581 358 L582 357 L583 357 L584 356 L585 356 L586 355 L587 355 L593 349 L593 348 L594 347 L594 346 L595 345 L596 345 L598 347 L599 347 L600 348 L601 348 L603 350 L604 350 L605 351 L608 351 L609 352 L610 352 L611 353 L613 353 L614 354 L616 354 L617 355 L620 355 L621 356 L624 356 L625 357 L634 357 L635 358 L636 358 L637 357 L646 357 L647 356 L649 356 L650 355 L651 355 L656 350 L658 352 L658 353 L659 354 L659 355 L660 356 L660 358 L661 359 L661 360 L662 361 L662 362 L663 363 L663 365 L664 366 L664 367 L665 368 L665 369 L666 370 L666 372 L667 373 L667 375 L668 376 L668 377 L667 378 L666 378 L665 379 L663 379 L662 380 L659 380 L658 381 L657 381 L656 382 L655 382 L654 383 L653 383 L652 384 L651 384 L646 389 L646 390 L644 392 L644 393 L643 394 L643 395 L642 396 L642 397 L641 398 L641 400 L638 403 L636 403 L634 405 L633 405 L630 408 L629 408 L629 409 L627 411 L627 413 L626 414 L626 415 L625 416 L625 430 L626 431 L626 434 L627 435 L627 437 L628 438 L628 439 L629 440 L629 442 L630 443 L630 444 L632 446 L632 447 L634 449 L634 450 L636 452 L636 453 L641 458 L642 458 L643 459 L644 459 L645 460 L650 460 L651 459 L653 459 L654 458 L655 458 L656 457 L657 457 L658 456 L659 456 L666 449 L666 448 L669 445 L669 444 L670 443 L670 442 L671 441 L671 440 L672 439 L672 438 L673 437 L673 434 L674 433 L674 428 L675 427 L675 423 L674 422 L674 418 L673 417 L673 415 L672 414 L672 413 L670 411 L670 410 L664 404 L663 404 L662 403 L660 403 L659 402 L653 402 L652 401 L652 400 L653 399 L653 398 L657 394 L658 394 L659 393 L662 393 L663 392 L668 392 L669 391 L677 391 L678 392 L679 392 L683 396 L684 396 L696 408 L696 409 L700 413 L700 414 L702 416 L702 417 L703 418 L703 419 L704 420 L704 422 L705 423 L705 429 L706 430 L706 435 L707 436 L707 443 L708 444 L708 450 L709 451 L709 456 L710 457 L710 459 L711 460 L711 463 L712 464 L712 466 L711 467 L711 468 L707 472 L707 473 L706 474 L706 476 L705 477 L705 487 L706 488 L706 490 L707 491 L707 492 L709 494 L709 495 L711 497 L711 498 L719 506 L720 506 L721 507 L722 507 L723 508 L725 508 L726 509 L730 509 L731 508 L732 508 L736 504 L736 502 L737 501 L737 500 L738 499 L738 498 L739 497 L739 494 L740 493 L740 489 L739 488 L739 486 L740 485 L740 481 L739 480 L739 478 L738 477 L738 476 L736 474 L736 473 L735 472 L735 471 L734 470 L734 469 L732 467 L731 467 L728 464 L726 464 L723 461 L723 452 L722 451 L722 445 L721 444 L721 439 L720 438 L720 433 L719 432 L719 422 L721 420 L723 420 L724 419 L726 419 L727 418 L729 418 L730 417 L733 417 L734 416 L741 416 L743 418 L743 419 L740 422 L739 422 L736 425 L736 426 L735 427 L735 428 L734 429 L734 431 L733 432 L733 438 L734 439 L734 442 L735 443 L735 444 L736 445 L736 446 L738 448 L738 449 L744 455 L745 455 L746 456 L747 456 L748 457 L750 457 L751 458 L752 458 L753 459 L756 459 L757 460 L759 460 L760 461 L765 461 L766 460 L768 460 L769 459 L770 459 L772 457 L773 457 L774 456 L774 454 L775 453 L775 437 L774 436 L774 434 L773 433 L773 431 L772 430 L772 428 L770 426 L770 425 L764 419 L763 419 L762 418 L761 418 L760 417 L759 417 L755 413 L754 413 L752 411 L751 411 L750 410 L749 410 L748 409 L747 409 L746 408 L745 408 L744 407 L743 407 L742 406 L737 406 L736 405 L731 405 L730 406 L725 406 L724 407 L718 407 L717 406 L715 406 L714 405 L713 405 L712 404 L711 404 L703 396 L702 396 L686 380 L686 379 L684 377 L684 376 L683 375 L683 374 L682 373 L682 372 L681 371 L681 369 L680 368 L680 367 L679 366 L679 365 L678 364 L678 362 L677 361 L677 360 L676 359 L676 357 L675 356 L675 355 L674 354 L674 352 L673 351 L673 350 L672 349 L672 348 L671 347 L671 346 L670 345 L670 343 L669 342 L669 340 L668 339 L668 337 L667 336 L667 333 L670 330 L672 330 L673 329 L674 329 L675 328 L677 328 L678 327 L679 327 L680 326 L681 326 L682 325 L683 325 L684 324 L685 324 L687 322 L688 322 L689 321 L690 321 L692 319 L693 319 L696 316 L697 316 L699 314 L700 315 L700 316 L695 321 L695 322 L694 323 L694 324 L693 325 L693 326 L692 327 L692 329 L691 330 L691 349 L692 350 L692 358 L693 359 L693 364 L694 365 L694 370 L695 371 L695 372 L696 373 L696 375 L698 377 L698 378 L699 379 L699 380 L701 382 L701 383 L709 391 L711 391 L712 390 L712 387 L711 386 L711 385 L709 383 L709 382 L707 380 L707 371 L708 370 L708 369 L709 368 L714 373 L715 373 L716 374 L717 374 L718 375 L719 375 L720 376 L723 376 L724 377 L731 377 L732 376 L734 376 L736 374 L736 366 L735 365 L735 361 L736 360 L737 361 L738 361 L739 362 L740 362 L742 364 L743 364 L744 365 L746 365 L748 367 L750 367 L751 368 L752 368 L753 369 L754 369 L755 370 L756 370 L757 371 L767 371 L768 370 L771 370 L772 369 L773 369 L774 368 L776 368 L777 367 L779 367 L780 366 L783 366 L784 365 L785 365 L787 363 L788 363 L790 361 L790 360 L791 359 L791 357 L792 356 L792 354 L791 353 L791 351 L790 350 L790 349 L787 346 L786 346 L784 344 L782 344 L781 343 L775 343 L774 344 L774 346 L775 347 L775 348 L776 349 L776 350 L777 351 L777 352 L778 353 L779 353 L780 352 L781 353 L781 355 L779 357 L777 357 L776 356 L770 356 L763 349 L763 348 L762 347 L762 345 L763 344 L764 344 L766 342 L767 342 L769 340 L770 340 L773 337 L773 336 L775 334 L775 333 L776 332 L776 331 L777 330 L777 329 L778 328 L778 327 L779 326 L779 324 L780 323 L780 322 L781 321 L781 319 L782 318 L782 315 L783 314 L783 311 L784 310 L784 307 L785 306 L785 300 L786 299 L786 288 L785 287 L785 281 L784 280 L784 277 L783 276 L783 275 L782 274 L782 272 L781 271 L781 270 L780 269 L780 268 L779 267 L779 265 L777 263 L777 262 L776 261 L776 260 L775 259 L775 258 L772 255 L771 255 L766 250 L766 249 L765 248 L765 247 L764 246 L764 245 L762 243 L762 242 L759 239 L758 239 L757 238 L755 238 L754 237 L753 237 L752 238 L750 238 L749 239 L748 239 L742 245 L742 246 L741 247 L740 247 L737 244 L733 244 L732 243 L732 236 L733 235 L733 231 L734 230 L734 228 L735 227 L735 224 L736 223 L736 221 L737 220 L737 218 L738 217 L738 213 L737 212 L736 212 L735 211 L733 211 L732 212 L729 212 L728 213 L727 213 L725 215 L724 215 L718 221 L718 222 L713 227 L713 228 L709 232 L709 233 L707 235 L707 236 L706 237 L706 238 L704 240 L704 241 L703 242 L703 243 L702 244 L702 246 L701 247 L701 249 L700 250 L700 252 L699 253 L699 258 L698 259 L698 273 L699 274 L699 277 L700 278 L700 280 L701 281 L701 283 L702 284 L702 286 L703 287 L703 290 L704 291 L704 293 L705 294 L705 298 L706 299 L706 302 L704 304 L701 304 L700 305 L698 305 L697 306 L696 306 L695 307 L693 307 L692 308 L691 308 L690 309 L688 309 L687 310 L686 310 L685 311 L683 311 L682 312 L681 312 L680 313 L678 313 L677 314 L676 314 L675 315 L673 315 L672 316 L671 316 L670 317 L666 317 L665 318 L661 318 L660 317 L662 315 L662 314 L665 311 L665 310 L667 308 L667 307 L669 305 L669 304 L670 303 L670 302 L672 300 L672 299 L673 298 L673 297 L674 296 L674 295 L676 293 L676 292 L677 291 L677 290 L678 289 L678 287 L679 286 L679 283 L680 282 L680 261 L679 260 L679 257 L678 256 L678 255 L677 254 L677 253 L676 252 L676 251 L675 250 L675 249 L673 247 L673 246 L671 244 L671 243 L670 242 L671 241 L672 241 L673 242 L676 242 L677 243 L680 243 L681 242 L686 242 L687 241 L689 241 L690 240 L691 240 L692 239 L693 239 L694 238 L695 238 L698 235 L699 235 L700 234 L700 225 L699 224 L699 223 L698 222 L698 221 L695 218 L694 218 L693 217 L691 217 L690 216 L691 215 L691 214 L692 213 L692 212 L693 211 L693 209 L694 208 L694 206 L695 205 L695 203 L696 202 L696 200 L697 199 L697 197 L698 196 L698 195 L699 194 L699 191 L700 190 L700 187 L701 186 L701 176 L700 175 L701 174 L701 172 L700 171 L700 159 L699 158 L698 158 L693 153 L693 152 L692 151 L691 151 L690 150 L690 149 L686 145 L686 144 L680 138 L680 137 L679 136 L679 135 L677 133 L677 132 L675 130 L675 129 L673 127 L673 125 L672 124 L672 123 L670 121 L670 120 L669 119 L669 118 L657 106 L656 106 L654 104 L646 104 L645 105 L643 105 L642 106 L641 106 L639 108 L639 109 L637 111 L637 112 L636 113 L636 115 L635 116 L635 118 L634 119 L634 122 L633 123 L633 125 L632 126 L632 127 L631 128 L630 127 L630 125 L629 124 L629 123 L628 122 L628 120 L627 119 L627 117 L626 116 L626 115 L625 114 L625 112 L624 111 L624 109 L621 106 L621 105 L620 104 L620 103 L619 102 L619 100 L618 99 L618 97 L617 96 L617 94 L616 93 L616 92 L615 91 L615 88 L614 87 L614 86 L613 85 L613 83 L612 82 L612 81 L611 80 L611 76 L610 75 L610 74 L608 72 L607 72 L606 71 L605 71 L604 72 L603 72 L598 77 L598 78 L596 80 L596 81 L594 83 L594 85 L593 86 L593 87 L592 88 L592 89 L591 90 L591 91 L590 92 L590 93 L589 94 L589 96 L588 97 L588 98 L587 99 L587 102 L586 103 L586 106 L585 107 L585 112 L584 113 L584 121 L585 122 L585 127 L586 128 L586 131 L587 132 L587 135 L588 136 L588 138 L589 139 L589 142 L590 143 L590 145 L591 146 L591 148 L592 149 L592 151 L593 152 L593 153 L594 154 L594 155 L596 157 L596 173 L595 174 L595 176 L594 177 L594 178 L593 179 L592 179 L591 180 L589 180 L580 171 L579 171 L577 169 L575 169 L574 168 L572 168 L571 169 L567 169 L566 170 L563 170 L562 171 L561 171 L560 172 L559 172 L558 173 L557 173 L556 174 L555 174 L549 180 L548 180 L546 182 L545 181 L545 179 L544 178 L544 177 L542 175 L543 174 L543 173 L546 170 L546 169 L548 167 L548 166 L550 164 L550 163 L552 161 L552 160 L555 157 L555 156 L557 154 L557 153 L559 151 L559 150 L560 149 L560 148 L561 147 L561 145 L562 144 L562 142 L563 141 L563 139 L564 138 L564 134 L565 133 L565 130 L566 129 L566 125 L567 124 L567 118 L568 117 L568 116 L567 115 L567 109 L566 108 L566 106 L565 105 L565 104 L564 103 L564 102 L562 100 L562 99 L560 97 L560 96 L559 95 L559 94 L558 93 L558 92 L556 90 L556 89 L555 88 L555 87 L554 86 L554 85 L552 83 L552 82 L547 77 L546 77 L544 75 L543 75 L539 71 L538 71 L533 66 L533 65 L531 63 L530 63 L528 61 L527 61 L526 60 L524 60 L523 59 L522 59 L521 58 L519 58 L518 57 L517 57 L515 55 L513 55 L512 54 L511 54 L510 53 L509 53 L508 52 L506 52 L505 51 L501 51 L500 50 L486 50 L483 47 L483 45 L482 44 L482 43 L480 41 L480 40 L479 39 L479 38 L478 37 L478 36 L477 35 L477 34 L476 33 L476 32 L474 30 L474 29 L461 16 L460 16 L459 15 L458 15 L457 14 L456 14 L455 13 L454 13 L453 12 L451 12 L450 11 Z " fill="black"/></svg>