<svg width="333" height="500" xmlns="http://www.w3.org/2000/svg"><path d="M166 11 L161 16 L160 16 L155 21 L155 22 L152 25 L152 26 L151 27 L151 28 L149 30 L149 32 L147 34 L147 36 L146 37 L146 38 L145 39 L145 46 L144 47 L144 49 L145 50 L145 62 L144 63 L143 63 L141 61 L140 61 L138 59 L137 59 L136 58 L135 58 L134 57 L133 57 L132 56 L130 56 L129 55 L127 55 L126 54 L124 54 L123 53 L122 53 L121 52 L117 52 L114 55 L114 60 L115 61 L115 63 L116 64 L116 65 L117 66 L117 68 L118 69 L118 70 L119 71 L119 72 L120 73 L120 74 L122 76 L122 77 L125 80 L125 81 L128 84 L128 85 L130 87 L130 88 L135 93 L135 94 L140 99 L141 99 L144 102 L145 102 L147 104 L148 104 L150 106 L150 112 L149 113 L148 113 L142 107 L141 107 L138 104 L137 104 L135 102 L134 102 L132 100 L131 100 L129 98 L128 98 L127 97 L126 97 L124 95 L123 95 L122 94 L119 94 L118 93 L114 93 L113 94 L112 94 L112 96 L111 97 L112 98 L112 101 L113 102 L113 105 L114 106 L114 107 L115 108 L115 109 L116 110 L116 112 L117 113 L117 114 L119 116 L119 117 L120 118 L120 119 L122 121 L122 122 L125 125 L125 126 L130 131 L131 131 L136 136 L137 136 L138 137 L139 137 L140 138 L141 138 L142 139 L144 139 L145 140 L146 140 L148 142 L148 144 L147 145 L147 147 L146 148 L144 148 L142 146 L141 146 L139 144 L138 144 L136 142 L135 142 L134 141 L133 141 L132 140 L130 140 L129 139 L128 139 L127 138 L126 138 L124 136 L123 136 L121 134 L120 134 L117 131 L112 131 L111 130 L111 127 L112 126 L112 121 L111 120 L111 119 L109 117 L107 117 L106 118 L105 118 L104 119 L103 119 L102 120 L101 120 L99 122 L98 122 L95 125 L94 125 L93 126 L92 126 L87 131 L87 132 L85 134 L85 135 L83 137 L83 138 L81 140 L81 141 L79 143 L77 141 L77 137 L84 130 L85 130 L93 122 L93 121 L95 119 L95 118 L96 117 L96 116 L97 115 L97 113 L98 112 L98 109 L99 108 L99 98 L98 97 L98 96 L97 95 L97 94 L94 91 L92 91 L89 94 L88 93 L88 78 L87 77 L87 74 L86 73 L86 72 L84 70 L82 70 L81 71 L80 71 L78 73 L78 74 L74 78 L74 79 L72 81 L72 82 L70 84 L70 85 L67 88 L66 87 L66 85 L65 84 L65 83 L64 82 L64 80 L63 79 L63 78 L62 77 L62 76 L61 75 L61 74 L60 73 L60 72 L58 70 L58 69 L56 67 L56 66 L52 62 L51 62 L47 58 L46 58 L43 55 L42 55 L41 56 L41 57 L40 58 L40 63 L39 64 L39 78 L40 79 L40 82 L41 83 L41 85 L42 86 L42 88 L43 89 L43 90 L44 91 L44 93 L45 94 L45 95 L46 96 L46 97 L49 100 L49 101 L54 106 L54 107 L56 109 L55 110 L54 110 L53 109 L52 109 L51 108 L50 108 L48 106 L47 106 L45 104 L44 104 L42 102 L41 102 L39 100 L38 100 L36 98 L35 98 L34 97 L32 97 L31 96 L21 96 L20 97 L20 98 L19 99 L19 100 L20 101 L20 102 L21 103 L21 104 L22 105 L22 106 L25 109 L25 110 L27 112 L27 113 L30 116 L30 117 L36 123 L37 123 L38 124 L39 124 L40 125 L41 125 L43 127 L44 127 L45 128 L47 128 L48 129 L49 129 L50 130 L53 130 L54 131 L56 131 L57 132 L58 132 L60 134 L61 134 L64 137 L65 137 L66 138 L64 140 L53 140 L52 139 L49 139 L48 138 L44 138 L43 137 L34 137 L33 138 L29 138 L28 139 L27 139 L26 140 L24 140 L24 143 L27 146 L27 147 L32 152 L33 152 L39 158 L40 158 L41 159 L42 159 L44 161 L46 161 L47 162 L48 162 L49 163 L51 163 L52 164 L58 164 L59 165 L75 165 L77 167 L77 169 L76 170 L66 170 L65 169 L64 170 L54 170 L53 171 L49 171 L48 172 L44 172 L43 173 L41 173 L40 174 L40 175 L51 186 L52 186 L54 188 L55 188 L56 189 L57 189 L58 190 L59 190 L60 191 L64 191 L65 192 L72 192 L73 193 L76 193 L77 194 L76 195 L74 195 L73 196 L56 196 L55 197 L52 197 L51 198 L50 198 L49 199 L48 199 L47 200 L46 200 L46 202 L49 202 L50 203 L50 204 L55 209 L56 209 L57 210 L58 210 L60 212 L61 212 L62 213 L63 213 L65 215 L66 215 L68 217 L69 217 L70 218 L71 218 L72 219 L73 219 L74 220 L73 221 L70 221 L69 222 L67 222 L66 223 L64 223 L63 224 L62 224 L61 225 L59 225 L58 226 L57 226 L56 227 L56 229 L57 229 L61 233 L62 233 L64 235 L65 235 L66 236 L67 236 L68 237 L69 237 L70 238 L71 238 L72 239 L73 239 L74 240 L76 240 L77 241 L78 241 L79 242 L81 242 L82 243 L85 243 L86 244 L89 244 L90 245 L90 246 L89 247 L79 247 L78 248 L76 248 L74 250 L74 252 L75 253 L75 254 L81 260 L82 260 L85 263 L85 264 L84 265 L82 265 L79 268 L79 272 L80 273 L80 274 L82 276 L81 277 L78 277 L76 279 L75 278 L75 276 L74 275 L74 273 L73 272 L73 271 L72 270 L72 269 L70 267 L70 266 L69 265 L69 264 L67 262 L67 261 L65 259 L65 258 L62 255 L62 254 L58 250 L58 249 L53 244 L53 243 L48 238 L48 237 L43 232 L42 232 L39 229 L38 229 L36 227 L35 227 L34 226 L33 226 L32 225 L31 225 L30 224 L28 224 L27 223 L26 223 L25 224 L23 224 L22 225 L21 225 L20 226 L19 226 L18 227 L17 227 L16 228 L16 229 L13 232 L13 233 L11 235 L11 244 L12 245 L12 246 L13 247 L13 249 L14 250 L14 251 L15 252 L15 253 L19 257 L20 257 L24 261 L24 262 L26 264 L27 264 L30 267 L31 267 L32 268 L33 268 L34 269 L35 269 L36 270 L36 271 L37 272 L37 273 L38 274 L38 276 L39 277 L39 279 L40 280 L40 281 L43 284 L43 285 L47 289 L47 299 L46 300 L46 313 L45 314 L45 318 L44 319 L44 323 L43 324 L43 328 L42 329 L42 332 L41 333 L41 334 L40 335 L40 337 L39 338 L39 339 L38 340 L38 342 L36 344 L36 345 L35 346 L35 347 L34 348 L34 350 L30 354 L30 355 L26 359 L26 360 L24 362 L24 363 L23 364 L23 365 L21 367 L21 368 L19 370 L19 379 L20 380 L20 382 L22 384 L22 385 L24 387 L24 388 L27 391 L27 393 L28 394 L28 395 L29 396 L29 398 L30 399 L30 400 L31 401 L31 402 L32 403 L32 406 L33 407 L33 410 L34 411 L34 415 L35 416 L35 418 L36 419 L36 422 L37 423 L37 426 L38 427 L38 428 L39 429 L39 431 L40 432 L40 434 L41 435 L41 436 L42 437 L42 438 L43 439 L43 441 L44 442 L44 444 L45 445 L45 446 L46 447 L46 449 L47 450 L47 451 L48 452 L48 454 L49 455 L49 456 L50 457 L50 458 L52 460 L52 461 L62 471 L63 471 L64 472 L65 472 L66 473 L67 473 L68 474 L70 474 L71 475 L73 475 L74 476 L75 475 L76 475 L80 479 L81 479 L82 480 L84 480 L85 481 L87 481 L88 482 L91 482 L92 483 L98 483 L99 484 L104 484 L105 485 L119 485 L120 486 L124 486 L125 487 L130 487 L131 488 L192 488 L193 487 L199 487 L200 486 L208 486 L209 485 L215 485 L216 484 L220 484 L221 483 L225 483 L226 482 L229 482 L230 481 L232 481 L233 480 L234 480 L235 479 L237 479 L238 478 L239 478 L240 477 L242 477 L245 474 L246 474 L248 472 L249 472 L256 465 L256 464 L259 461 L259 460 L261 458 L261 456 L262 455 L262 454 L263 453 L263 452 L264 451 L264 450 L265 449 L265 447 L266 446 L266 444 L267 443 L267 441 L268 440 L268 437 L269 436 L269 433 L270 432 L270 430 L271 429 L271 426 L272 425 L272 421 L273 420 L273 417 L274 416 L274 414 L275 413 L275 410 L276 409 L276 406 L277 405 L277 401 L278 400 L278 399 L279 398 L279 397 L280 396 L280 394 L281 393 L281 392 L282 391 L282 390 L283 389 L283 388 L284 387 L284 385 L286 383 L286 382 L287 381 L287 380 L288 379 L288 377 L289 376 L289 374 L288 373 L288 371 L287 370 L287 368 L285 366 L285 365 L282 362 L282 361 L278 357 L278 356 L273 351 L273 350 L271 348 L271 347 L270 346 L270 345 L269 344 L269 342 L268 341 L268 340 L267 339 L267 338 L266 337 L266 336 L265 335 L265 334 L264 333 L264 332 L263 331 L263 328 L262 327 L262 323 L261 322 L261 312 L260 311 L260 294 L259 293 L259 290 L258 289 L258 284 L259 283 L259 282 L260 281 L260 280 L264 276 L264 275 L266 273 L266 272 L268 270 L268 269 L276 261 L277 261 L281 257 L282 257 L294 245 L294 243 L295 242 L295 232 L294 231 L294 230 L292 228 L291 228 L290 227 L289 227 L288 226 L274 226 L273 227 L272 227 L271 228 L270 228 L268 230 L267 230 L266 231 L265 231 L264 232 L263 232 L262 233 L260 233 L259 234 L258 234 L256 236 L255 236 L249 242 L249 243 L247 245 L247 246 L244 249 L242 247 L242 244 L240 242 L239 242 L238 241 L237 241 L236 240 L239 237 L240 237 L241 236 L242 236 L242 234 L241 233 L240 233 L239 232 L232 232 L231 231 L228 231 L227 230 L225 230 L224 229 L225 228 L229 228 L230 227 L234 227 L235 226 L238 226 L239 225 L240 225 L241 224 L242 224 L249 217 L250 217 L254 213 L255 213 L255 211 L256 210 L255 209 L255 208 L253 206 L252 206 L251 205 L248 205 L247 204 L245 204 L244 203 L243 203 L242 202 L235 202 L234 203 L217 203 L216 202 L215 202 L213 200 L214 199 L215 199 L216 198 L217 199 L219 199 L220 198 L239 198 L240 197 L249 197 L250 196 L253 196 L254 195 L256 195 L257 194 L260 194 L261 193 L262 193 L263 192 L265 192 L268 189 L268 187 L267 186 L266 186 L262 182 L261 182 L259 180 L258 180 L257 179 L256 179 L255 178 L254 178 L253 177 L247 177 L246 176 L245 176 L244 177 L242 177 L241 176 L239 176 L238 177 L226 177 L225 176 L225 173 L226 172 L226 171 L227 170 L227 169 L229 167 L234 167 L235 168 L242 168 L243 169 L252 169 L253 170 L261 170 L262 169 L267 169 L268 168 L270 168 L271 167 L272 167 L273 166 L274 166 L275 165 L277 165 L278 164 L279 164 L282 161 L283 161 L283 158 L280 155 L279 155 L277 153 L276 153 L275 152 L274 152 L273 151 L271 151 L270 150 L265 150 L264 149 L259 149 L258 148 L253 148 L252 147 L241 147 L240 146 L240 145 L241 144 L241 143 L243 141 L246 141 L247 142 L254 142 L255 141 L273 141 L274 140 L278 140 L279 139 L282 139 L283 138 L285 138 L286 137 L288 137 L289 136 L290 136 L291 135 L292 135 L293 134 L294 134 L296 132 L297 132 L298 131 L298 128 L296 126 L295 126 L294 125 L293 125 L292 124 L291 124 L290 123 L287 123 L286 122 L281 122 L280 121 L275 121 L274 120 L268 120 L267 119 L268 118 L270 118 L271 117 L277 117 L278 116 L286 116 L287 115 L292 115 L293 114 L295 114 L296 113 L298 113 L300 111 L301 111 L302 110 L303 110 L305 108 L306 108 L308 106 L309 106 L313 102 L314 102 L319 97 L319 96 L321 94 L321 93 L319 91 L318 91 L317 90 L306 90 L305 91 L302 91 L301 90 L297 90 L296 91 L284 91 L283 92 L281 92 L280 93 L279 93 L278 94 L276 94 L275 93 L275 91 L276 90 L276 84 L277 83 L277 77 L276 76 L276 70 L275 69 L275 64 L274 63 L274 61 L273 60 L273 59 L270 56 L268 56 L267 55 L266 56 L265 56 L261 60 L261 62 L260 63 L260 64 L259 65 L259 66 L258 67 L258 68 L257 69 L257 70 L256 71 L256 73 L255 74 L255 76 L254 77 L254 84 L253 85 L253 90 L254 91 L254 97 L253 98 L251 96 L251 95 L250 94 L250 93 L248 91 L248 90 L245 87 L245 86 L242 83 L241 83 L239 81 L236 81 L235 80 L230 80 L228 82 L228 83 L227 84 L227 86 L228 87 L228 91 L227 92 L227 109 L228 110 L228 115 L229 116 L229 118 L230 119 L230 121 L231 122 L231 125 L232 126 L232 129 L233 130 L233 132 L232 133 L229 130 L229 127 L228 126 L228 125 L227 124 L227 123 L226 122 L226 121 L227 120 L227 117 L226 116 L226 115 L225 114 L225 113 L224 112 L224 111 L222 109 L222 108 L216 102 L213 102 L212 101 L211 102 L210 102 L209 103 L209 104 L208 105 L208 106 L207 107 L207 109 L206 110 L206 112 L205 113 L205 127 L206 128 L206 132 L207 133 L207 136 L208 137 L208 140 L209 141 L209 142 L210 143 L210 145 L211 146 L211 147 L212 148 L212 149 L216 153 L216 154 L217 155 L218 155 L219 156 L219 157 L220 157 L221 158 L221 160 L219 162 L217 162 L214 159 L214 158 L211 155 L211 154 L200 143 L199 143 L195 139 L195 135 L196 134 L196 131 L197 130 L197 126 L196 125 L193 125 L192 126 L191 126 L190 127 L188 127 L187 128 L185 128 L184 129 L183 129 L182 130 L180 130 L179 129 L181 127 L182 127 L184 125 L185 125 L188 122 L189 122 L194 117 L194 116 L196 114 L196 113 L198 111 L198 110 L199 109 L199 108 L200 107 L200 105 L201 104 L201 103 L202 102 L202 99 L203 98 L203 96 L204 95 L201 92 L194 92 L193 93 L190 93 L189 94 L186 94 L185 95 L183 95 L182 96 L181 96 L180 97 L178 97 L177 98 L176 98 L174 100 L173 100 L172 101 L171 101 L168 104 L167 104 L164 107 L163 106 L163 102 L166 99 L167 99 L168 98 L169 98 L170 97 L171 97 L173 95 L174 95 L175 94 L176 94 L179 91 L180 91 L183 88 L184 88 L192 80 L192 79 L194 77 L194 76 L196 74 L196 73 L198 71 L198 70 L199 69 L199 68 L202 65 L202 64 L203 63 L203 58 L202 57 L202 55 L201 54 L201 53 L200 53 L199 52 L198 52 L197 53 L196 53 L195 54 L193 54 L192 55 L191 55 L190 56 L189 56 L188 57 L187 57 L186 58 L185 58 L184 59 L183 59 L181 61 L180 61 L179 62 L178 62 L174 66 L173 66 L172 65 L172 62 L173 61 L173 58 L174 57 L174 54 L175 53 L175 38 L176 37 L176 28 L175 27 L175 25 L174 24 L174 23 L173 22 L173 21 L172 20 L172 17 L171 16 L171 14 L170 13 L170 12 L169 11 Z " fill="black"/></svg>