<svg width="369" height="557" xmlns="http://www.w3.org/2000/svg"><path d="M242 11 L242 12 L241 13 L242 14 L242 17 L241 18 L241 20 L240 21 L240 41 L239 42 L238 42 L236 40 L236 39 L233 36 L233 35 L226 28 L226 27 L224 25 L224 24 L221 21 L221 20 L219 18 L218 18 L217 17 L216 17 L216 22 L217 23 L217 25 L218 26 L218 29 L219 30 L219 36 L220 37 L220 41 L221 42 L221 44 L222 45 L222 46 L223 47 L223 49 L224 50 L224 52 L223 53 L219 49 L219 48 L212 41 L212 40 L206 34 L205 34 L202 31 L201 31 L201 36 L202 37 L202 38 L203 39 L203 40 L204 41 L204 42 L205 43 L205 44 L207 46 L207 47 L209 49 L209 50 L214 55 L214 56 L216 58 L216 59 L215 60 L213 58 L212 58 L211 57 L210 57 L208 55 L207 55 L206 54 L204 54 L203 53 L202 53 L201 52 L200 52 L199 51 L197 51 L196 50 L195 50 L194 49 L193 49 L189 45 L188 45 L186 43 L185 43 L184 44 L184 46 L183 47 L183 53 L184 54 L184 56 L185 57 L185 58 L186 59 L186 60 L191 65 L192 65 L196 69 L197 69 L206 78 L207 78 L210 81 L211 81 L212 82 L216 82 L217 83 L218 83 L219 84 L220 84 L221 85 L222 85 L225 88 L227 88 L228 89 L231 89 L232 90 L236 90 L237 91 L242 91 L247 96 L247 98 L241 104 L240 104 L237 107 L236 107 L234 109 L233 109 L231 111 L230 111 L227 114 L226 114 L220 120 L220 127 L219 128 L219 129 L218 130 L218 134 L217 135 L217 138 L216 139 L216 146 L215 147 L215 152 L213 154 L212 153 L212 150 L211 149 L211 145 L210 144 L210 140 L209 139 L209 136 L208 135 L208 131 L207 130 L207 127 L206 126 L206 125 L205 124 L205 123 L201 119 L199 119 L195 123 L195 124 L191 128 L191 129 L189 131 L189 132 L188 133 L188 134 L187 135 L187 136 L186 137 L186 138 L185 139 L185 140 L183 142 L183 143 L181 145 L181 146 L180 147 L180 148 L178 150 L178 151 L177 152 L177 153 L176 154 L176 155 L175 156 L175 158 L174 159 L174 161 L173 162 L173 163 L172 164 L172 166 L169 169 L168 168 L168 167 L167 166 L167 164 L166 163 L166 161 L165 160 L165 155 L164 154 L164 151 L163 150 L163 146 L162 145 L162 144 L161 143 L161 141 L160 140 L160 139 L159 138 L159 137 L158 136 L158 135 L156 133 L156 132 L152 128 L152 127 L144 119 L143 119 L141 117 L140 117 L139 116 L138 116 L135 113 L135 112 L134 111 L134 108 L133 107 L133 105 L134 104 L134 102 L139 97 L140 97 L143 94 L144 94 L145 93 L146 93 L147 92 L148 92 L150 90 L151 90 L152 89 L153 89 L155 87 L156 87 L158 85 L159 85 L164 80 L164 79 L166 77 L166 76 L167 75 L167 74 L169 72 L169 71 L171 69 L171 68 L173 66 L173 65 L175 63 L175 61 L176 60 L176 55 L177 54 L177 41 L178 40 L178 38 L179 37 L179 33 L178 32 L177 33 L176 33 L174 35 L174 36 L173 37 L173 38 L172 39 L172 41 L171 42 L171 44 L170 45 L170 46 L168 48 L168 49 L166 51 L166 52 L162 56 L162 57 L157 62 L156 62 L155 63 L154 63 L153 62 L153 61 L154 60 L154 58 L156 56 L156 55 L157 54 L157 53 L158 52 L158 51 L159 50 L159 49 L160 48 L160 46 L161 45 L161 41 L162 40 L161 39 L159 39 L157 41 L157 42 L150 49 L150 50 L139 61 L138 60 L138 49 L137 48 L137 45 L136 44 L136 41 L135 40 L135 31 L134 30 L134 23 L133 22 L133 19 L131 19 L131 20 L130 21 L130 22 L129 23 L129 26 L128 27 L128 33 L127 34 L127 37 L126 38 L126 40 L125 41 L125 44 L124 45 L124 46 L122 48 L121 47 L121 46 L120 45 L120 41 L119 40 L119 37 L118 36 L118 32 L117 31 L117 27 L116 26 L116 23 L115 22 L115 21 L112 18 L110 18 L109 19 L109 24 L110 25 L110 31 L111 32 L111 56 L110 57 L110 65 L109 66 L107 66 L105 64 L105 63 L104 62 L104 50 L103 49 L103 45 L102 44 L102 31 L101 30 L100 30 L99 29 L98 30 L97 30 L97 31 L96 32 L96 43 L95 44 L95 49 L96 50 L96 62 L97 63 L97 65 L96 66 L96 71 L95 72 L93 70 L92 70 L91 69 L90 69 L89 68 L88 68 L86 66 L85 66 L75 56 L75 55 L72 52 L72 51 L69 48 L69 47 L63 41 L62 41 L61 40 L60 40 L59 39 L57 39 L56 40 L56 41 L57 42 L57 43 L59 45 L59 46 L61 48 L61 49 L63 51 L63 52 L65 54 L65 55 L66 56 L66 58 L67 59 L67 60 L68 61 L68 62 L69 63 L69 64 L71 66 L71 67 L73 69 L73 70 L81 78 L82 78 L84 80 L84 81 L91 88 L92 88 L94 90 L95 90 L103 98 L102 99 L101 99 L100 98 L99 98 L98 97 L96 97 L94 95 L93 95 L92 94 L91 94 L89 92 L88 92 L85 89 L85 88 L84 88 L83 87 L82 87 L81 88 L80 87 L79 87 L75 83 L75 82 L74 82 L72 80 L66 80 L65 79 L64 79 L63 78 L62 78 L59 75 L58 75 L57 74 L56 74 L55 73 L49 73 L47 71 L46 71 L45 70 L44 70 L44 72 L46 74 L46 75 L49 78 L50 78 L51 79 L52 79 L54 81 L55 81 L59 85 L60 85 L64 89 L65 89 L67 91 L68 91 L70 93 L71 93 L73 95 L74 95 L75 96 L76 96 L77 97 L78 97 L79 98 L80 98 L81 99 L82 99 L83 100 L84 100 L86 102 L88 102 L89 103 L90 103 L91 104 L93 104 L94 105 L95 105 L97 107 L96 108 L91 108 L90 107 L89 107 L88 106 L84 106 L83 105 L68 105 L67 104 L57 104 L56 103 L52 103 L51 102 L48 102 L47 101 L45 101 L44 100 L42 100 L41 99 L39 99 L38 98 L34 98 L33 97 L32 97 L31 98 L29 98 L28 97 L26 97 L23 94 L22 94 L20 92 L18 92 L17 91 L16 91 L15 90 L12 90 L11 91 L11 94 L12 94 L13 95 L13 96 L14 97 L15 97 L17 99 L18 99 L20 101 L21 101 L22 102 L23 102 L24 103 L25 103 L26 104 L27 104 L29 106 L30 106 L34 110 L35 110 L36 111 L37 111 L38 112 L39 112 L40 113 L41 113 L42 114 L44 114 L45 115 L46 115 L51 120 L52 120 L54 122 L56 122 L57 123 L59 123 L60 124 L62 124 L63 125 L65 125 L66 126 L67 126 L68 127 L68 128 L69 128 L70 129 L71 129 L72 130 L76 130 L77 131 L79 131 L80 132 L82 132 L83 133 L84 133 L85 134 L87 134 L88 135 L89 135 L90 136 L92 136 L93 137 L98 137 L99 138 L102 138 L103 139 L104 139 L105 140 L107 140 L108 141 L112 141 L113 142 L130 142 L131 143 L133 143 L134 144 L135 144 L139 148 L140 148 L142 150 L142 151 L145 154 L145 155 L147 157 L147 158 L148 159 L148 161 L149 162 L149 165 L150 166 L150 168 L151 169 L151 172 L152 173 L152 176 L153 177 L153 179 L154 180 L154 183 L155 184 L155 188 L156 189 L156 193 L157 194 L157 197 L158 198 L158 200 L159 201 L159 206 L160 207 L160 210 L161 211 L161 215 L162 216 L162 219 L163 220 L163 222 L164 223 L164 226 L165 227 L165 230 L166 231 L166 236 L167 237 L167 243 L168 244 L168 249 L169 250 L169 254 L170 255 L170 260 L171 261 L171 267 L170 268 L168 266 L168 265 L167 264 L167 262 L166 261 L166 260 L165 259 L165 258 L164 257 L164 256 L163 255 L163 254 L162 253 L162 251 L161 250 L161 248 L160 247 L160 246 L159 245 L159 243 L158 242 L158 241 L157 240 L157 239 L156 238 L156 237 L155 236 L155 235 L154 234 L154 233 L153 232 L153 231 L152 230 L152 229 L150 227 L150 225 L149 224 L149 223 L148 222 L148 220 L147 219 L147 218 L146 217 L146 215 L145 214 L145 210 L144 209 L144 206 L143 205 L143 203 L142 202 L142 201 L141 200 L141 199 L140 198 L140 197 L138 195 L138 194 L131 187 L131 186 L129 184 L128 184 L126 182 L125 182 L124 181 L122 181 L121 180 L120 180 L119 179 L118 179 L117 178 L115 178 L114 177 L111 177 L110 176 L107 176 L106 175 L102 175 L101 174 L97 174 L96 173 L90 173 L89 172 L85 172 L84 171 L80 171 L79 170 L77 170 L76 169 L71 169 L70 168 L67 168 L66 167 L63 167 L62 166 L59 166 L58 165 L54 165 L53 164 L51 164 L50 163 L47 163 L46 162 L43 162 L42 161 L41 161 L40 160 L35 160 L34 159 L33 159 L32 158 L31 158 L29 156 L28 156 L27 155 L23 155 L23 156 L22 157 L22 159 L23 160 L23 161 L26 164 L26 165 L27 165 L29 167 L29 168 L30 168 L32 170 L33 170 L34 171 L34 172 L42 180 L43 180 L45 182 L46 182 L47 183 L48 183 L51 186 L52 186 L54 188 L55 188 L57 190 L58 190 L59 191 L60 191 L61 192 L62 192 L63 193 L65 193 L66 194 L68 194 L69 195 L70 195 L71 196 L72 196 L73 197 L74 197 L75 198 L78 198 L79 199 L81 199 L82 200 L85 200 L86 201 L88 201 L89 202 L93 202 L94 203 L96 203 L98 205 L100 205 L101 206 L103 206 L104 207 L105 207 L106 208 L108 208 L109 209 L110 209 L111 210 L113 210 L115 212 L116 212 L117 213 L119 213 L120 214 L125 214 L126 215 L127 215 L135 223 L135 224 L138 227 L138 228 L139 229 L139 230 L141 232 L141 233 L142 234 L142 235 L143 236 L143 237 L144 238 L144 239 L145 240 L145 241 L146 242 L146 243 L147 244 L147 245 L148 246 L148 247 L149 248 L149 249 L150 250 L150 252 L151 253 L151 254 L152 255 L152 257 L153 258 L153 259 L155 261 L155 262 L156 263 L156 264 L157 265 L157 266 L158 267 L158 268 L159 269 L159 271 L160 272 L160 274 L159 275 L157 273 L157 272 L156 271 L156 269 L155 268 L155 267 L153 265 L153 264 L152 263 L152 262 L148 258 L147 258 L145 256 L144 256 L142 254 L141 254 L137 250 L136 250 L135 249 L134 249 L132 247 L130 247 L129 246 L128 246 L127 245 L125 245 L124 244 L122 244 L121 243 L118 243 L117 242 L114 242 L113 241 L111 241 L110 240 L108 240 L107 239 L106 239 L105 238 L103 238 L102 237 L97 237 L96 236 L93 236 L92 235 L90 235 L89 234 L88 234 L87 233 L86 233 L84 231 L83 231 L81 229 L76 229 L76 231 L77 232 L77 234 L78 235 L78 237 L79 238 L79 239 L80 240 L80 242 L81 243 L81 244 L82 245 L82 246 L83 247 L83 248 L84 249 L84 250 L85 251 L85 252 L86 253 L86 254 L89 257 L89 258 L94 263 L94 264 L98 268 L98 269 L102 273 L103 273 L108 278 L109 278 L112 281 L113 281 L116 284 L117 284 L119 286 L120 286 L121 287 L122 287 L123 288 L124 288 L125 289 L127 289 L128 290 L129 290 L130 291 L132 291 L133 292 L136 292 L137 293 L138 293 L139 294 L140 294 L141 295 L143 295 L144 296 L145 296 L149 300 L149 302 L150 303 L150 304 L151 305 L151 307 L152 308 L152 310 L153 311 L153 313 L154 314 L154 316 L155 317 L155 320 L156 321 L156 323 L157 324 L157 326 L158 327 L158 329 L159 330 L159 331 L161 333 L161 334 L162 335 L162 336 L163 337 L163 339 L164 340 L164 341 L162 343 L160 341 L160 337 L159 336 L159 335 L156 332 L156 331 L148 323 L147 323 L143 319 L142 319 L140 317 L139 317 L138 316 L137 316 L136 315 L134 315 L133 314 L131 314 L130 313 L119 313 L118 312 L117 312 L116 311 L114 311 L113 310 L110 310 L109 311 L88 311 L87 310 L85 310 L84 311 L80 311 L80 314 L86 320 L87 320 L90 323 L91 323 L94 326 L95 326 L96 327 L97 327 L98 328 L99 328 L100 329 L101 329 L102 330 L105 330 L106 331 L108 331 L109 332 L111 332 L112 333 L115 333 L116 334 L120 334 L121 335 L136 335 L137 336 L138 336 L139 337 L140 337 L142 339 L143 339 L147 343 L147 344 L149 346 L149 347 L151 349 L151 351 L152 352 L152 355 L153 356 L153 359 L154 360 L154 361 L155 362 L155 364 L156 365 L156 366 L157 367 L157 368 L158 369 L158 370 L159 371 L159 372 L160 373 L158 375 L156 375 L155 376 L151 376 L150 377 L146 377 L145 378 L142 378 L141 379 L136 379 L135 380 L132 380 L131 381 L130 381 L129 382 L128 382 L127 383 L126 383 L124 385 L123 385 L120 388 L120 389 L119 390 L119 391 L118 392 L118 393 L117 394 L117 395 L116 396 L116 398 L115 399 L115 400 L114 401 L114 402 L113 403 L113 405 L112 406 L112 407 L111 408 L111 409 L109 411 L109 412 L108 413 L108 415 L107 416 L107 417 L106 418 L106 421 L105 422 L105 424 L104 425 L104 426 L103 427 L103 429 L102 430 L102 432 L101 433 L101 435 L100 436 L100 437 L99 438 L99 440 L98 441 L98 443 L97 444 L97 446 L96 447 L96 449 L95 450 L95 452 L94 453 L94 454 L93 455 L93 458 L92 459 L92 460 L91 461 L91 468 L92 469 L92 470 L93 471 L93 472 L94 473 L94 475 L95 476 L95 477 L96 478 L96 479 L97 480 L97 481 L99 483 L99 484 L100 485 L100 486 L101 487 L101 488 L102 489 L102 490 L104 492 L104 493 L105 494 L105 495 L107 497 L107 498 L109 500 L109 501 L110 502 L110 503 L112 505 L112 506 L113 507 L113 508 L116 511 L116 512 L118 514 L118 515 L119 516 L119 517 L121 519 L121 520 L122 521 L122 522 L123 523 L123 524 L124 525 L124 526 L125 527 L125 528 L126 529 L126 530 L128 532 L128 533 L132 537 L134 537 L135 538 L138 538 L139 539 L141 539 L142 540 L147 540 L148 541 L152 541 L153 542 L156 542 L157 543 L164 543 L165 544 L176 544 L177 545 L204 545 L205 544 L217 544 L218 543 L221 543 L222 542 L227 542 L228 541 L232 541 L233 540 L235 540 L236 539 L238 539 L239 538 L240 538 L241 537 L242 537 L243 536 L244 536 L246 534 L246 533 L248 531 L248 530 L249 529 L249 528 L250 527 L250 526 L251 525 L251 524 L252 523 L252 522 L253 521 L253 520 L254 519 L254 518 L255 517 L255 516 L256 515 L256 514 L257 513 L257 512 L258 511 L258 510 L259 509 L259 508 L260 507 L260 505 L261 504 L261 503 L262 502 L262 501 L263 500 L263 499 L264 498 L264 497 L265 496 L265 495 L269 491 L269 490 L271 488 L271 487 L273 485 L273 484 L274 483 L274 482 L275 481 L275 480 L277 478 L277 477 L278 476 L278 475 L280 473 L280 472 L281 471 L281 465 L282 464 L281 463 L281 459 L280 458 L280 457 L279 456 L279 454 L278 453 L278 452 L277 451 L277 449 L276 448 L276 445 L275 444 L275 443 L274 442 L274 440 L273 439 L273 437 L272 436 L272 434 L271 433 L271 431 L270 430 L270 429 L269 428 L269 427 L268 426 L268 424 L267 423 L267 421 L266 420 L266 418 L265 417 L265 415 L264 414 L264 412 L263 411 L263 410 L262 409 L262 407 L261 406 L261 404 L260 403 L260 402 L259 401 L259 399 L258 398 L258 395 L257 394 L257 393 L256 392 L256 391 L254 389 L254 388 L251 385 L250 385 L248 383 L247 383 L246 382 L245 382 L244 381 L243 381 L242 380 L239 380 L238 379 L231 379 L230 378 L222 378 L221 377 L217 377 L216 376 L216 373 L217 372 L217 367 L218 366 L218 363 L219 362 L219 357 L220 356 L220 354 L221 353 L221 349 L222 348 L222 345 L223 344 L223 340 L224 339 L224 338 L225 337 L225 335 L226 334 L226 330 L227 329 L227 327 L228 326 L228 323 L229 322 L229 320 L230 319 L230 317 L231 316 L231 313 L232 312 L232 309 L233 308 L233 307 L235 305 L235 304 L237 302 L237 301 L238 300 L238 299 L239 298 L239 297 L240 296 L240 295 L242 293 L242 292 L244 290 L244 289 L250 283 L251 283 L252 282 L253 282 L254 281 L254 280 L255 279 L255 278 L257 276 L259 276 L260 275 L263 275 L264 274 L266 274 L267 273 L270 273 L271 272 L274 272 L275 271 L279 271 L280 270 L284 270 L285 269 L289 269 L290 268 L293 268 L294 267 L296 267 L297 266 L300 266 L301 265 L303 265 L304 264 L306 264 L307 263 L308 263 L309 262 L311 262 L312 261 L314 261 L315 260 L317 260 L318 259 L320 259 L321 258 L322 258 L323 257 L325 257 L326 256 L326 255 L330 251 L331 251 L333 249 L334 249 L334 248 L336 246 L336 245 L337 244 L337 243 L338 242 L338 241 L339 240 L339 239 L340 238 L340 237 L342 235 L342 234 L338 234 L337 235 L333 235 L332 236 L330 236 L329 237 L326 237 L325 238 L318 238 L317 239 L313 239 L312 240 L310 240 L308 242 L305 242 L304 243 L287 243 L286 244 L275 244 L274 245 L265 245 L263 247 L262 247 L260 249 L259 249 L258 250 L257 250 L256 251 L255 251 L253 253 L252 253 L250 255 L249 255 L245 259 L245 260 L243 262 L243 263 L240 266 L240 267 L238 269 L238 270 L236 272 L236 273 L235 274 L235 275 L234 276 L234 277 L233 278 L233 279 L232 280 L232 281 L231 282 L231 283 L230 284 L230 286 L229 287 L229 288 L228 289 L228 291 L227 292 L227 293 L226 294 L226 296 L225 297 L225 298 L224 299 L224 300 L223 301 L223 302 L222 303 L222 305 L221 306 L221 308 L220 309 L220 311 L219 312 L219 313 L218 314 L218 316 L217 317 L217 318 L216 319 L216 320 L215 321 L215 323 L214 324 L214 326 L213 327 L213 328 L212 329 L212 330 L211 331 L210 330 L210 321 L211 320 L211 316 L212 315 L212 313 L213 312 L213 310 L214 309 L214 307 L215 306 L215 304 L216 303 L216 301 L217 300 L217 296 L218 295 L218 291 L219 290 L219 288 L220 287 L220 286 L221 285 L221 283 L222 282 L222 281 L223 280 L223 278 L224 277 L224 273 L225 272 L225 264 L226 263 L227 263 L228 264 L228 269 L229 268 L229 260 L230 259 L230 257 L231 256 L231 254 L232 253 L232 252 L233 251 L233 250 L234 249 L234 247 L235 246 L235 245 L236 244 L236 243 L237 242 L237 240 L239 238 L239 237 L240 236 L240 235 L241 234 L241 233 L242 232 L243 232 L244 231 L245 231 L247 229 L248 229 L248 228 L250 226 L250 225 L251 224 L251 223 L255 219 L256 219 L257 218 L258 218 L259 217 L260 217 L261 216 L262 216 L264 214 L265 214 L268 211 L269 211 L273 207 L274 207 L276 205 L277 205 L284 198 L285 198 L294 189 L294 188 L296 186 L297 186 L304 179 L304 178 L307 175 L307 174 L308 173 L308 172 L309 171 L309 169 L310 168 L310 166 L311 165 L311 164 L312 163 L312 162 L313 161 L313 160 L314 159 L314 158 L315 157 L315 156 L316 155 L316 153 L317 152 L317 151 L318 150 L318 143 L315 143 L314 144 L313 144 L310 147 L309 147 L308 148 L307 148 L306 149 L305 149 L304 150 L302 150 L301 151 L300 151 L299 152 L297 152 L296 153 L295 153 L294 154 L293 154 L292 155 L290 155 L289 156 L288 156 L287 157 L286 157 L284 159 L283 159 L282 160 L281 160 L280 161 L278 161 L277 162 L275 162 L274 163 L273 163 L272 164 L271 164 L270 165 L269 165 L267 167 L266 167 L265 168 L264 168 L262 170 L261 170 L260 171 L259 171 L258 172 L257 172 L256 173 L255 173 L252 176 L251 176 L245 182 L244 182 L242 184 L242 185 L239 188 L239 189 L236 192 L236 193 L235 194 L235 195 L234 196 L234 198 L233 199 L233 200 L232 201 L232 202 L231 203 L231 205 L230 206 L230 208 L229 209 L229 212 L228 213 L228 217 L227 218 L227 222 L226 223 L226 225 L225 226 L225 227 L224 228 L224 230 L223 231 L223 232 L222 233 L222 235 L221 236 L221 239 L220 240 L220 243 L219 244 L219 247 L218 248 L218 253 L217 254 L217 256 L214 259 L214 260 L213 261 L213 267 L212 268 L212 271 L211 272 L211 275 L210 276 L210 278 L209 279 L209 280 L207 282 L206 281 L206 280 L205 279 L205 261 L204 260 L204 254 L205 253 L205 251 L206 250 L206 249 L207 248 L207 247 L208 246 L208 245 L209 244 L209 242 L210 241 L210 240 L211 239 L211 236 L212 235 L212 229 L213 228 L213 224 L214 223 L214 221 L215 220 L215 219 L216 218 L216 215 L217 214 L217 212 L218 211 L218 207 L219 206 L219 201 L220 200 L220 196 L221 195 L221 192 L222 191 L222 187 L223 186 L223 183 L224 182 L224 176 L225 175 L225 171 L226 170 L226 167 L227 166 L227 160 L228 159 L228 154 L229 153 L229 150 L230 149 L230 145 L231 144 L231 141 L232 140 L232 138 L236 134 L237 134 L238 133 L242 133 L243 132 L247 132 L248 131 L250 131 L251 130 L253 130 L254 129 L256 129 L257 128 L258 128 L259 127 L260 127 L261 126 L263 126 L264 125 L265 125 L266 124 L269 124 L270 123 L272 123 L273 122 L274 122 L275 121 L277 121 L278 120 L285 120 L286 119 L287 119 L288 118 L290 118 L291 117 L292 117 L294 115 L295 115 L296 114 L297 114 L298 113 L299 113 L300 112 L302 112 L303 111 L305 111 L306 110 L307 110 L311 106 L312 106 L313 105 L314 105 L315 104 L317 104 L318 103 L319 103 L320 102 L321 102 L324 99 L325 99 L326 98 L328 98 L329 97 L330 97 L331 96 L332 96 L335 93 L336 93 L337 92 L339 92 L340 91 L341 91 L347 85 L347 84 L348 83 L349 83 L350 82 L351 82 L352 81 L353 81 L353 80 L354 79 L354 78 L355 77 L355 76 L357 74 L357 71 L354 71 L353 72 L352 72 L351 73 L350 73 L349 74 L348 74 L347 75 L347 76 L345 78 L341 78 L340 79 L337 79 L336 80 L333 80 L332 81 L328 81 L327 82 L324 82 L323 83 L320 83 L319 84 L314 84 L313 85 L304 85 L303 86 L302 85 L301 86 L295 86 L294 87 L290 87 L289 88 L287 88 L286 89 L285 89 L284 90 L283 90 L282 91 L281 91 L280 92 L279 92 L278 93 L277 93 L276 92 L276 91 L279 88 L280 88 L282 86 L283 86 L287 82 L288 82 L298 72 L299 72 L300 71 L301 71 L308 64 L308 63 L315 56 L315 55 L321 49 L321 48 L323 46 L322 45 L321 45 L320 46 L319 46 L318 47 L317 47 L314 50 L313 50 L308 55 L307 55 L305 57 L304 57 L303 58 L302 58 L301 59 L300 59 L299 60 L298 60 L297 61 L296 61 L294 63 L293 63 L290 66 L289 66 L286 69 L286 70 L283 73 L282 73 L281 72 L281 61 L282 60 L282 49 L283 48 L283 39 L282 38 L282 34 L281 33 L281 31 L280 30 L280 28 L279 27 L279 26 L280 25 L280 18 L281 17 L280 16 L281 15 L281 12 L280 11 L276 15 L276 16 L275 17 L275 18 L274 19 L274 20 L273 21 L273 23 L272 24 L272 25 L271 26 L271 27 L270 28 L270 31 L269 32 L269 34 L268 35 L268 38 L267 39 L267 42 L266 43 L266 46 L265 47 L265 48 L264 49 L263 49 L262 48 L262 47 L261 46 L261 44 L260 43 L260 42 L259 41 L259 40 L258 39 L258 38 L257 37 L257 36 L255 34 L255 33 L252 30 L252 29 L251 28 L251 27 L250 26 L250 24 L249 23 L249 22 L248 21 L248 18 L246 16 L246 12 L245 11 Z " fill="black"/></svg>