<svg width="529" height="857" xmlns="http://www.w3.org/2000/svg"><path d="M14 856 L16 856 Z M25 847 L24 848 L24 850 L23 851 L23 852 L22 853 L21 853 L18 856 L50 856 L49 855 L48 855 L45 852 L44 852 L39 847 L38 847 L37 848 L35 848 L34 849 L28 849 L26 847 Z M488 804 L489 805 L489 806 L490 807 L490 808 L491 808 L494 811 L494 812 L497 815 L497 816 L498 817 L498 818 L499 819 L499 820 L507 828 L507 829 L509 831 L509 833 L510 834 L510 837 L511 838 L511 839 L512 840 L512 841 L517 846 L517 847 L518 848 L518 849 L519 850 L519 853 L520 854 L520 855 L521 856 L528 856 L528 832 L513 817 L512 817 L508 813 L507 813 L503 809 L502 809 L501 808 L500 808 L499 807 L498 807 L497 806 L496 806 L495 805 L494 805 L493 804 Z M216 119 L215 120 L216 121 L216 122 L217 123 L217 122 L216 121 Z M255 11 L255 12 L254 13 L254 14 L253 15 L253 17 L252 18 L252 20 L251 21 L251 23 L250 24 L250 27 L249 28 L249 30 L248 31 L248 34 L247 35 L247 38 L246 39 L246 41 L245 42 L245 45 L244 46 L244 49 L243 50 L243 54 L242 55 L242 59 L241 60 L241 64 L240 65 L240 69 L239 70 L239 76 L238 77 L238 78 L237 79 L237 80 L236 81 L236 83 L235 84 L235 85 L234 86 L234 90 L233 91 L233 94 L232 95 L232 99 L231 100 L231 105 L230 106 L230 111 L228 113 L226 111 L226 109 L225 108 L225 106 L224 105 L224 104 L223 103 L223 101 L222 100 L222 99 L220 99 L219 100 L219 116 L220 117 L220 129 L219 130 L219 133 L218 134 L218 135 L217 136 L217 137 L216 138 L215 137 L215 136 L214 135 L214 131 L213 130 L213 120 L212 119 L212 117 L211 116 L211 112 L210 111 L210 107 L209 106 L209 100 L208 99 L208 97 L207 96 L207 91 L206 90 L206 87 L205 86 L205 83 L204 82 L204 79 L203 78 L203 74 L202 73 L202 69 L201 68 L201 65 L200 64 L200 62 L199 61 L197 61 L196 62 L196 66 L195 67 L195 77 L194 78 L194 84 L193 85 L193 88 L192 89 L192 93 L191 94 L191 98 L190 99 L190 104 L189 105 L189 113 L188 114 L188 120 L187 121 L187 126 L186 127 L186 132 L185 133 L185 134 L184 135 L184 140 L183 141 L183 142 L182 143 L181 142 L181 141 L180 140 L180 138 L179 137 L179 135 L178 134 L178 132 L177 131 L177 130 L176 129 L176 128 L175 127 L175 125 L174 124 L174 123 L173 122 L173 121 L172 120 L172 118 L171 117 L171 116 L170 115 L170 114 L169 113 L169 112 L168 111 L168 108 L167 107 L167 106 L166 105 L166 103 L165 102 L165 100 L164 99 L164 98 L163 97 L163 95 L162 94 L162 93 L161 92 L161 90 L160 89 L160 87 L159 86 L159 84 L158 83 L158 81 L157 80 L157 78 L156 77 L156 73 L155 72 L155 70 L154 69 L154 65 L153 64 L153 60 L152 59 L152 56 L151 55 L151 50 L150 49 L150 45 L149 44 L149 40 L147 40 L146 41 L146 43 L145 44 L145 47 L144 48 L144 52 L143 53 L143 59 L142 60 L142 64 L141 65 L141 70 L140 71 L140 80 L139 81 L139 89 L138 90 L138 103 L137 104 L137 117 L138 118 L138 132 L139 133 L139 138 L140 139 L140 148 L141 149 L141 158 L142 159 L142 164 L143 165 L143 168 L144 169 L144 171 L145 172 L145 174 L146 175 L146 178 L147 179 L147 182 L148 183 L148 187 L149 188 L149 192 L150 193 L150 196 L151 197 L151 199 L152 200 L152 202 L153 203 L153 205 L154 206 L154 208 L155 209 L155 211 L156 212 L156 213 L155 214 L153 212 L153 211 L152 210 L152 209 L150 207 L150 206 L149 205 L149 204 L147 202 L147 201 L145 199 L145 198 L143 196 L143 195 L141 193 L141 192 L139 190 L139 189 L138 188 L138 187 L137 186 L137 185 L136 184 L136 183 L135 182 L135 180 L134 179 L134 178 L133 177 L133 175 L132 174 L132 173 L131 172 L131 171 L130 170 L130 169 L129 168 L129 167 L128 166 L128 165 L127 164 L127 163 L126 162 L126 161 L125 160 L125 159 L123 157 L123 156 L122 155 L122 154 L121 153 L121 152 L120 151 L120 150 L119 149 L119 148 L118 147 L118 145 L117 144 L117 143 L116 142 L116 141 L115 140 L115 138 L114 137 L114 135 L113 134 L113 132 L112 131 L112 128 L111 127 L111 125 L110 124 L110 122 L109 121 L109 119 L108 118 L108 117 L107 116 L107 114 L106 113 L106 112 L105 111 L104 111 L103 112 L103 117 L102 118 L102 129 L101 130 L101 132 L102 133 L102 152 L103 153 L103 169 L104 170 L104 175 L105 176 L105 179 L106 180 L106 184 L107 185 L107 189 L108 190 L108 191 L110 193 L110 194 L111 195 L111 197 L112 198 L112 204 L113 205 L113 209 L114 210 L114 213 L115 214 L115 216 L116 217 L116 218 L117 219 L117 221 L118 222 L118 225 L119 226 L119 228 L120 229 L120 231 L119 232 L120 233 L120 234 L121 235 L121 236 L123 238 L123 239 L124 240 L124 241 L125 242 L125 244 L124 245 L121 242 L121 241 L119 239 L119 238 L118 238 L117 237 L117 236 L116 235 L115 235 L105 225 L104 225 L103 224 L103 223 L95 215 L95 214 L88 207 L87 207 L66 186 L66 185 L65 185 L62 182 L62 181 L54 173 L54 172 L45 163 L45 162 L43 160 L43 159 L42 158 L42 157 L40 155 L39 156 L39 157 L40 158 L40 163 L41 164 L41 168 L42 169 L42 173 L43 174 L43 177 L44 178 L44 179 L45 180 L45 182 L46 183 L46 185 L47 186 L47 188 L48 189 L48 191 L49 192 L49 194 L50 195 L50 196 L51 197 L51 199 L52 200 L52 202 L53 203 L53 204 L54 205 L54 206 L55 207 L55 208 L56 209 L56 211 L57 212 L57 214 L58 215 L58 218 L59 219 L59 221 L60 222 L60 224 L61 225 L61 226 L62 227 L62 228 L64 230 L64 231 L66 233 L66 234 L67 235 L67 236 L68 237 L68 239 L69 240 L69 241 L70 242 L70 245 L71 246 L71 247 L72 248 L72 250 L74 252 L74 253 L76 255 L76 256 L78 258 L78 259 L79 260 L79 261 L80 262 L80 264 L81 265 L81 266 L82 267 L82 269 L84 271 L84 272 L88 276 L88 277 L89 278 L89 282 L90 283 L90 284 L91 285 L91 286 L93 288 L93 289 L95 291 L95 292 L96 293 L96 294 L99 297 L99 298 L100 299 L100 300 L104 304 L104 305 L114 315 L114 316 L115 317 L114 318 L110 318 L109 317 L106 317 L105 316 L104 316 L103 315 L102 315 L101 314 L99 314 L98 313 L97 313 L96 312 L94 312 L93 311 L92 311 L91 310 L90 310 L89 309 L87 309 L86 308 L85 308 L84 307 L83 307 L82 306 L80 306 L79 305 L77 305 L76 304 L75 304 L74 303 L72 303 L71 302 L70 302 L69 301 L68 301 L67 300 L65 300 L64 299 L63 299 L62 298 L60 298 L59 297 L58 297 L57 296 L55 296 L54 295 L51 295 L49 293 L48 293 L47 292 L45 292 L44 291 L42 291 L41 290 L39 290 L38 289 L35 289 L34 288 L33 288 L32 287 L30 287 L29 286 L28 286 L27 285 L26 285 L25 284 L23 284 L22 283 L21 283 L19 281 L18 281 L17 280 L14 280 L13 279 L12 280 L11 280 L11 282 L12 283 L12 284 L14 286 L14 287 L20 293 L20 294 L24 298 L24 299 L28 303 L28 304 L33 309 L33 310 L47 324 L48 324 L52 328 L53 328 L57 332 L58 332 L70 344 L70 345 L71 346 L71 347 L77 353 L78 353 L80 355 L81 355 L82 356 L83 356 L85 358 L86 358 L87 359 L88 359 L89 360 L91 360 L92 361 L94 361 L96 363 L96 364 L95 365 L92 365 L91 366 L89 366 L88 367 L86 367 L85 368 L83 368 L82 369 L80 369 L79 370 L77 370 L76 371 L73 371 L72 372 L70 372 L69 373 L66 373 L65 374 L62 374 L61 375 L59 375 L58 376 L56 376 L55 377 L54 377 L53 378 L51 378 L50 379 L49 379 L48 380 L47 380 L46 381 L45 381 L43 383 L42 383 L41 384 L40 384 L39 385 L38 385 L37 386 L36 386 L35 387 L34 387 L28 393 L27 393 L25 395 L24 395 L22 397 L22 399 L21 400 L21 401 L18 404 L18 405 L16 407 L16 408 L15 409 L15 411 L14 412 L14 418 L15 419 L15 421 L14 422 L14 427 L15 428 L15 435 L16 436 L16 440 L17 441 L17 446 L18 447 L18 452 L19 453 L19 457 L20 458 L20 462 L21 463 L21 470 L22 471 L22 475 L23 476 L23 478 L24 479 L24 481 L25 482 L25 486 L26 487 L26 491 L27 492 L27 495 L28 496 L28 499 L29 500 L29 502 L30 503 L30 504 L31 505 L31 506 L32 507 L32 508 L34 510 L34 511 L43 520 L43 521 L45 523 L46 523 L47 524 L48 524 L50 526 L50 529 L51 530 L51 534 L52 535 L52 538 L53 539 L53 541 L54 542 L54 543 L55 544 L55 545 L56 546 L56 553 L57 554 L57 558 L58 559 L58 562 L59 563 L59 567 L60 568 L60 575 L61 576 L61 578 L62 579 L62 580 L63 581 L63 583 L64 584 L64 588 L65 589 L65 592 L66 593 L66 597 L67 598 L67 605 L68 606 L68 610 L69 611 L69 613 L70 614 L70 616 L71 617 L71 621 L72 622 L72 624 L73 625 L73 629 L74 630 L74 635 L75 636 L75 642 L76 643 L76 648 L77 649 L77 654 L78 655 L78 661 L79 662 L79 665 L80 666 L80 671 L81 672 L81 676 L82 677 L82 681 L83 682 L83 686 L84 687 L84 690 L85 691 L85 692 L86 693 L86 695 L87 696 L87 698 L88 699 L88 701 L89 702 L89 706 L90 707 L90 712 L91 713 L91 716 L92 717 L92 719 L93 720 L93 722 L94 723 L94 727 L95 728 L95 732 L96 733 L96 736 L97 737 L97 739 L98 740 L98 741 L99 742 L99 744 L100 745 L100 748 L101 749 L101 754 L102 755 L102 761 L103 762 L103 764 L104 765 L104 766 L105 767 L105 769 L106 770 L106 772 L107 773 L107 778 L108 779 L108 782 L109 783 L109 784 L110 785 L110 786 L112 788 L112 791 L113 792 L113 794 L114 795 L114 796 L116 798 L116 799 L118 801 L118 802 L125 809 L125 810 L126 810 L129 813 L130 813 L133 816 L134 816 L135 817 L136 817 L137 818 L138 818 L139 819 L140 819 L142 821 L143 821 L144 822 L145 822 L146 823 L147 823 L148 824 L149 824 L150 825 L151 825 L152 826 L153 826 L154 827 L155 827 L156 828 L158 828 L159 829 L161 829 L162 830 L164 830 L165 831 L168 831 L169 832 L171 832 L172 833 L174 833 L175 834 L178 834 L179 835 L183 835 L184 836 L187 836 L188 837 L190 837 L191 838 L195 838 L196 839 L201 839 L202 840 L208 840 L209 841 L217 841 L218 842 L228 842 L229 843 L232 843 L233 844 L241 844 L242 845 L271 845 L272 846 L276 846 L277 845 L278 846 L279 845 L288 845 L289 844 L300 844 L301 843 L309 843 L310 842 L324 842 L325 841 L329 841 L330 840 L335 840 L336 839 L341 839 L342 838 L347 838 L348 837 L352 837 L353 836 L356 836 L357 835 L359 835 L360 834 L362 834 L363 833 L366 833 L367 832 L369 832 L370 831 L372 831 L373 830 L375 830 L376 829 L377 829 L378 828 L380 828 L381 827 L382 827 L383 826 L384 826 L385 825 L387 825 L389 823 L391 823 L392 822 L393 822 L394 821 L395 821 L396 820 L397 820 L398 819 L399 819 L402 816 L403 816 L408 811 L410 811 L411 810 L412 810 L412 809 L416 805 L416 804 L421 799 L421 798 L424 795 L424 794 L425 793 L425 792 L426 791 L426 789 L427 788 L427 786 L428 785 L428 783 L429 782 L429 780 L430 779 L430 777 L431 776 L431 772 L432 771 L432 767 L433 766 L433 762 L434 761 L434 758 L435 757 L435 755 L436 754 L436 751 L437 750 L437 747 L438 746 L438 742 L439 741 L439 737 L440 736 L440 732 L441 731 L441 728 L442 727 L442 723 L443 722 L443 718 L444 717 L444 712 L445 711 L445 707 L446 706 L446 701 L447 700 L447 697 L448 696 L448 692 L449 691 L449 688 L450 687 L450 682 L451 681 L451 678 L452 677 L452 675 L453 674 L453 672 L454 671 L454 668 L455 667 L455 662 L456 661 L456 656 L457 655 L457 650 L458 649 L458 644 L459 643 L459 640 L460 639 L460 635 L461 634 L461 628 L462 627 L462 623 L463 622 L463 619 L464 618 L464 614 L465 613 L465 610 L466 609 L466 606 L467 605 L467 599 L468 598 L468 593 L469 592 L469 589 L470 588 L470 585 L471 584 L471 580 L472 579 L472 575 L473 574 L473 568 L474 567 L474 563 L475 562 L475 558 L476 557 L476 554 L477 553 L477 550 L478 549 L478 546 L479 545 L479 543 L480 542 L480 540 L481 539 L481 535 L482 534 L482 530 L483 529 L483 527 L484 526 L484 525 L488 521 L489 521 L490 520 L491 520 L492 519 L493 519 L494 518 L495 518 L500 513 L500 512 L501 511 L501 510 L503 508 L503 507 L504 506 L504 505 L505 504 L505 501 L506 500 L506 497 L507 496 L507 490 L508 489 L508 486 L509 485 L509 483 L510 482 L510 478 L511 477 L511 470 L512 469 L512 461 L513 460 L513 456 L514 455 L514 447 L515 446 L515 438 L516 437 L516 429 L517 428 L517 409 L516 408 L516 404 L515 403 L515 402 L514 401 L514 400 L512 398 L512 397 L511 396 L510 396 L509 395 L509 394 L507 392 L507 391 L504 388 L503 388 L502 387 L501 387 L500 386 L499 386 L498 385 L496 385 L495 384 L494 384 L493 383 L492 383 L491 382 L490 382 L489 381 L488 381 L487 380 L486 380 L485 379 L484 379 L483 378 L482 378 L481 377 L479 377 L478 376 L476 376 L475 375 L470 375 L467 372 L466 372 L465 371 L464 371 L463 370 L463 369 L473 359 L474 359 L478 355 L479 355 L481 353 L482 353 L484 351 L485 351 L487 349 L488 349 L490 347 L491 347 L500 338 L500 337 L503 334 L504 334 L508 330 L508 328 L507 327 L504 327 L503 328 L500 328 L499 329 L493 329 L492 330 L489 330 L488 331 L486 331 L485 332 L480 332 L479 333 L475 333 L474 334 L469 334 L468 335 L464 335 L463 336 L459 336 L458 337 L456 337 L455 338 L453 338 L452 339 L451 339 L450 340 L449 340 L448 341 L445 341 L444 342 L443 342 L441 340 L441 339 L442 338 L442 337 L445 334 L446 334 L447 333 L447 332 L446 332 L445 331 L446 330 L446 329 L457 318 L457 317 L459 315 L459 314 L460 313 L460 311 L461 310 L461 309 L462 308 L462 307 L468 301 L468 300 L470 298 L470 297 L472 295 L472 294 L473 293 L473 292 L475 290 L475 289 L477 287 L477 286 L479 284 L479 283 L481 281 L481 280 L482 279 L482 278 L484 276 L484 275 L487 272 L487 271 L489 269 L489 268 L491 266 L491 265 L493 263 L493 262 L496 259 L496 258 L499 255 L499 254 L502 251 L502 250 L505 247 L505 246 L509 242 L509 241 L511 239 L511 238 L512 237 L512 236 L514 234 L514 233 L515 232 L515 231 L516 230 L515 229 L510 229 L509 230 L507 230 L506 231 L505 231 L504 232 L501 232 L499 234 L497 234 L496 235 L495 235 L494 236 L493 236 L492 237 L491 237 L489 239 L488 239 L487 240 L486 240 L484 242 L483 242 L480 245 L479 245 L476 248 L475 248 L471 252 L470 252 L468 254 L467 254 L464 257 L463 257 L460 260 L459 260 L455 264 L454 264 L443 275 L442 275 L438 279 L437 279 L436 280 L435 280 L433 282 L432 282 L430 284 L429 284 L428 285 L427 285 L426 284 L426 282 L427 281 L427 280 L430 277 L430 276 L432 274 L432 273 L434 271 L434 270 L436 268 L436 267 L437 266 L437 265 L438 264 L438 263 L439 262 L439 261 L440 260 L440 259 L441 258 L441 257 L442 256 L442 254 L443 253 L443 252 L444 251 L444 250 L445 249 L445 248 L446 247 L446 246 L447 245 L447 242 L448 241 L448 240 L449 239 L449 238 L450 237 L450 236 L451 235 L451 234 L452 233 L452 232 L453 231 L453 230 L454 229 L454 228 L455 227 L455 226 L456 225 L456 224 L457 223 L457 222 L458 221 L458 220 L459 219 L459 218 L460 217 L460 215 L461 214 L461 213 L462 212 L462 210 L463 209 L463 207 L464 206 L464 203 L466 201 L466 200 L467 199 L467 197 L468 196 L468 195 L469 194 L469 193 L470 192 L470 191 L471 190 L471 187 L472 186 L472 183 L473 182 L473 180 L474 179 L474 177 L475 176 L475 175 L476 174 L476 172 L477 171 L477 169 L478 168 L478 167 L479 166 L479 164 L480 163 L480 162 L481 161 L481 159 L482 158 L482 157 L483 156 L483 154 L484 153 L484 151 L485 150 L485 149 L486 148 L486 145 L487 144 L487 137 L486 137 L482 141 L482 142 L479 145 L478 145 L476 147 L475 147 L472 150 L472 151 L467 156 L467 157 L456 168 L456 169 L445 180 L445 181 L443 183 L443 184 L442 185 L442 186 L436 192 L435 192 L433 194 L432 194 L429 197 L428 197 L418 207 L418 208 L414 212 L414 213 L406 221 L405 220 L405 215 L406 214 L406 212 L407 211 L407 208 L408 207 L408 202 L409 201 L409 199 L410 198 L410 195 L411 194 L411 191 L412 190 L412 188 L413 187 L413 183 L414 182 L414 176 L415 175 L415 171 L416 170 L416 167 L417 166 L417 161 L418 160 L418 155 L419 154 L419 134 L420 133 L420 85 L419 84 L419 80 L418 79 L418 71 L417 70 L417 69 L416 68 L414 68 L413 69 L413 70 L412 71 L412 72 L411 73 L411 75 L410 76 L410 78 L409 79 L409 81 L408 82 L408 84 L407 85 L407 86 L406 87 L406 89 L405 90 L405 91 L404 92 L404 93 L403 94 L403 95 L402 96 L402 99 L401 100 L401 104 L400 105 L400 108 L399 109 L399 111 L398 112 L398 113 L397 114 L397 115 L396 116 L396 118 L395 119 L395 120 L394 121 L394 122 L393 123 L393 124 L392 125 L392 126 L391 127 L391 129 L390 130 L390 131 L389 132 L389 134 L388 135 L388 137 L387 138 L387 139 L386 140 L386 142 L385 143 L385 144 L384 145 L384 147 L383 148 L383 149 L382 150 L382 151 L381 152 L381 154 L380 155 L380 156 L378 158 L378 159 L377 160 L377 161 L376 162 L376 163 L375 164 L375 165 L374 166 L374 167 L373 168 L373 169 L372 170 L372 172 L371 173 L371 174 L370 175 L370 176 L369 177 L369 178 L367 180 L366 179 L366 161 L365 160 L365 144 L366 143 L366 140 L367 139 L367 137 L368 136 L368 134 L369 133 L369 130 L370 129 L370 124 L369 123 L368 123 L367 124 L366 124 L362 128 L361 128 L360 127 L360 126 L359 125 L359 110 L358 109 L358 106 L357 105 L357 102 L356 101 L356 99 L357 98 L357 90 L356 89 L356 84 L355 83 L355 81 L354 80 L354 65 L353 64 L353 60 L352 59 L352 57 L351 56 L351 53 L350 52 L350 46 L349 45 L349 40 L348 39 L348 35 L347 34 L347 30 L346 29 L346 25 L345 24 L345 23 L344 23 L342 25 L342 26 L341 27 L341 29 L340 30 L340 33 L339 34 L339 42 L338 43 L338 45 L337 46 L337 50 L336 51 L336 54 L335 55 L335 58 L334 59 L334 68 L333 69 L333 70 L332 71 L332 72 L331 73 L331 74 L330 75 L330 76 L329 77 L329 78 L328 79 L328 80 L327 81 L327 83 L326 84 L326 86 L325 87 L325 90 L324 91 L324 94 L323 95 L323 98 L322 99 L322 100 L319 103 L319 104 L318 105 L318 107 L317 108 L317 112 L316 113 L316 116 L315 117 L315 119 L314 120 L312 118 L312 113 L311 112 L311 107 L310 106 L310 101 L309 100 L309 95 L308 94 L308 89 L307 88 L307 83 L306 82 L306 74 L305 73 L305 70 L304 69 L304 67 L303 66 L302 66 L302 67 L301 68 L301 69 L300 70 L300 71 L299 72 L299 74 L298 75 L298 77 L297 78 L297 80 L296 81 L296 84 L295 85 L295 88 L294 89 L294 91 L293 92 L293 94 L292 95 L292 97 L291 98 L291 100 L290 101 L290 103 L289 104 L289 105 L288 106 L288 108 L287 109 L287 111 L286 112 L286 115 L285 116 L285 117 L283 119 L282 118 L282 117 L281 116 L281 108 L280 107 L280 106 L279 105 L279 104 L276 101 L276 96 L275 95 L275 90 L274 89 L274 83 L273 82 L273 78 L272 77 L272 76 L271 75 L271 73 L270 72 L270 69 L269 68 L269 65 L268 64 L268 59 L267 58 L267 53 L266 52 L266 47 L265 46 L265 43 L264 42 L264 40 L263 39 L263 34 L262 33 L262 30 L261 29 L261 27 L260 26 L260 23 L259 22 L259 18 L258 17 L258 13 L257 12 L257 11 Z M508 0 L508 20 L509 21 L509 28 L510 29 L510 33 L511 34 L511 37 L512 38 L512 40 L513 41 L513 43 L514 44 L514 46 L515 47 L515 49 L516 50 L516 52 L517 53 L517 55 L518 56 L518 57 L519 58 L519 59 L520 60 L520 61 L521 62 L521 63 L522 64 L522 65 L523 66 L523 67 L524 68 L524 69 L525 70 L525 72 L526 73 L526 74 L527 75 L527 76 L528 77 L528 78 L528 0 Z " fill="black"/></svg>