<svg width="711" height="616" xmlns="http://www.w3.org/2000/svg"><path d="M449 10 L448 11 L440 11 L439 12 L434 12 L433 13 L426 13 L425 14 L418 14 L417 15 L411 15 L410 16 L404 16 L403 17 L396 17 L395 18 L388 18 L387 19 L380 19 L379 20 L372 20 L371 21 L364 21 L363 22 L356 22 L355 23 L347 23 L346 24 L338 24 L337 25 L331 25 L330 26 L322 26 L321 27 L313 27 L312 28 L306 28 L305 29 L298 29 L297 30 L290 30 L289 31 L283 31 L282 32 L276 32 L275 33 L268 33 L267 34 L260 34 L259 35 L253 35 L252 36 L246 36 L245 37 L237 37 L236 38 L229 38 L228 39 L221 39 L220 40 L213 40 L212 41 L206 41 L205 42 L198 42 L197 43 L190 43 L189 44 L183 44 L182 45 L175 45 L174 46 L164 46 L163 47 L154 47 L153 48 L144 48 L143 49 L135 49 L134 50 L127 50 L126 51 L122 51 L121 52 L117 52 L116 53 L111 53 L110 54 L109 54 L108 55 L107 55 L106 56 L105 56 L99 62 L98 62 L94 66 L93 66 L90 69 L89 69 L86 72 L85 72 L79 78 L79 79 L63 95 L63 96 L39 120 L38 120 L34 124 L34 125 L33 126 L33 127 L32 128 L32 131 L31 132 L31 138 L30 139 L30 144 L29 145 L29 150 L28 151 L28 157 L27 158 L27 162 L26 163 L26 168 L25 169 L25 174 L24 175 L24 180 L23 181 L23 189 L22 190 L22 195 L21 196 L21 201 L20 202 L20 207 L19 208 L19 213 L18 214 L18 218 L17 219 L17 224 L16 225 L16 230 L15 231 L15 238 L14 239 L14 245 L15 246 L15 250 L16 251 L16 254 L17 255 L17 258 L18 259 L18 261 L19 262 L19 264 L20 265 L20 268 L21 269 L21 271 L22 272 L22 275 L23 276 L23 279 L24 280 L24 282 L25 283 L25 286 L26 287 L26 289 L27 290 L27 293 L28 294 L28 297 L29 298 L29 300 L30 301 L30 304 L31 305 L31 308 L32 309 L32 311 L33 312 L33 315 L34 316 L34 319 L35 320 L35 322 L36 323 L36 326 L37 327 L37 330 L38 331 L38 334 L39 335 L39 337 L40 338 L40 339 L41 340 L41 341 L42 342 L42 344 L43 345 L43 347 L44 348 L44 349 L45 350 L45 351 L46 352 L46 354 L47 355 L46 356 L46 359 L45 360 L45 363 L44 364 L44 365 L43 366 L43 369 L42 370 L42 373 L41 374 L41 376 L40 377 L40 379 L39 380 L39 383 L38 384 L38 387 L37 388 L37 390 L36 391 L36 395 L35 396 L35 397 L34 398 L34 401 L33 402 L33 405 L32 406 L32 409 L31 410 L31 411 L30 412 L30 415 L29 416 L29 418 L28 419 L28 422 L27 423 L27 426 L26 427 L26 430 L25 431 L25 433 L24 434 L24 438 L23 439 L23 442 L22 443 L22 444 L21 445 L21 447 L20 448 L20 451 L19 452 L19 454 L18 455 L18 457 L17 458 L17 461 L16 462 L16 465 L15 466 L15 468 L14 469 L14 472 L13 473 L13 476 L12 477 L12 480 L11 481 L11 490 L10 491 L10 492 L11 493 L11 497 L12 498 L12 499 L13 500 L13 501 L14 502 L14 503 L16 505 L16 506 L17 506 L20 509 L21 509 L22 510 L24 510 L25 511 L29 511 L30 512 L47 512 L48 511 L56 511 L57 510 L62 510 L63 509 L68 509 L69 508 L73 508 L74 507 L79 507 L80 506 L84 506 L85 505 L90 505 L91 504 L96 504 L97 503 L103 503 L104 502 L108 502 L109 501 L115 501 L116 500 L121 500 L122 499 L126 499 L127 498 L130 498 L131 497 L136 497 L137 496 L141 496 L142 495 L147 495 L148 494 L149 494 L151 496 L151 499 L152 500 L152 503 L153 504 L153 508 L154 509 L154 512 L155 513 L155 517 L156 518 L156 521 L157 522 L157 525 L158 526 L158 530 L159 531 L159 533 L160 534 L160 538 L161 539 L161 542 L162 543 L162 547 L163 548 L163 550 L164 551 L164 554 L165 555 L165 558 L166 559 L166 561 L167 562 L167 565 L168 566 L168 569 L169 570 L169 572 L170 573 L170 575 L171 576 L171 578 L172 579 L172 581 L173 582 L173 583 L174 584 L174 586 L175 587 L175 588 L176 589 L176 590 L178 592 L178 593 L182 597 L183 597 L185 599 L186 599 L188 601 L190 601 L191 602 L193 602 L194 603 L197 603 L198 604 L207 604 L208 603 L214 603 L215 602 L220 602 L221 601 L225 601 L226 600 L230 600 L231 599 L235 599 L236 598 L240 598 L241 597 L244 597 L245 596 L250 596 L251 595 L255 595 L256 594 L259 594 L260 593 L264 593 L265 592 L269 592 L270 591 L274 591 L275 590 L278 590 L279 589 L284 589 L285 588 L288 588 L289 587 L292 587 L293 586 L297 586 L298 585 L301 585 L302 584 L306 584 L307 583 L311 583 L312 582 L316 582 L317 581 L320 581 L321 580 L325 580 L326 579 L330 579 L331 578 L334 578 L335 577 L339 577 L340 576 L344 576 L345 575 L348 575 L349 574 L353 574 L354 573 L358 573 L359 572 L363 572 L364 571 L367 571 L368 570 L373 570 L374 569 L378 569 L379 568 L382 568 L383 567 L386 567 L387 566 L392 566 L393 565 L397 565 L398 564 L402 564 L403 563 L407 563 L408 562 L412 562 L413 561 L417 561 L418 560 L422 560 L423 559 L427 559 L428 558 L431 558 L432 557 L436 557 L437 556 L441 556 L442 555 L445 555 L446 554 L450 554 L451 553 L454 553 L455 552 L459 552 L460 551 L464 551 L465 550 L469 550 L470 549 L475 549 L476 548 L479 548 L480 547 L484 547 L485 546 L489 546 L490 545 L494 545 L495 544 L498 544 L499 543 L503 543 L504 542 L507 542 L508 541 L512 541 L513 540 L517 540 L518 539 L522 539 L523 538 L526 538 L527 537 L531 537 L532 536 L535 536 L536 535 L540 535 L541 534 L544 534 L545 533 L549 533 L550 532 L554 532 L555 531 L558 531 L559 530 L563 530 L564 529 L567 529 L568 528 L571 528 L572 527 L576 527 L577 526 L581 526 L582 525 L584 525 L585 524 L588 524 L589 523 L591 523 L592 522 L594 522 L595 521 L597 521 L598 520 L600 520 L601 519 L602 519 L603 518 L604 518 L605 517 L606 517 L614 509 L614 508 L615 507 L615 506 L616 505 L616 504 L617 503 L617 501 L618 500 L618 481 L617 480 L617 475 L616 474 L616 470 L615 469 L615 465 L614 464 L614 462 L613 461 L613 458 L612 457 L612 454 L611 453 L611 450 L610 449 L610 446 L609 445 L609 441 L608 440 L608 437 L607 436 L607 432 L606 431 L606 427 L605 426 L605 422 L604 421 L604 418 L603 417 L603 413 L602 412 L602 408 L601 407 L601 404 L600 403 L600 399 L599 398 L599 394 L598 393 L598 389 L597 388 L597 385 L596 384 L596 380 L595 379 L595 375 L594 374 L594 371 L593 370 L593 366 L592 365 L592 362 L591 361 L591 358 L590 357 L590 354 L589 353 L589 349 L588 348 L588 345 L587 344 L587 341 L586 340 L586 337 L585 336 L585 333 L584 332 L584 329 L583 328 L583 324 L582 323 L582 318 L581 317 L581 310 L582 309 L582 302 L583 301 L583 296 L584 295 L584 290 L585 289 L585 284 L586 283 L586 278 L587 277 L587 273 L588 272 L588 267 L589 266 L589 260 L590 259 L590 254 L591 253 L591 249 L592 248 L592 242 L593 241 L593 239 L594 238 L595 239 L595 245 L596 246 L596 253 L597 254 L597 260 L598 261 L598 270 L599 271 L599 277 L600 278 L600 281 L601 282 L601 285 L602 286 L602 287 L603 288 L603 289 L607 293 L610 293 L611 294 L612 294 L613 293 L620 293 L621 292 L623 292 L624 293 L626 293 L627 294 L637 294 L638 293 L645 293 L646 292 L651 292 L652 291 L658 291 L659 290 L664 290 L665 289 L670 289 L671 288 L675 288 L676 287 L681 287 L682 286 L685 286 L686 285 L689 285 L690 284 L692 284 L694 282 L695 282 L696 281 L696 280 L698 278 L698 276 L699 275 L699 264 L698 263 L698 261 L697 260 L697 259 L695 257 L695 256 L694 255 L693 255 L691 253 L689 253 L688 252 L686 252 L685 251 L671 251 L670 252 L664 252 L663 253 L658 253 L657 254 L652 254 L651 255 L648 255 L647 256 L643 256 L642 257 L638 257 L637 258 L634 258 L633 259 L630 259 L629 260 L627 260 L626 261 L625 261 L621 265 L620 265 L619 264 L619 260 L618 259 L618 248 L617 247 L617 239 L616 238 L616 226 L615 225 L615 214 L614 213 L614 206 L613 205 L613 199 L612 198 L612 192 L611 191 L611 187 L610 186 L610 184 L609 183 L609 181 L608 180 L608 179 L607 178 L607 177 L605 175 L604 175 L602 173 L601 173 L599 171 L598 171 L597 170 L596 170 L595 169 L594 169 L592 167 L592 166 L591 165 L591 164 L590 163 L590 162 L589 161 L589 159 L588 158 L588 156 L587 155 L587 153 L586 152 L586 151 L585 150 L585 148 L584 147 L584 146 L583 145 L583 143 L582 142 L582 140 L581 139 L581 138 L580 137 L580 135 L579 134 L579 132 L578 131 L578 130 L577 129 L577 127 L576 126 L576 125 L575 124 L575 122 L574 121 L574 119 L573 118 L573 117 L572 116 L572 114 L571 113 L571 111 L570 110 L570 108 L569 107 L569 105 L568 104 L568 102 L567 101 L567 100 L566 99 L566 97 L565 96 L565 94 L564 93 L564 92 L563 91 L563 89 L562 88 L562 86 L561 85 L561 84 L560 83 L560 81 L559 80 L559 78 L558 77 L558 76 L557 75 L557 73 L556 72 L556 70 L555 69 L555 68 L554 67 L554 66 L553 65 L553 64 L547 58 L546 58 L545 57 L544 57 L543 56 L542 56 L541 55 L540 55 L539 54 L538 54 L537 53 L536 53 L534 51 L533 51 L532 50 L531 50 L530 49 L529 49 L528 48 L527 48 L526 47 L525 47 L524 46 L523 46 L521 44 L520 44 L519 43 L518 43 L517 42 L516 42 L514 40 L512 40 L511 39 L510 39 L509 38 L508 38 L507 37 L506 37 L505 36 L504 36 L503 35 L502 35 L501 34 L500 34 L499 33 L498 33 L496 31 L495 31 L494 30 L493 30 L492 29 L491 29 L490 28 L489 28 L488 27 L487 27 L486 26 L485 26 L484 25 L483 25 L482 24 L481 24 L480 23 L479 23 L478 22 L477 22 L475 20 L474 20 L473 19 L472 19 L471 18 L470 18 L468 16 L467 16 L466 15 L465 15 L464 14 L462 14 L461 13 L459 13 L458 12 L457 12 L456 11 L452 11 L451 10 Z " fill="black"/></svg>