<svg width="795" height="1177" xmlns="http://www.w3.org/2000/svg"><path d="M411 10 L410 11 L404 11 L403 12 L399 12 L398 13 L395 13 L394 14 L393 14 L392 15 L390 15 L389 16 L387 16 L386 17 L385 17 L384 18 L382 18 L381 19 L380 19 L379 20 L378 20 L377 21 L376 21 L375 22 L374 22 L372 24 L371 24 L369 26 L368 26 L366 28 L365 28 L363 30 L362 30 L359 33 L358 33 L352 39 L351 39 L331 59 L331 60 L325 66 L325 67 L321 71 L321 72 L317 76 L317 77 L314 80 L314 81 L310 85 L310 86 L307 89 L307 90 L304 93 L304 94 L302 96 L302 97 L300 99 L300 100 L299 101 L299 102 L298 103 L298 104 L297 105 L295 105 L294 104 L289 104 L288 103 L259 103 L258 104 L253 104 L252 105 L249 105 L248 106 L245 106 L244 107 L240 107 L239 108 L236 108 L235 109 L232 109 L231 110 L229 110 L228 111 L226 111 L225 112 L223 112 L222 113 L221 113 L220 114 L218 114 L217 115 L216 115 L215 116 L214 116 L213 117 L212 117 L211 118 L210 118 L209 119 L208 119 L207 120 L205 120 L204 121 L203 121 L202 122 L200 122 L199 123 L197 123 L196 124 L194 124 L193 125 L190 125 L189 126 L187 126 L186 127 L184 127 L183 128 L181 128 L180 129 L179 129 L178 130 L175 130 L174 131 L171 131 L170 132 L168 132 L167 133 L165 133 L164 134 L163 134 L162 135 L161 135 L160 136 L159 136 L158 137 L157 137 L156 138 L156 140 L157 140 L158 141 L175 141 L176 142 L182 142 L183 143 L185 143 L186 144 L187 144 L188 145 L189 145 L190 146 L191 146 L206 161 L206 162 L210 166 L210 167 L213 170 L213 171 L216 174 L216 175 L227 186 L226 187 L218 187 L217 188 L206 188 L205 189 L201 189 L200 190 L196 190 L195 191 L193 191 L192 192 L190 192 L189 193 L187 193 L186 194 L184 194 L183 195 L181 195 L180 196 L179 196 L178 197 L176 197 L175 198 L174 198 L173 199 L172 199 L171 200 L170 200 L169 201 L168 201 L167 202 L166 202 L164 204 L163 204 L160 207 L159 207 L154 212 L153 212 L150 215 L149 215 L145 219 L144 219 L139 224 L138 224 L136 226 L135 226 L132 229 L131 229 L130 230 L129 230 L126 233 L125 233 L122 236 L121 236 L119 238 L118 238 L115 241 L114 241 L109 246 L108 246 L100 254 L100 255 L99 256 L99 259 L104 259 L106 257 L108 257 L109 256 L110 256 L111 255 L113 255 L114 254 L118 254 L119 253 L134 253 L135 254 L140 254 L141 255 L143 255 L144 256 L146 256 L147 257 L148 257 L149 258 L150 258 L151 259 L153 259 L154 260 L155 260 L156 261 L158 261 L159 262 L160 262 L161 263 L163 263 L164 264 L166 264 L167 265 L168 265 L169 266 L170 266 L171 267 L173 267 L174 268 L175 268 L176 269 L178 269 L179 270 L181 270 L182 271 L184 271 L185 272 L187 272 L188 273 L191 273 L192 274 L196 274 L197 275 L200 275 L201 276 L207 276 L208 277 L209 277 L210 278 L210 280 L209 281 L209 284 L208 285 L208 288 L207 289 L207 291 L206 292 L206 295 L205 296 L205 298 L204 299 L204 300 L203 301 L203 303 L202 304 L202 305 L200 307 L199 307 L198 308 L197 308 L196 309 L195 309 L194 310 L193 310 L192 311 L190 311 L189 310 L189 308 L188 307 L188 301 L187 300 L187 298 L186 297 L186 296 L185 295 L185 294 L181 290 L180 290 L179 289 L178 289 L177 288 L176 288 L175 287 L160 287 L159 288 L156 288 L155 289 L152 289 L151 290 L150 290 L149 291 L147 291 L146 292 L145 292 L144 293 L143 293 L142 294 L141 294 L140 295 L139 295 L136 298 L135 298 L132 301 L131 301 L116 316 L116 317 L112 321 L112 322 L110 324 L110 325 L108 327 L108 328 L106 330 L106 331 L104 333 L104 334 L103 335 L103 336 L102 337 L102 338 L101 339 L101 340 L100 341 L100 343 L99 344 L99 345 L98 346 L98 347 L97 348 L97 349 L96 350 L96 352 L95 353 L95 354 L94 355 L94 357 L93 358 L93 362 L92 363 L92 367 L91 368 L91 373 L90 374 L90 398 L89 399 L89 416 L88 417 L88 430 L87 431 L87 439 L88 440 L91 440 L95 436 L95 435 L97 433 L97 432 L110 419 L111 419 L113 417 L114 417 L116 415 L117 415 L118 414 L119 414 L122 411 L123 411 L126 408 L127 408 L128 407 L129 407 L130 406 L131 406 L132 405 L134 405 L135 404 L137 404 L138 403 L141 403 L142 402 L144 402 L145 401 L147 401 L148 400 L149 400 L150 399 L152 399 L153 398 L156 398 L157 397 L161 397 L162 396 L164 396 L165 395 L169 395 L170 396 L170 406 L171 407 L171 417 L172 418 L172 426 L173 427 L173 433 L174 434 L174 438 L175 439 L175 442 L176 443 L176 444 L177 445 L179 445 L180 444 L180 443 L181 442 L181 439 L182 438 L182 435 L183 434 L183 433 L184 432 L184 431 L185 430 L185 429 L187 427 L187 426 L190 423 L190 422 L192 420 L193 420 L194 421 L194 430 L195 431 L195 445 L196 446 L196 462 L197 463 L197 470 L198 471 L198 478 L199 479 L199 487 L200 488 L200 493 L201 494 L201 499 L202 500 L202 505 L203 506 L203 510 L204 511 L204 514 L203 515 L201 515 L199 513 L199 512 L198 511 L198 508 L197 507 L197 505 L196 504 L196 502 L195 501 L195 500 L194 499 L194 498 L192 496 L192 495 L190 493 L190 492 L187 489 L186 489 L185 488 L184 488 L183 487 L182 487 L181 486 L179 486 L178 485 L175 485 L174 486 L172 486 L171 487 L170 487 L169 488 L168 488 L167 489 L165 489 L163 491 L162 491 L161 492 L160 492 L158 494 L157 494 L156 495 L155 495 L154 494 L154 490 L153 489 L153 481 L154 480 L154 474 L153 473 L153 463 L152 462 L152 461 L146 455 L145 455 L143 453 L142 453 L141 452 L139 452 L138 451 L136 451 L135 450 L128 450 L127 449 L119 449 L118 450 L114 450 L113 451 L110 451 L109 452 L107 452 L106 453 L103 453 L102 454 L99 454 L98 455 L95 455 L94 456 L91 456 L90 457 L88 457 L87 458 L85 458 L84 459 L83 459 L82 460 L81 460 L80 461 L79 461 L78 462 L77 462 L75 464 L74 464 L71 467 L70 467 L58 479 L58 480 L54 484 L54 485 L53 486 L53 487 L51 489 L51 491 L50 492 L50 493 L48 495 L48 497 L47 498 L47 499 L45 501 L45 502 L41 506 L41 507 L37 511 L37 512 L34 515 L34 516 L32 518 L32 519 L31 520 L31 521 L29 523 L29 524 L28 525 L28 527 L27 528 L27 529 L26 530 L26 532 L25 533 L25 535 L24 536 L24 540 L23 541 L23 544 L22 545 L22 548 L21 549 L21 552 L20 553 L20 555 L19 556 L19 559 L18 560 L18 562 L17 563 L17 564 L16 565 L16 567 L15 568 L15 571 L14 572 L14 583 L13 584 L13 590 L12 591 L12 602 L11 603 L11 618 L12 619 L12 641 L13 642 L16 642 L18 640 L18 638 L19 637 L19 636 L20 635 L20 634 L22 632 L22 631 L32 621 L33 621 L36 618 L37 618 L38 617 L39 617 L41 615 L42 615 L43 614 L45 614 L46 613 L47 613 L48 612 L50 612 L51 611 L54 611 L55 610 L58 610 L59 609 L63 609 L64 608 L67 608 L68 607 L73 607 L74 606 L79 606 L80 605 L89 605 L90 604 L94 604 L95 603 L97 603 L98 602 L101 602 L102 601 L107 601 L108 600 L111 600 L112 599 L114 599 L115 598 L116 598 L117 597 L118 597 L119 596 L120 596 L121 595 L122 595 L124 593 L125 593 L127 591 L128 591 L132 587 L133 587 L136 584 L137 584 L139 582 L140 582 L143 579 L144 579 L145 578 L146 578 L147 577 L148 577 L149 576 L150 576 L151 575 L152 575 L153 574 L154 574 L155 573 L156 573 L157 572 L158 572 L159 571 L161 571 L162 570 L163 570 L164 569 L165 569 L168 566 L169 566 L174 561 L174 560 L180 554 L180 553 L184 549 L184 548 L187 545 L187 544 L189 542 L189 541 L190 540 L190 539 L191 538 L191 537 L192 536 L192 535 L193 534 L193 532 L194 531 L194 529 L196 527 L197 527 L198 528 L200 528 L201 529 L205 529 L206 530 L207 530 L208 531 L208 532 L209 533 L209 537 L210 538 L210 541 L211 542 L211 545 L212 546 L212 549 L213 550 L213 552 L214 553 L214 555 L215 556 L215 558 L216 559 L216 561 L217 562 L217 564 L218 565 L218 567 L219 568 L219 570 L220 571 L220 573 L221 574 L221 576 L222 577 L222 579 L223 580 L223 582 L224 583 L224 584 L225 585 L225 587 L226 588 L226 590 L227 591 L227 592 L228 593 L228 594 L229 595 L229 597 L230 598 L230 599 L231 600 L231 601 L232 602 L232 603 L233 604 L233 605 L234 606 L234 608 L235 609 L235 610 L236 611 L236 612 L237 613 L237 615 L238 616 L238 618 L239 619 L239 622 L238 623 L238 624 L235 627 L235 628 L234 629 L234 630 L232 632 L232 633 L231 634 L231 635 L230 636 L230 637 L229 638 L229 640 L228 641 L228 643 L227 644 L227 657 L228 658 L228 662 L229 663 L229 667 L230 668 L230 670 L231 671 L231 673 L232 674 L232 676 L233 677 L233 679 L234 680 L234 681 L235 682 L235 684 L236 685 L236 686 L237 687 L237 688 L238 689 L238 690 L239 691 L239 692 L240 693 L240 694 L242 696 L242 697 L245 700 L245 701 L258 714 L259 714 L265 720 L266 720 L268 722 L268 723 L276 731 L276 732 L277 733 L277 735 L278 736 L278 742 L279 743 L279 746 L280 747 L280 749 L281 750 L281 753 L282 754 L282 757 L283 758 L283 760 L284 761 L284 764 L285 765 L285 768 L286 769 L286 771 L287 772 L287 775 L288 776 L288 781 L289 782 L289 788 L290 789 L290 794 L291 795 L291 800 L290 801 L290 805 L289 806 L289 808 L290 809 L290 817 L289 818 L289 820 L288 821 L288 822 L283 827 L282 826 L281 826 L279 824 L278 824 L275 821 L275 820 L270 815 L270 814 L266 810 L266 807 L267 806 L267 802 L268 801 L268 795 L269 794 L269 787 L268 786 L268 782 L267 781 L267 779 L266 778 L266 777 L265 776 L265 775 L263 773 L262 773 L261 772 L260 772 L259 771 L255 771 L254 770 L250 770 L249 771 L245 771 L244 772 L243 772 L242 773 L241 773 L240 774 L239 774 L233 780 L233 781 L226 788 L225 787 L225 785 L224 784 L224 771 L223 770 L223 766 L222 765 L222 763 L221 762 L221 761 L220 760 L220 759 L215 754 L214 754 L213 753 L212 753 L211 752 L208 752 L207 751 L194 751 L193 752 L190 752 L189 753 L188 753 L187 754 L185 754 L184 755 L183 755 L181 757 L180 757 L166 771 L165 771 L163 773 L163 774 L161 776 L161 777 L159 779 L159 780 L157 782 L157 783 L154 786 L154 787 L153 788 L153 789 L152 790 L152 791 L150 793 L150 794 L149 795 L149 797 L147 799 L147 800 L146 801 L146 802 L145 803 L145 804 L144 805 L144 806 L143 807 L143 809 L142 810 L142 812 L141 813 L141 815 L140 816 L140 818 L139 819 L139 822 L138 823 L138 826 L137 827 L137 830 L136 831 L136 836 L135 837 L135 842 L134 843 L134 850 L133 851 L133 853 L134 854 L134 865 L135 866 L135 876 L136 877 L136 882 L137 883 L137 886 L138 887 L138 890 L139 891 L139 894 L140 895 L140 897 L141 898 L141 900 L142 901 L142 903 L143 904 L143 907 L144 908 L144 910 L145 911 L145 914 L146 915 L146 917 L147 918 L147 919 L148 920 L148 921 L149 922 L149 924 L150 925 L150 927 L151 928 L151 930 L152 931 L152 932 L153 933 L153 935 L154 936 L154 937 L156 939 L156 940 L157 940 L158 941 L159 941 L160 940 L160 939 L161 938 L161 932 L162 931 L162 929 L163 928 L163 926 L164 925 L164 924 L165 923 L165 922 L166 921 L166 920 L168 918 L168 917 L173 912 L174 912 L177 909 L178 909 L182 905 L183 905 L186 902 L187 902 L190 899 L191 899 L193 897 L194 897 L196 895 L197 895 L198 894 L199 894 L201 892 L202 892 L204 890 L205 890 L206 889 L207 889 L209 887 L210 887 L212 885 L213 885 L215 883 L216 883 L218 881 L219 881 L221 879 L222 879 L224 877 L225 877 L231 871 L232 871 L233 870 L233 869 L243 859 L243 858 L245 856 L245 855 L247 853 L247 852 L248 851 L248 850 L250 848 L250 847 L251 846 L251 845 L252 844 L252 843 L253 842 L253 841 L254 840 L254 839 L255 838 L255 837 L256 836 L256 835 L257 834 L257 833 L258 832 L258 831 L259 830 L259 829 L260 828 L260 827 L261 826 L262 826 L276 840 L278 840 L279 841 L287 841 L288 840 L289 840 L290 839 L291 839 L292 838 L293 838 L294 839 L294 852 L295 853 L295 864 L296 865 L296 881 L295 882 L295 887 L294 888 L294 894 L293 895 L293 903 L292 904 L292 909 L291 910 L291 917 L290 918 L290 920 L289 921 L288 921 L287 920 L286 920 L285 919 L283 919 L282 918 L281 918 L280 917 L278 917 L277 916 L266 916 L265 917 L264 917 L263 918 L262 918 L260 920 L259 920 L252 927 L252 928 L251 929 L251 930 L250 931 L250 932 L249 933 L249 934 L248 935 L248 939 L247 940 L247 944 L246 945 L246 956 L247 957 L247 960 L248 961 L248 963 L249 964 L249 965 L250 966 L250 967 L251 968 L251 969 L252 970 L252 971 L254 973 L254 974 L255 975 L255 976 L257 978 L257 979 L260 982 L260 983 L263 986 L263 987 L269 993 L269 994 L271 996 L272 996 L275 999 L275 1003 L274 1004 L274 1008 L273 1009 L273 1012 L272 1013 L272 1016 L271 1017 L271 1021 L270 1022 L270 1024 L269 1025 L269 1027 L268 1028 L268 1030 L267 1031 L267 1032 L266 1033 L266 1034 L265 1035 L265 1036 L263 1038 L263 1039 L261 1041 L261 1042 L259 1044 L259 1045 L258 1046 L258 1047 L257 1048 L257 1049 L247 1059 L246 1059 L243 1062 L242 1062 L239 1065 L238 1065 L236 1067 L235 1067 L233 1069 L232 1069 L230 1071 L229 1071 L228 1072 L227 1072 L225 1074 L224 1074 L223 1075 L222 1075 L221 1076 L219 1076 L218 1077 L214 1077 L213 1078 L209 1078 L208 1077 L203 1077 L202 1076 L200 1076 L197 1073 L197 1072 L198 1071 L198 1057 L199 1056 L199 1029 L200 1028 L200 1022 L201 1021 L201 1018 L202 1017 L202 1012 L203 1011 L203 1008 L204 1007 L204 1003 L205 1002 L205 999 L206 998 L206 995 L207 994 L207 990 L208 989 L208 984 L209 983 L209 978 L211 976 L211 975 L213 973 L213 972 L214 971 L214 970 L215 969 L215 968 L216 967 L216 966 L217 965 L217 964 L218 963 L218 959 L215 959 L213 961 L212 961 L210 963 L209 963 L197 975 L196 975 L193 978 L192 978 L190 980 L189 980 L186 983 L185 983 L181 987 L180 987 L175 992 L174 992 L173 993 L173 994 L165 1002 L165 1003 L160 1008 L160 1009 L156 1013 L156 1014 L153 1017 L153 1018 L151 1020 L151 1021 L150 1022 L150 1023 L149 1024 L149 1025 L148 1026 L148 1027 L147 1028 L147 1029 L146 1030 L146 1032 L145 1033 L145 1036 L144 1037 L144 1042 L143 1043 L143 1053 L144 1054 L144 1058 L145 1059 L145 1060 L146 1061 L146 1063 L147 1064 L147 1065 L148 1066 L148 1067 L149 1068 L149 1069 L152 1072 L152 1073 L158 1079 L159 1079 L160 1080 L161 1080 L162 1081 L163 1081 L164 1082 L167 1082 L168 1083 L173 1083 L174 1082 L176 1082 L177 1081 L178 1081 L179 1080 L181 1080 L182 1079 L183 1079 L184 1078 L185 1079 L186 1079 L190 1083 L191 1083 L193 1085 L194 1085 L195 1086 L196 1086 L197 1087 L198 1087 L199 1088 L200 1088 L201 1089 L205 1089 L206 1090 L211 1090 L212 1089 L218 1089 L219 1088 L222 1088 L223 1087 L225 1087 L226 1086 L228 1086 L229 1085 L230 1085 L231 1084 L233 1084 L234 1083 L235 1083 L237 1081 L238 1081 L239 1080 L240 1080 L242 1078 L243 1078 L245 1076 L246 1076 L248 1074 L249 1074 L250 1075 L250 1076 L249 1077 L249 1079 L248 1080 L248 1081 L247 1082 L247 1083 L246 1084 L246 1085 L245 1086 L245 1088 L244 1089 L244 1090 L243 1091 L243 1092 L242 1093 L242 1095 L241 1096 L241 1097 L240 1098 L240 1099 L239 1100 L239 1101 L238 1102 L238 1103 L237 1104 L237 1105 L236 1106 L236 1107 L235 1108 L235 1109 L234 1110 L234 1111 L233 1112 L233 1113 L232 1114 L232 1115 L231 1116 L231 1117 L229 1119 L229 1120 L227 1122 L227 1123 L226 1124 L226 1125 L223 1128 L223 1129 L221 1131 L221 1132 L219 1134 L219 1135 L209 1145 L208 1145 L206 1147 L205 1147 L204 1148 L203 1148 L202 1149 L200 1149 L199 1150 L196 1150 L195 1151 L185 1151 L184 1150 L181 1150 L180 1149 L177 1149 L176 1148 L175 1148 L174 1147 L173 1147 L168 1142 L168 1141 L166 1139 L166 1138 L164 1136 L164 1135 L162 1133 L162 1131 L160 1129 L160 1128 L159 1127 L159 1126 L151 1118 L150 1118 L147 1115 L146 1115 L145 1114 L144 1114 L142 1112 L140 1112 L139 1111 L138 1111 L137 1110 L135 1110 L134 1109 L132 1109 L131 1108 L129 1108 L128 1107 L124 1107 L123 1106 L120 1106 L119 1105 L117 1105 L116 1104 L114 1104 L113 1103 L111 1103 L110 1102 L109 1102 L108 1101 L107 1101 L106 1100 L105 1100 L104 1099 L103 1099 L102 1098 L101 1098 L94 1091 L93 1091 L92 1090 L91 1091 L90 1091 L90 1094 L91 1095 L91 1096 L92 1097 L92 1098 L94 1100 L94 1101 L97 1104 L97 1105 L100 1108 L100 1109 L103 1112 L103 1113 L104 1114 L104 1115 L107 1118 L107 1119 L109 1121 L109 1122 L117 1130 L118 1130 L121 1133 L122 1133 L124 1135 L125 1135 L127 1137 L128 1137 L130 1139 L131 1139 L132 1140 L134 1140 L135 1141 L136 1141 L137 1142 L139 1142 L140 1143 L142 1143 L143 1144 L146 1144 L147 1145 L148 1145 L149 1146 L151 1146 L152 1147 L154 1147 L155 1148 L156 1148 L157 1149 L158 1149 L160 1151 L161 1151 L165 1155 L166 1155 L169 1158 L170 1158 L171 1159 L172 1159 L173 1160 L174 1160 L175 1161 L176 1161 L177 1162 L179 1162 L180 1163 L181 1163 L182 1164 L186 1164 L187 1165 L196 1165 L197 1164 L199 1164 L200 1163 L202 1163 L203 1162 L205 1162 L206 1161 L207 1161 L208 1160 L210 1160 L211 1159 L212 1159 L214 1157 L215 1157 L216 1156 L217 1156 L219 1154 L220 1154 L229 1145 L229 1144 L233 1140 L233 1139 L236 1136 L236 1135 L238 1133 L238 1132 L239 1131 L239 1130 L241 1128 L241 1127 L243 1125 L243 1124 L244 1123 L244 1122 L245 1121 L245 1120 L246 1119 L246 1118 L247 1117 L247 1116 L248 1115 L248 1114 L249 1113 L249 1111 L250 1110 L250 1109 L251 1108 L251 1107 L252 1106 L252 1104 L253 1103 L253 1102 L254 1101 L254 1100 L255 1099 L255 1098 L256 1097 L256 1095 L257 1094 L257 1093 L258 1092 L258 1091 L259 1090 L259 1089 L260 1088 L260 1087 L261 1086 L261 1085 L262 1084 L262 1083 L263 1082 L263 1080 L264 1079 L264 1078 L265 1077 L265 1075 L266 1074 L266 1073 L267 1072 L267 1071 L268 1070 L268 1068 L270 1066 L270 1065 L274 1061 L274 1059 L275 1058 L275 1057 L276 1056 L276 1055 L277 1054 L277 1052 L278 1051 L278 1049 L279 1048 L279 1044 L280 1043 L280 1039 L281 1038 L281 1034 L282 1033 L282 1030 L283 1029 L283 1026 L284 1025 L284 1022 L285 1021 L285 1018 L286 1017 L286 1014 L287 1013 L287 1012 L288 1011 L290 1011 L291 1012 L292 1012 L293 1013 L294 1013 L295 1014 L296 1014 L297 1015 L298 1015 L299 1016 L300 1016 L301 1017 L302 1017 L303 1018 L305 1018 L306 1019 L307 1019 L308 1020 L310 1020 L311 1021 L313 1021 L314 1022 L316 1022 L317 1023 L318 1023 L319 1024 L321 1024 L322 1025 L324 1025 L325 1026 L327 1026 L328 1027 L330 1027 L331 1028 L332 1028 L333 1029 L335 1029 L336 1030 L337 1030 L338 1031 L339 1031 L340 1032 L341 1032 L343 1034 L344 1034 L345 1035 L346 1035 L349 1038 L350 1038 L354 1042 L355 1042 L357 1044 L357 1045 L360 1048 L360 1049 L361 1050 L361 1051 L362 1052 L362 1053 L363 1054 L363 1055 L365 1057 L367 1057 L369 1055 L369 1054 L370 1053 L370 1048 L371 1047 L371 1032 L372 1031 L372 1021 L373 1020 L373 1014 L374 1013 L374 1010 L375 1009 L375 1005 L376 1004 L376 995 L377 994 L377 977 L376 976 L376 969 L375 968 L375 962 L374 961 L374 957 L373 956 L373 953 L372 952 L372 950 L371 949 L371 947 L370 946 L370 944 L369 943 L369 941 L368 940 L368 939 L367 938 L367 936 L366 935 L366 934 L365 933 L365 932 L364 931 L364 930 L363 929 L363 928 L362 927 L362 926 L361 925 L361 924 L359 922 L359 921 L357 919 L357 918 L354 915 L354 914 L350 910 L350 909 L346 905 L345 905 L342 902 L341 902 L339 900 L338 900 L337 899 L336 899 L335 898 L334 898 L333 897 L332 897 L331 896 L329 896 L328 895 L324 895 L323 894 L310 894 L309 893 L309 879 L310 878 L310 856 L309 855 L309 839 L308 838 L308 826 L310 824 L310 823 L311 822 L311 819 L312 818 L312 813 L311 812 L311 807 L310 806 L310 804 L309 803 L309 801 L308 800 L308 798 L307 797 L307 794 L306 793 L306 789 L305 788 L305 784 L304 783 L304 780 L303 779 L303 776 L302 775 L302 772 L301 771 L301 768 L300 767 L300 765 L299 764 L299 761 L298 760 L298 756 L297 755 L297 752 L296 751 L296 745 L297 744 L298 744 L299 745 L301 745 L302 746 L303 746 L304 747 L305 747 L306 748 L307 748 L308 749 L309 749 L310 750 L312 750 L313 751 L314 751 L315 752 L316 752 L317 753 L319 753 L320 754 L321 754 L322 755 L323 755 L324 756 L325 756 L326 757 L327 757 L328 758 L329 758 L330 759 L331 759 L332 760 L333 760 L335 762 L336 762 L339 765 L340 765 L349 774 L349 775 L353 779 L353 780 L356 783 L356 784 L360 788 L362 788 L363 787 L363 786 L364 785 L364 782 L365 781 L365 777 L366 776 L366 770 L367 769 L367 763 L368 762 L368 758 L369 757 L369 754 L370 753 L370 749 L371 748 L371 746 L372 745 L372 742 L373 741 L373 739 L374 738 L374 735 L375 734 L375 731 L376 730 L376 726 L377 725 L377 721 L378 720 L378 717 L379 716 L379 713 L380 712 L380 711 L381 710 L384 710 L385 711 L393 711 L394 712 L399 712 L400 713 L407 713 L408 714 L448 714 L449 713 L461 713 L462 712 L468 712 L469 711 L474 711 L475 710 L479 710 L480 709 L482 709 L483 708 L485 708 L486 707 L488 707 L489 706 L491 706 L492 705 L494 705 L495 704 L497 704 L498 703 L500 703 L501 702 L502 702 L503 701 L505 701 L506 700 L508 700 L509 699 L510 699 L511 698 L512 698 L513 697 L515 697 L516 696 L517 696 L518 695 L519 695 L520 694 L521 694 L522 693 L523 693 L524 692 L525 692 L526 691 L527 691 L529 689 L530 689 L531 688 L532 688 L534 686 L535 686 L537 684 L538 684 L540 682 L541 682 L544 679 L545 679 L548 676 L549 676 L553 672 L554 672 L560 666 L561 666 L570 657 L570 656 L575 651 L575 650 L580 645 L580 644 L583 641 L583 640 L585 638 L585 637 L587 635 L587 634 L588 633 L588 632 L590 630 L590 629 L591 628 L591 627 L592 626 L592 625 L594 623 L594 622 L595 621 L595 620 L596 619 L596 618 L597 617 L597 616 L598 615 L598 614 L599 613 L599 612 L600 611 L600 610 L601 609 L601 607 L602 606 L602 605 L603 604 L603 603 L604 602 L604 601 L605 600 L605 599 L606 598 L606 597 L607 596 L607 594 L609 592 L609 590 L610 589 L610 587 L611 586 L611 585 L612 584 L612 582 L613 581 L613 579 L614 578 L614 577 L615 576 L616 577 L616 589 L615 590 L615 596 L614 597 L614 604 L613 605 L613 610 L612 611 L612 615 L611 616 L611 621 L610 622 L610 629 L609 630 L609 634 L608 635 L608 636 L607 637 L607 639 L606 640 L606 642 L605 643 L605 653 L604 654 L604 656 L603 657 L603 659 L602 660 L602 662 L601 663 L601 665 L600 666 L600 669 L599 670 L599 672 L598 673 L598 675 L597 676 L597 679 L596 680 L596 681 L595 682 L595 684 L594 685 L594 687 L593 688 L593 690 L592 691 L592 692 L591 693 L591 694 L590 695 L590 697 L589 698 L589 699 L588 700 L588 701 L587 702 L587 703 L586 704 L586 705 L585 706 L585 707 L584 708 L584 709 L583 710 L583 711 L582 712 L582 714 L581 715 L581 716 L580 717 L580 719 L579 720 L579 723 L578 724 L578 726 L577 727 L577 731 L576 732 L576 735 L575 736 L575 738 L574 739 L574 740 L573 741 L573 742 L572 743 L572 744 L571 745 L571 746 L570 747 L570 748 L569 749 L569 750 L567 752 L567 754 L566 755 L566 756 L563 759 L562 759 L559 756 L559 744 L558 743 L558 741 L557 740 L557 738 L555 736 L555 735 L551 731 L550 731 L548 729 L546 729 L545 728 L541 728 L540 727 L527 727 L526 728 L524 728 L523 729 L521 729 L520 730 L519 730 L518 731 L517 731 L516 732 L515 732 L514 733 L513 733 L512 734 L511 734 L510 735 L509 735 L507 737 L506 737 L504 739 L503 739 L495 747 L495 748 L490 753 L490 754 L487 757 L487 758 L485 760 L485 761 L484 762 L484 763 L482 765 L482 766 L481 767 L481 768 L479 770 L479 771 L478 772 L478 774 L477 775 L477 776 L476 777 L476 778 L475 779 L475 780 L474 781 L474 783 L473 784 L473 785 L472 786 L472 789 L471 790 L471 793 L470 794 L470 797 L469 798 L469 801 L468 802 L468 806 L467 807 L467 811 L466 812 L466 816 L465 817 L465 825 L464 826 L464 861 L465 862 L465 871 L466 872 L466 884 L467 885 L467 894 L468 895 L468 899 L470 901 L472 901 L473 900 L473 899 L474 898 L474 897 L475 896 L475 895 L476 894 L476 893 L478 891 L478 890 L487 881 L488 881 L492 877 L493 877 L495 875 L496 875 L497 874 L498 874 L499 873 L500 873 L502 871 L503 871 L504 870 L505 870 L506 869 L508 869 L509 868 L510 868 L511 867 L512 867 L513 866 L515 866 L516 865 L517 865 L518 864 L520 864 L521 863 L522 863 L523 862 L525 862 L526 861 L528 861 L529 860 L532 860 L533 859 L535 859 L536 858 L538 858 L539 857 L540 857 L541 856 L542 856 L543 855 L544 855 L545 854 L546 854 L547 853 L548 853 L549 852 L550 852 L551 851 L552 851 L553 850 L554 850 L555 849 L556 849 L557 848 L558 848 L559 847 L560 848 L560 868 L561 869 L561 879 L560 880 L560 890 L559 891 L559 896 L558 897 L558 899 L559 900 L559 906 L560 907 L560 910 L562 912 L562 913 L563 913 L566 916 L566 919 L567 920 L567 926 L568 927 L568 931 L569 932 L569 936 L570 937 L570 942 L571 943 L571 946 L572 947 L572 949 L573 950 L573 953 L574 954 L574 958 L575 959 L575 962 L576 963 L576 966 L577 967 L577 971 L578 972 L578 974 L579 975 L579 978 L580 979 L580 982 L581 983 L581 984 L582 985 L582 988 L583 989 L583 991 L584 992 L584 993 L585 994 L585 995 L586 996 L586 998 L587 999 L587 1000 L589 1002 L589 1003 L590 1004 L590 1005 L591 1006 L591 1007 L593 1009 L593 1010 L597 1014 L597 1015 L602 1020 L603 1020 L605 1022 L606 1022 L608 1024 L609 1024 L610 1025 L612 1025 L613 1026 L614 1026 L615 1027 L617 1027 L618 1028 L621 1028 L622 1029 L627 1029 L628 1030 L643 1030 L644 1029 L645 1029 L647 1031 L647 1040 L648 1041 L648 1045 L649 1046 L649 1049 L650 1050 L650 1053 L651 1054 L651 1056 L652 1057 L652 1060 L653 1061 L653 1062 L654 1063 L654 1064 L655 1065 L655 1067 L656 1068 L656 1069 L657 1070 L657 1071 L659 1073 L659 1074 L661 1076 L661 1077 L665 1081 L665 1082 L682 1099 L682 1100 L686 1104 L686 1105 L689 1108 L689 1109 L690 1110 L690 1111 L692 1113 L692 1114 L693 1115 L693 1116 L694 1117 L694 1119 L695 1120 L695 1121 L696 1122 L696 1123 L697 1124 L697 1125 L698 1126 L698 1128 L699 1129 L699 1132 L700 1133 L700 1135 L701 1136 L701 1142 L702 1143 L702 1150 L701 1151 L701 1156 L700 1157 L700 1158 L701 1159 L701 1160 L702 1160 L703 1161 L705 1161 L707 1159 L708 1159 L711 1156 L711 1155 L716 1150 L716 1149 L719 1146 L719 1145 L721 1143 L721 1142 L724 1139 L724 1138 L727 1135 L727 1134 L729 1132 L729 1131 L732 1128 L732 1127 L735 1124 L735 1123 L739 1119 L739 1118 L741 1116 L741 1115 L743 1113 L743 1112 L746 1109 L746 1108 L748 1106 L748 1105 L749 1104 L749 1103 L751 1101 L751 1100 L752 1099 L752 1098 L753 1097 L753 1096 L754 1095 L754 1094 L755 1093 L755 1092 L756 1091 L756 1090 L757 1089 L757 1088 L758 1087 L758 1085 L759 1084 L759 1082 L760 1081 L760 1080 L761 1079 L761 1076 L762 1075 L762 1072 L763 1071 L763 1067 L764 1066 L764 1061 L765 1060 L765 1057 L766 1056 L766 1048 L765 1047 L765 1027 L764 1026 L764 1022 L763 1021 L763 1018 L762 1017 L762 1016 L761 1015 L761 1013 L760 1012 L760 1010 L759 1009 L759 1008 L758 1007 L758 1006 L757 1005 L757 1004 L756 1003 L756 1002 L754 1000 L754 999 L753 998 L753 997 L750 994 L750 993 L739 982 L738 982 L736 980 L735 980 L734 979 L733 979 L732 978 L728 978 L727 977 L715 977 L714 978 L711 978 L709 980 L708 980 L704 984 L704 985 L702 987 L702 988 L700 990 L700 991 L698 993 L698 994 L696 996 L695 996 L694 995 L694 994 L693 993 L693 992 L692 991 L692 990 L690 988 L690 987 L689 986 L689 985 L685 981 L684 981 L682 979 L680 979 L679 978 L673 978 L672 977 L671 977 L670 978 L667 978 L665 980 L664 980 L660 984 L659 984 L656 987 L656 988 L653 991 L653 992 L651 994 L651 995 L650 996 L650 998 L649 999 L649 1001 L648 1002 L648 1007 L647 1008 L647 1012 L646 1013 L646 1014 L645 1015 L643 1015 L642 1016 L630 1016 L629 1015 L625 1015 L624 1014 L621 1014 L620 1013 L618 1013 L617 1012 L616 1012 L614 1010 L613 1010 L605 1002 L605 1001 L602 998 L602 997 L600 995 L600 993 L599 992 L599 991 L598 990 L598 989 L597 988 L597 986 L596 985 L596 984 L595 983 L595 981 L594 980 L594 978 L593 977 L593 975 L592 974 L592 972 L591 971 L591 966 L590 965 L590 961 L589 960 L589 958 L588 957 L588 954 L587 953 L587 950 L586 949 L586 947 L585 946 L585 943 L584 942 L584 939 L583 938 L583 934 L582 933 L582 929 L581 928 L581 922 L580 921 L581 920 L582 920 L583 921 L584 921 L585 922 L586 922 L587 923 L588 923 L589 924 L590 924 L591 925 L592 925 L593 926 L594 926 L595 927 L596 927 L597 928 L598 928 L599 929 L600 929 L601 930 L602 930 L603 931 L604 931 L605 932 L607 932 L608 933 L609 933 L610 934 L611 934 L612 935 L613 935 L614 936 L616 936 L617 937 L618 937 L619 938 L620 938 L621 939 L622 939 L623 940 L624 940 L625 941 L626 941 L627 942 L629 942 L630 943 L632 943 L633 944 L635 944 L636 945 L640 945 L641 946 L660 946 L661 945 L664 945 L665 944 L666 944 L667 943 L668 943 L669 942 L670 942 L671 941 L672 941 L673 940 L674 940 L678 936 L679 936 L684 931 L684 930 L688 926 L688 925 L692 921 L696 921 L697 922 L701 922 L702 923 L716 923 L717 922 L720 922 L721 921 L722 921 L723 920 L724 920 L726 918 L727 918 L729 916 L729 915 L732 912 L732 910 L733 909 L733 907 L734 906 L734 901 L735 900 L735 890 L734 889 L734 884 L733 883 L733 881 L732 880 L732 878 L731 877 L731 876 L730 875 L730 874 L729 873 L729 872 L727 870 L727 869 L726 868 L726 867 L723 864 L723 863 L720 860 L720 859 L718 857 L718 856 L716 854 L716 853 L715 852 L715 851 L714 850 L714 849 L712 847 L712 846 L705 839 L704 839 L702 837 L701 837 L700 836 L699 836 L698 835 L697 835 L696 834 L695 834 L694 833 L693 833 L692 832 L691 832 L690 831 L689 831 L687 829 L686 829 L684 827 L683 827 L682 826 L681 826 L679 824 L678 824 L677 823 L676 823 L675 822 L674 822 L673 821 L672 821 L670 819 L669 819 L667 817 L666 817 L665 816 L664 816 L662 814 L661 814 L659 812 L658 812 L657 811 L656 811 L655 810 L654 810 L653 809 L652 809 L651 808 L650 808 L649 807 L646 807 L645 806 L642 806 L641 805 L638 805 L637 804 L634 804 L633 803 L631 803 L630 802 L629 802 L628 801 L625 801 L624 800 L621 800 L620 801 L619 801 L619 803 L621 805 L622 805 L624 807 L625 807 L628 810 L629 810 L633 814 L633 815 L636 818 L636 819 L637 820 L637 821 L638 822 L638 823 L639 824 L639 826 L640 827 L640 833 L641 834 L640 835 L640 876 L641 877 L641 882 L642 883 L642 886 L643 887 L643 889 L644 890 L644 892 L645 893 L645 894 L646 895 L646 896 L647 897 L647 898 L648 899 L648 900 L650 902 L650 903 L660 913 L661 913 L663 915 L664 915 L666 917 L667 917 L668 918 L669 918 L670 919 L672 919 L673 920 L675 920 L676 921 L677 921 L678 922 L673 927 L672 927 L671 928 L670 928 L669 929 L668 929 L667 930 L666 930 L665 931 L663 931 L662 932 L660 932 L659 933 L657 933 L656 934 L646 934 L645 933 L641 933 L640 932 L636 932 L635 931 L633 931 L632 930 L630 930 L629 929 L627 929 L626 928 L625 928 L624 927 L623 927 L622 926 L621 926 L620 925 L619 925 L618 924 L616 924 L615 923 L614 923 L613 922 L611 922 L610 921 L609 921 L607 919 L606 919 L605 918 L604 918 L601 915 L600 915 L598 913 L597 913 L595 911 L594 911 L592 909 L591 909 L584 902 L584 901 L583 900 L583 898 L582 897 L582 896 L578 892 L578 891 L577 890 L577 887 L576 886 L576 875 L575 874 L575 842 L576 841 L576 835 L587 824 L587 823 L589 821 L589 820 L591 818 L591 817 L592 816 L592 815 L593 814 L593 813 L594 812 L594 811 L596 809 L596 808 L597 807 L597 805 L598 804 L598 803 L600 801 L600 799 L601 798 L601 796 L602 795 L602 793 L603 792 L603 789 L604 788 L604 781 L605 780 L605 777 L604 776 L604 771 L603 770 L603 768 L602 767 L602 766 L601 765 L601 764 L600 763 L600 762 L598 760 L598 759 L594 755 L593 755 L592 754 L591 754 L590 753 L587 753 L585 751 L585 750 L586 749 L586 747 L587 746 L587 743 L588 742 L588 740 L589 739 L589 737 L590 736 L590 734 L591 733 L591 731 L592 730 L592 729 L593 728 L593 726 L594 725 L594 723 L595 722 L595 721 L596 720 L596 719 L597 718 L597 716 L598 715 L598 714 L599 713 L599 712 L600 711 L600 709 L601 708 L601 706 L602 705 L602 704 L603 703 L603 701 L604 700 L604 699 L605 698 L605 696 L606 695 L606 694 L607 693 L607 692 L608 691 L608 689 L609 688 L609 687 L610 686 L610 684 L611 683 L611 682 L612 681 L612 680 L613 679 L613 677 L614 676 L614 673 L615 672 L615 670 L616 669 L616 667 L617 666 L617 663 L619 661 L626 661 L627 660 L630 660 L631 659 L633 659 L634 658 L635 658 L636 657 L637 657 L639 655 L640 655 L641 654 L642 654 L644 652 L645 652 L652 645 L654 645 L655 646 L655 649 L656 650 L656 653 L657 654 L657 656 L658 657 L658 658 L659 659 L659 661 L660 662 L660 663 L661 664 L661 665 L662 666 L662 668 L663 669 L663 671 L664 672 L664 673 L665 674 L665 675 L666 676 L666 677 L667 678 L667 679 L669 681 L669 682 L671 684 L671 685 L674 688 L674 689 L675 690 L675 691 L676 692 L676 693 L678 695 L678 696 L681 699 L681 700 L686 705 L686 706 L692 712 L692 713 L713 734 L713 735 L715 737 L715 738 L717 740 L717 741 L718 742 L718 743 L720 745 L720 746 L721 747 L721 748 L722 749 L722 750 L723 751 L723 752 L724 753 L724 756 L725 757 L725 761 L724 762 L724 769 L723 770 L723 772 L724 773 L724 774 L725 775 L727 775 L732 770 L732 769 L735 766 L735 765 L738 762 L738 761 L739 760 L739 759 L741 757 L741 756 L742 755 L742 754 L744 752 L744 751 L745 750 L745 749 L746 748 L746 747 L747 746 L747 745 L748 744 L748 742 L749 741 L749 740 L750 739 L750 737 L751 736 L751 735 L752 734 L752 733 L753 732 L753 731 L758 726 L758 725 L760 723 L760 722 L761 721 L761 720 L762 719 L762 718 L763 717 L763 716 L764 715 L764 713 L765 712 L765 711 L766 710 L766 708 L767 707 L767 706 L768 705 L768 704 L769 703 L769 702 L770 701 L770 699 L771 698 L771 696 L772 695 L772 692 L773 691 L773 688 L774 687 L774 684 L775 683 L775 679 L776 678 L776 675 L777 674 L777 667 L778 666 L778 660 L779 659 L779 653 L780 652 L780 635 L779 634 L779 629 L778 628 L778 625 L777 624 L777 621 L776 620 L776 618 L775 617 L775 613 L774 612 L774 610 L773 609 L773 607 L772 606 L772 605 L771 604 L771 602 L769 600 L769 599 L768 598 L768 597 L767 596 L767 595 L765 593 L765 592 L763 590 L763 589 L761 587 L761 586 L758 583 L758 582 L751 575 L750 575 L746 571 L745 571 L744 570 L743 570 L742 569 L741 569 L740 568 L739 568 L738 567 L735 567 L734 566 L725 566 L724 567 L722 567 L721 568 L720 568 L718 570 L717 570 L715 572 L714 572 L712 574 L711 574 L703 582 L703 583 L702 584 L702 585 L701 586 L701 587 L700 588 L700 592 L698 594 L697 594 L696 593 L696 592 L695 591 L695 590 L694 589 L694 588 L692 586 L692 585 L688 581 L687 581 L685 579 L684 579 L683 578 L682 578 L681 577 L678 577 L677 576 L676 576 L675 577 L671 577 L668 580 L667 580 L661 586 L661 587 L660 588 L660 589 L659 590 L659 591 L658 592 L658 595 L657 596 L657 599 L656 600 L656 603 L655 604 L655 607 L654 608 L654 612 L653 613 L653 619 L652 620 L652 625 L650 627 L650 628 L638 640 L637 640 L635 642 L633 642 L632 643 L626 643 L624 641 L624 637 L625 636 L625 631 L626 630 L626 626 L627 625 L627 618 L628 617 L628 609 L629 608 L629 603 L630 602 L630 591 L631 590 L631 583 L632 582 L632 572 L633 571 L633 561 L632 560 L632 545 L631 544 L631 536 L630 535 L630 532 L629 531 L629 525 L628 524 L628 514 L629 513 L629 509 L630 508 L630 501 L631 500 L631 493 L632 492 L632 488 L633 487 L633 482 L634 481 L634 474 L635 473 L635 463 L636 462 L636 452 L637 451 L637 428 L636 427 L636 424 L637 423 L638 423 L639 424 L639 426 L640 427 L640 429 L641 430 L641 431 L642 432 L642 433 L643 434 L643 435 L644 436 L644 437 L645 438 L645 439 L646 440 L646 441 L647 442 L647 443 L648 444 L648 445 L650 447 L650 448 L653 451 L653 452 L656 455 L656 456 L659 459 L659 460 L666 467 L666 468 L672 474 L673 474 L676 477 L677 477 L679 479 L680 479 L682 481 L683 481 L685 483 L686 483 L687 484 L688 484 L690 486 L691 486 L692 487 L693 487 L694 488 L695 488 L696 489 L698 489 L699 490 L700 490 L701 491 L702 491 L703 492 L705 492 L706 493 L708 493 L709 494 L710 494 L711 495 L713 495 L714 496 L716 496 L717 497 L718 497 L719 498 L721 498 L722 499 L725 499 L726 500 L728 500 L729 501 L732 501 L733 502 L735 502 L736 503 L738 503 L739 504 L741 504 L742 505 L743 505 L744 506 L746 506 L747 507 L748 507 L749 508 L750 508 L751 509 L752 509 L753 510 L754 510 L755 511 L756 511 L757 512 L758 512 L760 514 L761 514 L774 527 L774 528 L775 529 L775 530 L776 531 L776 533 L777 534 L777 536 L779 538 L781 538 L783 536 L783 531 L784 530 L784 515 L783 514 L783 500 L782 499 L782 491 L781 490 L781 474 L780 473 L780 462 L779 461 L779 455 L778 454 L778 449 L777 448 L777 444 L776 443 L776 441 L775 440 L775 437 L774 436 L774 433 L773 432 L773 430 L772 429 L772 426 L771 425 L771 424 L770 423 L770 421 L769 420 L769 419 L768 418 L768 416 L767 415 L767 414 L766 413 L766 412 L765 411 L765 410 L764 409 L764 408 L762 406 L762 405 L760 403 L760 402 L758 400 L758 399 L756 397 L756 396 L753 393 L753 392 L743 382 L743 381 L734 372 L733 372 L730 369 L729 369 L725 365 L724 365 L722 363 L721 363 L720 362 L719 362 L718 361 L717 361 L716 360 L715 360 L714 359 L712 359 L711 358 L710 358 L709 357 L706 357 L705 356 L700 356 L699 355 L695 355 L694 356 L690 356 L689 357 L687 357 L686 358 L685 358 L684 359 L683 359 L681 361 L680 361 L675 366 L675 367 L672 370 L672 371 L670 373 L670 374 L668 376 L668 378 L667 379 L667 381 L666 382 L666 392 L665 393 L660 388 L659 388 L655 384 L654 384 L652 382 L651 382 L649 380 L648 380 L647 379 L646 379 L644 377 L643 377 L642 376 L641 376 L640 375 L639 375 L637 373 L637 364 L636 363 L636 354 L635 353 L635 343 L634 342 L634 338 L635 337 L637 337 L638 338 L642 338 L643 339 L675 339 L676 338 L684 338 L685 337 L688 337 L689 336 L692 336 L693 335 L694 335 L695 334 L697 334 L698 333 L699 333 L700 332 L701 332 L702 331 L704 331 L705 330 L707 330 L708 329 L710 329 L711 328 L713 328 L714 327 L718 327 L719 326 L725 326 L726 325 L732 325 L733 324 L744 324 L745 325 L746 325 L747 326 L749 326 L751 328 L752 328 L753 329 L754 329 L756 331 L757 331 L759 333 L760 333 L761 334 L762 334 L763 335 L765 335 L766 336 L768 336 L770 334 L770 333 L769 332 L769 331 L768 330 L768 329 L767 328 L767 327 L765 325 L765 324 L762 321 L762 320 L759 317 L759 316 L756 313 L756 312 L752 308 L752 307 L747 302 L747 301 L745 299 L744 299 L736 291 L735 291 L731 287 L730 287 L725 282 L724 282 L720 278 L720 277 L715 272 L714 272 L711 269 L710 269 L708 267 L707 267 L705 265 L704 265 L701 262 L700 262 L696 258 L695 258 L692 255 L691 255 L688 252 L687 252 L685 250 L684 250 L683 249 L682 249 L681 248 L680 248 L679 247 L678 247 L677 246 L676 246 L675 245 L673 245 L671 243 L669 243 L668 242 L667 242 L666 241 L664 241 L663 240 L661 240 L660 239 L660 238 L661 237 L662 237 L663 236 L664 236 L665 235 L666 235 L667 234 L668 234 L669 233 L671 233 L672 232 L674 232 L675 231 L677 231 L678 230 L680 230 L681 229 L682 229 L683 228 L684 228 L685 227 L686 227 L687 226 L688 226 L689 225 L690 225 L691 224 L692 224 L693 223 L694 223 L695 222 L696 222 L697 221 L699 221 L700 220 L702 220 L703 219 L705 219 L706 218 L709 218 L710 217 L713 217 L714 216 L718 216 L719 215 L734 215 L735 216 L740 216 L742 214 L742 212 L738 208 L737 208 L736 207 L735 207 L734 206 L733 206 L732 205 L731 205 L730 204 L729 204 L728 203 L727 203 L726 202 L725 202 L724 201 L723 201 L722 200 L721 200 L719 198 L718 198 L716 196 L715 196 L712 193 L711 193 L709 191 L708 191 L705 188 L704 188 L702 186 L701 186 L699 184 L698 184 L696 182 L695 182 L693 180 L692 180 L691 179 L690 179 L689 178 L688 178 L686 176 L685 176 L684 175 L683 175 L682 174 L681 174 L679 172 L678 172 L677 171 L676 171 L675 170 L674 170 L673 169 L672 169 L671 168 L670 168 L669 167 L667 167 L666 166 L665 166 L664 165 L662 165 L661 164 L659 164 L658 163 L656 163 L655 162 L653 162 L652 161 L649 161 L648 160 L646 160 L645 159 L641 159 L640 158 L628 158 L627 157 L620 157 L619 158 L606 158 L605 159 L598 159 L597 160 L590 160 L589 161 L584 161 L583 162 L580 162 L579 163 L576 163 L575 164 L573 164 L572 165 L571 165 L570 166 L568 166 L567 165 L567 164 L565 162 L565 161 L563 159 L563 158 L561 156 L561 155 L562 154 L562 153 L566 149 L566 148 L568 146 L568 145 L570 143 L570 142 L572 140 L572 139 L577 134 L577 133 L584 126 L585 126 L589 122 L590 122 L592 120 L593 120 L594 119 L595 119 L596 118 L598 118 L599 117 L600 117 L601 116 L602 116 L602 114 L598 114 L597 113 L581 113 L580 114 L572 114 L571 115 L564 115 L563 116 L558 116 L557 117 L553 117 L552 118 L549 118 L548 119 L545 119 L544 120 L542 120 L541 121 L538 118 L538 117 L537 116 L537 115 L535 113 L535 112 L534 111 L534 110 L532 108 L532 107 L530 105 L530 104 L528 102 L528 101 L526 99 L526 98 L525 97 L525 96 L523 94 L523 93 L520 90 L520 89 L517 86 L517 85 L514 82 L514 81 L511 78 L511 77 L508 74 L508 73 L504 69 L504 68 L499 63 L499 62 L487 50 L487 49 L473 35 L472 35 L466 29 L465 29 L462 26 L461 26 L458 23 L457 23 L456 22 L455 22 L453 20 L452 20 L451 19 L450 19 L449 18 L447 18 L446 17 L445 17 L444 16 L442 16 L441 15 L438 15 L437 14 L435 14 L434 13 L431 13 L430 12 L426 12 L425 11 L420 11 L419 10 Z " fill="black"/></svg>