<svg width="679" height="485" xmlns="http://www.w3.org/2000/svg"><path d="M298 373 L297 374 L293 374 L292 375 L289 375 L288 376 L285 376 L284 377 L282 377 L281 378 L279 378 L278 379 L277 379 L276 380 L275 380 L274 381 L273 381 L271 383 L270 383 L268 385 L267 385 L262 390 L261 390 L258 393 L258 394 L252 400 L251 400 L251 401 L250 402 L249 402 L249 403 L243 409 L243 410 L241 412 L241 413 L239 415 L239 416 L237 418 L237 419 L236 420 L236 421 L235 422 L235 423 L234 424 L234 425 L232 427 L232 429 L231 430 L231 431 L230 432 L230 433 L229 434 L229 436 L228 437 L228 439 L227 440 L227 443 L226 444 L226 446 L225 447 L225 450 L224 451 L224 453 L223 454 L223 457 L222 458 L222 460 L221 461 L221 464 L220 465 L220 470 L219 471 L219 484 L329 484 L330 483 L331 483 L339 475 L340 475 L342 473 L343 473 L345 475 L345 477 L346 478 L346 480 L347 481 L347 484 L365 484 L365 483 L364 482 L364 479 L363 478 L363 477 L362 476 L362 475 L361 474 L361 473 L360 472 L360 471 L359 470 L359 469 L358 468 L358 466 L357 465 L358 464 L358 463 L360 461 L360 459 L361 458 L361 457 L362 456 L362 455 L363 454 L363 453 L364 452 L364 451 L368 447 L368 446 L370 444 L370 443 L371 442 L371 440 L372 439 L372 438 L373 437 L373 435 L374 434 L374 430 L375 429 L375 425 L376 424 L376 408 L375 407 L375 406 L373 404 L372 404 L371 403 L370 403 L368 401 L367 401 L366 400 L357 400 L356 401 L352 401 L351 402 L349 402 L348 403 L346 403 L345 404 L344 404 L343 405 L342 405 L341 406 L340 406 L339 407 L338 407 L336 405 L336 401 L335 400 L335 397 L334 396 L334 393 L333 392 L333 391 L331 389 L331 388 L326 383 L325 383 L322 380 L321 380 L319 378 L318 378 L317 377 L316 377 L314 375 L312 375 L311 374 L308 374 L307 373 Z M56 250 Z M341 244 L340 245 L340 246 L341 247 L341 248 L340 249 L341 250 L341 254 L342 255 L342 258 L343 259 L343 260 L344 261 L344 265 L345 266 L345 272 L346 273 L346 277 L347 278 L347 282 L348 283 L348 285 L349 286 L349 288 L350 289 L350 292 L351 293 L351 294 L352 295 L352 297 L353 298 L353 299 L354 300 L354 302 L355 303 L355 305 L356 306 L356 307 L357 308 L357 310 L358 311 L358 312 L359 313 L359 314 L360 315 L360 316 L361 317 L361 319 L362 320 L362 322 L363 323 L363 324 L364 325 L364 326 L365 327 L365 329 L366 330 L366 331 L368 333 L368 334 L369 335 L369 336 L371 338 L371 339 L373 341 L373 342 L375 344 L375 345 L377 347 L377 348 L378 349 L378 350 L380 352 L380 353 L383 356 L383 357 L390 364 L390 365 L392 367 L392 368 L394 370 L394 371 L395 372 L395 373 L396 374 L396 375 L397 376 L397 378 L398 379 L398 381 L399 382 L399 384 L400 385 L400 387 L401 388 L401 395 L402 396 L402 398 L401 399 L401 409 L400 410 L400 420 L399 421 L399 427 L398 428 L398 431 L397 432 L397 436 L396 437 L396 440 L395 441 L395 443 L394 444 L394 447 L393 448 L393 451 L392 452 L392 454 L391 455 L391 458 L390 459 L390 461 L389 462 L389 463 L388 464 L388 466 L387 467 L387 468 L386 469 L386 471 L385 472 L385 473 L384 474 L384 476 L383 477 L383 479 L382 480 L382 481 L381 482 L381 483 L380 484 L400 484 L401 483 L402 483 L404 481 L405 481 L407 479 L407 478 L410 475 L410 474 L412 472 L412 471 L413 470 L413 469 L414 468 L414 467 L415 466 L415 465 L416 464 L416 463 L417 462 L417 460 L418 459 L418 457 L419 456 L419 455 L420 454 L420 452 L421 451 L421 450 L422 449 L422 448 L423 447 L423 446 L424 445 L424 443 L425 442 L425 438 L426 437 L426 435 L427 434 L427 432 L428 431 L428 428 L429 427 L429 420 L430 419 L430 407 L431 406 L431 397 L432 396 L432 389 L433 388 L433 383 L434 382 L434 354 L435 353 L435 350 L436 349 L436 346 L437 345 L437 343 L439 341 L439 340 L440 339 L440 338 L441 337 L441 336 L443 334 L443 333 L444 332 L444 331 L445 330 L445 329 L446 328 L446 327 L447 326 L447 325 L448 324 L448 322 L450 320 L450 318 L451 317 L451 316 L452 315 L452 312 L453 311 L453 310 L454 309 L454 308 L458 304 L458 303 L460 301 L460 300 L461 299 L461 298 L460 298 L459 297 L458 297 L457 298 L456 298 L449 305 L449 306 L442 313 L441 313 L440 314 L439 314 L438 315 L437 315 L434 318 L434 319 L433 320 L433 322 L432 323 L432 325 L431 326 L431 328 L429 330 L429 332 L428 333 L428 334 L427 335 L427 336 L426 337 L426 338 L425 339 L425 340 L424 341 L424 342 L423 343 L423 344 L422 345 L422 346 L421 347 L421 349 L420 350 L420 352 L419 353 L419 357 L418 358 L418 359 L417 360 L416 360 L415 359 L415 358 L414 357 L414 356 L413 355 L413 354 L412 353 L412 352 L411 351 L411 349 L409 347 L409 346 L408 345 L408 344 L407 343 L407 342 L405 340 L405 339 L404 338 L404 337 L402 335 L402 333 L401 332 L401 331 L398 328 L398 326 L397 325 L397 320 L396 319 L396 318 L395 317 L395 316 L390 311 L390 310 L384 304 L384 303 L378 297 L378 296 L368 286 L368 285 L367 284 L367 282 L366 281 L366 280 L365 279 L365 278 L364 277 L364 276 L362 274 L362 273 L359 270 L359 269 L356 266 L356 265 L353 262 L353 261 L351 259 L351 258 L349 256 L349 255 L348 254 L348 253 L346 251 L346 250 L345 249 L345 248 L344 247 L344 246 L343 245 L342 245 Z M43 233 Z M48 229 Z M44 229 L44 230 L46 230 L46 229 Z M52 200 L52 201 L53 201 L54 202 L66 202 L67 201 L70 201 L67 201 L66 200 Z M51 195 Z M46 193 L47 194 L47 193 Z M55 181 L57 183 L57 184 L61 188 L63 188 L62 187 L62 186 L57 181 Z M47 179 L48 179 Z M308 11 L307 12 L306 12 L304 14 L303 14 L297 20 L296 20 L295 21 L293 21 L290 24 L289 24 L289 25 L288 26 L288 27 L287 28 L287 29 L286 30 L286 31 L284 33 L284 34 L283 35 L283 36 L281 38 L281 39 L279 41 L279 42 L278 43 L278 44 L277 45 L277 46 L275 48 L275 49 L273 51 L272 51 L270 53 L266 53 L265 54 L264 54 L263 55 L259 55 L258 56 L257 56 L256 55 L252 55 L251 54 L250 54 L246 50 L245 50 L243 48 L242 48 L238 44 L237 44 L233 40 L232 40 L230 38 L229 38 L227 36 L226 36 L225 35 L224 35 L223 34 L222 34 L221 33 L220 33 L218 31 L217 31 L216 30 L215 30 L214 29 L209 29 L207 31 L206 31 L202 35 L202 36 L195 43 L195 44 L192 47 L192 48 L191 49 L191 50 L190 51 L190 52 L189 53 L189 54 L188 55 L188 57 L187 58 L187 59 L186 60 L186 64 L185 65 L185 66 L184 67 L183 67 L182 66 L177 66 L176 67 L175 67 L172 70 L171 70 L168 73 L167 73 L166 74 L165 74 L164 75 L163 75 L162 76 L161 76 L160 77 L159 77 L153 83 L153 84 L152 85 L152 86 L136 102 L135 102 L132 105 L132 106 L130 108 L130 109 L127 112 L125 112 L124 111 L123 111 L122 110 L121 110 L120 109 L118 109 L117 108 L115 108 L114 109 L112 109 L111 110 L109 110 L108 111 L107 111 L106 112 L105 112 L98 119 L98 120 L97 121 L97 122 L95 124 L95 125 L93 127 L93 128 L92 129 L92 130 L91 131 L91 132 L90 133 L90 135 L89 136 L89 138 L88 139 L88 140 L87 141 L87 142 L86 143 L86 144 L85 145 L85 146 L84 147 L84 148 L82 150 L82 152 L88 158 L89 158 L90 159 L90 160 L91 160 L94 163 L94 164 L96 166 L96 168 L97 169 L97 186 L96 187 L96 191 L95 192 L95 193 L94 194 L88 188 L88 185 L84 181 L83 181 L79 177 L78 177 L72 171 L72 170 L71 169 L71 168 L74 165 L75 165 L76 164 L76 162 L75 162 L74 161 L72 161 L71 162 L73 164 L72 165 L71 165 L68 162 L67 162 L64 159 L63 159 L63 160 L64 161 L64 162 L65 163 L65 164 L68 167 L68 168 L67 169 L66 169 L65 168 L64 168 L62 166 L61 166 L60 165 L59 165 L58 164 L57 164 L58 165 L58 168 L59 169 L58 170 L55 170 L56 171 L56 172 L60 168 L63 171 L63 172 L66 175 L67 175 L68 176 L67 177 L68 177 L69 178 L69 179 L71 179 L74 182 L76 182 L78 184 L79 184 L80 185 L80 186 L83 189 L83 191 L85 193 L86 193 L87 194 L88 194 L90 196 L92 196 L95 199 L96 199 L97 200 L98 200 L101 203 L102 203 L103 204 L103 205 L99 209 L98 208 L97 208 L96 207 L94 207 L93 206 L92 206 L91 205 L91 203 L90 202 L89 202 L88 201 L80 201 L81 202 L81 204 L80 205 L79 205 L78 206 L75 206 L74 207 L72 207 L71 206 L70 206 L69 207 L62 207 L61 208 L40 208 L39 207 L30 207 L29 206 L25 206 L27 208 L27 210 L29 210 L30 209 L31 209 L32 210 L48 210 L49 211 L69 211 L70 210 L75 210 L76 209 L82 209 L83 210 L88 210 L89 211 L92 211 L93 212 L88 217 L87 217 L86 218 L83 218 L82 219 L79 219 L78 220 L68 220 L67 221 L65 221 L64 222 L59 222 L59 224 L60 225 L60 228 L62 226 L67 226 L68 225 L70 225 L71 226 L69 228 L68 228 L67 229 L66 229 L65 230 L67 230 L68 231 L68 233 L67 234 L67 235 L66 236 L66 237 L65 238 L65 239 L64 240 L64 241 L62 243 L62 244 L59 247 L59 248 L60 248 L62 246 L61 245 L63 243 L64 243 L64 242 L67 239 L67 238 L69 236 L69 235 L71 233 L71 232 L77 226 L78 226 L79 225 L81 225 L82 224 L83 224 L84 225 L84 226 L83 227 L83 229 L82 230 L82 232 L81 233 L81 235 L80 236 L81 237 L81 241 L78 244 L78 245 L77 246 L77 248 L76 249 L76 250 L73 253 L73 254 L71 256 L71 257 L67 261 L67 264 L68 264 L70 262 L70 261 L71 260 L72 260 L75 257 L75 255 L76 254 L76 253 L77 252 L76 251 L77 250 L77 249 L79 247 L80 247 L80 246 L81 245 L82 245 L83 246 L83 248 L84 247 L85 248 L85 250 L83 252 L83 253 L82 254 L82 256 L81 257 L81 258 L80 259 L80 261 L79 262 L79 263 L75 267 L74 267 L73 268 L59 268 L58 267 L56 267 L54 265 L53 265 L52 264 L52 263 L51 263 L50 262 L49 262 L47 260 L46 260 L44 258 L43 258 L42 257 L41 257 L37 253 L37 252 L31 246 L31 245 L29 243 L29 242 L27 240 L27 239 L26 238 L26 237 L25 236 L25 235 L22 232 L22 231 L21 230 L21 228 L20 227 L20 225 L19 224 L19 221 L18 220 L18 217 L17 216 L17 214 L16 213 L16 211 L15 210 L15 202 L16 201 L16 200 L20 196 L20 195 L22 193 L22 192 L25 189 L25 188 L28 185 L28 184 L31 181 L32 182 L32 185 L33 186 L33 187 L34 187 L37 190 L38 190 L39 191 L41 191 L42 192 L43 192 L41 190 L40 190 L38 188 L38 186 L37 185 L37 184 L35 182 L35 178 L39 174 L39 173 L46 166 L47 166 L53 160 L54 160 L55 159 L56 159 L57 158 L59 158 L61 156 L62 156 L63 155 L64 155 L66 153 L67 153 L68 152 L69 152 L70 151 L75 151 L76 150 L80 150 L77 147 L67 147 L66 148 L65 148 L63 150 L62 150 L61 151 L60 151 L58 153 L57 153 L55 155 L54 155 L52 157 L51 157 L49 159 L48 159 L37 170 L36 170 L31 175 L31 176 L27 180 L27 181 L24 184 L24 185 L18 191 L16 191 L15 192 L15 193 L14 194 L14 198 L13 199 L13 201 L12 202 L12 204 L11 205 L11 213 L12 214 L12 216 L14 218 L14 220 L15 221 L15 227 L16 228 L16 230 L17 231 L17 232 L18 233 L18 234 L21 237 L21 238 L25 242 L25 243 L27 245 L27 246 L29 248 L29 249 L30 250 L30 251 L32 253 L32 254 L36 258 L37 258 L38 259 L40 259 L42 261 L43 261 L47 265 L47 279 L48 280 L48 283 L49 284 L49 288 L50 289 L50 290 L51 291 L51 292 L52 292 L53 293 L55 293 L56 294 L57 294 L58 295 L59 295 L61 297 L61 298 L62 299 L65 299 L67 297 L69 297 L71 295 L73 295 L74 294 L76 294 L77 293 L81 293 L82 292 L85 292 L86 291 L89 291 L90 290 L93 290 L94 289 L96 289 L97 288 L98 288 L99 287 L100 287 L104 283 L105 283 L109 279 L115 279 L116 278 L118 278 L119 277 L121 277 L122 276 L123 276 L124 275 L125 275 L126 274 L127 274 L128 273 L129 273 L130 272 L131 272 L132 271 L133 271 L135 273 L135 274 L136 275 L136 276 L137 277 L137 278 L138 279 L138 280 L137 281 L137 282 L132 287 L132 290 L131 291 L131 293 L130 294 L130 296 L129 297 L129 298 L128 299 L128 300 L127 301 L127 303 L126 304 L126 305 L125 306 L125 308 L124 309 L124 311 L123 312 L123 314 L122 315 L122 317 L121 318 L121 320 L120 321 L120 323 L119 324 L119 327 L118 328 L118 337 L116 339 L116 340 L114 342 L114 343 L112 345 L112 346 L111 347 L111 349 L110 350 L110 352 L109 353 L109 356 L108 357 L108 359 L107 360 L107 363 L106 364 L106 366 L105 367 L105 369 L104 370 L104 373 L103 374 L103 379 L102 380 L102 384 L101 385 L101 390 L100 391 L100 395 L99 396 L99 400 L98 401 L98 408 L97 409 L97 414 L96 415 L96 424 L95 425 L95 437 L94 438 L94 470 L94 469 L95 468 L95 466 L96 465 L96 462 L98 460 L98 459 L102 455 L103 456 L103 457 L104 458 L104 460 L105 461 L105 465 L109 469 L110 468 L110 467 L111 466 L111 461 L112 460 L112 457 L113 456 L113 446 L114 445 L114 429 L115 428 L115 418 L116 417 L116 409 L117 408 L117 405 L118 404 L118 399 L119 398 L119 392 L120 391 L120 384 L121 383 L121 379 L122 378 L122 375 L123 374 L123 371 L124 370 L124 368 L125 367 L125 363 L126 362 L126 359 L127 358 L127 356 L128 355 L128 354 L129 353 L129 351 L130 350 L130 349 L131 348 L131 340 L132 339 L132 337 L133 336 L133 335 L134 334 L134 333 L135 332 L135 331 L136 330 L136 328 L137 327 L137 325 L138 324 L138 322 L139 321 L139 319 L140 318 L140 316 L142 314 L142 312 L143 311 L143 310 L144 309 L144 307 L145 306 L145 304 L146 303 L146 302 L148 300 L148 299 L149 298 L149 297 L150 296 L150 295 L151 294 L151 293 L154 290 L155 290 L156 291 L160 291 L161 292 L164 292 L165 293 L166 293 L167 294 L169 294 L170 295 L171 295 L172 296 L174 296 L175 297 L182 297 L184 295 L185 295 L186 294 L187 294 L188 293 L189 293 L190 292 L193 292 L194 291 L198 291 L199 290 L200 290 L201 289 L201 285 L202 284 L202 261 L203 260 L203 253 L206 250 L206 249 L211 244 L211 243 L213 241 L213 240 L214 239 L214 238 L215 237 L215 234 L216 233 L216 231 L217 230 L217 229 L218 228 L218 227 L219 226 L219 225 L220 224 L220 218 L221 217 L221 215 L225 211 L226 211 L228 209 L229 209 L233 205 L234 205 L236 203 L237 203 L239 201 L241 201 L242 200 L246 200 L247 201 L248 201 L258 211 L258 212 L259 213 L259 216 L260 217 L266 217 L267 216 L272 216 L273 217 L278 217 L279 216 L280 216 L281 215 L282 215 L283 214 L286 214 L287 213 L295 213 L297 215 L298 215 L299 216 L301 216 L302 217 L308 217 L309 216 L311 216 L311 215 L313 213 L313 211 L314 210 L314 209 L312 209 L310 211 L309 211 L308 212 L303 212 L302 211 L304 209 L304 208 L305 207 L306 207 L312 201 L313 201 L322 192 L322 191 L326 187 L326 186 L327 185 L328 185 L329 186 L331 186 L332 187 L336 187 L337 188 L338 188 L339 187 L343 187 L344 186 L345 186 L346 185 L347 185 L348 184 L351 187 L352 187 L354 189 L355 189 L356 190 L357 190 L358 191 L359 191 L360 192 L361 192 L362 193 L363 193 L364 194 L365 194 L366 195 L367 195 L368 196 L370 196 L371 197 L374 197 L375 198 L380 198 L381 199 L387 199 L388 198 L394 198 L395 197 L398 197 L399 198 L399 199 L400 200 L400 201 L402 203 L402 204 L404 206 L404 207 L408 211 L406 213 L406 229 L407 230 L407 236 L408 237 L408 239 L409 240 L409 241 L410 241 L411 242 L414 242 L415 243 L423 243 L424 244 L433 244 L434 245 L437 245 L438 244 L442 244 L443 243 L445 243 L446 242 L447 242 L448 241 L449 241 L450 240 L451 240 L454 237 L455 237 L458 234 L459 234 L462 231 L463 231 L466 228 L469 228 L471 230 L472 230 L473 231 L474 231 L475 232 L476 232 L477 233 L478 233 L481 236 L482 236 L485 239 L486 239 L487 240 L492 240 L493 241 L496 241 L497 240 L505 240 L506 241 L507 241 L508 242 L509 242 L510 243 L512 243 L513 244 L514 244 L515 245 L516 245 L517 246 L518 246 L519 247 L521 247 L522 248 L524 248 L525 249 L530 249 L531 250 L532 250 L533 249 L539 249 L540 248 L545 248 L546 247 L550 247 L551 246 L552 246 L553 245 L554 245 L555 244 L556 244 L557 243 L558 243 L560 245 L561 245 L563 247 L564 247 L565 248 L566 248 L568 250 L568 251 L569 252 L570 252 L572 254 L572 255 L575 258 L575 259 L576 260 L576 261 L578 263 L578 264 L579 265 L579 266 L580 267 L580 269 L581 270 L581 271 L582 272 L582 274 L583 275 L583 276 L584 277 L584 280 L585 281 L585 284 L584 285 L584 288 L583 289 L583 290 L582 291 L582 292 L581 293 L581 295 L580 296 L580 298 L579 299 L579 306 L577 308 L576 308 L575 309 L574 309 L573 310 L572 310 L569 313 L569 314 L568 315 L568 321 L567 322 L568 323 L568 329 L569 330 L569 332 L570 333 L570 334 L571 335 L571 336 L572 337 L573 337 L575 339 L575 340 L577 342 L577 343 L578 344 L578 345 L580 347 L580 348 L582 350 L583 350 L584 351 L588 351 L589 352 L591 352 L592 353 L595 353 L596 352 L597 352 L598 351 L599 351 L601 349 L601 348 L602 347 L602 346 L604 344 L604 342 L605 341 L605 340 L606 339 L606 335 L607 334 L607 318 L606 317 L606 315 L605 314 L605 313 L600 308 L599 308 L598 307 L597 307 L596 306 L594 306 L593 305 L592 305 L591 304 L590 304 L589 303 L589 302 L591 300 L595 300 L596 301 L597 301 L598 302 L600 302 L601 303 L602 303 L603 304 L604 304 L608 308 L608 309 L613 314 L613 315 L618 320 L620 320 L622 322 L623 322 L624 323 L628 323 L629 324 L630 323 L631 323 L632 324 L634 324 L635 325 L636 325 L637 326 L638 326 L639 327 L639 328 L635 332 L635 335 L634 336 L634 344 L635 345 L635 348 L636 349 L636 351 L637 352 L637 353 L638 354 L638 355 L639 356 L639 357 L643 361 L643 362 L644 363 L645 363 L646 364 L646 365 L647 366 L648 366 L649 367 L660 367 L661 366 L661 365 L662 364 L662 363 L663 362 L663 361 L664 360 L664 359 L665 358 L665 357 L666 356 L666 354 L667 353 L667 343 L666 342 L666 341 L665 340 L665 339 L664 338 L664 337 L655 328 L653 328 L651 326 L650 326 L649 325 L649 321 L650 320 L650 317 L648 315 L647 315 L645 313 L642 313 L641 312 L640 312 L639 311 L636 311 L635 310 L634 310 L633 309 L632 309 L631 308 L630 308 L628 306 L627 306 L626 305 L625 305 L624 304 L623 304 L622 303 L621 303 L620 302 L619 302 L618 301 L617 301 L616 300 L615 300 L614 299 L613 299 L610 296 L609 296 L602 289 L602 288 L601 287 L601 286 L599 284 L599 281 L598 280 L598 278 L597 277 L597 275 L595 273 L595 271 L594 270 L594 269 L593 268 L593 267 L592 266 L592 263 L591 262 L591 260 L590 259 L590 256 L589 255 L589 253 L588 252 L588 251 L586 249 L586 248 L588 246 L589 246 L590 245 L592 245 L594 243 L595 243 L596 242 L597 242 L599 240 L600 240 L601 239 L603 239 L604 238 L608 238 L609 239 L610 239 L611 240 L611 241 L610 242 L610 244 L607 247 L607 248 L606 249 L606 250 L604 252 L604 256 L603 257 L603 262 L604 263 L604 265 L605 266 L605 267 L607 269 L607 270 L609 272 L609 273 L610 274 L611 274 L615 278 L616 278 L618 280 L619 280 L620 281 L621 281 L622 282 L623 282 L624 283 L626 283 L627 284 L630 284 L631 285 L637 285 L638 286 L639 285 L644 285 L645 284 L649 284 L650 283 L654 283 L655 282 L656 282 L659 279 L659 278 L660 277 L660 276 L661 275 L661 262 L660 261 L660 255 L659 254 L659 252 L658 251 L658 250 L656 248 L656 247 L653 244 L653 243 L650 240 L649 240 L645 236 L644 236 L643 235 L641 235 L640 234 L639 234 L638 233 L633 233 L632 232 L625 232 L624 233 L621 233 L620 234 L617 234 L616 233 L615 233 L613 231 L612 231 L611 230 L610 230 L609 229 L608 229 L607 228 L601 228 L600 229 L598 229 L597 230 L596 230 L595 231 L593 231 L592 232 L590 232 L589 233 L587 233 L586 234 L585 233 L582 233 L581 234 L580 234 L579 233 L576 233 L575 232 L574 232 L571 229 L570 229 L567 226 L566 226 L564 224 L563 224 L561 222 L560 222 L559 221 L558 221 L557 220 L557 219 L559 217 L560 217 L563 214 L564 214 L566 212 L567 212 L571 208 L572 208 L575 205 L575 204 L577 202 L577 201 L582 196 L582 195 L584 193 L584 192 L586 190 L586 189 L587 188 L587 186 L588 185 L588 182 L589 181 L589 177 L590 176 L590 152 L589 151 L589 149 L588 148 L588 147 L587 146 L587 145 L577 135 L576 135 L563 122 L562 122 L552 112 L551 112 L550 111 L549 111 L548 110 L547 110 L546 109 L545 109 L544 108 L542 108 L540 106 L539 106 L536 103 L535 103 L534 102 L531 102 L530 101 L529 102 L526 102 L525 103 L524 103 L523 104 L522 104 L519 107 L518 107 L517 108 L516 107 L516 104 L515 103 L515 101 L514 100 L514 98 L513 97 L513 95 L512 94 L512 93 L511 92 L511 91 L510 90 L510 89 L509 88 L509 86 L508 85 L508 84 L506 82 L506 81 L502 77 L501 77 L495 71 L495 70 L493 68 L481 68 L480 69 L479 69 L478 70 L477 70 L473 74 L472 74 L471 75 L470 75 L468 77 L467 77 L464 80 L464 81 L463 82 L463 83 L462 84 L462 85 L461 86 L461 87 L460 88 L460 89 L459 90 L459 91 L458 92 L458 94 L457 95 L457 97 L455 99 L446 99 L445 100 L442 100 L441 101 L439 101 L437 103 L436 103 L435 104 L434 104 L433 103 L433 83 L432 82 L432 79 L429 76 L428 76 L427 75 L425 75 L424 74 L423 74 L421 72 L420 72 L418 70 L417 70 L414 67 L414 66 L409 61 L408 61 L405 58 L404 58 L403 57 L402 57 L401 56 L400 56 L398 54 L397 54 L395 52 L394 52 L392 50 L391 50 L389 48 L388 48 L387 47 L386 47 L385 46 L384 46 L383 45 L382 45 L381 44 L380 44 L379 43 L377 43 L376 42 L368 42 L367 41 L362 41 L361 42 L358 42 L357 43 L355 43 L354 44 L353 44 L352 45 L351 45 L350 46 L348 46 L347 45 L347 44 L346 43 L346 42 L345 41 L345 40 L344 39 L344 38 L341 35 L341 34 L340 33 L339 33 L329 23 L328 23 L326 21 L325 21 L323 19 L322 19 L321 18 L320 18 L316 14 L315 14 L313 12 L312 12 L311 11 Z M660 0 L660 4 L661 5 L660 6 L660 12 L661 13 L661 21 L662 22 L662 24 L663 25 L663 23 L664 22 L665 23 L665 25 L668 28 L672 28 L673 29 L673 30 L675 32 L677 32 L678 31 L678 30 L677 30 L676 29 L676 28 L672 24 L672 21 L673 20 L673 18 L674 17 L675 18 L675 23 L676 23 L677 22 L678 23 L678 0 Z M635 0 L635 1 L636 2 L636 5 L637 6 L637 8 L638 9 L638 11 L639 12 L639 14 L640 15 L640 16 L641 17 L641 18 L642 19 L642 20 L643 21 L643 22 L644 23 L644 24 L650 30 L650 31 L651 31 L658 38 L659 38 L662 41 L664 41 L665 42 L666 42 L667 43 L669 43 L670 44 L671 44 L672 45 L678 45 L678 38 L676 38 L675 37 L671 37 L670 36 L667 36 L666 35 L665 35 L663 33 L662 33 L658 29 L658 28 L659 27 L657 25 L657 19 L656 18 L657 17 L657 11 L656 10 L656 9 L657 8 L658 8 L657 7 L657 4 L656 3 L657 2 L657 1 L658 0 L645 0 L645 3 L646 4 L646 8 L645 9 L644 8 L644 6 L643 5 L643 1 L642 0 Z M517 0 L518 1 L518 2 L519 3 L519 4 L520 5 L520 6 L530 16 L531 16 L532 17 L534 17 L535 18 L536 18 L537 19 L538 19 L539 20 L540 20 L541 21 L543 21 L544 22 L546 22 L547 23 L549 23 L550 24 L552 24 L553 25 L555 25 L556 26 L558 26 L559 27 L561 27 L562 28 L563 28 L564 29 L566 29 L567 30 L569 30 L570 31 L572 31 L573 32 L576 32 L577 33 L579 33 L580 34 L583 34 L584 35 L586 35 L587 36 L589 36 L590 37 L592 37 L593 38 L595 38 L596 39 L597 39 L598 40 L600 40 L601 41 L603 41 L604 42 L606 42 L607 43 L608 43 L609 44 L611 44 L612 45 L615 45 L616 46 L636 46 L638 44 L638 41 L637 40 L637 38 L635 36 L635 35 L633 33 L633 32 L628 27 L627 27 L619 19 L619 18 L618 17 L618 15 L617 14 L617 13 L615 11 L615 10 L614 9 L614 8 L613 7 L613 6 L612 5 L612 3 L611 2 L611 0 L604 0 L604 2 L605 3 L605 5 L606 6 L606 8 L607 9 L607 10 L608 11 L608 13 L609 14 L609 15 L610 16 L610 18 L611 19 L611 21 L612 22 L612 24 L614 26 L614 27 L617 30 L617 31 L619 33 L619 34 L620 35 L621 35 L622 36 L623 36 L625 38 L624 39 L621 39 L620 38 L615 38 L614 37 L613 37 L612 36 L612 32 L610 30 L610 29 L609 28 L609 27 L608 26 L608 25 L607 24 L607 23 L606 22 L606 21 L605 20 L605 19 L604 18 L604 15 L603 14 L603 12 L602 11 L602 10 L601 9 L601 7 L600 6 L600 5 L599 4 L599 3 L598 2 L598 0 L583 0 L583 1 L584 2 L584 8 L585 9 L585 12 L586 13 L586 18 L587 19 L587 26 L586 27 L585 26 L582 26 L580 24 L579 24 L574 19 L574 18 L573 17 L573 14 L574 13 L574 12 L577 9 L577 3 L576 2 L576 0 Z M0 0 L0 100 L2 98 L3 98 L11 90 L11 89 L13 87 L13 86 L14 85 L14 84 L15 83 L15 82 L16 81 L16 80 L17 79 L17 78 L18 77 L18 76 L19 75 L19 74 L20 73 L20 72 L21 71 L21 69 L22 68 L22 64 L23 63 L23 59 L24 58 L24 53 L25 52 L25 29 L24 28 L24 22 L23 21 L23 16 L22 15 L22 12 L21 11 L21 3 L20 2 L20 0 Z " fill="black"/></svg>