<svg width="684" height="1030" xmlns="http://www.w3.org/2000/svg"><path d="M679 961 Z M663 943 L662 944 L657 944 L656 945 L651 945 L650 946 L647 946 L646 947 L645 947 L642 950 L641 950 L640 951 L640 952 L639 953 L639 954 L638 955 L634 955 L633 956 L632 956 L630 958 L630 959 L628 961 L628 962 L627 963 L627 964 L625 966 L622 963 L622 962 L621 962 L617 958 L615 958 L614 957 L609 957 L603 963 L603 964 L600 967 L600 968 L598 970 L596 970 L594 968 L593 968 L592 967 L591 967 L590 966 L585 966 L584 967 L582 967 L580 969 L580 970 L579 971 L579 978 L577 980 L572 980 L571 979 L567 979 L566 980 L563 980 L562 981 L560 981 L559 982 L558 982 L556 984 L556 986 L557 987 L557 988 L558 989 L558 990 L559 991 L559 993 L560 994 L560 996 L561 997 L561 998 L562 999 L562 1004 L568 1010 L569 1010 L572 1013 L573 1013 L574 1014 L575 1014 L576 1015 L577 1015 L578 1016 L579 1016 L581 1018 L581 1019 L580 1020 L580 1026 L581 1027 L581 1028 L582 1029 L613 1029 L616 1026 L618 1026 L618 1025 L619 1024 L624 1024 L625 1025 L628 1025 L629 1026 L630 1026 L632 1028 L632 1029 L683 1029 L683 1028 L682 1027 L683 1026 L683 1013 L681 1013 L680 1012 L679 1012 L678 1011 L678 1010 L677 1010 L673 1006 L674 1005 L674 1004 L676 1002 L677 1003 L677 1005 L678 1004 L681 1004 L681 1003 L682 1002 L682 1001 L683 1000 L683 970 L679 974 L678 974 L677 973 L676 973 L675 972 L676 971 L675 972 L674 972 L673 971 L672 971 L670 969 L670 968 L673 965 L673 964 L674 963 L674 962 L676 960 L677 960 L677 959 L678 958 L680 958 L681 959 L681 960 L682 960 L683 959 L683 953 L680 953 L679 954 L677 954 L675 952 L675 950 L674 949 L674 948 L670 944 L667 944 L666 943 Z M71 939 L70 940 L65 940 L64 941 L59 941 L58 942 L56 942 L55 943 L54 943 L53 944 L52 944 L51 945 L50 945 L48 947 L47 947 L41 953 L40 953 L39 954 L39 955 L36 958 L36 959 L34 961 L34 962 L33 963 L33 964 L32 965 L32 966 L31 967 L31 984 L30 985 L30 989 L29 990 L24 990 L23 989 L18 989 L17 990 L11 990 L10 991 L7 991 L6 992 L4 992 L2 994 L1 994 L0 995 L0 1029 L28 1029 L28 1028 L29 1027 L29 1025 L30 1024 L30 1023 L31 1022 L31 1021 L32 1020 L32 1019 L33 1018 L33 1017 L34 1016 L34 1015 L36 1013 L36 1012 L38 1010 L39 1011 L39 1013 L38 1014 L38 1026 L37 1027 L37 1029 L69 1029 L69 1028 L70 1027 L70 1026 L72 1024 L76 1028 L76 1029 L126 1029 L125 1029 L124 1028 L123 1028 L122 1027 L121 1027 L119 1025 L118 1025 L115 1022 L114 1022 L108 1016 L108 1015 L106 1013 L106 1012 L107 1011 L111 1011 L112 1010 L123 1010 L124 1009 L140 1009 L141 1010 L150 1010 L151 1011 L157 1011 L158 1012 L159 1012 L160 1013 L161 1013 L163 1015 L164 1015 L165 1016 L166 1016 L169 1019 L170 1019 L173 1022 L174 1022 L177 1025 L177 1026 L178 1027 L178 1028 L179 1029 L192 1029 L192 1028 L191 1027 L191 1025 L190 1024 L190 1022 L189 1021 L189 1020 L188 1019 L188 1018 L187 1017 L187 1016 L186 1015 L186 1014 L184 1012 L184 1011 L182 1009 L182 1008 L181 1007 L181 1006 L180 1005 L180 1004 L179 1003 L179 1001 L178 1000 L178 999 L176 997 L176 996 L175 995 L175 994 L168 987 L168 986 L165 983 L164 983 L158 977 L157 977 L149 969 L148 969 L143 964 L142 964 L139 961 L138 961 L136 959 L135 959 L131 955 L130 955 L126 951 L125 951 L124 950 L123 950 L122 949 L121 949 L120 948 L119 948 L118 947 L115 947 L114 946 L111 946 L110 945 L106 945 L105 944 L103 944 L102 943 L101 943 L100 942 L98 942 L97 941 L93 941 L92 940 L88 940 L87 939 Z M45 773 L41 777 L41 778 L36 783 L35 783 L34 784 L34 785 L27 792 L27 793 L24 796 L24 797 L21 800 L21 801 L19 803 L19 804 L17 806 L17 807 L15 809 L15 810 L9 816 L9 817 L8 818 L8 819 L7 820 L7 829 L6 830 L6 843 L5 844 L5 855 L4 856 L4 871 L3 872 L3 877 L1 879 L0 879 L0 954 L5 949 L6 949 L10 945 L11 945 L16 940 L17 940 L21 936 L21 935 L22 934 L22 933 L23 932 L23 930 L24 929 L24 924 L25 923 L25 922 L26 921 L26 920 L27 919 L27 918 L28 917 L28 915 L29 914 L29 912 L30 911 L30 900 L29 899 L29 896 L28 895 L28 894 L27 893 L27 892 L20 885 L19 885 L14 880 L14 878 L15 877 L15 874 L16 873 L16 872 L17 871 L17 868 L18 867 L18 859 L19 858 L19 846 L20 845 L20 838 L21 837 L21 832 L22 831 L22 825 L23 824 L23 821 L24 820 L24 819 L25 818 L25 816 L26 815 L26 814 L27 813 L27 812 L29 810 L29 809 L30 808 L30 807 L31 806 L31 805 L32 804 L32 803 L34 801 L34 800 L37 797 L37 796 L40 793 L40 792 L43 789 L43 787 L44 786 L44 783 L45 782 L45 778 L46 777 L46 774 Z M610 168 L611 168 Z M233 11 L232 12 L227 12 L226 13 L220 13 L219 14 L216 14 L215 15 L212 15 L211 16 L210 16 L209 17 L207 17 L206 18 L201 18 L200 19 L196 19 L195 20 L194 20 L193 21 L190 21 L189 20 L186 20 L185 19 L184 19 L183 18 L182 18 L181 17 L180 17 L179 16 L178 16 L177 15 L175 15 L174 14 L161 14 L160 15 L157 15 L156 16 L155 16 L154 17 L153 17 L152 18 L151 18 L150 19 L148 19 L147 20 L146 20 L145 21 L144 21 L142 23 L141 23 L139 25 L138 25 L137 26 L136 26 L134 28 L133 28 L130 31 L129 31 L127 33 L126 33 L124 35 L123 35 L122 36 L121 36 L120 37 L119 37 L118 38 L116 38 L115 39 L114 39 L113 40 L112 40 L110 42 L109 42 L108 43 L107 43 L106 44 L105 44 L103 46 L101 46 L99 48 L98 48 L97 49 L97 50 L96 51 L96 52 L95 53 L95 54 L94 55 L94 61 L93 62 L93 63 L92 64 L92 65 L91 66 L91 67 L88 70 L88 71 L86 73 L86 74 L73 87 L72 87 L70 89 L68 89 L67 90 L64 90 L63 91 L47 91 L46 92 L44 92 L43 93 L42 93 L37 98 L37 99 L36 100 L36 101 L35 102 L35 104 L34 105 L34 107 L33 108 L33 111 L32 112 L32 115 L31 116 L31 120 L28 123 L28 124 L23 129 L23 130 L21 132 L21 133 L20 134 L20 135 L19 136 L19 138 L18 139 L18 140 L17 141 L17 143 L16 144 L16 146 L15 147 L15 150 L14 151 L14 154 L13 155 L13 157 L12 158 L12 159 L11 160 L11 165 L10 166 L10 168 L11 169 L11 177 L12 178 L12 186 L13 187 L13 201 L14 202 L14 208 L15 209 L15 212 L16 213 L16 216 L17 217 L17 219 L18 220 L18 221 L19 222 L19 224 L20 225 L20 226 L21 227 L21 228 L22 229 L22 231 L23 232 L23 234 L24 235 L24 236 L25 237 L25 239 L26 240 L26 241 L27 242 L27 243 L29 245 L29 246 L30 247 L30 248 L33 251 L33 252 L37 256 L37 257 L45 265 L45 266 L48 269 L48 270 L51 273 L51 274 L53 276 L53 277 L55 279 L55 280 L59 284 L59 285 L63 289 L63 290 L66 293 L66 294 L68 296 L68 297 L70 299 L70 300 L71 301 L71 302 L73 304 L73 305 L75 307 L75 308 L83 316 L84 316 L87 319 L88 319 L90 321 L91 321 L93 323 L94 323 L95 324 L97 324 L98 325 L100 325 L102 327 L99 330 L98 330 L96 332 L95 332 L82 345 L82 346 L81 347 L80 347 L77 350 L76 350 L75 351 L74 351 L73 352 L71 352 L70 353 L69 353 L68 354 L67 354 L56 365 L56 366 L55 367 L55 368 L54 369 L54 370 L53 371 L53 373 L52 374 L52 376 L51 377 L51 379 L50 380 L50 382 L49 383 L49 384 L48 385 L48 387 L47 388 L47 389 L46 390 L46 391 L45 392 L45 393 L43 395 L43 397 L42 398 L42 399 L41 400 L41 403 L40 404 L40 407 L39 408 L39 410 L38 411 L38 414 L37 415 L37 416 L36 417 L36 418 L35 419 L35 420 L33 422 L33 423 L32 424 L32 425 L31 426 L31 427 L30 428 L30 431 L29 432 L29 437 L28 438 L28 445 L27 446 L27 453 L28 454 L28 455 L29 456 L29 462 L30 463 L30 467 L31 468 L31 471 L32 472 L32 473 L33 474 L33 475 L34 476 L34 478 L35 479 L35 481 L36 482 L36 484 L37 485 L37 487 L38 488 L38 489 L39 490 L39 492 L40 493 L40 494 L41 495 L41 496 L42 497 L42 498 L44 500 L44 501 L48 505 L48 506 L52 510 L52 511 L55 514 L55 515 L58 518 L58 519 L61 522 L61 523 L68 530 L68 531 L75 538 L75 539 L76 540 L76 541 L78 543 L78 544 L79 545 L79 547 L80 548 L80 551 L81 552 L81 554 L82 555 L82 556 L83 557 L86 557 L87 556 L90 556 L91 555 L95 555 L96 554 L103 554 L104 553 L106 553 L107 554 L112 554 L113 555 L118 555 L119 556 L123 556 L124 557 L127 557 L128 558 L131 558 L132 559 L134 559 L135 560 L136 560 L137 561 L138 561 L139 562 L140 562 L141 563 L143 563 L144 564 L146 564 L147 565 L151 565 L152 566 L166 566 L167 565 L173 565 L174 564 L177 564 L178 563 L181 563 L182 562 L186 562 L187 561 L197 561 L198 562 L204 562 L205 563 L200 568 L199 568 L196 571 L195 571 L190 576 L189 576 L187 578 L186 578 L183 581 L183 582 L181 584 L181 585 L180 586 L180 587 L179 588 L179 590 L178 591 L178 593 L177 594 L177 596 L176 597 L176 600 L175 601 L175 606 L174 607 L174 612 L173 613 L173 621 L172 622 L172 627 L170 629 L169 629 L168 630 L165 630 L164 631 L161 631 L160 632 L159 632 L158 633 L157 633 L156 634 L155 634 L154 635 L153 635 L152 636 L151 636 L149 638 L148 638 L147 639 L146 639 L145 640 L144 640 L142 642 L141 642 L137 646 L137 647 L136 648 L136 652 L135 653 L135 662 L134 663 L134 682 L135 683 L135 691 L137 693 L137 695 L138 696 L138 701 L139 702 L139 705 L140 706 L140 709 L141 710 L141 712 L142 713 L142 715 L143 716 L143 719 L144 720 L144 722 L145 723 L145 724 L146 725 L146 727 L147 728 L147 729 L149 731 L149 732 L151 734 L151 735 L153 737 L155 737 L156 738 L157 738 L159 740 L159 745 L160 746 L160 752 L161 753 L161 758 L162 759 L162 760 L163 761 L163 762 L164 763 L164 766 L165 767 L165 771 L166 772 L166 775 L167 776 L167 780 L168 781 L168 784 L169 785 L169 790 L170 791 L170 794 L171 795 L171 799 L172 800 L172 802 L173 803 L173 808 L175 810 L175 812 L176 813 L176 817 L177 818 L177 821 L178 822 L178 828 L179 829 L179 835 L180 836 L180 843 L181 844 L181 847 L182 848 L182 852 L183 853 L183 856 L184 857 L184 860 L185 861 L185 864 L186 865 L186 869 L187 870 L187 871 L188 872 L188 876 L189 877 L189 881 L190 882 L190 887 L191 888 L191 893 L192 894 L192 897 L193 898 L193 901 L194 902 L194 904 L195 905 L195 908 L196 909 L196 912 L197 913 L197 915 L198 916 L198 922 L199 923 L199 925 L200 926 L200 931 L201 932 L201 937 L202 938 L202 941 L203 942 L203 945 L204 946 L204 948 L205 949 L205 951 L206 952 L206 955 L207 956 L207 958 L208 959 L208 963 L209 964 L209 967 L210 968 L210 971 L211 972 L211 975 L212 976 L212 978 L213 979 L213 980 L216 983 L216 984 L225 993 L226 993 L227 994 L228 994 L230 996 L231 996 L233 998 L234 998 L235 999 L236 999 L237 1000 L239 1000 L240 1001 L241 1001 L242 1002 L243 1002 L244 1003 L246 1003 L247 1004 L249 1004 L250 1005 L252 1005 L253 1006 L255 1006 L256 1007 L258 1007 L259 1008 L262 1008 L263 1009 L265 1009 L266 1010 L269 1010 L270 1011 L273 1011 L274 1012 L278 1012 L279 1013 L281 1013 L282 1014 L286 1014 L287 1015 L292 1015 L293 1016 L302 1016 L303 1017 L310 1017 L311 1018 L371 1018 L372 1017 L376 1017 L377 1016 L388 1016 L389 1015 L397 1015 L398 1014 L402 1014 L403 1013 L405 1013 L406 1012 L410 1012 L411 1011 L414 1011 L415 1010 L418 1010 L419 1009 L421 1009 L422 1008 L424 1008 L425 1007 L426 1007 L427 1006 L429 1006 L430 1005 L432 1005 L433 1004 L435 1004 L436 1003 L437 1003 L438 1002 L439 1002 L440 1001 L441 1001 L443 999 L446 999 L447 998 L449 998 L450 997 L452 997 L454 995 L455 995 L456 994 L457 994 L458 993 L459 993 L464 988 L464 987 L467 984 L467 983 L470 980 L470 979 L471 978 L471 977 L472 976 L472 975 L473 974 L473 972 L474 971 L474 968 L475 967 L475 963 L476 962 L476 959 L477 958 L477 956 L478 955 L478 952 L479 951 L479 947 L480 946 L480 943 L481 942 L481 938 L482 937 L482 931 L483 930 L483 927 L484 926 L484 923 L485 922 L485 919 L486 918 L486 914 L487 913 L487 909 L488 908 L488 904 L489 903 L489 899 L490 898 L490 895 L491 894 L491 891 L492 890 L492 888 L493 887 L493 884 L494 883 L494 879 L495 878 L495 875 L496 874 L496 871 L497 870 L497 865 L498 864 L498 860 L499 859 L499 853 L500 852 L500 849 L501 848 L501 843 L502 842 L502 840 L503 839 L503 834 L504 833 L504 830 L505 829 L505 824 L506 823 L506 818 L507 817 L507 812 L508 811 L508 805 L509 804 L509 799 L510 798 L510 794 L511 793 L511 789 L512 788 L512 783 L513 782 L513 778 L514 777 L514 773 L515 772 L515 766 L516 765 L516 760 L517 759 L517 754 L518 753 L518 748 L519 747 L519 744 L520 743 L520 741 L522 739 L523 739 L525 737 L526 737 L532 731 L532 730 L534 728 L534 727 L535 726 L535 725 L536 724 L536 723 L537 722 L537 719 L538 718 L538 715 L539 714 L539 709 L540 708 L540 704 L541 703 L541 696 L542 695 L542 688 L543 687 L543 675 L544 674 L544 663 L545 662 L545 651 L544 650 L544 646 L543 645 L543 644 L540 641 L540 640 L537 637 L536 637 L534 635 L533 635 L532 634 L531 634 L530 633 L529 633 L528 632 L526 632 L525 631 L523 631 L522 630 L517 630 L516 629 L516 628 L518 626 L519 626 L520 625 L521 625 L522 624 L523 624 L524 623 L525 623 L526 622 L527 622 L529 620 L529 618 L530 617 L530 616 L531 615 L531 613 L532 612 L532 611 L534 609 L534 608 L535 607 L535 606 L536 605 L536 604 L537 603 L537 601 L538 600 L538 598 L539 597 L539 593 L540 592 L540 583 L541 582 L541 573 L540 572 L540 571 L541 570 L541 568 L540 567 L540 563 L539 562 L539 557 L538 556 L538 553 L537 552 L537 547 L536 546 L536 540 L535 539 L535 537 L534 536 L534 535 L533 534 L533 532 L532 531 L532 530 L531 529 L531 528 L530 527 L530 526 L528 524 L528 523 L527 522 L527 521 L526 520 L526 519 L525 518 L525 517 L523 515 L523 514 L521 512 L521 511 L518 508 L518 507 L506 495 L505 495 L504 494 L503 494 L502 493 L501 493 L499 491 L498 491 L497 490 L496 490 L495 489 L494 489 L493 488 L492 488 L491 487 L490 487 L489 486 L488 486 L485 483 L484 483 L482 481 L481 481 L478 478 L477 478 L473 474 L472 474 L469 471 L468 471 L466 469 L465 469 L462 466 L461 466 L460 465 L462 463 L463 463 L464 462 L470 462 L472 464 L473 464 L476 467 L476 470 L478 472 L479 472 L481 474 L482 474 L483 475 L484 475 L485 476 L486 476 L487 477 L488 477 L489 478 L490 478 L492 480 L493 480 L494 481 L495 481 L497 483 L498 483 L499 484 L500 484 L501 485 L503 485 L504 486 L506 486 L507 487 L523 487 L524 486 L532 486 L533 485 L542 485 L543 484 L556 484 L557 485 L559 485 L560 486 L561 486 L563 488 L564 488 L572 496 L573 496 L576 499 L577 499 L578 500 L579 500 L580 501 L581 501 L582 502 L584 502 L585 503 L591 503 L592 502 L595 502 L596 501 L597 501 L598 500 L599 500 L600 499 L602 499 L603 498 L609 498 L610 499 L611 499 L613 501 L614 501 L617 504 L618 504 L621 507 L622 507 L624 509 L625 509 L626 510 L629 510 L630 511 L632 511 L633 510 L633 506 L634 505 L634 499 L635 498 L635 494 L636 493 L636 491 L637 490 L637 489 L640 486 L640 480 L639 479 L639 475 L638 474 L638 472 L637 471 L637 470 L636 469 L636 468 L634 466 L634 465 L633 464 L632 464 L631 463 L620 463 L619 462 L617 462 L616 461 L615 461 L614 460 L613 460 L612 459 L611 459 L610 458 L609 458 L608 457 L606 457 L605 456 L604 456 L603 455 L602 455 L593 446 L592 446 L589 443 L588 443 L586 441 L585 441 L581 437 L580 437 L571 428 L570 428 L568 426 L567 426 L566 425 L565 425 L563 423 L562 423 L558 419 L558 418 L554 414 L553 414 L551 412 L549 412 L548 411 L547 411 L546 410 L538 410 L537 409 L532 409 L531 408 L530 408 L529 407 L530 406 L532 406 L533 405 L536 405 L537 404 L540 404 L541 403 L544 403 L545 402 L548 402 L549 401 L551 401 L552 400 L554 400 L555 399 L556 399 L558 397 L559 397 L561 395 L562 395 L563 394 L564 394 L565 393 L566 393 L568 391 L570 391 L572 389 L573 389 L574 388 L575 388 L578 385 L579 385 L582 382 L582 381 L588 375 L588 374 L596 366 L596 365 L602 359 L602 358 L603 357 L604 357 L605 356 L606 356 L607 355 L610 355 L611 354 L617 354 L618 353 L620 353 L621 352 L623 352 L624 351 L625 351 L627 349 L628 349 L630 347 L631 347 L636 342 L637 342 L637 341 L641 337 L641 336 L642 335 L642 334 L643 333 L643 332 L644 331 L644 330 L645 329 L645 328 L647 326 L647 325 L649 323 L649 322 L650 321 L650 320 L651 319 L651 318 L652 317 L652 316 L653 315 L653 314 L654 313 L654 312 L655 311 L655 310 L656 309 L656 308 L657 307 L657 306 L658 305 L658 304 L659 303 L659 302 L660 301 L660 299 L661 298 L661 283 L662 282 L662 278 L661 277 L662 276 L662 266 L663 265 L663 264 L664 263 L664 262 L665 261 L665 260 L666 259 L666 258 L667 257 L667 255 L668 254 L668 252 L669 251 L669 244 L670 243 L670 239 L671 238 L671 235 L672 234 L672 223 L671 222 L671 220 L670 219 L670 218 L669 217 L669 216 L668 215 L668 214 L666 212 L666 210 L665 209 L665 208 L664 207 L664 206 L663 205 L663 204 L662 203 L662 202 L661 201 L661 200 L660 199 L660 198 L657 195 L656 195 L654 193 L653 193 L651 191 L650 191 L648 189 L647 189 L646 188 L645 188 L642 185 L642 184 L641 183 L641 182 L640 181 L640 180 L639 179 L639 178 L635 174 L632 174 L631 173 L621 173 L620 174 L601 174 L600 173 L599 173 L597 171 L597 170 L596 169 L596 167 L595 166 L595 165 L594 164 L594 163 L593 162 L593 161 L591 159 L591 158 L590 157 L590 156 L589 155 L589 154 L588 153 L588 151 L586 149 L585 149 L584 148 L581 148 L580 147 L579 147 L578 146 L577 146 L576 145 L575 145 L574 144 L572 144 L571 143 L537 143 L536 142 L531 142 L530 141 L526 141 L525 140 L520 140 L519 139 L510 139 L509 138 L488 138 L487 139 L485 139 L484 140 L483 140 L482 141 L481 141 L480 142 L479 142 L478 143 L477 143 L476 144 L475 144 L474 145 L473 145 L472 146 L470 146 L469 147 L468 147 L467 148 L466 148 L465 149 L464 149 L462 151 L461 151 L459 153 L458 153 L456 155 L455 155 L453 157 L452 157 L451 158 L450 158 L449 159 L448 159 L447 160 L446 160 L445 161 L444 161 L443 162 L442 162 L441 163 L438 163 L437 164 L435 164 L434 165 L430 165 L429 166 L424 166 L423 167 L419 167 L418 168 L417 168 L416 169 L415 169 L414 170 L413 170 L411 172 L411 173 L410 174 L410 175 L409 176 L409 177 L406 180 L404 178 L404 167 L403 166 L403 164 L402 163 L402 161 L401 160 L401 157 L400 156 L400 155 L399 154 L399 153 L398 152 L398 151 L397 150 L397 149 L396 148 L396 147 L395 146 L395 145 L393 143 L393 142 L392 141 L392 140 L391 139 L391 138 L390 137 L390 136 L389 135 L389 134 L387 132 L387 131 L385 129 L385 128 L383 126 L383 125 L381 123 L381 122 L380 121 L380 118 L379 117 L379 112 L378 111 L378 108 L377 107 L377 105 L376 104 L376 102 L375 101 L375 100 L370 95 L370 94 L369 93 L369 90 L368 89 L368 88 L357 77 L356 77 L352 73 L351 73 L348 70 L347 70 L345 68 L344 68 L343 67 L342 67 L341 66 L340 66 L339 65 L337 65 L336 64 L335 64 L334 63 L333 63 L332 62 L331 62 L330 61 L329 61 L324 56 L323 56 L319 52 L318 52 L310 44 L309 44 L308 43 L307 43 L306 42 L305 42 L304 41 L303 41 L302 40 L300 40 L299 39 L298 39 L297 38 L296 38 L293 35 L292 35 L291 34 L290 34 L289 33 L287 33 L286 32 L285 32 L284 31 L282 31 L280 29 L279 29 L277 27 L276 27 L275 26 L274 26 L272 24 L271 24 L269 22 L268 22 L267 21 L266 21 L265 20 L263 20 L262 19 L261 19 L260 18 L259 18 L258 17 L257 17 L254 14 L253 14 L252 13 L251 13 L250 12 L247 12 L246 11 Z M653 0 L653 4 L652 5 L652 9 L651 10 L651 15 L650 16 L650 20 L649 21 L649 25 L648 26 L648 33 L647 34 L647 39 L646 40 L646 49 L645 50 L645 62 L644 63 L644 95 L644 94 L645 93 L645 91 L646 90 L646 87 L648 85 L648 84 L652 80 L653 81 L653 82 L654 83 L654 85 L655 86 L655 90 L659 94 L660 93 L660 92 L661 91 L661 86 L662 85 L662 82 L663 81 L663 71 L664 70 L664 54 L665 53 L665 43 L666 42 L666 34 L667 33 L667 30 L668 29 L668 24 L669 23 L669 17 L670 16 L670 9 L671 8 L671 4 L672 3 L672 0 Z M0 0 L0 36 L1 36 L2 37 L2 38 L3 39 L0 42 L0 47 L1 46 L2 46 L7 41 L7 40 L8 39 L8 38 L11 35 L13 37 L13 38 L14 39 L14 40 L17 43 L18 43 L19 44 L21 44 L22 45 L24 45 L25 46 L33 46 L34 45 L36 45 L37 44 L38 44 L42 40 L43 40 L45 38 L51 38 L52 37 L54 37 L55 36 L56 36 L59 33 L59 32 L60 31 L60 30 L61 29 L61 25 L62 24 L62 23 L65 20 L65 12 L66 11 L66 3 L64 1 L64 0 Z " fill="black"/></svg>