<svg width="613" height="623" xmlns="http://www.w3.org/2000/svg"><path d="M201 11 L200 12 L194 12 L193 13 L189 13 L188 14 L187 14 L186 15 L184 15 L183 16 L181 16 L180 17 L179 17 L178 18 L177 18 L176 19 L175 19 L172 22 L171 22 L168 25 L168 26 L166 28 L166 29 L165 30 L165 31 L164 32 L164 33 L163 34 L163 35 L162 36 L162 37 L161 38 L161 39 L160 40 L160 42 L159 43 L159 44 L158 45 L158 47 L157 48 L157 50 L156 51 L156 53 L155 54 L155 56 L154 57 L154 59 L153 60 L153 62 L152 63 L152 65 L151 66 L151 69 L150 70 L150 72 L149 73 L149 75 L148 76 L148 78 L147 79 L147 82 L146 83 L146 85 L145 86 L145 89 L144 90 L144 93 L143 94 L143 98 L142 99 L142 100 L140 102 L139 102 L138 103 L135 103 L134 104 L132 104 L131 105 L130 105 L129 106 L127 106 L126 107 L125 107 L124 108 L122 108 L121 109 L120 109 L119 110 L118 110 L117 111 L116 111 L114 113 L113 113 L112 114 L111 114 L109 116 L108 116 L106 118 L105 118 L103 120 L102 120 L100 122 L99 122 L95 126 L94 126 L78 142 L78 143 L75 146 L75 147 L72 150 L72 151 L70 153 L70 154 L68 156 L68 157 L66 159 L66 160 L64 162 L64 163 L63 164 L63 165 L61 167 L61 168 L60 169 L60 170 L59 171 L59 172 L58 173 L58 174 L56 176 L56 177 L55 178 L55 179 L54 180 L54 181 L53 182 L53 183 L52 184 L52 185 L51 186 L51 187 L50 188 L50 191 L49 192 L49 194 L48 195 L48 197 L47 198 L47 199 L46 200 L46 201 L45 202 L45 205 L44 206 L44 207 L43 208 L43 209 L42 210 L42 212 L41 213 L41 216 L40 217 L40 218 L39 219 L39 221 L38 222 L38 224 L37 225 L37 228 L36 229 L36 232 L35 233 L35 236 L34 237 L34 240 L33 241 L33 246 L32 247 L32 252 L31 253 L31 256 L30 257 L30 262 L29 263 L29 271 L28 272 L28 282 L27 283 L27 285 L28 286 L27 287 L27 309 L28 310 L28 323 L29 324 L29 332 L30 333 L30 338 L31 339 L31 343 L32 344 L32 347 L33 348 L33 350 L34 351 L34 352 L33 353 L33 354 L32 355 L32 356 L30 358 L30 359 L29 360 L29 361 L27 363 L27 364 L26 365 L26 366 L25 367 L25 369 L23 371 L23 373 L22 374 L22 375 L21 376 L21 378 L20 379 L20 380 L19 381 L19 384 L18 385 L18 387 L17 388 L17 389 L16 390 L16 393 L15 394 L15 396 L14 397 L14 400 L13 401 L13 405 L12 406 L12 412 L11 413 L11 428 L10 429 L10 434 L11 435 L11 447 L12 448 L12 454 L13 455 L13 459 L14 460 L14 463 L15 464 L15 468 L16 469 L16 471 L17 472 L17 474 L18 475 L18 477 L19 478 L19 480 L20 481 L20 482 L21 483 L21 484 L22 485 L22 487 L23 488 L23 489 L24 490 L24 491 L25 492 L25 494 L26 495 L26 496 L27 497 L27 498 L29 500 L29 501 L30 502 L30 503 L32 505 L32 506 L34 508 L34 509 L36 511 L36 512 L39 515 L39 516 L42 519 L42 520 L47 525 L47 526 L62 541 L63 541 L67 545 L68 545 L72 549 L73 549 L75 551 L76 551 L79 554 L80 554 L82 556 L83 556 L85 558 L86 558 L87 559 L88 559 L89 560 L90 560 L91 561 L92 561 L94 563 L95 563 L96 564 L97 564 L98 565 L99 565 L100 566 L101 566 L102 567 L103 567 L104 568 L106 568 L107 569 L108 569 L109 570 L110 570 L111 571 L112 571 L113 572 L115 572 L116 573 L117 573 L118 574 L119 574 L120 575 L122 575 L123 576 L124 576 L125 577 L127 577 L128 578 L130 578 L131 579 L132 579 L133 580 L135 580 L136 581 L139 581 L140 582 L142 582 L143 583 L145 583 L146 584 L149 584 L150 585 L153 585 L154 586 L156 586 L157 587 L160 587 L161 588 L164 588 L165 589 L168 589 L169 590 L172 590 L173 591 L177 591 L178 592 L182 592 L183 593 L186 593 L187 594 L192 594 L193 595 L199 595 L200 596 L205 596 L206 597 L213 597 L214 598 L221 598 L222 599 L229 599 L230 600 L238 600 L239 601 L250 601 L251 602 L263 602 L264 603 L269 603 L271 605 L272 605 L274 607 L275 607 L277 609 L279 609 L280 610 L283 610 L284 611 L294 611 L295 610 L300 610 L301 609 L303 609 L304 608 L308 608 L309 607 L327 607 L328 606 L354 606 L355 605 L363 605 L364 604 L366 604 L367 603 L368 603 L370 601 L370 600 L372 598 L372 595 L373 594 L373 582 L372 581 L372 579 L371 578 L371 577 L366 572 L365 572 L364 571 L361 571 L360 570 L351 570 L350 569 L344 569 L343 568 L332 568 L331 567 L319 567 L318 566 L312 566 L311 565 L309 565 L308 564 L306 564 L305 563 L303 563 L302 562 L299 562 L298 561 L293 561 L292 560 L284 560 L283 561 L278 561 L277 562 L275 562 L273 564 L272 564 L270 566 L270 567 L267 570 L254 570 L253 569 L245 569 L244 568 L237 568 L236 567 L229 567 L228 566 L223 566 L222 565 L217 565 L216 564 L210 564 L209 563 L204 563 L203 562 L200 562 L199 561 L194 561 L193 560 L189 560 L188 559 L185 559 L184 558 L181 558 L180 557 L176 557 L175 556 L171 556 L170 555 L167 555 L166 554 L163 554 L162 553 L159 553 L158 552 L156 552 L155 551 L152 551 L151 550 L148 550 L147 549 L145 549 L144 548 L142 548 L141 547 L139 547 L138 546 L136 546 L135 545 L134 545 L133 544 L131 544 L130 543 L129 543 L128 542 L127 542 L126 541 L125 541 L124 540 L123 540 L122 539 L121 539 L120 538 L119 538 L118 537 L117 537 L116 536 L115 536 L114 535 L113 535 L112 534 L111 534 L110 533 L109 533 L107 531 L106 531 L105 530 L104 530 L101 527 L102 526 L103 526 L104 527 L106 527 L107 528 L111 528 L112 529 L116 529 L117 530 L120 530 L121 531 L126 531 L127 532 L132 532 L133 533 L136 533 L137 534 L141 534 L142 535 L147 535 L148 536 L152 536 L153 537 L157 537 L158 538 L163 538 L164 539 L169 539 L170 540 L175 540 L176 541 L182 541 L183 542 L187 542 L188 543 L192 543 L193 544 L197 544 L198 545 L203 545 L204 546 L209 546 L210 547 L214 547 L215 548 L221 548 L222 549 L228 549 L229 550 L235 550 L236 551 L243 551 L244 552 L250 552 L251 553 L257 553 L258 554 L265 554 L266 555 L278 555 L279 554 L283 554 L284 553 L286 553 L287 552 L289 552 L290 551 L291 551 L292 550 L293 550 L294 549 L295 549 L296 548 L297 548 L298 547 L299 547 L303 543 L304 543 L306 541 L306 540 L310 536 L310 535 L313 532 L313 531 L315 529 L315 528 L316 527 L316 525 L317 524 L317 523 L318 522 L318 521 L319 520 L319 518 L320 517 L320 516 L321 515 L321 513 L322 512 L322 511 L323 510 L323 508 L324 507 L324 506 L325 505 L325 503 L326 502 L326 501 L327 500 L327 498 L328 497 L328 496 L329 495 L333 495 L334 496 L336 496 L337 497 L339 497 L340 498 L343 498 L344 499 L347 499 L348 500 L355 500 L356 501 L366 501 L367 500 L373 500 L374 499 L377 499 L378 498 L381 498 L382 497 L383 497 L384 496 L386 496 L387 495 L394 495 L395 496 L405 496 L406 497 L414 497 L415 498 L421 498 L422 499 L429 499 L430 500 L436 500 L437 501 L442 501 L443 502 L449 502 L450 503 L457 503 L458 504 L465 504 L466 505 L471 505 L472 504 L474 504 L475 503 L476 503 L477 502 L478 502 L481 499 L482 499 L487 494 L487 493 L489 491 L489 490 L490 489 L490 487 L491 486 L491 482 L492 481 L492 478 L491 477 L491 471 L490 470 L490 467 L489 466 L489 464 L488 463 L488 462 L487 461 L487 460 L486 459 L486 458 L485 457 L485 456 L484 455 L484 454 L483 453 L483 451 L482 450 L482 449 L481 448 L481 447 L480 446 L480 444 L479 443 L479 442 L478 441 L478 439 L477 438 L477 437 L476 436 L476 434 L475 433 L475 432 L474 431 L474 430 L473 429 L473 427 L472 426 L472 425 L471 424 L471 423 L470 422 L470 420 L469 419 L469 418 L468 417 L468 416 L467 415 L467 414 L466 413 L466 412 L465 411 L465 410 L464 409 L464 407 L463 406 L463 405 L464 404 L464 403 L465 402 L465 400 L466 399 L466 397 L467 396 L467 394 L468 393 L468 392 L469 391 L469 389 L470 388 L470 386 L471 385 L471 383 L472 382 L472 380 L473 379 L473 376 L474 375 L474 373 L475 372 L475 370 L476 369 L476 365 L477 364 L477 360 L478 359 L478 355 L479 354 L479 349 L480 348 L480 343 L481 342 L481 336 L482 335 L482 329 L483 328 L483 318 L484 317 L484 257 L483 256 L483 242 L484 241 L484 240 L485 239 L485 238 L486 237 L486 235 L487 234 L487 233 L488 232 L488 231 L489 230 L489 229 L490 228 L490 226 L491 225 L491 224 L492 223 L492 222 L493 221 L493 220 L494 219 L494 218 L495 217 L495 216 L496 215 L496 214 L497 213 L497 212 L498 211 L498 210 L499 209 L499 208 L500 207 L500 206 L501 205 L501 204 L502 203 L502 202 L503 201 L503 200 L505 198 L509 198 L510 199 L521 199 L522 200 L531 200 L532 201 L540 201 L541 202 L550 202 L551 203 L561 203 L562 204 L570 204 L571 205 L576 205 L577 206 L582 206 L583 207 L586 207 L587 206 L589 206 L591 204 L592 204 L596 200 L596 199 L598 197 L598 196 L599 195 L599 193 L600 192 L600 190 L601 189 L601 174 L600 173 L600 171 L599 170 L599 169 L598 168 L598 167 L594 163 L593 163 L592 162 L590 162 L589 161 L575 161 L574 160 L558 160 L557 159 L527 159 L526 158 L518 158 L517 157 L512 157 L511 156 L504 156 L499 161 L495 161 L494 162 L488 162 L487 163 L484 163 L483 164 L482 164 L481 165 L480 165 L476 169 L476 170 L475 171 L475 173 L474 174 L474 175 L473 176 L473 177 L472 178 L472 179 L471 180 L471 181 L470 182 L470 183 L469 184 L469 185 L468 186 L468 187 L466 189 L465 188 L465 186 L464 185 L464 184 L463 183 L463 182 L462 181 L462 180 L461 179 L461 177 L460 176 L460 175 L459 174 L459 173 L458 172 L458 171 L457 170 L457 169 L455 167 L455 166 L454 165 L454 164 L453 163 L453 162 L451 160 L451 159 L446 154 L446 153 L444 151 L444 149 L445 148 L445 146 L446 145 L446 142 L447 141 L447 139 L448 138 L448 136 L449 135 L449 132 L450 131 L450 128 L451 127 L451 125 L452 124 L452 122 L453 121 L453 118 L454 117 L454 114 L455 113 L455 110 L456 109 L456 106 L457 105 L457 102 L458 101 L458 99 L459 98 L459 95 L460 94 L460 91 L461 90 L461 87 L462 86 L462 82 L463 81 L463 75 L464 74 L464 59 L463 58 L463 54 L462 53 L462 51 L461 50 L461 48 L460 47 L460 46 L459 45 L459 44 L458 43 L458 42 L456 40 L456 39 L450 33 L449 33 L448 32 L447 32 L446 31 L445 31 L444 30 L443 30 L442 29 L439 29 L438 28 L435 28 L434 27 L431 27 L430 26 L427 26 L426 25 L421 25 L420 24 L415 24 L414 23 L409 23 L408 22 L401 22 L400 21 L392 21 L391 20 L382 20 L381 19 L369 19 L368 18 L353 18 L352 17 L338 17 L337 16 L322 16 L321 15 L302 15 L301 14 L285 14 L284 13 L270 13 L269 12 L237 12 L236 11 Z " fill="black"/></svg>