<svg width="748" height="1228" xmlns="http://www.w3.org/2000/svg"><path d="M738 1059 L737 1060 L736 1060 L735 1061 L734 1061 L733 1062 L732 1062 L731 1063 L729 1063 L728 1064 L727 1064 L726 1065 L725 1065 L724 1066 L722 1066 L721 1067 L720 1067 L719 1068 L718 1068 L717 1069 L716 1069 L714 1071 L713 1071 L711 1073 L710 1073 L708 1075 L707 1075 L705 1077 L704 1077 L702 1079 L701 1078 L700 1078 L699 1077 L696 1077 L695 1076 L693 1076 L692 1075 L690 1075 L689 1074 L688 1074 L687 1073 L686 1073 L685 1072 L683 1072 L682 1071 L681 1071 L680 1070 L679 1070 L678 1069 L676 1069 L675 1068 L672 1068 L671 1067 L663 1067 L662 1066 L659 1066 L658 1065 L656 1065 L655 1064 L654 1064 L653 1063 L651 1063 L650 1062 L646 1062 L645 1063 L645 1064 L643 1066 L643 1068 L642 1069 L642 1070 L641 1071 L641 1072 L640 1073 L640 1074 L639 1075 L639 1076 L638 1077 L638 1078 L637 1079 L637 1080 L636 1081 L636 1082 L635 1083 L635 1084 L634 1085 L634 1086 L633 1087 L633 1088 L631 1090 L631 1092 L630 1093 L630 1094 L629 1095 L629 1097 L628 1098 L628 1100 L627 1101 L627 1104 L625 1106 L623 1106 L622 1107 L618 1107 L617 1108 L610 1108 L609 1109 L600 1109 L599 1110 L596 1110 L595 1111 L594 1111 L592 1113 L592 1114 L591 1115 L591 1117 L590 1118 L590 1142 L588 1144 L587 1144 L581 1150 L581 1151 L580 1152 L579 1152 L579 1153 L573 1159 L572 1159 L564 1167 L563 1167 L559 1171 L559 1173 L560 1174 L560 1176 L561 1177 L561 1178 L562 1179 L562 1180 L563 1181 L563 1182 L565 1184 L565 1185 L566 1186 L566 1188 L567 1189 L567 1191 L568 1192 L568 1194 L569 1195 L569 1196 L570 1197 L570 1198 L571 1199 L571 1200 L572 1201 L572 1202 L574 1204 L574 1205 L581 1212 L582 1212 L585 1215 L586 1215 L589 1218 L589 1220 L587 1222 L587 1223 L585 1225 L585 1226 L584 1227 L747 1227 L747 1075 L746 1074 L746 1072 L747 1071 L747 1063 L744 1060 L743 1060 L742 1059 Z M747 761 L747 763 L746 764 L746 767 L745 768 L745 770 L744 771 L744 772 L743 773 L743 774 L742 775 L742 780 L741 781 L741 788 L740 789 L740 804 L739 805 L739 807 L740 808 L740 813 L741 814 L741 815 L743 815 L747 811 Z M747 461 L747 463 L746 464 L746 466 L745 467 L745 468 L744 469 L744 470 L742 472 L741 472 L737 476 L737 478 L736 479 L736 480 L735 481 L735 482 L734 483 L734 484 L733 485 L733 486 L732 487 L732 488 L731 489 L731 490 L730 491 L730 492 L729 493 L729 494 L728 495 L728 496 L727 497 L727 498 L725 500 L725 501 L724 502 L724 503 L723 504 L723 505 L722 506 L722 507 L721 508 L721 509 L720 510 L720 512 L719 513 L719 516 L718 517 L718 521 L717 522 L717 524 L718 525 L718 526 L721 526 L725 522 L726 522 L728 520 L729 520 L730 519 L731 519 L732 518 L733 518 L734 517 L735 517 L736 516 L738 516 L739 515 L741 515 L742 514 L744 514 L745 513 L747 513 L747 503 L746 503 L745 504 L744 504 L743 503 L745 501 L747 501 L747 490 L746 489 L747 488 Z M706 107 Z M702 107 Z M694 107 Z M616 11 L615 12 L614 12 L609 17 L608 17 L602 23 L602 24 L595 31 L595 32 L590 37 L590 38 L588 40 L588 41 L587 42 L587 43 L585 45 L585 46 L583 48 L583 49 L582 50 L582 51 L580 53 L580 54 L579 55 L579 56 L578 57 L578 59 L577 60 L577 62 L576 63 L576 65 L575 66 L575 69 L574 70 L574 73 L573 74 L573 80 L572 81 L572 87 L571 88 L569 86 L569 85 L568 84 L568 83 L566 81 L566 80 L564 78 L564 77 L560 73 L560 72 L558 70 L558 69 L556 67 L556 66 L553 63 L553 62 L548 57 L548 56 L543 51 L543 50 L539 46 L537 46 L534 49 L534 51 L533 52 L533 53 L532 54 L532 55 L531 56 L531 57 L530 58 L530 59 L529 60 L529 61 L528 62 L528 63 L527 64 L527 65 L526 66 L526 67 L525 68 L525 69 L524 70 L524 72 L523 73 L523 75 L522 76 L522 78 L521 79 L521 80 L520 81 L520 84 L519 85 L519 90 L518 91 L518 97 L517 98 L517 102 L516 103 L516 107 L515 108 L515 116 L514 117 L514 125 L515 126 L515 128 L514 129 L507 122 L507 121 L504 118 L504 117 L491 104 L490 104 L488 102 L487 102 L485 100 L483 100 L479 104 L479 105 L478 106 L478 109 L477 110 L477 112 L476 113 L476 116 L475 117 L475 119 L474 120 L474 123 L473 124 L473 129 L472 130 L472 135 L471 136 L471 142 L470 143 L470 164 L471 165 L471 169 L472 170 L472 172 L473 173 L473 175 L474 176 L474 178 L475 179 L475 181 L476 182 L476 185 L477 186 L477 188 L478 189 L478 192 L479 193 L479 195 L480 196 L480 197 L481 198 L481 199 L482 200 L482 201 L483 202 L483 203 L484 204 L484 205 L485 206 L485 207 L487 209 L487 210 L488 211 L488 212 L490 214 L490 215 L492 217 L492 218 L494 220 L494 221 L496 223 L496 224 L500 228 L500 229 L507 236 L508 236 L514 242 L514 243 L515 244 L515 247 L513 249 L513 250 L511 252 L510 252 L506 256 L505 256 L504 257 L503 256 L502 256 L503 256 L504 257 L503 258 L503 259 L499 263 L498 262 L498 261 L497 260 L497 258 L498 257 L498 256 L497 256 L496 255 L496 252 L495 251 L495 244 L494 243 L494 240 L493 239 L493 237 L492 236 L492 234 L491 233 L491 231 L490 230 L490 227 L489 226 L489 224 L488 223 L488 222 L487 221 L487 220 L486 219 L486 218 L485 217 L485 216 L483 214 L483 213 L480 210 L480 209 L476 205 L476 204 L472 200 L472 199 L467 194 L467 193 L460 186 L460 185 L457 182 L456 182 L455 181 L454 181 L453 180 L452 180 L451 179 L450 179 L448 177 L447 177 L444 174 L443 174 L440 171 L439 171 L437 169 L436 169 L435 168 L434 168 L432 166 L431 166 L430 165 L428 165 L427 164 L423 164 L422 165 L421 165 L419 167 L419 170 L418 171 L418 196 L419 197 L419 208 L420 209 L420 214 L421 215 L421 225 L422 226 L422 231 L423 232 L423 234 L424 235 L424 237 L425 238 L425 239 L426 240 L426 242 L427 243 L427 244 L428 245 L428 246 L429 247 L429 249 L430 250 L430 251 L431 252 L431 253 L433 255 L433 256 L434 257 L434 258 L435 259 L435 260 L436 261 L436 262 L437 263 L437 264 L438 265 L438 266 L440 268 L440 269 L441 270 L441 271 L444 274 L444 275 L447 278 L447 279 L461 293 L462 293 L476 307 L476 308 L478 310 L478 312 L479 313 L479 314 L480 315 L480 316 L479 317 L479 318 L478 319 L478 320 L477 321 L477 322 L475 324 L475 325 L473 327 L473 328 L470 331 L470 332 L467 335 L466 334 L466 331 L465 330 L465 328 L464 327 L464 325 L463 324 L463 322 L462 321 L462 320 L461 319 L461 317 L460 316 L460 315 L459 314 L459 313 L458 312 L458 311 L456 309 L456 308 L455 307 L455 306 L454 305 L454 303 L453 302 L453 301 L452 300 L452 299 L451 298 L451 297 L450 296 L450 295 L449 294 L449 293 L447 291 L447 290 L445 288 L445 287 L443 285 L443 284 L428 269 L427 269 L425 267 L424 267 L421 264 L420 264 L418 262 L417 262 L415 260 L414 260 L410 256 L409 256 L408 255 L407 255 L406 254 L405 254 L403 252 L402 252 L401 251 L400 251 L399 250 L398 250 L397 249 L395 249 L394 248 L393 248 L392 247 L390 247 L389 246 L387 246 L386 245 L381 245 L380 244 L374 244 L373 245 L373 254 L374 255 L374 264 L375 265 L375 269 L376 270 L376 273 L377 274 L377 277 L378 278 L378 281 L379 282 L379 285 L380 286 L380 289 L381 290 L381 293 L382 294 L382 297 L383 298 L383 300 L384 301 L384 303 L385 304 L385 305 L386 306 L386 307 L387 308 L387 310 L388 311 L388 312 L389 313 L389 314 L390 315 L390 316 L391 317 L391 318 L392 319 L392 320 L394 322 L394 323 L395 324 L395 325 L397 327 L397 328 L398 329 L398 330 L400 332 L400 333 L401 334 L401 335 L403 337 L403 338 L404 339 L404 340 L406 342 L406 343 L407 344 L407 345 L409 347 L409 348 L412 351 L412 352 L419 359 L419 360 L424 365 L425 365 L428 368 L429 368 L431 370 L432 370 L434 372 L435 372 L438 375 L439 375 L443 379 L444 379 L448 383 L448 384 L452 388 L452 389 L453 390 L453 394 L452 395 L452 398 L451 399 L451 401 L450 402 L450 403 L449 404 L449 408 L448 409 L448 415 L447 416 L447 419 L446 420 L446 422 L445 423 L445 424 L443 426 L443 428 L442 429 L442 432 L441 433 L441 436 L440 437 L440 438 L439 439 L438 439 L436 437 L436 422 L435 421 L435 418 L434 417 L434 416 L433 415 L433 414 L432 413 L431 413 L429 411 L429 409 L428 408 L428 407 L427 406 L427 405 L426 404 L426 403 L425 402 L425 401 L424 400 L424 399 L423 398 L423 397 L422 396 L422 395 L421 394 L421 393 L420 392 L420 391 L419 390 L419 389 L418 388 L418 387 L415 384 L415 383 L414 382 L414 381 L412 379 L412 378 L408 374 L408 373 L402 367 L401 367 L393 359 L392 359 L387 354 L386 354 L383 351 L382 351 L381 350 L380 350 L378 348 L377 348 L375 346 L374 346 L372 344 L371 344 L370 343 L369 343 L367 341 L366 341 L365 340 L364 340 L363 339 L362 339 L361 338 L359 338 L358 337 L357 337 L356 336 L353 336 L352 335 L347 335 L347 350 L348 351 L348 356 L349 357 L349 363 L350 364 L350 365 L348 367 L347 367 L343 371 L343 372 L337 378 L336 378 L334 380 L332 380 L331 381 L330 381 L327 384 L327 385 L325 387 L325 388 L312 401 L311 401 L308 404 L308 405 L304 409 L304 410 L301 413 L301 414 L299 416 L299 417 L297 419 L297 420 L295 422 L295 423 L293 425 L293 426 L292 427 L292 428 L290 430 L290 431 L289 432 L289 433 L288 434 L288 436 L287 437 L287 439 L286 440 L286 443 L285 444 L285 445 L283 447 L279 443 L279 442 L276 439 L276 438 L275 437 L275 436 L274 435 L274 434 L273 433 L273 432 L272 431 L272 430 L271 429 L271 427 L270 426 L270 424 L269 423 L269 422 L268 421 L268 418 L270 416 L271 416 L272 415 L273 415 L275 413 L276 413 L286 403 L287 403 L310 380 L310 379 L316 373 L316 372 L319 369 L319 368 L321 366 L321 365 L323 363 L323 362 L324 361 L324 360 L326 358 L326 357 L327 356 L327 355 L328 354 L328 353 L329 352 L329 351 L330 350 L330 349 L332 347 L332 346 L333 345 L333 344 L334 343 L334 342 L335 341 L335 339 L336 338 L336 335 L337 334 L337 332 L338 331 L338 329 L339 328 L339 325 L340 324 L340 321 L341 320 L341 315 L342 314 L342 311 L343 310 L343 307 L344 306 L344 303 L345 302 L345 300 L346 299 L346 296 L347 295 L347 289 L348 288 L348 266 L347 265 L347 263 L344 263 L343 264 L341 264 L338 267 L337 267 L336 268 L335 268 L334 269 L332 269 L331 270 L328 270 L327 271 L322 271 L321 272 L320 272 L319 273 L317 273 L314 276 L313 276 L311 278 L310 278 L308 280 L307 280 L306 281 L305 281 L303 283 L302 283 L299 286 L298 286 L286 298 L286 299 L280 305 L279 305 L276 308 L276 309 L273 312 L273 313 L271 315 L271 316 L270 317 L270 318 L268 320 L268 321 L265 324 L265 325 L264 326 L264 327 L262 329 L262 330 L261 331 L261 333 L260 334 L260 336 L259 337 L259 338 L258 339 L258 341 L257 342 L257 343 L256 344 L256 345 L255 346 L255 348 L254 349 L254 350 L253 351 L253 353 L252 354 L252 360 L251 361 L251 378 L252 379 L252 386 L251 387 L247 383 L247 382 L246 381 L246 380 L245 379 L245 378 L244 377 L244 376 L243 375 L243 374 L242 373 L242 371 L241 370 L241 368 L240 367 L240 365 L239 364 L239 362 L238 361 L238 359 L237 358 L237 356 L236 355 L236 353 L235 352 L235 348 L234 347 L234 338 L247 325 L248 325 L257 316 L258 316 L268 306 L268 305 L271 302 L271 301 L274 298 L274 297 L279 292 L279 291 L285 285 L285 284 L287 282 L287 281 L288 280 L288 278 L289 277 L289 276 L290 275 L290 273 L291 272 L291 270 L292 269 L292 268 L293 267 L293 265 L294 264 L294 262 L295 261 L295 259 L296 258 L296 255 L297 254 L297 252 L298 251 L298 248 L299 247 L299 242 L300 241 L300 236 L301 235 L301 218 L302 217 L302 202 L303 201 L303 184 L301 182 L299 182 L297 184 L296 184 L295 185 L294 185 L293 186 L292 186 L291 187 L290 187 L289 188 L288 188 L287 189 L286 189 L285 190 L283 190 L282 191 L281 191 L280 192 L279 192 L278 193 L277 193 L275 195 L274 195 L272 197 L271 197 L267 201 L266 201 L264 203 L263 203 L260 206 L259 206 L256 209 L255 209 L251 213 L250 213 L242 221 L242 222 L235 229 L235 230 L232 233 L232 234 L230 236 L230 237 L228 239 L228 240 L227 241 L227 242 L225 244 L225 245 L224 246 L224 247 L223 248 L223 249 L222 250 L222 252 L221 253 L221 254 L220 255 L220 256 L219 257 L219 259 L218 260 L218 262 L217 263 L217 265 L216 266 L216 268 L215 269 L215 272 L214 273 L214 276 L213 277 L213 299 L214 300 L214 302 L213 303 L213 305 L214 306 L214 312 L213 313 L211 311 L211 310 L210 309 L210 308 L209 307 L209 306 L208 305 L208 304 L207 303 L207 302 L206 301 L206 299 L205 298 L205 297 L204 296 L204 295 L203 294 L203 293 L202 292 L202 291 L201 290 L201 289 L200 288 L200 286 L199 285 L199 284 L198 283 L198 282 L197 281 L197 270 L198 269 L198 268 L211 255 L211 254 L213 252 L213 251 L214 250 L214 249 L216 247 L216 246 L217 245 L217 244 L219 242 L219 241 L220 240 L220 239 L222 237 L222 236 L223 235 L223 234 L224 233 L224 232 L225 231 L225 230 L227 228 L227 227 L229 225 L229 224 L230 223 L230 222 L231 221 L231 220 L232 219 L232 218 L233 217 L233 216 L234 215 L234 213 L235 212 L235 210 L236 209 L236 207 L237 206 L237 204 L238 203 L238 201 L239 200 L239 198 L240 197 L240 195 L241 194 L241 191 L242 190 L242 187 L243 186 L243 183 L244 182 L244 173 L245 172 L245 143 L244 142 L244 137 L243 136 L243 131 L242 130 L242 125 L241 124 L241 121 L240 120 L240 118 L239 117 L239 114 L237 112 L236 112 L235 113 L233 113 L232 114 L230 114 L229 115 L228 115 L227 116 L226 116 L225 117 L224 117 L222 119 L221 119 L220 120 L219 120 L217 122 L216 122 L214 124 L213 124 L209 128 L208 128 L203 133 L203 134 L197 140 L197 141 L194 144 L194 145 L192 147 L192 148 L190 150 L190 151 L188 153 L188 154 L187 155 L187 156 L186 157 L186 158 L185 159 L185 161 L184 162 L184 163 L183 164 L183 165 L182 166 L182 167 L181 168 L181 169 L180 170 L180 171 L179 172 L179 174 L178 175 L178 176 L177 177 L177 179 L176 180 L176 182 L175 183 L175 186 L174 187 L174 192 L173 193 L173 199 L172 200 L172 203 L171 204 L171 206 L170 207 L170 210 L169 211 L169 231 L170 232 L170 237 L171 238 L171 242 L170 243 L167 240 L167 239 L166 238 L166 237 L165 236 L165 235 L164 234 L164 233 L163 232 L163 231 L162 230 L162 229 L161 228 L161 227 L160 226 L160 225 L158 223 L158 219 L159 218 L159 217 L160 216 L160 215 L161 214 L161 213 L162 212 L162 209 L163 208 L163 202 L164 201 L164 198 L165 197 L165 196 L166 195 L166 194 L167 193 L167 192 L168 191 L168 190 L169 189 L169 188 L170 187 L170 185 L171 184 L171 181 L172 180 L172 176 L173 175 L173 169 L174 168 L173 167 L173 165 L174 164 L174 148 L173 147 L173 144 L172 143 L172 140 L171 139 L171 135 L170 134 L170 129 L169 128 L169 126 L168 125 L168 123 L167 122 L167 119 L166 118 L166 116 L165 115 L165 114 L163 112 L163 110 L160 107 L160 106 L158 104 L158 103 L157 102 L157 100 L156 99 L156 98 L154 96 L154 95 L151 92 L150 92 L144 86 L143 86 L139 82 L138 82 L135 79 L134 79 L131 76 L130 76 L129 75 L129 74 L128 74 L125 71 L124 71 L121 68 L120 68 L118 66 L117 66 L116 65 L115 65 L114 64 L113 64 L112 65 L111 65 L110 66 L110 67 L107 70 L106 70 L105 71 L105 73 L104 74 L104 76 L103 77 L103 80 L102 81 L102 83 L101 84 L101 85 L100 86 L100 89 L99 90 L99 92 L98 93 L98 95 L97 96 L97 97 L96 98 L96 99 L95 100 L95 103 L94 104 L94 106 L93 107 L93 109 L94 110 L93 111 L93 121 L94 122 L94 133 L95 134 L95 144 L96 145 L96 147 L95 148 L94 147 L94 146 L91 143 L90 143 L88 141 L87 141 L86 140 L85 140 L84 139 L81 139 L80 138 L78 138 L77 137 L74 137 L73 136 L72 136 L68 132 L63 132 L62 131 L60 131 L59 130 L56 130 L55 129 L51 129 L50 128 L31 128 L30 129 L22 129 L21 128 L15 128 L14 129 L13 129 L12 130 L12 131 L11 132 L11 136 L14 139 L15 139 L32 156 L32 157 L33 158 L33 159 L35 161 L35 162 L36 163 L36 164 L37 165 L38 165 L50 177 L50 178 L52 180 L53 180 L55 182 L56 182 L58 184 L59 184 L61 186 L62 186 L64 188 L65 188 L67 190 L68 190 L71 193 L72 193 L74 195 L75 195 L76 196 L77 196 L78 197 L79 197 L80 198 L81 198 L82 199 L85 199 L86 200 L88 200 L89 201 L92 201 L93 202 L95 202 L96 203 L99 203 L100 204 L103 204 L104 205 L105 205 L106 206 L107 206 L108 207 L109 207 L110 208 L112 208 L113 209 L115 209 L116 210 L118 210 L119 211 L121 211 L122 212 L124 212 L125 213 L127 213 L128 214 L130 214 L131 215 L134 215 L135 216 L137 216 L138 217 L139 217 L140 218 L141 218 L147 224 L147 225 L161 239 L161 241 L162 242 L161 243 L160 243 L158 241 L157 241 L155 239 L154 239 L152 237 L151 237 L149 235 L148 235 L147 234 L146 234 L145 233 L144 233 L143 232 L142 232 L140 230 L139 230 L138 229 L137 229 L136 228 L135 228 L134 227 L133 227 L132 226 L130 226 L129 225 L128 225 L127 224 L125 224 L124 223 L122 223 L121 222 L120 222 L119 221 L117 221 L116 220 L113 220 L112 219 L104 219 L103 218 L102 218 L101 219 L100 218 L94 218 L93 217 L90 217 L89 216 L78 216 L77 217 L74 217 L73 218 L70 218 L69 219 L66 219 L65 220 L64 220 L63 221 L62 221 L61 222 L59 222 L57 224 L57 225 L58 226 L58 227 L61 230 L62 230 L64 232 L65 232 L66 233 L67 233 L69 235 L70 235 L71 236 L72 236 L73 237 L74 237 L75 238 L77 238 L78 239 L79 239 L80 240 L82 240 L83 241 L85 241 L86 242 L87 242 L88 243 L90 243 L92 245 L94 245 L95 246 L96 246 L97 247 L99 247 L100 248 L101 248 L102 249 L104 249 L105 250 L107 250 L108 251 L110 251 L111 252 L112 252 L113 253 L114 253 L115 254 L116 254 L117 255 L118 255 L119 256 L122 256 L123 257 L126 257 L127 258 L132 258 L133 259 L136 259 L138 261 L138 262 L137 263 L115 263 L114 264 L111 264 L110 265 L101 265 L101 266 L102 267 L102 268 L103 269 L103 271 L104 272 L104 273 L105 274 L105 275 L106 276 L106 278 L107 279 L107 281 L108 282 L108 283 L109 284 L109 286 L110 287 L110 288 L111 289 L111 290 L113 292 L113 293 L115 295 L115 296 L120 301 L120 302 L124 306 L124 307 L133 316 L134 316 L139 321 L140 321 L143 324 L144 324 L148 328 L149 328 L152 331 L153 331 L154 332 L155 332 L156 333 L157 333 L158 334 L159 334 L160 335 L162 335 L163 336 L164 336 L165 337 L166 337 L167 338 L168 338 L169 339 L171 339 L172 340 L174 340 L175 341 L177 341 L178 342 L180 342 L181 343 L183 343 L184 344 L186 344 L187 345 L190 345 L191 346 L195 346 L196 347 L198 347 L199 348 L200 348 L201 349 L202 349 L211 358 L212 358 L216 362 L216 363 L217 364 L217 365 L218 366 L218 367 L219 368 L219 369 L220 370 L220 371 L221 372 L221 373 L222 374 L222 376 L223 377 L223 379 L224 380 L224 381 L225 382 L225 384 L226 385 L226 387 L225 388 L224 388 L223 387 L222 387 L221 386 L220 386 L219 385 L218 385 L217 384 L215 384 L214 383 L213 383 L212 382 L210 382 L209 381 L208 381 L207 380 L205 380 L204 379 L203 379 L202 378 L200 378 L199 377 L197 377 L196 376 L194 376 L193 375 L190 375 L189 374 L184 374 L183 373 L181 373 L180 372 L178 372 L177 371 L167 371 L166 372 L158 372 L157 373 L156 373 L156 376 L159 379 L159 380 L169 390 L169 391 L183 405 L183 406 L187 410 L188 410 L193 415 L194 415 L196 417 L197 417 L199 419 L200 419 L201 420 L202 420 L204 422 L205 422 L206 423 L207 423 L208 424 L209 424 L210 425 L211 425 L213 427 L214 427 L215 428 L217 428 L218 429 L219 429 L221 431 L222 431 L224 433 L225 433 L226 434 L227 434 L228 435 L229 435 L230 436 L233 436 L234 437 L236 437 L237 438 L239 438 L240 439 L241 439 L242 440 L243 440 L245 442 L246 442 L247 443 L247 444 L249 446 L249 447 L250 448 L250 449 L251 450 L251 451 L252 452 L252 453 L253 454 L253 455 L254 456 L254 458 L255 459 L255 461 L256 462 L256 464 L257 465 L257 468 L258 469 L258 471 L257 472 L256 471 L255 471 L252 468 L251 468 L250 467 L249 467 L248 466 L246 466 L245 465 L243 465 L242 464 L236 464 L235 463 L216 463 L215 462 L214 463 L213 463 L212 464 L212 466 L213 467 L213 472 L214 473 L214 480 L215 481 L215 485 L216 486 L216 488 L217 489 L217 490 L218 491 L218 493 L221 496 L221 497 L222 498 L222 499 L223 500 L223 501 L225 503 L225 504 L226 505 L226 506 L228 508 L228 509 L241 522 L241 524 L240 525 L240 527 L238 529 L238 530 L236 532 L236 533 L234 535 L234 536 L232 538 L232 539 L230 541 L230 542 L228 544 L228 545 L226 547 L226 548 L225 549 L225 550 L223 552 L223 553 L222 554 L222 555 L221 556 L221 557 L220 558 L220 560 L219 561 L219 563 L218 564 L218 565 L217 566 L217 569 L216 570 L216 572 L215 573 L215 574 L213 576 L213 577 L211 579 L211 580 L210 581 L210 584 L209 585 L209 589 L208 590 L208 602 L209 603 L208 604 L207 604 L205 602 L205 601 L204 600 L204 599 L203 598 L203 597 L202 596 L202 587 L203 586 L203 584 L204 583 L204 581 L205 580 L205 579 L206 578 L206 575 L207 574 L207 571 L208 570 L208 567 L209 566 L209 563 L210 562 L210 560 L211 559 L211 556 L212 555 L212 552 L213 551 L213 547 L214 546 L214 537 L215 536 L215 516 L214 515 L214 513 L213 512 L213 509 L212 508 L212 506 L211 505 L211 503 L210 502 L210 501 L209 500 L209 498 L208 497 L208 495 L207 494 L207 491 L206 490 L206 488 L205 487 L205 486 L204 485 L204 483 L203 482 L203 481 L202 480 L202 478 L201 477 L201 476 L200 475 L200 474 L199 473 L199 472 L198 471 L198 469 L197 468 L197 467 L196 466 L196 465 L195 464 L193 464 L191 466 L191 467 L190 468 L190 469 L189 470 L189 471 L187 473 L187 474 L185 476 L185 477 L183 479 L183 480 L181 482 L181 483 L179 485 L179 487 L178 488 L178 492 L177 493 L177 497 L176 498 L176 499 L175 500 L175 502 L173 504 L172 503 L172 493 L171 492 L171 485 L170 484 L170 482 L169 481 L169 479 L168 478 L168 476 L167 475 L167 473 L166 472 L166 471 L165 470 L165 469 L164 468 L164 467 L162 465 L162 464 L159 461 L159 460 L155 456 L155 455 L151 451 L151 450 L147 446 L147 445 L146 444 L144 444 L141 447 L141 453 L142 454 L142 456 L141 457 L141 461 L140 462 L140 465 L139 466 L137 464 L136 464 L131 459 L131 458 L127 454 L127 453 L122 448 L122 447 L117 442 L117 441 L111 435 L110 435 L109 434 L108 434 L107 433 L106 433 L105 434 L104 433 L101 433 L98 436 L98 437 L97 438 L97 440 L96 441 L96 442 L95 443 L94 443 L90 439 L89 439 L82 432 L81 432 L79 430 L78 430 L77 429 L76 429 L75 428 L74 428 L73 427 L71 427 L70 426 L67 426 L66 425 L63 425 L62 424 L59 424 L58 423 L56 423 L55 422 L52 422 L51 421 L48 421 L47 420 L45 420 L44 419 L43 419 L42 418 L40 418 L39 419 L38 419 L37 420 L37 422 L36 423 L36 424 L37 425 L37 429 L38 430 L38 434 L39 435 L39 440 L40 441 L40 444 L41 445 L41 446 L42 447 L42 448 L43 449 L43 450 L45 452 L45 453 L46 454 L46 455 L48 457 L48 458 L50 460 L50 461 L51 462 L51 463 L52 464 L52 465 L54 467 L54 468 L53 469 L42 469 L41 468 L26 468 L25 467 L20 467 L18 469 L18 470 L19 471 L19 472 L20 473 L20 474 L21 475 L21 476 L23 478 L23 479 L25 481 L25 482 L36 493 L37 493 L39 495 L40 495 L42 497 L43 497 L44 498 L45 498 L47 500 L49 500 L50 501 L51 501 L52 502 L53 502 L54 503 L56 503 L57 504 L58 504 L59 505 L60 505 L61 506 L63 506 L64 507 L66 507 L67 508 L70 508 L71 509 L74 509 L75 510 L80 510 L81 511 L85 511 L86 512 L94 512 L95 513 L108 513 L109 514 L110 514 L111 513 L118 513 L122 517 L122 518 L124 520 L124 521 L123 522 L122 522 L121 521 L120 521 L119 520 L118 520 L117 519 L114 519 L113 518 L103 518 L103 521 L104 522 L104 527 L105 528 L105 532 L106 533 L106 536 L107 537 L107 539 L108 540 L108 542 L110 544 L110 545 L112 547 L112 548 L116 552 L116 553 L120 557 L120 558 L124 562 L125 562 L128 565 L129 565 L131 567 L132 567 L134 569 L135 569 L136 570 L137 570 L138 571 L139 571 L140 572 L142 572 L143 573 L144 573 L145 574 L147 574 L148 575 L149 575 L150 576 L152 576 L153 577 L155 577 L156 578 L159 578 L160 579 L162 579 L163 580 L165 580 L166 581 L168 581 L170 583 L171 583 L176 588 L176 589 L178 591 L178 592 L179 593 L179 594 L180 595 L180 596 L181 597 L181 598 L182 599 L182 600 L183 601 L183 603 L184 604 L183 605 L179 605 L178 604 L176 604 L175 603 L172 603 L171 602 L169 602 L168 601 L166 601 L165 600 L163 600 L162 599 L144 599 L143 600 L139 600 L138 601 L135 601 L134 602 L134 604 L135 605 L135 606 L137 608 L137 609 L138 610 L138 611 L139 612 L139 614 L140 615 L140 616 L141 617 L141 618 L144 621 L144 622 L145 622 L146 623 L146 624 L147 624 L154 631 L155 631 L160 636 L161 636 L163 638 L164 638 L165 639 L166 639 L167 640 L168 640 L169 641 L170 641 L171 642 L173 642 L174 643 L175 643 L176 644 L178 644 L179 645 L180 645 L181 646 L182 646 L183 647 L185 647 L186 648 L187 648 L188 649 L190 649 L191 650 L192 650 L193 651 L195 651 L196 652 L198 652 L199 653 L200 653 L201 654 L203 654 L204 655 L205 655 L206 656 L207 656 L208 657 L210 657 L211 658 L212 658 L213 659 L214 659 L215 660 L216 660 L219 663 L219 664 L221 666 L221 667 L222 668 L222 670 L224 672 L224 673 L225 674 L225 675 L227 677 L227 678 L228 679 L228 680 L229 681 L229 682 L230 683 L230 684 L231 685 L231 686 L232 687 L232 688 L233 689 L233 690 L234 691 L234 692 L235 693 L235 695 L236 696 L236 697 L235 698 L234 697 L233 697 L231 695 L230 695 L229 694 L226 694 L225 693 L223 693 L222 692 L218 692 L217 691 L214 691 L213 690 L211 690 L210 689 L208 689 L207 688 L204 688 L203 687 L200 687 L199 686 L197 686 L196 685 L193 685 L192 684 L186 684 L185 683 L162 683 L161 684 L161 686 L164 689 L164 690 L167 693 L167 694 L169 696 L169 697 L172 700 L173 700 L182 709 L183 709 L186 712 L187 712 L189 714 L190 714 L191 715 L192 715 L194 717 L195 717 L196 718 L197 718 L198 719 L199 719 L200 720 L201 720 L202 721 L204 721 L205 722 L206 722 L207 723 L208 723 L209 724 L211 724 L212 725 L214 725 L215 726 L217 726 L218 727 L221 727 L222 728 L224 728 L225 729 L227 729 L228 730 L230 730 L231 731 L233 731 L234 732 L236 732 L237 733 L239 733 L240 734 L241 734 L242 735 L243 735 L244 736 L245 736 L246 737 L247 737 L250 740 L250 741 L251 742 L251 744 L252 745 L252 751 L253 752 L253 759 L254 760 L254 763 L255 764 L255 766 L256 767 L256 768 L257 769 L257 770 L258 771 L258 773 L259 774 L259 783 L260 784 L260 787 L258 789 L251 789 L250 790 L243 790 L242 791 L236 791 L235 792 L231 792 L230 793 L225 793 L224 794 L220 794 L219 795 L214 795 L213 796 L208 796 L207 797 L202 797 L201 798 L198 798 L197 799 L194 799 L193 800 L190 800 L189 801 L186 801 L185 802 L181 802 L180 803 L177 803 L176 804 L175 804 L174 805 L172 805 L171 806 L170 806 L169 807 L165 807 L164 808 L162 808 L161 809 L160 809 L159 810 L158 810 L156 812 L155 812 L152 815 L151 815 L150 816 L149 816 L145 820 L145 821 L144 822 L144 824 L143 825 L143 845 L144 846 L144 853 L145 854 L145 858 L146 859 L146 868 L147 869 L147 877 L148 878 L148 886 L149 887 L149 894 L150 895 L150 899 L151 900 L151 902 L152 903 L152 904 L161 913 L161 914 L169 922 L169 924 L170 925 L170 932 L171 933 L171 940 L172 941 L172 945 L173 946 L173 950 L174 951 L174 954 L175 955 L175 957 L176 958 L176 960 L177 961 L177 963 L178 964 L178 968 L179 969 L179 973 L180 974 L180 977 L181 978 L181 983 L182 984 L182 987 L183 988 L183 991 L184 992 L184 996 L185 997 L185 1000 L186 1001 L186 1004 L187 1005 L187 1009 L188 1010 L188 1013 L189 1014 L189 1018 L190 1019 L190 1023 L191 1024 L191 1028 L192 1029 L192 1032 L193 1033 L193 1037 L194 1038 L194 1041 L195 1042 L195 1044 L196 1045 L196 1047 L197 1048 L197 1053 L198 1054 L198 1066 L199 1067 L199 1069 L201 1071 L201 1073 L202 1074 L202 1076 L203 1077 L203 1082 L204 1083 L204 1089 L205 1090 L205 1094 L206 1095 L206 1099 L207 1100 L207 1102 L208 1103 L208 1105 L209 1106 L209 1109 L210 1110 L210 1112 L211 1113 L211 1116 L212 1117 L212 1120 L213 1121 L213 1127 L214 1128 L214 1131 L216 1133 L216 1134 L217 1135 L217 1140 L218 1141 L218 1146 L219 1147 L219 1151 L220 1152 L220 1154 L221 1155 L221 1159 L222 1160 L222 1163 L223 1164 L223 1166 L224 1167 L224 1169 L225 1170 L225 1171 L226 1172 L226 1173 L227 1174 L227 1175 L228 1176 L228 1177 L235 1184 L235 1185 L240 1190 L241 1190 L243 1192 L244 1192 L246 1194 L248 1194 L249 1195 L250 1195 L251 1196 L252 1196 L253 1197 L254 1197 L255 1198 L257 1198 L258 1199 L259 1199 L260 1200 L262 1200 L263 1201 L264 1201 L265 1202 L268 1202 L269 1203 L273 1203 L274 1204 L277 1204 L278 1205 L281 1205 L282 1206 L284 1206 L285 1207 L286 1207 L287 1208 L290 1208 L291 1209 L295 1209 L296 1210 L301 1210 L302 1211 L308 1211 L309 1212 L316 1212 L317 1213 L327 1213 L328 1214 L344 1214 L345 1215 L351 1215 L352 1216 L360 1216 L361 1217 L362 1216 L364 1216 L365 1217 L369 1217 L370 1216 L378 1216 L379 1215 L387 1215 L388 1214 L399 1214 L400 1213 L409 1213 L410 1212 L415 1212 L416 1211 L423 1211 L424 1210 L426 1210 L427 1209 L435 1209 L436 1208 L438 1208 L439 1207 L441 1207 L442 1206 L444 1206 L445 1205 L447 1205 L448 1204 L450 1204 L451 1203 L452 1203 L453 1202 L456 1202 L457 1201 L458 1201 L459 1200 L460 1200 L461 1199 L463 1199 L464 1198 L465 1198 L466 1197 L467 1197 L468 1196 L471 1196 L472 1195 L473 1195 L474 1194 L475 1194 L478 1191 L479 1191 L493 1177 L493 1176 L495 1174 L495 1173 L496 1172 L496 1171 L497 1170 L497 1169 L499 1167 L499 1166 L501 1164 L501 1162 L502 1161 L502 1158 L503 1157 L503 1151 L504 1150 L504 1146 L505 1145 L505 1142 L506 1141 L506 1137 L507 1136 L507 1134 L508 1133 L508 1130 L509 1129 L509 1122 L510 1121 L510 1115 L511 1114 L511 1111 L512 1110 L512 1107 L513 1106 L513 1103 L514 1102 L514 1100 L515 1099 L515 1093 L516 1092 L516 1089 L517 1088 L517 1083 L518 1082 L518 1077 L519 1076 L519 1073 L520 1072 L520 1065 L521 1064 L521 1054 L522 1053 L522 1049 L523 1048 L523 1046 L524 1045 L524 1043 L525 1042 L525 1039 L526 1038 L526 1032 L527 1031 L527 1026 L528 1025 L528 1023 L529 1022 L529 1020 L530 1019 L530 1015 L531 1014 L531 1009 L532 1008 L532 1004 L533 1003 L533 1000 L534 999 L534 994 L535 993 L535 988 L536 987 L536 985 L537 984 L537 980 L538 979 L538 975 L539 974 L539 969 L540 968 L540 963 L541 962 L541 959 L540 958 L540 956 L541 955 L541 953 L542 952 L542 948 L543 947 L543 945 L544 944 L544 939 L545 938 L545 934 L546 933 L546 930 L547 929 L547 925 L548 924 L548 921 L550 919 L551 919 L552 918 L553 918 L555 916 L556 916 L559 913 L559 912 L560 911 L560 910 L561 909 L561 908 L563 906 L563 905 L564 904 L564 903 L565 902 L565 901 L566 900 L566 895 L567 894 L567 892 L568 891 L568 888 L569 887 L569 885 L570 884 L570 878 L571 877 L571 872 L570 871 L571 870 L571 858 L572 857 L572 843 L573 842 L573 828 L572 827 L572 825 L571 824 L571 823 L568 820 L568 819 L566 817 L566 816 L564 814 L563 814 L562 813 L560 813 L558 811 L557 811 L555 809 L554 809 L553 808 L552 808 L551 807 L550 807 L549 806 L548 806 L547 805 L544 805 L543 804 L541 804 L540 803 L538 803 L537 802 L536 802 L535 801 L534 801 L533 800 L531 800 L530 799 L528 799 L527 798 L521 798 L520 797 L516 797 L515 796 L512 796 L511 795 L508 795 L507 794 L504 794 L503 793 L496 793 L495 792 L490 792 L489 791 L486 791 L485 790 L480 790 L479 789 L473 789 L472 788 L465 788 L464 787 L461 787 L459 785 L459 781 L460 780 L460 772 L461 771 L461 767 L462 766 L462 761 L463 760 L463 756 L464 755 L464 751 L465 750 L465 746 L466 745 L466 743 L467 742 L467 740 L468 739 L468 738 L469 737 L469 736 L476 729 L477 729 L478 728 L479 728 L480 727 L482 727 L483 726 L486 726 L487 725 L490 725 L491 724 L494 724 L495 723 L496 723 L497 722 L499 722 L500 721 L501 721 L502 720 L505 720 L506 719 L508 719 L509 718 L511 718 L512 717 L513 717 L514 716 L515 716 L516 715 L517 715 L521 711 L522 711 L524 709 L525 709 L526 708 L527 708 L529 706 L530 706 L534 702 L535 702 L539 698 L540 698 L541 697 L542 697 L544 695 L545 695 L547 693 L547 692 L548 691 L548 690 L553 685 L553 684 L556 681 L556 680 L557 679 L558 679 L559 678 L559 677 L561 675 L561 674 L565 670 L565 669 L567 667 L567 666 L568 665 L568 664 L569 663 L569 662 L570 661 L570 660 L571 659 L571 658 L573 656 L573 652 L572 651 L571 651 L570 650 L568 650 L567 649 L562 649 L561 648 L544 648 L543 649 L539 649 L538 650 L535 650 L534 651 L532 651 L531 652 L528 652 L527 653 L524 653 L523 654 L522 654 L521 655 L520 655 L519 656 L518 656 L517 657 L516 657 L515 658 L514 658 L513 659 L512 659 L511 660 L508 660 L507 661 L506 661 L503 664 L502 664 L501 665 L500 665 L493 672 L492 672 L491 673 L489 671 L488 672 L488 673 L489 674 L489 676 L488 677 L488 678 L483 683 L482 683 L480 685 L479 685 L473 691 L473 692 L472 693 L471 693 L470 692 L470 691 L471 690 L471 687 L472 686 L472 685 L473 684 L473 682 L474 681 L474 679 L475 678 L475 677 L476 676 L476 675 L477 674 L477 672 L478 671 L478 670 L479 669 L479 666 L480 665 L480 662 L481 661 L481 659 L482 658 L482 657 L483 656 L483 655 L484 654 L484 653 L485 652 L485 651 L487 649 L487 648 L488 647 L488 645 L489 644 L489 642 L490 641 L490 639 L491 638 L491 636 L494 633 L498 633 L499 632 L509 632 L510 631 L514 631 L515 630 L519 630 L520 629 L522 629 L523 628 L525 628 L526 627 L528 627 L529 626 L531 626 L532 625 L534 625 L535 624 L536 624 L537 623 L538 623 L539 622 L540 622 L541 621 L542 621 L544 619 L545 619 L548 616 L549 616 L555 610 L556 610 L559 607 L560 607 L562 605 L563 605 L564 604 L565 604 L566 603 L567 603 L568 602 L570 602 L571 601 L573 601 L574 600 L585 600 L587 598 L587 596 L588 595 L588 594 L587 593 L587 592 L586 592 L583 589 L582 589 L581 588 L580 588 L579 587 L577 587 L576 586 L573 586 L572 585 L568 585 L567 584 L562 584 L561 583 L556 583 L555 582 L541 582 L540 583 L536 583 L535 584 L530 584 L529 585 L526 585 L525 586 L522 586 L521 587 L518 587 L517 588 L516 588 L515 589 L514 589 L513 590 L511 590 L510 589 L510 586 L511 585 L511 584 L513 582 L513 581 L514 580 L514 579 L515 578 L515 577 L517 575 L517 574 L518 573 L518 572 L519 571 L519 570 L520 569 L520 567 L521 566 L521 565 L522 564 L522 563 L524 561 L524 560 L527 557 L530 557 L531 556 L537 556 L538 555 L542 555 L543 554 L546 554 L547 553 L549 553 L550 552 L552 552 L553 551 L554 551 L555 550 L557 550 L558 549 L559 549 L560 548 L562 548 L563 547 L565 547 L566 546 L568 546 L569 545 L571 545 L572 544 L573 544 L574 543 L576 543 L577 542 L579 542 L580 541 L581 541 L582 540 L583 540 L585 538 L586 538 L587 537 L588 537 L589 536 L590 536 L592 534 L593 534 L595 532 L596 532 L598 530 L599 530 L601 528 L602 528 L605 525 L606 525 L609 522 L610 522 L615 517 L616 517 L620 513 L620 512 L627 505 L627 504 L628 503 L627 502 L627 501 L625 499 L623 499 L622 498 L620 498 L619 497 L616 497 L615 496 L611 496 L610 495 L601 495 L600 494 L579 494 L578 495 L574 495 L573 496 L571 496 L570 497 L566 497 L565 498 L563 498 L562 499 L560 499 L559 498 L559 497 L560 496 L560 495 L561 494 L561 493 L562 492 L562 491 L563 490 L563 489 L565 487 L566 487 L568 485 L570 485 L571 484 L572 484 L573 483 L577 483 L578 482 L582 482 L583 481 L586 481 L587 480 L591 480 L592 479 L595 479 L596 478 L607 478 L608 477 L614 477 L615 476 L617 476 L618 475 L620 475 L621 474 L622 474 L623 473 L624 473 L625 472 L626 472 L627 471 L628 471 L629 470 L630 470 L631 469 L633 469 L634 468 L636 468 L637 467 L638 467 L639 466 L640 466 L642 464 L643 464 L645 462 L646 462 L651 457 L652 457 L654 455 L655 455 L657 453 L658 453 L659 452 L660 452 L673 439 L673 438 L676 435 L676 434 L684 426 L684 425 L685 424 L685 423 L686 422 L686 421 L687 420 L687 419 L688 418 L688 416 L689 415 L689 413 L688 412 L685 412 L684 411 L681 411 L680 410 L677 410 L676 409 L673 409 L672 408 L668 408 L667 407 L665 407 L664 408 L661 408 L660 409 L659 408 L648 408 L647 409 L643 409 L642 410 L639 410 L638 411 L636 411 L635 412 L634 412 L633 413 L630 413 L629 414 L627 414 L626 415 L625 415 L624 416 L623 416 L622 417 L620 417 L618 419 L616 419 L614 421 L613 421 L612 422 L611 422 L610 423 L609 423 L608 424 L607 424 L605 426 L604 426 L602 428 L601 428 L597 432 L596 431 L596 430 L601 425 L601 424 L603 422 L603 420 L604 419 L604 398 L605 397 L605 391 L604 390 L604 383 L603 382 L603 380 L602 379 L602 377 L601 376 L601 375 L600 374 L600 372 L599 371 L599 370 L598 369 L598 368 L597 367 L597 365 L596 364 L596 363 L594 361 L593 361 L592 362 L591 362 L590 363 L589 363 L586 366 L585 366 L581 370 L580 370 L575 375 L574 375 L562 387 L562 388 L558 392 L558 393 L557 394 L557 395 L556 396 L556 397 L555 398 L555 399 L554 400 L554 401 L553 402 L553 403 L552 404 L552 405 L551 406 L551 407 L550 408 L550 409 L549 410 L549 411 L548 412 L548 413 L547 414 L547 425 L546 426 L546 429 L544 431 L542 429 L542 427 L541 426 L541 425 L540 424 L540 422 L539 421 L539 419 L538 418 L538 416 L537 415 L537 413 L536 412 L536 410 L535 409 L535 408 L534 407 L534 406 L533 405 L533 404 L532 403 L532 402 L531 401 L531 400 L530 399 L530 397 L529 396 L529 395 L528 394 L528 392 L527 391 L527 389 L526 388 L526 386 L525 385 L525 384 L521 384 L520 385 L518 385 L517 386 L511 386 L510 387 L506 387 L505 388 L502 388 L501 389 L499 389 L498 390 L496 390 L495 391 L494 391 L493 392 L492 392 L491 393 L488 393 L487 394 L486 394 L485 395 L484 395 L483 396 L480 396 L479 395 L479 394 L480 393 L480 388 L481 387 L481 385 L482 384 L482 382 L486 378 L487 378 L491 374 L492 374 L494 372 L495 372 L497 370 L498 370 L499 369 L500 369 L502 367 L503 367 L504 366 L505 366 L507 364 L508 364 L509 363 L510 363 L512 361 L513 361 L514 360 L515 360 L516 359 L517 359 L518 358 L521 358 L522 357 L524 357 L525 356 L526 356 L527 355 L528 355 L530 353 L531 353 L534 350 L535 350 L540 345 L541 345 L543 343 L543 342 L545 340 L545 339 L547 337 L547 336 L549 334 L549 333 L551 331 L551 330 L553 328 L553 327 L555 325 L555 324 L556 323 L556 321 L557 320 L557 319 L558 318 L558 316 L559 315 L559 314 L560 313 L560 311 L561 310 L561 303 L562 302 L562 300 L561 299 L561 295 L560 295 L559 294 L558 294 L557 293 L543 293 L542 294 L537 294 L536 295 L533 295 L532 296 L529 296 L528 297 L524 297 L523 298 L521 298 L520 299 L518 299 L517 300 L516 300 L515 299 L522 292 L523 292 L525 290 L526 290 L527 289 L528 289 L530 287 L531 287 L532 286 L533 286 L535 284 L536 284 L537 283 L538 283 L539 282 L540 282 L541 281 L543 281 L544 280 L545 280 L546 279 L548 279 L549 278 L551 278 L552 277 L554 277 L555 276 L558 276 L559 275 L560 275 L561 274 L562 274 L563 273 L564 273 L568 269 L569 269 L572 266 L573 266 L574 265 L575 265 L576 264 L577 264 L579 262 L580 262 L582 260 L583 260 L592 251 L592 250 L594 248 L594 247 L595 246 L595 245 L596 244 L596 243 L598 241 L598 240 L600 238 L600 237 L601 236 L601 235 L602 234 L602 233 L603 232 L603 230 L604 229 L604 228 L605 227 L605 224 L606 223 L606 212 L605 211 L605 208 L607 206 L608 206 L609 205 L611 205 L612 204 L614 204 L615 203 L616 203 L617 202 L618 202 L619 201 L620 201 L622 199 L623 199 L626 196 L627 196 L636 187 L636 186 L639 183 L639 182 L640 181 L640 180 L642 178 L642 177 L643 176 L643 175 L644 174 L644 172 L645 171 L645 170 L646 169 L646 167 L647 166 L647 164 L648 163 L648 157 L651 154 L655 154 L656 153 L664 153 L665 152 L670 152 L671 151 L675 151 L676 150 L680 150 L681 149 L684 149 L685 148 L687 148 L688 147 L690 147 L691 146 L692 146 L693 145 L694 145 L695 144 L696 144 L697 143 L699 143 L700 142 L702 142 L703 141 L706 141 L707 140 L710 140 L711 139 L713 139 L719 133 L720 133 L721 132 L722 132 L723 131 L725 131 L726 130 L730 130 L731 129 L733 129 L734 128 L735 128 L736 127 L736 124 L735 124 L733 122 L732 122 L731 121 L730 121 L729 120 L728 120 L727 119 L726 119 L725 118 L724 118 L722 116 L721 116 L720 115 L719 115 L718 114 L716 114 L715 113 L713 113 L712 112 L710 112 L709 111 L707 111 L706 110 L680 110 L679 109 L680 108 L681 108 L682 107 L683 107 L686 104 L687 104 L688 103 L689 103 L691 101 L692 101 L693 100 L694 100 L696 98 L697 98 L699 96 L700 96 L703 93 L704 93 L710 87 L710 86 L713 83 L713 82 L715 80 L715 79 L718 76 L718 75 L720 73 L720 72 L721 71 L721 70 L723 68 L723 67 L724 66 L724 65 L725 64 L725 63 L726 62 L726 60 L727 59 L727 53 L728 52 L728 50 L729 49 L729 48 L730 47 L730 45 L731 44 L731 43 L732 42 L732 40 L733 39 L733 38 L732 37 L732 36 L731 36 L730 35 L704 35 L703 36 L700 36 L699 37 L696 37 L695 38 L692 38 L691 39 L689 39 L688 40 L686 40 L685 41 L681 41 L680 42 L678 42 L677 43 L676 43 L675 44 L674 44 L673 45 L672 45 L671 46 L670 46 L669 47 L668 47 L667 48 L666 48 L665 49 L664 49 L663 50 L662 50 L661 51 L660 51 L659 52 L657 52 L655 54 L654 54 L653 55 L652 55 L651 56 L650 56 L644 62 L644 63 L639 68 L638 68 L637 67 L637 53 L636 52 L636 48 L635 47 L635 44 L634 43 L634 41 L633 40 L633 39 L632 38 L632 36 L631 35 L631 33 L630 32 L630 30 L629 29 L629 28 L628 27 L628 26 L627 25 L627 24 L626 23 L626 22 L625 21 L625 20 L624 19 L624 18 L623 17 L623 16 L618 11 Z M664 0 L664 6 L665 7 L665 9 L666 9 L667 10 L673 10 L674 9 L676 9 L677 8 L678 8 L679 7 L680 7 L681 6 L682 6 L685 3 L686 3 L687 2 L688 2 L689 1 L690 1 L691 0 L695 0 Z " fill="black"/></svg>