<svg width="251" height="425" xmlns="http://www.w3.org/2000/svg"><path d="M137 225 L137 227 L136 228 L136 230 L136 228 L137 227 Z M176 10 L173 13 L173 14 L171 16 L171 17 L170 18 L169 17 L167 17 L166 16 L163 16 L162 17 L161 17 L159 19 L159 20 L157 22 L157 23 L156 24 L156 25 L155 26 L155 29 L156 30 L156 34 L157 35 L157 36 L158 37 L158 38 L160 40 L160 41 L163 44 L163 46 L162 47 L162 48 L160 50 L160 51 L158 53 L157 53 L155 51 L155 50 L150 45 L149 45 L147 47 L147 48 L146 49 L146 50 L145 51 L145 52 L144 53 L144 56 L143 57 L143 58 L144 59 L144 63 L145 64 L145 65 L148 68 L147 69 L145 69 L144 68 L142 68 L141 67 L133 67 L132 68 L132 71 L133 72 L133 74 L134 75 L134 76 L135 77 L135 80 L136 81 L136 82 L135 83 L131 83 L128 86 L128 96 L129 97 L129 98 L130 99 L130 100 L132 102 L132 103 L136 107 L136 108 L137 109 L137 110 L138 111 L138 112 L137 113 L136 113 L135 112 L134 112 L133 111 L132 111 L131 110 L129 110 L128 109 L125 109 L124 110 L123 110 L123 111 L122 112 L122 115 L123 116 L123 119 L122 120 L122 121 L120 123 L120 126 L124 130 L126 130 L127 131 L128 131 L132 135 L132 136 L133 137 L133 138 L134 139 L134 140 L135 141 L135 142 L136 143 L136 144 L134 146 L132 146 L129 143 L129 142 L125 138 L124 138 L123 137 L122 137 L121 138 L121 142 L122 143 L122 145 L123 146 L122 147 L119 147 L118 148 L117 148 L117 149 L116 150 L116 154 L117 155 L117 156 L118 157 L118 158 L124 164 L125 164 L127 166 L128 166 L129 167 L130 167 L131 168 L132 168 L135 171 L135 174 L134 175 L134 177 L133 178 L133 180 L131 182 L131 187 L130 188 L130 189 L129 190 L123 184 L120 184 L119 185 L117 185 L115 187 L115 188 L113 190 L113 191 L111 193 L111 196 L110 197 L110 200 L111 201 L111 202 L112 203 L112 204 L116 208 L117 208 L118 209 L119 209 L121 211 L122 211 L123 212 L125 212 L128 215 L127 216 L127 220 L126 221 L126 225 L125 226 L125 231 L124 232 L124 236 L123 237 L123 242 L122 243 L122 247 L121 248 L121 251 L120 252 L120 256 L119 257 L119 260 L118 261 L118 264 L117 265 L117 268 L116 269 L116 270 L115 271 L114 270 L114 264 L113 263 L113 252 L112 251 L112 246 L111 245 L111 242 L110 241 L110 237 L109 236 L109 233 L108 232 L108 228 L107 227 L107 225 L106 224 L106 223 L103 220 L102 220 L99 223 L99 224 L98 225 L98 230 L99 231 L99 238 L100 239 L100 244 L101 245 L101 249 L102 250 L102 254 L103 255 L103 259 L104 260 L104 264 L105 265 L105 272 L106 273 L106 277 L107 278 L107 282 L108 283 L108 287 L109 288 L109 292 L110 293 L110 299 L111 300 L111 310 L110 311 L110 317 L109 318 L109 321 L108 322 L108 326 L107 327 L107 329 L106 330 L106 331 L105 332 L102 329 L102 328 L99 325 L99 324 L98 323 L98 313 L99 312 L99 306 L100 305 L100 287 L99 286 L99 277 L98 276 L98 273 L97 272 L97 271 L96 270 L96 269 L95 268 L95 257 L94 256 L94 245 L93 244 L93 238 L92 237 L92 230 L91 229 L91 224 L90 223 L90 220 L91 219 L92 219 L93 218 L94 218 L95 217 L97 217 L98 216 L99 216 L101 214 L102 214 L103 213 L103 212 L107 208 L107 207 L108 206 L108 197 L106 195 L103 195 L101 193 L99 193 L98 192 L92 192 L91 191 L91 190 L90 189 L90 170 L94 166 L95 166 L106 155 L106 154 L107 153 L107 152 L108 151 L108 148 L107 147 L107 146 L106 145 L104 145 L103 144 L102 144 L101 145 L98 145 L97 146 L96 146 L94 148 L93 148 L92 149 L90 149 L89 148 L93 144 L94 144 L96 142 L97 142 L100 139 L100 138 L101 137 L101 136 L102 135 L102 132 L103 131 L103 129 L102 128 L102 126 L101 125 L101 124 L99 122 L99 121 L100 120 L100 111 L99 110 L99 109 L96 106 L95 106 L94 105 L94 104 L95 103 L95 102 L98 99 L98 98 L99 97 L99 96 L100 95 L100 90 L99 89 L98 89 L97 88 L91 88 L90 89 L88 89 L87 88 L88 87 L88 86 L87 86 L86 85 L86 84 L87 83 L87 81 L88 80 L88 79 L91 76 L91 75 L90 74 L90 69 L89 69 L88 68 L87 69 L85 69 L83 67 L83 66 L84 65 L84 58 L83 57 L83 56 L82 56 L81 55 L80 56 L79 56 L79 57 L78 58 L78 60 L77 61 L77 63 L76 64 L76 65 L75 66 L75 67 L74 68 L73 68 L72 67 L72 60 L71 59 L71 56 L69 54 L69 53 L68 52 L68 51 L65 48 L63 48 L62 49 L62 51 L61 52 L61 56 L60 57 L60 62 L59 63 L57 61 L57 56 L56 55 L56 51 L54 51 L53 52 L53 55 L52 56 L52 60 L51 61 L51 62 L50 63 L49 63 L48 64 L47 64 L46 65 L45 65 L44 66 L43 66 L41 68 L41 70 L42 71 L42 72 L43 72 L44 73 L45 73 L47 75 L49 75 L50 76 L55 76 L57 78 L57 79 L58 80 L58 81 L59 82 L59 83 L58 84 L57 83 L56 83 L55 82 L54 82 L53 81 L50 81 L49 82 L49 84 L48 85 L48 90 L49 91 L49 92 L50 93 L50 94 L54 98 L55 98 L56 99 L57 99 L60 102 L58 104 L57 104 L53 108 L53 109 L52 110 L52 117 L53 118 L53 120 L58 125 L57 126 L57 133 L58 134 L58 137 L59 138 L59 139 L60 140 L60 142 L61 143 L61 144 L62 145 L62 146 L63 147 L63 148 L64 149 L63 150 L62 150 L61 151 L60 151 L60 152 L59 153 L59 158 L60 159 L60 160 L62 162 L62 163 L63 164 L64 164 L66 166 L67 166 L68 167 L70 167 L71 168 L74 168 L75 169 L79 169 L82 172 L82 178 L83 179 L83 188 L82 189 L80 189 L79 188 L78 189 L77 189 L76 190 L76 191 L73 194 L72 194 L70 196 L70 197 L67 200 L67 201 L66 202 L66 208 L67 209 L67 210 L72 215 L73 215 L75 217 L77 217 L78 218 L79 218 L80 219 L82 219 L84 221 L84 225 L85 226 L85 238 L86 239 L86 252 L87 253 L87 276 L85 278 L85 279 L83 281 L83 286 L82 287 L82 299 L83 300 L83 307 L84 308 L84 310 L85 311 L85 314 L86 315 L86 317 L87 318 L87 324 L86 325 L86 330 L85 331 L85 332 L84 333 L84 335 L83 336 L83 337 L82 338 L82 339 L81 340 L80 340 L78 338 L77 338 L77 340 L78 341 L78 345 L77 346 L75 344 L75 342 L74 341 L74 340 L73 339 L73 337 L72 336 L72 333 L71 332 L71 328 L72 327 L72 324 L73 323 L73 321 L74 320 L74 317 L75 316 L75 310 L76 309 L76 304 L77 303 L77 296 L78 295 L78 271 L77 270 L77 267 L76 266 L76 261 L75 260 L75 258 L74 257 L74 255 L73 254 L73 251 L72 250 L72 248 L71 247 L71 245 L70 244 L70 243 L68 243 L68 247 L69 248 L69 256 L70 257 L70 263 L71 264 L71 273 L72 274 L72 291 L71 292 L71 301 L70 302 L70 306 L69 307 L69 309 L67 311 L66 310 L66 305 L65 304 L65 298 L64 297 L64 291 L63 290 L63 286 L62 285 L62 282 L61 281 L61 278 L60 277 L60 274 L59 273 L59 271 L58 270 L58 268 L57 267 L57 265 L56 264 L56 261 L55 260 L55 257 L54 256 L54 252 L56 250 L57 250 L58 249 L59 249 L60 248 L61 248 L65 244 L65 243 L66 242 L66 241 L69 238 L69 234 L68 233 L68 232 L64 228 L59 228 L57 230 L57 231 L56 232 L56 234 L55 235 L55 236 L53 238 L52 237 L52 235 L51 234 L51 231 L50 230 L50 229 L49 228 L50 227 L50 226 L52 224 L52 223 L53 222 L53 221 L55 219 L55 218 L56 217 L56 215 L57 214 L57 213 L58 212 L58 205 L56 203 L52 203 L51 204 L50 204 L47 207 L46 207 L45 206 L46 205 L46 204 L47 203 L47 202 L48 201 L48 200 L49 199 L49 198 L50 197 L50 189 L47 186 L44 186 L43 187 L42 187 L41 186 L42 185 L42 184 L44 182 L44 181 L46 179 L46 172 L45 171 L45 170 L44 169 L41 169 L39 171 L39 172 L38 173 L38 175 L36 177 L35 176 L35 173 L36 172 L36 170 L35 169 L35 166 L34 165 L34 164 L33 163 L33 159 L32 158 L32 155 L31 154 L31 153 L30 152 L29 152 L28 151 L24 151 L20 147 L19 147 L18 146 L17 147 L16 147 L14 149 L14 150 L13 151 L13 152 L12 153 L12 155 L11 156 L11 160 L12 161 L12 163 L14 165 L14 166 L16 168 L15 169 L14 169 L11 172 L11 179 L14 182 L14 183 L15 183 L17 185 L17 186 L16 187 L15 187 L14 188 L14 189 L15 190 L15 192 L16 193 L16 194 L17 195 L17 196 L19 198 L19 199 L18 200 L17 200 L16 201 L16 202 L15 203 L16 204 L16 205 L17 206 L19 206 L21 208 L21 210 L20 211 L20 215 L21 216 L21 217 L27 223 L28 223 L29 224 L30 224 L31 225 L32 225 L33 226 L36 226 L37 227 L39 227 L40 228 L43 228 L45 230 L45 234 L46 235 L45 236 L43 236 L42 235 L38 235 L37 234 L34 234 L33 235 L31 235 L29 237 L29 241 L30 242 L30 243 L31 244 L31 245 L32 246 L32 248 L36 252 L39 252 L40 253 L48 253 L49 254 L49 257 L50 258 L50 260 L51 261 L51 264 L52 265 L52 269 L53 270 L53 274 L54 275 L54 281 L55 282 L55 291 L56 292 L56 296 L57 297 L57 301 L58 302 L58 305 L57 306 L55 304 L55 303 L53 301 L53 300 L51 298 L51 297 L49 295 L49 294 L48 293 L48 292 L46 290 L46 289 L44 287 L44 286 L41 283 L41 282 L39 280 L39 279 L36 276 L36 275 L34 273 L34 272 L33 271 L33 270 L31 268 L31 267 L29 265 L29 264 L27 262 L27 261 L23 261 L23 264 L24 265 L24 266 L25 267 L25 268 L27 270 L27 271 L28 272 L28 274 L29 275 L29 278 L30 279 L30 282 L31 283 L31 284 L32 285 L32 286 L33 287 L33 288 L34 289 L34 290 L35 291 L35 292 L37 294 L37 295 L40 298 L40 299 L44 303 L44 304 L49 309 L49 310 L52 313 L52 314 L54 316 L54 317 L56 319 L56 320 L58 322 L58 323 L60 325 L60 326 L61 327 L61 328 L62 329 L62 330 L63 331 L63 332 L64 333 L64 336 L65 337 L65 341 L66 342 L66 345 L67 346 L67 350 L68 351 L68 355 L69 356 L69 360 L68 361 L65 358 L65 357 L61 353 L61 352 L54 345 L54 344 L49 339 L49 338 L46 335 L46 334 L44 332 L44 331 L43 330 L43 329 L41 327 L41 326 L40 325 L40 324 L38 322 L38 321 L37 320 L37 319 L36 318 L36 317 L34 315 L34 314 L33 313 L33 312 L32 311 L32 310 L31 309 L31 308 L30 307 L30 306 L29 305 L29 304 L28 303 L28 302 L27 301 L27 300 L25 298 L24 298 L22 300 L22 301 L21 302 L21 306 L22 307 L22 310 L23 311 L23 313 L24 314 L24 315 L25 316 L25 317 L26 318 L26 319 L27 320 L27 321 L28 322 L28 324 L29 325 L29 326 L30 327 L30 328 L31 329 L31 330 L32 331 L32 332 L33 333 L33 334 L35 336 L35 337 L44 346 L44 347 L58 361 L58 362 L62 366 L62 367 L67 372 L67 373 L68 374 L68 375 L69 376 L69 378 L70 379 L70 386 L71 387 L71 393 L72 394 L72 395 L73 394 L75 396 L76 395 L78 397 L78 399 L79 400 L79 403 L80 404 L80 403 L81 402 L82 402 L84 404 L84 407 L86 407 L87 408 L87 409 L88 408 L88 407 L90 405 L90 403 L91 402 L91 400 L92 399 L92 394 L93 393 L93 388 L94 387 L94 382 L95 381 L95 371 L96 370 L96 354 L95 353 L95 343 L96 342 L97 343 L97 344 L98 345 L98 346 L99 347 L99 349 L100 350 L100 351 L101 352 L101 354 L102 355 L102 356 L103 357 L103 359 L104 360 L104 361 L105 362 L105 373 L104 374 L104 379 L103 380 L103 383 L102 384 L102 394 L101 395 L101 397 L102 398 L103 398 L104 399 L104 400 L106 402 L107 402 L108 401 L109 401 L110 400 L111 400 L112 399 L112 391 L113 390 L113 378 L114 377 L114 362 L115 361 L115 356 L116 355 L116 351 L117 350 L117 347 L118 346 L118 344 L119 343 L119 342 L121 340 L121 339 L125 335 L125 334 L130 329 L130 328 L131 327 L132 327 L133 328 L133 329 L132 330 L132 332 L131 333 L131 335 L130 336 L130 338 L129 339 L129 341 L128 342 L128 345 L127 346 L127 348 L126 349 L126 351 L125 352 L125 354 L124 355 L124 357 L123 358 L123 359 L122 360 L122 361 L121 362 L121 363 L120 364 L120 365 L119 366 L119 367 L118 368 L118 375 L120 377 L120 378 L121 379 L121 387 L120 388 L120 395 L119 396 L119 402 L120 402 L121 401 L124 401 L125 400 L125 398 L126 397 L126 390 L127 389 L127 382 L128 381 L128 378 L129 377 L129 375 L130 374 L130 372 L131 371 L131 370 L134 367 L135 367 L137 365 L138 365 L140 363 L141 363 L143 361 L144 361 L145 360 L146 360 L147 359 L148 359 L150 357 L151 357 L154 354 L155 354 L159 350 L160 350 L166 344 L166 343 L170 339 L170 338 L173 335 L173 334 L174 333 L174 332 L176 330 L176 329 L177 328 L177 327 L178 326 L178 325 L180 323 L180 321 L181 320 L181 319 L182 318 L182 316 L183 315 L183 310 L184 309 L184 304 L185 303 L185 300 L186 299 L186 296 L187 295 L187 294 L186 293 L185 293 L184 294 L183 294 L183 295 L179 299 L179 300 L177 302 L177 303 L176 304 L176 305 L174 307 L174 308 L173 309 L173 310 L172 311 L172 312 L171 313 L171 314 L170 315 L170 316 L169 317 L169 318 L168 319 L168 320 L167 321 L167 322 L165 324 L165 325 L163 327 L163 328 L148 343 L147 343 L143 347 L142 347 L140 349 L139 349 L136 352 L135 352 L134 353 L133 352 L133 350 L134 349 L134 347 L135 346 L135 345 L136 344 L136 342 L137 341 L137 338 L138 337 L138 334 L139 333 L139 331 L140 330 L140 328 L141 327 L141 325 L142 324 L142 322 L143 321 L143 319 L144 318 L144 316 L145 315 L145 314 L146 313 L146 311 L147 310 L147 309 L148 308 L148 306 L149 305 L149 301 L150 300 L150 299 L153 296 L154 296 L157 293 L158 293 L161 290 L162 290 L168 284 L169 284 L174 279 L175 279 L181 273 L182 273 L189 266 L190 266 L196 260 L196 259 L197 258 L197 257 L198 256 L198 255 L197 254 L192 254 L191 255 L189 255 L188 256 L187 256 L185 258 L184 258 L183 259 L182 259 L181 260 L180 260 L178 262 L177 262 L174 265 L173 265 L171 267 L170 267 L160 277 L159 277 L158 276 L158 273 L159 272 L159 270 L160 269 L160 267 L161 266 L161 264 L162 263 L162 261 L163 260 L163 258 L164 257 L164 255 L165 254 L165 252 L166 251 L166 250 L167 249 L167 247 L168 246 L168 245 L169 244 L169 242 L170 241 L170 239 L171 238 L171 237 L172 236 L172 235 L173 234 L173 232 L174 231 L174 230 L175 229 L175 227 L176 226 L176 225 L177 224 L177 222 L178 221 L178 219 L179 218 L179 217 L180 216 L180 213 L183 210 L187 210 L188 209 L190 209 L191 208 L192 208 L193 207 L195 207 L196 206 L197 206 L198 205 L199 205 L203 201 L203 200 L204 199 L204 196 L201 193 L200 193 L199 194 L198 194 L195 197 L194 197 L192 195 L192 192 L191 191 L191 190 L190 189 L190 185 L191 184 L192 184 L193 183 L196 183 L197 184 L201 184 L202 185 L206 185 L207 184 L213 184 L214 183 L215 183 L217 181 L217 178 L213 174 L204 174 L203 173 L205 171 L207 171 L208 170 L216 170 L217 169 L220 169 L221 168 L222 168 L223 167 L223 166 L220 163 L220 162 L218 160 L218 158 L219 157 L220 158 L226 158 L229 155 L229 153 L231 151 L231 150 L232 149 L232 146 L229 143 L227 143 L225 141 L225 139 L227 137 L227 136 L228 135 L228 134 L229 133 L229 132 L230 131 L230 129 L229 129 L228 128 L229 127 L230 127 L231 126 L232 126 L234 124 L235 124 L236 123 L237 123 L239 121 L239 117 L237 115 L231 115 L230 114 L231 113 L231 112 L233 110 L233 109 L235 107 L235 105 L236 104 L236 101 L235 100 L235 99 L234 98 L226 98 L224 100 L223 100 L223 101 L222 102 L222 105 L221 106 L221 110 L220 111 L220 112 L221 113 L221 114 L220 115 L218 113 L218 112 L217 111 L217 110 L214 107 L213 107 L212 106 L210 106 L209 107 L208 107 L208 108 L207 109 L207 111 L208 112 L208 114 L207 115 L207 116 L206 117 L206 124 L205 125 L198 125 L197 126 L196 126 L194 128 L194 133 L195 134 L195 135 L196 136 L196 137 L195 138 L194 138 L193 139 L192 139 L191 140 L190 140 L189 141 L189 142 L188 143 L188 144 L187 145 L187 146 L186 147 L186 148 L185 149 L185 150 L184 151 L184 152 L178 158 L178 159 L177 160 L177 169 L178 170 L178 171 L187 180 L187 181 L186 182 L186 183 L185 184 L185 185 L184 186 L184 187 L183 188 L182 188 L181 187 L181 186 L180 185 L180 184 L176 180 L173 180 L172 181 L171 181 L168 184 L168 185 L167 186 L167 194 L169 196 L169 197 L170 198 L170 199 L171 199 L177 205 L176 206 L176 208 L175 209 L175 210 L174 211 L174 213 L173 214 L173 215 L172 216 L172 218 L171 219 L171 220 L170 221 L170 223 L169 224 L169 225 L168 226 L168 227 L167 228 L167 230 L166 231 L166 232 L165 233 L165 235 L164 236 L164 238 L163 239 L163 241 L162 242 L162 244 L161 245 L161 247 L160 248 L160 250 L159 251 L159 253 L158 254 L158 255 L157 256 L157 258 L156 259 L156 262 L155 263 L155 265 L154 266 L154 269 L153 270 L153 272 L151 274 L150 273 L150 268 L151 267 L151 262 L152 261 L152 257 L153 256 L153 253 L154 252 L154 249 L155 248 L155 239 L156 238 L156 235 L155 234 L155 233 L154 232 L152 232 L150 234 L149 234 L148 235 L148 236 L139 245 L139 246 L136 249 L136 250 L134 252 L134 253 L133 254 L133 255 L132 256 L132 257 L130 259 L130 260 L128 262 L127 261 L127 258 L128 257 L128 253 L129 252 L129 247 L130 246 L130 241 L131 240 L131 233 L132 232 L132 227 L133 226 L133 222 L134 221 L134 218 L135 217 L135 216 L137 214 L140 214 L141 213 L142 213 L143 212 L145 212 L146 211 L147 211 L149 209 L150 209 L154 205 L154 204 L155 203 L155 198 L150 193 L150 191 L147 188 L144 188 L143 189 L142 189 L140 191 L139 191 L138 190 L138 189 L142 185 L142 184 L143 183 L143 179 L142 178 L142 176 L141 175 L141 174 L142 173 L143 173 L144 172 L146 172 L147 171 L149 171 L150 170 L153 170 L154 169 L156 169 L157 168 L158 168 L159 167 L161 167 L162 166 L164 166 L165 165 L166 165 L170 161 L170 159 L168 157 L168 156 L164 152 L164 151 L168 147 L164 147 L163 148 L162 148 L160 150 L159 150 L155 154 L154 154 L153 153 L153 151 L152 151 L150 149 L150 146 L149 145 L151 143 L152 144 L153 144 L155 146 L155 147 L155 146 L154 145 L155 144 L158 144 L159 143 L161 143 L162 142 L163 142 L165 140 L167 140 L169 138 L170 138 L171 137 L172 137 L173 136 L174 136 L175 135 L176 135 L179 132 L179 126 L176 123 L175 123 L174 122 L166 122 L165 121 L165 117 L167 115 L168 115 L170 113 L171 113 L173 111 L174 111 L176 109 L177 109 L178 108 L179 108 L182 105 L182 104 L183 103 L183 100 L182 99 L182 97 L179 94 L178 94 L177 93 L179 91 L182 91 L183 90 L186 90 L188 88 L188 83 L187 82 L187 81 L185 79 L185 74 L184 73 L178 73 L177 74 L176 74 L175 73 L181 67 L181 66 L182 65 L182 64 L183 63 L183 59 L182 58 L182 57 L180 55 L180 53 L178 51 L178 50 L175 47 L177 45 L178 45 L180 43 L181 43 L182 42 L183 42 L184 41 L185 41 L192 34 L192 33 L193 32 L193 31 L194 30 L194 27 L193 26 L192 26 L191 25 L190 25 L190 27 L189 28 L188 27 L188 26 L185 26 L184 27 L183 26 L183 24 L184 23 L184 19 L183 18 L183 16 L182 15 L182 14 L181 13 L181 12 L180 11 L179 11 L178 10 Z M0 0 L0 22 L2 20 L2 19 L14 7 L14 6 L17 3 L17 2 L19 0 Z " fill="black"/></svg>