<svg width="595" height="431" xmlns="http://www.w3.org/2000/svg"><path d="M389 11 L388 12 L384 12 L383 13 L380 13 L379 14 L377 14 L376 15 L374 15 L373 16 L370 16 L369 17 L368 17 L367 18 L365 18 L364 19 L362 19 L361 20 L360 20 L359 21 L357 21 L356 22 L355 22 L354 23 L352 23 L351 24 L350 24 L349 25 L347 25 L346 26 L345 26 L344 27 L343 27 L342 28 L341 28 L340 29 L338 29 L337 30 L336 30 L335 31 L334 31 L333 32 L332 32 L331 33 L330 33 L329 34 L328 34 L327 35 L325 35 L324 36 L323 36 L322 37 L321 37 L320 38 L319 38 L318 39 L316 39 L315 40 L314 40 L313 41 L311 41 L310 42 L309 42 L308 43 L306 43 L305 44 L304 44 L303 45 L301 45 L300 46 L298 46 L297 47 L296 47 L295 48 L292 48 L291 49 L289 49 L288 50 L286 50 L285 51 L283 51 L282 52 L279 52 L278 53 L275 53 L274 54 L271 54 L270 55 L266 55 L265 56 L259 56 L258 57 L245 57 L244 56 L242 56 L241 55 L240 55 L239 54 L237 54 L236 53 L234 53 L233 52 L230 52 L229 51 L225 51 L224 50 L208 50 L207 51 L205 51 L204 52 L203 52 L202 53 L201 53 L200 54 L199 54 L193 60 L193 61 L190 64 L190 65 L188 67 L188 68 L187 69 L187 71 L186 72 L186 74 L185 75 L185 77 L184 78 L184 86 L182 88 L182 89 L178 93 L178 94 L174 98 L174 99 L170 103 L170 104 L165 109 L165 110 L146 129 L145 129 L138 136 L137 136 L133 140 L132 140 L129 143 L128 143 L125 146 L124 146 L122 148 L121 148 L119 150 L118 150 L117 151 L116 151 L114 153 L113 153 L112 154 L111 154 L110 155 L109 155 L108 156 L107 156 L106 157 L105 157 L104 158 L103 158 L101 160 L99 160 L97 162 L96 162 L95 163 L94 163 L93 164 L92 164 L91 165 L90 165 L89 166 L88 166 L87 167 L85 167 L84 168 L83 168 L82 169 L81 169 L80 170 L78 170 L77 171 L76 171 L75 172 L74 172 L73 173 L71 173 L70 174 L68 174 L67 175 L66 175 L65 176 L64 176 L63 177 L61 177 L60 178 L59 178 L58 179 L57 179 L56 180 L55 180 L54 181 L52 181 L51 182 L50 182 L49 183 L48 183 L47 184 L46 184 L45 185 L44 185 L43 186 L42 186 L41 187 L40 187 L39 188 L38 188 L36 190 L35 190 L33 192 L32 192 L25 199 L25 200 L22 203 L22 204 L21 205 L21 206 L19 208 L19 210 L18 211 L18 212 L17 213 L17 214 L16 215 L16 217 L15 218 L15 220 L14 221 L14 223 L13 224 L13 228 L12 229 L12 232 L11 233 L11 253 L12 254 L12 268 L13 269 L13 273 L14 274 L14 276 L15 277 L15 279 L16 280 L16 282 L17 283 L17 284 L18 285 L18 286 L19 287 L19 288 L20 289 L20 290 L23 293 L23 294 L28 299 L29 299 L32 302 L33 302 L35 304 L36 304 L38 306 L39 306 L40 307 L41 307 L43 309 L44 309 L45 310 L46 310 L47 311 L48 311 L49 312 L51 312 L52 313 L53 313 L54 314 L56 314 L57 315 L59 315 L60 316 L61 316 L62 317 L64 317 L65 318 L66 318 L67 319 L69 319 L70 320 L72 320 L73 321 L75 321 L76 322 L80 322 L81 323 L84 323 L85 324 L91 324 L92 325 L102 325 L103 326 L114 326 L115 325 L118 325 L121 322 L121 321 L123 319 L126 319 L129 322 L130 322 L131 323 L132 323 L133 324 L141 324 L143 326 L142 327 L142 351 L143 352 L143 359 L144 360 L144 363 L145 364 L145 366 L146 367 L146 369 L147 370 L147 371 L148 372 L148 373 L150 375 L150 376 L157 383 L158 383 L160 385 L161 385 L162 386 L163 386 L164 387 L165 387 L166 388 L167 388 L169 390 L170 390 L171 391 L172 391 L173 392 L174 392 L175 393 L176 393 L177 394 L179 394 L180 395 L181 395 L182 396 L183 396 L184 397 L185 397 L186 398 L188 398 L189 399 L190 399 L191 400 L192 400 L193 401 L194 401 L195 402 L197 402 L198 403 L199 403 L200 404 L202 404 L203 405 L205 405 L206 406 L208 406 L209 407 L211 407 L212 408 L214 408 L215 409 L216 409 L217 410 L221 410 L222 411 L225 411 L226 412 L229 412 L230 413 L234 413 L235 414 L239 414 L240 415 L245 415 L246 416 L251 416 L252 417 L261 417 L262 418 L273 418 L274 419 L294 419 L295 418 L296 418 L299 415 L299 414 L301 412 L301 411 L302 410 L305 410 L307 412 L308 412 L309 413 L309 414 L310 415 L311 415 L312 416 L328 416 L329 415 L337 415 L338 414 L343 414 L344 413 L347 413 L348 412 L350 412 L351 411 L353 411 L354 410 L355 410 L356 409 L356 407 L357 406 L357 402 L359 400 L363 400 L366 403 L367 403 L368 404 L371 404 L372 403 L374 403 L375 402 L377 402 L378 401 L380 401 L381 400 L382 400 L383 399 L384 399 L385 398 L387 398 L388 397 L390 397 L391 396 L392 396 L394 394 L395 394 L396 393 L397 393 L398 392 L399 392 L400 391 L401 391 L403 389 L404 389 L404 388 L405 387 L405 386 L406 385 L406 382 L408 380 L409 380 L410 381 L414 381 L415 380 L416 380 L417 379 L418 379 L419 378 L420 378 L422 376 L423 376 L426 373 L427 373 L434 366 L434 365 L441 358 L441 357 L443 355 L443 354 L444 353 L444 352 L445 351 L445 350 L446 349 L446 348 L447 347 L447 346 L448 345 L448 344 L450 342 L450 341 L451 340 L451 339 L453 337 L453 336 L454 335 L454 334 L456 332 L456 331 L457 330 L457 329 L460 326 L460 325 L463 322 L463 321 L478 306 L480 306 L481 307 L482 307 L483 308 L486 308 L487 309 L490 309 L491 310 L493 310 L494 311 L496 311 L497 312 L499 312 L500 313 L502 313 L503 314 L507 314 L508 313 L510 313 L511 312 L513 312 L514 311 L515 311 L516 310 L517 310 L518 309 L519 309 L523 305 L524 305 L526 303 L527 303 L529 301 L530 301 L531 300 L532 300 L533 299 L534 299 L536 297 L537 297 L538 296 L539 296 L542 293 L543 293 L546 290 L547 290 L549 288 L550 288 L553 285 L554 285 L560 279 L561 279 L563 277 L563 276 L567 272 L567 271 L569 269 L569 268 L570 267 L570 265 L571 264 L571 263 L572 262 L572 261 L573 260 L573 258 L574 257 L574 252 L575 251 L575 242 L576 241 L576 233 L577 232 L577 226 L578 225 L578 217 L579 216 L579 211 L580 210 L580 203 L581 202 L581 195 L582 194 L582 189 L583 188 L583 163 L582 162 L582 153 L581 152 L581 147 L580 146 L580 136 L579 135 L579 132 L580 131 L580 129 L579 128 L579 113 L578 112 L578 107 L577 106 L577 104 L576 103 L576 101 L575 100 L575 99 L574 98 L574 97 L573 96 L573 95 L571 93 L571 92 L570 91 L570 90 L567 87 L567 86 L562 81 L561 81 L559 79 L558 79 L556 77 L555 77 L554 76 L553 76 L552 75 L551 75 L550 74 L548 74 L547 73 L546 73 L545 72 L542 72 L541 71 L538 71 L537 70 L532 70 L531 69 L519 69 L518 70 L514 70 L513 71 L509 71 L508 72 L505 72 L504 73 L502 73 L501 74 L499 74 L498 75 L495 75 L494 76 L493 76 L492 77 L490 77 L489 78 L488 78 L487 79 L486 79 L485 80 L484 80 L483 81 L482 81 L481 82 L480 82 L479 83 L478 83 L477 84 L476 84 L475 85 L474 85 L473 86 L472 86 L471 87 L470 87 L469 88 L468 88 L467 89 L466 89 L464 91 L463 91 L462 92 L461 92 L460 93 L459 93 L458 94 L456 94 L455 95 L454 95 L453 96 L451 96 L450 95 L450 90 L449 89 L449 84 L448 83 L448 76 L447 75 L447 59 L446 58 L446 50 L445 49 L445 44 L444 43 L444 40 L443 39 L443 36 L442 35 L442 34 L441 33 L441 31 L440 30 L440 29 L438 27 L438 26 L432 20 L431 20 L429 18 L428 18 L427 17 L426 17 L425 16 L423 16 L422 15 L420 15 L419 14 L417 14 L416 13 L413 13 L412 12 L407 12 L406 11 Z " fill="black"/></svg>