<svg width="985" height="1133" xmlns="http://www.w3.org/2000/svg"><path d="M658 11 L657 12 L647 12 L646 13 L639 13 L638 14 L632 14 L631 15 L627 15 L626 16 L622 16 L621 17 L618 17 L617 18 L614 18 L613 19 L610 19 L609 20 L607 20 L606 21 L604 21 L603 22 L601 22 L600 23 L599 23 L598 24 L597 24 L596 25 L595 25 L594 26 L593 26 L592 27 L591 27 L590 28 L589 28 L588 29 L587 29 L585 31 L584 31 L582 33 L581 33 L579 35 L578 35 L576 37 L575 37 L572 40 L571 40 L560 51 L560 52 L556 56 L556 57 L554 59 L554 60 L553 61 L553 62 L551 64 L551 65 L550 66 L550 68 L549 69 L549 70 L548 71 L548 73 L547 74 L547 77 L546 78 L546 83 L545 84 L545 96 L546 97 L546 102 L547 103 L547 105 L548 106 L548 108 L549 109 L549 110 L550 111 L550 112 L551 113 L551 114 L552 115 L552 116 L553 117 L553 118 L555 120 L555 121 L556 122 L556 123 L558 125 L558 126 L560 128 L560 129 L561 130 L561 131 L563 133 L563 134 L565 136 L565 137 L567 139 L567 140 L569 142 L569 143 L571 145 L571 146 L572 147 L572 148 L574 150 L574 151 L575 152 L575 153 L576 154 L576 156 L577 157 L577 159 L578 160 L578 162 L577 163 L573 159 L573 158 L570 155 L570 154 L568 152 L568 151 L565 148 L565 147 L562 144 L562 143 L559 140 L559 139 L556 136 L556 135 L554 133 L554 132 L551 129 L551 128 L550 127 L550 126 L548 124 L548 123 L547 122 L547 121 L546 120 L546 119 L545 118 L545 117 L544 116 L544 115 L543 114 L543 113 L542 112 L542 111 L541 110 L541 108 L540 107 L540 106 L539 105 L539 104 L537 102 L537 101 L535 99 L535 98 L526 89 L525 89 L524 88 L523 88 L521 86 L519 86 L518 85 L517 85 L516 84 L514 84 L513 83 L512 83 L511 82 L510 82 L509 81 L507 81 L505 79 L504 79 L502 77 L501 77 L491 67 L489 67 L488 66 L487 67 L485 67 L484 68 L483 68 L477 74 L477 75 L475 77 L475 78 L474 79 L474 80 L473 81 L473 82 L472 83 L472 85 L471 86 L471 88 L470 89 L470 96 L469 97 L469 99 L470 100 L470 106 L471 107 L471 111 L472 112 L472 114 L473 115 L473 117 L474 118 L474 120 L475 121 L475 122 L477 124 L477 125 L478 126 L478 127 L479 128 L479 129 L481 131 L481 132 L484 135 L484 136 L487 139 L488 139 L490 141 L491 141 L492 142 L493 142 L494 143 L496 143 L497 144 L499 144 L500 145 L503 145 L504 146 L512 146 L513 147 L518 147 L519 148 L522 148 L523 149 L525 149 L526 150 L527 150 L528 151 L530 151 L531 152 L532 152 L533 153 L534 153 L535 154 L536 154 L537 155 L538 155 L539 156 L540 156 L541 157 L542 157 L543 158 L544 158 L546 160 L547 160 L550 163 L551 163 L555 167 L556 167 L559 170 L560 170 L564 174 L565 174 L568 177 L569 177 L572 180 L572 181 L571 182 L571 183 L570 184 L570 185 L569 186 L569 187 L568 188 L568 189 L567 190 L567 191 L566 192 L566 194 L565 195 L565 196 L564 197 L564 199 L563 200 L563 202 L562 203 L562 205 L561 206 L561 208 L560 209 L560 211 L559 212 L559 215 L558 216 L558 218 L557 219 L557 222 L556 223 L556 227 L555 228 L555 232 L554 233 L554 236 L553 237 L553 240 L552 241 L552 243 L551 244 L551 246 L550 247 L550 249 L549 250 L549 254 L548 255 L548 257 L547 258 L547 262 L546 263 L546 265 L545 266 L545 268 L544 269 L542 269 L541 268 L539 268 L537 266 L536 266 L535 265 L534 265 L533 264 L531 264 L530 263 L529 263 L528 262 L527 262 L526 261 L524 261 L523 260 L522 260 L521 259 L519 259 L518 258 L516 258 L515 257 L513 257 L512 256 L510 256 L509 255 L507 255 L506 254 L504 254 L503 253 L500 253 L499 252 L496 252 L495 251 L492 251 L491 250 L488 250 L487 249 L482 249 L481 248 L478 248 L477 247 L475 247 L471 243 L471 241 L472 240 L472 238 L474 236 L475 236 L476 235 L477 235 L478 234 L480 234 L481 233 L486 233 L487 232 L499 232 L500 233 L506 233 L507 234 L509 234 L510 235 L511 235 L512 236 L513 236 L514 237 L515 237 L517 239 L518 239 L530 251 L530 252 L534 256 L534 257 L536 259 L536 260 L540 264 L541 264 L542 263 L542 260 L543 259 L543 253 L544 252 L544 245 L545 244 L545 230 L544 229 L544 225 L543 224 L543 222 L542 221 L542 220 L541 219 L541 218 L540 217 L540 216 L539 215 L539 214 L538 213 L538 212 L537 211 L537 210 L534 207 L534 206 L530 202 L530 201 L520 191 L519 191 L515 187 L514 187 L512 185 L511 185 L510 184 L509 184 L508 183 L506 183 L505 182 L504 182 L503 181 L501 181 L500 180 L499 180 L498 179 L496 179 L495 178 L492 178 L491 177 L488 177 L487 176 L481 176 L480 175 L463 175 L462 176 L458 176 L457 177 L455 177 L454 178 L452 178 L451 179 L449 179 L448 180 L447 180 L446 181 L445 181 L444 182 L443 182 L442 183 L441 183 L439 185 L438 185 L437 186 L436 186 L435 187 L433 187 L431 189 L430 189 L427 192 L426 192 L421 197 L420 197 L413 204 L413 205 L410 208 L410 209 L409 210 L409 211 L408 212 L408 213 L406 215 L406 216 L405 217 L405 218 L403 220 L403 221 L402 222 L402 223 L399 226 L399 227 L396 230 L396 231 L390 237 L389 237 L387 239 L383 239 L379 235 L379 234 L378 233 L378 224 L377 223 L377 208 L378 207 L378 197 L379 196 L379 186 L380 185 L380 176 L379 175 L379 166 L378 165 L378 162 L377 161 L377 157 L376 156 L376 153 L375 152 L375 150 L374 149 L374 148 L373 147 L373 146 L372 145 L372 143 L370 141 L370 140 L369 139 L369 138 L367 136 L367 135 L366 134 L366 133 L362 129 L362 128 L349 115 L348 115 L346 113 L345 113 L343 111 L342 111 L341 110 L340 110 L338 108 L336 108 L335 107 L334 107 L333 106 L331 106 L330 105 L328 105 L327 104 L323 104 L322 103 L319 103 L318 102 L316 102 L315 101 L312 101 L311 100 L308 100 L307 99 L304 99 L303 98 L300 98 L299 97 L296 97 L295 96 L292 96 L291 95 L288 95 L287 94 L285 94 L284 93 L281 93 L280 92 L276 92 L275 91 L264 91 L263 90 L261 90 L260 91 L251 91 L250 92 L245 92 L244 93 L240 93 L239 94 L234 94 L233 95 L229 95 L228 96 L226 96 L225 97 L223 97 L222 98 L219 98 L218 99 L216 99 L215 100 L213 100 L212 101 L209 101 L208 102 L207 102 L206 103 L204 103 L203 104 L201 104 L200 105 L198 105 L197 106 L196 106 L195 107 L194 107 L192 109 L192 110 L191 111 L191 114 L192 115 L197 115 L198 116 L205 116 L206 117 L215 117 L216 118 L222 118 L223 119 L227 119 L228 120 L230 120 L231 121 L235 121 L236 122 L239 122 L240 123 L242 123 L243 124 L245 124 L246 125 L248 125 L249 126 L250 126 L251 127 L252 127 L253 128 L254 128 L255 129 L256 129 L257 130 L258 130 L260 132 L261 132 L263 134 L264 134 L268 138 L269 138 L270 139 L270 140 L274 144 L274 145 L277 148 L277 149 L278 150 L278 151 L279 152 L279 153 L280 154 L280 157 L281 158 L281 162 L280 163 L280 164 L278 166 L275 166 L274 165 L272 165 L271 164 L270 164 L269 163 L267 163 L266 162 L265 162 L264 161 L263 161 L262 160 L261 160 L260 159 L259 159 L258 158 L257 158 L256 157 L255 157 L253 155 L252 155 L251 154 L250 154 L248 152 L247 152 L246 151 L245 151 L244 150 L243 150 L241 148 L240 148 L238 146 L237 146 L236 145 L235 145 L233 143 L232 143 L231 142 L230 142 L229 141 L228 141 L227 140 L226 140 L224 138 L223 138 L222 137 L221 137 L220 136 L219 136 L217 134 L216 134 L215 133 L214 133 L213 132 L212 132 L211 131 L210 131 L209 130 L208 130 L207 129 L205 129 L204 128 L203 128 L202 127 L199 127 L198 126 L196 126 L195 125 L193 125 L192 124 L190 124 L189 123 L188 123 L187 122 L186 122 L185 121 L184 121 L183 120 L181 120 L180 119 L178 119 L177 118 L165 118 L164 119 L161 119 L160 120 L157 120 L156 121 L154 121 L153 122 L151 122 L150 123 L149 123 L148 124 L147 124 L146 125 L145 125 L144 126 L143 126 L142 127 L141 127 L140 128 L139 128 L137 130 L136 130 L135 131 L134 131 L132 133 L131 133 L128 136 L127 136 L124 139 L123 139 L100 162 L100 163 L96 167 L96 168 L91 173 L91 174 L89 176 L89 177 L86 180 L86 181 L84 183 L84 184 L83 185 L83 186 L81 188 L81 189 L79 191 L79 192 L78 193 L78 194 L76 196 L76 197 L75 198 L75 199 L74 200 L74 201 L73 202 L73 204 L72 205 L72 207 L71 208 L71 209 L72 210 L72 211 L73 212 L76 212 L77 211 L79 211 L80 210 L81 210 L82 209 L84 209 L85 208 L86 208 L87 207 L89 207 L90 206 L92 206 L93 205 L94 205 L95 204 L97 204 L98 203 L100 203 L101 202 L102 202 L103 201 L105 201 L106 200 L108 200 L109 199 L112 199 L113 198 L116 198 L117 197 L121 197 L122 196 L126 196 L127 195 L130 195 L131 194 L163 194 L164 195 L172 195 L173 196 L178 196 L179 197 L183 197 L184 198 L187 198 L188 199 L191 199 L192 200 L195 200 L196 201 L199 201 L200 202 L202 202 L203 203 L205 203 L206 204 L209 204 L210 205 L212 205 L213 206 L214 206 L215 207 L217 207 L218 208 L220 208 L221 209 L222 209 L223 210 L224 210 L225 211 L227 211 L228 212 L229 212 L230 213 L232 213 L233 214 L234 214 L236 216 L237 216 L238 217 L239 217 L244 222 L244 223 L245 224 L245 225 L246 226 L246 227 L243 230 L242 230 L241 231 L235 231 L234 232 L224 232 L223 231 L213 231 L212 230 L205 230 L204 229 L197 229 L196 228 L189 228 L188 227 L181 227 L180 226 L173 226 L172 225 L168 225 L167 224 L162 224 L161 223 L154 223 L153 222 L146 222 L145 221 L140 221 L139 220 L130 220 L129 219 L101 219 L100 220 L93 220 L92 221 L89 221 L88 222 L86 222 L85 223 L82 223 L81 224 L78 224 L77 225 L74 225 L73 226 L71 226 L70 227 L68 227 L67 228 L66 228 L65 229 L64 229 L63 230 L62 230 L61 231 L59 231 L49 241 L49 242 L47 244 L47 245 L46 246 L46 247 L45 248 L45 249 L44 250 L44 251 L43 252 L43 254 L42 255 L42 257 L41 258 L41 259 L37 263 L37 264 L35 266 L35 267 L34 268 L34 270 L33 271 L33 272 L32 273 L32 274 L31 275 L31 277 L30 278 L30 280 L29 281 L29 283 L28 284 L28 286 L27 287 L27 289 L26 290 L26 292 L25 293 L25 295 L24 296 L24 300 L23 301 L23 304 L22 305 L22 309 L21 310 L21 315 L20 316 L20 324 L19 325 L19 344 L20 345 L20 346 L24 346 L26 344 L26 343 L28 341 L28 340 L34 334 L35 334 L40 329 L41 329 L43 327 L44 327 L46 325 L47 325 L49 323 L50 323 L51 322 L52 322 L54 320 L55 320 L56 319 L57 319 L59 317 L60 317 L61 316 L62 316 L63 315 L64 315 L65 314 L66 314 L68 312 L69 312 L70 311 L71 311 L72 310 L73 310 L74 309 L75 309 L76 308 L77 308 L78 307 L79 307 L80 306 L81 306 L82 305 L84 305 L85 304 L86 304 L87 303 L89 303 L90 302 L93 302 L94 301 L97 301 L98 300 L100 300 L101 299 L105 299 L106 298 L110 298 L111 297 L114 297 L115 296 L119 296 L120 295 L125 295 L126 294 L130 294 L131 293 L138 293 L139 292 L149 292 L150 291 L159 291 L160 290 L166 290 L167 289 L174 289 L175 288 L180 288 L181 287 L189 287 L190 286 L204 286 L205 287 L210 287 L211 288 L213 288 L214 289 L215 289 L219 293 L219 294 L220 295 L220 298 L219 299 L219 300 L215 304 L213 304 L212 305 L210 305 L209 306 L207 306 L206 307 L202 307 L201 308 L198 308 L197 309 L193 309 L192 310 L188 310 L187 311 L183 311 L182 312 L178 312 L177 313 L173 313 L172 314 L167 314 L166 315 L163 315 L162 316 L159 316 L158 317 L152 317 L151 318 L144 318 L143 319 L137 319 L136 320 L132 320 L131 321 L126 321 L125 322 L121 322 L120 323 L115 323 L114 324 L110 324 L109 325 L105 325 L104 326 L101 326 L100 327 L96 327 L95 328 L92 328 L91 329 L89 329 L88 330 L86 330 L85 331 L83 331 L82 332 L81 332 L80 333 L78 333 L77 334 L74 334 L73 335 L71 335 L70 336 L69 336 L68 337 L66 337 L65 338 L64 338 L63 339 L62 339 L61 340 L60 340 L59 341 L58 341 L57 342 L56 342 L55 343 L54 343 L53 344 L52 344 L51 345 L50 345 L49 346 L48 346 L47 347 L46 347 L44 349 L43 349 L41 351 L40 351 L38 353 L37 353 L33 357 L32 357 L28 361 L27 361 L21 367 L21 368 L19 370 L19 371 L18 372 L18 373 L17 374 L17 375 L16 376 L16 377 L15 378 L15 380 L14 381 L14 385 L13 386 L13 389 L12 390 L12 398 L11 399 L11 420 L12 421 L12 430 L13 431 L13 438 L14 439 L14 445 L15 446 L15 450 L16 451 L16 455 L17 456 L17 460 L18 461 L18 466 L19 467 L19 470 L20 471 L20 475 L21 476 L21 478 L22 479 L22 482 L23 483 L23 485 L24 486 L24 489 L25 490 L25 491 L26 491 L27 492 L30 489 L30 488 L31 487 L31 485 L32 484 L32 483 L33 482 L33 481 L34 480 L34 479 L36 477 L36 476 L37 475 L37 474 L39 472 L39 471 L41 469 L41 468 L44 465 L44 464 L48 460 L48 459 L54 453 L54 452 L64 442 L65 442 L71 436 L72 436 L75 433 L76 433 L80 429 L81 429 L86 424 L87 424 L93 418 L94 418 L97 415 L98 415 L100 413 L101 413 L103 411 L104 411 L106 409 L107 409 L109 407 L110 407 L112 405 L113 405 L115 403 L116 403 L118 401 L119 401 L120 400 L121 400 L123 398 L124 398 L126 396 L127 396 L128 395 L129 395 L130 394 L131 394 L133 392 L135 392 L136 391 L137 391 L138 390 L139 390 L140 389 L142 389 L143 388 L145 388 L146 387 L147 387 L148 386 L150 386 L151 385 L152 385 L153 384 L155 384 L156 383 L158 383 L159 382 L161 382 L162 381 L164 381 L165 380 L167 380 L168 379 L170 379 L171 378 L173 378 L174 377 L177 377 L178 376 L181 376 L182 375 L186 375 L187 374 L199 374 L200 375 L204 375 L205 376 L206 376 L207 377 L208 377 L212 381 L212 389 L211 390 L211 392 L210 393 L210 394 L207 397 L206 397 L205 398 L204 398 L203 399 L201 399 L200 400 L199 400 L195 404 L194 404 L191 407 L190 407 L189 408 L188 408 L187 409 L186 409 L185 410 L184 410 L183 411 L182 411 L181 412 L180 412 L179 413 L178 413 L177 414 L176 414 L175 415 L174 415 L173 416 L171 416 L170 417 L169 417 L168 418 L167 418 L166 419 L164 419 L163 420 L162 420 L161 421 L159 421 L158 422 L156 422 L155 423 L154 423 L153 424 L152 424 L151 425 L150 425 L149 426 L148 426 L147 427 L146 427 L145 428 L143 428 L142 429 L141 429 L140 430 L138 430 L137 431 L136 431 L135 432 L134 432 L133 433 L131 433 L129 435 L128 435 L127 436 L126 436 L125 437 L124 437 L123 438 L122 438 L121 439 L119 439 L118 440 L116 440 L115 441 L114 441 L113 442 L112 442 L111 443 L110 443 L108 445 L107 445 L106 446 L105 446 L103 448 L102 448 L100 450 L99 450 L97 452 L96 452 L95 453 L94 453 L92 455 L91 455 L90 456 L89 456 L88 457 L87 457 L85 459 L84 459 L83 460 L82 460 L80 462 L79 462 L77 464 L76 464 L70 470 L69 470 L66 473 L65 473 L63 475 L62 475 L57 480 L56 480 L48 488 L48 489 L44 493 L44 494 L43 495 L43 496 L41 498 L41 499 L38 502 L38 503 L36 505 L36 506 L35 507 L35 508 L34 509 L34 511 L33 512 L33 515 L32 516 L32 521 L33 522 L33 525 L34 526 L34 528 L35 529 L35 531 L36 532 L36 534 L37 535 L37 538 L38 539 L38 541 L39 542 L39 543 L40 544 L40 546 L41 547 L41 548 L42 549 L42 551 L43 552 L43 553 L44 554 L44 555 L45 556 L45 557 L46 558 L46 559 L47 560 L47 562 L48 563 L48 564 L50 566 L50 567 L51 568 L51 569 L52 570 L52 571 L53 572 L53 573 L54 574 L54 575 L56 577 L56 578 L57 579 L57 580 L59 582 L59 583 L62 586 L62 587 L68 593 L69 593 L70 594 L73 594 L73 593 L74 592 L73 591 L73 589 L72 588 L72 586 L71 585 L71 582 L70 581 L70 578 L71 577 L71 573 L72 572 L72 571 L73 570 L73 568 L74 567 L74 566 L75 565 L75 564 L76 563 L76 562 L77 561 L77 560 L78 559 L78 558 L79 557 L79 556 L80 555 L80 554 L82 552 L82 551 L84 549 L84 548 L88 544 L88 543 L92 539 L92 538 L109 521 L110 521 L115 516 L116 516 L122 510 L123 510 L127 506 L128 506 L131 503 L132 503 L135 500 L136 500 L138 498 L139 498 L141 496 L142 496 L145 493 L146 493 L147 492 L148 492 L150 490 L151 490 L152 489 L153 489 L154 488 L155 488 L156 487 L157 487 L158 486 L160 486 L161 485 L162 485 L163 484 L164 484 L165 483 L168 483 L169 482 L172 482 L173 483 L174 483 L175 484 L175 486 L176 487 L176 489 L175 490 L175 493 L174 494 L174 495 L173 496 L173 497 L172 498 L172 499 L169 502 L169 503 L166 506 L166 507 L160 513 L160 514 L147 527 L146 527 L134 539 L134 540 L132 542 L131 542 L129 544 L129 545 L118 556 L118 557 L111 564 L111 565 L106 570 L106 571 L104 573 L104 574 L102 576 L102 577 L100 579 L100 580 L99 581 L99 582 L98 583 L98 584 L97 585 L97 586 L96 587 L96 588 L95 589 L95 590 L94 591 L94 593 L93 594 L93 596 L92 597 L92 601 L91 602 L91 604 L92 605 L92 609 L93 610 L93 612 L94 613 L94 615 L95 616 L95 617 L96 618 L96 619 L97 620 L97 621 L99 623 L99 624 L100 625 L100 626 L103 629 L103 630 L107 634 L107 635 L128 656 L128 657 L131 660 L131 661 L133 663 L133 664 L136 667 L136 668 L139 671 L139 673 L140 674 L140 675 L141 676 L141 677 L142 678 L142 679 L143 680 L143 681 L144 682 L144 683 L145 684 L145 685 L146 686 L146 687 L148 689 L148 690 L150 692 L150 693 L158 701 L159 701 L160 702 L162 700 L162 699 L163 698 L163 697 L164 696 L164 695 L165 694 L165 693 L166 692 L166 691 L167 690 L167 689 L170 686 L170 685 L175 680 L176 680 L179 677 L180 677 L182 675 L183 675 L185 673 L186 673 L187 672 L188 672 L189 671 L190 671 L191 670 L193 670 L194 669 L196 669 L197 668 L199 668 L200 667 L203 667 L204 666 L206 666 L207 665 L209 665 L210 664 L213 664 L214 663 L217 663 L218 662 L223 662 L224 661 L230 661 L231 660 L236 660 L237 659 L242 659 L243 658 L249 658 L250 657 L256 657 L257 656 L261 656 L262 655 L266 655 L267 654 L270 654 L271 653 L274 653 L275 652 L277 652 L278 651 L280 651 L281 650 L283 650 L284 649 L286 649 L287 648 L289 648 L290 647 L292 647 L293 646 L294 646 L295 645 L296 645 L297 644 L299 644 L301 642 L302 642 L304 640 L305 640 L309 636 L309 635 L310 634 L310 633 L311 632 L311 631 L312 630 L312 629 L313 628 L313 626 L314 625 L314 623 L315 622 L315 619 L316 618 L316 612 L317 611 L317 595 L318 594 L318 577 L317 576 L317 561 L316 560 L316 554 L315 553 L315 547 L314 546 L314 541 L313 540 L313 536 L312 535 L312 532 L311 531 L311 528 L310 527 L310 524 L309 523 L309 521 L308 520 L308 518 L307 517 L307 515 L306 514 L306 512 L305 511 L305 509 L304 508 L304 506 L303 505 L303 503 L302 502 L302 500 L301 499 L301 496 L300 495 L300 492 L299 491 L299 489 L298 488 L298 485 L297 484 L297 481 L296 480 L296 476 L295 475 L295 472 L294 471 L294 466 L293 465 L293 456 L294 455 L294 453 L295 452 L295 451 L296 450 L296 449 L298 447 L299 447 L301 445 L303 445 L304 444 L310 444 L311 445 L312 445 L313 446 L314 446 L321 453 L321 454 L323 456 L323 457 L324 458 L324 459 L325 460 L325 461 L326 462 L326 463 L327 464 L327 465 L328 466 L328 468 L329 469 L329 470 L330 471 L330 473 L331 474 L331 475 L332 476 L332 478 L333 479 L333 481 L334 482 L334 484 L335 485 L335 487 L336 488 L336 491 L337 492 L337 494 L338 495 L338 498 L339 499 L339 503 L340 504 L340 507 L341 508 L341 512 L342 513 L342 518 L343 519 L343 529 L344 530 L344 539 L345 540 L345 574 L344 575 L344 582 L343 583 L343 590 L342 591 L342 596 L341 597 L341 599 L340 600 L340 603 L339 604 L339 606 L338 607 L338 609 L337 610 L337 612 L336 613 L336 614 L335 615 L335 616 L334 617 L334 618 L333 619 L333 620 L331 622 L331 623 L328 626 L328 627 L326 629 L326 630 L325 631 L325 632 L324 633 L324 634 L325 635 L325 636 L326 637 L327 637 L328 638 L329 638 L330 637 L333 637 L334 636 L335 636 L336 635 L337 635 L338 634 L339 634 L340 633 L341 633 L343 631 L344 631 L345 630 L346 630 L347 629 L348 629 L349 628 L350 628 L351 627 L352 627 L353 626 L354 626 L355 625 L356 625 L358 623 L359 623 L360 622 L361 622 L362 621 L363 621 L365 619 L366 619 L367 618 L368 618 L369 619 L369 620 L371 622 L371 623 L378 630 L378 634 L379 635 L379 640 L380 641 L380 645 L381 646 L381 652 L382 653 L382 690 L381 691 L381 699 L380 700 L380 705 L379 706 L379 710 L378 711 L378 713 L377 714 L377 715 L376 716 L376 717 L375 718 L375 720 L374 721 L374 722 L373 723 L373 725 L372 726 L372 727 L370 729 L370 730 L369 731 L369 732 L366 735 L366 736 L363 739 L363 740 L359 744 L359 745 L355 749 L355 750 L352 753 L352 754 L350 756 L350 757 L347 760 L347 761 L346 762 L346 763 L344 765 L344 766 L342 768 L342 769 L340 771 L340 773 L339 774 L339 775 L338 776 L338 777 L337 778 L337 780 L336 781 L336 783 L335 784 L335 785 L334 786 L334 788 L333 789 L333 791 L332 792 L332 794 L331 795 L331 797 L330 798 L330 800 L329 801 L329 804 L328 805 L328 807 L327 808 L327 813 L326 814 L326 831 L325 832 L325 844 L324 845 L324 1022 L325 1023 L325 1041 L324 1042 L324 1052 L325 1053 L324 1054 L324 1055 L325 1056 L325 1065 L326 1066 L326 1073 L327 1074 L327 1076 L328 1077 L328 1080 L329 1081 L329 1083 L330 1084 L330 1085 L331 1086 L331 1087 L332 1088 L332 1089 L334 1091 L334 1092 L340 1098 L341 1098 L343 1100 L344 1100 L346 1102 L347 1102 L348 1103 L350 1103 L351 1104 L352 1104 L353 1105 L355 1105 L356 1106 L358 1106 L359 1107 L361 1107 L362 1108 L364 1108 L365 1109 L367 1109 L368 1110 L370 1110 L371 1111 L373 1111 L374 1112 L376 1112 L377 1113 L379 1113 L380 1114 L383 1114 L384 1115 L387 1115 L388 1116 L392 1116 L393 1117 L397 1117 L398 1118 L403 1118 L404 1119 L411 1119 L412 1120 L427 1120 L428 1121 L478 1121 L479 1120 L489 1120 L490 1119 L497 1119 L498 1118 L502 1118 L503 1117 L507 1117 L508 1116 L512 1116 L513 1115 L516 1115 L517 1114 L521 1114 L522 1113 L525 1113 L526 1112 L528 1112 L529 1111 L531 1111 L532 1110 L534 1110 L535 1109 L537 1109 L538 1108 L540 1108 L541 1107 L543 1107 L544 1106 L545 1106 L546 1105 L547 1105 L548 1104 L549 1104 L550 1103 L551 1103 L552 1102 L553 1102 L554 1101 L555 1101 L556 1100 L557 1100 L559 1098 L560 1098 L566 1092 L566 1091 L568 1089 L568 1088 L569 1087 L569 1086 L570 1085 L570 1084 L571 1083 L571 1081 L572 1080 L572 1078 L573 1077 L573 1070 L574 1069 L574 1052 L575 1051 L575 983 L576 982 L576 980 L575 979 L576 978 L576 973 L575 972 L575 971 L576 970 L576 968 L575 967 L575 966 L576 965 L576 860 L575 859 L575 834 L574 833 L574 821 L573 820 L573 813 L572 812 L572 807 L571 806 L571 802 L570 801 L570 798 L569 797 L569 794 L568 793 L568 791 L567 790 L567 788 L566 787 L566 785 L565 784 L565 783 L564 782 L564 780 L563 779 L563 778 L562 777 L562 776 L561 775 L561 773 L560 772 L560 771 L558 769 L558 768 L557 767 L557 766 L555 764 L555 763 L553 761 L553 760 L551 758 L551 757 L549 755 L549 754 L546 751 L546 750 L544 748 L544 747 L542 745 L542 744 L540 742 L540 741 L537 738 L537 737 L535 735 L535 734 L533 732 L533 731 L531 729 L531 728 L530 727 L530 726 L529 725 L529 724 L528 723 L528 722 L527 721 L527 720 L526 719 L526 718 L525 717 L525 716 L524 715 L524 713 L523 712 L523 710 L522 709 L522 706 L521 705 L521 702 L520 701 L520 698 L519 697 L519 690 L518 689 L518 661 L519 660 L519 649 L520 648 L520 642 L521 641 L521 634 L522 633 L522 630 L523 629 L523 628 L531 620 L531 619 L533 617 L533 615 L534 614 L534 607 L533 606 L533 604 L531 602 L531 601 L528 598 L527 598 L526 597 L525 597 L524 596 L523 596 L522 595 L521 595 L520 594 L518 594 L517 593 L514 593 L513 592 L511 592 L510 591 L507 591 L506 590 L501 590 L500 589 L494 589 L492 587 L492 582 L493 581 L493 578 L494 577 L494 573 L495 572 L495 567 L496 566 L496 563 L497 562 L497 558 L498 557 L498 553 L499 552 L499 549 L500 548 L500 545 L501 544 L501 541 L502 540 L502 536 L503 535 L503 532 L504 531 L504 527 L505 526 L505 523 L506 522 L506 518 L507 517 L507 513 L508 512 L508 508 L509 507 L509 505 L510 504 L510 502 L511 501 L511 499 L513 497 L513 496 L514 495 L514 494 L515 493 L515 492 L517 490 L517 489 L520 486 L520 485 L523 482 L523 481 L525 479 L525 478 L527 476 L527 475 L528 474 L528 473 L529 472 L529 471 L530 470 L530 468 L531 467 L531 465 L532 464 L532 463 L533 462 L533 460 L534 459 L534 454 L535 453 L535 449 L534 448 L534 445 L533 444 L533 442 L532 441 L532 440 L531 439 L531 437 L530 436 L530 435 L529 434 L529 433 L528 432 L528 431 L527 430 L527 429 L526 428 L526 427 L525 426 L525 423 L526 422 L526 420 L527 419 L527 416 L528 415 L528 412 L529 411 L529 409 L530 408 L530 405 L531 404 L531 401 L532 400 L532 397 L533 396 L534 396 L536 398 L536 400 L537 401 L537 403 L538 404 L538 406 L539 407 L539 409 L540 410 L540 415 L541 416 L541 422 L542 423 L542 424 L543 425 L543 426 L544 426 L545 427 L547 425 L547 424 L548 423 L548 422 L549 421 L549 419 L550 418 L550 416 L551 415 L551 413 L552 412 L552 410 L553 409 L553 407 L554 406 L554 403 L555 402 L555 399 L556 398 L556 396 L557 395 L557 392 L558 391 L558 390 L559 389 L559 387 L560 386 L560 384 L561 383 L561 381 L562 380 L562 378 L563 377 L563 375 L564 374 L564 371 L565 370 L565 368 L566 367 L566 364 L567 363 L567 359 L568 358 L568 355 L569 354 L569 351 L570 350 L570 347 L571 346 L571 340 L572 339 L572 330 L573 329 L573 313 L572 312 L572 306 L571 305 L571 301 L570 300 L570 296 L569 295 L569 291 L568 290 L568 288 L567 287 L567 286 L565 284 L565 283 L563 281 L563 279 L564 278 L564 275 L565 274 L565 272 L566 271 L566 268 L567 267 L567 264 L568 263 L568 260 L569 259 L569 256 L570 255 L570 253 L571 252 L571 249 L572 248 L572 245 L573 244 L573 241 L574 240 L574 237 L575 236 L575 233 L576 232 L576 229 L577 228 L577 226 L578 225 L578 223 L579 222 L579 220 L580 219 L580 217 L581 216 L581 214 L582 213 L582 211 L583 210 L583 208 L584 207 L584 204 L585 203 L585 202 L586 201 L586 200 L588 198 L588 197 L594 191 L595 191 L596 190 L597 190 L598 189 L600 189 L601 188 L604 188 L605 189 L611 189 L612 190 L617 190 L618 191 L623 191 L624 192 L628 192 L629 193 L633 193 L634 194 L639 194 L640 195 L645 195 L646 196 L649 196 L650 197 L654 197 L655 198 L657 198 L658 199 L661 199 L662 200 L664 200 L665 201 L668 201 L669 202 L671 202 L672 203 L674 203 L675 204 L677 204 L678 205 L679 205 L680 206 L682 206 L683 207 L686 207 L687 208 L688 208 L689 209 L691 209 L692 210 L694 210 L695 211 L696 211 L697 212 L699 212 L700 213 L701 213 L702 214 L704 214 L705 215 L706 215 L707 216 L708 216 L709 217 L710 217 L711 218 L713 218 L714 219 L715 219 L716 220 L717 220 L718 221 L720 221 L721 222 L722 222 L723 223 L724 223 L730 229 L730 230 L731 231 L731 232 L733 234 L733 235 L734 236 L734 238 L735 239 L735 240 L736 241 L736 242 L737 243 L737 245 L738 246 L738 248 L739 249 L739 250 L740 251 L740 252 L741 253 L741 255 L742 256 L742 257 L743 258 L743 259 L744 260 L744 261 L745 262 L745 263 L746 264 L746 266 L747 267 L747 268 L748 269 L748 270 L749 271 L749 272 L751 274 L751 275 L759 283 L760 283 L763 286 L764 286 L766 288 L767 288 L768 289 L769 289 L770 290 L771 290 L772 291 L773 291 L775 293 L776 293 L777 294 L778 294 L779 295 L780 295 L781 296 L782 296 L783 297 L784 297 L786 299 L787 299 L788 300 L789 300 L790 301 L791 301 L792 302 L793 302 L795 304 L796 304 L797 305 L798 305 L800 307 L801 307 L803 309 L804 309 L805 310 L806 310 L808 312 L809 312 L812 315 L813 315 L814 316 L815 316 L817 318 L818 318 L819 319 L820 319 L821 320 L823 320 L823 319 L824 318 L823 317 L823 315 L821 313 L821 312 L812 303 L812 302 L810 300 L810 299 L807 296 L807 295 L806 294 L806 293 L804 291 L804 290 L803 289 L803 288 L801 286 L801 284 L800 283 L800 281 L799 280 L799 278 L798 277 L798 276 L797 275 L797 273 L796 272 L796 271 L795 270 L795 268 L794 267 L794 265 L793 264 L793 262 L792 261 L792 259 L791 258 L791 257 L792 256 L794 256 L795 257 L796 257 L798 259 L799 259 L800 260 L801 260 L803 262 L804 262 L817 275 L817 276 L822 281 L822 282 L826 286 L826 287 L828 289 L828 290 L830 292 L830 293 L832 295 L832 296 L833 297 L833 298 L835 300 L835 301 L837 303 L837 304 L839 306 L839 307 L841 309 L841 310 L843 312 L843 313 L848 318 L848 319 L849 320 L850 320 L854 324 L855 324 L857 326 L858 326 L859 327 L860 327 L861 328 L862 328 L863 329 L864 329 L865 330 L866 330 L867 331 L868 331 L869 332 L871 332 L872 333 L874 333 L875 334 L877 334 L878 335 L880 335 L881 336 L883 336 L884 337 L885 337 L886 338 L889 338 L890 339 L892 339 L893 340 L895 340 L896 341 L899 341 L900 342 L903 342 L904 343 L906 343 L907 344 L910 344 L911 345 L913 345 L914 346 L915 346 L916 347 L918 347 L919 348 L920 348 L921 349 L923 349 L924 350 L925 350 L926 351 L927 351 L929 353 L930 353 L931 354 L932 354 L939 361 L940 361 L941 362 L941 363 L947 369 L947 370 L949 372 L949 373 L950 374 L950 375 L952 377 L952 378 L953 379 L953 380 L954 381 L954 382 L956 384 L956 385 L957 386 L957 388 L958 389 L958 390 L959 391 L959 392 L960 393 L961 393 L962 392 L963 392 L963 391 L964 390 L964 388 L965 387 L965 376 L966 375 L966 374 L965 373 L965 372 L966 371 L966 369 L965 368 L965 366 L966 365 L966 346 L965 345 L966 344 L966 343 L965 342 L965 323 L964 322 L964 318 L963 317 L963 316 L962 315 L962 313 L961 312 L961 311 L959 309 L959 308 L957 306 L957 305 L952 300 L951 300 L948 297 L947 297 L945 295 L944 295 L942 293 L941 293 L940 292 L939 292 L937 290 L936 290 L934 288 L933 288 L932 287 L931 287 L929 285 L928 285 L927 284 L926 284 L924 282 L923 282 L922 281 L921 281 L920 280 L918 280 L917 279 L916 279 L915 278 L914 278 L912 276 L911 276 L910 275 L908 275 L906 273 L905 273 L904 272 L902 272 L901 271 L900 271 L899 270 L898 270 L897 269 L896 269 L895 268 L893 268 L892 267 L891 267 L890 266 L889 266 L888 265 L886 265 L885 264 L884 264 L883 263 L881 263 L880 262 L879 262 L878 261 L876 261 L875 260 L873 260 L872 259 L870 259 L869 258 L868 258 L867 257 L865 257 L864 256 L863 256 L862 255 L861 255 L860 254 L858 254 L857 253 L856 253 L855 252 L854 252 L853 251 L851 251 L850 250 L849 250 L848 249 L847 249 L846 248 L844 248 L843 247 L842 247 L841 246 L840 246 L839 245 L837 245 L836 244 L835 244 L834 243 L833 243 L832 242 L831 242 L830 241 L829 241 L828 240 L827 240 L825 238 L824 238 L820 234 L821 233 L834 233 L835 234 L841 234 L842 235 L846 235 L847 236 L852 236 L853 237 L857 237 L858 238 L861 238 L862 239 L865 239 L866 240 L869 240 L870 241 L872 241 L873 242 L875 242 L876 243 L878 243 L879 244 L881 244 L882 245 L884 245 L885 246 L887 246 L888 247 L890 247 L891 248 L892 248 L893 249 L895 249 L896 250 L898 250 L899 251 L901 251 L902 252 L903 252 L904 253 L906 253 L907 254 L908 254 L909 255 L910 255 L911 256 L913 256 L914 257 L915 257 L917 259 L918 259 L919 260 L920 260 L923 263 L924 263 L927 266 L928 266 L930 268 L931 268 L934 271 L935 271 L939 275 L940 275 L943 278 L944 278 L946 280 L947 280 L949 282 L950 282 L952 284 L953 284 L955 286 L956 286 L958 288 L959 288 L971 300 L972 300 L973 299 L973 290 L972 289 L972 284 L971 283 L971 277 L970 276 L970 272 L969 271 L969 268 L968 267 L968 264 L967 263 L967 260 L966 259 L966 257 L965 256 L965 253 L964 252 L964 250 L963 249 L963 248 L962 247 L962 246 L961 245 L961 244 L960 243 L960 242 L959 241 L959 240 L958 239 L958 238 L957 237 L957 236 L956 235 L956 234 L955 233 L955 232 L954 231 L954 230 L952 228 L952 227 L950 225 L950 224 L943 217 L942 217 L941 216 L939 216 L938 215 L936 215 L935 214 L933 214 L932 213 L930 213 L929 212 L926 212 L925 211 L923 211 L922 210 L917 210 L916 209 L909 209 L908 208 L901 208 L900 207 L893 207 L892 206 L887 206 L886 205 L881 205 L880 204 L874 204 L873 203 L866 203 L865 202 L859 202 L858 201 L853 201 L852 200 L845 200 L844 199 L836 199 L835 198 L830 198 L829 197 L823 197 L822 196 L817 196 L816 195 L812 195 L811 194 L807 194 L806 193 L801 193 L800 192 L793 192 L792 191 L787 191 L786 190 L780 190 L779 189 L774 189 L773 188 L769 188 L768 187 L764 187 L763 186 L759 186 L758 185 L755 185 L754 184 L753 184 L752 183 L751 183 L750 182 L750 181 L749 180 L749 179 L753 175 L754 175 L755 174 L756 174 L757 173 L759 173 L760 172 L761 172 L762 171 L764 171 L765 170 L768 170 L769 169 L771 169 L772 168 L776 168 L777 167 L783 167 L784 166 L808 166 L809 167 L817 167 L818 168 L823 168 L824 169 L828 169 L829 170 L832 170 L833 171 L837 171 L838 172 L842 172 L843 173 L847 173 L848 174 L851 174 L852 175 L854 175 L855 176 L857 176 L858 177 L861 177 L862 178 L864 178 L865 179 L867 179 L868 180 L870 180 L871 181 L874 181 L875 182 L876 182 L877 183 L880 183 L881 184 L883 184 L884 185 L886 185 L887 186 L890 186 L891 187 L893 187 L894 188 L896 188 L897 189 L898 189 L899 190 L901 190 L902 191 L903 191 L904 192 L905 192 L906 193 L908 193 L909 194 L910 194 L911 195 L913 195 L914 196 L915 196 L916 197 L918 197 L919 198 L920 198 L921 199 L923 199 L924 200 L926 200 L927 201 L933 201 L934 200 L934 198 L933 197 L933 196 L929 192 L929 191 L926 188 L926 187 L925 186 L925 185 L923 183 L923 182 L922 181 L922 180 L921 179 L921 178 L920 177 L920 176 L919 175 L919 174 L918 173 L918 172 L917 171 L917 169 L916 168 L916 167 L915 166 L915 164 L914 163 L914 162 L913 161 L913 159 L912 158 L912 157 L911 156 L911 155 L910 154 L910 153 L909 152 L909 151 L907 149 L907 148 L906 147 L906 146 L904 144 L904 143 L902 141 L902 140 L901 139 L901 138 L898 135 L898 134 L894 130 L894 129 L891 126 L891 125 L888 122 L888 121 L880 113 L879 113 L877 111 L876 111 L874 109 L873 109 L872 108 L871 108 L870 107 L869 107 L868 106 L867 106 L866 105 L865 105 L864 104 L862 104 L861 103 L858 103 L857 102 L853 102 L852 101 L832 101 L831 102 L825 102 L824 103 L819 103 L818 104 L812 104 L811 105 L806 105 L805 106 L801 106 L800 107 L796 107 L795 108 L791 108 L790 109 L788 109 L787 110 L784 110 L783 111 L780 111 L779 112 L777 112 L776 113 L773 113 L772 114 L769 114 L768 115 L766 115 L765 116 L762 116 L761 117 L758 117 L757 118 L755 118 L754 119 L751 119 L750 120 L748 120 L747 121 L745 121 L744 122 L742 122 L741 123 L738 123 L737 124 L734 124 L733 125 L731 125 L730 126 L728 126 L727 127 L724 127 L723 128 L720 128 L719 129 L716 129 L715 130 L709 130 L708 131 L705 131 L704 130 L703 130 L701 128 L701 123 L702 122 L702 121 L703 120 L703 119 L707 115 L707 114 L708 113 L709 113 L713 109 L714 109 L716 107 L717 107 L719 105 L720 105 L722 103 L723 103 L724 102 L725 102 L726 101 L727 101 L729 99 L731 99 L732 98 L733 98 L734 97 L735 97 L736 96 L737 96 L738 95 L739 95 L740 94 L741 94 L742 93 L743 93 L744 92 L746 92 L747 91 L748 91 L749 90 L752 90 L753 89 L756 89 L757 88 L761 88 L762 87 L766 87 L767 86 L771 86 L772 85 L777 85 L778 84 L811 84 L812 85 L821 85 L822 86 L827 86 L828 87 L839 87 L841 85 L841 83 L840 82 L840 81 L839 80 L839 79 L821 61 L820 61 L817 58 L816 58 L813 55 L812 55 L808 51 L807 51 L805 49 L804 49 L802 47 L801 47 L799 45 L798 45 L797 44 L796 44 L794 42 L793 42 L791 40 L790 40 L787 37 L786 37 L785 36 L784 36 L783 35 L782 35 L781 34 L780 34 L779 33 L778 33 L777 32 L775 32 L774 31 L772 31 L771 30 L769 30 L768 29 L766 29 L765 28 L763 28 L762 27 L760 27 L759 26 L757 26 L756 25 L753 25 L752 24 L749 24 L748 23 L734 23 L733 24 L730 24 L729 25 L727 25 L726 26 L725 26 L724 27 L723 27 L722 28 L721 28 L720 29 L719 29 L718 30 L717 30 L714 33 L713 33 L710 36 L709 36 L703 42 L702 42 L692 52 L691 52 L686 57 L685 57 L664 78 L663 78 L662 79 L661 79 L660 80 L659 80 L658 81 L656 81 L655 82 L653 82 L652 83 L651 83 L650 84 L648 84 L647 85 L644 85 L643 84 L643 82 L642 81 L642 77 L643 76 L643 69 L644 68 L644 67 L645 66 L645 65 L649 61 L649 60 L653 56 L653 55 L656 52 L656 51 L661 46 L661 45 L662 44 L663 44 L667 40 L668 40 L669 39 L670 39 L671 38 L672 38 L673 37 L674 37 L675 36 L676 36 L677 35 L678 35 L679 34 L680 34 L681 33 L683 33 L684 32 L685 32 L686 31 L688 31 L689 30 L691 30 L692 29 L693 29 L694 28 L695 28 L696 27 L698 27 L699 26 L700 26 L701 25 L702 25 L703 24 L705 24 L706 23 L708 23 L708 22 L709 21 L709 20 L708 19 L706 19 L705 18 L703 18 L702 17 L700 17 L699 16 L695 16 L694 15 L691 15 L690 14 L686 14 L685 13 L681 13 L680 12 L672 12 L671 11 L660 11 L659 12 Z " fill="black"/></svg>