<svg width="719" height="1212" xmlns="http://www.w3.org/2000/svg"><path d="M386 1197 Z M442 1196 L443 1196 Z M334 11 L332 13 L332 14 L331 15 L331 17 L330 18 L330 20 L329 21 L329 22 L328 23 L328 24 L326 26 L326 27 L323 30 L323 31 L313 41 L312 41 L309 44 L308 44 L305 47 L304 47 L302 49 L301 49 L299 51 L298 51 L296 53 L295 53 L293 55 L292 55 L289 58 L288 58 L286 60 L285 60 L284 61 L283 61 L281 63 L280 63 L279 64 L278 64 L275 67 L274 67 L270 71 L269 71 L263 77 L262 77 L259 80 L259 81 L258 82 L257 82 L255 84 L255 85 L251 89 L251 90 L250 91 L250 92 L249 93 L249 94 L248 95 L248 96 L247 97 L247 98 L246 99 L246 100 L245 101 L245 103 L244 104 L244 105 L243 106 L243 107 L242 108 L242 109 L241 110 L241 112 L240 113 L240 116 L239 117 L239 121 L238 122 L238 140 L239 141 L239 143 L240 144 L240 147 L241 148 L241 149 L242 150 L242 151 L243 152 L243 153 L244 154 L244 155 L246 157 L246 158 L248 160 L248 161 L258 171 L259 171 L261 173 L262 173 L263 174 L264 174 L265 175 L266 175 L267 176 L268 176 L270 178 L272 178 L273 179 L274 179 L275 180 L276 180 L277 181 L278 181 L279 182 L281 182 L282 183 L283 183 L284 184 L285 184 L286 185 L286 186 L285 187 L284 187 L283 188 L282 188 L279 191 L276 191 L275 192 L272 192 L271 193 L269 193 L268 194 L267 194 L266 195 L262 195 L261 196 L260 196 L259 197 L258 197 L257 198 L255 198 L254 199 L253 199 L252 200 L250 200 L249 201 L248 201 L247 202 L244 202 L243 203 L241 203 L240 204 L239 204 L238 205 L237 205 L235 207 L234 207 L232 209 L231 209 L228 212 L227 212 L226 213 L225 213 L222 216 L221 216 L208 229 L207 229 L203 233 L202 233 L201 234 L200 234 L199 235 L196 235 L195 236 L191 236 L190 237 L189 237 L188 238 L185 238 L184 239 L181 239 L180 240 L178 240 L176 242 L175 242 L174 243 L173 243 L171 245 L170 245 L169 246 L168 246 L165 249 L165 250 L161 254 L161 255 L159 257 L159 258 L158 259 L158 260 L157 261 L157 262 L156 263 L156 264 L155 265 L155 266 L154 267 L154 268 L153 269 L153 270 L152 271 L152 272 L151 273 L151 274 L149 276 L149 277 L148 278 L145 278 L144 277 L142 277 L141 276 L140 276 L138 274 L137 274 L136 273 L135 273 L131 269 L130 269 L128 267 L127 267 L126 266 L125 266 L123 264 L122 264 L121 263 L120 263 L119 262 L118 262 L117 261 L115 261 L114 260 L109 260 L106 263 L106 265 L107 266 L107 268 L108 269 L108 272 L109 273 L109 276 L110 277 L110 281 L111 282 L111 292 L110 293 L110 310 L109 311 L109 338 L110 339 L110 341 L111 342 L111 344 L112 345 L112 348 L113 349 L113 350 L114 351 L114 352 L116 354 L116 355 L117 356 L117 357 L119 359 L119 360 L123 364 L123 365 L127 369 L128 369 L132 373 L133 373 L137 377 L138 377 L141 380 L142 380 L144 382 L145 382 L146 383 L147 383 L149 385 L150 385 L152 387 L150 389 L149 388 L147 388 L146 387 L142 387 L141 386 L140 387 L137 387 L136 388 L132 388 L130 390 L130 391 L129 392 L128 392 L126 394 L125 394 L124 395 L123 395 L122 396 L116 396 L115 397 L112 394 L111 394 L111 398 L110 399 L109 399 L108 400 L106 400 L105 401 L103 401 L101 403 L99 403 L98 402 L97 402 L96 401 L95 402 L94 402 L94 407 L91 410 L90 410 L89 411 L88 411 L86 413 L85 413 L83 415 L82 415 L79 418 L78 418 L72 424 L71 424 L69 426 L68 426 L67 427 L66 427 L65 428 L64 428 L63 429 L62 429 L61 430 L57 430 L56 431 L55 431 L46 440 L46 441 L44 443 L44 444 L43 445 L43 446 L42 447 L42 448 L41 449 L41 450 L40 451 L40 453 L39 454 L39 455 L38 456 L38 457 L36 459 L36 461 L34 463 L34 464 L33 465 L33 467 L32 468 L32 470 L31 471 L31 474 L30 475 L30 478 L29 479 L29 488 L31 490 L31 491 L45 491 L46 490 L53 490 L54 489 L59 489 L60 488 L63 488 L64 487 L66 487 L67 486 L68 486 L69 485 L71 485 L72 484 L73 484 L74 483 L75 483 L77 481 L78 481 L79 480 L80 480 L82 478 L83 478 L84 477 L85 477 L87 475 L88 475 L94 469 L95 469 L109 455 L110 456 L110 457 L111 458 L111 459 L112 460 L112 461 L113 462 L113 464 L114 465 L114 466 L115 467 L115 477 L114 478 L114 482 L113 483 L113 486 L112 487 L112 491 L111 492 L111 496 L110 497 L110 500 L109 501 L109 510 L108 511 L108 518 L109 519 L109 527 L110 528 L110 533 L111 534 L111 536 L112 537 L112 539 L113 540 L113 541 L114 542 L114 543 L117 546 L117 547 L125 555 L126 555 L127 556 L128 556 L129 557 L130 557 L131 558 L142 558 L143 557 L147 557 L148 556 L150 556 L151 555 L152 555 L153 554 L155 554 L156 553 L157 553 L158 552 L159 552 L161 550 L162 550 L170 542 L172 542 L173 541 L174 541 L176 539 L176 538 L178 536 L178 535 L179 534 L179 533 L181 531 L181 530 L182 529 L182 528 L183 527 L183 526 L184 525 L184 524 L185 523 L185 521 L186 520 L186 519 L187 518 L187 517 L188 516 L188 514 L189 513 L189 511 L190 510 L190 509 L191 508 L191 505 L192 504 L192 503 L194 501 L196 503 L197 503 L199 505 L200 505 L207 512 L207 515 L209 517 L211 517 L212 516 L212 513 L213 512 L213 510 L214 509 L214 507 L215 506 L215 505 L216 504 L216 503 L218 501 L218 500 L220 498 L220 497 L222 495 L222 494 L223 493 L223 492 L225 490 L225 489 L226 488 L226 487 L227 486 L227 485 L228 484 L228 482 L229 481 L229 479 L230 478 L230 475 L231 474 L231 468 L232 467 L232 465 L233 464 L234 465 L234 466 L235 467 L235 468 L236 469 L236 470 L237 471 L237 472 L238 473 L238 475 L239 476 L239 478 L240 479 L240 482 L241 483 L241 486 L242 487 L242 489 L243 490 L243 493 L244 494 L244 496 L245 497 L245 499 L246 500 L246 502 L247 503 L247 505 L248 506 L248 508 L249 509 L249 511 L250 512 L250 515 L251 516 L251 518 L252 519 L252 521 L253 522 L253 525 L254 526 L254 527 L255 528 L255 531 L256 532 L256 535 L257 536 L257 538 L258 539 L258 542 L259 543 L259 546 L260 547 L260 549 L261 550 L261 553 L262 554 L262 556 L263 557 L263 560 L264 561 L264 563 L265 564 L265 566 L266 567 L266 572 L267 573 L267 578 L268 579 L268 582 L269 583 L269 588 L270 589 L270 595 L271 596 L271 605 L272 606 L272 612 L273 613 L273 621 L274 622 L274 629 L275 630 L275 636 L276 637 L276 642 L277 643 L277 649 L278 650 L278 659 L279 660 L279 669 L280 670 L280 687 L281 688 L280 689 L279 689 L269 679 L268 679 L262 673 L261 673 L258 670 L257 670 L254 667 L253 667 L251 665 L250 665 L248 663 L247 663 L245 661 L244 661 L242 659 L241 659 L239 657 L238 657 L237 656 L236 656 L234 654 L233 654 L231 652 L230 652 L229 651 L228 651 L227 650 L226 650 L224 648 L223 648 L222 647 L221 647 L220 646 L219 646 L218 645 L217 645 L216 644 L215 644 L213 642 L212 642 L210 640 L209 640 L208 639 L207 639 L206 638 L204 638 L203 637 L202 637 L201 636 L200 636 L199 635 L197 635 L196 634 L194 634 L193 633 L191 633 L190 632 L188 632 L187 631 L185 631 L184 630 L181 630 L180 629 L178 629 L177 628 L174 628 L173 627 L171 627 L170 626 L168 626 L167 625 L162 625 L161 624 L155 624 L154 623 L129 623 L128 624 L123 624 L122 625 L119 625 L118 626 L116 626 L112 630 L112 635 L113 636 L113 638 L114 639 L114 641 L115 642 L115 644 L116 645 L116 646 L117 647 L117 648 L118 649 L118 651 L120 653 L120 654 L121 655 L121 656 L123 658 L123 659 L124 660 L124 661 L127 664 L127 665 L130 668 L130 669 L132 671 L132 672 L135 675 L135 676 L140 681 L140 682 L153 695 L153 696 L161 704 L162 704 L171 713 L172 713 L179 720 L180 720 L185 725 L186 725 L188 727 L189 727 L191 729 L192 729 L193 730 L194 730 L196 732 L197 732 L198 733 L199 733 L201 735 L202 735 L204 737 L205 737 L206 738 L207 738 L209 740 L210 740 L211 741 L212 741 L214 743 L215 743 L217 745 L216 746 L215 746 L214 745 L209 745 L208 744 L194 744 L193 743 L186 743 L185 742 L181 742 L180 741 L177 741 L176 740 L172 740 L171 739 L165 739 L164 738 L159 738 L158 737 L155 737 L154 736 L151 736 L150 735 L145 735 L144 734 L141 734 L140 733 L139 733 L138 732 L137 732 L136 731 L135 731 L134 730 L132 730 L131 729 L130 729 L129 728 L126 728 L125 727 L123 727 L122 726 L119 726 L118 725 L114 725 L113 724 L108 724 L107 723 L102 723 L101 722 L100 722 L99 721 L71 721 L70 722 L64 722 L63 723 L57 723 L56 724 L53 724 L52 725 L50 725 L49 726 L48 726 L47 727 L45 727 L44 728 L43 728 L42 729 L41 729 L40 730 L39 730 L37 732 L36 732 L35 733 L34 733 L33 734 L32 734 L30 736 L29 736 L28 737 L27 737 L25 739 L24 739 L23 740 L22 740 L19 743 L18 743 L18 744 L13 749 L13 750 L12 751 L12 752 L11 753 L11 755 L10 756 L10 760 L11 761 L11 762 L13 764 L13 765 L14 766 L22 766 L23 767 L27 767 L28 768 L30 768 L31 769 L33 769 L34 770 L38 770 L39 771 L43 771 L44 772 L46 772 L47 773 L51 773 L52 774 L56 774 L57 775 L62 775 L63 776 L71 776 L72 777 L89 777 L90 776 L96 776 L97 775 L101 775 L102 774 L106 774 L107 773 L111 773 L112 772 L114 772 L115 771 L117 771 L118 770 L121 770 L122 769 L123 769 L124 768 L126 768 L127 767 L130 767 L131 766 L133 766 L134 765 L136 765 L137 764 L140 764 L141 763 L147 763 L148 764 L150 764 L151 765 L153 765 L154 766 L157 766 L158 767 L160 767 L161 768 L162 768 L163 769 L164 769 L165 770 L166 770 L167 771 L168 771 L169 772 L169 776 L170 777 L170 779 L172 781 L172 782 L177 787 L177 788 L187 798 L188 798 L190 800 L191 800 L193 802 L194 802 L195 803 L196 803 L198 805 L199 805 L200 806 L201 806 L202 807 L203 807 L204 808 L205 808 L206 809 L207 809 L208 810 L210 810 L211 811 L213 811 L214 812 L217 812 L218 813 L222 813 L223 814 L226 814 L227 815 L230 815 L231 816 L235 816 L236 817 L241 817 L242 818 L246 818 L247 819 L250 819 L251 820 L253 820 L254 821 L256 821 L257 822 L256 823 L249 823 L248 822 L243 822 L242 821 L224 821 L223 822 L217 822 L216 823 L211 823 L210 824 L206 824 L205 825 L201 825 L200 826 L198 826 L197 827 L195 827 L194 828 L191 828 L190 829 L188 829 L187 830 L185 830 L184 831 L182 831 L181 832 L179 832 L178 833 L176 833 L175 834 L174 834 L173 835 L171 835 L170 836 L168 836 L167 837 L166 837 L165 838 L163 838 L162 839 L161 839 L160 840 L158 840 L157 841 L156 841 L155 842 L153 842 L152 843 L151 843 L149 845 L148 845 L147 846 L146 846 L144 848 L143 848 L142 849 L141 849 L139 851 L138 851 L136 853 L135 853 L133 855 L132 855 L130 857 L129 857 L128 858 L127 858 L125 860 L124 860 L123 861 L122 861 L120 863 L119 863 L116 866 L115 866 L106 875 L106 876 L98 884 L98 885 L94 889 L94 890 L91 893 L91 894 L89 896 L89 897 L87 899 L87 900 L85 902 L85 903 L84 904 L84 905 L83 906 L83 907 L82 908 L82 909 L80 911 L80 912 L79 913 L79 916 L78 917 L78 920 L77 921 L77 923 L76 924 L76 927 L75 928 L75 931 L74 932 L74 935 L73 936 L73 940 L72 941 L72 944 L73 945 L73 948 L74 949 L74 950 L76 952 L77 952 L79 954 L84 954 L85 953 L91 953 L92 952 L95 952 L96 951 L99 951 L100 950 L103 950 L104 949 L105 949 L106 948 L110 948 L111 947 L116 947 L117 946 L120 946 L121 945 L125 945 L126 946 L125 947 L125 953 L124 954 L124 957 L123 958 L123 962 L122 963 L122 964 L121 965 L121 966 L120 967 L120 970 L119 971 L119 982 L118 983 L118 987 L117 988 L117 994 L116 995 L116 1001 L117 1002 L117 1006 L118 1007 L118 1020 L119 1021 L119 1027 L120 1028 L120 1029 L121 1030 L121 1033 L122 1034 L122 1036 L123 1037 L123 1039 L124 1040 L124 1042 L125 1043 L125 1045 L126 1046 L126 1047 L127 1048 L127 1049 L128 1050 L128 1051 L129 1052 L129 1053 L130 1054 L130 1055 L131 1056 L131 1057 L133 1059 L133 1060 L134 1061 L134 1062 L135 1063 L135 1064 L136 1065 L136 1066 L137 1067 L137 1068 L138 1069 L138 1070 L139 1071 L139 1072 L141 1074 L141 1075 L142 1076 L142 1077 L145 1080 L145 1081 L148 1084 L148 1085 L152 1089 L152 1090 L155 1093 L155 1094 L158 1097 L158 1098 L159 1099 L159 1100 L161 1102 L161 1103 L163 1105 L163 1106 L164 1107 L164 1108 L165 1109 L165 1110 L167 1112 L167 1113 L170 1116 L170 1117 L173 1120 L173 1121 L176 1124 L176 1125 L178 1127 L178 1128 L180 1130 L180 1131 L184 1135 L184 1136 L189 1141 L190 1141 L194 1145 L195 1145 L201 1151 L202 1151 L204 1153 L205 1153 L207 1155 L208 1155 L210 1157 L211 1157 L212 1158 L213 1158 L215 1160 L216 1160 L217 1161 L218 1161 L219 1162 L220 1162 L221 1163 L222 1163 L224 1165 L225 1165 L227 1167 L228 1167 L232 1171 L233 1171 L236 1174 L237 1174 L239 1176 L240 1176 L241 1177 L242 1177 L243 1178 L244 1178 L245 1179 L246 1179 L247 1180 L250 1180 L251 1181 L252 1181 L253 1182 L254 1182 L255 1183 L258 1183 L259 1184 L262 1184 L263 1185 L265 1185 L266 1186 L268 1186 L269 1187 L273 1187 L274 1188 L277 1188 L278 1189 L282 1189 L283 1190 L290 1190 L291 1191 L294 1191 L295 1192 L303 1192 L304 1193 L306 1193 L307 1194 L310 1194 L311 1193 L312 1194 L321 1194 L322 1195 L325 1195 L326 1194 L328 1194 L329 1193 L331 1193 L332 1194 L335 1194 L336 1195 L340 1195 L341 1196 L344 1196 L346 1198 L348 1198 L349 1197 L351 1199 L353 1199 L354 1200 L356 1200 L357 1199 L362 1199 L363 1198 L365 1198 L366 1199 L367 1198 L374 1198 L375 1197 L380 1197 L380 1196 L381 1195 L392 1195 L393 1196 L399 1196 L400 1195 L402 1197 L402 1198 L403 1198 L404 1197 L406 1197 L407 1196 L409 1196 L410 1197 L410 1198 L415 1198 L416 1197 L417 1197 L418 1198 L419 1198 L420 1197 L421 1197 L422 1198 L424 1198 L425 1197 L434 1197 L435 1196 L438 1196 L437 1195 L439 1193 L442 1193 L443 1192 L446 1192 L447 1193 L446 1194 L445 1194 L445 1195 L447 1195 L447 1193 L448 1192 L453 1192 L454 1191 L460 1191 L461 1190 L463 1190 L464 1191 L463 1192 L463 1193 L466 1190 L467 1190 L469 1192 L470 1191 L473 1191 L474 1192 L475 1192 L476 1191 L478 1191 L479 1190 L482 1190 L483 1189 L484 1189 L485 1188 L487 1188 L487 1187 L489 1185 L490 1185 L491 1184 L492 1184 L493 1183 L495 1183 L496 1182 L497 1182 L498 1181 L499 1181 L500 1180 L502 1180 L503 1179 L504 1179 L505 1178 L506 1178 L507 1177 L510 1177 L512 1175 L516 1175 L517 1174 L518 1174 L519 1173 L520 1173 L522 1171 L523 1171 L525 1169 L526 1169 L529 1166 L530 1166 L533 1163 L534 1163 L543 1154 L544 1154 L553 1145 L554 1145 L560 1139 L561 1139 L566 1134 L567 1134 L571 1130 L572 1130 L584 1118 L584 1117 L586 1115 L586 1114 L589 1111 L589 1110 L590 1109 L590 1108 L592 1106 L592 1105 L594 1103 L594 1102 L596 1100 L596 1099 L598 1097 L598 1096 L600 1094 L600 1093 L602 1091 L602 1090 L604 1088 L604 1087 L605 1086 L605 1083 L606 1082 L606 1080 L607 1079 L607 1077 L608 1076 L608 1075 L609 1074 L609 1073 L610 1072 L610 1070 L611 1069 L611 1068 L612 1067 L612 1065 L613 1064 L613 1062 L614 1061 L614 1060 L615 1059 L615 1058 L616 1057 L616 1056 L617 1055 L617 1054 L618 1053 L618 1050 L619 1049 L619 1045 L620 1044 L620 1041 L621 1040 L621 1037 L622 1036 L622 1031 L623 1030 L623 1026 L624 1025 L624 1019 L625 1018 L625 1009 L626 1008 L626 1000 L627 999 L627 987 L626 986 L626 983 L625 982 L625 979 L624 978 L624 974 L623 973 L623 964 L622 963 L622 961 L621 960 L621 958 L620 957 L620 955 L619 954 L619 953 L618 952 L618 951 L617 950 L617 949 L616 948 L616 946 L615 945 L615 943 L614 942 L614 939 L613 938 L613 933 L612 932 L612 929 L611 928 L611 926 L610 925 L610 923 L609 922 L609 919 L608 918 L608 917 L607 916 L607 915 L606 914 L606 913 L605 912 L605 911 L604 910 L604 909 L602 907 L602 906 L601 905 L601 904 L600 903 L600 902 L599 901 L599 899 L598 898 L598 897 L597 896 L597 894 L596 893 L596 892 L595 891 L595 889 L594 888 L594 887 L592 885 L592 884 L591 883 L591 882 L590 881 L590 880 L589 879 L589 877 L588 876 L588 875 L587 874 L587 873 L586 872 L586 871 L582 867 L582 866 L578 862 L579 861 L580 861 L581 862 L582 862 L583 863 L584 863 L585 864 L586 864 L587 865 L589 865 L590 866 L591 866 L592 867 L593 867 L594 868 L595 868 L596 869 L598 869 L599 870 L600 870 L601 871 L602 871 L603 872 L605 872 L606 873 L607 873 L608 874 L610 874 L611 875 L613 875 L614 876 L617 876 L618 877 L620 877 L621 878 L624 878 L625 879 L627 879 L628 880 L630 880 L631 881 L634 881 L635 882 L637 882 L638 883 L641 883 L642 884 L643 884 L644 885 L648 885 L649 886 L657 886 L658 887 L674 887 L675 886 L678 886 L679 887 L681 887 L682 886 L695 886 L696 885 L698 885 L699 884 L700 884 L701 883 L702 883 L705 880 L705 879 L706 878 L706 870 L705 869 L705 867 L704 866 L704 864 L703 863 L703 862 L701 860 L701 859 L697 855 L697 854 L696 853 L695 853 L693 851 L693 850 L691 848 L690 848 L689 847 L689 846 L688 845 L687 845 L681 839 L680 839 L676 835 L675 835 L673 833 L672 833 L670 831 L669 831 L667 829 L666 829 L664 827 L663 827 L662 826 L661 826 L660 825 L659 825 L657 823 L656 823 L655 822 L654 822 L653 821 L652 821 L651 820 L650 820 L648 818 L646 818 L644 816 L643 816 L642 815 L641 815 L640 814 L639 814 L638 813 L636 813 L635 812 L634 812 L633 811 L632 811 L631 810 L630 810 L629 809 L627 809 L626 808 L625 808 L624 807 L622 807 L621 806 L619 806 L618 805 L616 805 L615 804 L614 804 L613 803 L611 803 L610 802 L608 802 L607 801 L604 801 L603 800 L600 800 L599 799 L596 799 L595 798 L591 798 L590 797 L584 797 L583 796 L579 796 L578 795 L571 795 L570 794 L566 794 L565 793 L558 793 L557 792 L541 792 L540 793 L534 793 L533 794 L529 794 L528 795 L522 795 L521 796 L517 796 L516 797 L512 797 L511 798 L509 798 L508 799 L506 799 L505 800 L503 800 L502 801 L500 801 L499 802 L497 802 L496 803 L495 803 L494 802 L499 797 L500 797 L501 796 L502 796 L503 795 L504 795 L506 793 L507 793 L510 790 L511 790 L514 787 L515 787 L518 784 L519 784 L520 783 L523 783 L524 782 L528 782 L529 783 L534 783 L535 782 L536 782 L539 779 L540 779 L541 778 L543 778 L544 777 L548 777 L549 776 L552 776 L553 775 L556 775 L557 774 L560 774 L561 773 L563 773 L564 772 L565 772 L566 771 L568 771 L569 770 L571 770 L572 769 L573 769 L574 768 L576 768 L577 767 L579 767 L580 766 L583 766 L584 765 L587 765 L588 764 L591 764 L592 763 L593 763 L594 762 L595 762 L598 759 L599 759 L601 757 L603 757 L605 755 L607 755 L608 754 L610 754 L611 753 L612 753 L614 751 L616 751 L617 750 L618 750 L619 749 L620 749 L621 748 L622 748 L623 747 L624 747 L626 745 L627 745 L628 744 L629 744 L630 743 L631 743 L633 741 L634 741 L636 739 L637 739 L638 738 L639 738 L641 736 L642 736 L644 734 L645 734 L648 731 L649 731 L651 729 L652 729 L654 727 L655 727 L658 724 L659 724 L660 723 L661 723 L664 720 L665 720 L667 718 L668 718 L677 709 L678 709 L681 706 L682 706 L684 704 L685 704 L686 703 L687 703 L689 701 L690 701 L694 697 L695 697 L702 690 L702 689 L705 686 L705 685 L706 684 L706 683 L707 682 L707 676 L705 674 L705 673 L701 669 L700 669 L699 668 L698 668 L697 667 L695 667 L694 666 L693 666 L692 665 L689 665 L688 664 L685 664 L684 663 L681 663 L680 662 L677 662 L676 661 L674 661 L673 660 L670 660 L669 659 L668 660 L658 660 L657 659 L643 659 L642 658 L636 658 L635 659 L628 659 L627 660 L621 660 L620 661 L614 661 L613 662 L610 662 L609 663 L606 663 L605 664 L602 664 L601 665 L598 665 L597 666 L595 666 L594 667 L591 667 L590 668 L587 668 L586 669 L585 669 L584 670 L581 670 L580 671 L579 671 L578 672 L576 672 L575 673 L574 673 L573 674 L570 674 L569 675 L566 675 L565 676 L562 676 L561 677 L559 677 L558 678 L556 678 L555 679 L554 679 L553 680 L552 680 L551 681 L550 681 L548 683 L547 683 L546 684 L545 684 L544 685 L543 685 L542 686 L541 686 L540 687 L539 687 L538 688 L537 688 L536 689 L535 689 L533 691 L532 691 L531 692 L530 692 L528 694 L527 694 L525 696 L524 696 L523 697 L522 697 L519 700 L518 700 L514 704 L513 704 L511 706 L510 706 L508 708 L507 708 L505 710 L504 710 L503 711 L502 711 L499 714 L498 714 L497 715 L496 715 L494 717 L493 717 L491 719 L490 719 L486 723 L485 723 L481 727 L480 727 L478 729 L477 729 L455 751 L454 751 L446 759 L446 760 L442 764 L442 765 L437 770 L437 771 L434 774 L434 775 L433 776 L433 777 L431 779 L431 780 L430 781 L429 780 L429 776 L430 775 L430 772 L431 771 L431 770 L434 767 L434 766 L436 764 L436 763 L440 759 L441 759 L444 756 L445 756 L451 750 L451 749 L454 746 L454 745 L457 742 L457 741 L473 725 L473 724 L480 717 L480 716 L488 708 L488 707 L491 704 L491 703 L493 701 L493 700 L496 697 L496 696 L499 693 L499 692 L502 689 L502 688 L505 685 L505 684 L506 683 L506 682 L508 680 L508 679 L510 677 L510 676 L512 674 L512 673 L513 672 L513 671 L514 670 L514 669 L516 667 L516 666 L517 665 L517 664 L518 663 L518 662 L519 661 L519 660 L520 659 L520 658 L521 657 L521 656 L522 655 L522 654 L523 653 L523 652 L524 651 L524 650 L525 649 L525 648 L526 647 L526 645 L527 644 L527 643 L528 642 L528 640 L529 639 L529 637 L530 636 L530 633 L531 632 L531 629 L532 628 L532 621 L533 620 L532 619 L532 617 L528 613 L527 613 L526 612 L524 612 L523 611 L507 611 L506 612 L502 612 L501 613 L499 613 L498 614 L496 614 L495 615 L494 615 L493 616 L491 616 L490 617 L488 617 L487 618 L486 618 L485 619 L483 619 L481 621 L480 621 L479 622 L478 622 L477 623 L476 623 L475 624 L474 624 L473 625 L471 625 L470 626 L469 626 L468 627 L467 627 L466 628 L464 628 L463 629 L462 629 L461 630 L460 630 L456 634 L455 634 L452 637 L451 637 L449 639 L447 639 L446 638 L447 637 L447 630 L448 629 L448 622 L449 621 L449 609 L450 608 L450 606 L451 605 L451 602 L452 601 L452 595 L453 594 L453 590 L454 589 L454 584 L455 583 L455 579 L456 578 L456 575 L457 574 L457 570 L458 569 L458 565 L459 564 L459 561 L460 560 L460 555 L461 554 L461 552 L462 551 L462 549 L463 548 L463 544 L464 543 L464 540 L465 539 L465 537 L466 536 L466 534 L467 533 L467 530 L468 529 L468 527 L469 526 L469 524 L470 523 L470 521 L471 520 L471 517 L472 516 L472 514 L473 513 L473 511 L474 510 L474 508 L475 507 L475 505 L476 504 L476 503 L477 502 L477 500 L478 499 L479 499 L480 500 L480 504 L481 505 L481 508 L482 509 L482 512 L483 513 L483 515 L484 516 L484 517 L485 518 L485 519 L487 521 L487 522 L489 524 L489 525 L492 528 L492 529 L494 531 L494 532 L496 534 L496 536 L497 537 L497 539 L498 540 L498 542 L499 543 L499 546 L500 547 L500 548 L501 549 L502 549 L503 550 L504 549 L505 549 L505 548 L506 547 L506 546 L507 545 L507 544 L509 542 L509 541 L511 539 L511 538 L514 535 L515 536 L515 537 L516 538 L516 540 L517 541 L517 542 L518 543 L518 544 L519 545 L519 546 L520 547 L520 548 L521 549 L521 550 L522 551 L522 553 L523 554 L523 555 L524 556 L524 557 L526 559 L526 560 L531 565 L531 566 L532 567 L532 568 L537 573 L538 573 L544 579 L545 579 L548 582 L549 582 L550 583 L551 583 L552 584 L556 584 L557 585 L559 585 L560 586 L566 586 L567 587 L573 587 L574 586 L576 586 L578 584 L579 584 L587 576 L587 575 L590 572 L590 571 L592 569 L592 567 L593 566 L593 565 L594 564 L594 562 L595 561 L595 559 L596 558 L596 555 L597 554 L597 552 L598 551 L598 548 L599 547 L599 526 L598 525 L598 521 L597 520 L597 518 L596 517 L596 513 L595 512 L595 507 L594 506 L594 497 L595 496 L595 494 L596 493 L596 492 L597 491 L597 490 L600 487 L600 486 L601 485 L602 485 L605 488 L606 488 L613 495 L613 496 L615 498 L615 499 L619 503 L619 504 L623 508 L623 509 L625 511 L626 511 L629 514 L630 514 L632 516 L633 516 L634 517 L635 517 L636 518 L637 518 L639 520 L640 520 L641 521 L642 521 L644 523 L646 523 L647 524 L648 524 L649 525 L650 525 L651 526 L653 526 L654 527 L656 527 L657 528 L682 528 L683 527 L684 527 L686 525 L686 523 L687 522 L687 518 L686 517 L686 516 L685 515 L685 513 L684 512 L684 511 L682 509 L682 508 L681 507 L681 506 L680 505 L680 503 L679 502 L679 494 L678 493 L678 489 L677 488 L677 486 L676 485 L676 484 L671 479 L671 478 L667 474 L667 473 L665 471 L664 471 L662 469 L661 469 L660 468 L659 468 L657 466 L655 466 L650 461 L650 460 L649 459 L649 458 L648 457 L648 456 L647 455 L647 453 L646 452 L646 450 L641 450 L639 448 L638 448 L637 447 L637 446 L635 444 L635 443 L633 441 L633 440 L630 437 L629 437 L624 432 L623 432 L622 431 L616 431 L613 428 L613 425 L611 423 L609 423 L608 424 L607 424 L606 425 L604 425 L603 424 L600 424 L599 423 L598 423 L595 420 L595 418 L592 418 L591 417 L580 417 L579 416 L578 416 L577 415 L576 416 L575 416 L574 415 L567 415 L566 414 L566 413 L567 412 L568 412 L569 411 L571 411 L572 410 L573 410 L574 409 L576 409 L578 407 L579 407 L581 405 L582 405 L594 393 L594 392 L596 390 L596 389 L598 387 L598 386 L599 385 L599 384 L600 383 L600 382 L601 381 L601 380 L602 379 L602 377 L603 376 L603 375 L604 374 L604 372 L605 371 L605 365 L606 364 L606 356 L605 355 L605 347 L604 346 L604 342 L603 341 L603 337 L602 336 L602 335 L601 334 L601 331 L599 329 L599 327 L598 326 L598 325 L597 324 L597 308 L598 307 L598 304 L599 303 L599 298 L600 297 L600 289 L599 288 L599 287 L598 286 L594 286 L593 287 L590 287 L589 288 L587 288 L586 289 L585 289 L583 291 L582 291 L580 293 L579 293 L577 295 L576 295 L571 300 L570 300 L558 312 L557 312 L554 315 L553 315 L552 316 L551 316 L550 317 L549 317 L548 318 L547 318 L546 319 L545 319 L544 320 L542 320 L541 321 L540 321 L539 322 L538 322 L537 323 L536 323 L535 324 L534 324 L533 325 L532 325 L531 326 L530 326 L529 327 L528 327 L527 328 L526 328 L525 329 L524 329 L523 330 L522 330 L521 331 L520 331 L519 332 L518 332 L517 333 L516 333 L514 335 L513 335 L512 336 L511 336 L510 337 L509 337 L506 340 L505 340 L489 356 L489 357 L486 360 L486 361 L483 364 L483 365 L482 366 L482 368 L481 369 L481 370 L480 371 L480 373 L479 374 L479 378 L478 379 L478 381 L479 382 L478 383 L478 386 L479 387 L479 390 L480 391 L480 394 L481 395 L481 397 L482 398 L482 399 L483 400 L483 401 L484 402 L484 403 L486 405 L486 406 L496 416 L494 418 L492 418 L491 419 L488 419 L487 420 L483 420 L482 421 L479 421 L478 422 L476 422 L475 421 L474 422 L473 422 L472 423 L472 424 L471 425 L471 426 L468 429 L462 429 L461 430 L460 430 L460 431 L459 432 L459 434 L456 437 L455 437 L453 439 L449 439 L448 440 L447 440 L443 444 L440 444 L439 445 L438 445 L436 447 L436 448 L430 454 L429 454 L429 455 L427 457 L426 457 L425 458 L424 458 L421 461 L421 462 L420 463 L419 463 L415 467 L415 468 L410 473 L410 474 L408 476 L408 477 L407 478 L407 479 L405 481 L405 482 L404 483 L404 484 L403 485 L403 486 L402 487 L402 488 L401 489 L401 491 L400 492 L400 493 L399 494 L399 496 L398 497 L398 498 L397 499 L397 501 L396 502 L396 503 L395 504 L395 506 L394 507 L394 509 L393 510 L393 511 L392 512 L392 513 L391 514 L391 516 L390 517 L390 518 L389 519 L389 520 L388 521 L388 522 L387 523 L387 524 L385 526 L385 527 L382 530 L382 531 L381 532 L381 536 L382 537 L382 538 L384 540 L390 540 L391 541 L392 541 L393 540 L405 540 L406 539 L408 539 L409 538 L411 538 L412 537 L414 537 L415 536 L418 536 L419 535 L420 535 L421 534 L422 534 L423 533 L424 533 L425 532 L427 532 L428 531 L430 531 L431 530 L433 530 L434 529 L435 529 L436 528 L437 528 L438 527 L439 527 L440 526 L441 526 L442 525 L443 525 L450 518 L450 517 L452 515 L452 514 L453 513 L454 514 L454 517 L453 518 L453 520 L452 521 L452 524 L451 525 L451 527 L450 528 L450 531 L449 532 L449 534 L448 535 L448 538 L447 539 L447 541 L446 542 L446 544 L445 545 L445 549 L444 550 L444 553 L443 554 L443 558 L442 559 L442 563 L441 564 L441 568 L440 569 L440 572 L439 573 L439 577 L438 578 L438 583 L437 584 L437 590 L436 591 L436 597 L435 598 L435 602 L434 603 L434 609 L433 610 L433 613 L432 614 L432 624 L431 625 L431 636 L430 637 L430 646 L429 647 L429 653 L424 658 L424 659 L421 662 L421 663 L402 682 L402 683 L398 687 L398 688 L395 691 L395 692 L393 694 L393 695 L390 698 L390 699 L388 701 L388 702 L387 703 L387 704 L386 705 L386 706 L385 707 L384 707 L383 706 L383 704 L382 703 L382 701 L381 700 L381 697 L380 696 L380 694 L379 693 L379 692 L378 691 L378 689 L377 688 L377 687 L376 686 L376 685 L375 684 L375 683 L374 682 L374 680 L373 679 L373 678 L372 677 L372 676 L371 675 L371 674 L370 673 L370 672 L369 671 L369 670 L368 669 L368 668 L367 667 L367 666 L366 665 L366 663 L365 662 L365 661 L364 660 L364 658 L363 657 L363 655 L362 654 L362 653 L361 652 L361 651 L360 650 L360 649 L359 648 L359 647 L357 645 L357 644 L355 642 L355 616 L356 615 L356 612 L355 611 L355 608 L356 607 L356 599 L355 598 L355 597 L356 596 L356 589 L355 588 L355 587 L356 586 L356 562 L357 561 L357 550 L358 549 L358 539 L359 538 L359 524 L360 523 L360 500 L361 499 L361 497 L360 496 L360 492 L361 491 L361 461 L362 460 L362 420 L361 419 L361 415 L362 414 L362 413 L361 412 L361 411 L362 410 L362 408 L361 407 L361 396 L360 395 L360 394 L359 393 L360 392 L360 391 L359 390 L359 388 L360 387 L360 382 L363 379 L363 378 L365 376 L365 375 L368 372 L368 371 L371 368 L371 367 L372 366 L372 365 L375 362 L375 361 L376 360 L376 359 L377 358 L377 357 L378 356 L378 354 L379 353 L379 352 L380 351 L380 349 L381 348 L381 346 L382 345 L382 343 L383 342 L383 339 L384 338 L384 334 L385 333 L385 321 L386 320 L386 296 L387 295 L387 286 L388 285 L388 284 L389 283 L389 281 L390 280 L390 277 L391 276 L391 273 L392 272 L392 269 L393 268 L393 264 L394 263 L394 251 L393 250 L393 249 L390 246 L389 246 L388 245 L385 245 L384 244 L381 244 L380 243 L374 243 L373 242 L373 230 L372 229 L372 227 L371 226 L371 225 L369 223 L370 222 L371 222 L373 224 L374 224 L377 227 L378 227 L391 240 L391 241 L397 247 L397 248 L402 253 L402 254 L404 256 L404 257 L407 260 L407 261 L411 265 L411 266 L417 272 L417 273 L419 275 L420 275 L421 276 L422 276 L424 278 L425 278 L428 281 L428 282 L430 284 L430 285 L438 293 L439 293 L444 298 L445 298 L448 301 L449 301 L451 303 L452 303 L454 305 L455 305 L457 307 L458 307 L459 308 L460 308 L461 309 L462 309 L463 310 L464 310 L465 311 L467 311 L468 312 L470 312 L471 313 L472 313 L473 314 L475 314 L476 315 L477 315 L478 316 L479 316 L480 317 L481 317 L482 318 L483 318 L484 319 L487 319 L488 320 L491 320 L492 321 L498 321 L499 322 L503 322 L504 321 L505 322 L508 322 L509 321 L511 321 L512 322 L516 322 L517 321 L526 321 L527 320 L531 320 L532 319 L533 319 L534 318 L536 318 L537 317 L538 317 L539 316 L540 316 L541 315 L543 315 L544 314 L545 314 L546 313 L547 313 L548 312 L548 309 L547 309 L546 308 L544 308 L543 307 L542 307 L536 301 L536 299 L535 298 L535 297 L534 296 L534 294 L533 293 L533 290 L532 289 L532 286 L531 285 L531 284 L530 283 L530 282 L529 281 L529 279 L528 278 L528 277 L527 276 L527 274 L525 272 L525 271 L524 270 L524 269 L523 268 L523 267 L521 265 L521 264 L520 263 L520 262 L519 261 L519 260 L512 253 L510 253 L509 252 L507 252 L506 251 L503 251 L502 250 L500 250 L499 249 L497 249 L496 248 L495 248 L494 247 L493 247 L492 246 L491 246 L490 245 L489 245 L486 242 L484 242 L483 241 L482 241 L480 239 L479 239 L474 234 L474 233 L468 227 L467 227 L463 223 L462 223 L458 219 L457 219 L455 217 L455 216 L446 207 L445 207 L444 206 L443 206 L442 205 L440 205 L439 204 L438 204 L437 203 L436 203 L435 202 L434 202 L433 201 L432 201 L430 199 L429 199 L428 198 L426 198 L425 197 L423 197 L422 196 L421 196 L418 193 L416 193 L415 194 L412 194 L411 195 L409 195 L408 194 L408 193 L409 192 L409 191 L406 188 L398 188 L395 185 L394 185 L393 184 L393 183 L394 182 L395 182 L396 181 L398 181 L399 180 L400 180 L401 179 L402 179 L403 178 L404 178 L405 177 L406 177 L407 176 L408 176 L409 175 L410 175 L412 173 L413 173 L417 169 L418 169 L424 163 L424 162 L426 160 L426 159 L428 157 L428 156 L429 155 L429 153 L430 152 L430 151 L431 150 L431 148 L432 147 L432 145 L433 144 L433 142 L434 141 L434 137 L435 136 L435 127 L434 126 L434 119 L433 118 L433 115 L432 114 L432 111 L431 110 L431 108 L430 107 L430 106 L429 105 L429 103 L428 102 L428 101 L427 100 L427 99 L426 98 L426 97 L425 96 L425 95 L424 94 L424 93 L423 92 L423 91 L420 88 L420 87 L419 87 L418 86 L418 85 L415 82 L415 81 L409 75 L409 74 L408 73 L407 73 L406 72 L406 71 L404 69 L403 69 L400 66 L399 66 L396 63 L395 63 L392 60 L391 60 L389 58 L388 58 L386 56 L385 56 L383 54 L382 54 L380 52 L379 52 L378 51 L377 51 L375 49 L373 49 L371 47 L370 47 L369 46 L368 46 L365 43 L364 43 L363 42 L362 42 L360 40 L359 40 L353 34 L353 33 L349 29 L349 28 L347 26 L347 25 L345 23 L345 21 L343 19 L343 18 L342 17 L342 16 L341 15 L341 14 L338 11 Z " fill="black"/></svg>