<svg width="911" height="1034" xmlns="http://www.w3.org/2000/svg"><path d="M661 709 L660 710 L660 712 L659 713 L659 714 L658 715 L658 717 L657 718 L657 726 L656 727 L656 730 L655 731 L655 733 L654 734 L654 738 L653 739 L653 743 L652 744 L652 747 L651 748 L651 752 L650 753 L650 756 L649 757 L649 762 L648 763 L648 766 L647 767 L647 769 L645 771 L645 773 L644 774 L644 778 L643 779 L643 781 L642 782 L642 784 L641 785 L641 786 L640 787 L640 788 L639 789 L639 790 L640 791 L641 791 L647 785 L647 784 L649 782 L649 781 L651 779 L651 778 L652 777 L652 776 L653 775 L653 774 L654 773 L654 772 L655 771 L655 770 L656 769 L656 768 L657 767 L657 766 L658 765 L658 764 L659 763 L659 762 L660 761 L660 759 L661 758 L661 757 L662 756 L662 754 L663 753 L663 752 L664 751 L664 748 L665 747 L665 743 L666 742 L666 729 L665 728 L665 726 L664 725 L664 719 L663 718 L663 715 L662 714 L662 710 Z M910 182 L910 183 L907 186 L907 187 L905 189 L905 190 L904 191 L904 194 L903 195 L903 207 L904 208 L904 210 L905 211 L905 212 L907 214 L910 214 Z M910 118 L908 120 L907 120 L904 123 L903 123 L894 132 L894 133 L893 134 L893 135 L892 136 L892 138 L891 139 L891 141 L890 142 L891 143 L891 144 L890 145 L890 148 L891 149 L891 151 L893 153 L893 154 L895 156 L895 157 L898 160 L903 160 L905 158 L906 158 L908 156 L909 156 L910 155 Z M907 64 Z M909 47 L907 49 L906 49 L902 53 L902 54 L896 60 L896 61 L894 63 L894 64 L893 65 L893 66 L892 67 L892 68 L891 69 L891 70 L890 71 L890 73 L889 74 L889 84 L891 86 L891 87 L893 89 L895 89 L896 90 L903 90 L904 89 L909 89 L910 90 L909 91 L909 92 L907 94 L907 95 L905 97 L905 98 L903 100 L903 107 L904 108 L904 109 L905 110 L906 110 L908 112 L909 112 L910 113 L910 66 L909 66 L909 68 L908 69 L908 70 L907 71 L904 71 L903 70 L903 68 L904 67 L903 66 L902 66 L901 65 L903 63 L904 63 L905 62 L904 61 L910 55 L910 47 Z M679 11 L678 12 L676 12 L674 14 L673 14 L672 15 L671 15 L669 17 L668 17 L666 19 L665 19 L664 20 L663 20 L662 21 L661 21 L658 24 L657 24 L655 26 L654 26 L653 27 L652 27 L650 29 L649 29 L641 37 L640 37 L639 38 L638 38 L635 41 L634 41 L631 44 L630 44 L616 58 L615 58 L599 74 L599 75 L597 77 L596 77 L596 78 L575 99 L575 100 L569 106 L569 107 L566 110 L566 111 L562 115 L562 116 L559 119 L559 120 L556 123 L556 124 L553 127 L553 128 L552 129 L552 130 L549 133 L549 134 L547 136 L547 137 L545 139 L545 140 L542 143 L542 144 L540 146 L540 147 L539 148 L539 149 L538 150 L538 151 L536 153 L536 154 L534 156 L534 157 L533 158 L533 159 L532 160 L532 161 L531 162 L531 163 L529 165 L529 166 L527 168 L527 169 L525 171 L525 172 L524 173 L524 174 L523 175 L523 176 L522 177 L522 178 L521 179 L521 180 L520 181 L520 183 L519 184 L519 185 L518 186 L518 188 L517 189 L517 190 L516 191 L516 192 L515 193 L515 194 L514 195 L514 196 L511 199 L511 200 L510 201 L510 202 L509 203 L509 204 L508 205 L508 206 L507 207 L507 209 L506 210 L506 211 L505 212 L505 214 L504 215 L504 217 L503 218 L503 220 L502 221 L502 223 L501 224 L501 226 L500 227 L500 228 L499 229 L499 230 L498 231 L498 232 L497 233 L497 235 L496 236 L496 237 L495 238 L495 240 L494 241 L494 243 L493 244 L493 246 L492 247 L492 249 L491 250 L491 252 L490 253 L490 255 L489 256 L489 257 L487 259 L486 258 L486 253 L487 252 L487 243 L488 242 L488 237 L489 236 L489 229 L490 228 L490 222 L491 221 L491 215 L492 214 L492 204 L493 203 L493 197 L494 196 L494 192 L495 191 L495 188 L496 187 L496 184 L497 183 L497 181 L498 180 L498 177 L499 176 L499 173 L500 172 L500 170 L501 169 L501 168 L502 167 L502 164 L503 163 L503 157 L504 156 L504 154 L505 153 L505 148 L506 147 L506 143 L507 142 L507 139 L508 138 L508 136 L509 135 L509 133 L510 132 L510 129 L511 128 L511 123 L512 122 L512 120 L513 119 L513 117 L515 115 L515 114 L516 113 L516 109 L517 108 L517 105 L518 104 L518 102 L519 101 L519 99 L520 98 L520 96 L521 95 L521 93 L522 92 L522 90 L523 89 L523 87 L524 86 L524 85 L525 84 L525 83 L526 82 L526 81 L527 80 L527 78 L528 77 L528 75 L529 74 L529 71 L530 70 L530 67 L528 67 L528 68 L526 70 L526 71 L525 72 L525 73 L524 74 L524 75 L522 77 L522 78 L520 80 L520 81 L517 84 L517 85 L515 87 L515 88 L514 89 L514 90 L513 91 L513 92 L511 94 L511 95 L510 96 L510 97 L509 98 L509 99 L508 100 L508 101 L507 102 L507 103 L506 104 L506 105 L505 106 L505 107 L504 108 L504 109 L503 110 L503 111 L502 112 L502 113 L501 114 L501 116 L500 117 L500 118 L499 119 L499 120 L498 121 L498 122 L497 123 L497 124 L496 125 L496 126 L495 127 L495 129 L494 130 L494 131 L493 132 L493 134 L492 135 L492 137 L491 138 L491 140 L490 141 L490 143 L489 144 L489 146 L488 147 L488 148 L487 149 L487 151 L486 152 L486 154 L485 155 L485 158 L484 159 L484 161 L483 162 L483 164 L482 165 L482 167 L481 168 L481 170 L480 171 L480 174 L479 175 L479 178 L478 179 L478 181 L477 182 L477 184 L476 185 L476 187 L475 188 L475 192 L474 193 L474 197 L473 198 L473 204 L472 205 L472 209 L471 210 L471 212 L470 213 L470 216 L469 217 L469 219 L468 220 L468 223 L467 224 L467 226 L466 227 L466 230 L465 231 L463 229 L463 225 L462 224 L462 220 L461 219 L461 214 L460 213 L460 210 L459 209 L459 206 L458 205 L458 202 L457 201 L457 197 L456 196 L456 193 L455 192 L455 188 L454 187 L454 185 L453 184 L453 182 L452 181 L452 179 L451 178 L451 175 L450 174 L450 173 L449 172 L449 171 L448 170 L448 168 L447 167 L447 165 L446 164 L446 161 L445 160 L445 159 L444 158 L444 154 L443 153 L443 152 L442 151 L442 150 L441 149 L441 147 L440 146 L440 145 L439 144 L439 143 L438 142 L437 142 L437 148 L438 149 L437 150 L437 153 L438 154 L438 171 L439 172 L439 178 L440 179 L440 182 L441 183 L441 188 L442 189 L442 198 L443 199 L443 207 L444 208 L444 218 L445 219 L445 226 L446 227 L446 238 L447 239 L447 250 L448 251 L448 258 L447 259 L447 264 L446 265 L445 264 L445 262 L444 261 L444 258 L443 257 L443 254 L442 253 L442 250 L441 249 L441 246 L440 245 L440 242 L439 241 L439 239 L438 238 L438 235 L437 234 L437 233 L436 232 L436 230 L435 229 L435 228 L434 227 L434 225 L433 224 L433 222 L432 221 L432 220 L431 219 L431 217 L429 215 L429 213 L428 212 L428 209 L427 208 L427 205 L426 204 L426 201 L425 200 L425 199 L424 198 L424 196 L423 195 L423 193 L422 192 L422 190 L421 189 L421 187 L420 186 L420 185 L419 184 L419 182 L418 181 L418 180 L416 178 L416 177 L415 176 L415 174 L414 173 L414 172 L413 171 L413 170 L412 169 L412 167 L411 166 L411 165 L410 164 L410 163 L409 162 L409 161 L408 160 L408 159 L407 158 L407 157 L406 156 L406 155 L405 154 L405 152 L404 151 L404 149 L403 148 L403 147 L402 146 L402 145 L401 144 L401 143 L400 142 L400 141 L399 140 L399 139 L398 138 L398 137 L396 135 L396 134 L395 133 L395 132 L394 131 L394 130 L392 128 L392 127 L390 125 L390 124 L388 122 L388 121 L386 119 L386 118 L385 117 L385 116 L383 114 L383 113 L382 112 L382 111 L380 109 L380 108 L379 107 L379 106 L377 104 L377 103 L371 97 L371 96 L370 95 L370 94 L367 91 L367 90 L364 87 L364 86 L359 81 L359 80 L356 77 L356 76 L352 72 L352 71 L343 62 L343 61 L327 45 L326 45 L323 42 L322 42 L320 40 L319 40 L318 39 L317 39 L316 40 L317 41 L317 42 L318 43 L318 44 L320 46 L320 47 L330 57 L330 58 L334 62 L334 63 L336 65 L336 66 L338 68 L338 69 L340 71 L340 72 L343 75 L343 76 L344 77 L344 78 L346 80 L346 81 L347 82 L347 83 L349 85 L349 86 L350 87 L350 88 L351 89 L351 91 L352 92 L352 93 L354 95 L354 96 L355 97 L355 98 L356 99 L356 100 L358 102 L358 103 L359 104 L359 105 L360 106 L360 107 L361 108 L361 109 L362 110 L362 111 L363 112 L363 114 L365 116 L365 117 L366 118 L366 119 L367 120 L367 121 L369 123 L369 124 L371 126 L371 127 L373 129 L373 130 L374 131 L374 132 L376 134 L376 135 L377 136 L377 137 L378 138 L378 139 L379 140 L379 141 L380 142 L380 144 L381 145 L381 147 L382 148 L382 149 L383 150 L383 152 L384 153 L384 154 L385 155 L385 157 L386 158 L386 159 L387 160 L387 161 L388 162 L388 164 L389 165 L389 166 L390 167 L390 169 L391 170 L391 172 L392 173 L392 175 L393 176 L393 177 L394 178 L394 179 L396 181 L396 183 L397 184 L397 186 L398 187 L398 190 L399 191 L399 194 L400 195 L400 197 L401 198 L401 201 L402 202 L402 205 L403 206 L403 207 L404 208 L404 210 L405 211 L405 215 L406 216 L405 217 L405 218 L406 219 L406 223 L407 224 L407 228 L408 229 L408 232 L409 233 L409 235 L410 236 L410 240 L411 241 L411 243 L412 244 L412 246 L413 247 L413 250 L414 251 L414 256 L415 257 L415 261 L416 262 L416 264 L417 265 L417 267 L418 268 L418 270 L419 271 L419 272 L420 273 L420 276 L421 277 L421 280 L422 281 L422 283 L421 284 L420 283 L420 282 L419 281 L419 278 L418 277 L418 276 L417 275 L417 273 L416 272 L416 271 L415 270 L415 269 L414 268 L414 267 L413 266 L413 265 L411 263 L411 262 L409 260 L409 259 L408 258 L408 257 L407 256 L407 255 L404 252 L404 251 L402 249 L402 248 L400 246 L400 245 L399 244 L399 242 L398 241 L398 237 L397 236 L397 235 L394 232 L394 231 L393 230 L393 229 L390 226 L390 225 L389 224 L389 223 L388 222 L388 221 L387 220 L387 219 L386 218 L386 217 L385 216 L385 215 L384 214 L384 213 L383 212 L383 211 L380 208 L380 207 L376 203 L376 202 L374 200 L374 199 L372 197 L372 196 L370 194 L370 193 L368 191 L368 190 L364 186 L364 185 L363 184 L363 183 L360 180 L360 179 L358 177 L358 176 L355 173 L355 172 L351 168 L351 167 L349 165 L348 165 L344 161 L344 160 L327 143 L326 143 L322 139 L321 139 L318 136 L317 136 L315 134 L314 134 L312 132 L311 132 L309 130 L308 130 L306 128 L305 128 L303 126 L302 126 L301 125 L300 125 L299 124 L298 124 L297 123 L296 123 L295 122 L294 122 L292 120 L291 120 L290 119 L288 119 L287 118 L286 118 L285 117 L283 117 L282 116 L277 116 L276 115 L274 115 L273 116 L272 116 L271 115 L270 115 L269 116 L268 116 L267 115 L239 115 L238 116 L231 116 L230 117 L226 117 L225 118 L222 118 L221 119 L219 119 L218 120 L217 120 L216 121 L215 121 L214 122 L213 122 L210 125 L209 125 L204 130 L203 130 L197 136 L196 136 L192 140 L191 140 L187 144 L186 144 L181 149 L180 149 L179 150 L176 150 L175 149 L172 149 L171 148 L169 148 L168 147 L166 147 L165 146 L163 146 L162 145 L161 145 L160 144 L159 144 L158 143 L156 143 L155 142 L154 142 L153 141 L149 141 L148 140 L143 140 L142 139 L137 139 L136 138 L131 138 L130 137 L123 137 L122 136 L116 136 L115 135 L107 135 L106 134 L78 134 L77 135 L67 135 L66 136 L60 136 L59 137 L55 137 L54 138 L51 138 L50 139 L47 139 L46 140 L44 140 L43 141 L40 141 L39 142 L37 142 L36 143 L34 143 L33 144 L31 144 L30 145 L29 145 L28 146 L27 146 L26 147 L25 147 L24 148 L23 148 L22 149 L21 149 L20 150 L19 150 L17 152 L16 152 L14 154 L13 154 L12 155 L12 156 L11 157 L11 159 L17 159 L18 158 L20 158 L21 157 L22 157 L23 156 L24 156 L25 155 L26 155 L27 154 L29 154 L30 153 L32 153 L33 152 L35 152 L36 151 L38 151 L39 150 L42 150 L43 149 L47 149 L48 148 L52 148 L53 147 L76 147 L77 148 L84 148 L85 149 L96 149 L97 150 L101 150 L102 151 L104 151 L105 152 L106 152 L107 153 L108 153 L109 154 L110 154 L111 155 L112 155 L113 156 L115 156 L116 157 L118 157 L119 158 L121 158 L122 159 L124 159 L125 160 L126 160 L127 161 L129 161 L130 162 L131 162 L132 163 L134 163 L135 164 L136 164 L138 166 L139 166 L140 167 L141 167 L142 168 L143 168 L144 169 L145 169 L146 170 L148 170 L149 171 L150 171 L151 172 L152 172 L153 173 L155 173 L156 174 L157 174 L158 175 L158 177 L157 178 L157 179 L155 181 L155 182 L153 184 L153 185 L151 187 L151 188 L150 189 L150 190 L148 192 L148 193 L147 194 L147 195 L146 196 L146 197 L145 198 L145 199 L143 201 L143 203 L142 204 L142 205 L141 206 L141 209 L140 210 L140 211 L139 212 L138 212 L137 213 L137 214 L135 216 L135 219 L134 220 L134 222 L133 223 L133 224 L132 225 L132 227 L131 228 L131 229 L130 230 L130 233 L129 234 L129 236 L128 237 L128 238 L127 239 L127 242 L126 243 L126 246 L125 247 L125 248 L127 250 L127 249 L128 248 L128 247 L129 246 L129 245 L131 243 L131 242 L132 241 L132 240 L133 239 L133 238 L134 237 L134 236 L136 234 L136 233 L140 229 L140 228 L143 225 L143 224 L144 223 L144 222 L146 220 L146 219 L149 216 L149 215 L151 213 L151 212 L153 210 L153 209 L155 207 L155 206 L158 203 L158 202 L164 196 L164 195 L171 188 L172 188 L175 185 L177 185 L178 186 L180 186 L182 188 L183 188 L184 189 L185 189 L187 191 L188 191 L189 192 L190 192 L191 193 L192 193 L193 194 L194 194 L195 195 L196 195 L197 196 L198 196 L199 197 L200 197 L202 199 L203 199 L204 200 L205 200 L207 202 L208 202 L209 203 L210 203 L212 205 L213 205 L216 208 L217 208 L218 209 L219 209 L221 211 L222 211 L224 213 L225 213 L227 215 L228 215 L231 218 L232 218 L236 222 L237 222 L243 228 L244 228 L245 229 L245 230 L250 235 L251 235 L255 239 L256 239 L263 246 L260 249 L259 249 L258 250 L255 250 L254 251 L246 251 L245 252 L243 252 L242 253 L238 253 L237 254 L234 254 L233 255 L230 255 L229 256 L228 256 L227 257 L226 257 L216 267 L215 267 L209 273 L208 273 L201 280 L201 281 L198 284 L198 285 L197 286 L197 287 L196 288 L196 289 L195 290 L195 291 L191 295 L182 295 L181 296 L162 296 L161 297 L150 297 L149 298 L141 298 L140 299 L137 299 L136 300 L132 300 L131 301 L128 301 L127 302 L125 302 L124 303 L122 303 L121 304 L120 304 L119 305 L117 305 L115 307 L113 307 L112 308 L110 308 L109 309 L108 309 L107 310 L105 310 L104 311 L102 311 L101 312 L99 312 L98 313 L96 313 L95 314 L94 314 L93 315 L92 315 L91 316 L90 316 L89 317 L88 317 L87 318 L86 318 L85 319 L84 319 L83 320 L82 320 L81 321 L80 321 L79 322 L78 322 L77 323 L76 323 L75 324 L74 324 L72 326 L71 326 L70 327 L69 327 L67 329 L66 329 L64 331 L63 331 L60 334 L59 334 L54 339 L53 339 L41 351 L40 351 L40 352 L39 353 L38 353 L33 358 L33 359 L30 362 L30 363 L34 363 L35 362 L37 362 L38 361 L39 361 L41 359 L42 359 L45 356 L46 356 L48 354 L49 354 L51 352 L52 352 L54 350 L55 350 L58 347 L59 347 L61 345 L62 345 L63 344 L64 344 L65 343 L66 343 L67 342 L68 342 L69 341 L71 341 L72 340 L74 340 L75 339 L77 339 L78 338 L80 338 L81 337 L82 337 L83 336 L85 336 L86 335 L87 335 L88 334 L90 334 L91 333 L94 333 L95 332 L97 332 L98 331 L100 331 L101 330 L104 330 L105 329 L110 329 L111 328 L117 328 L118 327 L125 327 L126 326 L141 326 L142 325 L144 325 L145 326 L146 325 L149 325 L150 326 L151 325 L153 325 L154 326 L170 326 L171 327 L172 327 L174 329 L173 330 L173 331 L174 332 L174 333 L175 334 L175 336 L172 339 L172 340 L171 341 L171 342 L170 343 L170 345 L169 346 L169 349 L168 350 L168 354 L167 355 L167 359 L166 360 L166 363 L165 364 L165 369 L164 370 L164 371 L163 372 L163 373 L162 374 L162 377 L161 378 L161 382 L158 385 L157 385 L156 386 L155 386 L154 387 L153 387 L152 388 L151 388 L150 389 L149 389 L148 390 L147 390 L145 392 L144 392 L142 394 L141 394 L139 396 L138 396 L136 398 L135 398 L134 399 L133 399 L131 401 L130 401 L129 402 L128 402 L126 404 L125 404 L123 406 L122 406 L119 409 L118 409 L116 411 L115 411 L112 414 L111 414 L106 419 L105 419 L87 437 L87 438 L83 442 L83 443 L78 448 L78 449 L74 453 L74 454 L72 456 L72 457 L70 459 L70 460 L67 463 L67 464 L64 467 L64 468 L60 472 L60 473 L57 476 L57 477 L54 480 L54 481 L53 482 L53 483 L52 484 L52 485 L51 486 L51 487 L49 489 L49 490 L48 491 L48 492 L47 493 L47 494 L46 495 L46 496 L44 498 L44 499 L43 500 L43 501 L42 502 L42 503 L41 504 L41 505 L40 506 L40 507 L39 508 L39 509 L38 510 L38 512 L37 513 L37 515 L36 516 L36 518 L35 519 L35 520 L34 521 L34 522 L33 523 L33 524 L32 525 L32 526 L31 527 L31 531 L30 532 L30 535 L29 536 L29 537 L27 539 L27 544 L26 545 L26 548 L25 549 L25 550 L24 551 L24 553 L23 554 L23 557 L22 558 L22 562 L21 563 L21 568 L20 569 L20 573 L19 574 L19 579 L18 580 L18 584 L17 585 L17 590 L16 591 L16 598 L15 599 L15 611 L16 612 L16 614 L17 615 L17 617 L18 618 L18 619 L19 619 L19 618 L20 617 L20 615 L21 614 L21 610 L22 609 L22 605 L23 604 L23 599 L24 598 L24 595 L25 594 L25 593 L26 592 L26 590 L28 588 L28 587 L29 586 L29 583 L30 582 L30 580 L31 579 L31 578 L32 577 L32 575 L33 574 L33 572 L34 571 L34 569 L35 568 L35 566 L36 565 L36 563 L37 562 L37 560 L38 559 L38 558 L39 557 L39 556 L40 555 L40 554 L41 553 L41 552 L42 551 L42 550 L43 549 L43 548 L44 547 L44 546 L46 544 L46 543 L47 542 L47 541 L48 540 L48 539 L49 538 L49 537 L50 536 L50 535 L51 534 L51 533 L52 532 L52 531 L54 529 L54 528 L55 527 L55 526 L56 525 L56 524 L57 523 L57 521 L58 520 L58 519 L60 517 L60 516 L62 514 L62 513 L64 511 L64 510 L66 508 L66 507 L68 505 L68 504 L70 502 L70 501 L72 499 L72 498 L77 493 L77 492 L90 479 L90 478 L94 474 L94 473 L99 468 L100 468 L114 454 L115 454 L117 452 L118 452 L125 445 L126 445 L129 442 L130 442 L132 440 L133 440 L134 439 L135 439 L137 437 L138 437 L142 433 L143 433 L146 430 L147 430 L149 428 L150 428 L151 427 L153 427 L154 428 L154 433 L153 434 L153 442 L152 443 L152 460 L151 461 L151 468 L150 469 L150 498 L151 499 L151 509 L152 510 L152 516 L153 517 L153 519 L154 520 L154 553 L155 554 L154 555 L154 557 L155 558 L155 573 L154 574 L154 576 L153 577 L153 578 L152 579 L152 580 L151 581 L151 582 L150 583 L150 585 L149 586 L149 588 L148 589 L148 590 L147 591 L147 592 L146 593 L146 594 L145 595 L145 596 L144 597 L144 599 L143 600 L143 602 L142 603 L142 604 L141 605 L141 607 L140 608 L140 609 L139 610 L139 611 L138 612 L138 613 L137 614 L137 615 L136 616 L136 618 L135 619 L135 623 L134 624 L134 626 L133 627 L133 628 L132 629 L132 631 L131 632 L131 634 L130 635 L130 638 L129 639 L129 641 L128 642 L128 644 L127 645 L127 647 L126 648 L126 650 L125 651 L125 653 L124 654 L124 658 L123 659 L123 663 L122 664 L122 670 L121 671 L121 681 L124 681 L124 680 L126 678 L126 677 L127 676 L127 675 L129 673 L129 672 L131 670 L131 669 L132 668 L132 667 L134 665 L134 664 L135 663 L135 662 L136 661 L136 660 L138 658 L138 657 L140 655 L140 654 L142 652 L142 651 L143 650 L143 649 L144 648 L144 647 L146 645 L146 644 L148 642 L148 641 L150 639 L150 638 L152 636 L152 635 L153 634 L153 633 L154 632 L154 629 L157 626 L158 626 L159 625 L159 624 L161 622 L161 621 L162 620 L162 618 L163 617 L163 616 L164 615 L164 614 L165 613 L165 612 L167 610 L167 609 L169 607 L169 606 L172 603 L172 602 L174 600 L174 599 L176 597 L176 596 L178 594 L178 593 L179 592 L179 591 L181 589 L181 588 L185 584 L185 583 L187 581 L187 580 L188 579 L188 578 L190 576 L191 577 L191 592 L192 593 L192 607 L193 608 L193 622 L195 624 L196 623 L197 623 L198 622 L198 621 L199 620 L199 618 L200 617 L200 614 L201 613 L201 609 L202 608 L202 597 L203 596 L203 593 L204 592 L204 588 L205 587 L205 584 L206 583 L206 581 L207 580 L207 577 L208 576 L208 574 L209 573 L209 571 L210 570 L210 568 L211 567 L211 565 L212 564 L212 563 L213 562 L213 559 L214 558 L214 557 L215 556 L215 552 L216 551 L216 549 L218 547 L218 546 L223 541 L223 540 L232 531 L232 530 L237 525 L238 525 L243 520 L244 520 L253 511 L254 511 L256 509 L257 510 L257 511 L258 512 L258 513 L259 514 L259 520 L258 521 L258 523 L257 524 L257 525 L256 526 L256 527 L255 528 L255 529 L254 530 L254 531 L253 532 L253 533 L251 535 L251 536 L249 538 L249 539 L247 541 L247 542 L246 543 L246 544 L245 545 L245 546 L244 547 L244 548 L243 549 L243 550 L242 551 L242 552 L240 554 L240 555 L238 557 L238 558 L237 559 L237 560 L236 561 L236 562 L235 563 L235 564 L234 565 L234 567 L233 568 L233 569 L232 570 L232 572 L231 573 L231 574 L230 575 L230 576 L229 577 L229 578 L228 579 L228 580 L227 581 L227 583 L226 584 L226 585 L225 586 L225 588 L224 589 L224 591 L223 592 L223 594 L222 595 L222 596 L221 597 L221 598 L220 599 L220 600 L219 601 L219 602 L218 603 L218 610 L217 611 L217 612 L216 613 L216 615 L215 616 L215 617 L214 618 L214 619 L213 620 L213 622 L212 623 L212 624 L211 625 L211 626 L210 627 L210 628 L209 629 L209 630 L208 631 L208 632 L207 633 L207 635 L206 636 L206 639 L205 640 L205 642 L203 644 L203 645 L202 646 L202 647 L199 650 L199 651 L195 655 L195 656 L192 659 L192 660 L191 661 L191 663 L189 665 L189 666 L187 668 L187 669 L186 670 L186 671 L185 672 L185 673 L184 674 L184 675 L182 677 L182 678 L180 680 L179 680 L178 681 L178 682 L177 683 L177 684 L176 685 L176 686 L175 687 L175 688 L174 689 L174 690 L172 692 L172 694 L170 696 L170 697 L169 698 L169 699 L166 702 L166 703 L163 706 L163 708 L162 709 L162 712 L161 713 L161 721 L160 722 L160 736 L159 737 L159 741 L158 742 L158 744 L157 745 L157 751 L156 752 L156 754 L155 755 L155 756 L152 759 L152 760 L144 768 L143 768 L141 770 L140 770 L139 771 L138 771 L137 772 L136 772 L135 773 L131 773 L130 772 L130 771 L131 770 L131 768 L132 767 L132 765 L133 764 L133 761 L134 760 L134 748 L133 747 L133 745 L132 744 L132 741 L131 740 L131 737 L130 736 L130 733 L129 732 L129 730 L128 729 L128 727 L127 726 L127 724 L126 723 L126 721 L124 719 L123 719 L122 720 L122 721 L121 722 L121 743 L120 744 L119 744 L118 743 L118 740 L117 739 L117 736 L116 735 L116 730 L115 729 L115 727 L114 726 L114 724 L113 723 L113 719 L111 717 L111 716 L106 711 L106 722 L107 723 L107 728 L108 729 L108 739 L107 740 L105 738 L105 737 L104 736 L104 735 L102 733 L102 731 L101 730 L101 729 L100 728 L100 725 L99 724 L99 721 L98 720 L98 717 L97 716 L97 714 L96 713 L96 710 L95 709 L95 692 L93 692 L92 693 L92 694 L91 695 L91 696 L90 697 L90 699 L89 700 L89 703 L88 704 L88 708 L87 709 L87 710 L86 711 L86 712 L85 713 L85 716 L84 717 L84 721 L85 722 L85 727 L86 728 L86 732 L87 733 L87 736 L88 737 L88 739 L89 740 L89 741 L90 742 L90 744 L91 745 L91 746 L92 747 L92 748 L93 749 L93 750 L94 751 L94 752 L95 753 L95 754 L97 756 L97 757 L98 758 L98 759 L99 760 L99 761 L100 762 L100 763 L99 764 L95 760 L95 759 L92 756 L92 755 L88 751 L88 750 L83 745 L83 744 L80 741 L80 740 L78 738 L78 737 L75 734 L75 733 L74 732 L74 731 L73 730 L73 729 L72 728 L72 727 L71 726 L71 725 L70 724 L70 723 L67 720 L67 719 L63 715 L62 715 L61 714 L60 714 L58 712 L57 712 L55 710 L54 710 L52 708 L49 708 L47 710 L47 711 L48 712 L48 713 L49 714 L49 715 L57 723 L57 724 L58 725 L58 726 L59 727 L59 729 L60 730 L60 732 L61 733 L61 735 L62 736 L62 738 L63 739 L63 740 L64 741 L64 742 L65 743 L65 745 L66 746 L66 747 L67 748 L67 749 L68 750 L68 751 L70 753 L70 754 L72 756 L72 757 L75 760 L75 761 L82 768 L82 769 L83 770 L82 771 L78 771 L77 770 L75 770 L74 769 L73 769 L72 768 L67 768 L66 767 L65 767 L64 766 L63 766 L58 761 L58 760 L54 756 L53 756 L52 755 L50 755 L50 759 L51 760 L51 761 L53 763 L53 764 L54 765 L54 766 L58 770 L58 771 L59 771 L60 772 L61 772 L63 774 L64 774 L66 776 L67 776 L68 777 L69 777 L70 778 L71 778 L72 779 L73 779 L74 780 L75 780 L76 781 L78 781 L79 782 L82 782 L83 783 L86 783 L87 784 L89 784 L91 786 L95 786 L96 787 L97 786 L103 786 L104 787 L102 789 L101 789 L100 790 L96 790 L95 791 L89 791 L88 792 L87 792 L86 793 L85 793 L84 794 L83 794 L80 797 L79 797 L78 798 L78 800 L79 800 L80 801 L85 801 L86 800 L90 800 L91 799 L93 799 L94 798 L95 798 L96 797 L97 797 L98 796 L99 796 L100 795 L102 795 L103 794 L105 794 L106 793 L108 793 L109 792 L110 792 L111 791 L112 791 L113 790 L115 790 L116 789 L117 789 L118 788 L119 788 L120 787 L123 787 L124 786 L125 787 L129 787 L130 788 L131 788 L132 789 L140 789 L141 788 L143 788 L144 787 L145 787 L146 786 L147 786 L149 784 L150 784 L150 783 L154 779 L154 778 L155 777 L155 776 L156 775 L156 774 L157 773 L157 772 L158 771 L158 769 L159 768 L159 767 L160 766 L160 765 L161 764 L161 761 L162 760 L162 758 L163 757 L163 754 L164 753 L164 751 L165 750 L165 748 L166 747 L166 744 L167 743 L167 731 L168 730 L168 726 L169 725 L169 722 L170 721 L170 719 L171 718 L171 716 L172 715 L172 714 L173 713 L173 712 L175 710 L175 709 L176 708 L176 707 L179 704 L179 703 L181 701 L181 700 L182 699 L182 698 L184 696 L184 695 L185 694 L185 693 L186 692 L186 691 L188 689 L188 688 L189 687 L189 686 L190 685 L190 684 L191 683 L191 682 L192 681 L192 680 L194 678 L194 677 L196 675 L196 674 L198 672 L199 673 L199 681 L198 682 L198 688 L197 689 L197 704 L196 705 L196 708 L195 709 L195 710 L194 711 L194 715 L193 716 L193 733 L192 734 L192 741 L191 742 L191 757 L190 758 L190 770 L189 771 L189 829 L188 830 L183 825 L183 824 L182 823 L182 822 L181 821 L181 820 L180 819 L180 816 L179 815 L179 808 L178 807 L178 805 L177 804 L177 803 L176 802 L176 801 L175 801 L174 802 L174 805 L173 806 L173 813 L174 814 L174 823 L175 824 L175 827 L176 828 L176 829 L177 830 L177 832 L178 833 L178 835 L177 836 L176 835 L175 835 L174 834 L173 834 L171 832 L170 832 L166 828 L165 828 L164 827 L161 827 L160 826 L158 826 L157 827 L155 827 L154 828 L152 828 L151 829 L149 829 L146 832 L145 832 L144 833 L143 833 L139 837 L139 839 L145 839 L146 838 L147 838 L149 836 L150 836 L151 835 L152 835 L153 834 L156 834 L157 833 L159 833 L160 834 L162 834 L163 835 L164 835 L165 836 L166 836 L167 837 L168 837 L170 839 L171 839 L173 841 L174 841 L177 844 L178 844 L185 851 L186 851 L188 853 L189 853 L190 854 L192 854 L193 855 L194 855 L195 856 L196 856 L197 857 L198 857 L200 859 L199 860 L198 860 L197 859 L195 859 L194 858 L192 858 L191 857 L190 857 L189 856 L188 856 L187 855 L186 855 L185 854 L184 854 L183 853 L182 853 L180 851 L179 851 L178 850 L177 850 L176 849 L174 849 L173 848 L172 848 L171 847 L169 847 L168 846 L165 846 L164 845 L161 845 L160 844 L149 844 L148 845 L143 845 L142 846 L140 846 L139 847 L136 847 L135 848 L134 848 L133 849 L132 849 L131 850 L130 850 L128 852 L127 852 L125 854 L124 854 L121 857 L120 857 L119 858 L118 858 L111 865 L109 865 L104 870 L104 874 L103 875 L103 878 L102 879 L102 880 L101 881 L101 883 L100 884 L100 889 L101 889 L103 887 L103 886 L105 884 L105 883 L112 876 L113 876 L117 872 L118 872 L121 869 L122 869 L124 867 L125 867 L127 865 L129 865 L130 864 L134 864 L135 863 L147 863 L148 864 L153 864 L154 865 L155 865 L156 866 L157 866 L158 867 L158 868 L154 872 L153 872 L151 874 L150 874 L149 875 L148 875 L146 877 L145 877 L137 885 L137 886 L134 889 L134 890 L132 892 L132 893 L128 897 L128 898 L127 899 L127 900 L126 901 L126 902 L127 903 L126 904 L126 905 L124 907 L124 911 L126 911 L134 903 L135 903 L136 902 L137 902 L143 896 L144 896 L146 894 L147 894 L149 892 L150 892 L151 891 L152 891 L153 890 L155 890 L156 889 L157 889 L158 888 L159 888 L160 887 L162 887 L163 886 L164 886 L165 885 L167 885 L168 886 L166 888 L166 889 L162 893 L162 894 L159 897 L159 898 L156 901 L156 902 L154 904 L154 905 L153 906 L153 907 L152 908 L152 909 L151 910 L151 914 L150 915 L150 917 L149 918 L149 920 L148 921 L148 924 L147 925 L147 929 L146 930 L146 932 L145 933 L145 937 L144 938 L144 943 L143 944 L143 966 L144 967 L144 971 L145 972 L145 974 L146 975 L146 977 L147 978 L147 980 L148 981 L148 982 L149 983 L149 984 L150 985 L150 988 L151 989 L151 990 L152 991 L152 993 L153 994 L153 995 L154 996 L154 997 L155 998 L155 999 L157 1001 L158 1001 L160 999 L160 988 L159 987 L159 974 L158 973 L158 962 L159 961 L159 953 L160 952 L160 944 L161 943 L161 941 L162 940 L162 938 L163 937 L163 935 L164 934 L164 933 L165 932 L165 930 L166 929 L166 928 L167 927 L167 926 L168 925 L168 924 L169 923 L169 922 L170 921 L170 920 L171 919 L171 918 L172 917 L172 916 L173 915 L173 913 L175 911 L176 912 L176 924 L177 925 L177 928 L178 929 L178 931 L179 932 L179 933 L180 934 L180 936 L181 937 L181 938 L182 939 L182 941 L183 942 L183 944 L184 945 L184 947 L185 948 L185 949 L186 950 L186 951 L188 953 L188 954 L190 956 L190 957 L191 958 L191 959 L192 960 L192 961 L194 963 L194 964 L195 965 L195 966 L196 967 L196 968 L198 968 L199 967 L199 966 L200 965 L200 964 L201 963 L201 954 L200 953 L200 948 L199 947 L199 944 L198 943 L198 942 L197 941 L197 939 L196 938 L196 936 L195 935 L195 932 L194 931 L194 927 L193 926 L193 922 L192 921 L192 914 L191 913 L192 912 L192 910 L193 909 L194 909 L195 910 L195 916 L196 917 L196 922 L197 923 L197 926 L198 927 L198 929 L199 930 L199 931 L200 932 L200 934 L201 935 L201 937 L202 938 L202 940 L203 941 L203 943 L204 944 L204 945 L206 947 L206 948 L208 950 L208 951 L211 954 L211 955 L212 956 L213 956 L218 961 L218 962 L220 964 L222 964 L223 965 L227 965 L228 964 L228 960 L227 959 L227 958 L224 955 L224 954 L222 952 L222 951 L221 950 L221 949 L220 948 L220 946 L219 945 L219 943 L218 942 L218 939 L217 938 L217 935 L216 934 L216 932 L215 931 L215 928 L214 927 L214 924 L213 923 L213 920 L212 919 L212 917 L211 916 L211 909 L210 908 L210 898 L211 897 L214 900 L214 901 L215 902 L215 903 L216 904 L216 905 L217 906 L217 907 L218 908 L218 910 L219 911 L219 912 L220 913 L220 914 L221 915 L221 916 L222 917 L222 918 L224 920 L224 921 L226 923 L226 924 L228 926 L228 927 L230 929 L230 930 L236 936 L237 936 L238 937 L239 937 L240 938 L242 938 L243 939 L245 939 L246 940 L248 940 L249 941 L252 941 L253 942 L260 942 L261 941 L264 941 L265 940 L267 940 L268 939 L269 939 L270 938 L274 938 L275 937 L277 937 L278 936 L279 936 L281 934 L281 933 L282 932 L282 930 L281 929 L275 929 L274 930 L266 930 L265 929 L260 929 L259 928 L257 928 L256 927 L254 927 L253 926 L251 926 L250 925 L249 925 L248 924 L247 924 L243 920 L243 919 L242 918 L242 917 L241 916 L241 915 L240 914 L240 913 L239 912 L239 910 L238 909 L238 907 L237 906 L237 904 L236 903 L236 902 L235 901 L235 899 L234 898 L234 895 L235 894 L238 894 L239 893 L240 893 L241 892 L242 892 L244 890 L244 889 L246 887 L246 886 L248 884 L248 883 L249 882 L249 881 L250 880 L250 879 L252 877 L258 877 L259 878 L263 878 L264 879 L265 879 L266 880 L267 880 L268 881 L270 881 L271 882 L274 882 L275 883 L276 883 L277 882 L278 882 L279 881 L279 878 L274 873 L274 872 L268 866 L267 866 L265 864 L264 864 L263 863 L261 863 L259 861 L258 861 L256 859 L256 857 L257 856 L257 848 L258 847 L258 831 L257 830 L257 826 L256 825 L256 823 L255 822 L255 820 L254 819 L254 817 L253 816 L253 815 L251 813 L251 812 L249 810 L247 810 L247 813 L248 814 L248 819 L249 820 L249 832 L248 833 L248 836 L247 837 L247 839 L246 840 L246 843 L245 844 L245 846 L244 847 L244 850 L243 851 L243 853 L242 854 L242 856 L241 857 L241 858 L239 860 L238 860 L237 859 L235 861 L235 862 L234 863 L233 863 L232 864 L230 864 L228 862 L228 857 L227 856 L227 852 L226 851 L226 850 L225 849 L225 848 L224 847 L224 846 L223 845 L223 844 L222 843 L222 841 L221 840 L221 838 L220 837 L220 831 L219 830 L219 826 L220 825 L220 823 L221 822 L221 820 L222 819 L222 816 L223 815 L223 809 L224 808 L224 806 L225 805 L225 803 L226 802 L226 800 L227 799 L227 797 L228 796 L228 793 L229 792 L229 790 L230 789 L230 788 L231 787 L231 786 L233 784 L233 783 L235 781 L235 780 L238 777 L238 776 L239 775 L239 774 L241 772 L241 770 L240 769 L239 769 L238 770 L236 770 L235 771 L234 771 L233 772 L232 772 L230 774 L229 774 L226 777 L226 778 L223 781 L223 782 L219 786 L219 787 L218 788 L218 789 L217 790 L217 791 L215 793 L215 794 L213 796 L213 797 L212 798 L212 799 L211 800 L211 802 L210 803 L210 805 L209 806 L209 807 L208 808 L208 810 L207 811 L206 811 L204 809 L204 802 L203 801 L203 755 L204 754 L204 747 L205 746 L205 743 L206 742 L206 738 L207 737 L207 719 L208 718 L208 710 L209 709 L209 704 L210 703 L210 701 L211 700 L211 697 L212 696 L212 692 L213 691 L213 687 L214 686 L214 680 L215 679 L215 676 L216 675 L216 671 L217 670 L217 667 L218 666 L218 663 L219 662 L219 658 L220 657 L220 655 L221 654 L221 650 L222 649 L222 645 L223 644 L223 639 L224 638 L224 634 L225 633 L225 630 L226 629 L226 625 L227 624 L227 620 L228 619 L228 617 L229 616 L229 614 L230 613 L230 611 L231 610 L231 609 L232 608 L232 605 L233 604 L233 602 L234 601 L234 600 L235 599 L235 597 L236 596 L236 595 L237 594 L237 592 L238 591 L238 590 L239 589 L239 588 L240 587 L240 585 L241 584 L241 583 L242 582 L242 581 L243 580 L243 579 L244 578 L244 576 L245 575 L245 574 L246 573 L246 572 L248 570 L248 569 L249 568 L249 567 L250 566 L250 564 L251 563 L251 562 L253 560 L253 559 L255 557 L255 556 L257 554 L257 553 L259 551 L259 550 L260 549 L260 548 L261 547 L261 546 L263 544 L264 545 L264 552 L265 553 L265 560 L266 561 L266 565 L267 566 L267 568 L268 569 L268 572 L269 573 L269 579 L268 580 L268 583 L267 584 L267 586 L266 587 L266 588 L265 589 L265 590 L263 592 L263 593 L262 594 L262 595 L261 596 L261 602 L260 603 L260 608 L259 609 L259 612 L258 613 L258 616 L257 617 L257 620 L256 621 L256 624 L255 625 L255 630 L254 631 L254 635 L253 636 L253 642 L252 643 L252 657 L251 658 L251 694 L252 695 L252 704 L253 705 L253 709 L254 710 L254 713 L255 714 L255 719 L256 720 L256 721 L257 722 L257 724 L258 725 L258 729 L259 730 L259 734 L260 735 L260 736 L261 737 L261 740 L262 741 L262 743 L263 744 L263 746 L264 747 L264 750 L265 751 L267 751 L267 749 L268 748 L268 746 L269 745 L269 741 L270 740 L270 736 L271 735 L271 723 L272 722 L272 716 L273 715 L273 709 L274 708 L274 702 L275 701 L275 695 L276 694 L276 689 L277 688 L277 686 L278 685 L278 682 L279 681 L279 678 L280 677 L280 673 L281 672 L281 668 L282 667 L282 665 L283 664 L283 662 L284 661 L284 660 L285 659 L285 657 L286 656 L286 653 L287 652 L287 649 L288 648 L288 646 L289 645 L290 645 L291 646 L291 647 L292 648 L292 651 L293 652 L293 656 L294 657 L294 660 L295 661 L295 664 L296 665 L296 670 L297 671 L297 675 L298 676 L298 679 L299 680 L299 683 L300 684 L300 686 L301 687 L301 689 L302 690 L302 693 L303 694 L303 700 L304 701 L304 705 L305 706 L305 708 L306 709 L306 714 L307 715 L307 719 L308 720 L308 724 L309 725 L309 727 L310 728 L310 733 L311 734 L311 739 L312 740 L312 743 L313 744 L313 749 L314 750 L314 752 L315 753 L315 755 L316 756 L316 759 L317 760 L317 763 L318 764 L318 767 L319 768 L319 770 L320 771 L320 777 L321 778 L321 780 L322 781 L322 782 L323 783 L323 785 L324 786 L324 788 L325 789 L325 793 L326 794 L326 799 L327 800 L327 805 L328 806 L328 809 L329 810 L329 812 L330 813 L330 814 L331 815 L331 818 L332 819 L332 823 L333 824 L333 825 L334 826 L334 828 L335 829 L335 830 L336 831 L336 832 L337 833 L337 835 L338 836 L338 837 L339 838 L339 839 L340 840 L340 842 L342 844 L342 845 L343 846 L343 847 L348 852 L349 852 L351 854 L352 854 L354 856 L355 856 L357 858 L358 858 L359 859 L360 859 L361 860 L362 860 L363 861 L364 861 L365 862 L366 862 L367 863 L368 863 L370 865 L371 865 L373 867 L375 867 L376 868 L379 868 L380 869 L381 869 L382 870 L385 870 L386 871 L388 871 L389 872 L393 872 L394 873 L398 873 L399 874 L405 874 L406 875 L411 875 L412 876 L417 876 L418 877 L423 877 L424 878 L428 878 L429 879 L441 879 L442 880 L498 880 L499 879 L513 879 L514 878 L516 878 L517 877 L521 877 L522 876 L527 876 L528 875 L534 875 L535 874 L540 874 L541 873 L545 873 L546 872 L550 872 L551 871 L552 871 L553 870 L555 870 L556 869 L557 869 L558 868 L560 868 L561 867 L563 867 L564 866 L566 866 L567 865 L568 865 L569 864 L570 864 L571 863 L572 863 L573 862 L574 862 L575 861 L576 861 L577 860 L579 860 L580 859 L582 859 L584 857 L585 857 L588 854 L589 854 L592 851 L593 851 L595 849 L596 849 L599 846 L600 846 L600 845 L601 844 L601 843 L602 842 L602 841 L603 840 L603 838 L604 837 L604 836 L605 835 L605 834 L606 833 L606 831 L607 830 L607 828 L608 827 L608 826 L609 825 L609 817 L610 816 L610 814 L611 813 L611 811 L612 810 L612 805 L613 804 L613 800 L614 799 L614 795 L615 794 L615 790 L616 789 L616 785 L617 784 L617 781 L618 780 L618 776 L619 775 L619 771 L620 770 L620 767 L621 766 L621 761 L622 760 L622 756 L623 755 L623 751 L624 750 L624 748 L625 747 L625 744 L626 743 L626 740 L627 739 L627 735 L628 734 L628 730 L629 729 L629 724 L630 723 L630 720 L631 719 L631 715 L632 714 L632 710 L633 709 L633 706 L634 705 L634 701 L635 700 L635 694 L636 693 L636 687 L637 686 L637 681 L638 680 L638 674 L639 673 L639 667 L640 666 L640 661 L641 660 L641 654 L642 653 L642 639 L643 638 L643 634 L644 633 L644 631 L645 630 L647 630 L647 627 L646 626 L646 624 L645 623 L645 619 L646 618 L647 618 L649 620 L649 623 L650 624 L650 625 L651 626 L651 629 L652 630 L652 631 L654 633 L654 635 L655 636 L655 638 L656 639 L656 643 L657 644 L657 648 L658 649 L658 653 L659 654 L659 659 L660 660 L660 662 L661 663 L661 669 L662 670 L662 677 L663 678 L663 685 L664 686 L664 691 L665 692 L665 700 L666 701 L666 707 L667 708 L667 720 L668 721 L668 728 L669 729 L669 735 L670 736 L670 738 L671 739 L671 741 L672 742 L672 744 L673 745 L673 748 L674 749 L674 754 L675 755 L675 765 L676 766 L676 778 L675 779 L676 780 L676 869 L675 870 L675 878 L674 879 L674 882 L673 883 L673 886 L672 887 L671 886 L671 884 L670 883 L670 877 L669 876 L669 871 L670 870 L670 866 L671 865 L671 862 L670 861 L670 858 L669 858 L668 859 L668 860 L667 861 L667 863 L666 864 L666 866 L665 867 L665 869 L664 870 L664 872 L663 873 L663 875 L662 876 L662 880 L661 881 L661 885 L660 886 L660 897 L659 898 L659 905 L658 906 L655 903 L655 902 L654 901 L654 900 L653 899 L653 898 L652 897 L652 896 L651 895 L651 893 L650 892 L650 890 L649 889 L649 887 L648 886 L648 884 L647 883 L647 880 L646 879 L646 877 L645 876 L645 872 L644 871 L644 868 L643 867 L643 863 L642 862 L642 851 L643 850 L643 846 L644 845 L644 838 L643 837 L642 837 L640 839 L640 840 L638 842 L638 843 L637 844 L637 845 L636 846 L636 847 L635 848 L635 850 L634 851 L634 855 L633 856 L633 864 L632 865 L632 885 L633 886 L633 889 L634 890 L634 892 L635 893 L635 895 L636 896 L636 897 L637 898 L637 900 L638 901 L638 902 L639 903 L639 904 L640 905 L640 906 L641 907 L641 908 L642 909 L642 910 L643 911 L643 912 L644 913 L644 914 L646 916 L646 917 L647 918 L647 919 L651 923 L651 924 L653 926 L653 927 L652 928 L644 928 L643 927 L640 927 L639 926 L635 926 L634 925 L631 925 L630 924 L626 924 L625 925 L622 925 L621 926 L619 926 L618 927 L614 927 L613 928 L612 928 L611 929 L609 929 L602 936 L602 937 L601 938 L601 939 L600 940 L600 942 L601 943 L602 942 L604 942 L605 941 L607 941 L608 940 L609 940 L610 939 L611 939 L612 938 L618 938 L619 937 L620 937 L621 938 L629 938 L630 939 L632 939 L633 940 L635 940 L636 941 L638 941 L639 942 L640 942 L641 943 L643 943 L644 944 L647 944 L648 945 L651 945 L652 946 L656 946 L657 947 L656 948 L656 950 L655 951 L655 953 L648 960 L647 960 L645 962 L643 962 L642 963 L640 963 L639 964 L626 964 L625 963 L622 963 L621 964 L622 965 L622 966 L624 968 L624 969 L630 975 L631 975 L632 976 L634 976 L635 977 L637 977 L638 978 L641 978 L642 977 L643 977 L645 975 L646 975 L655 966 L655 965 L657 963 L657 962 L658 961 L658 960 L659 959 L660 959 L661 960 L660 961 L660 964 L659 965 L659 966 L658 967 L658 968 L657 969 L657 970 L655 972 L655 973 L641 987 L640 987 L638 989 L637 989 L635 991 L634 991 L629 996 L629 997 L626 1000 L628 1002 L633 1002 L634 1001 L635 1001 L636 1000 L641 1000 L642 999 L643 999 L644 998 L645 998 L646 997 L647 997 L648 996 L649 996 L651 994 L652 994 L660 986 L660 985 L662 983 L662 982 L666 978 L667 979 L667 980 L668 981 L668 983 L669 984 L669 985 L672 988 L674 988 L675 987 L675 984 L676 983 L676 978 L677 977 L677 974 L678 973 L678 971 L680 969 L680 967 L682 965 L684 965 L686 967 L686 968 L687 969 L687 977 L686 978 L686 992 L685 993 L685 999 L686 1000 L688 1000 L689 999 L689 998 L690 997 L690 996 L691 995 L691 994 L692 993 L692 992 L693 991 L693 988 L694 987 L694 983 L695 982 L695 978 L696 977 L696 974 L695 973 L695 966 L696 965 L697 966 L698 966 L700 968 L701 968 L710 977 L710 978 L711 979 L711 980 L712 981 L712 984 L713 985 L713 987 L714 988 L714 992 L715 993 L715 996 L716 997 L716 1000 L717 1001 L717 1004 L718 1005 L718 1007 L719 1008 L719 1010 L720 1011 L720 1013 L721 1014 L721 1016 L722 1017 L722 1022 L723 1023 L724 1022 L724 1020 L725 1019 L725 1018 L726 1017 L726 1015 L727 1014 L727 1012 L728 1011 L728 1009 L729 1008 L729 1002 L730 1001 L730 984 L729 983 L729 978 L728 977 L728 974 L727 973 L727 972 L726 971 L726 970 L725 969 L725 968 L724 967 L724 966 L721 963 L721 962 L718 959 L718 958 L710 950 L709 950 L706 947 L705 947 L703 945 L702 945 L701 944 L702 943 L705 943 L706 942 L710 942 L711 941 L715 941 L716 940 L720 940 L721 939 L732 939 L733 940 L737 940 L738 941 L739 941 L740 942 L742 942 L744 944 L745 944 L749 948 L750 948 L751 949 L754 949 L755 950 L756 950 L759 953 L759 954 L766 961 L767 961 L768 962 L771 962 L771 955 L770 954 L770 950 L769 949 L769 948 L767 946 L767 945 L763 941 L763 940 L757 934 L756 934 L755 933 L754 933 L752 931 L751 931 L750 930 L749 930 L748 929 L747 929 L745 927 L744 927 L743 926 L742 926 L740 924 L739 924 L737 922 L735 922 L734 921 L732 921 L731 920 L728 920 L727 919 L717 919 L716 920 L711 920 L710 919 L710 918 L715 913 L715 912 L717 910 L717 909 L719 907 L719 906 L720 905 L720 904 L721 903 L721 902 L723 900 L723 898 L724 897 L724 895 L725 894 L725 891 L726 890 L726 882 L727 881 L727 865 L726 864 L726 858 L725 857 L725 853 L724 852 L723 852 L722 853 L722 862 L721 863 L721 871 L720 872 L720 876 L719 877 L719 879 L718 880 L718 882 L717 883 L717 884 L716 885 L716 887 L715 888 L715 889 L714 890 L714 892 L713 893 L713 895 L712 896 L712 898 L711 899 L710 898 L710 895 L711 894 L711 891 L712 890 L712 874 L711 873 L711 866 L710 865 L710 862 L709 861 L709 855 L708 854 L708 850 L707 849 L707 845 L706 844 L706 832 L705 831 L703 831 L702 832 L701 832 L700 833 L699 833 L698 834 L698 836 L699 837 L699 842 L700 843 L700 851 L701 852 L701 856 L702 857 L702 862 L703 863 L703 873 L702 874 L702 880 L703 881 L702 882 L702 886 L701 887 L701 889 L700 890 L700 891 L699 892 L697 890 L697 884 L696 883 L696 881 L695 880 L695 879 L694 878 L694 877 L692 877 L692 879 L691 880 L691 884 L690 885 L690 891 L689 892 L689 896 L688 897 L688 898 L687 899 L687 901 L685 903 L684 902 L684 896 L685 895 L685 890 L686 889 L686 860 L687 859 L687 818 L688 817 L688 767 L687 766 L688 765 L688 763 L687 762 L687 739 L686 738 L686 721 L685 720 L685 717 L684 716 L684 714 L683 713 L683 711 L682 710 L682 708 L681 707 L681 702 L682 701 L683 701 L685 703 L685 704 L686 705 L686 706 L687 707 L687 708 L688 709 L688 712 L689 713 L689 714 L690 715 L690 718 L691 719 L691 720 L692 721 L692 722 L698 728 L698 729 L702 733 L702 734 L705 737 L705 738 L710 743 L711 743 L714 746 L715 746 L717 748 L718 748 L719 749 L720 749 L722 751 L723 751 L725 753 L729 753 L730 752 L729 751 L729 750 L727 748 L727 747 L716 736 L716 735 L713 732 L713 731 L710 728 L710 727 L708 725 L708 724 L706 722 L706 721 L705 720 L705 719 L703 717 L703 716 L699 712 L699 711 L697 709 L697 708 L696 707 L696 706 L695 705 L695 704 L694 703 L694 702 L693 701 L693 700 L692 699 L692 698 L691 697 L691 695 L690 694 L690 690 L689 689 L689 687 L688 686 L688 685 L687 684 L687 683 L686 682 L686 681 L685 680 L685 679 L684 678 L684 677 L682 675 L682 674 L681 673 L681 672 L680 671 L680 670 L679 669 L679 668 L678 667 L678 666 L677 665 L677 663 L676 662 L676 661 L675 660 L675 659 L674 658 L674 653 L673 652 L673 644 L672 643 L672 638 L671 637 L671 635 L670 634 L670 631 L669 630 L669 629 L668 628 L668 626 L667 625 L667 623 L666 622 L666 620 L665 619 L665 615 L664 614 L664 612 L663 611 L663 610 L662 609 L662 605 L661 604 L661 600 L660 599 L660 596 L659 595 L659 594 L658 593 L658 590 L657 589 L657 587 L656 586 L656 584 L669 571 L669 570 L670 569 L670 567 L671 566 L671 562 L672 561 L672 558 L673 557 L673 555 L674 554 L674 546 L675 545 L675 536 L676 535 L676 534 L677 533 L678 534 L678 535 L680 537 L680 539 L681 540 L681 541 L682 542 L682 543 L683 544 L683 545 L686 548 L687 548 L688 549 L688 550 L689 551 L689 552 L691 554 L691 555 L693 557 L693 558 L696 561 L696 562 L699 565 L699 567 L700 568 L700 569 L701 570 L701 571 L702 572 L702 573 L704 575 L704 576 L705 577 L705 578 L706 579 L706 580 L707 581 L707 582 L709 584 L709 585 L710 586 L710 587 L711 588 L711 590 L712 591 L712 593 L713 594 L713 595 L714 596 L714 597 L715 598 L715 599 L716 600 L716 601 L717 602 L718 602 L719 603 L719 604 L720 605 L720 606 L721 607 L721 610 L722 611 L722 615 L723 616 L723 619 L724 620 L724 621 L726 623 L726 626 L727 627 L727 686 L726 687 L726 692 L725 693 L725 701 L724 702 L724 710 L725 711 L725 712 L727 712 L728 711 L728 710 L729 709 L729 708 L730 707 L730 705 L731 704 L731 703 L732 702 L732 699 L733 698 L733 695 L734 694 L734 690 L735 689 L735 685 L736 684 L736 681 L737 680 L737 676 L738 675 L738 671 L739 670 L739 667 L740 666 L740 664 L741 663 L741 661 L742 660 L742 659 L743 658 L745 660 L745 661 L746 662 L746 666 L747 667 L747 670 L748 671 L748 672 L749 673 L749 675 L750 676 L750 677 L751 678 L751 680 L752 681 L752 684 L753 685 L753 687 L754 688 L754 690 L755 691 L755 693 L756 694 L756 696 L757 697 L757 700 L758 701 L758 705 L759 706 L759 709 L760 710 L760 714 L761 715 L761 720 L762 721 L762 726 L763 727 L763 736 L764 737 L764 743 L763 744 L761 742 L761 741 L760 740 L760 739 L759 738 L759 736 L758 735 L758 733 L757 732 L757 730 L756 729 L756 728 L755 727 L755 725 L753 723 L753 722 L751 720 L751 719 L749 717 L749 716 L741 708 L739 708 L739 714 L740 715 L740 720 L741 721 L741 725 L742 726 L742 729 L743 730 L743 733 L744 734 L744 739 L745 740 L745 745 L746 746 L746 750 L747 751 L747 754 L748 755 L748 757 L749 758 L749 759 L750 760 L750 761 L751 762 L751 763 L753 765 L753 766 L755 768 L755 769 L756 770 L755 771 L747 771 L746 772 L740 772 L739 773 L738 773 L737 774 L735 774 L733 776 L732 776 L730 778 L729 778 L728 779 L727 779 L726 780 L725 780 L723 782 L722 782 L720 784 L719 784 L717 786 L716 786 L713 789 L713 790 L711 792 L711 793 L710 794 L710 796 L709 797 L709 800 L708 801 L708 803 L707 804 L707 805 L706 806 L706 811 L707 812 L708 812 L709 811 L710 811 L714 807 L715 807 L715 806 L716 805 L717 805 L722 800 L723 800 L727 796 L728 796 L730 794 L731 794 L733 792 L734 792 L735 791 L737 791 L738 790 L740 790 L741 789 L744 789 L745 790 L744 791 L744 792 L741 795 L741 796 L739 798 L739 799 L738 800 L738 801 L736 803 L736 805 L735 806 L735 813 L734 814 L734 826 L735 827 L735 833 L736 834 L736 837 L737 838 L737 841 L738 842 L738 843 L739 844 L739 846 L740 847 L740 848 L741 849 L742 849 L743 848 L743 839 L742 838 L742 837 L743 836 L743 831 L744 830 L744 828 L745 827 L745 824 L746 823 L746 820 L747 819 L747 818 L748 817 L748 816 L749 815 L749 814 L750 813 L750 812 L752 810 L752 809 L753 808 L753 807 L754 806 L754 805 L756 803 L756 802 L760 798 L761 798 L762 797 L763 797 L764 798 L764 804 L763 805 L763 816 L765 818 L766 818 L769 815 L769 813 L770 812 L770 811 L771 810 L771 809 L773 807 L773 806 L776 803 L778 805 L778 806 L779 807 L779 808 L780 809 L780 811 L781 812 L781 814 L782 815 L782 835 L781 836 L781 843 L780 844 L780 847 L779 848 L779 849 L778 850 L778 852 L777 853 L777 855 L776 856 L776 858 L775 859 L775 861 L774 862 L774 865 L775 866 L775 869 L777 869 L783 863 L783 862 L789 856 L789 855 L791 853 L791 852 L792 851 L792 850 L793 849 L793 847 L794 846 L794 845 L795 844 L795 842 L796 841 L796 839 L797 838 L797 836 L798 835 L798 831 L799 830 L799 826 L800 825 L800 817 L801 816 L802 816 L806 820 L806 821 L807 822 L807 823 L808 824 L808 825 L809 826 L809 827 L810 828 L810 830 L811 831 L811 832 L812 833 L812 835 L813 836 L813 838 L814 839 L814 841 L815 842 L815 844 L816 845 L816 847 L817 848 L817 851 L818 852 L818 858 L819 859 L819 870 L820 871 L820 873 L821 874 L824 871 L824 869 L825 868 L825 867 L826 866 L826 863 L827 862 L827 860 L828 859 L828 856 L829 855 L829 848 L830 847 L829 846 L829 834 L828 833 L828 828 L827 827 L827 825 L826 824 L826 822 L825 821 L825 820 L823 818 L823 817 L822 816 L822 815 L820 813 L820 812 L818 810 L818 809 L815 806 L815 805 L812 802 L812 801 L809 798 L809 797 L804 792 L804 791 L795 782 L796 781 L799 781 L800 782 L801 782 L809 790 L809 791 L813 795 L813 796 L818 801 L818 802 L822 806 L822 807 L824 809 L824 810 L825 811 L825 812 L827 814 L827 815 L828 816 L828 817 L829 818 L829 819 L830 820 L830 821 L832 823 L833 823 L833 820 L834 819 L834 818 L833 817 L833 816 L834 815 L834 814 L833 813 L833 806 L832 805 L832 803 L831 802 L831 799 L830 798 L830 796 L829 795 L829 793 L828 792 L828 791 L827 790 L827 789 L826 788 L826 787 L824 785 L824 784 L823 783 L823 782 L822 781 L822 780 L820 778 L820 777 L817 774 L817 773 L816 773 L814 771 L813 771 L812 770 L811 770 L810 769 L808 769 L807 768 L805 768 L804 767 L808 763 L809 763 L810 762 L811 762 L813 760 L814 760 L815 759 L816 759 L817 758 L818 758 L819 757 L820 757 L822 755 L823 755 L825 753 L826 753 L828 751 L829 751 L832 748 L833 748 L834 747 L835 747 L836 746 L838 746 L839 745 L840 745 L841 744 L844 744 L845 743 L849 743 L850 742 L869 742 L870 743 L873 743 L874 744 L877 744 L878 745 L882 745 L883 746 L884 746 L885 745 L886 745 L888 743 L888 741 L887 740 L887 739 L886 739 L885 738 L884 738 L883 737 L882 737 L881 736 L879 736 L878 735 L877 735 L875 733 L874 733 L873 732 L872 732 L871 731 L869 731 L868 730 L864 730 L863 729 L839 729 L838 730 L837 730 L836 731 L834 731 L833 732 L832 732 L831 733 L829 733 L828 734 L826 734 L825 735 L824 735 L823 736 L820 736 L819 737 L818 737 L816 739 L815 739 L813 741 L812 741 L810 743 L809 743 L806 746 L805 746 L803 748 L802 748 L799 751 L798 751 L792 757 L791 756 L791 755 L793 753 L793 752 L799 746 L799 745 L803 741 L803 740 L806 737 L806 736 L808 734 L808 733 L809 732 L809 731 L811 729 L811 728 L813 726 L813 725 L822 716 L823 716 L827 712 L828 712 L830 710 L830 709 L824 709 L823 710 L820 710 L819 711 L818 711 L817 712 L816 712 L815 713 L814 713 L813 714 L812 714 L811 715 L810 715 L808 717 L807 717 L805 719 L804 719 L802 721 L801 721 L795 727 L794 727 L793 728 L792 727 L792 724 L793 723 L793 712 L794 711 L794 702 L795 701 L795 698 L796 697 L796 694 L797 693 L797 691 L798 690 L798 689 L799 688 L799 686 L800 685 L800 684 L801 683 L801 682 L802 681 L802 680 L803 679 L803 677 L804 676 L804 675 L805 674 L805 673 L806 672 L806 671 L807 670 L807 669 L808 668 L808 666 L809 665 L809 663 L810 662 L810 660 L811 659 L811 658 L810 657 L809 657 L808 658 L807 658 L802 663 L802 664 L798 668 L798 669 L793 674 L793 675 L791 677 L791 678 L789 680 L789 681 L787 683 L787 684 L785 686 L785 687 L784 688 L784 689 L783 690 L783 691 L782 692 L782 693 L781 694 L781 695 L780 696 L780 697 L779 698 L779 700 L778 701 L778 702 L777 703 L777 706 L776 707 L776 712 L774 714 L773 713 L773 711 L772 710 L772 708 L771 707 L771 703 L770 702 L770 700 L769 699 L769 694 L768 693 L768 691 L767 690 L767 686 L766 685 L766 683 L764 681 L764 680 L763 679 L763 678 L762 677 L762 673 L761 672 L761 668 L760 667 L760 666 L759 665 L759 663 L758 662 L758 660 L757 659 L757 657 L756 656 L756 654 L755 653 L755 651 L754 650 L754 648 L753 647 L753 646 L752 645 L752 644 L751 643 L751 642 L750 641 L750 640 L749 639 L749 618 L750 617 L750 610 L751 609 L751 574 L752 573 L752 536 L751 535 L751 523 L750 522 L750 513 L749 512 L749 509 L748 508 L748 506 L749 505 L750 505 L751 506 L752 506 L754 508 L755 508 L758 511 L759 511 L760 512 L761 512 L763 514 L764 514 L765 515 L766 515 L767 516 L768 516 L769 517 L770 517 L771 518 L772 518 L775 521 L775 528 L776 529 L776 545 L777 546 L777 555 L778 556 L778 564 L779 565 L779 567 L780 568 L780 569 L781 570 L783 570 L783 569 L784 568 L784 566 L785 565 L785 563 L786 562 L786 560 L787 559 L787 557 L788 556 L788 554 L789 553 L789 552 L790 551 L789 550 L790 549 L790 540 L791 539 L791 537 L792 536 L793 536 L794 537 L795 537 L796 538 L798 538 L799 539 L800 539 L806 545 L806 546 L820 560 L821 560 L829 568 L829 569 L831 571 L831 572 L833 574 L833 575 L834 576 L835 576 L839 580 L839 581 L841 583 L841 584 L843 586 L843 587 L846 590 L846 591 L849 594 L849 595 L851 597 L851 598 L853 600 L853 601 L854 602 L854 603 L855 604 L855 605 L857 607 L857 608 L859 610 L859 611 L862 614 L862 615 L865 618 L865 619 L866 620 L866 621 L867 622 L867 623 L868 624 L868 625 L869 626 L869 628 L870 629 L870 631 L871 632 L871 633 L874 633 L874 621 L873 620 L873 617 L872 616 L872 614 L871 613 L871 610 L870 609 L870 607 L869 606 L869 605 L868 604 L868 602 L867 601 L867 599 L866 598 L866 597 L865 596 L865 594 L864 593 L864 592 L862 590 L862 589 L861 588 L861 586 L860 585 L860 584 L859 583 L859 582 L858 581 L858 580 L857 579 L857 578 L856 577 L856 576 L855 575 L855 574 L854 573 L854 572 L852 570 L852 569 L851 568 L851 567 L850 566 L850 565 L849 564 L849 563 L848 562 L848 560 L846 558 L846 557 L845 556 L845 555 L843 553 L843 552 L842 551 L842 550 L840 548 L840 547 L839 546 L839 545 L837 543 L837 542 L836 541 L836 540 L833 537 L833 536 L831 534 L831 533 L829 531 L829 530 L826 527 L826 526 L823 523 L823 522 L819 518 L819 517 L812 510 L812 509 L804 501 L803 501 L799 497 L799 496 L794 491 L794 490 L793 489 L793 481 L794 480 L794 441 L793 440 L793 431 L792 430 L792 427 L791 426 L791 424 L790 423 L790 414 L789 413 L789 410 L788 409 L788 406 L787 405 L787 401 L786 400 L786 399 L785 398 L785 395 L784 394 L784 390 L783 389 L783 386 L782 385 L782 382 L781 381 L781 379 L780 378 L780 375 L779 374 L779 373 L780 372 L785 372 L786 373 L790 373 L791 374 L796 374 L797 375 L800 375 L801 376 L803 376 L804 377 L805 377 L806 378 L807 378 L808 379 L810 379 L811 380 L812 380 L814 382 L815 382 L816 383 L817 383 L818 384 L819 384 L820 385 L821 385 L822 386 L823 386 L824 387 L825 387 L826 388 L827 388 L828 389 L829 389 L831 391 L832 391 L834 393 L835 393 L838 396 L839 396 L842 399 L843 399 L847 403 L848 403 L852 407 L852 408 L858 414 L858 415 L862 419 L862 420 L868 426 L868 427 L870 429 L870 430 L872 432 L872 433 L874 435 L874 436 L876 438 L876 439 L877 440 L877 441 L879 443 L879 444 L881 446 L881 447 L882 448 L882 449 L883 450 L883 451 L884 452 L884 453 L885 454 L885 455 L887 457 L887 458 L888 459 L888 460 L889 461 L889 462 L890 463 L890 464 L891 465 L891 466 L892 467 L892 468 L893 469 L893 470 L894 471 L894 473 L895 474 L895 476 L897 478 L898 478 L899 477 L899 466 L898 465 L898 461 L897 460 L897 458 L896 457 L896 455 L895 454 L895 453 L894 452 L894 450 L893 449 L893 447 L891 445 L891 444 L890 443 L890 442 L889 441 L889 436 L888 435 L888 434 L887 433 L887 432 L886 431 L886 430 L885 429 L885 428 L884 427 L884 426 L883 425 L883 424 L882 423 L882 421 L881 420 L881 418 L880 417 L880 416 L879 415 L879 414 L877 412 L877 411 L876 410 L876 409 L874 407 L874 406 L873 405 L873 404 L871 402 L871 401 L870 400 L870 399 L869 398 L869 397 L868 396 L868 395 L864 391 L864 390 L857 383 L857 382 L853 378 L852 378 L847 373 L846 373 L843 370 L842 370 L838 366 L837 366 L835 364 L834 364 L832 362 L831 362 L829 360 L828 360 L827 359 L826 359 L825 358 L824 358 L822 356 L821 356 L820 355 L819 355 L817 353 L816 353 L815 352 L814 352 L812 350 L811 350 L810 349 L809 349 L808 348 L807 348 L805 346 L803 346 L802 345 L801 345 L800 344 L799 344 L798 343 L797 343 L796 342 L795 342 L794 341 L793 341 L792 340 L791 340 L790 339 L788 339 L787 338 L785 338 L784 337 L782 337 L781 336 L778 336 L777 335 L776 335 L775 334 L772 334 L771 333 L765 333 L764 332 L761 332 L760 331 L760 330 L758 328 L758 327 L756 325 L756 324 L755 323 L755 322 L753 320 L753 319 L750 316 L750 315 L745 310 L745 309 L736 300 L735 300 L728 293 L727 293 L724 290 L723 290 L722 289 L721 289 L719 287 L718 287 L717 286 L716 286 L715 285 L714 285 L713 284 L712 284 L711 283 L710 283 L709 282 L708 282 L707 281 L705 281 L704 280 L703 280 L702 279 L697 279 L696 278 L682 278 L681 277 L679 277 L678 278 L677 277 L668 277 L667 276 L661 276 L660 275 L645 275 L644 276 L639 276 L638 275 L638 274 L642 270 L643 270 L645 268 L646 268 L647 267 L648 267 L649 266 L650 266 L652 264 L653 264 L654 263 L655 263 L656 262 L657 262 L660 259 L661 259 L664 256 L665 256 L667 254 L668 254 L670 252 L671 252 L673 250 L674 250 L675 249 L676 249 L678 247 L679 247 L680 246 L681 246 L684 243 L685 243 L686 242 L687 242 L689 240 L690 240 L691 239 L692 239 L693 238 L694 238 L695 237 L696 237 L697 236 L699 236 L700 235 L701 235 L702 234 L705 234 L706 233 L708 233 L709 232 L710 232 L711 231 L712 231 L713 230 L715 230 L716 229 L717 229 L718 228 L720 228 L721 227 L731 227 L732 228 L735 228 L736 229 L738 229 L739 230 L740 230 L741 231 L743 231 L744 232 L745 232 L746 233 L747 233 L748 234 L749 234 L751 236 L752 236 L753 237 L754 237 L756 239 L757 239 L758 240 L759 240 L761 242 L762 242 L763 243 L764 243 L766 245 L767 245 L770 248 L771 248 L775 252 L776 252 L790 266 L790 267 L796 273 L796 274 L799 277 L799 278 L801 280 L801 281 L803 283 L803 284 L805 286 L805 287 L806 288 L806 289 L807 290 L807 291 L809 293 L809 294 L810 295 L810 296 L811 297 L811 298 L812 299 L812 300 L813 301 L813 303 L814 304 L814 305 L815 306 L815 307 L817 309 L817 310 L818 311 L818 313 L819 314 L819 315 L820 316 L820 318 L821 319 L821 321 L822 322 L822 324 L823 325 L823 328 L824 329 L824 330 L826 330 L827 329 L827 325 L828 324 L828 320 L827 319 L827 308 L826 307 L826 304 L825 303 L825 300 L824 299 L824 294 L823 293 L823 290 L822 289 L822 287 L821 286 L821 284 L820 283 L820 281 L819 280 L819 279 L818 278 L818 276 L817 275 L817 273 L816 272 L816 270 L815 269 L815 268 L814 267 L814 266 L813 265 L813 263 L812 262 L812 261 L810 259 L810 258 L809 257 L809 256 L807 254 L807 253 L806 252 L806 251 L804 249 L804 248 L802 246 L802 245 L799 242 L799 241 L792 234 L792 233 L785 226 L785 225 L781 221 L780 221 L777 218 L776 218 L775 217 L774 217 L772 215 L771 215 L770 214 L768 214 L767 213 L766 213 L765 212 L764 212 L763 211 L761 211 L760 210 L758 210 L757 209 L754 209 L753 208 L751 208 L750 207 L746 207 L745 206 L742 206 L741 205 L736 205 L735 204 L729 204 L728 203 L712 203 L711 202 L705 202 L704 201 L691 201 L690 202 L686 202 L685 203 L682 203 L681 204 L679 204 L678 205 L677 205 L676 206 L675 206 L674 207 L672 207 L671 208 L670 208 L669 209 L667 209 L666 210 L665 210 L664 211 L663 211 L662 212 L660 212 L659 213 L658 213 L657 214 L656 214 L655 215 L654 215 L653 216 L651 216 L650 217 L649 217 L648 218 L647 218 L646 219 L645 219 L644 220 L643 220 L641 222 L640 222 L637 225 L636 225 L635 226 L635 227 L634 228 L633 228 L627 234 L625 234 L623 236 L622 236 L620 238 L619 238 L598 259 L598 260 L593 265 L592 265 L590 267 L589 267 L589 268 L586 271 L586 272 L578 280 L578 281 L574 285 L574 286 L573 287 L573 288 L572 289 L571 289 L570 288 L570 286 L572 284 L572 282 L573 281 L573 279 L575 277 L575 276 L577 274 L577 273 L579 271 L579 270 L581 268 L581 267 L582 266 L582 265 L584 263 L584 262 L587 259 L587 258 L591 254 L591 253 L594 250 L594 249 L597 246 L597 245 L599 243 L599 242 L600 241 L600 240 L601 239 L601 238 L602 237 L602 236 L612 226 L612 225 L614 223 L614 222 L615 221 L615 220 L619 216 L619 215 L629 205 L629 204 L631 202 L631 201 L647 185 L647 184 L656 175 L657 175 L659 173 L660 173 L667 166 L668 166 L677 157 L677 156 L680 153 L681 153 L684 150 L685 150 L687 148 L688 148 L689 147 L690 147 L693 144 L694 144 L702 136 L703 136 L707 132 L708 132 L711 129 L712 129 L716 125 L717 125 L720 122 L721 122 L723 120 L724 120 L727 117 L728 117 L729 116 L730 116 L732 114 L733 114 L736 111 L737 111 L741 107 L742 107 L744 105 L745 105 L747 103 L748 103 L750 101 L751 101 L753 99 L754 99 L755 98 L756 98 L758 96 L759 96 L760 95 L761 95 L763 93 L764 93 L765 92 L766 92 L768 90 L769 90 L770 89 L771 89 L773 87 L774 87 L775 86 L776 86 L777 85 L778 85 L780 83 L781 83 L782 82 L783 82 L784 81 L785 81 L786 80 L787 80 L788 79 L789 79 L790 78 L792 78 L793 77 L794 77 L795 76 L797 76 L798 75 L800 75 L801 74 L803 74 L804 73 L806 73 L807 72 L809 72 L810 71 L812 71 L815 68 L816 68 L817 67 L818 67 L819 66 L821 66 L822 65 L826 65 L827 64 L828 64 L829 63 L830 63 L831 62 L832 62 L833 61 L831 59 L821 59 L820 60 L818 60 L817 61 L814 61 L813 62 L811 62 L810 63 L808 63 L807 64 L804 64 L803 65 L800 65 L799 66 L796 66 L795 67 L791 67 L790 68 L786 68 L785 69 L782 69 L781 70 L779 70 L778 71 L776 71 L775 72 L773 72 L772 73 L771 73 L770 74 L768 74 L767 75 L766 75 L765 76 L763 76 L762 77 L759 77 L758 78 L757 78 L756 79 L755 79 L754 80 L752 80 L751 81 L750 81 L749 82 L748 82 L747 83 L745 83 L744 84 L743 84 L742 85 L741 85 L740 86 L738 86 L737 87 L736 87 L735 88 L734 88 L733 89 L732 89 L731 90 L729 90 L728 91 L727 91 L726 92 L723 92 L722 93 L721 93 L720 94 L719 94 L718 95 L717 95 L716 96 L715 96 L714 97 L713 97 L712 98 L711 98 L709 100 L708 100 L707 101 L706 101 L705 102 L704 102 L703 103 L702 103 L701 104 L699 104 L698 105 L696 105 L693 108 L692 108 L689 111 L688 111 L686 113 L685 113 L683 115 L682 115 L681 116 L680 116 L679 117 L678 117 L677 118 L676 118 L674 120 L673 120 L672 121 L671 121 L669 123 L668 123 L666 125 L665 125 L661 129 L660 129 L658 131 L657 131 L653 135 L652 135 L647 140 L646 140 L642 144 L641 144 L637 148 L636 148 L632 152 L631 152 L619 164 L618 164 L610 172 L609 172 L603 178 L603 179 L592 190 L591 190 L589 192 L589 193 L587 195 L587 196 L575 208 L575 209 L571 213 L571 214 L567 218 L567 219 L564 222 L564 223 L561 226 L561 227 L559 229 L559 230 L555 234 L555 235 L553 237 L553 238 L551 240 L551 241 L548 244 L548 245 L545 248 L545 249 L544 250 L544 251 L542 253 L542 254 L541 255 L541 256 L540 257 L540 258 L539 259 L539 260 L538 261 L538 262 L537 263 L537 264 L536 265 L536 266 L535 267 L535 268 L534 269 L534 270 L531 273 L531 274 L529 276 L528 275 L528 272 L529 271 L529 268 L530 267 L530 265 L531 264 L531 261 L532 260 L532 259 L533 258 L533 256 L534 255 L534 252 L535 251 L535 249 L536 248 L536 246 L537 245 L537 244 L538 243 L538 242 L539 241 L539 240 L540 239 L540 237 L541 236 L541 234 L542 233 L542 231 L543 230 L543 229 L544 228 L544 226 L545 225 L545 223 L546 222 L546 221 L547 220 L547 219 L548 218 L548 216 L549 215 L549 214 L550 213 L550 211 L551 210 L551 209 L552 208 L552 207 L553 206 L553 205 L554 204 L554 202 L555 201 L555 200 L556 199 L556 196 L557 195 L557 193 L558 192 L558 191 L560 189 L560 188 L561 187 L561 186 L564 183 L564 182 L565 181 L565 180 L566 179 L566 178 L568 176 L568 175 L569 174 L569 173 L570 172 L570 171 L571 170 L571 168 L572 167 L572 166 L573 165 L573 163 L574 162 L574 161 L575 160 L575 159 L576 158 L576 157 L577 156 L577 155 L578 154 L578 153 L581 150 L581 149 L584 146 L584 145 L585 144 L585 143 L586 142 L586 141 L587 140 L587 138 L589 136 L589 135 L590 134 L590 133 L591 132 L591 131 L593 129 L593 128 L595 126 L595 125 L598 122 L598 121 L599 120 L599 119 L601 117 L601 116 L603 114 L603 113 L604 112 L604 111 L605 110 L605 109 L607 107 L607 106 L612 101 L612 100 L613 99 L613 98 L615 96 L615 95 L617 93 L617 92 L618 91 L618 90 L620 88 L620 87 L621 86 L621 85 L622 84 L622 83 L623 82 L623 81 L624 80 L624 79 L630 73 L631 73 L632 72 L632 71 L633 70 L633 69 L634 68 L634 67 L635 66 L635 64 L648 51 L648 50 L660 38 L660 37 L669 28 L669 27 L672 24 L672 23 L681 14 L681 13 L682 12 L682 11 Z M880 0 L880 8 L884 12 L886 12 L887 13 L893 13 L894 14 L892 16 L891 16 L888 19 L887 19 L882 24 L882 25 L880 27 L880 29 L879 30 L879 32 L878 33 L878 39 L879 40 L879 42 L880 43 L881 43 L883 45 L886 45 L887 46 L900 46 L901 45 L905 45 L906 44 L910 44 L910 0 Z " fill="black"/></svg>