<svg width="560" height="581" xmlns="http://www.w3.org/2000/svg"><path d="M262 11 L261 12 L253 12 L252 13 L248 13 L247 14 L242 14 L241 15 L238 15 L237 16 L234 16 L233 17 L229 17 L228 18 L225 18 L224 19 L222 19 L221 20 L219 20 L218 21 L215 21 L214 22 L212 22 L211 23 L209 23 L208 24 L206 24 L205 25 L204 25 L203 26 L201 26 L200 27 L199 27 L198 28 L196 28 L195 29 L194 29 L193 30 L192 30 L191 31 L190 31 L189 32 L188 32 L187 33 L186 33 L185 34 L184 34 L182 36 L181 36 L180 37 L179 37 L176 40 L175 40 L166 49 L166 50 L164 52 L164 53 L163 54 L163 55 L162 56 L162 57 L161 58 L161 59 L160 60 L160 61 L159 62 L159 64 L158 65 L158 66 L157 67 L157 69 L156 70 L156 72 L155 73 L155 76 L154 77 L154 79 L153 80 L153 83 L152 84 L152 87 L151 88 L151 91 L150 92 L150 95 L149 96 L149 100 L148 101 L148 104 L147 105 L147 109 L146 110 L146 114 L145 115 L145 119 L144 120 L144 123 L143 124 L143 128 L142 129 L142 134 L141 135 L141 140 L140 141 L140 142 L139 143 L138 143 L137 144 L135 144 L134 145 L132 145 L131 146 L128 146 L127 147 L125 147 L124 148 L122 148 L121 149 L119 149 L118 150 L117 150 L116 151 L114 151 L113 152 L111 152 L110 153 L108 153 L107 154 L106 154 L105 155 L103 155 L102 156 L101 156 L100 157 L98 157 L97 158 L96 158 L95 159 L93 159 L92 160 L91 160 L90 161 L88 161 L87 162 L86 162 L85 163 L83 163 L82 164 L81 164 L80 165 L79 165 L78 166 L76 166 L75 167 L74 167 L73 168 L72 168 L71 169 L69 169 L68 170 L67 170 L66 171 L64 171 L63 172 L62 172 L61 173 L60 173 L59 174 L58 174 L57 175 L56 175 L55 176 L53 176 L52 177 L51 177 L50 178 L49 178 L48 179 L47 179 L46 180 L45 180 L44 181 L43 181 L42 182 L41 182 L40 183 L39 183 L38 184 L37 184 L35 186 L34 186 L32 188 L31 188 L28 191 L27 191 L17 201 L17 202 L15 204 L15 205 L14 206 L14 208 L13 209 L13 210 L12 211 L12 213 L11 214 L11 231 L12 232 L12 234 L13 235 L13 237 L14 238 L14 239 L15 240 L15 241 L17 243 L17 244 L18 245 L18 246 L22 250 L22 251 L27 256 L28 256 L34 262 L35 262 L37 264 L38 264 L40 266 L41 266 L43 268 L44 268 L45 269 L46 269 L47 270 L48 270 L49 271 L50 271 L51 272 L52 272 L53 273 L54 273 L55 274 L56 274 L57 275 L58 275 L59 276 L60 276 L61 277 L62 277 L63 278 L65 278 L66 279 L67 279 L68 280 L70 280 L71 281 L72 281 L73 282 L75 282 L76 283 L78 283 L79 284 L80 284 L81 285 L83 285 L84 286 L85 286 L86 287 L88 287 L89 288 L91 288 L92 289 L94 289 L95 290 L97 290 L98 291 L100 291 L101 292 L102 292 L103 293 L105 293 L106 294 L109 294 L110 295 L112 295 L113 296 L115 296 L116 297 L118 297 L119 298 L122 298 L123 299 L125 299 L126 300 L129 300 L130 301 L132 301 L133 302 L136 302 L137 303 L140 303 L141 304 L144 304 L145 305 L149 305 L150 306 L153 306 L154 307 L158 307 L159 308 L164 308 L165 309 L170 309 L171 310 L174 310 L175 311 L175 313 L176 314 L176 317 L177 318 L177 320 L178 321 L178 322 L179 323 L179 325 L180 326 L180 327 L181 328 L181 329 L182 330 L182 331 L183 332 L183 334 L184 335 L184 336 L185 337 L185 338 L186 339 L186 340 L187 341 L187 342 L188 343 L188 344 L190 346 L190 347 L191 348 L191 349 L193 351 L193 352 L194 353 L194 354 L196 356 L196 357 L197 358 L197 359 L199 361 L199 362 L201 364 L201 365 L203 367 L203 368 L205 370 L205 371 L208 374 L208 375 L211 378 L211 379 L214 382 L214 383 L218 387 L218 388 L222 392 L222 393 L225 396 L225 397 L229 401 L229 402 L234 407 L234 408 L238 412 L238 413 L241 416 L241 417 L244 420 L244 421 L246 423 L246 424 L248 426 L248 427 L250 429 L250 430 L252 432 L252 433 L254 435 L254 436 L255 437 L255 438 L256 439 L256 440 L257 441 L257 442 L258 443 L256 445 L255 445 L251 449 L251 452 L250 453 L250 457 L251 458 L251 460 L252 461 L252 463 L255 466 L257 466 L258 467 L259 467 L260 468 L259 469 L259 474 L258 475 L258 480 L257 481 L257 485 L256 486 L256 489 L255 490 L255 493 L254 494 L254 498 L253 499 L253 502 L252 503 L252 505 L251 506 L251 510 L250 511 L250 514 L249 515 L249 519 L248 520 L248 527 L247 528 L247 538 L248 539 L248 545 L249 546 L249 548 L250 549 L250 551 L251 552 L251 553 L252 554 L252 555 L253 556 L253 557 L260 564 L261 564 L262 565 L263 565 L265 567 L267 567 L268 568 L271 568 L272 569 L280 569 L281 568 L283 568 L284 567 L285 567 L288 564 L288 563 L289 562 L289 561 L290 560 L290 558 L291 557 L291 556 L292 555 L292 554 L293 553 L293 551 L294 550 L294 549 L295 548 L295 547 L296 546 L296 544 L297 543 L297 540 L298 539 L298 518 L297 517 L297 511 L296 510 L296 507 L295 506 L295 502 L294 501 L294 497 L293 496 L293 493 L292 492 L292 489 L291 488 L291 485 L290 484 L290 481 L289 480 L289 477 L288 476 L288 471 L287 470 L289 468 L291 468 L292 467 L293 467 L294 466 L294 465 L295 464 L295 462 L296 461 L296 454 L295 453 L295 451 L293 449 L293 448 L291 446 L291 441 L292 440 L292 438 L294 436 L294 435 L295 434 L295 433 L298 430 L298 429 L301 426 L301 425 L305 421 L305 420 L308 417 L308 416 L313 411 L313 410 L317 406 L317 405 L323 399 L323 398 L328 393 L328 392 L331 389 L331 388 L336 383 L336 382 L340 378 L340 377 L343 374 L343 373 L345 371 L345 370 L348 367 L348 366 L351 363 L351 362 L354 359 L354 358 L356 356 L356 355 L358 353 L358 352 L359 351 L359 350 L361 348 L361 347 L362 346 L362 345 L363 344 L363 343 L365 341 L365 340 L366 339 L366 338 L367 337 L367 336 L368 335 L368 334 L370 332 L370 331 L371 330 L371 329 L372 328 L372 327 L373 326 L373 325 L374 324 L374 323 L375 322 L375 321 L376 320 L376 319 L377 318 L377 317 L378 316 L378 315 L379 314 L379 313 L380 312 L380 311 L381 310 L381 309 L382 308 L382 306 L383 305 L383 304 L384 303 L384 302 L387 299 L392 299 L393 298 L403 298 L404 297 L413 297 L414 296 L422 296 L423 295 L431 295 L432 294 L438 294 L439 293 L443 293 L444 292 L448 292 L449 291 L453 291 L454 290 L457 290 L458 289 L461 289 L462 288 L466 288 L467 287 L470 287 L471 286 L473 286 L474 285 L477 285 L478 284 L481 284 L482 283 L484 283 L485 282 L487 282 L488 281 L489 281 L490 280 L492 280 L493 279 L494 279 L495 278 L496 278 L497 277 L498 277 L499 276 L500 276 L501 275 L503 275 L504 274 L505 274 L506 273 L507 273 L509 271 L510 271 L511 270 L512 270 L514 268 L515 268 L517 266 L518 266 L521 263 L522 263 L525 260 L526 260 L532 254 L532 253 L536 249 L536 248 L539 245 L539 244 L541 242 L541 241 L542 240 L542 239 L543 238 L543 237 L544 236 L544 234 L545 233 L545 231 L546 230 L546 228 L547 227 L547 223 L548 222 L548 217 L547 216 L547 213 L546 212 L546 210 L545 209 L545 208 L544 207 L544 206 L542 204 L542 203 L539 200 L539 199 L533 193 L532 193 L528 189 L527 189 L524 186 L523 186 L521 184 L520 184 L518 182 L517 182 L516 181 L515 181 L514 180 L513 180 L511 178 L509 178 L508 177 L507 177 L506 176 L505 176 L504 175 L503 175 L502 174 L501 174 L500 173 L499 173 L498 172 L496 172 L495 171 L494 171 L493 170 L492 170 L491 169 L489 169 L488 168 L487 168 L486 167 L484 167 L483 166 L482 166 L481 165 L480 165 L479 164 L477 164 L476 163 L475 163 L474 162 L472 162 L471 161 L470 161 L469 160 L467 160 L466 159 L465 159 L464 158 L462 158 L461 157 L460 157 L459 156 L457 156 L456 155 L454 155 L453 154 L452 154 L451 153 L449 153 L448 152 L446 152 L445 151 L443 151 L442 150 L440 150 L439 149 L437 149 L436 148 L434 148 L433 147 L431 147 L430 146 L427 146 L426 145 L424 145 L423 144 L421 144 L420 143 L419 143 L417 141 L417 140 L416 139 L416 135 L415 134 L415 130 L414 129 L414 125 L413 124 L413 119 L412 118 L412 113 L411 112 L411 109 L410 108 L410 103 L409 102 L409 99 L408 98 L408 93 L407 92 L407 89 L406 88 L406 84 L405 83 L405 80 L404 79 L404 76 L403 75 L403 72 L402 71 L402 68 L401 67 L401 65 L400 64 L400 62 L399 61 L399 60 L398 59 L398 57 L397 56 L397 55 L396 54 L396 53 L395 52 L395 51 L393 49 L393 48 L386 41 L385 41 L383 39 L382 39 L380 37 L379 37 L378 36 L377 36 L376 35 L375 35 L374 34 L373 34 L372 33 L371 33 L369 31 L367 31 L366 30 L365 30 L364 29 L363 29 L362 28 L361 28 L360 27 L358 27 L357 26 L355 26 L354 25 L353 25 L352 24 L350 24 L349 23 L347 23 L346 22 L344 22 L343 21 L341 21 L340 20 L338 20 L337 19 L334 19 L333 18 L331 18 L330 17 L326 17 L325 16 L323 16 L322 15 L318 15 L317 14 L313 14 L312 13 L306 13 L305 12 L298 12 L297 11 Z " fill="black"/></svg>