<svg width="488" height="579" xmlns="http://www.w3.org/2000/svg"><path d="M242 11 L241 12 L239 12 L238 13 L236 13 L235 14 L232 14 L231 15 L229 15 L228 16 L226 16 L225 17 L222 17 L221 18 L219 18 L218 19 L216 19 L215 20 L212 20 L211 21 L208 21 L207 22 L205 22 L204 23 L201 23 L200 24 L198 24 L197 25 L194 25 L193 26 L191 26 L190 27 L186 27 L185 28 L183 28 L182 29 L180 29 L179 30 L176 30 L175 31 L173 31 L172 32 L169 32 L168 33 L166 33 L165 34 L162 34 L161 35 L159 35 L158 36 L156 36 L155 37 L153 37 L152 38 L150 38 L149 39 L146 39 L145 40 L142 40 L141 41 L139 41 L138 42 L135 42 L134 43 L131 43 L130 44 L127 44 L126 45 L124 45 L123 46 L120 46 L119 47 L116 47 L115 48 L112 48 L111 49 L108 49 L107 50 L104 50 L103 51 L101 51 L100 52 L97 52 L96 53 L93 53 L92 54 L89 54 L88 55 L85 55 L84 56 L81 56 L80 57 L77 57 L76 58 L74 58 L73 59 L70 59 L69 60 L65 60 L64 61 L62 61 L61 62 L58 62 L57 63 L54 63 L53 64 L50 64 L49 65 L46 65 L45 66 L42 66 L41 67 L38 67 L37 68 L34 68 L33 69 L31 69 L30 70 L27 70 L26 71 L25 71 L24 72 L21 72 L20 73 L17 73 L16 74 L15 74 L14 75 L13 75 L11 77 L11 163 L12 164 L12 261 L13 262 L13 268 L12 269 L12 272 L13 273 L12 274 L13 275 L13 288 L12 289 L12 292 L13 293 L13 294 L12 295 L12 296 L13 297 L12 298 L12 431 L13 432 L13 455 L15 457 L16 457 L18 459 L19 459 L21 461 L22 461 L23 462 L24 462 L26 464 L27 464 L28 465 L29 465 L31 467 L32 467 L33 468 L38 468 L39 469 L41 469 L42 470 L43 470 L44 471 L45 471 L46 472 L47 472 L48 473 L49 473 L50 474 L51 474 L54 477 L55 477 L56 478 L57 478 L58 477 L59 478 L60 478 L61 479 L62 479 L63 480 L64 480 L65 481 L66 481 L68 483 L69 483 L70 484 L71 484 L72 485 L73 485 L74 486 L75 486 L76 487 L77 487 L78 488 L79 488 L80 489 L83 489 L84 490 L85 490 L87 492 L88 492 L89 493 L90 493 L91 494 L94 494 L96 496 L97 496 L98 497 L99 497 L100 498 L101 498 L105 502 L108 502 L109 501 L110 501 L112 503 L113 503 L115 505 L116 505 L117 506 L118 506 L119 507 L120 507 L121 508 L122 508 L123 509 L124 509 L125 510 L126 510 L127 511 L129 511 L130 512 L131 512 L132 513 L133 513 L135 515 L136 515 L137 516 L139 516 L140 517 L141 517 L142 518 L143 518 L144 519 L145 519 L146 520 L147 520 L148 521 L149 521 L150 522 L151 522 L152 523 L153 523 L154 524 L154 525 L155 525 L156 526 L161 526 L162 527 L163 527 L165 529 L166 529 L167 530 L168 530 L169 531 L170 531 L171 532 L172 532 L173 533 L174 533 L175 534 L176 534 L177 535 L178 535 L179 536 L180 536 L182 538 L183 538 L184 539 L187 539 L188 540 L189 540 L191 542 L192 542 L193 543 L195 543 L196 544 L198 544 L200 546 L201 546 L202 547 L203 547 L204 548 L205 548 L206 549 L207 549 L210 552 L211 552 L212 553 L213 552 L215 552 L216 553 L216 554 L219 557 L220 557 L222 559 L223 559 L224 560 L225 560 L226 561 L227 561 L228 562 L229 562 L230 563 L232 563 L233 564 L234 564 L235 565 L236 565 L237 566 L238 566 L239 567 L244 567 L245 566 L246 566 L247 565 L249 565 L250 564 L251 564 L252 563 L253 563 L254 562 L256 562 L257 561 L258 561 L259 560 L260 560 L261 559 L262 559 L263 558 L265 558 L270 553 L275 553 L277 551 L277 547 L278 546 L279 546 L280 547 L280 549 L281 550 L281 551 L284 551 L286 549 L294 549 L295 548 L297 548 L298 547 L300 547 L302 545 L303 545 L305 543 L306 543 L307 542 L308 542 L310 544 L310 546 L312 546 L314 544 L316 544 L317 543 L317 542 L320 539 L323 539 L324 538 L326 538 L327 537 L327 536 L331 532 L332 532 L333 533 L334 533 L335 534 L336 533 L338 533 L339 532 L339 531 L341 529 L341 528 L343 526 L344 526 L345 527 L345 528 L348 528 L353 523 L359 523 L362 520 L362 519 L364 517 L365 518 L369 518 L371 516 L371 515 L373 513 L379 513 L381 511 L382 511 L384 509 L385 510 L387 510 L389 508 L390 508 L394 504 L395 504 L397 502 L398 502 L399 501 L403 501 L404 500 L405 500 L406 499 L407 499 L411 495 L412 496 L412 497 L414 497 L415 498 L417 498 L418 497 L419 497 L420 498 L420 499 L421 500 L422 500 L423 501 L423 499 L422 498 L421 498 L420 497 L421 496 L421 495 L424 492 L426 492 L427 493 L429 493 L433 489 L434 489 L437 486 L438 486 L443 481 L443 476 L444 475 L445 475 L446 474 L447 475 L453 475 L454 474 L456 474 L457 473 L458 473 L459 472 L460 472 L461 471 L463 471 L464 470 L465 470 L466 469 L467 469 L468 468 L470 468 L471 467 L472 467 L474 465 L474 270 L475 269 L475 97 L476 96 L476 77 L473 74 L472 74 L471 73 L468 73 L467 72 L465 72 L464 71 L462 71 L461 70 L459 70 L458 69 L455 69 L454 68 L452 68 L451 67 L449 67 L448 66 L445 66 L444 65 L441 65 L440 64 L438 64 L437 63 L434 63 L433 62 L430 62 L429 61 L426 61 L425 60 L423 60 L422 59 L418 59 L417 58 L415 58 L414 57 L411 57 L410 56 L407 56 L406 55 L404 55 L403 54 L400 54 L399 53 L396 53 L395 52 L392 52 L391 51 L389 51 L388 50 L385 50 L384 49 L381 49 L380 48 L377 48 L376 47 L373 47 L372 46 L369 46 L368 45 L366 45 L365 44 L362 44 L361 43 L358 43 L357 42 L354 42 L353 41 L350 41 L349 40 L346 40 L345 39 L342 39 L341 38 L339 38 L338 37 L336 37 L335 36 L333 36 L332 35 L329 35 L328 34 L326 34 L325 33 L322 33 L321 32 L319 32 L318 31 L316 31 L315 30 L312 30 L311 29 L308 29 L307 28 L305 28 L304 27 L302 27 L301 26 L298 26 L297 25 L295 25 L294 24 L292 24 L291 23 L288 23 L287 22 L285 22 L284 21 L281 21 L280 20 L278 20 L277 19 L274 19 L273 18 L271 18 L270 17 L267 17 L266 16 L264 16 L263 15 L260 15 L259 14 L256 14 L255 13 L252 13 L251 12 L249 12 L248 11 Z " fill="black"/></svg>