<svg width="438" height="499" xmlns="http://www.w3.org/2000/svg"><path d="M115 11 L114 12 L112 12 L111 13 L109 13 L108 14 L106 14 L105 15 L104 15 L103 16 L101 16 L100 17 L99 17 L98 18 L97 18 L95 20 L94 20 L93 21 L92 21 L91 22 L90 22 L88 24 L87 24 L86 25 L85 25 L82 28 L81 28 L79 30 L78 30 L76 32 L75 32 L68 39 L68 40 L67 41 L67 42 L65 44 L65 45 L62 48 L62 49 L61 50 L60 50 L55 55 L54 55 L52 57 L50 57 L49 58 L48 58 L47 59 L44 59 L43 60 L41 60 L40 61 L39 61 L38 62 L37 62 L30 69 L30 70 L29 71 L29 72 L27 74 L27 75 L25 77 L25 78 L24 79 L24 80 L23 81 L23 82 L22 83 L22 84 L21 85 L21 86 L20 87 L20 88 L19 89 L19 90 L20 91 L23 91 L24 90 L24 89 L27 86 L27 85 L34 78 L35 78 L36 77 L37 77 L38 76 L40 76 L41 75 L43 75 L44 76 L45 75 L46 75 L47 76 L56 76 L57 77 L60 77 L61 78 L63 78 L64 79 L66 79 L67 80 L72 80 L73 81 L74 81 L75 82 L77 82 L78 83 L80 83 L81 84 L93 84 L94 83 L101 83 L102 82 L110 82 L111 83 L131 83 L132 82 L135 82 L136 81 L138 81 L139 80 L141 80 L142 79 L143 79 L144 78 L145 78 L146 77 L147 77 L150 74 L151 74 L153 72 L154 72 L156 70 L157 70 L159 68 L160 68 L162 66 L162 65 L163 64 L164 64 L165 65 L165 66 L166 67 L166 69 L167 70 L167 72 L168 73 L168 75 L169 76 L169 78 L167 80 L165 80 L164 81 L161 81 L160 82 L158 82 L157 83 L156 83 L155 84 L154 84 L153 85 L152 85 L151 86 L150 86 L149 87 L148 87 L146 89 L145 89 L141 93 L140 93 L132 101 L132 102 L130 104 L130 105 L128 107 L128 108 L127 109 L127 111 L126 112 L126 114 L125 115 L125 119 L124 120 L124 123 L123 124 L123 125 L120 128 L119 128 L118 129 L117 129 L116 130 L112 130 L109 127 L109 125 L108 124 L108 123 L107 122 L107 121 L106 120 L106 119 L105 118 L105 117 L103 115 L103 114 L100 111 L99 111 L98 110 L97 110 L96 109 L91 109 L90 108 L87 108 L86 109 L75 109 L74 110 L72 110 L71 111 L70 111 L69 112 L68 112 L67 113 L66 113 L64 115 L63 115 L55 123 L55 124 L53 126 L53 127 L50 130 L49 130 L46 133 L46 134 L45 135 L45 136 L44 137 L44 138 L43 139 L43 140 L42 141 L42 143 L41 144 L41 145 L40 146 L40 147 L39 148 L39 151 L38 152 L38 155 L37 156 L37 163 L36 164 L36 171 L35 172 L35 216 L34 217 L34 222 L33 223 L33 227 L32 228 L32 234 L31 235 L31 243 L32 244 L32 245 L33 246 L35 246 L40 241 L40 240 L43 237 L43 236 L50 229 L51 229 L52 228 L53 228 L54 227 L56 227 L57 226 L59 226 L60 225 L61 225 L62 224 L63 224 L64 223 L65 223 L66 222 L71 222 L72 221 L75 221 L76 220 L84 220 L85 219 L86 219 L87 218 L88 218 L90 216 L91 216 L92 215 L93 215 L94 214 L97 214 L98 213 L100 213 L101 212 L102 212 L104 210 L105 210 L107 208 L108 208 L112 204 L113 204 L116 201 L117 201 L120 198 L121 198 L124 195 L125 195 L129 191 L129 190 L132 187 L132 186 L136 182 L137 182 L138 183 L138 185 L139 186 L139 187 L140 188 L140 189 L141 190 L141 191 L142 192 L142 193 L143 194 L143 195 L144 196 L144 198 L145 199 L145 201 L146 202 L146 206 L147 207 L147 210 L148 211 L148 215 L149 216 L149 218 L150 219 L150 220 L152 222 L153 222 L155 224 L155 226 L154 227 L151 227 L147 223 L147 221 L146 220 L146 216 L145 215 L145 214 L144 213 L144 212 L140 208 L139 208 L138 207 L136 207 L135 206 L124 206 L123 207 L121 207 L120 208 L119 208 L118 209 L117 209 L116 210 L115 210 L114 211 L113 211 L112 212 L111 212 L109 214 L109 215 L104 220 L104 221 L101 224 L101 225 L94 232 L94 233 L93 234 L93 235 L92 236 L92 238 L91 239 L91 240 L90 241 L90 243 L89 244 L89 247 L88 248 L88 249 L87 250 L87 251 L86 252 L86 253 L85 254 L82 254 L81 253 L80 253 L79 252 L77 252 L76 251 L72 251 L71 250 L58 250 L57 251 L55 251 L54 252 L53 252 L52 253 L51 253 L49 255 L48 255 L40 263 L40 264 L39 265 L39 266 L37 268 L37 269 L36 270 L36 272 L35 273 L35 275 L34 276 L34 277 L33 278 L33 279 L32 280 L32 283 L31 284 L31 287 L30 288 L30 290 L29 291 L29 295 L28 296 L28 298 L27 299 L27 300 L26 301 L26 303 L25 304 L25 306 L24 307 L24 309 L23 310 L23 311 L22 312 L22 313 L20 315 L20 316 L19 317 L19 318 L18 319 L18 320 L17 321 L17 322 L15 324 L15 325 L14 326 L14 327 L12 329 L12 331 L11 332 L11 335 L14 335 L16 333 L17 333 L18 332 L19 332 L20 331 L21 331 L22 330 L23 330 L24 329 L25 329 L26 328 L27 328 L28 327 L29 327 L30 326 L32 326 L33 325 L36 325 L37 324 L38 324 L39 323 L40 323 L41 322 L42 322 L43 321 L46 321 L47 320 L49 320 L50 319 L51 319 L52 318 L54 318 L55 317 L56 317 L57 316 L59 316 L60 315 L61 315 L62 314 L63 314 L65 312 L66 312 L68 310 L69 310 L70 309 L71 309 L72 308 L73 308 L75 306 L76 306 L77 305 L78 305 L80 303 L81 303 L83 301 L85 303 L85 313 L86 314 L86 323 L87 324 L87 329 L88 330 L88 334 L89 335 L89 369 L88 370 L88 381 L89 382 L89 386 L90 387 L90 388 L91 389 L91 390 L93 390 L95 388 L95 387 L98 384 L98 383 L99 382 L99 381 L100 380 L100 379 L101 378 L101 377 L102 376 L102 375 L104 373 L104 372 L105 371 L105 370 L106 369 L106 368 L108 366 L108 365 L110 363 L110 362 L114 358 L115 358 L116 357 L117 357 L119 359 L119 360 L121 362 L121 364 L122 365 L122 367 L123 368 L123 372 L124 373 L124 378 L125 379 L125 383 L126 384 L126 386 L127 387 L127 390 L128 391 L128 395 L129 396 L129 400 L130 401 L130 405 L131 406 L131 408 L132 409 L132 411 L133 412 L133 414 L134 415 L134 418 L135 419 L135 425 L136 426 L136 430 L137 431 L137 434 L138 435 L138 438 L139 439 L139 441 L140 442 L140 444 L141 445 L141 447 L142 448 L142 451 L143 452 L143 454 L144 455 L144 458 L145 459 L145 460 L146 461 L146 463 L147 464 L147 465 L148 466 L148 467 L149 468 L149 469 L150 470 L150 471 L152 473 L152 474 L153 474 L156 477 L158 477 L159 478 L161 478 L162 479 L164 479 L165 480 L168 480 L169 481 L170 481 L172 483 L174 483 L175 484 L186 484 L187 485 L192 485 L193 486 L195 486 L196 487 L203 487 L204 488 L205 487 L207 487 L208 488 L210 488 L211 487 L230 487 L231 486 L239 486 L240 485 L251 485 L252 484 L261 484 L262 483 L265 483 L266 482 L267 482 L268 481 L269 481 L270 480 L271 480 L272 479 L274 479 L275 478 L276 478 L277 477 L278 477 L279 476 L279 475 L281 473 L281 472 L282 471 L282 470 L283 469 L283 468 L284 467 L284 465 L285 464 L285 463 L286 462 L286 460 L287 459 L287 456 L288 455 L288 453 L289 452 L289 448 L290 447 L290 444 L291 443 L291 440 L292 439 L292 437 L293 436 L293 432 L294 431 L294 428 L295 427 L295 422 L296 421 L296 417 L297 416 L297 412 L298 411 L298 407 L299 406 L299 401 L300 400 L300 395 L301 394 L301 390 L302 389 L302 385 L303 384 L303 380 L304 379 L304 376 L305 375 L305 372 L306 371 L306 368 L307 367 L307 364 L308 363 L308 359 L309 358 L309 355 L310 354 L310 352 L311 351 L311 350 L319 342 L319 341 L320 340 L320 337 L321 336 L321 327 L322 326 L322 299 L321 298 L321 297 L320 296 L320 295 L318 293 L317 293 L315 291 L313 291 L312 290 L310 290 L309 289 L307 289 L306 288 L303 288 L302 287 L301 287 L300 286 L297 286 L296 285 L293 285 L292 284 L290 284 L288 282 L288 279 L287 278 L287 276 L288 275 L288 272 L289 271 L290 271 L292 273 L294 273 L295 274 L297 274 L298 275 L299 275 L300 276 L301 276 L302 277 L303 277 L305 279 L306 279 L308 281 L309 281 L310 282 L311 282 L313 284 L314 284 L316 286 L317 286 L318 287 L319 287 L320 288 L321 288 L322 289 L323 289 L325 291 L326 291 L327 292 L328 292 L329 293 L330 293 L332 295 L333 295 L334 296 L335 296 L337 298 L338 298 L342 302 L343 302 L352 311 L352 314 L353 315 L353 316 L355 318 L360 318 L361 317 L361 310 L362 309 L362 308 L361 307 L361 289 L360 288 L360 283 L361 282 L361 269 L362 268 L362 249 L363 248 L365 250 L367 250 L368 251 L370 251 L371 252 L373 252 L374 253 L381 253 L382 254 L386 254 L387 255 L391 255 L392 256 L395 256 L396 257 L397 257 L398 258 L399 258 L400 259 L401 259 L402 260 L405 260 L406 261 L409 261 L410 262 L411 262 L412 263 L413 263 L414 264 L414 265 L418 269 L423 269 L424 270 L425 270 L427 268 L427 267 L426 266 L426 265 L425 264 L425 263 L424 262 L424 261 L423 260 L423 259 L422 258 L422 256 L420 254 L420 253 L419 252 L419 251 L418 250 L418 249 L417 248 L417 246 L416 245 L416 244 L415 243 L415 242 L414 241 L414 239 L413 238 L413 237 L412 236 L412 235 L411 234 L411 233 L410 232 L410 231 L409 230 L409 229 L408 228 L408 227 L407 226 L407 225 L406 224 L406 222 L405 221 L405 220 L404 219 L404 218 L403 217 L403 215 L402 214 L402 212 L401 211 L401 210 L399 208 L399 207 L395 203 L395 202 L387 194 L386 194 L384 192 L383 192 L381 190 L380 190 L376 186 L375 186 L374 185 L373 185 L372 184 L361 184 L360 185 L358 185 L357 186 L356 186 L355 187 L354 187 L353 188 L352 188 L351 189 L349 189 L348 188 L348 187 L346 185 L346 184 L348 182 L349 182 L350 181 L352 181 L353 180 L356 180 L357 179 L359 179 L360 178 L362 178 L363 177 L365 177 L366 176 L367 176 L368 175 L369 175 L370 174 L371 174 L373 172 L374 172 L375 171 L376 171 L378 169 L379 169 L380 168 L381 168 L382 167 L383 167 L384 166 L385 166 L386 165 L387 165 L388 164 L389 164 L390 163 L391 163 L392 162 L393 162 L394 161 L395 161 L396 160 L397 160 L399 158 L400 158 L401 157 L402 157 L403 156 L405 156 L406 155 L407 155 L410 152 L410 150 L408 148 L404 148 L403 149 L401 149 L400 150 L398 150 L397 151 L396 150 L394 150 L393 151 L379 151 L378 150 L376 150 L372 146 L372 145 L371 144 L370 144 L368 142 L367 142 L366 141 L364 141 L363 140 L361 140 L360 139 L358 139 L357 138 L355 138 L354 137 L352 137 L351 136 L350 136 L348 134 L348 130 L355 123 L356 123 L357 122 L359 122 L360 121 L373 121 L374 122 L376 122 L377 123 L378 123 L381 126 L381 127 L385 131 L389 131 L389 127 L388 126 L388 125 L387 124 L387 123 L385 121 L385 120 L377 112 L376 112 L374 110 L373 110 L371 108 L369 108 L368 107 L367 107 L366 106 L362 106 L361 105 L359 105 L358 104 L356 104 L355 103 L354 103 L353 102 L351 102 L349 100 L348 100 L346 98 L346 97 L344 95 L344 94 L343 93 L343 92 L341 90 L340 90 L339 89 L338 89 L337 88 L334 88 L333 87 L330 87 L329 86 L326 86 L325 85 L322 85 L320 83 L320 73 L319 72 L319 68 L318 67 L318 60 L317 59 L317 57 L316 56 L316 55 L315 54 L315 53 L314 52 L314 51 L313 50 L313 49 L312 48 L312 45 L311 44 L311 43 L310 42 L310 40 L308 38 L308 37 L306 35 L306 34 L304 32 L304 31 L302 29 L302 28 L299 25 L298 25 L296 23 L295 23 L294 22 L293 22 L292 21 L291 21 L290 20 L289 20 L288 19 L285 19 L284 18 L281 18 L280 17 L278 17 L277 16 L266 16 L265 17 L264 17 L263 18 L261 18 L260 19 L259 19 L258 20 L257 20 L256 21 L255 21 L248 28 L248 29 L247 30 L247 31 L246 32 L246 33 L245 34 L245 35 L244 36 L244 38 L243 39 L243 40 L242 41 L241 41 L240 40 L239 40 L237 38 L236 38 L235 37 L234 37 L232 35 L229 35 L228 34 L223 34 L222 33 L221 33 L220 34 L217 34 L216 35 L214 35 L213 36 L212 36 L211 37 L210 37 L208 39 L207 39 L199 47 L199 48 L198 49 L198 50 L197 51 L197 52 L196 53 L196 55 L195 56 L195 59 L194 60 L194 69 L193 70 L193 79 L194 80 L194 83 L195 84 L195 85 L196 86 L196 87 L198 89 L198 92 L197 93 L196 93 L195 94 L194 94 L193 95 L192 95 L189 92 L189 91 L187 89 L187 88 L178 79 L178 78 L177 77 L177 76 L175 74 L175 72 L174 71 L174 70 L173 69 L173 68 L172 67 L172 65 L171 64 L171 63 L169 61 L169 60 L168 59 L168 58 L166 56 L166 55 L165 54 L165 53 L164 52 L164 50 L163 49 L163 48 L161 46 L160 46 L159 45 L158 45 L157 44 L155 44 L154 45 L148 45 L147 44 L147 43 L148 42 L148 40 L149 39 L149 36 L150 35 L150 25 L149 24 L149 23 L147 21 L147 20 L143 16 L142 16 L141 15 L139 15 L138 14 L136 14 L135 13 L127 13 L126 12 L124 12 L123 11 Z " fill="black"/></svg>