<svg width="412" height="399" xmlns="http://www.w3.org/2000/svg"><path d="M366 140 Z M236 11 L236 18 L235 19 L235 23 L234 24 L234 25 L232 27 L231 26 L230 26 L229 25 L222 25 L222 31 L223 32 L223 33 L222 34 L222 35 L217 40 L216 40 L215 41 L214 41 L211 38 L210 38 L209 39 L209 41 L208 42 L208 45 L209 46 L209 48 L210 48 L211 49 L211 50 L210 51 L209 50 L207 50 L206 51 L205 51 L205 52 L204 53 L204 57 L208 57 L209 58 L210 58 L211 59 L212 59 L213 60 L212 61 L211 61 L210 62 L205 62 L204 61 L204 60 L203 61 L202 61 L201 62 L200 62 L199 61 L199 59 L198 58 L198 57 L197 56 L196 56 L195 57 L194 57 L193 58 L191 58 L189 56 L189 55 L188 54 L188 52 L186 52 L185 51 L187 49 L187 48 L184 48 L183 47 L183 39 L182 38 L180 38 L178 40 L176 40 L175 41 L174 41 L172 43 L171 43 L170 42 L170 38 L171 37 L171 31 L170 30 L170 26 L169 26 L168 27 L167 27 L165 25 L165 23 L164 22 L159 22 L157 24 L156 24 L154 26 L153 26 L152 25 L151 26 L150 25 L149 25 L148 24 L148 14 L146 12 L145 12 L144 13 L143 13 L142 14 L137 14 L136 15 L135 15 L134 16 L126 16 L125 15 L123 15 L121 13 L120 13 L119 14 L119 15 L120 16 L120 21 L121 22 L121 23 L124 26 L124 27 L128 27 L129 26 L130 26 L131 27 L133 27 L135 29 L135 30 L137 32 L137 34 L140 37 L140 39 L139 40 L139 41 L140 42 L140 43 L141 44 L143 44 L146 47 L146 51 L147 52 L147 53 L148 54 L149 54 L150 55 L152 55 L153 56 L153 57 L152 58 L149 58 L147 60 L146 60 L143 63 L142 63 L142 64 L140 66 L139 65 L139 61 L140 60 L140 59 L141 58 L141 53 L140 52 L136 52 L135 53 L134 53 L132 55 L131 55 L130 54 L130 53 L129 52 L129 50 L128 49 L123 49 L122 50 L121 50 L120 51 L119 51 L116 48 L116 43 L115 42 L115 41 L114 40 L111 40 L110 41 L108 41 L107 42 L103 42 L101 40 L101 38 L100 37 L100 36 L98 34 L87 34 L86 35 L85 35 L84 34 L84 33 L82 31 L79 31 L78 32 L78 33 L77 34 L75 34 L74 35 L70 35 L69 36 L69 39 L70 40 L70 42 L69 43 L71 45 L73 45 L74 44 L75 44 L76 43 L78 43 L79 44 L79 46 L81 48 L81 49 L82 50 L82 51 L83 51 L84 52 L86 52 L87 51 L88 51 L89 52 L89 53 L90 54 L90 55 L93 58 L95 58 L99 62 L99 63 L98 64 L98 65 L96 67 L95 67 L94 66 L92 66 L91 65 L90 65 L89 64 L88 64 L87 63 L86 63 L85 62 L74 62 L73 63 L66 63 L65 62 L60 62 L59 61 L58 62 L56 62 L55 63 L49 63 L48 62 L46 62 L45 63 L44 63 L44 64 L42 66 L42 70 L47 70 L48 71 L49 71 L50 72 L52 72 L55 75 L60 75 L61 74 L69 74 L71 76 L76 76 L77 77 L77 78 L76 79 L75 79 L75 80 L80 80 L81 81 L84 81 L85 82 L81 86 L79 86 L78 85 L77 86 L76 86 L75 87 L75 88 L73 90 L73 91 L72 92 L72 94 L71 95 L71 96 L70 97 L70 99 L69 100 L67 100 L66 101 L64 101 L63 102 L61 102 L60 103 L58 103 L57 102 L55 102 L54 103 L54 106 L56 108 L56 110 L55 111 L53 111 L52 112 L51 112 L50 113 L42 113 L41 114 L40 114 L39 115 L39 119 L41 121 L36 126 L30 126 L28 128 L28 134 L23 139 L22 139 L17 144 L16 144 L14 146 L13 146 L13 147 L12 148 L12 149 L13 150 L14 150 L15 151 L17 151 L19 149 L20 149 L21 148 L22 148 L23 149 L24 149 L25 150 L26 150 L26 149 L29 146 L29 145 L30 144 L31 144 L32 143 L32 141 L35 138 L35 135 L36 134 L37 135 L37 141 L36 142 L37 141 L38 141 L39 140 L41 140 L42 139 L47 139 L48 140 L51 137 L52 137 L57 132 L58 132 L59 131 L60 131 L64 127 L64 125 L65 124 L66 124 L69 127 L70 126 L81 126 L82 127 L83 127 L84 128 L84 129 L83 130 L82 130 L81 131 L80 130 L74 130 L73 131 L72 131 L70 133 L61 133 L60 134 L60 135 L59 136 L59 137 L58 138 L58 141 L57 142 L57 143 L55 145 L51 145 L50 146 L49 146 L48 147 L47 147 L46 148 L45 148 L44 149 L43 149 L41 151 L39 151 L38 152 L34 152 L33 153 L33 156 L34 157 L34 160 L33 161 L33 163 L35 165 L35 166 L33 168 L32 168 L30 170 L29 170 L26 173 L14 173 L13 174 L12 174 L12 175 L11 176 L11 181 L13 183 L14 183 L15 184 L17 184 L20 187 L26 187 L27 188 L31 188 L32 187 L33 187 L34 186 L35 186 L41 180 L42 180 L44 182 L45 182 L47 184 L50 184 L50 182 L49 181 L49 180 L51 178 L52 178 L53 179 L54 179 L57 182 L51 188 L51 189 L48 192 L48 194 L47 195 L47 196 L46 197 L46 200 L47 201 L49 201 L51 203 L50 204 L49 204 L46 207 L45 207 L44 208 L43 208 L40 211 L40 213 L39 214 L39 215 L38 216 L37 216 L34 219 L34 222 L35 222 L36 223 L37 222 L40 222 L42 224 L41 225 L40 225 L39 224 L38 225 L35 225 L34 226 L33 226 L32 227 L31 227 L31 228 L30 229 L30 234 L29 235 L29 242 L28 243 L28 244 L26 246 L26 247 L24 249 L24 250 L23 251 L22 251 L21 252 L21 253 L20 254 L20 255 L18 257 L18 258 L20 260 L24 260 L25 259 L26 259 L33 252 L33 251 L34 250 L34 249 L36 247 L36 246 L38 244 L40 246 L43 246 L45 244 L45 241 L46 240 L46 238 L47 237 L47 235 L48 234 L48 233 L49 232 L50 232 L51 231 L52 232 L54 232 L55 233 L56 233 L57 232 L57 231 L58 230 L59 231 L59 232 L60 233 L62 233 L62 227 L61 226 L61 223 L62 222 L63 223 L64 223 L65 224 L66 224 L70 228 L70 230 L69 231 L69 242 L68 243 L67 243 L66 244 L65 244 L61 248 L61 249 L60 250 L62 252 L73 252 L74 253 L74 254 L72 256 L71 256 L69 258 L68 258 L68 260 L69 261 L71 261 L72 262 L72 263 L71 264 L70 264 L69 265 L67 265 L65 267 L65 270 L66 270 L67 271 L69 271 L70 272 L70 273 L67 276 L67 277 L66 278 L66 282 L65 283 L65 285 L64 286 L64 289 L65 290 L65 291 L64 292 L64 293 L60 297 L60 298 L59 299 L59 300 L61 302 L63 302 L64 303 L68 303 L71 300 L71 299 L72 298 L72 296 L73 295 L73 294 L74 293 L74 292 L76 290 L78 292 L78 293 L79 293 L80 294 L82 292 L82 290 L83 289 L83 286 L84 285 L84 283 L85 282 L85 281 L86 280 L86 279 L87 278 L87 276 L88 275 L88 274 L89 273 L89 271 L90 270 L90 268 L91 267 L91 265 L92 264 L92 262 L93 261 L94 262 L94 263 L95 264 L95 269 L96 270 L96 274 L97 275 L101 275 L103 273 L103 272 L104 271 L106 273 L106 278 L107 279 L107 282 L108 283 L108 285 L109 286 L109 290 L110 291 L110 296 L111 297 L111 305 L112 306 L112 314 L113 315 L113 318 L114 319 L114 321 L115 322 L115 324 L116 325 L116 336 L117 337 L117 345 L118 346 L118 348 L119 349 L119 351 L120 352 L120 354 L121 355 L121 358 L122 359 L122 361 L123 362 L123 363 L124 364 L124 365 L129 370 L130 370 L132 372 L133 372 L135 374 L136 374 L137 375 L138 375 L139 376 L140 376 L141 377 L142 377 L143 378 L145 378 L146 379 L148 379 L149 380 L151 380 L152 381 L156 381 L157 382 L162 382 L163 383 L166 383 L167 384 L171 384 L172 385 L179 385 L180 386 L190 386 L191 387 L233 387 L234 386 L241 386 L242 385 L246 385 L247 384 L250 384 L251 383 L254 383 L255 382 L257 382 L258 381 L262 381 L263 380 L266 380 L267 379 L269 379 L270 378 L271 378 L272 377 L273 377 L274 376 L275 376 L277 374 L278 374 L280 372 L281 372 L289 364 L289 362 L290 361 L290 357 L291 356 L291 344 L292 343 L292 338 L293 337 L293 331 L294 330 L294 323 L295 322 L295 320 L296 319 L297 320 L298 320 L299 321 L299 322 L301 324 L304 324 L304 320 L305 319 L304 318 L304 308 L305 307 L305 306 L306 305 L306 284 L305 283 L305 280 L304 279 L304 277 L302 275 L302 274 L303 273 L309 273 L311 271 L311 270 L313 268 L316 271 L316 272 L317 273 L317 274 L318 275 L318 276 L319 276 L322 279 L322 282 L321 283 L321 285 L322 286 L322 287 L324 289 L324 290 L326 290 L329 293 L329 300 L330 301 L330 302 L331 302 L332 303 L334 301 L334 300 L333 299 L334 298 L335 298 L336 299 L336 300 L340 304 L342 304 L342 303 L343 302 L343 300 L342 299 L342 296 L341 295 L341 294 L340 293 L340 292 L339 291 L339 290 L340 289 L339 288 L339 287 L338 286 L338 285 L337 284 L337 282 L336 281 L334 281 L334 282 L333 283 L333 284 L332 285 L330 283 L330 281 L331 280 L331 279 L333 277 L335 279 L338 279 L339 278 L339 277 L338 276 L338 273 L334 269 L334 267 L335 266 L336 266 L337 265 L337 264 L336 263 L336 261 L333 258 L333 255 L332 254 L332 251 L331 250 L331 249 L330 248 L330 246 L326 242 L325 242 L323 240 L320 240 L319 241 L318 241 L316 239 L317 238 L317 228 L319 226 L321 228 L321 230 L322 231 L322 233 L325 236 L327 236 L329 234 L330 234 L331 235 L331 238 L332 239 L332 242 L334 244 L337 244 L338 243 L338 241 L340 239 L343 242 L343 243 L344 244 L345 243 L346 243 L347 242 L349 242 L351 244 L351 245 L353 247 L353 248 L354 249 L354 250 L356 252 L357 252 L358 253 L364 253 L365 252 L365 251 L364 250 L364 249 L363 248 L363 247 L360 244 L360 243 L357 240 L358 239 L358 235 L352 229 L351 229 L350 228 L350 227 L349 226 L349 223 L348 222 L348 221 L347 220 L347 218 L346 217 L346 215 L345 214 L345 213 L344 212 L343 213 L342 213 L341 212 L341 209 L338 209 L337 208 L337 207 L336 206 L336 205 L333 205 L332 204 L332 203 L331 202 L331 200 L330 199 L330 198 L328 196 L328 195 L327 194 L327 192 L326 191 L326 190 L327 189 L332 189 L333 190 L334 190 L335 189 L336 190 L336 193 L337 194 L337 195 L341 195 L342 194 L342 193 L344 191 L345 192 L345 193 L346 194 L346 195 L347 196 L347 197 L348 198 L348 199 L349 200 L351 198 L354 198 L355 199 L355 205 L356 206 L356 207 L357 208 L357 210 L358 211 L360 211 L361 210 L362 210 L362 208 L365 205 L366 206 L366 207 L367 208 L368 208 L369 209 L369 210 L376 217 L377 217 L379 219 L380 219 L381 220 L389 220 L389 218 L388 217 L388 216 L383 211 L384 210 L385 210 L384 209 L382 209 L376 203 L376 202 L375 201 L377 199 L377 197 L376 196 L376 195 L375 194 L374 194 L373 193 L372 193 L370 191 L369 191 L367 189 L367 187 L369 185 L369 184 L368 183 L368 182 L367 181 L366 181 L364 179 L362 179 L361 178 L358 178 L355 175 L353 175 L352 174 L351 174 L350 173 L349 173 L348 172 L347 172 L346 171 L346 170 L347 169 L349 169 L350 170 L353 170 L355 172 L357 170 L352 165 L352 164 L353 163 L353 162 L356 159 L358 161 L360 161 L361 162 L361 163 L365 167 L367 167 L368 166 L369 166 L370 165 L370 164 L371 163 L372 163 L373 162 L374 162 L374 161 L375 160 L374 159 L374 158 L377 155 L379 155 L380 156 L384 156 L385 157 L386 156 L386 155 L387 154 L387 152 L386 151 L386 149 L389 146 L390 146 L395 141 L395 140 L398 137 L398 135 L399 134 L399 133 L400 132 L400 131 L399 130 L396 130 L395 131 L394 131 L393 132 L392 132 L391 133 L390 133 L388 135 L387 135 L386 136 L385 136 L384 137 L379 137 L378 138 L377 138 L376 139 L371 139 L367 143 L364 143 L363 144 L362 143 L362 141 L361 140 L358 140 L357 141 L356 141 L353 138 L353 134 L352 133 L352 132 L351 131 L349 131 L348 132 L347 132 L346 131 L345 132 L343 130 L343 129 L345 127 L347 127 L348 128 L350 128 L351 127 L357 127 L358 126 L359 126 L359 124 L361 122 L361 120 L362 119 L363 119 L365 121 L365 123 L366 124 L365 125 L365 126 L367 128 L370 128 L373 125 L374 126 L375 126 L376 127 L377 127 L377 123 L378 122 L378 118 L380 116 L386 116 L386 115 L385 115 L383 113 L382 113 L381 112 L380 112 L379 111 L378 111 L377 110 L372 110 L371 109 L371 108 L372 107 L372 106 L371 105 L371 104 L373 102 L372 101 L368 101 L367 102 L364 102 L363 103 L361 103 L359 101 L359 100 L358 100 L357 99 L355 99 L354 100 L350 100 L349 101 L347 101 L346 102 L344 102 L343 101 L343 99 L342 98 L342 96 L341 95 L340 96 L339 96 L339 97 L337 99 L337 100 L335 102 L335 103 L334 104 L333 104 L330 101 L330 100 L328 98 L328 95 L329 94 L329 92 L330 91 L331 91 L333 89 L335 89 L336 88 L337 88 L340 85 L340 84 L341 83 L341 81 L342 80 L343 80 L344 79 L347 79 L353 73 L354 73 L358 69 L358 67 L359 66 L358 65 L358 64 L356 64 L355 63 L354 64 L349 64 L348 65 L347 65 L343 69 L342 69 L339 72 L335 72 L334 73 L333 72 L332 72 L331 73 L330 73 L330 74 L328 76 L327 76 L326 77 L325 77 L324 78 L320 78 L319 79 L318 79 L317 80 L315 80 L314 81 L313 80 L313 79 L309 79 L306 82 L305 82 L304 83 L300 83 L299 84 L297 84 L295 86 L295 87 L294 88 L293 88 L292 89 L291 89 L290 90 L289 90 L288 91 L287 90 L285 90 L284 89 L284 88 L286 86 L287 86 L287 85 L288 84 L288 81 L287 80 L287 79 L286 78 L287 77 L287 76 L288 75 L289 75 L290 74 L293 74 L294 75 L295 75 L296 76 L297 75 L298 75 L298 74 L300 72 L300 70 L303 67 L304 67 L310 61 L311 61 L312 62 L314 62 L315 61 L316 61 L318 59 L318 54 L319 53 L320 53 L322 51 L322 50 L323 49 L323 48 L324 47 L324 45 L319 40 L319 35 L318 34 L317 35 L316 35 L316 36 L315 37 L314 37 L314 40 L310 44 L307 44 L306 45 L305 45 L304 46 L303 46 L303 50 L301 52 L300 52 L299 51 L299 50 L298 50 L296 52 L295 52 L293 54 L290 54 L287 57 L284 57 L283 58 L282 58 L280 56 L278 56 L278 57 L277 58 L277 61 L279 63 L279 64 L277 66 L274 66 L273 65 L273 64 L272 63 L272 62 L270 60 L269 61 L268 61 L266 63 L266 64 L264 66 L262 64 L262 63 L263 62 L263 53 L262 53 L260 51 L260 49 L261 48 L272 48 L273 49 L276 49 L277 48 L277 47 L276 46 L276 45 L277 44 L278 44 L279 43 L281 43 L282 42 L285 42 L286 41 L287 41 L288 40 L289 40 L289 39 L290 38 L290 35 L287 32 L286 32 L285 31 L280 31 L279 32 L278 32 L277 33 L276 33 L274 31 L274 30 L273 29 L271 29 L269 31 L268 31 L266 33 L266 34 L265 35 L264 35 L263 34 L258 34 L257 35 L256 35 L253 38 L252 38 L250 40 L248 40 L247 39 L248 38 L248 32 L247 32 L246 31 L247 30 L247 29 L248 28 L248 27 L249 26 L249 24 L253 20 L254 20 L257 17 L257 14 L255 12 L253 12 L252 13 L250 13 L249 14 L248 14 L247 15 L241 15 L240 14 L240 13 L238 11 Z " fill="black"/></svg>