<svg width="647" height="991" xmlns="http://www.w3.org/2000/svg"><path d="M97 982 L95 984 L95 985 L94 986 L94 988 L93 989 L93 990 L102 990 L102 989 L101 988 L101 986 L100 985 L100 983 L99 982 Z M0 886 L0 990 L78 990 L77 989 L77 988 L76 987 L76 986 L75 985 L75 984 L74 983 L74 982 L72 980 L72 979 L71 978 L71 977 L69 975 L69 974 L68 973 L68 972 L67 971 L67 970 L66 969 L66 968 L65 967 L65 966 L64 965 L64 964 L62 962 L62 961 L61 960 L61 959 L60 958 L60 957 L58 955 L58 954 L56 952 L56 951 L54 949 L54 948 L52 946 L52 945 L50 943 L50 942 L48 940 L48 939 L46 937 L46 936 L44 934 L44 933 L41 930 L41 929 L37 925 L37 924 L34 921 L34 920 L31 917 L31 916 L29 914 L29 913 L25 909 L25 908 L22 905 L22 904 L9 891 L8 891 L4 887 L2 887 L1 886 Z M210 868 L208 870 L207 870 L198 879 L198 880 L196 882 L193 882 L192 883 L191 883 L190 884 L191 884 L192 883 L193 884 L193 885 L192 886 L192 887 L190 889 L190 890 L189 891 L187 891 L185 893 L184 893 L184 894 L180 898 L180 899 L176 903 L176 904 L173 907 L173 908 L170 911 L170 912 L167 915 L167 916 L164 919 L164 920 L160 924 L160 925 L158 927 L158 928 L157 929 L157 930 L155 932 L155 933 L154 934 L154 935 L153 936 L153 937 L152 938 L151 938 L148 941 L148 942 L147 943 L147 946 L146 947 L146 948 L145 949 L145 950 L144 951 L144 952 L142 954 L142 955 L140 957 L140 958 L138 960 L138 961 L137 962 L137 964 L136 965 L136 966 L135 967 L135 968 L134 969 L134 970 L133 971 L133 972 L132 973 L132 974 L130 976 L130 978 L129 979 L129 980 L128 981 L128 982 L127 983 L127 984 L126 985 L126 986 L125 987 L125 989 L124 990 L133 990 L134 989 L135 990 L204 990 L204 988 L205 987 L205 984 L206 983 L206 980 L207 979 L207 975 L208 974 L208 971 L209 970 L209 966 L210 965 L210 961 L211 960 L211 954 L212 953 L212 947 L213 946 L213 940 L214 939 L214 932 L215 931 L215 917 L216 916 L216 897 L217 896 L217 893 L216 892 L216 881 L217 880 L217 875 L218 874 L218 871 L217 870 L217 869 L216 868 Z M117 845 L117 847 L116 848 L116 849 L116 848 L118 846 L118 845 Z M128 10 L127 11 L109 11 L108 12 L101 12 L100 13 L96 13 L95 14 L92 14 L91 15 L88 15 L87 16 L83 16 L82 17 L75 17 L74 16 L71 16 L70 15 L68 15 L67 14 L65 14 L64 13 L63 13 L62 12 L55 12 L54 13 L50 13 L49 14 L47 14 L46 15 L44 15 L43 16 L42 16 L41 17 L39 17 L38 18 L37 18 L35 20 L34 20 L33 21 L32 21 L29 24 L28 24 L24 28 L23 28 L16 35 L15 35 L11 39 L11 41 L12 42 L14 42 L15 41 L21 41 L22 40 L23 40 L24 41 L25 41 L26 40 L40 40 L41 39 L45 39 L46 38 L49 38 L50 37 L55 37 L56 38 L57 38 L60 41 L61 41 L63 43 L64 43 L65 44 L67 44 L68 45 L70 45 L71 46 L73 46 L74 47 L77 47 L78 48 L80 48 L81 49 L83 49 L84 50 L86 50 L87 51 L90 51 L91 52 L93 52 L94 53 L98 53 L99 54 L101 54 L102 55 L103 55 L104 56 L105 56 L107 58 L108 58 L123 73 L123 74 L124 74 L140 90 L140 91 L142 93 L142 94 L145 97 L145 98 L150 103 L150 104 L155 109 L155 110 L158 113 L159 113 L163 117 L164 117 L167 120 L168 120 L172 124 L173 124 L175 126 L176 126 L177 127 L178 127 L179 128 L180 128 L181 129 L182 129 L183 130 L186 130 L187 131 L190 131 L191 132 L194 132 L195 133 L197 133 L198 134 L200 134 L201 135 L202 135 L203 136 L206 136 L207 137 L214 137 L215 138 L224 138 L225 139 L231 139 L232 140 L236 140 L237 141 L239 141 L240 142 L242 142 L243 143 L245 143 L251 149 L251 150 L252 151 L252 152 L253 153 L253 155 L254 156 L254 159 L255 160 L255 162 L256 163 L256 165 L257 166 L257 167 L258 168 L258 169 L259 170 L259 172 L260 173 L260 174 L261 175 L261 176 L262 177 L262 178 L263 179 L263 181 L264 182 L264 185 L265 186 L265 192 L266 193 L266 199 L267 200 L267 201 L268 202 L269 202 L270 203 L270 207 L271 208 L271 211 L272 212 L272 215 L273 216 L273 218 L274 219 L274 220 L275 221 L275 223 L276 224 L276 227 L277 228 L277 231 L278 232 L278 238 L279 239 L279 243 L280 244 L280 248 L281 249 L281 252 L282 253 L282 255 L283 256 L283 260 L284 261 L284 264 L285 265 L285 268 L286 269 L286 272 L287 273 L287 278 L288 279 L288 282 L289 283 L289 287 L287 289 L285 289 L284 290 L282 290 L281 291 L278 291 L277 292 L275 292 L274 293 L272 293 L271 294 L269 294 L268 295 L266 295 L265 296 L264 296 L263 297 L262 297 L261 298 L260 298 L259 299 L258 299 L256 301 L255 301 L253 303 L252 303 L251 304 L250 304 L248 306 L247 306 L245 308 L244 308 L235 317 L235 318 L234 319 L234 320 L233 321 L233 322 L232 323 L232 324 L231 325 L231 328 L230 329 L230 333 L229 334 L229 337 L228 338 L228 340 L227 341 L227 342 L226 343 L225 343 L223 345 L222 345 L221 346 L219 346 L218 345 L218 344 L219 343 L219 341 L220 340 L220 338 L221 337 L221 334 L222 333 L222 330 L223 329 L223 327 L224 326 L224 325 L226 323 L226 322 L240 308 L240 307 L242 305 L242 304 L244 302 L244 301 L246 299 L246 298 L247 297 L247 296 L249 294 L249 293 L250 292 L250 291 L252 289 L252 287 L253 286 L253 283 L254 282 L254 279 L255 278 L255 258 L254 257 L254 245 L253 244 L253 240 L252 239 L252 237 L251 236 L251 234 L250 233 L250 205 L249 204 L249 202 L248 201 L248 200 L245 197 L243 197 L242 196 L237 196 L236 197 L233 197 L228 202 L228 203 L222 209 L221 209 L220 210 L219 210 L218 211 L216 211 L215 212 L213 212 L212 213 L210 213 L209 214 L207 214 L206 215 L205 215 L204 216 L202 216 L200 218 L199 218 L196 221 L195 221 L192 224 L191 224 L188 227 L187 227 L183 231 L182 231 L169 244 L169 245 L167 247 L167 248 L165 250 L165 251 L164 252 L164 253 L162 255 L162 256 L161 257 L161 258 L160 259 L160 260 L159 261 L159 262 L158 263 L158 264 L157 265 L157 266 L156 267 L156 268 L155 269 L155 270 L154 271 L154 272 L153 273 L153 274 L151 276 L151 277 L150 278 L150 279 L149 280 L149 281 L148 282 L148 283 L147 284 L147 286 L146 287 L146 288 L145 289 L145 290 L144 291 L144 292 L136 300 L135 300 L132 303 L131 303 L129 305 L128 305 L126 307 L125 307 L122 310 L121 310 L116 315 L115 315 L113 317 L112 317 L110 319 L109 319 L107 321 L106 321 L103 324 L102 324 L99 327 L98 327 L90 335 L90 336 L86 340 L86 341 L83 344 L83 345 L81 347 L81 348 L80 349 L80 350 L78 352 L78 353 L77 354 L77 356 L76 357 L76 358 L75 359 L75 360 L74 361 L74 363 L73 364 L73 365 L72 366 L72 367 L71 368 L71 370 L70 371 L70 372 L69 373 L69 376 L68 377 L68 380 L67 381 L67 384 L66 385 L66 389 L65 390 L65 392 L64 393 L64 394 L63 395 L63 397 L62 398 L62 400 L61 401 L61 436 L60 437 L60 441 L59 442 L59 446 L58 447 L58 452 L57 453 L57 458 L56 459 L56 464 L55 465 L56 466 L56 467 L55 468 L56 469 L56 472 L57 473 L57 474 L58 475 L58 482 L59 483 L59 500 L60 501 L60 502 L59 503 L59 505 L60 506 L60 524 L61 525 L61 527 L62 528 L62 530 L63 531 L63 536 L64 537 L64 545 L65 546 L65 549 L66 550 L66 552 L67 553 L67 554 L68 555 L69 555 L70 554 L71 554 L71 553 L72 552 L73 552 L76 549 L76 548 L78 546 L78 545 L79 544 L79 543 L80 542 L80 540 L81 539 L81 537 L82 536 L82 535 L90 527 L91 527 L92 526 L93 526 L94 525 L95 525 L99 521 L100 521 L101 520 L102 520 L104 518 L106 518 L107 517 L109 517 L110 516 L112 516 L113 515 L115 515 L116 514 L118 514 L120 512 L121 512 L123 510 L124 510 L125 509 L126 509 L127 508 L128 508 L129 507 L131 507 L132 506 L133 506 L134 505 L135 505 L136 504 L137 504 L138 503 L139 503 L140 502 L141 502 L143 500 L144 500 L145 499 L146 499 L148 497 L149 497 L151 495 L152 495 L155 492 L155 491 L156 490 L157 490 L159 488 L160 488 L161 487 L162 487 L165 484 L166 484 L168 482 L169 482 L170 481 L173 481 L174 480 L182 480 L183 479 L184 479 L185 478 L187 478 L188 477 L189 477 L190 476 L191 476 L192 475 L193 475 L194 474 L197 474 L198 473 L202 473 L203 472 L207 472 L208 471 L211 471 L212 470 L214 470 L215 469 L217 469 L218 468 L220 468 L221 467 L222 467 L223 466 L224 466 L225 465 L227 465 L229 463 L231 463 L232 462 L233 462 L234 461 L235 461 L236 460 L237 460 L240 457 L241 457 L242 456 L243 456 L248 451 L249 451 L249 450 L254 445 L254 444 L259 439 L261 441 L261 444 L262 445 L262 446 L263 447 L263 449 L264 450 L264 453 L265 454 L265 455 L266 456 L266 458 L267 459 L267 461 L268 462 L268 464 L269 465 L269 467 L270 468 L270 470 L271 471 L271 473 L272 474 L272 476 L273 477 L273 479 L274 480 L274 482 L275 483 L275 485 L276 486 L276 489 L277 490 L277 493 L278 494 L278 497 L279 498 L279 502 L280 503 L280 507 L281 508 L281 512 L282 513 L282 517 L283 518 L283 521 L284 522 L284 525 L285 526 L285 531 L286 532 L286 539 L287 540 L287 543 L288 544 L288 546 L289 547 L289 548 L290 549 L290 555 L291 556 L291 564 L292 565 L292 568 L293 569 L293 573 L294 574 L294 576 L295 577 L295 583 L294 584 L292 584 L291 585 L289 585 L288 586 L286 586 L285 587 L283 587 L282 588 L279 588 L278 589 L277 589 L276 590 L273 590 L272 591 L270 591 L269 592 L265 592 L264 593 L262 593 L261 594 L259 594 L258 595 L257 595 L256 596 L255 596 L254 597 L253 597 L252 598 L251 598 L250 599 L249 599 L247 601 L246 601 L245 602 L244 602 L243 603 L242 603 L239 606 L238 606 L237 607 L237 608 L235 610 L235 611 L234 612 L234 614 L233 615 L233 616 L232 617 L232 618 L231 619 L231 620 L230 621 L230 622 L229 623 L229 624 L227 626 L227 627 L226 628 L226 629 L225 630 L225 631 L224 632 L224 634 L223 635 L223 637 L222 638 L222 644 L221 645 L221 649 L220 650 L220 653 L218 655 L214 651 L214 644 L215 643 L215 642 L216 641 L216 639 L218 637 L218 636 L219 635 L219 634 L220 633 L220 632 L223 629 L223 628 L224 627 L224 626 L225 625 L225 623 L226 622 L226 617 L227 616 L227 578 L226 577 L226 572 L225 571 L225 567 L224 566 L224 563 L223 562 L223 560 L222 559 L222 557 L221 556 L221 555 L220 554 L220 552 L219 551 L219 548 L218 547 L218 544 L217 543 L217 542 L216 541 L216 540 L215 539 L215 537 L214 536 L214 535 L213 534 L213 533 L211 531 L211 530 L209 528 L209 527 L208 526 L208 525 L204 521 L203 521 L202 520 L199 520 L198 521 L197 521 L189 529 L189 530 L187 532 L187 533 L185 535 L185 536 L184 537 L184 538 L183 539 L183 541 L182 542 L182 543 L175 550 L175 551 L174 552 L174 553 L172 555 L172 557 L170 559 L170 560 L169 561 L169 562 L168 563 L168 564 L166 566 L166 567 L163 570 L163 571 L162 572 L162 573 L161 574 L161 575 L160 576 L160 578 L159 579 L159 581 L158 582 L158 583 L157 584 L157 585 L156 586 L156 587 L153 590 L153 591 L152 592 L152 593 L151 594 L151 595 L150 596 L150 597 L149 598 L149 599 L148 600 L148 602 L147 603 L147 605 L146 606 L146 608 L144 610 L144 611 L143 612 L143 613 L142 614 L142 615 L137 620 L136 620 L132 624 L131 624 L123 632 L123 633 L117 639 L116 639 L110 645 L110 646 L108 648 L108 649 L106 651 L106 652 L105 653 L105 654 L103 656 L103 657 L101 659 L101 660 L100 661 L100 662 L99 663 L99 664 L98 665 L98 666 L97 667 L97 668 L96 669 L96 671 L95 672 L95 674 L94 675 L94 678 L93 679 L93 681 L92 682 L92 685 L91 686 L91 690 L90 691 L90 695 L89 696 L89 703 L88 704 L88 712 L87 713 L87 718 L86 719 L86 724 L85 725 L85 729 L84 730 L84 732 L83 733 L83 736 L82 737 L82 739 L81 740 L81 742 L80 743 L80 745 L79 746 L79 749 L78 750 L78 753 L77 754 L77 758 L76 759 L76 761 L75 762 L75 783 L76 784 L76 788 L77 789 L77 792 L78 793 L78 796 L79 797 L79 799 L80 800 L80 804 L81 805 L81 808 L82 809 L82 815 L83 816 L83 823 L84 824 L84 838 L85 839 L85 843 L84 844 L84 848 L85 849 L84 850 L85 851 L85 855 L86 856 L86 858 L88 860 L91 860 L92 859 L93 859 L96 856 L97 856 L99 854 L100 854 L106 848 L106 847 L108 845 L108 844 L115 837 L116 837 L117 836 L118 836 L119 835 L120 835 L122 833 L123 833 L124 832 L125 832 L126 831 L127 831 L129 829 L130 829 L132 827 L133 827 L136 824 L137 824 L138 823 L140 823 L141 822 L143 822 L144 821 L148 821 L149 820 L151 820 L152 819 L154 819 L155 818 L157 818 L158 817 L159 817 L160 816 L161 816 L162 815 L164 815 L165 814 L166 814 L167 813 L168 813 L169 812 L171 812 L172 811 L174 811 L175 810 L176 810 L177 809 L178 809 L179 808 L180 808 L182 806 L183 806 L184 805 L185 805 L192 798 L193 798 L195 796 L196 796 L197 795 L198 795 L199 794 L200 794 L203 791 L204 791 L205 790 L206 790 L208 788 L209 788 L211 786 L212 786 L213 785 L214 785 L215 784 L216 784 L217 783 L218 783 L219 782 L222 782 L223 781 L225 781 L226 780 L227 780 L228 779 L229 779 L231 777 L232 777 L235 774 L236 774 L238 772 L239 772 L240 771 L241 771 L242 770 L243 770 L244 769 L245 769 L246 768 L247 768 L261 754 L262 754 L264 756 L264 758 L265 759 L265 761 L266 762 L266 765 L267 766 L267 768 L268 769 L268 771 L269 772 L269 774 L270 775 L270 778 L271 779 L271 781 L272 782 L272 786 L273 787 L273 791 L274 792 L274 794 L275 795 L275 798 L276 799 L276 802 L277 803 L277 810 L278 811 L278 823 L279 824 L279 829 L280 830 L280 837 L281 838 L281 845 L282 846 L282 852 L283 853 L283 858 L284 859 L284 873 L283 874 L283 882 L282 883 L282 888 L281 889 L281 897 L280 898 L280 903 L279 904 L279 910 L278 911 L278 918 L277 919 L277 921 L276 922 L276 924 L275 925 L275 927 L274 928 L274 930 L273 931 L273 932 L272 933 L272 935 L271 936 L271 938 L270 939 L270 942 L269 943 L269 945 L268 946 L268 949 L267 950 L267 955 L266 956 L266 962 L265 963 L265 968 L264 969 L264 979 L268 975 L268 974 L269 973 L269 972 L270 971 L270 969 L271 968 L271 967 L272 966 L272 965 L273 964 L273 962 L277 958 L277 956 L278 955 L278 954 L279 953 L279 950 L280 949 L280 946 L281 945 L281 942 L284 939 L286 941 L286 943 L287 944 L287 947 L288 948 L288 952 L288 950 L289 949 L289 948 L290 947 L290 946 L291 945 L291 944 L292 943 L292 941 L293 940 L293 938 L294 937 L294 936 L295 935 L295 933 L296 932 L296 931 L297 930 L298 931 L298 937 L297 938 L297 957 L298 957 L299 956 L299 954 L300 953 L300 950 L301 949 L301 945 L302 944 L302 940 L303 939 L303 936 L304 935 L304 930 L305 929 L305 926 L306 925 L306 923 L307 922 L307 918 L308 917 L308 913 L309 912 L309 907 L310 906 L310 903 L311 902 L311 898 L312 897 L312 892 L313 891 L313 886 L314 885 L314 880 L315 879 L315 876 L316 875 L316 870 L317 869 L317 867 L318 866 L318 862 L319 861 L319 857 L320 856 L320 854 L321 853 L321 851 L322 850 L322 845 L323 844 L323 839 L324 838 L324 823 L325 822 L325 820 L326 819 L326 814 L327 813 L327 809 L328 808 L328 804 L329 803 L329 800 L330 799 L330 795 L331 794 L331 788 L332 787 L332 779 L333 778 L333 776 L334 775 L334 773 L335 772 L335 771 L336 770 L336 768 L337 767 L337 765 L338 764 L338 761 L339 760 L339 758 L340 757 L340 755 L341 754 L341 751 L342 750 L342 747 L343 746 L343 744 L344 743 L344 741 L345 740 L345 738 L347 736 L347 734 L348 733 L348 728 L349 727 L349 725 L350 724 L350 723 L351 722 L351 721 L352 720 L352 719 L353 718 L353 717 L354 716 L354 714 L355 713 L355 711 L356 710 L356 707 L357 706 L357 705 L358 704 L358 702 L359 701 L359 699 L360 698 L360 696 L361 695 L361 693 L362 692 L362 689 L363 688 L363 686 L364 685 L364 682 L365 681 L365 678 L366 677 L366 675 L367 674 L367 672 L368 671 L368 670 L369 669 L369 668 L370 667 L370 665 L371 664 L371 663 L372 662 L372 660 L373 659 L373 657 L374 656 L374 654 L375 653 L375 651 L376 650 L376 649 L377 648 L377 646 L378 645 L378 644 L379 643 L379 641 L380 640 L380 638 L381 637 L381 635 L382 634 L382 633 L383 632 L383 630 L384 629 L384 628 L385 627 L385 626 L386 625 L386 624 L388 622 L388 620 L389 619 L389 618 L390 617 L390 616 L391 615 L391 613 L392 612 L392 610 L393 609 L393 608 L394 607 L394 606 L395 605 L395 604 L396 603 L398 603 L402 607 L402 608 L405 611 L405 612 L408 615 L408 616 L414 622 L414 623 L420 629 L420 630 L427 637 L428 637 L431 640 L432 640 L434 642 L435 642 L436 643 L437 643 L438 644 L439 644 L440 645 L441 645 L443 647 L444 647 L445 648 L446 648 L447 649 L448 649 L449 650 L450 650 L451 651 L453 651 L454 652 L455 652 L456 653 L457 653 L458 654 L459 654 L460 655 L461 655 L463 657 L464 657 L465 658 L468 658 L469 659 L473 659 L474 660 L476 660 L477 661 L478 661 L479 662 L481 662 L482 663 L483 663 L485 665 L486 665 L487 666 L488 666 L491 669 L492 669 L496 673 L497 673 L501 677 L502 677 L505 680 L506 680 L508 682 L509 682 L510 683 L511 683 L513 685 L514 685 L516 687 L517 687 L518 688 L520 688 L521 689 L522 689 L526 693 L527 693 L529 695 L530 695 L531 696 L532 696 L533 697 L535 697 L536 698 L538 698 L539 699 L542 699 L543 700 L544 700 L545 701 L547 701 L548 702 L549 702 L550 703 L551 703 L552 704 L553 704 L555 706 L556 706 L558 708 L559 708 L562 711 L563 711 L569 717 L570 717 L573 720 L574 720 L577 723 L578 723 L582 727 L582 728 L584 730 L584 731 L585 732 L585 733 L586 734 L586 735 L588 737 L588 738 L590 740 L590 741 L592 743 L592 745 L593 746 L593 747 L594 748 L594 749 L598 753 L599 753 L600 752 L600 751 L602 749 L602 748 L603 747 L603 746 L604 745 L604 744 L605 743 L605 740 L606 739 L606 730 L607 729 L607 721 L608 720 L608 718 L609 717 L609 714 L610 713 L610 706 L611 705 L611 703 L612 702 L612 698 L613 697 L613 687 L614 686 L614 681 L615 680 L615 679 L616 678 L616 675 L617 674 L617 672 L618 671 L618 668 L619 667 L619 665 L620 664 L620 661 L621 660 L621 657 L622 656 L622 649 L623 648 L623 618 L622 617 L622 613 L621 612 L621 608 L620 607 L620 603 L619 602 L619 599 L618 598 L618 596 L617 595 L617 593 L616 592 L616 590 L615 589 L615 582 L614 581 L614 576 L615 575 L615 559 L614 558 L614 550 L613 549 L613 545 L612 544 L612 540 L611 539 L611 536 L610 535 L610 533 L609 532 L609 530 L608 529 L608 528 L607 527 L607 526 L606 525 L606 524 L605 523 L605 522 L603 520 L603 519 L601 517 L601 516 L599 514 L599 513 L598 512 L598 511 L596 509 L596 508 L595 507 L595 506 L593 504 L593 503 L590 500 L590 499 L589 498 L588 498 L586 496 L585 496 L583 494 L583 493 L578 488 L577 488 L564 475 L563 475 L557 469 L556 469 L544 457 L543 457 L541 455 L541 454 L539 452 L539 451 L538 450 L538 449 L537 448 L537 445 L536 444 L536 443 L535 442 L535 440 L534 439 L534 437 L533 436 L533 435 L532 434 L532 433 L531 432 L531 430 L530 429 L530 425 L529 424 L529 423 L528 422 L528 421 L526 419 L526 418 L508 400 L507 400 L501 394 L501 393 L494 386 L494 385 L489 380 L489 379 L486 376 L486 375 L485 374 L485 373 L484 372 L484 371 L483 370 L483 369 L481 367 L481 366 L479 364 L479 363 L478 362 L478 361 L475 358 L475 357 L474 356 L474 355 L472 353 L472 352 L469 349 L468 349 L467 348 L465 348 L464 347 L463 347 L462 346 L460 346 L459 347 L456 347 L455 348 L454 348 L453 349 L453 350 L450 353 L450 354 L449 355 L449 356 L447 358 L447 359 L445 361 L445 362 L444 363 L444 364 L443 365 L443 366 L442 367 L442 368 L441 369 L441 370 L440 371 L440 373 L439 374 L439 375 L438 376 L438 377 L437 378 L437 380 L435 382 L435 383 L434 384 L434 385 L433 386 L433 387 L432 388 L432 391 L431 392 L431 397 L430 398 L430 401 L431 402 L430 403 L430 417 L429 418 L429 420 L430 421 L430 425 L431 426 L431 427 L432 428 L432 430 L433 431 L433 433 L434 434 L434 436 L435 437 L435 439 L436 440 L436 442 L437 443 L437 446 L438 447 L438 448 L439 449 L439 451 L440 452 L440 453 L442 455 L442 456 L443 457 L443 458 L444 459 L444 460 L445 461 L445 462 L446 463 L446 464 L447 465 L447 466 L448 467 L448 470 L449 471 L449 472 L450 473 L450 474 L451 475 L451 476 L452 477 L452 479 L453 480 L453 482 L454 483 L454 498 L453 499 L453 504 L452 505 L449 502 L449 500 L448 499 L448 492 L447 491 L447 483 L446 482 L446 477 L445 476 L445 474 L444 473 L444 471 L443 470 L443 469 L442 468 L442 467 L440 465 L440 464 L438 462 L438 461 L431 454 L431 453 L427 449 L426 449 L425 448 L425 447 L424 446 L423 446 L413 436 L412 436 L408 432 L407 432 L404 429 L403 429 L401 427 L400 427 L399 426 L398 426 L397 425 L395 425 L394 424 L391 424 L390 423 L388 423 L387 422 L385 422 L384 421 L382 421 L381 420 L375 420 L374 419 L371 419 L370 418 L370 417 L371 416 L371 414 L372 413 L372 411 L373 410 L373 408 L374 407 L374 405 L375 404 L375 402 L376 401 L376 399 L377 398 L377 397 L378 396 L378 394 L379 393 L379 392 L380 391 L380 389 L381 388 L381 386 L382 385 L382 384 L383 383 L383 382 L384 381 L384 380 L385 379 L385 376 L386 375 L386 372 L387 371 L387 366 L388 365 L388 362 L389 361 L389 360 L390 359 L390 357 L392 355 L392 354 L393 353 L393 352 L394 351 L394 350 L395 349 L395 346 L396 345 L396 340 L397 339 L397 337 L398 336 L398 335 L399 334 L399 333 L400 332 L400 331 L401 330 L401 329 L402 328 L402 327 L403 326 L403 325 L404 324 L404 323 L405 322 L405 320 L406 319 L406 318 L407 317 L407 316 L408 315 L408 314 L409 313 L409 312 L410 311 L410 310 L411 309 L411 308 L412 307 L412 306 L413 305 L413 303 L414 302 L414 300 L415 299 L415 297 L416 296 L416 295 L417 294 L417 293 L420 290 L421 290 L422 291 L449 291 L450 290 L455 290 L456 289 L471 289 L472 290 L475 290 L476 291 L478 291 L479 292 L482 292 L483 293 L486 293 L487 294 L489 294 L490 295 L492 295 L493 296 L494 296 L495 297 L497 297 L498 298 L500 298 L501 299 L504 299 L505 300 L508 300 L509 301 L514 301 L515 302 L519 302 L520 303 L526 303 L527 304 L542 304 L543 303 L585 303 L586 304 L590 304 L591 305 L592 305 L593 306 L595 306 L596 307 L597 307 L599 309 L600 309 L601 310 L602 310 L605 313 L606 313 L611 318 L612 318 L624 330 L625 330 L626 331 L627 331 L628 332 L630 332 L632 334 L634 334 L635 333 L635 328 L634 327 L634 325 L633 324 L633 323 L632 322 L632 321 L631 320 L631 317 L630 316 L630 314 L629 313 L629 310 L628 309 L628 306 L627 305 L627 303 L626 302 L626 300 L625 299 L625 297 L624 296 L624 294 L623 293 L623 292 L622 291 L622 290 L621 289 L621 288 L620 287 L620 286 L619 285 L619 284 L618 283 L618 282 L616 280 L616 279 L614 277 L614 276 L612 274 L612 273 L611 272 L611 271 L610 270 L610 269 L608 267 L608 266 L607 265 L607 264 L605 262 L605 261 L603 259 L603 258 L591 246 L591 245 L585 239 L585 238 L582 235 L582 234 L580 232 L580 231 L578 229 L578 228 L576 226 L576 225 L575 224 L575 223 L572 220 L572 219 L569 216 L568 216 L564 212 L564 211 L557 204 L557 203 L551 197 L550 197 L548 195 L547 195 L546 194 L545 194 L544 193 L543 193 L542 192 L541 192 L540 191 L538 191 L537 190 L536 190 L535 189 L534 189 L533 188 L531 188 L530 187 L529 187 L528 186 L526 186 L525 185 L485 185 L484 184 L482 184 L481 185 L480 184 L458 184 L457 183 L454 183 L453 182 L452 182 L451 181 L450 181 L448 179 L447 179 L444 176 L443 176 L442 175 L441 175 L439 173 L438 173 L437 172 L436 172 L435 171 L434 171 L433 170 L431 170 L430 169 L428 169 L427 168 L423 168 L422 167 L418 167 L417 166 L409 166 L408 165 L404 165 L403 164 L400 164 L399 163 L396 163 L395 162 L395 161 L396 160 L396 159 L395 159 L394 158 L393 158 L392 159 L391 158 L389 158 L389 159 L391 159 L392 160 L391 161 L386 161 L385 160 L386 159 L385 160 L381 160 L380 159 L379 159 L378 158 L374 158 L373 157 L371 157 L370 156 L362 156 L361 157 L359 157 L357 159 L357 160 L356 161 L356 162 L355 163 L355 166 L354 167 L354 170 L353 171 L351 171 L350 170 L350 169 L345 164 L345 163 L344 162 L344 161 L343 160 L343 158 L342 157 L343 156 L342 155 L342 152 L341 151 L341 149 L340 148 L340 147 L339 146 L339 145 L338 144 L338 143 L331 136 L330 136 L328 134 L327 134 L326 133 L325 133 L324 132 L323 132 L322 131 L321 131 L320 130 L318 130 L317 129 L316 129 L315 128 L314 128 L313 127 L312 127 L308 123 L308 122 L310 120 L317 120 L318 119 L339 119 L340 120 L344 120 L345 121 L348 121 L349 122 L351 122 L352 123 L353 123 L354 124 L355 124 L356 125 L357 125 L358 126 L360 126 L361 127 L365 127 L366 128 L368 128 L369 127 L375 127 L376 126 L378 126 L379 125 L380 125 L384 121 L384 120 L387 117 L387 116 L389 114 L389 113 L391 111 L391 110 L394 107 L391 104 L389 104 L388 103 L384 103 L383 102 L378 102 L377 101 L372 101 L371 100 L369 100 L368 99 L366 99 L365 98 L364 98 L362 96 L361 96 L357 92 L356 92 L345 81 L344 81 L341 78 L340 78 L337 75 L336 75 L334 73 L333 73 L332 72 L331 72 L330 71 L329 71 L328 70 L324 70 L323 69 L322 69 L321 68 L318 68 L317 67 L315 67 L314 66 L311 66 L310 65 L308 65 L307 64 L303 64 L302 63 L298 63 L297 62 L293 62 L292 61 L288 61 L287 60 L281 60 L280 59 L277 59 L276 58 L274 58 L273 57 L271 57 L270 56 L269 56 L266 53 L265 53 L262 50 L261 50 L260 49 L259 49 L257 47 L256 47 L255 46 L254 46 L252 44 L251 44 L249 42 L248 42 L241 35 L240 35 L237 32 L236 32 L234 30 L233 30 L232 29 L231 29 L229 27 L228 27 L227 26 L226 26 L225 25 L224 25 L223 24 L221 24 L220 23 L218 23 L217 22 L214 22 L213 21 L208 21 L207 20 L183 20 L182 21 L173 21 L172 20 L168 20 L167 19 L164 19 L163 18 L162 18 L161 17 L160 17 L159 16 L158 16 L157 15 L156 15 L155 14 L154 14 L153 13 L152 13 L151 12 L149 12 L148 11 L144 11 L143 10 Z " fill="black"/></svg>