<svg width="427" height="853" xmlns="http://www.w3.org/2000/svg"><path d="M215 10 L212 13 L212 14 L211 15 L211 16 L210 17 L210 18 L207 21 L207 22 L204 25 L204 26 L198 32 L198 33 L194 37 L194 38 L182 50 L181 50 L179 52 L178 52 L176 54 L175 54 L173 56 L172 56 L170 58 L169 58 L168 59 L167 59 L165 61 L164 61 L162 63 L161 63 L159 65 L158 65 L154 69 L153 69 L151 71 L150 71 L147 74 L146 74 L144 76 L143 76 L139 80 L138 80 L127 91 L126 91 L110 107 L109 107 L108 108 L108 109 L103 114 L103 115 L100 118 L100 119 L98 121 L98 122 L95 125 L95 126 L93 128 L93 129 L91 131 L91 132 L88 135 L88 136 L86 138 L86 139 L84 141 L84 142 L81 145 L81 146 L80 147 L80 148 L79 149 L79 150 L78 151 L78 152 L77 153 L77 154 L75 156 L75 157 L74 158 L74 160 L73 161 L73 162 L71 164 L71 166 L69 168 L69 169 L68 170 L68 171 L67 172 L67 173 L66 174 L66 176 L65 177 L65 179 L64 180 L64 181 L63 182 L63 183 L62 184 L62 186 L61 187 L61 188 L60 189 L60 191 L59 192 L59 193 L58 194 L58 196 L57 197 L57 198 L56 199 L56 201 L55 202 L55 203 L54 204 L54 206 L53 207 L53 209 L52 210 L52 212 L51 213 L51 214 L50 215 L50 217 L49 218 L49 220 L48 221 L48 223 L47 224 L47 227 L46 228 L46 231 L45 232 L45 235 L44 236 L44 241 L43 242 L43 245 L42 246 L42 250 L41 251 L41 255 L40 256 L40 260 L39 261 L39 264 L38 265 L38 269 L37 270 L37 273 L36 274 L36 279 L35 280 L35 284 L34 285 L34 289 L33 290 L33 294 L32 295 L32 299 L31 300 L31 304 L30 305 L30 308 L29 309 L29 312 L28 313 L28 315 L27 316 L27 318 L26 319 L26 322 L25 323 L25 327 L24 328 L24 332 L23 333 L23 338 L22 339 L22 344 L21 345 L21 349 L20 350 L20 357 L19 358 L19 365 L18 366 L18 371 L17 372 L17 378 L16 379 L16 384 L15 385 L15 391 L14 392 L14 400 L13 401 L13 408 L12 409 L12 414 L11 415 L11 427 L10 428 L11 429 L11 436 L10 437 L10 440 L11 441 L11 443 L10 444 L10 446 L11 447 L10 448 L10 450 L11 451 L11 468 L12 469 L12 473 L13 474 L13 481 L14 482 L14 489 L15 490 L15 496 L16 497 L16 502 L17 503 L17 508 L18 509 L18 512 L19 513 L19 515 L20 516 L20 520 L21 521 L21 523 L22 524 L22 525 L23 526 L23 528 L24 529 L24 533 L25 534 L25 538 L26 539 L26 540 L27 541 L27 543 L28 544 L28 546 L29 547 L29 548 L30 549 L30 551 L31 552 L31 553 L32 554 L32 556 L33 557 L33 558 L34 559 L34 560 L35 561 L35 562 L36 563 L36 565 L37 566 L37 568 L38 569 L38 570 L41 573 L41 575 L42 576 L42 577 L43 578 L43 579 L44 580 L44 581 L45 582 L45 583 L46 584 L46 585 L48 587 L48 588 L49 589 L49 590 L54 595 L54 596 L55 597 L55 599 L56 600 L56 602 L57 603 L57 604 L59 606 L59 607 L61 609 L61 610 L66 615 L66 616 L67 617 L67 618 L68 619 L68 620 L70 622 L70 623 L76 629 L76 630 L79 633 L79 634 L92 647 L92 648 L95 651 L96 651 L102 657 L102 658 L109 665 L110 665 L115 670 L116 670 L121 675 L122 675 L125 678 L126 678 L128 680 L129 680 L132 683 L133 683 L136 686 L137 686 L139 688 L140 688 L142 690 L143 690 L146 693 L147 693 L148 694 L149 694 L153 698 L154 698 L156 700 L158 700 L159 701 L160 701 L161 702 L162 702 L163 703 L166 703 L167 704 L169 704 L170 705 L172 705 L174 707 L175 707 L176 708 L177 708 L179 710 L180 710 L182 712 L183 712 L186 715 L187 715 L189 717 L190 717 L191 718 L191 719 L195 723 L195 724 L197 726 L197 727 L198 728 L198 729 L199 730 L199 732 L201 734 L201 736 L202 737 L202 741 L203 742 L203 747 L202 748 L202 757 L201 758 L201 765 L200 766 L200 772 L199 773 L199 779 L198 780 L198 789 L197 790 L197 793 L196 794 L196 798 L195 799 L195 802 L194 803 L194 807 L193 808 L193 810 L192 811 L192 813 L191 814 L191 816 L190 817 L190 819 L189 820 L189 824 L188 825 L188 827 L187 828 L187 836 L188 837 L188 838 L191 841 L195 841 L196 840 L197 840 L198 839 L200 839 L201 838 L202 838 L203 837 L205 837 L206 836 L208 836 L209 835 L211 835 L212 834 L213 834 L214 833 L215 833 L217 831 L217 830 L218 829 L218 827 L219 826 L219 824 L220 823 L220 821 L219 820 L220 819 L220 816 L221 815 L221 814 L223 812 L223 805 L224 804 L224 800 L225 799 L225 796 L226 795 L226 788 L227 787 L227 777 L228 776 L228 769 L229 768 L229 761 L230 760 L230 754 L231 753 L231 746 L232 745 L232 741 L233 740 L233 737 L234 736 L234 735 L235 734 L235 732 L236 731 L236 730 L238 728 L238 727 L240 725 L240 724 L241 723 L241 722 L242 721 L242 720 L244 718 L245 718 L246 717 L247 717 L249 715 L250 715 L251 714 L252 714 L254 712 L255 712 L256 711 L257 711 L259 709 L260 709 L262 707 L263 707 L264 706 L265 706 L267 704 L269 704 L271 702 L273 702 L274 701 L275 701 L278 698 L279 698 L281 696 L282 696 L283 695 L284 695 L285 694 L287 694 L289 692 L290 692 L292 690 L293 690 L296 687 L297 687 L301 683 L302 683 L304 681 L305 681 L307 679 L308 679 L311 676 L312 676 L315 673 L316 673 L319 670 L319 669 L321 667 L322 667 L325 664 L326 664 L327 663 L327 662 L329 660 L329 659 L331 657 L332 657 L342 647 L342 646 L348 640 L348 639 L356 631 L356 630 L358 628 L358 627 L359 626 L359 625 L362 622 L362 621 L365 618 L365 617 L367 615 L367 614 L369 612 L369 611 L371 609 L371 608 L372 607 L372 606 L375 603 L375 602 L376 601 L376 600 L377 599 L377 597 L378 596 L378 595 L379 594 L379 593 L380 592 L380 590 L381 589 L381 588 L383 586 L383 585 L384 584 L384 583 L385 582 L385 581 L387 579 L387 578 L388 577 L388 575 L389 574 L389 573 L390 572 L390 570 L391 569 L391 568 L392 567 L392 565 L393 564 L393 563 L394 562 L394 560 L395 559 L395 557 L396 556 L396 555 L397 554 L397 553 L398 552 L398 550 L399 549 L399 547 L400 546 L400 543 L401 542 L401 540 L402 539 L402 537 L403 536 L403 534 L404 533 L404 530 L405 529 L405 527 L406 526 L406 518 L407 517 L407 515 L408 514 L408 509 L409 508 L409 502 L410 501 L410 497 L411 496 L411 491 L412 490 L412 484 L413 483 L413 477 L414 476 L414 457 L415 456 L415 415 L414 414 L414 404 L413 403 L413 391 L412 390 L412 385 L411 384 L412 383 L412 381 L411 380 L411 374 L410 373 L410 367 L409 366 L409 361 L408 360 L408 352 L407 351 L407 347 L406 346 L406 342 L405 341 L405 339 L404 338 L404 335 L403 334 L403 329 L402 328 L402 325 L401 324 L401 320 L400 319 L400 316 L399 315 L399 310 L398 309 L398 306 L397 305 L397 302 L396 301 L396 298 L395 297 L395 295 L394 294 L394 290 L393 289 L393 285 L392 284 L392 282 L391 281 L391 278 L390 277 L390 276 L389 275 L389 273 L388 272 L388 270 L387 269 L387 264 L386 263 L386 261 L385 260 L385 259 L384 258 L384 256 L383 255 L383 253 L382 252 L382 250 L381 249 L381 247 L380 246 L380 244 L379 243 L379 241 L378 240 L378 238 L377 237 L377 235 L376 234 L376 231 L375 230 L375 228 L374 227 L374 224 L373 223 L373 221 L372 220 L372 218 L371 217 L371 216 L370 215 L370 213 L369 212 L369 210 L368 209 L368 206 L367 205 L367 203 L366 202 L366 200 L365 199 L365 197 L364 196 L364 195 L363 194 L363 193 L362 192 L362 190 L361 189 L361 188 L360 187 L360 185 L359 184 L359 182 L358 181 L358 179 L357 178 L357 177 L356 176 L356 175 L355 174 L355 173 L354 172 L354 170 L353 169 L353 168 L352 167 L352 166 L351 165 L351 164 L350 163 L350 161 L349 160 L349 159 L348 158 L348 157 L347 156 L347 154 L346 153 L346 152 L345 151 L345 150 L343 148 L343 147 L342 146 L342 145 L341 144 L341 143 L340 142 L340 141 L339 140 L339 139 L338 138 L338 137 L336 135 L336 134 L331 129 L331 128 L328 125 L328 124 L325 121 L325 120 L322 117 L322 116 L318 112 L318 111 L313 106 L313 105 L296 88 L295 88 L284 77 L283 77 L280 74 L279 74 L277 72 L276 72 L273 69 L272 69 L269 66 L268 66 L266 64 L265 64 L264 63 L263 63 L260 60 L259 60 L257 58 L256 58 L254 56 L253 56 L252 55 L251 55 L249 53 L248 53 L245 50 L244 50 L237 43 L237 42 L233 38 L233 37 L232 36 L232 35 L230 33 L230 31 L228 29 L228 28 L225 25 L225 24 L220 19 L220 18 L219 17 L219 15 L218 14 L218 12 L217 12 Z M315 0 L316 1 L317 0 L318 1 L323 1 L326 4 L326 6 L327 7 L327 12 L328 13 L328 17 L329 18 L329 22 L330 23 L330 26 L331 27 L331 29 L330 30 L328 30 L327 29 L326 29 L325 28 L322 28 L322 30 L323 31 L323 34 L329 34 L330 35 L333 35 L334 36 L334 38 L335 39 L335 43 L336 44 L336 53 L337 54 L337 63 L338 64 L338 65 L340 65 L341 64 L342 64 L344 66 L345 66 L348 69 L349 69 L351 71 L353 71 L354 72 L355 72 L356 71 L358 71 L360 69 L363 69 L364 70 L365 70 L368 67 L370 67 L371 68 L372 68 L373 69 L373 71 L374 71 L376 73 L377 72 L379 72 L380 73 L386 73 L387 72 L388 73 L388 72 L390 70 L391 70 L391 69 L393 67 L397 67 L398 68 L398 69 L400 71 L404 71 L405 72 L409 72 L410 73 L411 73 L413 71 L414 72 L414 73 L416 71 L417 71 L419 69 L419 68 L420 67 L420 66 L421 65 L422 65 L423 66 L425 66 L426 67 L426 69 L426 0 Z M14 0 L14 1 L15 2 L15 4 L16 5 L16 6 L18 8 L18 9 L19 10 L19 11 L20 12 L21 12 L25 16 L25 17 L27 19 L27 20 L31 24 L31 25 L32 26 L32 27 L33 28 L33 31 L36 34 L38 34 L39 35 L43 35 L44 36 L45 36 L46 37 L47 37 L48 38 L52 38 L53 39 L75 39 L76 38 L77 38 L78 39 L80 39 L81 38 L87 38 L88 37 L95 37 L96 36 L100 36 L104 32 L104 31 L105 30 L105 29 L108 26 L108 25 L109 24 L110 24 L115 19 L116 19 L119 16 L119 15 L120 14 L120 11 L121 10 L121 7 L122 6 L122 4 L123 3 L123 2 L124 1 L124 0 Z " fill="black"/></svg>