<svg width="296" height="251" xmlns="http://www.w3.org/2000/svg"><path d="M287 189 L285 191 L285 194 L286 195 L286 196 L287 197 L287 198 L289 200 L289 201 L292 204 L292 205 L295 208 L295 189 Z M18 43 L17 44 L15 44 L13 46 L12 46 L11 47 L10 47 L9 48 L8 48 L7 49 L6 49 L5 50 L4 50 L3 51 L2 51 L1 52 L0 52 L0 71 L0 70 L2 68 L2 67 L9 60 L9 59 L13 55 L13 54 L19 48 L19 47 L22 44 L22 43 Z M160 10 L159 11 L150 11 L149 12 L146 12 L145 13 L143 13 L142 14 L140 14 L139 15 L137 15 L135 17 L134 17 L133 18 L132 18 L131 19 L130 19 L128 21 L127 21 L125 23 L124 23 L122 25 L121 25 L117 29 L116 29 L113 32 L113 33 L111 35 L111 36 L109 38 L109 39 L108 40 L108 41 L107 42 L107 43 L106 44 L106 46 L105 47 L105 49 L104 50 L104 53 L103 54 L103 56 L102 57 L102 61 L101 62 L101 67 L102 68 L102 74 L103 75 L103 80 L104 81 L104 85 L105 86 L105 89 L106 90 L106 93 L107 94 L107 97 L106 98 L105 97 L104 97 L102 95 L101 95 L100 94 L99 94 L97 92 L95 92 L94 91 L93 91 L92 90 L91 90 L90 89 L88 89 L87 88 L84 88 L83 87 L76 87 L75 86 L60 86 L59 87 L55 87 L54 88 L52 88 L51 89 L50 89 L49 90 L48 90 L47 91 L45 91 L40 96 L39 96 L36 99 L35 99 L33 101 L32 101 L23 110 L23 111 L20 114 L20 115 L18 117 L18 118 L17 119 L17 120 L16 121 L16 122 L15 123 L15 125 L14 126 L14 127 L13 128 L13 130 L12 131 L12 137 L11 138 L11 150 L12 151 L12 158 L13 159 L13 162 L14 163 L14 166 L15 167 L15 169 L16 170 L16 171 L17 172 L17 173 L18 174 L18 175 L20 177 L20 178 L21 178 L24 181 L25 181 L27 183 L27 184 L28 185 L28 186 L29 187 L29 190 L30 191 L30 195 L31 196 L31 198 L32 199 L32 200 L33 201 L33 203 L35 205 L35 206 L36 207 L36 208 L39 211 L39 212 L48 221 L49 221 L52 224 L53 224 L56 227 L57 227 L59 229 L60 229 L61 230 L62 230 L63 231 L64 231 L65 232 L66 232 L67 233 L68 233 L69 234 L71 234 L72 235 L73 235 L74 236 L76 236 L77 237 L80 237 L81 238 L87 238 L88 239 L110 239 L111 238 L115 238 L116 237 L118 237 L119 236 L121 236 L122 235 L123 235 L124 234 L125 234 L126 233 L128 233 L130 231 L131 231 L132 230 L133 230 L143 220 L143 219 L144 218 L144 217 L145 216 L145 215 L146 214 L146 213 L147 212 L149 212 L150 213 L151 213 L152 214 L153 214 L154 215 L155 215 L156 216 L157 216 L158 217 L159 217 L160 218 L161 218 L162 219 L163 219 L164 220 L167 220 L168 221 L171 221 L172 220 L180 220 L181 219 L185 219 L186 218 L188 218 L189 217 L191 217 L192 216 L193 216 L194 215 L196 215 L197 214 L198 214 L199 213 L200 213 L201 212 L203 212 L205 210 L206 210 L207 209 L208 209 L209 208 L210 208 L212 206 L213 206 L217 202 L218 202 L230 190 L230 189 L236 183 L236 182 L239 179 L239 178 L241 176 L241 175 L243 173 L243 172 L245 170 L245 169 L248 166 L248 165 L250 163 L250 162 L251 161 L251 160 L253 158 L253 157 L254 156 L254 155 L255 154 L255 153 L257 151 L257 150 L259 148 L259 147 L261 145 L261 144 L264 141 L264 140 L266 138 L266 137 L268 135 L268 134 L269 133 L269 132 L272 129 L272 128 L274 126 L274 125 L276 123 L276 122 L277 121 L277 120 L278 119 L278 118 L279 117 L279 115 L280 114 L280 112 L281 111 L281 108 L282 107 L282 104 L283 103 L283 99 L284 98 L284 84 L283 83 L283 80 L282 79 L282 78 L281 77 L281 75 L280 74 L280 73 L279 72 L279 71 L277 69 L277 68 L276 67 L276 66 L275 65 L275 64 L274 63 L274 62 L273 61 L273 60 L271 58 L271 57 L267 53 L267 52 L266 51 L265 51 L261 47 L260 47 L258 45 L257 45 L255 43 L254 43 L253 42 L252 42 L251 41 L250 41 L249 40 L248 40 L247 39 L245 39 L244 38 L241 38 L240 37 L233 37 L232 36 L231 37 L226 37 L223 34 L223 33 L222 32 L221 32 L209 20 L208 20 L207 19 L206 19 L204 17 L202 17 L201 16 L200 16 L199 15 L198 15 L197 14 L195 14 L194 13 L192 13 L191 12 L187 12 L186 11 L174 11 L173 10 Z " fill="black"/></svg>