<svg width="713" height="516" xmlns="http://www.w3.org/2000/svg"><path d="M480 11 L479 12 L477 12 L476 13 L475 13 L474 14 L473 14 L472 15 L471 15 L470 16 L469 16 L468 17 L467 17 L466 18 L464 18 L463 19 L462 19 L461 20 L459 20 L458 21 L457 21 L456 22 L455 22 L454 23 L453 23 L452 24 L451 24 L450 25 L448 25 L447 26 L446 26 L445 27 L444 27 L443 28 L441 28 L440 29 L439 29 L438 30 L436 30 L434 32 L433 32 L430 35 L429 35 L417 47 L417 48 L413 52 L413 53 L411 55 L411 56 L409 58 L409 59 L407 61 L407 62 L405 64 L405 65 L403 67 L403 68 L402 69 L402 70 L401 71 L401 72 L399 74 L399 75 L398 76 L398 77 L397 78 L397 79 L396 80 L396 81 L395 82 L395 83 L394 84 L394 85 L392 87 L392 88 L390 90 L386 90 L385 89 L381 89 L380 88 L374 88 L373 87 L369 87 L368 86 L364 86 L363 85 L356 85 L355 84 L323 84 L322 85 L316 85 L315 86 L311 86 L310 87 L305 87 L304 88 L300 88 L299 89 L296 89 L295 90 L292 90 L291 91 L287 91 L286 92 L283 92 L282 93 L278 93 L277 94 L274 94 L273 95 L269 95 L268 96 L266 96 L265 97 L261 97 L260 98 L257 98 L256 99 L253 99 L252 100 L250 100 L249 101 L245 101 L244 102 L241 102 L240 103 L237 103 L236 104 L233 104 L232 105 L229 105 L228 106 L225 106 L224 107 L221 107 L220 108 L217 108 L216 109 L213 109 L212 110 L209 110 L208 111 L204 111 L203 112 L200 112 L199 113 L196 113 L195 114 L192 114 L191 115 L188 115 L187 116 L184 116 L183 117 L180 117 L179 118 L176 118 L175 119 L172 119 L171 120 L168 120 L167 121 L163 121 L162 122 L159 122 L158 123 L156 123 L155 124 L151 124 L150 125 L148 125 L147 126 L144 126 L143 127 L140 127 L139 128 L136 128 L135 129 L133 129 L132 130 L129 130 L128 131 L125 131 L124 132 L121 132 L120 133 L117 133 L116 134 L113 134 L112 135 L109 135 L108 136 L105 136 L104 137 L101 137 L100 138 L97 138 L96 139 L93 139 L92 140 L89 140 L88 141 L86 141 L85 142 L83 142 L82 143 L79 143 L78 144 L74 144 L73 145 L70 145 L69 146 L66 146 L65 147 L61 147 L60 148 L57 148 L56 149 L53 149 L52 150 L49 150 L48 151 L46 151 L44 153 L43 153 L41 155 L39 155 L38 154 L36 154 L35 155 L34 155 L33 156 L31 156 L30 157 L29 157 L28 158 L26 158 L25 159 L24 159 L22 161 L21 161 L16 166 L16 167 L14 169 L14 170 L13 171 L13 172 L12 173 L12 175 L11 176 L11 181 L12 182 L12 184 L13 185 L13 186 L14 187 L14 188 L19 193 L20 193 L21 194 L22 194 L23 195 L24 195 L25 196 L26 196 L27 197 L29 197 L30 198 L32 198 L33 199 L34 199 L35 200 L37 200 L38 201 L41 201 L42 202 L43 202 L49 208 L50 208 L60 218 L61 218 L67 224 L68 224 L74 230 L75 230 L82 237 L83 237 L91 245 L92 245 L98 251 L99 251 L106 258 L107 258 L113 264 L114 264 L119 269 L120 269 L123 272 L124 272 L127 275 L128 275 L131 278 L132 278 L135 281 L136 281 L139 284 L140 284 L143 287 L144 287 L146 289 L147 289 L149 291 L150 291 L152 293 L153 293 L154 294 L155 294 L156 295 L157 295 L158 296 L159 296 L160 297 L161 297 L162 298 L163 298 L164 299 L164 300 L163 301 L156 301 L155 302 L151 302 L150 303 L148 303 L147 304 L144 304 L143 305 L142 305 L141 306 L140 306 L139 307 L138 307 L137 308 L135 308 L133 310 L132 310 L130 312 L129 312 L127 314 L126 314 L124 316 L123 316 L106 333 L106 334 L103 337 L103 338 L101 340 L101 341 L99 343 L99 344 L98 345 L98 346 L96 348 L96 349 L95 350 L95 351 L94 352 L94 353 L93 354 L93 355 L92 356 L92 357 L91 358 L91 359 L90 360 L90 362 L89 363 L89 364 L88 365 L88 367 L87 368 L87 370 L86 371 L86 374 L85 375 L85 378 L84 379 L84 382 L83 383 L83 386 L82 387 L81 387 L78 390 L77 390 L75 392 L74 392 L70 396 L69 396 L65 400 L64 400 L60 404 L59 404 L53 410 L53 411 L51 413 L51 414 L50 415 L50 416 L49 417 L49 419 L48 420 L48 429 L49 430 L49 432 L50 433 L50 434 L52 436 L52 437 L59 444 L60 444 L62 446 L63 446 L64 447 L65 447 L66 448 L68 448 L69 449 L71 449 L72 450 L75 450 L76 451 L77 451 L78 452 L80 452 L81 453 L83 453 L84 454 L86 454 L87 455 L88 455 L90 457 L90 458 L91 459 L91 460 L92 461 L92 462 L93 463 L93 464 L95 466 L95 467 L97 469 L97 470 L99 472 L99 473 L102 476 L102 477 L111 486 L112 486 L117 491 L118 491 L120 493 L121 493 L123 495 L124 495 L125 496 L126 496 L127 497 L128 497 L129 498 L131 498 L132 499 L134 499 L135 500 L138 500 L139 501 L141 501 L142 502 L145 502 L146 503 L150 503 L151 504 L159 504 L160 505 L166 505 L167 504 L176 504 L177 503 L182 503 L183 502 L187 502 L188 501 L190 501 L191 500 L192 500 L193 499 L194 499 L195 498 L196 498 L197 497 L198 497 L199 496 L200 496 L201 495 L202 495 L203 494 L204 494 L206 492 L207 492 L209 490 L210 490 L213 487 L214 487 L223 478 L223 477 L227 473 L227 472 L229 470 L229 469 L231 467 L231 466 L233 464 L233 463 L235 461 L235 460 L236 459 L236 458 L237 457 L237 456 L238 455 L238 454 L240 452 L240 451 L241 450 L241 448 L242 447 L242 446 L243 445 L243 444 L244 443 L244 442 L245 441 L245 439 L246 438 L246 436 L247 435 L247 432 L248 431 L248 428 L249 427 L249 424 L250 423 L250 418 L251 417 L251 409 L252 408 L252 387 L251 386 L255 382 L256 382 L257 381 L258 381 L260 379 L261 379 L262 378 L263 378 L264 377 L265 377 L266 376 L267 376 L268 375 L269 375 L270 374 L271 374 L273 372 L274 372 L275 371 L276 371 L277 370 L278 370 L279 369 L280 369 L281 368 L283 368 L286 371 L286 372 L290 376 L290 377 L293 380 L293 381 L303 391 L304 391 L306 393 L307 393 L308 394 L309 394 L310 395 L312 395 L313 396 L317 396 L318 397 L319 396 L322 396 L323 395 L326 395 L327 394 L328 394 L329 393 L330 393 L332 391 L333 391 L336 388 L337 388 L339 386 L339 385 L342 382 L342 381 L343 380 L343 379 L344 378 L344 377 L345 376 L345 374 L346 373 L346 370 L347 369 L347 365 L348 364 L348 360 L349 359 L349 354 L350 353 L350 346 L351 345 L355 349 L355 350 L357 352 L357 353 L359 355 L359 356 L363 360 L363 361 L366 364 L366 365 L369 368 L369 369 L372 372 L372 373 L374 375 L374 376 L376 378 L376 379 L378 381 L378 382 L380 384 L380 385 L382 387 L382 388 L385 391 L385 392 L388 395 L388 396 L391 399 L391 400 L395 404 L395 405 L398 408 L398 409 L401 412 L401 413 L403 415 L403 416 L407 420 L407 421 L412 426 L412 427 L414 429 L415 429 L420 434 L421 434 L423 436 L424 436 L425 437 L426 437 L427 438 L428 438 L429 439 L432 439 L433 440 L442 440 L443 439 L448 439 L449 438 L451 438 L452 437 L453 437 L454 436 L455 436 L456 435 L457 435 L458 434 L459 434 L462 431 L463 431 L466 428 L466 427 L469 424 L469 423 L471 421 L471 420 L473 418 L473 417 L474 416 L474 414 L475 413 L475 412 L476 411 L476 409 L477 408 L477 405 L478 404 L478 400 L479 399 L479 392 L480 391 L480 372 L481 371 L481 346 L482 345 L482 323 L483 322 L483 292 L484 291 L484 280 L485 279 L485 276 L486 275 L486 273 L487 272 L487 271 L488 270 L488 269 L489 268 L489 267 L490 266 L490 265 L491 264 L491 263 L493 261 L493 260 L496 257 L496 256 L500 252 L500 251 L504 247 L504 246 L508 242 L508 241 L511 238 L511 237 L516 232 L516 231 L520 227 L520 226 L523 223 L523 222 L527 218 L527 217 L531 213 L531 212 L534 209 L534 208 L538 204 L538 203 L541 200 L541 199 L544 196 L544 195 L548 191 L548 190 L552 186 L552 185 L556 181 L556 180 L559 177 L559 176 L563 172 L563 171 L566 168 L566 167 L570 163 L570 162 L574 158 L574 157 L577 154 L577 153 L581 149 L581 148 L586 143 L586 142 L590 138 L590 137 L594 133 L594 132 L598 128 L598 127 L602 123 L602 122 L606 118 L606 117 L612 111 L612 110 L621 101 L622 101 L624 99 L625 99 L626 98 L627 98 L628 97 L637 97 L638 96 L640 96 L641 95 L642 95 L643 94 L645 94 L646 93 L647 93 L648 92 L649 92 L650 91 L651 91 L652 90 L653 90 L654 89 L655 89 L656 88 L658 88 L659 87 L660 87 L661 86 L662 86 L663 85 L665 85 L666 84 L668 84 L669 83 L671 83 L672 82 L674 82 L675 81 L677 81 L678 80 L681 80 L682 79 L684 79 L685 78 L687 78 L688 77 L689 77 L690 76 L692 76 L693 75 L694 75 L697 72 L698 72 L698 71 L700 69 L700 68 L701 67 L701 57 L700 56 L700 54 L699 53 L699 52 L696 49 L695 49 L694 48 L693 48 L691 46 L687 46 L686 45 L682 45 L681 46 L677 46 L676 47 L674 47 L673 48 L671 48 L670 49 L668 49 L667 50 L666 50 L665 51 L663 51 L662 52 L661 52 L660 53 L658 53 L657 54 L656 54 L655 55 L654 55 L653 56 L651 56 L650 57 L649 57 L648 58 L647 58 L646 59 L644 59 L643 60 L642 60 L641 61 L640 61 L639 62 L638 62 L637 63 L636 63 L635 64 L634 64 L633 65 L631 65 L630 66 L628 66 L627 67 L626 67 L624 69 L623 69 L619 73 L618 73 L617 74 L616 74 L614 76 L613 76 L610 79 L609 79 L600 88 L600 89 L595 94 L595 95 L588 102 L588 103 L584 107 L584 108 L580 112 L580 113 L576 117 L576 118 L572 122 L572 123 L569 126 L569 127 L566 130 L566 131 L562 135 L562 136 L558 140 L558 141 L554 145 L554 146 L550 150 L550 151 L546 155 L546 156 L542 160 L542 161 L538 165 L538 166 L535 169 L535 170 L529 176 L529 177 L524 182 L524 183 L521 186 L521 187 L519 189 L519 190 L517 192 L517 193 L515 195 L514 194 L514 191 L515 190 L515 186 L516 185 L516 182 L517 181 L517 177 L518 176 L518 173 L519 172 L519 169 L520 168 L520 166 L521 165 L521 163 L522 162 L522 159 L523 158 L523 155 L524 154 L524 152 L525 151 L526 151 L527 150 L528 150 L529 149 L530 149 L531 148 L532 148 L538 142 L538 141 L539 140 L539 138 L540 137 L540 129 L539 128 L539 126 L538 125 L538 124 L533 119 L532 119 L531 118 L530 118 L529 117 L527 117 L526 116 L524 116 L523 115 L521 115 L520 114 L517 114 L516 113 L513 113 L512 112 L508 112 L507 111 L504 111 L503 110 L499 110 L498 109 L494 109 L493 108 L489 108 L488 107 L484 107 L483 106 L479 106 L478 105 L475 105 L474 104 L469 104 L468 103 L464 103 L463 102 L459 102 L458 101 L453 101 L452 100 L447 100 L446 99 L441 99 L440 98 L434 98 L433 97 L426 97 L425 96 L420 96 L419 95 L416 95 L415 94 L415 91 L416 90 L416 89 L418 87 L418 86 L419 85 L419 84 L420 83 L420 82 L421 81 L421 80 L422 79 L422 78 L424 76 L424 75 L425 74 L425 73 L427 71 L427 70 L429 68 L429 67 L432 64 L433 64 L435 62 L436 62 L437 61 L439 61 L440 60 L441 60 L442 61 L443 61 L444 60 L447 60 L448 59 L449 59 L450 58 L451 58 L452 57 L453 57 L454 56 L455 56 L456 55 L457 55 L458 54 L459 54 L460 53 L461 53 L462 52 L463 52 L464 51 L465 51 L466 50 L467 50 L468 49 L470 49 L472 47 L473 47 L474 46 L476 46 L477 45 L478 45 L479 44 L480 44 L481 43 L483 43 L484 42 L485 42 L486 41 L488 41 L489 40 L490 40 L491 39 L492 39 L494 37 L495 37 L497 35 L497 34 L498 33 L498 32 L499 31 L499 30 L500 29 L500 23 L499 22 L499 20 L497 18 L497 17 L494 14 L493 14 L491 12 L489 12 L488 11 Z " fill="black"/></svg>