<svg width="645" height="1016" xmlns="http://www.w3.org/2000/svg"><path d="M41 1009 L40 1010 L32 1010 L31 1011 L28 1011 L27 1012 L26 1012 L25 1013 L23 1013 L22 1014 L21 1014 L20 1015 L19 1015 L71 1015 L68 1015 L67 1014 L65 1014 L64 1013 L62 1013 L61 1012 L59 1012 L58 1011 L55 1011 L54 1010 L47 1010 L46 1009 L45 1009 L44 1010 L43 1009 Z M0 945 L0 1015 L10 1015 L11 1014 L12 1014 L13 1013 L14 1013 L15 1012 L16 1012 L17 1011 L19 1011 L20 1010 L21 1010 L26 1005 L26 1004 L27 1003 L27 1001 L28 1000 L28 999 L29 998 L29 997 L30 996 L30 995 L31 994 L31 993 L32 992 L32 986 L28 982 L27 982 L26 981 L24 981 L23 980 L18 980 L17 979 L8 979 L6 977 L6 976 L7 975 L7 971 L8 970 L8 963 L7 962 L7 955 L6 954 L6 953 L5 952 L5 950 L2 947 L2 946 L1 946 Z M295 11 L294 12 L290 12 L289 13 L285 13 L284 14 L280 14 L279 15 L277 15 L276 16 L274 16 L273 17 L271 17 L270 18 L268 18 L267 19 L266 19 L265 20 L264 20 L263 21 L262 21 L260 23 L259 23 L254 28 L253 28 L250 31 L249 31 L247 33 L246 33 L245 34 L244 34 L243 35 L242 35 L241 36 L240 36 L239 37 L238 37 L236 39 L235 39 L234 40 L233 40 L232 41 L231 41 L230 42 L229 42 L228 43 L226 43 L225 44 L224 44 L223 45 L222 45 L221 46 L220 46 L219 47 L218 47 L217 48 L216 48 L214 50 L213 50 L205 58 L204 58 L199 63 L199 64 L196 67 L196 68 L193 71 L193 72 L190 75 L189 75 L187 77 L186 77 L185 78 L184 78 L183 79 L182 79 L180 81 L179 81 L178 82 L177 82 L176 83 L175 83 L174 84 L172 84 L171 85 L170 85 L169 86 L168 86 L167 87 L166 87 L165 88 L164 88 L163 89 L162 89 L160 91 L159 91 L156 94 L155 94 L150 99 L150 100 L148 102 L148 103 L146 105 L146 107 L145 108 L145 109 L144 110 L144 112 L143 113 L143 114 L142 115 L142 117 L141 118 L141 119 L140 120 L140 121 L139 122 L139 123 L138 124 L138 125 L127 136 L127 137 L111 153 L111 154 L109 156 L109 157 L108 158 L108 159 L107 160 L107 161 L106 162 L106 163 L105 164 L105 165 L104 166 L104 167 L103 168 L103 169 L91 181 L91 182 L83 190 L82 190 L80 192 L80 193 L77 196 L77 197 L74 200 L74 201 L72 203 L72 204 L70 206 L70 207 L69 208 L69 209 L68 210 L68 211 L66 213 L66 214 L64 216 L64 217 L61 220 L61 221 L58 224 L58 225 L57 226 L57 227 L56 228 L56 230 L55 231 L55 232 L54 233 L54 234 L53 235 L53 237 L52 238 L52 240 L51 241 L51 243 L50 244 L50 247 L49 248 L49 251 L48 252 L48 253 L47 254 L47 255 L46 256 L46 258 L45 259 L45 261 L44 262 L44 263 L43 264 L43 265 L42 266 L42 267 L41 268 L41 269 L40 270 L40 271 L39 272 L39 273 L38 274 L38 277 L37 278 L37 280 L36 281 L36 284 L35 285 L35 289 L34 290 L34 293 L33 294 L33 295 L32 296 L32 297 L31 298 L31 300 L30 301 L30 302 L29 303 L29 304 L28 305 L28 307 L27 308 L27 309 L26 310 L26 311 L24 313 L24 314 L23 315 L23 317 L22 318 L22 319 L21 320 L21 324 L20 325 L20 330 L19 331 L19 334 L18 335 L18 338 L17 339 L17 341 L16 342 L16 345 L15 346 L15 347 L14 348 L14 349 L13 350 L13 351 L12 352 L12 355 L11 356 L11 366 L10 367 L10 371 L11 372 L11 379 L12 380 L12 381 L11 382 L11 387 L10 388 L10 397 L11 398 L11 411 L10 412 L10 429 L11 430 L11 440 L12 441 L12 446 L13 447 L13 451 L14 452 L14 456 L15 457 L15 461 L16 462 L16 478 L15 479 L15 482 L14 483 L14 485 L13 486 L13 487 L12 488 L12 490 L11 491 L11 510 L12 511 L12 520 L13 521 L13 525 L14 526 L14 529 L15 530 L15 532 L16 533 L16 534 L17 535 L17 537 L18 538 L18 540 L19 541 L19 560 L20 561 L20 570 L21 571 L21 580 L22 581 L22 597 L23 598 L23 620 L24 621 L24 633 L25 634 L25 649 L26 650 L26 672 L27 673 L27 683 L28 684 L28 687 L29 688 L29 690 L32 693 L33 693 L38 688 L38 687 L40 685 L40 684 L42 682 L42 681 L43 680 L43 679 L44 678 L44 677 L45 676 L45 675 L46 674 L46 672 L47 671 L47 670 L48 669 L48 667 L49 666 L49 665 L50 664 L50 662 L51 661 L51 660 L52 659 L52 658 L53 657 L53 655 L55 653 L55 651 L56 650 L56 649 L57 648 L57 646 L58 645 L58 643 L59 642 L59 640 L60 639 L60 638 L61 637 L61 636 L63 634 L63 633 L68 628 L68 627 L73 622 L74 622 L81 615 L81 614 L86 609 L86 608 L90 604 L90 603 L92 601 L92 600 L95 597 L95 596 L98 593 L98 592 L101 589 L101 588 L103 586 L103 585 L104 584 L104 583 L105 582 L105 581 L106 580 L106 579 L107 578 L107 576 L108 575 L108 572 L109 571 L109 567 L110 566 L110 563 L111 562 L111 559 L112 558 L112 556 L113 555 L113 554 L118 549 L118 548 L124 542 L124 541 L131 534 L132 534 L137 529 L138 529 L140 527 L140 526 L144 522 L144 521 L146 519 L146 518 L148 516 L148 515 L149 514 L149 512 L150 511 L150 510 L151 509 L151 508 L152 507 L152 505 L153 504 L153 503 L154 502 L154 499 L155 498 L155 496 L156 495 L156 491 L157 490 L157 488 L158 487 L158 485 L159 484 L159 482 L161 480 L161 479 L165 475 L165 474 L167 472 L167 471 L169 469 L169 468 L171 466 L171 465 L173 463 L173 462 L175 460 L175 459 L176 458 L176 457 L177 456 L177 455 L178 454 L178 452 L180 450 L180 449 L181 448 L181 447 L182 446 L182 445 L183 444 L183 443 L184 442 L184 441 L187 438 L187 437 L188 436 L188 435 L190 433 L190 432 L191 431 L191 430 L192 429 L192 427 L193 426 L193 425 L194 424 L194 423 L195 422 L195 421 L196 420 L196 419 L197 418 L197 417 L198 416 L198 414 L199 413 L199 412 L200 411 L200 409 L201 408 L201 406 L202 405 L202 402 L203 401 L203 399 L204 398 L204 397 L205 396 L205 394 L206 393 L206 391 L207 390 L207 383 L208 382 L208 369 L209 368 L209 367 L210 366 L212 368 L212 369 L213 370 L213 371 L214 372 L214 374 L215 375 L215 378 L216 379 L216 382 L217 383 L217 385 L218 386 L218 389 L219 390 L219 393 L220 394 L220 396 L221 397 L221 400 L222 401 L222 403 L221 404 L221 408 L220 409 L220 412 L219 413 L219 419 L218 420 L218 427 L217 428 L217 433 L216 434 L216 441 L215 442 L215 447 L214 448 L214 453 L213 454 L213 462 L212 463 L212 475 L211 476 L211 489 L212 490 L212 497 L213 498 L213 501 L214 502 L214 509 L213 510 L213 515 L212 516 L212 521 L211 522 L211 527 L210 528 L210 532 L209 533 L209 557 L208 558 L208 562 L207 563 L207 566 L206 567 L206 570 L205 571 L205 577 L204 578 L204 587 L203 588 L203 598 L204 599 L204 601 L205 602 L205 605 L189 621 L189 622 L187 624 L187 625 L181 631 L181 632 L173 640 L173 641 L169 645 L169 646 L167 648 L167 649 L165 651 L165 652 L162 655 L162 656 L160 658 L160 659 L158 661 L158 662 L157 663 L157 664 L156 665 L156 666 L155 667 L155 669 L154 670 L154 672 L153 673 L153 676 L152 677 L152 679 L150 681 L150 682 L148 684 L148 685 L137 696 L137 697 L135 699 L135 700 L134 701 L134 702 L131 705 L131 706 L129 708 L129 709 L126 712 L126 713 L125 714 L125 715 L123 717 L123 718 L122 719 L122 720 L121 721 L121 723 L120 724 L120 725 L119 726 L119 728 L118 729 L118 731 L117 732 L117 734 L116 735 L116 736 L115 737 L115 738 L113 740 L113 741 L111 743 L111 744 L109 746 L109 747 L108 748 L108 749 L107 750 L107 754 L106 755 L106 757 L105 758 L105 759 L103 761 L103 762 L102 763 L102 764 L101 765 L101 766 L100 767 L100 768 L99 769 L99 770 L98 771 L98 773 L97 774 L97 776 L96 777 L96 779 L95 780 L95 784 L94 785 L94 790 L93 791 L93 797 L92 798 L92 821 L91 822 L91 826 L90 827 L90 829 L89 830 L89 832 L88 833 L88 835 L87 836 L87 839 L86 840 L86 844 L85 845 L85 848 L84 849 L84 854 L83 855 L83 866 L82 867 L82 870 L81 871 L81 873 L80 874 L80 875 L79 876 L79 877 L78 878 L78 880 L77 881 L77 886 L76 887 L76 890 L75 891 L75 894 L74 895 L74 898 L73 899 L73 901 L72 902 L72 905 L71 906 L71 911 L70 912 L70 918 L69 919 L69 924 L68 925 L68 928 L67 929 L67 932 L66 933 L66 937 L65 938 L65 950 L66 951 L66 952 L68 954 L71 954 L72 953 L72 952 L74 950 L74 949 L75 948 L75 947 L76 946 L76 945 L77 944 L77 943 L80 940 L80 939 L83 936 L83 935 L92 926 L92 925 L104 913 L105 913 L111 907 L111 906 L112 905 L112 904 L113 903 L113 902 L126 889 L127 889 L131 885 L132 885 L134 883 L135 883 L137 881 L138 881 L141 878 L142 878 L148 872 L149 872 L151 870 L151 869 L156 864 L156 863 L158 861 L158 860 L159 859 L159 858 L160 857 L160 856 L161 855 L161 854 L162 853 L162 852 L163 851 L163 849 L164 848 L164 846 L167 843 L167 842 L170 839 L170 838 L172 836 L172 835 L174 833 L174 832 L176 830 L176 829 L178 827 L178 826 L181 823 L181 822 L183 820 L183 819 L188 814 L188 813 L190 811 L190 810 L192 808 L192 807 L194 805 L194 804 L196 802 L196 801 L197 800 L197 799 L198 798 L198 797 L199 796 L199 795 L200 794 L200 792 L201 791 L201 789 L202 788 L202 787 L203 786 L203 784 L204 783 L204 781 L205 780 L205 778 L206 777 L206 775 L207 774 L207 773 L208 772 L208 771 L209 770 L209 769 L210 768 L210 766 L211 765 L211 763 L212 762 L212 759 L213 758 L213 757 L214 756 L215 757 L215 764 L214 765 L214 771 L213 772 L213 798 L214 799 L214 806 L215 807 L215 813 L216 814 L216 817 L217 818 L217 819 L219 821 L220 821 L221 820 L221 819 L222 818 L222 817 L224 815 L224 813 L225 812 L225 811 L226 810 L226 808 L228 806 L228 805 L229 804 L229 803 L230 802 L230 801 L231 800 L231 799 L232 798 L232 797 L234 795 L234 794 L235 793 L235 792 L236 791 L236 790 L237 789 L237 788 L240 785 L244 789 L244 790 L246 792 L246 793 L247 794 L247 795 L248 796 L248 797 L249 798 L249 799 L250 800 L250 802 L251 803 L251 804 L252 805 L252 806 L253 807 L253 809 L254 810 L254 811 L255 812 L255 813 L256 814 L256 816 L257 817 L257 820 L258 821 L258 824 L259 825 L259 828 L260 829 L260 832 L261 833 L261 836 L262 837 L262 839 L263 840 L263 841 L264 842 L264 843 L265 844 L265 845 L267 847 L267 848 L272 853 L273 853 L278 858 L278 859 L279 860 L279 866 L280 867 L280 882 L281 883 L281 894 L282 895 L282 909 L283 910 L283 918 L284 919 L284 936 L285 937 L285 949 L286 950 L286 978 L287 979 L287 983 L288 984 L290 984 L292 982 L292 981 L293 980 L293 977 L294 976 L294 974 L295 973 L296 974 L296 977 L297 978 L297 979 L298 980 L298 978 L299 977 L299 976 L300 975 L300 971 L301 970 L300 969 L300 968 L301 967 L302 967 L303 966 L303 964 L304 963 L305 964 L305 969 L304 970 L304 971 L305 972 L305 974 L306 975 L306 977 L307 978 L307 981 L309 981 L310 980 L313 980 L314 979 L315 979 L315 959 L314 958 L314 948 L313 947 L313 939 L312 938 L312 928 L311 927 L311 905 L310 904 L310 896 L309 895 L309 887 L308 886 L308 871 L307 870 L307 860 L308 859 L308 856 L309 855 L309 854 L310 853 L310 852 L311 851 L311 850 L312 849 L312 848 L313 847 L313 846 L314 845 L314 844 L316 842 L316 841 L317 840 L317 839 L318 838 L318 837 L319 836 L319 835 L320 834 L320 833 L322 831 L322 829 L323 828 L323 827 L324 826 L324 824 L325 823 L325 815 L326 814 L326 808 L328 806 L328 805 L329 804 L329 803 L330 802 L330 801 L331 800 L331 799 L332 798 L332 797 L333 796 L333 794 L334 793 L334 792 L335 791 L335 790 L336 789 L336 788 L337 787 L337 786 L338 785 L338 783 L339 782 L339 781 L340 780 L340 778 L341 777 L341 776 L342 775 L342 774 L343 773 L343 771 L344 770 L344 769 L346 767 L347 768 L347 769 L348 770 L348 771 L350 773 L350 774 L352 776 L352 777 L353 778 L353 779 L355 781 L355 782 L362 789 L363 789 L366 792 L367 792 L371 796 L372 796 L375 799 L375 800 L377 802 L377 803 L378 804 L378 805 L379 806 L379 807 L380 808 L380 809 L381 810 L381 812 L382 813 L382 814 L383 815 L383 817 L384 818 L384 819 L386 821 L386 822 L388 824 L388 825 L389 826 L389 827 L390 828 L390 829 L391 830 L391 835 L392 836 L392 838 L393 839 L393 841 L394 842 L394 843 L395 844 L395 845 L397 847 L397 848 L400 851 L400 852 L402 854 L402 855 L406 859 L406 860 L411 865 L412 865 L414 867 L415 867 L417 869 L418 869 L420 871 L421 871 L422 872 L423 872 L424 873 L425 873 L427 875 L428 875 L429 876 L430 876 L432 878 L433 878 L437 882 L437 883 L438 884 L438 885 L440 887 L440 888 L441 889 L441 890 L443 892 L443 893 L444 894 L444 895 L447 898 L447 899 L448 900 L448 901 L450 903 L450 904 L451 905 L451 906 L452 907 L452 908 L454 910 L454 911 L457 914 L457 915 L467 925 L468 925 L471 928 L472 928 L474 930 L475 930 L478 933 L479 933 L481 935 L482 935 L484 937 L485 937 L488 940 L488 941 L491 944 L491 945 L493 947 L493 948 L494 949 L494 950 L496 952 L496 954 L497 955 L497 956 L498 957 L498 958 L499 959 L499 960 L500 961 L500 963 L501 964 L501 965 L502 966 L502 967 L503 968 L503 969 L504 970 L504 972 L507 975 L507 976 L514 983 L514 984 L516 986 L516 987 L519 990 L519 991 L522 994 L522 995 L523 996 L523 997 L524 998 L524 1000 L525 1001 L525 1002 L527 1004 L528 1004 L529 1003 L530 1003 L530 1002 L531 1001 L531 963 L532 962 L532 946 L533 945 L533 941 L534 940 L534 923 L533 922 L533 919 L534 918 L534 916 L535 915 L535 910 L534 909 L534 905 L533 904 L533 902 L532 901 L532 899 L531 898 L531 894 L530 893 L530 891 L529 890 L529 883 L528 882 L528 861 L529 860 L529 854 L530 853 L530 845 L531 844 L531 815 L530 814 L530 812 L529 811 L529 808 L528 807 L528 805 L527 804 L527 803 L526 802 L526 801 L525 800 L525 798 L524 797 L524 795 L523 794 L523 792 L522 791 L522 789 L521 788 L521 787 L520 786 L520 785 L519 784 L519 782 L518 781 L518 754 L517 753 L517 749 L516 748 L516 747 L515 746 L515 744 L514 743 L514 740 L513 739 L513 737 L512 736 L512 734 L511 733 L511 731 L510 730 L510 727 L509 726 L509 722 L508 721 L508 713 L507 712 L507 709 L506 708 L506 707 L505 706 L505 705 L503 703 L503 702 L501 700 L501 699 L499 697 L499 696 L497 694 L497 693 L496 692 L496 690 L495 689 L495 688 L494 687 L494 686 L493 685 L493 683 L492 682 L492 681 L491 680 L491 679 L490 678 L490 677 L489 676 L489 675 L484 670 L484 669 L475 660 L474 660 L465 651 L465 650 L466 649 L469 649 L470 648 L471 648 L474 645 L474 644 L475 643 L475 642 L476 641 L476 639 L477 638 L477 636 L478 635 L478 632 L479 631 L479 627 L480 626 L480 625 L481 624 L481 622 L482 621 L482 614 L481 613 L481 611 L480 610 L480 603 L479 602 L479 601 L478 600 L478 599 L476 597 L476 596 L475 596 L471 592 L470 592 L467 589 L467 588 L466 587 L466 586 L465 585 L465 583 L464 582 L464 580 L463 579 L463 577 L462 576 L462 572 L461 571 L461 570 L460 569 L460 568 L458 566 L458 565 L455 562 L455 561 L454 560 L454 559 L452 557 L452 556 L451 555 L451 554 L450 553 L450 552 L449 551 L449 550 L448 549 L448 548 L447 547 L447 546 L445 544 L445 543 L444 542 L444 541 L443 540 L443 539 L441 537 L441 536 L438 533 L438 532 L434 528 L434 527 L433 527 L430 524 L424 524 L423 525 L422 525 L421 526 L420 526 L412 534 L412 535 L409 538 L409 539 L408 540 L408 541 L407 542 L407 544 L406 545 L406 547 L405 548 L405 550 L404 551 L404 554 L403 555 L403 557 L402 558 L402 561 L401 562 L401 567 L400 568 L400 574 L399 575 L399 577 L398 578 L398 580 L397 581 L397 582 L396 583 L396 584 L395 585 L395 586 L394 587 L392 587 L387 582 L387 581 L385 579 L385 578 L384 577 L384 561 L385 560 L384 559 L385 558 L385 549 L386 548 L386 545 L387 544 L387 542 L388 541 L388 540 L389 539 L389 538 L390 537 L390 536 L391 535 L391 534 L392 533 L392 532 L393 531 L393 530 L394 529 L394 528 L395 527 L395 526 L396 525 L396 523 L397 522 L397 519 L398 518 L398 515 L399 514 L399 509 L400 508 L400 503 L401 502 L401 500 L402 499 L402 497 L403 496 L403 495 L404 494 L404 493 L405 492 L405 491 L406 490 L406 489 L407 488 L407 486 L408 485 L408 483 L409 482 L409 474 L410 473 L410 468 L409 467 L409 439 L410 438 L410 418 L409 417 L409 414 L408 413 L408 411 L407 410 L407 409 L406 408 L406 407 L405 406 L405 405 L404 404 L404 403 L403 402 L403 401 L402 400 L402 398 L403 397 L403 394 L404 393 L404 389 L405 388 L405 386 L406 385 L406 383 L407 382 L407 378 L408 377 L408 375 L409 374 L409 372 L410 371 L410 369 L411 368 L411 366 L413 364 L413 363 L414 362 L414 361 L417 358 L417 357 L422 352 L423 352 L425 354 L425 364 L426 365 L426 371 L427 372 L427 373 L428 374 L428 376 L429 377 L429 378 L431 380 L431 381 L434 384 L434 385 L436 387 L436 388 L437 389 L437 390 L438 391 L438 392 L439 393 L439 394 L440 395 L440 396 L441 397 L441 398 L442 399 L442 401 L443 402 L443 403 L444 404 L444 406 L445 407 L445 409 L446 410 L446 413 L447 414 L447 416 L448 417 L448 420 L449 421 L449 424 L450 425 L450 428 L451 429 L451 432 L452 433 L452 437 L453 438 L453 443 L454 444 L454 453 L455 454 L455 463 L456 464 L456 466 L457 467 L457 469 L458 470 L458 471 L459 472 L459 474 L460 475 L460 476 L461 477 L461 478 L463 480 L463 481 L464 482 L464 483 L466 485 L466 487 L467 488 L467 489 L468 490 L468 492 L469 493 L469 495 L470 496 L470 500 L471 501 L471 505 L472 506 L472 508 L473 509 L473 510 L475 512 L475 513 L477 515 L477 516 L481 520 L482 520 L486 524 L487 524 L490 527 L490 528 L498 536 L498 537 L499 538 L499 539 L500 540 L500 542 L501 543 L501 546 L502 547 L502 550 L503 551 L503 559 L504 560 L504 567 L505 568 L505 573 L506 574 L506 594 L507 595 L507 597 L508 598 L508 599 L511 602 L511 603 L513 605 L513 606 L516 609 L516 610 L517 611 L517 612 L519 614 L519 615 L521 617 L521 618 L523 620 L523 621 L526 624 L526 625 L528 627 L528 628 L531 631 L531 632 L533 634 L533 635 L535 637 L535 638 L536 639 L536 641 L537 642 L537 644 L538 645 L538 647 L539 648 L539 650 L540 651 L540 652 L541 653 L541 654 L543 656 L543 657 L547 661 L547 662 L549 664 L550 664 L554 668 L554 669 L556 671 L556 672 L557 673 L557 674 L558 675 L558 677 L559 678 L559 681 L560 682 L560 686 L561 687 L561 693 L562 694 L562 700 L563 701 L563 706 L564 707 L564 716 L565 717 L565 722 L566 723 L566 727 L567 728 L567 731 L568 732 L568 734 L569 735 L569 737 L570 738 L570 740 L571 741 L571 743 L572 744 L572 746 L573 747 L573 749 L574 750 L574 752 L575 753 L575 756 L576 757 L576 761 L577 762 L577 767 L578 768 L578 771 L580 773 L582 773 L586 769 L586 768 L587 767 L587 764 L588 763 L588 758 L589 757 L589 753 L590 752 L590 748 L591 747 L591 744 L592 743 L592 739 L593 738 L593 733 L594 732 L594 727 L595 726 L595 724 L596 723 L596 720 L597 719 L597 716 L598 715 L598 713 L599 712 L599 710 L600 709 L600 707 L601 706 L601 702 L602 701 L602 698 L603 697 L603 694 L604 693 L604 690 L605 689 L605 686 L606 685 L606 682 L607 681 L607 679 L608 678 L608 675 L609 674 L609 672 L610 671 L610 666 L611 665 L611 662 L612 661 L612 655 L613 654 L613 623 L612 622 L612 609 L613 608 L613 601 L614 600 L614 596 L615 595 L615 590 L616 589 L616 586 L617 585 L617 583 L618 582 L618 581 L619 580 L619 578 L620 577 L620 574 L621 573 L621 569 L622 568 L622 545 L623 544 L623 541 L622 540 L623 539 L623 533 L622 532 L622 530 L623 529 L623 525 L624 524 L624 522 L625 521 L625 520 L626 519 L626 517 L627 516 L627 514 L628 513 L628 509 L629 508 L629 502 L630 501 L630 494 L631 493 L631 477 L632 476 L632 475 L633 474 L633 462 L632 461 L632 459 L631 458 L631 457 L630 456 L630 455 L629 454 L629 453 L628 452 L628 450 L627 449 L627 447 L626 446 L626 445 L625 444 L625 443 L624 442 L624 440 L623 439 L623 436 L622 435 L622 430 L621 429 L621 422 L620 421 L620 389 L619 388 L619 381 L618 380 L618 376 L617 375 L617 373 L616 372 L616 367 L615 366 L615 362 L614 361 L614 357 L613 356 L613 354 L611 352 L611 351 L609 349 L609 348 L607 346 L607 345 L605 343 L605 342 L604 341 L604 340 L602 338 L602 337 L601 336 L601 335 L600 334 L600 333 L599 332 L599 331 L598 330 L598 329 L597 328 L597 326 L596 325 L596 324 L595 323 L595 321 L594 320 L594 318 L593 317 L593 315 L592 314 L592 312 L591 311 L591 309 L590 308 L590 305 L589 304 L589 303 L588 302 L588 300 L587 299 L587 298 L586 297 L586 296 L585 295 L585 293 L584 292 L584 291 L583 290 L583 287 L582 286 L582 284 L581 283 L581 281 L580 280 L580 279 L579 278 L579 277 L578 276 L578 275 L577 274 L577 273 L575 271 L575 270 L572 267 L572 266 L560 254 L560 253 L554 247 L554 246 L551 243 L550 243 L545 238 L544 238 L540 234 L539 234 L526 221 L526 220 L523 217 L523 216 L521 214 L521 213 L520 212 L520 211 L519 210 L519 209 L518 208 L518 207 L517 206 L517 205 L516 204 L516 203 L515 202 L515 201 L514 200 L514 199 L513 198 L513 196 L512 195 L512 194 L511 193 L511 192 L510 191 L510 189 L509 188 L509 187 L508 186 L508 184 L507 183 L507 181 L506 180 L506 179 L505 178 L505 177 L504 176 L504 174 L503 173 L503 171 L502 170 L502 168 L501 167 L501 165 L500 164 L500 163 L499 162 L499 161 L498 160 L498 159 L496 157 L496 156 L491 151 L490 151 L488 149 L487 149 L485 147 L484 147 L483 146 L482 146 L481 145 L480 145 L479 144 L478 144 L477 143 L476 143 L475 142 L474 142 L473 141 L471 141 L469 139 L468 139 L464 135 L464 134 L457 127 L457 126 L441 110 L440 110 L433 103 L432 103 L425 96 L424 96 L423 95 L422 95 L421 94 L420 94 L419 93 L418 93 L416 91 L414 91 L412 89 L411 89 L410 88 L409 88 L407 86 L405 86 L404 85 L403 85 L402 84 L401 84 L400 83 L396 83 L395 84 L394 84 L391 87 L390 87 L390 88 L389 89 L388 89 L383 94 L383 95 L382 96 L382 127 L381 128 L381 142 L380 143 L380 148 L381 149 L381 154 L382 155 L382 157 L383 158 L383 161 L384 162 L384 163 L385 164 L385 167 L386 168 L386 170 L387 171 L387 173 L388 174 L388 181 L387 182 L387 184 L386 185 L386 186 L385 187 L385 188 L384 189 L384 191 L383 192 L383 207 L384 208 L384 210 L385 211 L385 213 L386 214 L386 216 L387 217 L387 219 L388 220 L388 221 L389 222 L389 223 L390 224 L390 225 L391 226 L391 227 L392 228 L392 229 L395 232 L395 233 L401 239 L401 240 L409 248 L409 249 L412 252 L412 253 L414 255 L414 256 L416 258 L416 259 L418 261 L418 262 L420 264 L420 265 L422 267 L422 268 L424 270 L424 271 L426 273 L426 274 L429 277 L429 278 L428 279 L426 279 L425 280 L424 280 L423 281 L422 281 L421 282 L419 282 L418 283 L417 283 L416 284 L415 284 L410 289 L410 290 L409 291 L409 292 L408 293 L408 294 L407 295 L407 296 L408 297 L409 297 L411 299 L411 300 L412 301 L412 303 L413 304 L413 307 L414 308 L414 311 L415 312 L415 315 L416 316 L416 318 L417 319 L417 327 L416 328 L416 329 L415 330 L415 331 L412 334 L412 335 L410 337 L410 338 L408 340 L408 341 L406 343 L406 344 L405 345 L405 346 L404 347 L404 348 L403 349 L403 350 L401 352 L401 353 L399 355 L399 356 L398 357 L398 358 L397 359 L397 360 L395 362 L395 363 L393 365 L392 365 L390 363 L390 361 L389 360 L389 355 L388 354 L388 351 L387 350 L387 348 L386 347 L386 346 L385 345 L385 343 L384 342 L384 339 L383 338 L383 335 L382 334 L382 332 L381 331 L381 327 L380 326 L380 319 L381 318 L381 312 L382 311 L382 305 L383 304 L383 293 L382 292 L382 284 L381 283 L381 279 L380 278 L380 275 L379 274 L379 271 L378 270 L378 268 L377 267 L377 266 L376 265 L376 264 L375 263 L375 261 L374 260 L374 259 L373 258 L373 256 L372 255 L372 252 L371 251 L371 244 L370 243 L370 239 L369 238 L369 235 L368 234 L368 231 L367 230 L367 229 L366 228 L366 227 L365 226 L365 225 L363 223 L363 222 L362 221 L362 220 L361 219 L361 218 L360 217 L360 216 L358 214 L358 213 L357 212 L357 211 L356 210 L356 209 L355 208 L355 206 L354 205 L354 204 L353 203 L353 202 L351 200 L351 199 L348 196 L347 196 L345 194 L343 194 L342 193 L340 193 L339 192 L335 192 L334 193 L333 193 L332 194 L327 194 L326 195 L323 195 L321 197 L320 197 L317 200 L317 201 L315 203 L315 204 L313 206 L313 207 L311 209 L311 210 L310 211 L309 211 L308 212 L306 212 L301 217 L301 218 L300 219 L300 220 L299 221 L299 222 L297 224 L297 225 L295 227 L295 228 L294 229 L294 230 L287 237 L286 237 L284 239 L283 239 L277 245 L277 246 L276 247 L276 248 L275 249 L275 250 L274 251 L274 252 L272 254 L272 255 L270 257 L270 258 L268 260 L268 261 L267 262 L267 263 L265 265 L265 266 L264 267 L264 269 L263 270 L263 272 L262 273 L262 276 L261 277 L261 279 L260 280 L260 282 L259 283 L259 285 L258 286 L258 291 L257 292 L257 302 L256 303 L256 307 L255 308 L255 313 L253 315 L252 314 L252 308 L251 307 L251 292 L250 291 L250 288 L249 287 L249 284 L250 283 L250 279 L251 278 L251 273 L252 272 L252 267 L253 266 L253 260 L254 259 L254 243 L253 242 L253 237 L252 236 L252 232 L251 231 L251 228 L250 227 L250 225 L249 224 L249 222 L248 221 L248 220 L246 218 L246 217 L242 213 L242 212 L241 211 L241 210 L242 209 L242 208 L260 190 L261 190 L265 186 L266 186 L268 184 L269 184 L271 182 L272 182 L274 180 L275 180 L278 177 L278 176 L284 170 L284 169 L287 166 L287 165 L289 163 L289 162 L291 160 L291 159 L292 158 L292 157 L293 156 L293 155 L294 154 L294 152 L295 151 L295 146 L296 145 L296 141 L297 140 L297 136 L298 135 L298 101 L299 100 L299 97 L301 95 L301 94 L304 91 L304 90 L307 87 L307 86 L310 83 L310 82 L311 81 L311 80 L312 79 L312 77 L313 76 L313 64 L312 63 L312 62 L310 60 L309 60 L308 59 L308 54 L309 53 L309 49 L310 48 L310 45 L311 44 L311 35 L312 34 L311 33 L311 24 L310 23 L310 21 L309 20 L309 19 L308 18 L308 17 L307 16 L307 15 L305 13 L305 12 L304 12 L303 11 Z " fill="black"/></svg>