<svg width="361" height="603" xmlns="http://www.w3.org/2000/svg"><path d="M200 11 L199 12 L192 12 L191 13 L188 13 L187 14 L185 14 L184 15 L183 15 L182 16 L181 16 L176 21 L176 22 L175 23 L175 24 L174 25 L174 27 L173 28 L173 30 L174 31 L174 33 L177 36 L179 36 L180 37 L183 37 L184 38 L185 38 L186 37 L193 37 L194 38 L195 38 L202 45 L202 46 L203 47 L203 57 L204 58 L204 137 L203 138 L202 138 L201 139 L200 139 L199 140 L198 140 L193 145 L193 146 L192 147 L192 150 L191 151 L191 158 L192 159 L192 182 L193 183 L193 184 L192 185 L192 186 L191 187 L190 187 L189 188 L188 188 L187 189 L185 189 L184 190 L183 189 L183 183 L182 182 L182 178 L181 177 L181 175 L180 174 L180 173 L179 172 L179 171 L177 169 L177 168 L175 166 L175 165 L165 155 L164 155 L162 153 L161 153 L160 152 L159 152 L158 151 L157 151 L156 150 L155 150 L154 149 L153 149 L152 148 L151 148 L150 147 L149 147 L148 146 L146 146 L145 145 L144 145 L143 144 L142 144 L141 143 L140 143 L139 142 L138 142 L137 141 L136 141 L135 140 L133 140 L132 139 L131 139 L130 138 L129 138 L128 137 L127 137 L126 136 L125 136 L124 135 L123 135 L122 134 L121 134 L120 133 L118 133 L117 132 L116 132 L115 131 L114 131 L113 130 L111 130 L110 129 L109 129 L108 128 L107 128 L106 127 L105 127 L104 126 L103 126 L102 125 L101 125 L100 124 L99 124 L98 123 L96 123 L95 122 L94 122 L93 121 L92 121 L91 120 L90 120 L89 119 L88 119 L87 118 L86 118 L85 117 L84 117 L83 116 L82 116 L81 115 L80 115 L79 114 L78 114 L77 113 L76 113 L75 112 L74 112 L73 111 L72 111 L70 109 L70 107 L65 102 L65 101 L64 100 L63 100 L62 99 L61 99 L60 98 L59 98 L58 97 L57 97 L56 96 L55 96 L54 95 L53 95 L52 94 L48 94 L47 95 L38 95 L37 94 L34 94 L33 93 L30 93 L29 92 L27 92 L26 91 L24 91 L23 92 L21 92 L20 93 L19 93 L14 98 L14 99 L13 100 L13 103 L12 104 L12 106 L11 107 L11 113 L12 114 L12 115 L16 119 L17 119 L21 123 L22 123 L25 126 L26 126 L28 128 L29 128 L36 135 L37 135 L38 136 L45 136 L46 137 L49 137 L50 138 L55 138 L56 137 L57 137 L58 136 L61 136 L62 137 L63 137 L64 138 L66 138 L67 139 L68 139 L69 140 L71 140 L72 141 L73 141 L74 142 L75 142 L76 143 L78 143 L79 144 L80 144 L81 145 L82 145 L83 146 L84 146 L85 147 L87 147 L88 148 L89 148 L90 149 L91 149 L92 150 L94 150 L95 151 L96 151 L97 152 L99 152 L100 153 L101 153 L102 154 L103 154 L104 155 L105 155 L106 156 L107 156 L108 157 L110 157 L111 158 L112 158 L113 159 L114 159 L115 160 L116 160 L117 161 L119 161 L120 162 L121 162 L122 163 L123 163 L124 164 L125 164 L126 165 L127 165 L128 166 L129 166 L130 167 L131 167 L132 168 L133 168 L134 169 L135 169 L136 170 L137 170 L138 171 L139 171 L140 172 L141 172 L142 173 L143 173 L146 176 L147 176 L150 179 L150 180 L153 183 L153 184 L154 185 L154 186 L155 187 L155 188 L156 189 L156 191 L157 192 L157 214 L158 215 L158 225 L156 227 L155 227 L152 230 L151 230 L149 232 L148 232 L147 233 L145 233 L144 234 L141 234 L140 235 L139 235 L138 236 L137 236 L136 237 L136 238 L135 239 L135 240 L134 241 L134 257 L133 258 L133 261 L134 262 L134 275 L135 276 L135 277 L137 279 L140 279 L141 280 L143 280 L144 281 L142 283 L141 283 L140 284 L138 284 L137 285 L135 285 L134 286 L133 286 L132 287 L131 287 L130 288 L129 288 L127 290 L126 290 L125 291 L124 291 L123 292 L122 292 L120 294 L119 294 L117 296 L116 296 L115 297 L114 297 L112 299 L111 299 L109 301 L108 301 L106 303 L105 303 L101 307 L100 307 L94 313 L93 313 L92 314 L92 315 L84 323 L84 324 L81 327 L81 328 L79 330 L79 331 L77 333 L77 334 L76 335 L76 336 L74 338 L74 339 L72 341 L72 342 L71 343 L71 344 L70 345 L70 346 L69 347 L69 348 L68 349 L68 350 L67 351 L67 352 L66 353 L66 354 L65 355 L65 357 L64 358 L64 360 L63 361 L63 363 L62 364 L62 367 L61 368 L61 371 L60 372 L60 375 L59 376 L59 382 L58 383 L58 393 L57 394 L57 477 L58 478 L58 544 L59 545 L59 548 L60 549 L60 550 L62 552 L62 553 L69 560 L70 560 L72 562 L73 562 L76 565 L77 565 L79 567 L80 567 L82 569 L83 569 L84 570 L85 570 L86 571 L87 571 L88 572 L89 572 L90 573 L91 573 L92 574 L93 574 L94 575 L95 575 L96 576 L97 576 L98 577 L99 577 L100 578 L102 578 L103 579 L104 579 L105 580 L107 580 L108 581 L111 581 L112 582 L114 582 L115 583 L117 583 L118 584 L121 584 L122 585 L127 585 L128 586 L132 586 L133 587 L138 587 L139 588 L144 588 L145 589 L152 589 L153 590 L167 590 L168 591 L228 591 L229 590 L243 590 L244 589 L252 589 L253 588 L261 588 L262 587 L269 587 L270 586 L275 586 L276 585 L281 585 L282 584 L287 584 L288 583 L291 583 L292 582 L295 582 L296 581 L299 581 L300 580 L302 580 L303 579 L305 579 L306 578 L308 578 L309 577 L310 577 L311 576 L312 576 L313 575 L314 575 L315 574 L316 574 L317 573 L318 573 L319 572 L320 572 L321 571 L322 571 L324 569 L325 569 L326 568 L327 568 L329 566 L330 566 L332 564 L333 564 L336 561 L337 561 L342 556 L342 555 L345 552 L345 551 L346 550 L346 549 L347 548 L347 546 L348 545 L348 532 L349 531 L349 399 L348 398 L348 391 L347 390 L347 385 L346 384 L346 380 L345 379 L345 375 L344 374 L344 371 L343 370 L343 368 L342 367 L342 364 L341 363 L341 361 L340 360 L340 359 L339 358 L339 356 L338 355 L338 353 L337 352 L337 351 L336 350 L336 349 L335 348 L335 346 L334 345 L334 344 L333 343 L333 342 L332 341 L332 340 L331 339 L331 338 L330 337 L330 336 L328 334 L328 333 L327 332 L327 331 L325 329 L325 328 L322 325 L322 324 L307 309 L306 309 L301 304 L300 304 L298 302 L297 302 L294 299 L293 299 L292 298 L291 298 L289 296 L288 296 L287 295 L286 295 L285 294 L284 294 L282 292 L281 292 L280 291 L279 291 L278 290 L277 290 L276 289 L275 289 L274 288 L273 288 L272 287 L271 287 L270 286 L269 286 L268 285 L267 285 L266 284 L264 284 L263 283 L261 283 L260 282 L260 281 L261 280 L264 280 L265 279 L267 279 L269 277 L270 277 L273 274 L273 258 L274 257 L274 248 L275 247 L281 247 L282 246 L287 246 L288 245 L290 245 L291 244 L293 244 L294 243 L296 243 L297 242 L298 242 L300 240 L302 240 L303 239 L304 239 L308 235 L309 235 L318 226 L318 225 L320 223 L320 222 L322 220 L322 218 L323 217 L323 216 L324 215 L324 214 L325 213 L325 210 L326 209 L326 206 L327 205 L327 187 L326 186 L326 182 L325 181 L325 179 L324 178 L324 177 L323 176 L323 175 L322 174 L322 173 L321 172 L321 171 L318 168 L318 167 L313 162 L313 161 L309 157 L308 157 L304 153 L303 153 L301 151 L300 151 L299 150 L298 150 L297 149 L296 149 L295 148 L294 148 L293 147 L291 147 L290 146 L287 146 L286 145 L282 145 L281 144 L278 144 L277 145 L276 144 L273 144 L272 145 L268 145 L267 146 L264 146 L263 147 L261 147 L260 148 L259 148 L258 149 L256 149 L255 150 L254 150 L252 152 L251 152 L245 158 L245 159 L243 161 L242 161 L241 160 L241 151 L240 150 L240 148 L239 147 L239 146 L238 145 L238 144 L237 143 L237 142 L236 142 L233 139 L231 139 L228 136 L228 135 L227 134 L227 62 L226 61 L226 44 L228 42 L233 42 L234 41 L235 41 L235 40 L237 38 L239 38 L240 37 L246 37 L247 36 L251 36 L252 35 L253 35 L258 30 L258 29 L257 28 L257 26 L256 25 L256 24 L255 23 L255 22 L253 20 L253 19 L251 17 L250 17 L248 15 L246 15 L245 14 L244 14 L243 13 L239 13 L238 12 L229 12 L228 11 Z " fill="black"/></svg>