<svg width="925" height="1170" xmlns="http://www.w3.org/2000/svg"><path d="M327 11 L326 12 L320 12 L319 13 L312 13 L311 14 L304 14 L303 15 L297 15 L296 16 L293 16 L292 17 L290 17 L289 18 L288 18 L287 19 L286 19 L285 20 L284 20 L283 21 L282 21 L281 22 L280 22 L279 23 L278 23 L277 24 L276 24 L275 25 L274 25 L272 27 L271 27 L270 28 L269 28 L267 30 L266 30 L265 31 L264 31 L263 32 L262 32 L260 34 L259 34 L248 45 L248 46 L238 56 L238 57 L235 60 L235 61 L233 63 L233 64 L231 66 L231 67 L229 69 L229 70 L228 71 L228 72 L226 74 L226 75 L225 76 L225 77 L224 78 L224 79 L222 81 L222 82 L221 83 L221 85 L220 86 L220 90 L221 91 L221 92 L222 93 L224 93 L225 92 L226 92 L227 91 L228 91 L229 90 L230 90 L232 88 L233 88 L234 87 L235 87 L236 86 L237 86 L239 84 L240 84 L241 83 L242 83 L243 82 L245 82 L246 81 L248 81 L249 80 L251 80 L252 79 L255 79 L256 78 L259 78 L260 77 L263 77 L264 76 L267 76 L268 75 L274 75 L275 74 L299 74 L300 75 L306 75 L307 76 L310 76 L311 77 L313 77 L314 78 L316 78 L317 79 L319 79 L320 80 L321 80 L322 81 L323 81 L325 83 L326 83 L327 84 L328 84 L331 87 L331 88 L332 89 L332 94 L331 95 L330 95 L329 96 L312 96 L311 95 L301 95 L300 94 L293 94 L292 93 L285 93 L284 92 L277 92 L276 91 L266 91 L265 92 L256 92 L255 93 L249 93 L248 94 L242 94 L241 95 L237 95 L236 96 L232 96 L231 97 L228 97 L227 98 L225 98 L224 99 L221 99 L220 100 L218 100 L217 101 L216 101 L215 102 L214 102 L213 103 L212 103 L211 104 L210 104 L208 106 L207 106 L205 108 L204 108 L202 110 L202 111 L200 113 L200 114 L199 115 L199 116 L198 117 L198 118 L197 119 L197 120 L196 121 L196 122 L195 123 L195 125 L194 126 L194 128 L193 129 L193 131 L192 132 L192 133 L191 134 L191 136 L190 137 L190 138 L189 139 L189 141 L188 142 L188 143 L187 144 L187 146 L186 147 L186 149 L185 150 L185 153 L184 154 L184 158 L183 159 L183 166 L182 167 L182 171 L181 172 L181 175 L180 176 L180 180 L179 181 L179 183 L178 184 L178 187 L177 188 L177 192 L178 193 L178 195 L179 196 L181 196 L190 187 L190 186 L193 183 L193 182 L197 178 L197 177 L200 174 L201 174 L204 171 L205 171 L207 169 L208 169 L210 167 L211 167 L212 166 L213 166 L215 164 L216 164 L217 163 L218 163 L221 160 L222 160 L225 157 L226 157 L227 156 L228 156 L229 155 L230 155 L231 154 L232 154 L233 153 L236 153 L237 152 L239 152 L240 151 L242 151 L243 150 L245 150 L246 149 L247 149 L248 148 L250 148 L251 147 L254 147 L255 146 L258 146 L259 145 L261 145 L262 144 L265 144 L266 143 L270 143 L271 142 L274 142 L275 141 L281 141 L282 140 L290 140 L291 139 L317 139 L318 140 L323 140 L324 141 L326 141 L328 143 L329 143 L330 144 L330 146 L329 147 L329 148 L328 149 L327 149 L324 152 L323 152 L322 153 L321 153 L320 154 L318 154 L317 155 L315 155 L314 156 L310 156 L309 157 L302 157 L301 158 L294 158 L293 159 L287 159 L286 160 L281 160 L280 161 L277 161 L276 162 L272 162 L271 163 L266 163 L265 164 L263 164 L262 165 L259 165 L258 166 L255 166 L254 167 L252 167 L251 168 L248 168 L247 169 L244 169 L243 170 L241 170 L240 171 L238 171 L237 172 L234 172 L233 173 L231 173 L230 174 L229 174 L228 175 L227 175 L226 176 L225 176 L223 178 L222 178 L221 179 L220 179 L218 181 L217 181 L216 182 L215 182 L213 184 L212 184 L211 185 L210 185 L209 186 L208 186 L206 188 L205 188 L204 189 L203 189 L201 191 L200 191 L199 192 L198 192 L196 194 L195 194 L193 196 L192 196 L190 198 L189 198 L186 201 L185 201 L178 208 L178 209 L177 210 L177 214 L176 215 L176 254 L177 255 L177 260 L178 261 L178 264 L179 265 L179 269 L180 270 L180 273 L181 274 L181 277 L182 278 L182 280 L183 281 L183 283 L184 284 L184 287 L185 288 L185 289 L186 290 L186 292 L187 293 L187 295 L188 296 L188 297 L189 298 L189 299 L190 300 L190 301 L191 302 L191 303 L192 304 L192 305 L193 305 L194 306 L195 305 L195 304 L196 303 L196 300 L197 299 L197 297 L198 296 L198 294 L199 293 L199 290 L200 289 L200 287 L201 286 L201 284 L202 283 L202 281 L203 280 L203 279 L205 277 L205 276 L206 275 L206 272 L207 271 L207 270 L215 262 L215 261 L236 240 L237 240 L239 238 L240 238 L242 236 L243 236 L244 235 L245 235 L248 232 L249 232 L252 229 L253 229 L256 226 L257 226 L258 225 L259 225 L261 223 L262 223 L263 222 L264 222 L266 220 L267 220 L268 219 L269 219 L270 218 L271 218 L272 217 L273 217 L274 216 L276 216 L277 215 L278 215 L279 214 L281 214 L282 213 L283 213 L284 212 L286 212 L287 211 L288 211 L289 210 L292 210 L293 209 L297 209 L298 208 L307 208 L308 209 L310 209 L314 213 L314 215 L315 216 L315 222 L314 223 L314 226 L313 227 L313 228 L311 230 L311 231 L308 234 L307 234 L304 237 L303 237 L301 239 L300 239 L299 240 L298 240 L296 242 L295 242 L293 244 L292 244 L290 246 L289 246 L288 247 L287 247 L285 249 L284 249 L283 250 L282 250 L281 251 L280 251 L278 253 L277 253 L276 254 L275 254 L273 256 L272 256 L270 258 L269 258 L267 260 L266 260 L265 261 L264 261 L263 262 L262 262 L261 263 L260 263 L259 264 L258 264 L257 265 L256 265 L254 267 L253 267 L252 268 L251 268 L249 270 L248 270 L246 272 L245 272 L243 274 L242 274 L241 275 L240 275 L238 277 L237 277 L235 279 L234 279 L232 281 L231 281 L228 284 L227 284 L224 287 L224 288 L219 293 L219 294 L209 304 L209 305 L208 306 L208 307 L207 308 L207 309 L206 310 L206 313 L205 314 L205 324 L206 325 L206 327 L207 328 L207 330 L208 331 L208 332 L209 333 L209 334 L210 335 L210 336 L212 338 L212 339 L214 341 L214 342 L218 346 L218 347 L226 355 L226 356 L232 362 L232 363 L239 370 L239 371 L243 375 L243 376 L244 377 L244 378 L246 380 L246 381 L248 383 L248 384 L249 385 L249 386 L250 387 L250 388 L252 390 L252 391 L253 392 L253 393 L254 394 L254 395 L257 398 L257 399 L268 410 L268 411 L269 412 L269 413 L270 414 L270 415 L271 416 L271 417 L272 418 L272 420 L273 421 L273 423 L274 424 L274 425 L275 426 L275 428 L276 429 L276 430 L279 433 L281 433 L286 428 L286 427 L294 419 L295 419 L298 416 L299 416 L300 415 L301 415 L303 413 L304 413 L305 412 L306 412 L307 411 L308 411 L309 410 L311 410 L312 409 L314 409 L315 408 L317 408 L318 407 L321 407 L322 406 L325 406 L326 405 L329 405 L330 404 L334 404 L335 403 L340 403 L341 402 L344 402 L345 401 L350 401 L351 400 L355 400 L356 399 L360 399 L361 398 L364 398 L365 397 L367 397 L368 396 L370 396 L371 395 L372 395 L373 394 L374 394 L375 393 L376 393 L379 390 L379 389 L381 387 L381 386 L383 384 L383 382 L384 381 L384 378 L385 377 L385 343 L384 342 L384 336 L383 335 L383 331 L382 330 L382 327 L381 326 L381 323 L380 322 L380 318 L379 317 L379 312 L378 311 L378 308 L377 307 L377 305 L376 304 L376 301 L375 300 L375 298 L374 297 L374 295 L373 294 L373 292 L372 291 L372 289 L371 288 L371 286 L370 285 L370 282 L369 281 L369 277 L368 276 L368 269 L369 268 L369 264 L370 263 L370 261 L375 256 L377 256 L378 255 L381 255 L382 256 L383 256 L387 260 L387 261 L388 262 L388 263 L390 265 L390 266 L391 267 L391 269 L393 271 L393 272 L394 273 L394 274 L395 275 L395 276 L396 277 L396 278 L397 279 L397 281 L398 282 L398 283 L399 284 L399 285 L400 286 L400 288 L401 289 L401 292 L402 293 L402 294 L403 295 L403 298 L404 299 L404 301 L405 302 L405 305 L406 306 L406 310 L407 311 L407 318 L408 319 L408 351 L407 352 L407 356 L406 357 L406 360 L405 361 L405 364 L404 365 L404 367 L403 368 L403 370 L402 371 L402 372 L401 373 L401 374 L400 375 L400 376 L399 377 L399 378 L398 379 L398 380 L397 381 L397 382 L395 384 L395 386 L394 387 L394 388 L395 389 L403 389 L404 388 L406 388 L407 387 L408 387 L410 385 L411 385 L412 384 L414 384 L415 383 L416 383 L417 382 L418 382 L419 381 L421 381 L422 380 L423 380 L424 379 L425 379 L426 378 L427 378 L428 377 L429 377 L430 376 L432 376 L433 377 L433 380 L434 381 L434 391 L435 392 L435 398 L436 399 L436 409 L437 410 L437 419 L438 420 L438 428 L439 429 L439 437 L440 438 L440 448 L441 449 L441 460 L442 461 L442 473 L443 474 L443 493 L444 494 L444 528 L445 529 L445 547 L446 548 L446 676 L445 677 L445 695 L444 696 L444 706 L443 707 L443 716 L442 717 L442 722 L441 723 L439 721 L439 720 L438 719 L438 718 L437 717 L437 716 L436 715 L436 714 L435 713 L435 711 L434 710 L434 709 L433 708 L433 707 L432 706 L432 705 L431 704 L431 703 L430 702 L430 701 L429 700 L429 699 L428 698 L428 696 L427 695 L427 694 L425 692 L425 691 L424 690 L424 689 L423 688 L423 687 L421 685 L421 684 L419 682 L419 681 L416 678 L416 677 L413 674 L413 673 L406 666 L406 665 L403 662 L403 661 L401 659 L401 658 L399 656 L399 655 L398 654 L398 653 L396 651 L396 650 L395 649 L395 648 L393 646 L393 645 L392 644 L392 643 L391 642 L391 641 L390 640 L390 639 L389 638 L389 637 L387 635 L387 634 L386 633 L386 632 L385 631 L385 630 L383 628 L383 627 L382 626 L382 625 L380 623 L380 622 L379 621 L379 620 L378 619 L378 618 L376 616 L376 615 L375 614 L375 613 L374 612 L374 611 L373 610 L373 609 L371 607 L371 606 L370 605 L370 604 L369 603 L369 602 L368 601 L368 600 L367 599 L367 598 L365 596 L365 595 L364 594 L364 593 L362 591 L362 590 L360 588 L360 587 L359 586 L359 583 L360 582 L360 581 L361 580 L361 579 L362 578 L362 576 L363 575 L363 574 L364 573 L364 572 L365 571 L365 569 L366 568 L366 567 L367 566 L367 565 L368 564 L368 562 L369 561 L369 560 L370 559 L370 557 L371 556 L371 553 L372 552 L372 549 L373 548 L373 545 L374 544 L374 535 L375 534 L375 517 L374 516 L374 507 L373 506 L373 502 L372 501 L372 499 L371 498 L371 496 L370 495 L370 492 L369 491 L369 489 L368 488 L368 485 L367 484 L367 482 L366 481 L366 480 L365 479 L365 478 L364 477 L364 475 L363 474 L363 473 L362 472 L362 470 L361 469 L361 468 L360 467 L360 466 L359 465 L359 464 L358 463 L358 462 L356 460 L356 459 L349 452 L349 451 L348 451 L347 450 L347 449 L346 448 L345 448 L342 445 L341 445 L339 443 L338 443 L337 442 L336 442 L335 441 L334 441 L333 440 L332 440 L331 439 L328 439 L327 438 L325 438 L324 437 L320 437 L319 436 L307 436 L306 437 L303 437 L302 438 L299 438 L298 439 L296 439 L295 440 L293 440 L292 441 L290 441 L289 442 L288 442 L287 443 L286 443 L285 444 L284 444 L283 445 L282 445 L280 447 L279 447 L271 455 L271 456 L264 463 L261 463 L259 461 L259 460 L258 459 L258 458 L257 457 L257 452 L256 451 L256 427 L255 426 L255 420 L254 419 L254 416 L253 415 L253 413 L252 412 L252 411 L251 410 L251 408 L250 407 L250 406 L248 404 L248 403 L247 402 L247 401 L243 397 L243 396 L239 392 L238 392 L235 389 L234 389 L232 387 L231 387 L230 386 L229 386 L227 384 L226 384 L224 382 L223 382 L222 381 L221 381 L220 380 L218 380 L217 379 L216 379 L215 378 L213 378 L212 377 L210 377 L209 376 L207 376 L206 375 L204 375 L203 374 L200 374 L199 373 L194 373 L193 372 L185 372 L184 373 L174 373 L173 374 L167 374 L166 375 L162 375 L161 376 L156 376 L155 377 L151 377 L150 378 L147 378 L146 379 L144 379 L143 380 L141 380 L140 381 L139 381 L138 382 L137 382 L136 383 L134 383 L133 384 L131 384 L130 385 L129 385 L128 386 L126 386 L125 387 L124 387 L123 388 L122 388 L121 389 L120 389 L119 390 L118 390 L116 392 L115 392 L114 393 L113 393 L111 395 L110 395 L109 396 L108 396 L106 398 L105 398 L103 400 L102 400 L100 402 L99 402 L97 404 L96 404 L94 406 L93 406 L87 412 L86 412 L83 415 L83 416 L76 423 L76 424 L73 427 L73 428 L70 431 L70 432 L67 435 L67 436 L66 437 L66 438 L64 440 L64 447 L65 448 L67 448 L68 447 L69 447 L70 446 L71 446 L73 444 L74 444 L76 442 L77 442 L78 441 L79 441 L80 440 L82 440 L83 439 L85 439 L86 438 L90 438 L91 437 L96 437 L97 436 L103 436 L104 435 L109 435 L110 434 L129 434 L130 435 L134 435 L135 436 L139 436 L140 437 L142 437 L143 438 L145 438 L146 439 L148 439 L149 440 L151 440 L152 441 L153 441 L154 442 L156 442 L157 443 L158 443 L160 445 L161 445 L162 446 L163 446 L164 447 L165 447 L166 448 L167 448 L168 449 L169 449 L170 450 L171 450 L173 452 L174 452 L175 453 L176 453 L181 458 L181 460 L178 463 L162 463 L161 462 L156 462 L155 461 L151 461 L150 460 L146 460 L145 459 L140 459 L139 458 L134 458 L133 457 L127 457 L126 456 L119 456 L118 455 L71 455 L70 456 L67 456 L66 457 L64 457 L63 458 L61 458 L60 459 L59 459 L58 460 L57 460 L55 462 L54 462 L53 463 L52 463 L50 465 L49 465 L39 475 L39 476 L37 478 L37 479 L36 480 L36 481 L35 482 L35 483 L34 484 L34 485 L33 486 L33 487 L32 488 L32 489 L31 490 L31 491 L30 492 L30 494 L29 495 L29 496 L28 497 L28 499 L27 500 L27 501 L26 502 L26 505 L25 506 L25 508 L24 509 L24 511 L23 512 L23 515 L22 516 L22 518 L21 519 L21 522 L20 523 L20 528 L19 529 L19 532 L18 533 L18 534 L17 535 L17 551 L19 553 L20 553 L30 543 L31 543 L37 537 L38 537 L41 534 L42 534 L44 532 L45 532 L47 530 L48 530 L50 528 L51 528 L52 527 L53 527 L54 526 L55 526 L57 524 L58 524 L59 523 L60 523 L61 522 L62 522 L63 521 L64 521 L65 520 L66 520 L68 518 L69 518 L70 517 L71 517 L72 516 L74 516 L75 515 L76 515 L77 514 L78 514 L79 513 L80 513 L81 512 L83 512 L84 511 L85 511 L86 510 L87 510 L88 509 L91 509 L92 508 L95 508 L96 507 L100 507 L101 506 L107 506 L108 505 L118 505 L119 504 L132 504 L133 503 L143 503 L144 504 L145 504 L146 505 L147 505 L148 506 L149 506 L151 508 L152 508 L158 514 L158 517 L157 518 L156 518 L154 520 L152 520 L151 521 L148 521 L147 522 L144 522 L143 523 L138 523 L137 524 L130 524 L129 525 L125 525 L124 526 L116 526 L115 527 L107 527 L106 528 L103 528 L102 529 L100 529 L99 530 L97 530 L96 531 L94 531 L93 532 L91 532 L90 533 L88 533 L87 534 L85 534 L84 535 L82 535 L81 536 L79 536 L78 537 L76 537 L75 538 L73 538 L72 539 L71 539 L70 540 L68 540 L67 541 L66 541 L65 542 L64 542 L63 543 L62 543 L61 544 L60 544 L59 545 L58 545 L57 546 L56 546 L55 547 L54 547 L53 548 L52 548 L51 549 L50 549 L49 550 L48 550 L47 551 L46 551 L45 552 L44 552 L43 553 L42 553 L41 554 L40 554 L38 556 L37 556 L36 557 L35 557 L34 558 L33 558 L31 560 L30 560 L29 561 L28 561 L24 565 L23 565 L19 569 L18 569 L17 570 L17 571 L15 573 L15 574 L14 575 L14 577 L13 578 L13 581 L12 582 L12 586 L11 587 L11 605 L12 606 L12 611 L13 612 L13 616 L14 617 L14 620 L15 621 L15 624 L16 625 L16 628 L17 629 L17 633 L18 634 L18 637 L19 638 L19 641 L20 642 L20 644 L22 646 L22 647 L24 649 L25 648 L26 648 L26 647 L27 646 L27 644 L28 643 L28 641 L29 640 L29 637 L30 636 L30 634 L31 633 L31 631 L32 630 L32 629 L33 628 L33 627 L34 626 L34 625 L36 623 L36 622 L38 620 L38 619 L41 616 L41 615 L49 607 L50 607 L53 604 L54 604 L56 602 L57 602 L59 600 L60 600 L62 598 L63 598 L64 597 L65 597 L67 595 L68 595 L69 594 L70 594 L72 592 L73 592 L74 591 L75 591 L76 590 L77 590 L78 589 L79 589 L80 588 L81 588 L82 587 L83 587 L84 586 L85 586 L86 585 L87 585 L88 584 L90 584 L91 583 L93 583 L94 582 L95 582 L96 581 L100 581 L101 580 L107 580 L108 581 L110 581 L111 582 L112 582 L114 584 L114 585 L115 586 L115 587 L114 588 L114 591 L113 592 L113 593 L111 595 L111 596 L104 603 L103 603 L100 606 L99 606 L97 608 L96 608 L95 609 L94 609 L92 611 L91 611 L90 612 L89 612 L88 613 L87 613 L85 615 L84 615 L83 616 L82 616 L80 618 L79 618 L78 619 L77 619 L75 621 L74 621 L72 623 L71 623 L69 625 L68 625 L66 627 L65 627 L64 628 L63 628 L60 631 L59 631 L55 635 L54 635 L46 643 L46 644 L43 647 L43 648 L41 650 L41 651 L39 653 L39 654 L38 655 L38 656 L37 657 L37 658 L36 659 L36 660 L35 661 L35 664 L34 665 L34 675 L35 676 L35 680 L36 681 L36 683 L37 684 L37 686 L38 687 L38 688 L39 689 L39 690 L41 692 L41 693 L42 694 L42 695 L43 696 L43 697 L44 698 L44 699 L45 700 L45 701 L46 702 L46 703 L47 704 L47 705 L48 706 L48 707 L49 708 L49 709 L50 710 L50 711 L51 712 L51 713 L52 714 L52 715 L53 716 L53 718 L54 719 L54 720 L55 721 L55 722 L56 723 L56 725 L57 726 L57 727 L58 728 L58 730 L59 731 L59 733 L60 734 L60 736 L61 737 L61 738 L62 739 L62 741 L63 742 L63 743 L64 744 L64 745 L65 746 L65 747 L66 748 L66 749 L67 750 L67 751 L68 752 L68 753 L69 754 L69 756 L70 757 L70 758 L71 759 L71 760 L72 761 L72 763 L73 764 L73 765 L74 766 L77 766 L78 765 L78 764 L79 763 L79 761 L80 760 L80 757 L81 756 L81 755 L82 754 L82 753 L83 752 L83 751 L85 749 L85 748 L92 741 L93 741 L95 739 L97 739 L98 738 L99 738 L100 737 L102 737 L103 736 L104 736 L105 735 L107 735 L108 734 L110 734 L111 733 L112 733 L113 732 L116 732 L117 731 L119 731 L120 730 L123 730 L124 729 L126 729 L127 728 L131 728 L132 727 L135 727 L136 726 L140 726 L141 725 L146 725 L147 724 L151 724 L152 723 L155 723 L156 722 L159 722 L160 721 L163 721 L164 720 L166 720 L167 719 L170 719 L171 718 L174 718 L175 717 L177 717 L178 716 L181 716 L182 715 L185 715 L186 714 L188 714 L189 713 L192 713 L193 712 L195 712 L196 711 L198 711 L199 710 L201 710 L202 709 L204 709 L205 708 L206 708 L207 707 L209 707 L210 706 L211 706 L212 705 L213 705 L214 704 L215 704 L216 703 L217 703 L220 700 L220 699 L221 698 L221 697 L222 696 L222 693 L223 692 L223 660 L222 659 L222 652 L221 651 L221 643 L220 642 L220 636 L219 635 L219 631 L218 630 L218 626 L217 625 L217 621 L216 620 L216 617 L215 616 L215 612 L214 611 L214 608 L213 607 L213 604 L212 603 L212 600 L211 599 L211 596 L210 595 L210 591 L209 590 L209 581 L208 580 L208 571 L209 570 L209 567 L213 563 L216 563 L217 564 L218 564 L219 565 L220 565 L225 570 L225 571 L227 573 L227 574 L229 576 L229 577 L230 578 L230 579 L231 580 L231 581 L232 582 L232 583 L233 584 L233 586 L234 587 L234 589 L235 590 L235 592 L236 593 L236 596 L237 597 L237 601 L238 602 L238 607 L239 608 L239 613 L240 614 L240 622 L241 623 L241 630 L242 631 L242 646 L241 647 L241 657 L240 658 L240 662 L239 663 L239 665 L238 666 L238 669 L237 670 L237 672 L236 673 L236 676 L235 677 L235 678 L234 679 L234 680 L233 681 L233 683 L232 684 L232 685 L230 687 L230 688 L229 689 L229 690 L224 695 L224 698 L225 699 L230 699 L231 698 L235 698 L236 697 L238 697 L239 696 L241 696 L242 695 L243 695 L244 694 L245 694 L246 693 L247 693 L248 692 L249 692 L250 691 L251 691 L252 690 L253 690 L254 689 L255 689 L256 688 L257 688 L258 687 L259 687 L260 686 L262 686 L263 685 L264 685 L265 684 L266 684 L267 683 L268 683 L269 682 L270 682 L272 680 L273 680 L275 678 L276 678 L278 676 L279 676 L282 673 L283 673 L288 668 L289 668 L292 665 L293 665 L295 663 L296 663 L297 662 L298 662 L299 661 L300 661 L309 652 L309 651 L311 649 L311 648 L312 647 L312 646 L313 645 L313 642 L314 641 L314 636 L315 635 L315 631 L314 630 L314 629 L313 628 L313 627 L312 626 L312 623 L311 622 L311 620 L310 619 L310 615 L309 614 L309 612 L308 611 L308 609 L307 608 L307 607 L306 606 L306 604 L305 603 L305 602 L304 601 L304 600 L303 599 L303 598 L302 597 L302 595 L301 594 L301 593 L300 592 L300 590 L299 589 L299 588 L298 587 L298 586 L297 585 L297 583 L296 582 L296 581 L295 580 L295 579 L293 577 L293 576 L292 575 L292 574 L291 573 L291 572 L289 570 L289 569 L288 568 L288 567 L285 564 L285 563 L283 561 L283 560 L281 558 L281 557 L280 556 L280 555 L279 554 L279 553 L278 552 L278 551 L277 550 L277 549 L276 548 L276 547 L275 546 L275 545 L274 544 L274 543 L273 542 L273 540 L272 539 L272 538 L271 537 L271 536 L270 535 L270 534 L269 533 L269 531 L268 530 L268 529 L267 528 L267 525 L266 524 L266 522 L267 521 L270 521 L271 522 L272 522 L273 523 L274 523 L276 525 L277 525 L280 528 L281 528 L287 534 L287 535 L290 538 L290 539 L293 542 L293 543 L295 545 L295 546 L298 549 L298 550 L302 554 L302 555 L306 559 L306 560 L309 563 L309 564 L311 566 L311 567 L312 568 L312 569 L314 571 L314 572 L315 573 L315 575 L316 576 L316 577 L317 578 L317 580 L318 581 L318 584 L319 585 L319 589 L320 590 L320 595 L321 596 L321 605 L322 606 L322 624 L323 625 L328 625 L337 616 L337 615 L339 613 L339 612 L346 605 L349 608 L349 609 L351 611 L351 612 L352 613 L352 614 L353 615 L353 616 L354 617 L354 618 L355 619 L355 620 L356 621 L356 622 L357 623 L357 624 L358 625 L358 626 L359 627 L359 628 L360 629 L360 630 L361 631 L361 632 L362 633 L362 634 L363 635 L363 637 L364 638 L364 639 L365 640 L365 641 L366 642 L366 643 L368 645 L368 646 L370 648 L370 649 L372 651 L372 652 L374 654 L374 655 L375 656 L375 657 L376 658 L376 660 L377 661 L377 662 L378 663 L378 665 L379 666 L379 667 L380 668 L380 669 L381 670 L381 671 L382 672 L382 674 L383 675 L383 676 L384 677 L384 678 L385 679 L385 680 L386 681 L386 682 L387 683 L387 684 L388 685 L388 687 L389 688 L389 689 L390 690 L390 691 L391 692 L391 694 L392 695 L392 696 L393 697 L393 699 L394 700 L394 701 L395 702 L395 703 L396 704 L396 706 L397 707 L397 708 L398 709 L398 711 L399 712 L399 713 L400 714 L400 716 L401 717 L401 719 L402 720 L402 721 L403 722 L403 724 L404 725 L404 726 L405 727 L405 729 L406 730 L406 731 L407 732 L407 734 L408 735 L408 736 L409 737 L409 739 L410 740 L410 742 L411 743 L411 745 L412 746 L412 748 L413 749 L413 751 L414 752 L414 755 L415 756 L415 758 L416 759 L416 761 L417 762 L417 764 L418 765 L418 767 L419 768 L419 770 L420 771 L420 773 L421 774 L421 776 L422 777 L422 779 L423 780 L421 782 L406 782 L405 783 L393 783 L392 784 L382 784 L381 785 L374 785 L373 786 L366 786 L365 787 L359 787 L358 788 L354 788 L353 789 L348 789 L347 790 L343 790 L342 791 L337 791 L336 792 L331 792 L330 793 L326 793 L325 794 L322 794 L321 795 L319 795 L318 796 L315 796 L314 797 L312 797 L311 798 L309 798 L308 799 L306 799 L305 800 L304 800 L303 801 L302 801 L301 802 L300 802 L299 803 L297 803 L296 804 L295 804 L294 805 L293 805 L291 807 L290 807 L280 817 L280 818 L279 819 L279 845 L280 846 L280 858 L281 859 L281 865 L282 866 L282 873 L283 874 L283 880 L284 881 L284 886 L285 887 L285 894 L286 895 L286 903 L287 904 L287 909 L288 910 L288 916 L289 917 L289 923 L290 924 L290 928 L291 929 L291 935 L292 936 L292 940 L293 941 L293 945 L294 946 L294 952 L295 953 L295 958 L296 959 L296 965 L297 966 L297 971 L298 972 L298 977 L299 978 L299 982 L300 983 L300 987 L301 988 L301 993 L302 994 L302 998 L303 999 L303 1005 L304 1006 L304 1009 L305 1010 L305 1015 L306 1016 L306 1021 L307 1022 L307 1026 L308 1027 L308 1032 L309 1033 L309 1039 L310 1040 L310 1044 L311 1045 L311 1049 L312 1050 L312 1054 L313 1055 L313 1058 L314 1059 L314 1062 L315 1063 L315 1067 L316 1068 L316 1072 L317 1073 L317 1077 L318 1078 L318 1083 L319 1084 L319 1088 L320 1089 L320 1093 L321 1094 L321 1098 L322 1099 L322 1102 L323 1103 L323 1106 L324 1107 L324 1110 L325 1111 L325 1114 L326 1115 L326 1116 L327 1117 L327 1119 L328 1120 L328 1121 L329 1122 L329 1123 L332 1126 L332 1127 L333 1127 L336 1130 L337 1130 L338 1131 L339 1131 L341 1133 L342 1133 L343 1134 L344 1134 L345 1135 L346 1135 L347 1136 L348 1136 L349 1137 L350 1137 L351 1138 L352 1138 L353 1139 L355 1139 L356 1140 L357 1140 L358 1141 L359 1141 L360 1142 L362 1142 L363 1143 L365 1143 L366 1144 L368 1144 L369 1145 L371 1145 L372 1146 L374 1146 L375 1147 L378 1147 L379 1148 L382 1148 L383 1149 L386 1149 L387 1150 L390 1150 L391 1151 L395 1151 L396 1152 L399 1152 L400 1153 L404 1153 L405 1154 L412 1154 L413 1155 L421 1155 L422 1156 L431 1156 L432 1157 L441 1157 L442 1158 L497 1158 L498 1157 L500 1157 L501 1158 L503 1158 L504 1157 L515 1157 L516 1156 L523 1156 L524 1155 L530 1155 L531 1154 L536 1154 L537 1153 L542 1153 L543 1152 L547 1152 L548 1151 L553 1151 L554 1150 L557 1150 L558 1149 L562 1149 L563 1148 L566 1148 L567 1147 L570 1147 L571 1146 L573 1146 L574 1145 L577 1145 L578 1144 L580 1144 L581 1143 L582 1143 L583 1142 L585 1142 L586 1141 L587 1141 L588 1140 L589 1140 L590 1139 L592 1139 L593 1138 L594 1138 L596 1136 L597 1136 L598 1135 L599 1135 L600 1134 L601 1134 L603 1132 L604 1132 L606 1130 L607 1130 L610 1127 L611 1127 L612 1126 L612 1125 L613 1124 L613 1123 L614 1122 L614 1120 L615 1119 L615 1117 L616 1116 L616 1113 L617 1112 L617 1109 L618 1108 L618 1104 L619 1103 L619 1100 L620 1099 L620 1096 L621 1095 L621 1090 L622 1089 L622 1084 L623 1083 L623 1079 L624 1078 L624 1073 L625 1072 L625 1068 L626 1067 L626 1063 L627 1062 L627 1057 L628 1056 L628 1051 L629 1050 L629 1045 L630 1044 L630 1041 L631 1040 L631 1035 L632 1034 L632 1029 L633 1028 L633 1023 L634 1022 L634 1017 L635 1016 L635 1010 L636 1009 L636 1005 L637 1004 L637 1000 L638 999 L638 994 L639 993 L639 989 L640 988 L640 984 L641 983 L641 978 L642 977 L642 971 L643 970 L643 965 L644 964 L644 958 L645 957 L645 951 L646 950 L646 945 L647 944 L647 939 L648 938 L648 932 L649 931 L649 927 L650 926 L650 921 L651 920 L651 914 L652 913 L652 908 L653 907 L653 901 L654 900 L654 893 L655 892 L655 887 L656 886 L656 881 L657 880 L657 875 L658 874 L658 869 L659 868 L659 862 L660 861 L660 855 L661 854 L661 849 L662 848 L662 843 L663 842 L663 837 L664 836 L664 822 L663 821 L663 819 L661 817 L661 816 L654 809 L653 809 L651 807 L650 807 L648 805 L647 805 L646 804 L645 804 L644 803 L642 803 L641 802 L640 802 L639 801 L637 801 L636 800 L633 800 L632 799 L630 799 L629 798 L627 798 L626 797 L624 797 L623 796 L620 796 L619 795 L617 795 L616 794 L614 794 L613 793 L610 793 L609 792 L606 792 L605 791 L601 791 L600 790 L595 790 L594 789 L590 789 L589 788 L585 788 L584 787 L578 787 L577 786 L571 786 L570 785 L564 785 L563 784 L553 784 L552 783 L540 783 L539 782 L523 782 L522 781 L519 781 L518 780 L518 777 L519 776 L519 773 L520 772 L520 770 L521 769 L521 767 L522 766 L522 765 L523 764 L523 762 L524 761 L524 760 L525 759 L525 758 L526 757 L526 755 L527 754 L527 753 L528 752 L528 751 L529 750 L529 748 L530 747 L530 746 L531 745 L531 743 L532 742 L532 741 L533 740 L533 738 L534 737 L534 736 L535 735 L535 734 L536 733 L536 732 L537 731 L537 729 L538 728 L538 727 L539 726 L539 725 L540 724 L540 723 L543 720 L546 723 L546 724 L551 729 L551 730 L555 734 L555 735 L565 745 L565 746 L566 746 L573 753 L574 753 L578 757 L579 757 L582 760 L583 760 L585 762 L586 762 L589 765 L590 765 L592 767 L593 767 L594 768 L595 768 L597 770 L598 770 L600 772 L601 772 L602 773 L603 773 L604 774 L606 774 L607 775 L610 775 L613 772 L613 771 L612 770 L612 768 L611 767 L611 765 L610 764 L610 762 L609 761 L609 758 L608 757 L608 752 L607 751 L607 724 L608 723 L608 717 L609 716 L609 712 L610 711 L610 708 L611 707 L611 703 L612 702 L612 699 L613 698 L613 696 L614 695 L614 693 L615 692 L615 691 L616 690 L616 689 L617 688 L617 687 L618 686 L618 685 L619 684 L619 683 L620 682 L620 681 L622 679 L622 678 L623 677 L623 676 L625 674 L625 673 L626 672 L626 671 L629 668 L629 667 L638 658 L639 658 L641 656 L645 656 L647 658 L647 660 L648 661 L648 668 L647 669 L647 673 L646 674 L646 676 L645 677 L645 679 L644 680 L644 682 L643 683 L643 685 L642 686 L642 687 L641 688 L641 690 L640 691 L640 693 L639 694 L639 695 L638 696 L638 698 L637 699 L637 701 L636 702 L636 703 L635 704 L635 706 L634 707 L634 708 L633 709 L633 711 L632 712 L632 713 L631 714 L631 716 L630 717 L630 720 L629 721 L629 722 L628 723 L628 726 L627 727 L627 730 L626 731 L626 735 L625 736 L625 740 L624 741 L624 748 L623 749 L623 756 L622 757 L622 767 L621 768 L621 772 L622 773 L622 775 L623 776 L623 777 L624 778 L624 779 L636 791 L637 791 L638 792 L639 792 L641 794 L643 794 L644 795 L645 795 L646 796 L647 796 L648 797 L650 797 L651 798 L652 798 L653 799 L655 799 L656 800 L657 800 L658 801 L660 801 L661 802 L662 802 L663 803 L664 803 L665 804 L667 804 L668 805 L669 805 L670 806 L671 806 L672 807 L673 807 L674 808 L675 808 L676 809 L677 809 L678 810 L679 810 L680 811 L682 811 L683 812 L685 812 L686 813 L689 813 L690 814 L693 814 L694 815 L697 815 L698 816 L700 816 L701 817 L704 817 L705 818 L708 818 L709 819 L711 819 L712 820 L716 820 L717 821 L720 821 L721 822 L723 822 L724 823 L728 823 L729 824 L731 824 L732 825 L735 825 L736 826 L738 826 L739 827 L742 827 L743 828 L745 828 L746 829 L748 829 L749 830 L752 830 L753 831 L754 831 L755 832 L757 832 L758 833 L759 833 L760 834 L762 834 L763 835 L764 835 L765 836 L766 836 L767 837 L768 837 L769 838 L770 838 L771 839 L772 839 L774 841 L775 841 L780 846 L780 847 L782 849 L782 850 L783 851 L783 852 L784 853 L784 855 L785 856 L785 859 L786 860 L786 862 L787 863 L787 867 L788 868 L788 869 L791 872 L792 872 L793 871 L794 871 L795 870 L795 869 L796 868 L796 867 L797 866 L797 865 L798 864 L798 862 L799 861 L799 860 L800 859 L800 858 L801 857 L801 856 L802 855 L802 854 L803 853 L803 852 L804 851 L804 850 L805 849 L805 848 L806 847 L806 846 L807 845 L807 843 L808 842 L808 841 L809 840 L809 839 L810 838 L810 837 L811 836 L811 835 L812 834 L812 833 L813 832 L813 831 L814 830 L814 828 L815 827 L815 826 L816 825 L816 824 L817 823 L817 822 L818 821 L818 820 L819 819 L819 818 L820 817 L820 815 L821 814 L821 812 L822 811 L822 810 L823 809 L823 807 L824 806 L824 805 L825 804 L825 802 L826 801 L826 800 L827 799 L827 797 L828 796 L828 795 L829 794 L829 792 L830 791 L830 790 L831 789 L831 787 L832 786 L832 785 L833 784 L833 783 L834 782 L834 780 L835 779 L835 778 L836 777 L836 775 L837 774 L837 773 L838 772 L838 770 L839 769 L839 768 L840 767 L840 766 L841 765 L841 764 L842 763 L842 761 L843 760 L843 759 L844 758 L844 756 L845 755 L845 752 L846 751 L846 749 L847 748 L847 745 L848 744 L848 740 L849 739 L849 733 L850 732 L850 727 L851 726 L851 721 L852 720 L852 713 L853 712 L853 690 L852 689 L852 684 L851 683 L851 679 L850 678 L850 676 L849 675 L849 673 L848 672 L848 670 L840 662 L839 662 L831 654 L830 654 L828 652 L827 652 L825 650 L824 650 L822 648 L821 648 L819 646 L818 646 L815 643 L814 643 L813 642 L812 642 L811 641 L810 641 L809 640 L807 640 L806 639 L804 639 L803 638 L801 638 L800 637 L798 637 L797 636 L793 636 L792 635 L788 635 L787 634 L784 634 L783 633 L778 633 L777 632 L770 632 L769 631 L763 631 L762 630 L758 630 L757 629 L752 629 L751 628 L747 628 L746 627 L744 627 L743 626 L740 626 L739 625 L737 625 L736 624 L735 624 L734 623 L732 623 L731 622 L730 622 L729 621 L728 621 L726 619 L725 619 L724 618 L724 617 L723 616 L725 614 L726 614 L728 612 L729 612 L730 611 L731 611 L732 610 L736 610 L737 609 L743 609 L744 608 L756 608 L757 609 L763 609 L764 610 L768 610 L769 611 L772 611 L773 612 L776 612 L777 613 L779 613 L780 614 L782 614 L783 615 L785 615 L786 616 L787 616 L788 617 L790 617 L791 618 L792 618 L793 619 L794 619 L795 620 L796 620 L797 621 L798 621 L799 622 L800 622 L801 623 L802 623 L803 624 L804 624 L806 626 L807 626 L808 627 L809 627 L811 629 L812 629 L815 632 L816 632 L819 635 L820 635 L823 638 L824 638 L827 641 L828 641 L835 648 L835 649 L838 652 L839 652 L842 655 L843 655 L845 653 L845 645 L844 644 L844 642 L843 641 L843 638 L842 637 L842 635 L841 634 L841 632 L840 631 L840 629 L839 628 L839 626 L838 625 L838 623 L837 622 L837 621 L836 620 L836 618 L835 617 L835 616 L834 615 L834 613 L833 612 L833 611 L832 610 L832 609 L831 608 L831 607 L830 606 L830 605 L829 604 L829 603 L828 602 L828 601 L827 600 L827 599 L826 598 L826 597 L824 595 L824 594 L822 592 L822 591 L820 589 L820 588 L814 582 L814 581 L811 578 L811 577 L809 575 L809 573 L808 572 L808 570 L807 569 L807 566 L806 565 L806 564 L805 563 L805 562 L804 561 L804 560 L803 559 L803 558 L802 557 L802 556 L801 555 L801 554 L799 552 L799 551 L786 538 L785 538 L783 536 L782 536 L779 533 L778 533 L775 530 L774 530 L771 527 L770 527 L766 523 L767 522 L779 522 L780 523 L807 523 L808 524 L811 524 L812 525 L816 525 L817 526 L820 526 L821 527 L824 527 L825 528 L827 528 L828 529 L829 529 L830 530 L831 530 L833 532 L834 532 L836 534 L837 534 L842 539 L842 540 L843 541 L843 543 L844 544 L844 545 L845 546 L845 549 L846 550 L846 551 L848 553 L850 553 L851 552 L852 552 L852 551 L854 549 L854 547 L855 546 L855 545 L856 544 L856 542 L857 541 L857 540 L858 539 L858 538 L859 537 L859 535 L860 534 L860 533 L861 532 L861 530 L862 529 L862 528 L863 527 L863 525 L864 524 L864 522 L865 521 L865 519 L866 518 L866 516 L867 515 L867 514 L868 513 L868 511 L869 510 L869 508 L870 507 L870 506 L871 505 L871 504 L872 503 L872 502 L873 501 L873 500 L874 499 L874 498 L875 497 L875 496 L877 494 L877 493 L878 492 L878 491 L880 489 L880 488 L881 487 L881 486 L883 484 L883 482 L884 481 L884 480 L885 479 L885 476 L886 475 L886 472 L887 471 L887 465 L886 464 L886 461 L885 460 L885 458 L884 457 L884 455 L883 454 L883 453 L882 452 L882 451 L874 443 L874 442 L871 439 L871 438 L862 429 L861 429 L859 427 L858 427 L856 425 L855 425 L852 422 L851 422 L848 419 L847 419 L844 416 L843 416 L842 415 L841 415 L839 413 L838 413 L837 412 L836 412 L834 410 L833 410 L832 409 L831 409 L829 407 L828 407 L826 405 L825 405 L824 404 L823 404 L821 402 L820 402 L817 399 L816 399 L812 395 L811 395 L809 393 L809 392 L806 389 L806 385 L807 384 L807 383 L809 381 L810 381 L811 380 L815 380 L816 381 L822 381 L823 382 L827 382 L828 383 L831 383 L832 384 L833 384 L834 385 L836 385 L837 386 L838 386 L839 387 L840 387 L841 388 L842 388 L844 390 L845 390 L846 391 L847 391 L849 393 L850 393 L851 394 L852 394 L853 395 L854 395 L855 396 L856 396 L858 398 L859 398 L862 401 L863 401 L867 405 L868 405 L878 415 L878 416 L880 418 L880 419 L882 421 L882 422 L884 424 L884 425 L885 426 L885 427 L887 429 L887 431 L888 432 L888 433 L889 434 L889 435 L890 436 L890 440 L891 441 L891 451 L893 451 L896 448 L896 447 L897 446 L897 445 L898 444 L898 443 L900 441 L900 440 L901 439 L901 437 L902 436 L902 435 L903 434 L903 433 L904 432 L904 430 L905 429 L905 426 L906 425 L906 422 L907 421 L907 417 L908 416 L908 409 L909 408 L909 392 L908 391 L908 389 L907 388 L907 387 L906 386 L906 385 L905 384 L905 383 L892 370 L891 370 L888 367 L887 367 L885 365 L884 365 L883 364 L882 364 L880 362 L878 362 L877 361 L876 361 L875 360 L874 360 L873 359 L872 359 L871 358 L870 358 L869 357 L868 357 L867 356 L866 356 L865 355 L864 355 L863 354 L862 354 L861 353 L860 353 L859 352 L857 352 L856 351 L855 351 L854 350 L853 350 L852 349 L850 349 L849 348 L848 348 L847 347 L846 347 L845 346 L843 346 L842 345 L841 345 L840 344 L839 344 L838 343 L836 343 L835 342 L834 342 L833 341 L831 341 L830 340 L829 340 L828 339 L827 339 L826 338 L825 338 L824 337 L822 337 L821 336 L819 336 L818 335 L817 335 L816 334 L814 334 L813 333 L811 333 L810 332 L808 332 L807 331 L803 331 L802 330 L797 330 L796 329 L792 329 L791 328 L788 328 L787 327 L784 327 L783 326 L780 326 L779 325 L778 325 L777 324 L775 324 L774 323 L772 323 L771 322 L770 322 L768 320 L767 320 L763 316 L763 313 L767 309 L769 309 L770 308 L776 308 L777 307 L798 307 L799 308 L803 308 L804 309 L808 309 L809 310 L812 310 L813 311 L815 311 L816 312 L818 312 L819 313 L820 313 L821 314 L823 314 L824 315 L826 315 L827 316 L828 316 L829 317 L831 317 L832 318 L833 318 L834 319 L836 319 L837 320 L838 320 L839 321 L841 321 L842 322 L843 322 L844 323 L845 323 L846 324 L848 324 L849 325 L850 325 L851 326 L853 326 L854 327 L855 327 L856 328 L857 328 L858 329 L859 329 L860 330 L861 330 L862 331 L863 331 L864 332 L865 332 L866 333 L867 333 L868 334 L869 334 L870 335 L871 335 L872 336 L873 336 L875 338 L876 338 L878 340 L879 340 L881 342 L882 342 L886 346 L887 346 L900 359 L900 360 L904 364 L904 365 L905 366 L905 367 L907 369 L907 370 L909 372 L911 372 L912 371 L912 366 L913 365 L913 348 L912 347 L912 342 L911 341 L911 336 L910 335 L910 331 L909 330 L909 327 L908 326 L908 323 L907 322 L907 318 L906 317 L906 314 L905 313 L905 311 L904 310 L904 308 L903 307 L903 305 L902 304 L902 302 L901 301 L901 300 L900 299 L900 297 L899 296 L899 295 L898 294 L898 292 L897 291 L897 290 L896 289 L896 287 L895 286 L895 285 L894 284 L894 283 L893 282 L893 281 L889 277 L888 277 L885 274 L884 274 L882 272 L881 272 L880 271 L879 271 L878 270 L877 270 L876 269 L875 269 L874 268 L872 268 L871 267 L868 267 L867 266 L865 266 L864 265 L862 265 L861 264 L858 264 L857 263 L855 263 L854 262 L852 262 L851 261 L848 261 L847 260 L844 260 L843 259 L838 259 L837 258 L828 258 L827 257 L795 257 L794 258 L781 258 L780 259 L771 259 L770 260 L758 260 L757 261 L741 261 L738 258 L738 257 L739 256 L739 255 L745 249 L746 249 L748 247 L749 247 L750 246 L751 246 L752 245 L754 245 L755 244 L756 244 L757 243 L759 243 L760 242 L762 242 L763 241 L765 241 L766 240 L769 240 L770 239 L774 239 L775 238 L779 238 L780 237 L791 237 L792 236 L812 236 L813 237 L822 237 L823 238 L828 238 L829 239 L834 239 L835 240 L839 240 L840 241 L842 241 L843 242 L846 242 L847 243 L849 243 L850 244 L852 244 L853 245 L855 245 L856 246 L857 246 L858 247 L859 247 L860 248 L861 248 L862 249 L864 249 L866 251 L867 251 L868 252 L869 252 L870 253 L871 253 L872 254 L873 254 L874 255 L875 255 L876 256 L877 255 L878 255 L878 251 L877 250 L877 248 L876 247 L876 245 L875 244 L875 243 L874 242 L874 241 L873 240 L873 239 L872 238 L872 236 L871 235 L871 234 L870 233 L870 232 L869 231 L869 230 L868 229 L868 228 L866 226 L866 225 L865 224 L865 223 L863 221 L863 220 L861 218 L861 217 L859 215 L859 214 L857 212 L857 211 L855 209 L855 208 L853 206 L853 205 L851 203 L851 202 L845 196 L845 195 L832 182 L831 182 L827 178 L826 178 L824 176 L823 176 L822 175 L820 175 L819 174 L818 174 L817 173 L813 173 L812 172 L805 172 L804 173 L799 173 L798 174 L796 174 L795 175 L793 175 L792 176 L789 176 L788 177 L786 177 L785 178 L783 178 L782 179 L780 179 L779 180 L777 180 L776 181 L774 181 L773 182 L771 182 L770 183 L768 183 L767 184 L765 184 L764 185 L762 185 L761 186 L760 186 L759 187 L758 187 L757 188 L756 188 L755 189 L754 189 L753 190 L752 190 L751 191 L750 191 L749 192 L748 192 L747 193 L746 193 L745 194 L744 194 L743 195 L742 195 L741 196 L740 196 L739 197 L738 197 L737 198 L736 198 L735 199 L734 199 L733 200 L732 200 L731 201 L730 201 L729 202 L728 202 L726 204 L725 204 L724 205 L723 205 L722 206 L721 206 L719 208 L718 208 L717 209 L716 209 L715 210 L714 210 L713 211 L712 211 L711 212 L710 212 L709 213 L705 213 L703 211 L703 208 L704 207 L704 206 L706 204 L706 203 L710 199 L710 198 L714 194 L715 194 L719 190 L720 190 L723 187 L724 187 L727 184 L728 184 L730 182 L731 182 L733 180 L734 180 L736 178 L737 178 L738 177 L739 177 L740 176 L741 176 L742 175 L743 175 L744 174 L745 174 L746 173 L748 173 L749 172 L750 172 L751 171 L753 171 L754 170 L757 170 L758 169 L760 169 L761 168 L764 168 L765 167 L774 167 L775 168 L778 168 L779 169 L782 169 L783 170 L791 170 L792 169 L793 169 L794 168 L795 168 L796 167 L797 167 L798 166 L798 163 L796 161 L796 160 L788 152 L787 152 L785 150 L784 150 L783 149 L782 149 L780 147 L779 147 L778 146 L777 146 L776 145 L775 145 L773 143 L772 143 L770 141 L769 141 L767 139 L766 139 L765 138 L764 138 L763 137 L761 137 L760 136 L759 136 L758 135 L757 135 L756 134 L754 134 L753 133 L752 133 L751 132 L749 132 L748 131 L746 131 L745 130 L741 130 L740 129 L735 129 L734 128 L727 128 L726 127 L717 127 L716 128 L710 128 L709 129 L705 129 L704 130 L701 130 L700 131 L697 131 L696 132 L693 132 L692 133 L689 133 L688 134 L684 134 L683 135 L681 135 L680 136 L678 136 L677 137 L675 137 L674 138 L673 138 L672 139 L670 139 L669 140 L667 140 L666 141 L664 141 L663 142 L661 142 L660 143 L658 143 L657 144 L656 144 L654 146 L653 146 L652 147 L651 147 L647 151 L646 151 L646 152 L645 153 L644 153 L638 159 L637 159 L634 162 L634 163 L633 164 L633 165 L632 166 L632 167 L631 168 L631 169 L630 170 L630 172 L629 173 L629 175 L628 176 L628 180 L627 181 L627 186 L626 187 L626 206 L627 207 L627 215 L628 216 L628 225 L629 226 L629 235 L628 236 L624 232 L623 232 L617 226 L616 226 L613 223 L612 223 L609 220 L608 220 L606 218 L605 218 L603 216 L602 216 L601 215 L600 215 L599 214 L597 214 L596 213 L595 213 L594 212 L593 212 L592 211 L589 211 L588 210 L584 210 L583 209 L578 209 L577 210 L573 210 L572 211 L568 211 L567 212 L565 212 L564 213 L562 213 L561 214 L557 214 L556 213 L557 212 L557 209 L558 208 L558 206 L559 205 L559 202 L560 201 L560 197 L561 196 L561 177 L562 176 L562 168 L563 167 L563 152 L562 151 L562 145 L561 144 L561 139 L560 138 L560 133 L559 132 L559 128 L558 127 L558 125 L557 124 L557 122 L556 121 L556 119 L555 118 L555 116 L554 115 L554 113 L553 112 L553 111 L552 110 L552 108 L551 107 L551 105 L550 104 L550 103 L549 102 L549 100 L548 99 L548 98 L547 97 L547 96 L546 95 L546 93 L545 92 L545 91 L543 89 L543 88 L542 87 L542 86 L538 82 L538 81 L523 66 L522 66 L520 64 L519 64 L518 63 L517 63 L516 62 L515 62 L514 61 L513 61 L512 60 L510 60 L509 59 L507 59 L506 58 L504 58 L503 57 L499 57 L498 56 L494 56 L493 55 L483 55 L482 56 L477 56 L476 57 L471 57 L470 58 L467 58 L466 59 L464 59 L463 60 L462 60 L461 61 L460 61 L459 62 L458 62 L457 63 L456 63 L454 65 L453 65 L451 67 L450 67 L448 69 L447 69 L439 77 L439 78 L433 84 L433 85 L428 90 L428 91 L423 96 L422 96 L421 97 L416 97 L414 95 L414 88 L413 87 L413 78 L412 77 L412 68 L411 67 L411 62 L410 61 L410 58 L409 57 L409 54 L408 53 L408 51 L407 50 L407 48 L406 47 L406 46 L405 45 L405 44 L404 43 L404 42 L402 40 L402 39 L401 38 L401 37 L398 34 L398 33 L390 25 L389 25 L386 22 L385 22 L383 20 L382 20 L380 18 L379 18 L378 17 L377 17 L376 16 L375 16 L374 15 L373 15 L372 14 L370 14 L369 13 L363 13 L362 12 L349 12 L348 11 Z " fill="black"/></svg>