<svg width="251" height="501" xmlns="http://www.w3.org/2000/svg"><path d="M143 22 L143 23 L144 24 L144 25 L145 26 L145 27 L141 31 L138 31 L138 34 L137 35 L134 35 L134 36 L136 38 L129 45 L127 43 L127 40 L126 39 L126 36 L125 35 L124 35 L123 36 L123 39 L124 40 L124 45 L125 46 L125 48 L124 49 L121 49 L120 50 L119 50 L119 51 L120 52 L120 53 L123 56 L123 57 L119 61 L118 61 L117 62 L117 63 L115 65 L115 70 L114 71 L111 71 L108 68 L105 71 L105 72 L109 76 L110 76 L112 78 L112 91 L109 94 L107 94 L106 95 L106 100 L105 101 L105 102 L106 103 L111 103 L112 104 L112 106 L110 108 L109 108 L107 110 L107 111 L108 112 L108 125 L111 128 L111 129 L110 130 L109 130 L108 129 L108 128 L107 128 L106 127 L106 125 L105 124 L105 123 L103 121 L102 121 L100 119 L96 119 L95 120 L93 120 L91 118 L91 115 L90 114 L89 114 L88 113 L87 113 L86 112 L85 112 L84 113 L82 113 L82 114 L83 114 L87 118 L87 120 L85 122 L82 122 L81 121 L78 121 L76 119 L70 119 L69 118 L68 119 L68 120 L69 121 L69 123 L66 126 L62 126 L56 132 L54 132 L53 133 L52 133 L51 134 L48 134 L45 131 L44 131 L45 132 L45 134 L46 135 L46 138 L47 139 L47 140 L46 141 L46 146 L45 147 L40 147 L39 148 L39 149 L40 150 L40 157 L38 159 L37 158 L30 158 L30 159 L31 160 L31 161 L33 163 L33 164 L34 165 L34 167 L33 168 L33 172 L34 173 L34 182 L33 183 L33 184 L32 185 L32 187 L31 188 L31 190 L30 191 L26 191 L25 190 L23 190 L23 193 L24 194 L25 194 L28 197 L29 197 L30 198 L31 198 L35 202 L35 203 L36 204 L36 213 L35 214 L35 215 L34 216 L33 216 L32 217 L30 217 L29 218 L28 218 L27 219 L26 219 L26 223 L32 223 L36 227 L36 232 L37 233 L37 237 L34 240 L33 240 L32 241 L32 242 L33 243 L35 243 L36 244 L38 244 L40 246 L40 248 L41 249 L41 254 L42 255 L42 259 L40 261 L39 260 L37 260 L36 261 L32 261 L32 262 L33 263 L38 263 L39 264 L41 264 L46 269 L46 270 L47 271 L47 272 L48 273 L46 275 L39 275 L38 276 L35 276 L34 277 L32 277 L31 278 L30 278 L29 279 L28 279 L27 280 L25 280 L23 282 L22 282 L21 283 L20 283 L19 284 L18 284 L14 288 L14 289 L13 290 L13 292 L12 293 L12 297 L11 298 L11 382 L12 383 L12 387 L13 388 L13 395 L14 396 L14 403 L15 404 L15 417 L16 418 L16 426 L17 427 L17 437 L18 438 L18 441 L19 442 L19 444 L20 445 L20 446 L21 447 L21 450 L22 451 L22 452 L23 453 L23 454 L24 455 L24 456 L25 457 L25 458 L26 459 L26 460 L33 467 L34 467 L37 470 L38 470 L40 472 L41 472 L42 473 L43 473 L44 474 L45 474 L46 475 L47 475 L48 476 L49 476 L50 477 L52 477 L53 478 L55 478 L56 479 L60 479 L61 480 L64 480 L65 481 L68 481 L69 482 L70 482 L71 483 L73 483 L74 484 L78 484 L79 485 L83 485 L84 486 L91 486 L92 487 L114 487 L115 488 L119 488 L120 489 L138 489 L139 488 L146 488 L147 487 L150 487 L151 486 L155 486 L156 485 L173 485 L174 484 L178 484 L179 483 L181 483 L182 482 L185 482 L186 481 L190 481 L191 480 L193 480 L194 479 L196 479 L197 478 L198 478 L199 477 L201 477 L202 476 L203 476 L204 475 L205 475 L206 474 L207 474 L210 471 L211 471 L216 466 L216 465 L218 463 L218 462 L220 460 L220 459 L222 457 L222 456 L223 455 L223 454 L224 453 L224 452 L225 451 L225 449 L226 448 L226 446 L227 445 L227 442 L228 441 L228 437 L229 436 L229 428 L230 427 L230 420 L231 419 L231 416 L232 415 L232 411 L233 410 L233 402 L234 401 L234 390 L235 389 L235 382 L236 381 L236 363 L237 362 L237 342 L238 341 L238 333 L239 332 L239 303 L238 302 L238 295 L237 294 L237 292 L236 291 L236 290 L230 284 L229 284 L227 282 L226 282 L225 281 L224 281 L222 279 L220 279 L219 278 L218 278 L217 277 L215 277 L214 276 L210 276 L209 275 L206 275 L205 274 L202 274 L201 273 L201 271 L202 270 L202 267 L203 266 L203 265 L205 263 L206 263 L207 262 L208 262 L209 261 L210 261 L211 260 L211 259 L210 258 L209 258 L208 257 L208 252 L207 252 L206 251 L206 244 L207 243 L207 241 L209 239 L210 239 L211 238 L211 237 L209 237 L207 235 L207 230 L208 229 L208 228 L210 226 L210 225 L215 220 L215 217 L214 217 L213 216 L211 216 L209 214 L209 213 L210 212 L210 211 L211 210 L211 209 L212 208 L212 207 L213 206 L213 203 L214 202 L214 200 L213 200 L211 198 L211 195 L212 194 L212 191 L213 190 L213 189 L214 188 L217 188 L218 187 L221 187 L222 186 L221 185 L220 185 L219 184 L218 184 L217 183 L216 183 L213 180 L213 177 L214 176 L214 173 L215 172 L215 170 L221 164 L220 163 L217 163 L216 162 L216 161 L218 159 L218 145 L219 144 L219 143 L220 142 L220 141 L222 139 L222 136 L221 135 L220 135 L219 134 L218 134 L217 133 L217 128 L216 127 L216 125 L217 124 L217 122 L219 120 L219 116 L221 114 L221 113 L219 111 L218 111 L217 110 L217 103 L216 102 L216 97 L218 95 L220 95 L221 94 L220 93 L219 93 L218 92 L218 90 L217 89 L214 89 L211 86 L211 84 L210 83 L210 74 L211 73 L211 72 L212 71 L213 71 L216 68 L216 66 L214 66 L213 65 L210 65 L209 64 L208 65 L206 65 L205 64 L205 63 L204 62 L204 60 L205 59 L205 58 L206 57 L206 56 L205 55 L205 54 L204 53 L204 52 L202 50 L202 48 L201 47 L201 44 L203 42 L203 41 L205 39 L206 39 L206 37 L205 38 L204 38 L203 39 L202 39 L199 42 L198 42 L197 41 L197 40 L194 37 L194 36 L191 36 L183 28 L186 25 L189 25 L190 24 L189 24 L188 23 L187 24 L184 24 L183 23 L180 23 L178 25 L178 26 L175 29 L173 29 L172 28 L171 28 L168 25 L165 25 L164 26 L160 26 L159 27 L156 27 L155 26 L155 25 L152 28 L151 28 L150 27 L148 27 Z M138 22 L138 24 L139 25 L139 23 Z M172 16 L171 17 L171 18 L172 18 L172 17 L173 16 Z M155 11 L154 12 L154 13 L155 14 L155 20 L156 21 L156 22 L159 19 L160 19 L161 20 L161 18 L157 14 L157 13 L156 12 L156 11 Z " fill="black"/></svg>