<svg width="329" height="452" xmlns="http://www.w3.org/2000/svg"><path d="M126 11 L123 14 L123 16 L122 17 L122 18 L121 19 L121 22 L120 23 L121 24 L121 27 L120 28 L119 28 L116 31 L116 32 L115 33 L115 48 L116 49 L116 50 L117 51 L117 52 L118 53 L118 54 L119 55 L119 56 L120 57 L120 59 L121 60 L121 61 L122 62 L122 63 L123 64 L123 65 L122 66 L121 66 L120 65 L119 65 L118 64 L117 64 L116 63 L114 63 L113 62 L112 62 L111 61 L109 61 L108 60 L104 60 L103 59 L100 59 L96 55 L95 55 L94 54 L89 54 L88 55 L87 55 L85 57 L84 57 L82 59 L82 60 L80 62 L80 66 L81 67 L81 68 L87 74 L88 74 L89 75 L90 75 L91 76 L92 76 L93 77 L94 77 L95 78 L96 78 L97 79 L98 79 L99 80 L100 80 L102 82 L103 82 L104 83 L105 83 L106 84 L107 84 L108 85 L111 85 L112 86 L124 86 L125 85 L133 85 L136 88 L136 89 L137 90 L137 92 L138 93 L138 96 L139 97 L139 98 L138 99 L136 97 L135 97 L133 95 L132 95 L131 94 L130 94 L129 93 L128 93 L127 92 L125 92 L124 91 L110 91 L109 92 L102 92 L101 93 L99 93 L98 94 L98 95 L97 96 L97 100 L98 101 L98 102 L99 103 L99 104 L101 106 L101 107 L102 108 L102 109 L101 110 L100 110 L97 113 L96 113 L94 115 L93 115 L91 117 L88 117 L86 115 L86 101 L85 100 L85 99 L81 95 L80 95 L79 94 L77 94 L76 93 L75 93 L71 89 L70 89 L69 88 L68 88 L67 87 L63 87 L62 88 L61 88 L58 91 L58 92 L57 93 L57 94 L56 95 L56 99 L54 101 L49 96 L48 96 L46 94 L45 94 L44 93 L43 93 L42 92 L39 92 L38 93 L37 93 L36 94 L35 94 L32 97 L32 98 L31 99 L31 101 L30 102 L30 110 L31 111 L31 113 L32 114 L32 117 L33 118 L33 120 L32 121 L29 121 L28 122 L20 122 L19 123 L15 123 L14 124 L13 124 L12 125 L12 126 L11 127 L11 132 L12 133 L12 134 L13 135 L13 136 L16 139 L17 139 L20 142 L21 142 L23 144 L24 144 L25 145 L26 145 L27 146 L28 146 L29 147 L30 147 L31 148 L33 148 L34 149 L36 149 L37 150 L39 150 L40 151 L42 151 L43 152 L47 152 L48 153 L53 153 L54 154 L53 155 L46 155 L45 156 L43 156 L42 157 L40 157 L39 158 L38 158 L37 159 L35 159 L34 160 L32 160 L31 161 L29 161 L27 163 L26 163 L24 165 L24 166 L23 167 L23 168 L22 169 L22 174 L24 176 L25 176 L27 178 L29 178 L30 179 L33 179 L34 180 L40 180 L41 181 L60 181 L61 180 L63 180 L64 179 L66 179 L67 178 L68 178 L69 177 L71 177 L72 176 L73 176 L74 177 L74 178 L75 179 L75 180 L77 182 L77 183 L78 184 L78 185 L79 186 L79 187 L81 189 L81 190 L82 191 L81 192 L71 192 L70 191 L52 191 L51 192 L49 192 L47 194 L46 194 L44 196 L39 196 L38 197 L37 197 L36 198 L35 198 L34 199 L34 200 L33 201 L33 206 L34 207 L35 207 L39 211 L39 212 L42 215 L44 215 L45 216 L47 216 L48 217 L50 217 L51 218 L62 218 L63 219 L75 219 L76 218 L79 218 L81 216 L82 216 L83 215 L84 215 L85 214 L86 214 L87 213 L88 213 L89 212 L90 212 L91 211 L93 211 L94 210 L99 210 L102 213 L102 214 L103 215 L103 216 L104 217 L104 219 L105 220 L105 222 L104 223 L100 223 L99 222 L88 222 L87 223 L85 223 L84 224 L82 224 L81 225 L78 225 L77 226 L73 226 L72 227 L71 227 L70 228 L69 228 L64 233 L64 234 L63 235 L63 236 L55 244 L54 244 L52 246 L52 263 L53 264 L53 269 L54 270 L54 273 L55 274 L55 278 L56 279 L56 281 L57 282 L57 283 L58 284 L58 285 L65 292 L65 294 L66 295 L66 299 L67 300 L67 305 L68 306 L68 311 L69 312 L69 318 L70 319 L70 325 L71 326 L71 330 L72 331 L72 334 L73 335 L73 339 L74 340 L74 344 L75 345 L75 348 L76 349 L76 353 L77 354 L77 358 L78 359 L78 364 L79 365 L79 369 L80 370 L80 377 L81 378 L81 382 L82 383 L82 384 L83 385 L83 387 L84 388 L84 390 L85 391 L85 393 L86 394 L86 398 L87 399 L87 402 L88 403 L88 406 L89 407 L89 410 L90 411 L90 413 L91 414 L91 415 L92 416 L92 417 L99 424 L100 424 L103 427 L104 427 L106 429 L108 429 L109 430 L111 430 L112 431 L114 431 L115 432 L118 432 L119 433 L120 433 L121 434 L123 434 L124 435 L127 435 L128 436 L130 436 L131 437 L134 437 L135 438 L144 438 L145 439 L168 439 L169 440 L177 440 L178 439 L195 439 L196 438 L208 438 L209 437 L215 437 L216 436 L221 436 L222 435 L225 435 L226 434 L228 434 L229 433 L230 433 L231 432 L232 432 L233 431 L234 431 L235 430 L236 430 L237 429 L238 429 L239 428 L240 428 L242 426 L243 426 L243 425 L245 423 L245 422 L246 421 L246 420 L248 418 L248 417 L249 416 L249 415 L250 414 L250 412 L251 411 L251 408 L252 407 L252 403 L253 402 L253 398 L254 397 L254 393 L255 392 L255 387 L256 386 L256 382 L257 381 L257 374 L258 373 L258 370 L259 369 L259 364 L260 363 L260 360 L261 359 L261 355 L262 354 L262 350 L263 349 L263 345 L264 344 L264 339 L265 338 L265 334 L266 333 L266 328 L267 327 L267 323 L268 322 L268 318 L269 317 L269 313 L270 312 L270 308 L271 307 L271 303 L272 302 L272 297 L273 296 L273 294 L274 293 L274 292 L277 289 L278 289 L280 287 L280 286 L282 284 L282 281 L283 280 L283 278 L284 277 L284 273 L285 272 L285 256 L286 255 L286 250 L285 249 L285 246 L284 245 L284 244 L281 241 L280 241 L277 238 L276 238 L274 236 L273 236 L271 234 L275 230 L275 229 L276 228 L276 223 L275 222 L275 220 L274 219 L274 218 L273 217 L273 216 L274 215 L276 215 L277 216 L292 216 L293 215 L296 215 L297 214 L298 214 L300 212 L301 212 L304 209 L304 207 L305 206 L305 205 L304 204 L304 203 L301 200 L300 200 L298 198 L297 198 L295 196 L294 196 L293 195 L292 195 L291 194 L289 194 L288 193 L287 193 L286 192 L285 192 L284 191 L283 191 L282 190 L281 190 L280 189 L279 189 L278 188 L277 188 L276 187 L276 186 L277 185 L280 185 L281 184 L283 184 L284 183 L286 183 L287 182 L289 182 L290 181 L291 181 L292 180 L293 180 L297 176 L298 176 L302 172 L302 171 L304 169 L304 168 L305 167 L305 166 L306 165 L306 163 L307 162 L307 157 L306 156 L306 155 L305 154 L304 154 L302 152 L293 152 L292 153 L291 153 L289 155 L287 155 L285 157 L283 157 L282 158 L281 157 L281 153 L280 152 L280 150 L279 149 L279 148 L278 148 L277 147 L276 147 L275 146 L272 146 L271 147 L270 147 L269 148 L269 149 L268 150 L268 151 L266 153 L266 154 L263 157 L262 157 L260 155 L260 152 L259 151 L259 147 L260 146 L260 142 L262 140 L262 139 L264 137 L266 137 L267 138 L269 138 L270 139 L272 139 L273 140 L274 140 L275 141 L276 141 L277 142 L278 142 L279 143 L280 143 L281 144 L282 144 L283 145 L284 145 L285 146 L287 146 L288 147 L290 147 L291 148 L297 148 L298 147 L301 147 L302 146 L305 146 L306 145 L307 145 L308 144 L309 144 L311 142 L312 142 L314 140 L314 139 L316 137 L316 135 L317 134 L317 124 L315 122 L306 122 L305 121 L302 121 L301 120 L298 120 L297 119 L295 119 L294 118 L294 116 L295 115 L295 113 L296 112 L296 111 L297 110 L297 107 L298 106 L298 103 L299 102 L299 94 L298 93 L298 91 L297 90 L297 89 L295 87 L295 86 L294 85 L293 85 L290 82 L289 82 L288 83 L286 83 L284 85 L283 85 L279 89 L278 89 L277 90 L276 90 L274 92 L273 92 L272 93 L271 93 L270 92 L270 79 L267 76 L267 75 L263 71 L262 71 L261 72 L260 72 L259 71 L259 69 L260 68 L260 56 L259 55 L259 43 L258 42 L258 41 L257 40 L257 39 L255 37 L252 37 L250 39 L249 39 L248 40 L247 40 L244 43 L243 43 L243 44 L239 48 L239 49 L237 51 L237 52 L236 53 L236 54 L235 55 L234 55 L233 54 L233 52 L232 51 L232 49 L231 48 L231 47 L229 45 L229 44 L224 39 L223 39 L222 38 L217 38 L213 42 L213 43 L211 45 L211 46 L208 49 L207 49 L206 50 L206 51 L205 52 L205 57 L203 59 L202 59 L201 58 L200 58 L199 57 L198 57 L197 56 L193 56 L192 57 L191 57 L190 58 L189 58 L187 60 L186 60 L186 61 L185 62 L185 63 L184 64 L185 65 L185 73 L184 74 L184 75 L181 78 L177 78 L176 79 L169 79 L168 80 L165 80 L164 81 L162 81 L161 82 L160 82 L158 84 L157 84 L153 88 L152 88 L151 87 L151 79 L152 78 L152 77 L155 74 L156 74 L157 73 L158 73 L159 72 L163 72 L164 71 L166 71 L167 70 L168 70 L169 69 L170 69 L171 68 L172 68 L174 66 L175 66 L177 64 L178 64 L180 62 L181 62 L183 60 L183 59 L184 58 L184 57 L185 56 L185 55 L186 54 L186 53 L191 48 L191 47 L193 45 L193 44 L194 43 L194 42 L195 41 L195 39 L196 38 L196 28 L195 27 L195 25 L194 24 L194 23 L193 22 L192 22 L191 21 L185 21 L184 22 L182 22 L181 23 L180 23 L179 24 L178 24 L175 27 L174 27 L173 28 L172 28 L171 29 L170 29 L169 30 L167 30 L166 29 L166 20 L165 19 L165 17 L164 16 L164 15 L162 13 L161 13 L160 12 L157 12 L156 13 L155 13 L150 18 L150 19 L149 20 L149 21 L148 22 L148 24 L147 25 L147 27 L146 28 L146 29 L145 30 L144 30 L141 27 L141 26 L140 25 L140 24 L139 23 L139 22 L137 20 L137 19 L134 16 L134 15 L132 13 L131 13 L129 11 Z " fill="black"/></svg>