<svg width="324" height="398" xmlns="http://www.w3.org/2000/svg"><path d="M5 361 L4 362 L3 362 L2 363 L1 363 L0 364 L0 397 L27 397 L26 396 L26 389 L25 388 L25 376 L24 375 L23 375 L21 373 L17 373 L16 372 L13 372 L11 370 L11 365 L10 364 L10 363 L8 361 Z M306 357 L303 360 L303 361 L302 362 L302 363 L301 364 L301 365 L298 368 L298 369 L295 372 L295 373 L289 379 L289 380 L285 384 L285 385 L273 397 L272 397 L323 397 L323 382 L321 380 L321 378 L319 376 L319 375 L316 372 L316 371 L311 366 L311 365 L310 364 L310 362 L309 361 L309 359 L308 359 Z M7 243 L6 244 L4 244 L3 245 L2 245 L0 247 L0 344 L1 343 L2 343 L3 342 L4 342 L5 341 L6 341 L7 340 L9 340 L10 339 L12 339 L13 338 L15 338 L18 335 L18 333 L19 332 L19 329 L20 328 L20 322 L19 321 L19 320 L17 318 L17 317 L16 316 L16 315 L17 314 L18 314 L18 313 L22 309 L22 308 L23 307 L23 304 L22 303 L22 301 L19 298 L17 298 L16 297 L16 296 L19 293 L19 292 L23 288 L23 287 L24 286 L24 280 L19 275 L19 273 L20 272 L20 270 L21 269 L21 268 L22 267 L22 265 L23 264 L23 254 L22 253 L22 251 L20 249 L20 248 L17 245 L16 245 L15 244 L13 244 L12 243 Z M106 10 L105 11 L105 13 L104 14 L104 15 L103 16 L102 16 L98 20 L97 19 L95 19 L94 20 L94 21 L93 22 L93 23 L94 24 L94 31 L92 33 L92 34 L90 36 L90 37 L91 38 L91 39 L92 40 L92 41 L93 42 L93 46 L94 47 L93 48 L93 51 L94 52 L94 53 L92 55 L87 55 L84 52 L84 51 L82 51 L81 52 L81 53 L78 56 L72 56 L71 57 L68 57 L67 58 L64 58 L63 57 L62 58 L62 60 L60 62 L59 62 L56 65 L56 66 L52 70 L52 71 L51 72 L50 72 L48 70 L48 68 L47 67 L47 65 L46 64 L46 63 L45 62 L45 61 L43 59 L43 58 L40 55 L40 54 L39 54 L38 55 L36 53 L33 53 L32 52 L28 52 L27 53 L25 53 L24 54 L23 54 L21 56 L21 57 L20 58 L20 59 L19 60 L19 62 L18 63 L18 66 L19 67 L19 68 L18 69 L18 71 L19 72 L19 73 L20 74 L20 75 L21 76 L21 78 L24 81 L28 81 L29 82 L38 82 L39 83 L39 86 L37 88 L36 87 L34 87 L33 86 L26 86 L25 85 L24 85 L23 86 L22 86 L21 87 L19 87 L18 88 L17 88 L16 89 L15 89 L13 91 L13 92 L11 94 L11 99 L12 100 L12 102 L13 103 L13 104 L21 112 L23 112 L24 113 L25 113 L26 114 L29 114 L30 115 L32 115 L33 116 L33 122 L34 123 L34 124 L35 125 L36 125 L37 126 L37 127 L39 129 L39 135 L40 136 L40 137 L39 138 L39 139 L38 140 L38 141 L37 142 L37 144 L38 145 L38 146 L39 147 L44 147 L45 148 L46 148 L52 154 L52 155 L53 156 L53 157 L52 158 L52 159 L51 160 L51 162 L53 164 L54 164 L55 163 L58 163 L65 170 L65 171 L68 174 L68 176 L70 178 L71 178 L72 179 L73 179 L74 180 L75 180 L76 181 L77 181 L78 182 L80 182 L81 183 L82 183 L86 187 L87 187 L92 192 L93 192 L94 193 L101 193 L102 194 L106 194 L108 196 L107 197 L107 198 L103 202 L103 203 L100 206 L100 207 L99 208 L99 209 L97 211 L97 212 L96 213 L96 214 L93 217 L89 217 L88 218 L88 219 L87 220 L87 231 L86 232 L86 236 L85 237 L85 241 L84 242 L84 243 L83 244 L82 244 L81 245 L80 245 L80 249 L81 250 L81 256 L82 257 L82 264 L81 265 L81 266 L80 267 L80 268 L77 271 L77 273 L78 273 L79 274 L80 274 L81 275 L81 277 L82 278 L82 280 L83 281 L83 284 L84 285 L84 291 L82 293 L80 293 L80 294 L79 295 L79 296 L80 297 L82 297 L84 299 L84 300 L85 301 L85 305 L86 306 L85 307 L85 308 L84 309 L84 311 L83 312 L83 317 L84 318 L86 318 L87 317 L88 317 L89 318 L90 318 L92 320 L92 322 L93 323 L93 325 L94 326 L94 331 L93 332 L94 333 L94 335 L95 335 L96 336 L98 336 L102 340 L102 341 L103 342 L103 344 L104 345 L104 346 L105 347 L105 348 L106 349 L106 351 L107 352 L107 353 L109 355 L109 356 L110 357 L110 358 L111 359 L112 359 L116 363 L116 364 L118 366 L118 367 L122 371 L122 372 L123 373 L123 374 L124 375 L124 378 L127 381 L129 381 L130 382 L134 382 L135 383 L136 383 L137 384 L138 384 L139 385 L143 385 L144 386 L166 386 L167 385 L168 385 L169 386 L171 386 L172 385 L178 385 L179 384 L186 384 L187 383 L191 383 L195 379 L195 378 L196 377 L196 376 L199 373 L199 372 L200 371 L201 371 L206 366 L207 366 L210 363 L210 362 L211 361 L211 358 L212 357 L212 354 L213 353 L213 351 L214 350 L214 349 L215 348 L215 347 L216 346 L216 345 L217 344 L217 343 L219 341 L220 341 L221 340 L222 340 L222 339 L223 338 L223 326 L226 323 L227 323 L228 322 L230 322 L232 320 L232 318 L233 317 L233 315 L232 314 L232 306 L233 305 L233 304 L234 303 L234 302 L235 301 L235 300 L236 299 L236 296 L237 295 L236 294 L236 292 L237 291 L237 284 L238 283 L238 282 L240 280 L240 279 L241 278 L241 277 L240 276 L240 271 L239 270 L239 261 L242 258 L243 258 L243 257 L244 256 L244 255 L239 250 L239 249 L238 248 L238 245 L237 244 L237 232 L236 231 L236 228 L235 227 L235 226 L234 225 L234 224 L233 223 L233 222 L232 221 L232 220 L230 218 L230 217 L229 216 L229 214 L228 213 L228 210 L229 209 L232 209 L233 208 L236 208 L237 207 L239 207 L240 206 L242 206 L243 205 L247 205 L248 204 L252 204 L253 203 L257 203 L258 202 L260 202 L262 200 L263 200 L264 199 L265 199 L266 198 L267 198 L269 196 L270 196 L271 195 L272 195 L275 192 L279 192 L280 191 L282 191 L283 190 L283 188 L285 186 L285 185 L286 184 L286 183 L287 182 L287 181 L288 180 L288 179 L289 178 L290 178 L293 175 L294 175 L296 173 L297 173 L298 172 L298 171 L301 168 L301 164 L302 163 L302 162 L303 161 L303 160 L305 158 L305 157 L306 156 L306 152 L309 149 L309 146 L310 145 L310 143 L309 142 L309 133 L308 132 L308 131 L309 130 L309 127 L310 126 L310 125 L312 123 L312 122 L313 121 L313 120 L311 118 L310 118 L309 117 L309 116 L307 114 L307 113 L306 112 L306 111 L305 110 L305 107 L306 106 L306 104 L307 103 L307 101 L306 100 L304 100 L303 99 L301 99 L295 93 L295 92 L294 91 L295 90 L296 90 L296 88 L290 88 L289 87 L287 87 L286 86 L285 86 L283 84 L281 84 L280 83 L278 83 L277 82 L274 82 L271 79 L268 79 L267 80 L266 80 L264 82 L262 82 L261 81 L258 81 L257 80 L257 79 L253 79 L252 80 L251 80 L251 81 L250 82 L249 82 L248 83 L247 83 L246 84 L245 84 L244 83 L243 83 L241 81 L240 81 L239 82 L239 83 L238 84 L238 85 L237 86 L237 88 L233 92 L232 92 L227 97 L225 97 L224 98 L222 98 L221 97 L220 97 L219 98 L219 104 L220 105 L219 106 L219 107 L218 108 L217 108 L215 110 L215 111 L214 112 L214 115 L211 118 L210 118 L209 117 L207 119 L207 123 L208 124 L208 127 L207 128 L207 133 L206 134 L206 135 L205 136 L205 137 L202 140 L202 141 L201 142 L201 143 L200 144 L200 146 L201 147 L201 148 L203 150 L203 155 L202 156 L202 162 L203 163 L203 167 L204 168 L204 182 L205 183 L205 184 L204 185 L203 185 L202 184 L201 184 L200 183 L199 183 L198 182 L197 182 L195 180 L194 180 L191 177 L191 175 L192 174 L192 169 L190 169 L186 173 L184 173 L183 174 L181 174 L180 173 L176 173 L175 172 L170 172 L168 170 L168 168 L166 166 L164 166 L164 167 L163 168 L163 169 L161 171 L160 171 L159 172 L158 172 L157 173 L154 173 L153 174 L151 174 L147 170 L144 170 L144 171 L143 172 L143 173 L141 175 L136 175 L135 174 L135 172 L134 171 L134 165 L135 164 L135 157 L136 156 L136 155 L137 154 L137 153 L138 152 L138 148 L137 148 L136 147 L136 143 L137 142 L137 140 L138 139 L138 138 L137 137 L137 136 L136 135 L136 134 L137 133 L137 132 L138 131 L138 129 L139 128 L139 126 L137 124 L137 121 L136 120 L136 118 L135 117 L135 112 L134 111 L134 110 L136 108 L136 105 L135 104 L133 104 L131 102 L131 98 L128 95 L128 94 L127 93 L127 89 L128 88 L128 87 L129 86 L129 85 L128 84 L127 84 L126 83 L123 83 L122 82 L122 81 L121 80 L121 79 L120 78 L120 76 L121 75 L122 75 L123 74 L123 71 L122 70 L121 70 L120 71 L118 71 L117 70 L117 69 L116 68 L117 67 L117 65 L119 63 L120 63 L122 61 L123 61 L125 59 L126 59 L128 57 L129 57 L131 55 L131 54 L132 53 L132 52 L133 51 L133 46 L134 45 L134 42 L135 41 L135 37 L136 36 L136 35 L138 33 L138 30 L137 29 L136 29 L134 27 L134 26 L133 25 L133 23 L132 22 L132 21 L131 20 L131 19 L130 18 L129 18 L126 15 L125 15 L120 10 L119 10 L118 11 L116 11 L115 12 L109 12 L107 10 Z M269 0 L271 0 L272 1 L276 1 L277 2 L282 2 L283 3 L289 3 L290 4 L298 4 L299 5 L309 5 L310 6 L313 6 L314 7 L322 7 L323 8 L323 0 Z M0 0 L0 10 L1 9 L2 9 L4 7 L5 7 L7 5 L8 5 L9 4 L10 4 L11 3 L12 3 L14 1 L15 1 L16 0 Z " fill="black"/></svg>