<svg width="571" height="680" xmlns="http://www.w3.org/2000/svg"><path d="M192 676 L191 677 L190 677 L188 679 L195 679 L196 678 L196 676 Z M131 621 L125 627 L125 628 L124 629 L124 630 L123 631 L123 634 L120 637 L119 637 L119 638 L118 639 L118 640 L117 641 L117 642 L116 643 L116 644 L115 645 L115 646 L113 648 L113 649 L112 650 L112 651 L111 652 L111 653 L110 654 L110 655 L109 656 L109 657 L108 658 L108 660 L107 661 L107 662 L106 663 L106 665 L105 666 L105 667 L104 668 L104 669 L103 670 L103 672 L102 673 L102 675 L101 676 L101 678 L100 679 L122 679 L123 678 L123 676 L124 675 L124 666 L125 665 L125 662 L126 661 L126 660 L127 659 L127 656 L128 655 L128 649 L129 648 L129 646 L130 645 L130 641 L131 640 L131 638 L132 637 L132 635 L133 634 L133 633 L134 632 L134 631 L135 630 L135 626 L136 625 L136 621 Z M278 11 L277 12 L266 12 L265 13 L255 13 L254 14 L248 14 L247 15 L244 15 L243 16 L240 16 L239 17 L234 17 L233 18 L226 18 L225 19 L221 19 L220 20 L219 20 L218 21 L217 21 L216 22 L215 22 L214 23 L211 23 L210 24 L208 24 L207 25 L205 25 L204 26 L201 26 L200 27 L199 27 L198 28 L196 28 L195 29 L194 29 L193 30 L192 30 L191 31 L189 31 L188 32 L187 32 L186 33 L185 33 L184 34 L183 34 L182 35 L181 35 L180 36 L179 36 L177 38 L176 38 L175 39 L174 39 L173 40 L172 40 L171 41 L170 41 L169 42 L168 42 L167 43 L166 43 L165 44 L164 44 L162 46 L161 46 L160 47 L159 47 L157 49 L156 49 L155 50 L154 50 L152 52 L151 52 L149 54 L148 54 L146 56 L145 56 L144 57 L143 57 L141 59 L140 59 L135 64 L134 64 L134 65 L132 67 L131 67 L129 69 L128 69 L127 70 L126 70 L124 72 L123 72 L116 79 L115 79 L115 80 L111 84 L110 84 L100 94 L99 94 L99 95 L98 96 L97 96 L82 111 L82 112 L79 115 L79 116 L76 119 L76 120 L71 125 L71 126 L67 130 L67 131 L64 134 L64 135 L62 137 L62 138 L59 141 L59 142 L57 144 L57 145 L56 146 L56 147 L54 149 L54 150 L51 153 L51 154 L49 156 L49 157 L48 158 L48 159 L47 160 L47 161 L46 162 L46 163 L45 164 L45 165 L44 166 L44 168 L42 170 L42 171 L40 173 L40 174 L38 176 L38 177 L37 178 L37 179 L36 180 L36 181 L35 182 L35 183 L34 184 L34 185 L33 186 L33 188 L32 189 L32 190 L31 191 L31 193 L30 194 L30 195 L29 196 L29 198 L28 199 L28 200 L27 201 L27 203 L26 204 L26 206 L25 207 L25 208 L24 209 L24 212 L23 213 L23 215 L22 216 L22 218 L21 219 L21 222 L20 223 L20 227 L19 228 L19 232 L18 233 L18 238 L17 239 L17 244 L16 245 L16 254 L15 255 L15 259 L14 260 L14 265 L13 266 L13 272 L12 273 L12 299 L11 300 L11 325 L12 326 L12 330 L13 331 L13 334 L14 335 L14 340 L15 341 L15 350 L16 351 L16 356 L17 357 L17 360 L18 361 L18 363 L19 364 L19 367 L20 368 L20 370 L21 371 L21 373 L22 374 L22 377 L23 378 L23 380 L24 381 L24 385 L25 386 L25 389 L26 390 L26 393 L27 394 L27 396 L28 397 L28 398 L29 399 L29 400 L30 401 L30 402 L31 403 L31 404 L32 405 L32 407 L33 408 L33 409 L34 410 L34 412 L35 413 L35 414 L37 416 L37 418 L38 419 L38 420 L39 421 L39 423 L40 424 L40 425 L41 426 L41 428 L42 429 L42 431 L43 432 L43 434 L44 435 L44 437 L45 438 L45 439 L46 440 L46 441 L49 444 L49 445 L50 446 L50 447 L51 448 L51 450 L52 451 L52 452 L53 453 L53 454 L54 455 L54 456 L55 457 L55 458 L57 460 L57 461 L60 464 L60 465 L62 467 L62 468 L64 470 L64 471 L66 473 L66 474 L68 476 L68 477 L75 484 L75 485 L77 487 L77 488 L80 491 L80 492 L83 495 L83 496 L90 503 L90 504 L94 508 L94 509 L106 521 L106 522 L109 525 L109 526 L112 529 L112 530 L114 532 L114 533 L126 545 L126 546 L133 553 L134 553 L144 563 L145 563 L147 565 L148 565 L155 572 L156 572 L158 574 L159 574 L161 576 L162 576 L164 578 L165 578 L168 581 L169 581 L172 584 L173 584 L176 587 L177 587 L179 589 L180 589 L185 594 L186 594 L188 596 L189 596 L192 599 L193 599 L196 602 L197 602 L199 604 L200 604 L201 605 L202 605 L204 607 L205 607 L207 609 L208 609 L210 611 L211 611 L213 613 L214 613 L216 615 L217 615 L219 617 L220 617 L229 626 L230 626 L241 637 L242 637 L247 642 L248 642 L256 650 L256 651 L257 652 L257 653 L258 654 L258 655 L260 657 L260 658 L263 661 L263 662 L265 664 L266 664 L268 666 L269 666 L271 668 L275 668 L276 667 L277 667 L281 663 L282 663 L285 660 L286 660 L289 657 L290 657 L303 644 L304 644 L313 635 L314 635 L318 631 L319 631 L321 629 L322 629 L324 627 L325 627 L332 620 L333 620 L335 618 L336 618 L338 616 L339 616 L342 613 L343 613 L344 612 L345 612 L347 610 L348 610 L350 608 L351 608 L352 607 L353 607 L354 606 L355 606 L357 604 L358 604 L359 603 L360 603 L362 601 L363 601 L364 600 L365 600 L366 599 L367 599 L368 598 L369 598 L370 597 L371 597 L379 589 L380 589 L382 587 L383 587 L385 585 L386 585 L387 584 L388 584 L389 583 L390 583 L391 582 L392 582 L393 581 L395 581 L397 579 L398 579 L402 575 L403 575 L405 573 L406 573 L407 572 L408 572 L410 570 L411 570 L415 566 L416 566 L418 564 L419 564 L422 561 L423 561 L427 557 L428 557 L431 554 L432 554 L441 545 L442 545 L448 539 L449 539 L459 529 L459 528 L483 504 L483 503 L489 497 L489 496 L492 493 L492 492 L494 490 L494 489 L496 487 L496 486 L498 484 L498 483 L501 480 L501 479 L505 475 L505 474 L507 472 L507 471 L509 469 L509 468 L511 466 L511 465 L513 463 L513 462 L515 460 L515 459 L516 458 L516 457 L518 455 L518 454 L519 453 L519 452 L520 451 L520 450 L522 448 L522 447 L524 445 L524 444 L525 443 L525 442 L526 441 L526 440 L527 439 L527 438 L528 437 L528 436 L529 435 L529 434 L530 433 L530 432 L531 431 L531 430 L532 429 L532 427 L533 426 L533 425 L534 424 L534 422 L535 421 L535 420 L536 419 L536 417 L537 416 L537 414 L538 413 L538 412 L539 411 L539 409 L540 408 L540 407 L541 406 L541 405 L542 404 L542 403 L543 402 L543 400 L544 399 L544 398 L545 397 L545 395 L546 394 L546 392 L547 391 L547 388 L548 387 L548 384 L549 383 L549 380 L550 379 L550 377 L551 376 L551 374 L552 373 L552 370 L553 369 L553 366 L554 365 L554 361 L555 360 L555 356 L556 355 L556 351 L557 350 L557 344 L558 343 L558 337 L559 336 L559 295 L558 294 L559 293 L559 264 L558 263 L558 255 L557 254 L557 248 L556 247 L556 242 L555 241 L555 237 L554 236 L554 232 L553 231 L553 227 L552 226 L552 223 L551 222 L551 221 L550 220 L550 218 L549 217 L549 216 L548 215 L548 213 L547 212 L547 210 L546 209 L546 207 L545 206 L545 205 L544 204 L544 202 L543 201 L543 200 L542 199 L542 198 L541 197 L541 196 L540 195 L540 194 L539 193 L539 191 L538 190 L538 189 L537 188 L537 186 L536 185 L536 184 L535 183 L535 181 L534 180 L534 179 L533 178 L533 177 L532 176 L532 175 L531 174 L531 173 L528 170 L528 169 L526 167 L526 166 L525 165 L525 164 L524 163 L524 162 L523 161 L523 160 L521 158 L521 157 L520 156 L520 155 L519 154 L519 153 L517 151 L517 150 L515 148 L515 147 L512 144 L512 143 L509 140 L509 139 L506 136 L506 135 L503 132 L503 131 L501 129 L501 128 L499 126 L499 125 L496 122 L496 121 L493 118 L493 117 L490 114 L490 113 L485 108 L485 107 L481 103 L481 102 L474 95 L474 94 L469 89 L468 89 L464 85 L464 84 L458 78 L457 78 L451 72 L450 72 L446 68 L445 68 L442 65 L441 65 L438 62 L437 62 L434 59 L433 59 L431 57 L430 57 L428 55 L427 55 L426 54 L425 54 L424 53 L423 53 L418 48 L417 48 L416 47 L415 47 L414 46 L413 46 L412 45 L411 45 L410 44 L409 44 L408 43 L407 43 L406 42 L405 42 L404 41 L403 41 L401 39 L400 39 L397 36 L396 36 L395 35 L394 35 L393 34 L392 34 L391 33 L389 33 L388 32 L386 32 L385 31 L383 31 L382 30 L381 30 L378 27 L377 27 L376 26 L375 26 L374 25 L373 25 L372 24 L370 24 L369 23 L366 23 L365 22 L363 22 L362 21 L359 21 L358 20 L356 20 L355 19 L352 19 L351 18 L349 18 L348 17 L345 17 L344 16 L340 16 L339 15 L336 15 L335 14 L331 14 L330 13 L323 13 L322 12 L313 12 L312 11 Z M0 0 L0 18 L1 17 L2 17 L4 15 L5 15 L6 14 L7 14 L8 13 L9 13 L10 12 L11 12 L12 11 L13 11 L15 9 L16 9 L17 8 L18 8 L20 6 L21 6 L22 5 L23 5 L24 4 L25 4 L26 3 L27 3 L28 2 L29 2 L30 1 L31 1 L32 0 L33 0 Z " fill="black"/></svg>