<svg width="715" height="388" xmlns="http://www.w3.org/2000/svg"><path d="M504 10 L503 11 L495 11 L494 12 L488 12 L487 13 L483 13 L482 14 L479 14 L478 15 L475 15 L474 16 L471 16 L470 17 L468 17 L467 18 L465 18 L464 19 L461 19 L460 20 L458 20 L457 21 L455 21 L454 22 L451 22 L450 23 L448 23 L447 24 L445 24 L444 25 L442 25 L441 26 L439 26 L438 27 L436 27 L435 28 L433 28 L432 29 L430 29 L429 30 L427 30 L426 31 L424 31 L423 32 L420 32 L419 33 L418 33 L417 34 L415 34 L414 35 L412 35 L411 36 L409 36 L408 37 L406 37 L405 38 L403 38 L402 39 L400 39 L399 40 L398 40 L397 41 L396 41 L395 42 L394 42 L393 43 L392 43 L391 44 L388 44 L387 45 L385 45 L384 46 L382 46 L381 47 L379 47 L378 48 L376 48 L375 49 L373 49 L372 50 L371 50 L370 51 L368 51 L367 52 L366 52 L365 53 L364 53 L363 54 L361 54 L360 55 L357 55 L356 56 L354 56 L353 57 L351 57 L350 58 L348 58 L347 59 L345 59 L344 60 L342 60 L341 61 L340 61 L339 62 L337 62 L336 63 L334 63 L333 64 L331 64 L330 65 L328 65 L327 66 L325 66 L324 67 L322 67 L321 68 L319 68 L318 69 L316 69 L315 70 L314 70 L313 71 L311 71 L310 72 L308 72 L307 73 L305 73 L304 74 L302 74 L301 75 L299 75 L298 76 L296 76 L295 77 L293 77 L292 78 L290 78 L289 79 L287 79 L286 80 L284 80 L283 81 L281 81 L280 82 L279 82 L278 83 L276 83 L275 84 L273 84 L272 85 L270 85 L269 86 L267 86 L266 87 L264 87 L263 88 L261 88 L260 89 L258 89 L257 90 L255 90 L254 91 L252 91 L251 92 L249 92 L248 93 L247 93 L246 94 L243 94 L242 95 L240 95 L239 96 L238 96 L237 97 L235 97 L234 98 L232 98 L231 99 L229 99 L228 100 L226 100 L225 101 L223 101 L222 102 L221 102 L220 103 L218 103 L217 104 L215 104 L214 105 L213 105 L212 106 L210 106 L209 107 L207 107 L206 108 L204 108 L203 109 L202 109 L201 110 L199 110 L198 111 L196 111 L195 112 L193 112 L192 113 L190 113 L189 114 L188 114 L187 115 L185 115 L184 116 L182 116 L181 117 L179 117 L178 118 L177 118 L176 119 L174 119 L173 120 L171 120 L170 121 L168 121 L167 122 L166 122 L165 123 L163 123 L162 124 L160 124 L159 125 L157 125 L156 126 L154 126 L153 127 L151 127 L150 128 L149 128 L148 129 L146 129 L145 130 L143 130 L142 131 L140 131 L139 132 L138 132 L137 133 L135 133 L134 134 L132 134 L131 135 L130 135 L129 136 L127 136 L126 137 L124 137 L123 138 L121 138 L120 139 L119 139 L118 140 L117 140 L116 141 L114 141 L113 142 L111 142 L110 143 L108 143 L107 144 L105 144 L104 145 L102 145 L101 146 L99 146 L98 147 L96 147 L95 148 L93 148 L92 149 L90 149 L89 150 L87 150 L86 151 L85 151 L84 152 L82 152 L81 153 L79 153 L78 154 L76 154 L75 155 L74 155 L73 156 L71 156 L70 157 L68 157 L67 158 L65 158 L64 159 L63 159 L62 160 L60 160 L59 161 L57 161 L56 162 L55 162 L54 163 L52 163 L51 164 L49 164 L48 165 L47 165 L45 167 L44 167 L43 168 L42 168 L41 169 L40 169 L39 170 L38 170 L37 171 L36 171 L34 173 L33 173 L32 174 L31 174 L30 175 L29 175 L20 184 L20 185 L19 186 L19 187 L18 188 L18 189 L16 191 L16 193 L15 194 L15 195 L14 196 L14 199 L13 200 L13 204 L12 205 L12 212 L11 213 L11 233 L12 234 L12 239 L13 240 L13 242 L14 243 L14 244 L15 245 L15 247 L16 248 L16 249 L17 250 L17 251 L18 252 L18 253 L20 255 L20 256 L22 258 L22 259 L28 265 L28 266 L45 283 L46 283 L50 287 L51 287 L56 292 L57 292 L62 297 L63 297 L67 301 L68 301 L72 305 L73 305 L76 308 L77 308 L80 311 L81 311 L84 314 L85 314 L87 316 L88 316 L91 319 L92 319 L95 322 L96 322 L100 326 L101 326 L105 330 L106 330 L109 333 L110 333 L114 337 L115 337 L118 340 L119 340 L122 343 L123 343 L125 345 L126 345 L129 348 L130 348 L133 351 L134 351 L136 353 L137 353 L139 355 L140 355 L142 357 L143 357 L144 358 L145 358 L146 359 L147 359 L149 361 L150 361 L151 362 L152 362 L153 363 L154 363 L155 364 L157 364 L158 365 L159 365 L160 366 L162 366 L163 367 L164 367 L165 368 L167 368 L168 369 L169 369 L170 370 L172 370 L173 371 L176 371 L177 372 L180 372 L181 373 L184 373 L185 374 L190 374 L191 375 L200 375 L201 376 L211 376 L212 375 L218 375 L219 374 L223 374 L224 373 L227 373 L228 372 L231 372 L232 371 L235 371 L236 370 L238 370 L239 369 L241 369 L242 368 L244 368 L245 367 L247 367 L248 366 L250 366 L251 365 L253 365 L254 364 L256 364 L257 363 L258 363 L259 362 L261 362 L262 361 L264 361 L265 360 L266 360 L267 359 L268 359 L269 358 L271 358 L272 357 L273 357 L274 356 L276 356 L277 355 L278 355 L279 354 L281 354 L282 353 L283 353 L284 352 L286 352 L287 351 L288 351 L289 350 L291 350 L292 349 L293 349 L294 348 L295 348 L296 347 L298 347 L299 346 L300 346 L301 345 L303 345 L304 344 L305 344 L306 343 L307 343 L308 342 L310 342 L311 341 L312 341 L313 340 L315 340 L316 339 L317 339 L318 338 L320 338 L321 337 L323 337 L324 336 L325 336 L326 335 L328 335 L329 334 L330 334 L331 333 L333 333 L334 332 L335 332 L336 331 L338 331 L339 330 L340 330 L341 329 L343 329 L344 328 L346 328 L347 327 L348 327 L349 326 L350 326 L351 325 L353 325 L354 324 L355 324 L356 323 L357 323 L358 322 L359 322 L360 321 L362 321 L363 320 L364 320 L365 319 L367 319 L368 318 L369 318 L370 317 L371 317 L372 316 L374 316 L375 315 L376 315 L377 314 L378 314 L379 313 L380 313 L381 312 L383 312 L384 311 L385 311 L386 310 L387 310 L388 309 L390 309 L391 308 L392 308 L393 307 L394 307 L395 306 L397 306 L398 305 L399 305 L400 304 L402 304 L403 303 L404 303 L405 302 L406 302 L407 301 L408 301 L409 300 L411 300 L412 299 L413 299 L414 298 L416 298 L417 297 L418 297 L419 296 L420 296 L421 295 L423 295 L424 294 L425 294 L426 293 L427 293 L428 292 L430 292 L431 291 L432 291 L433 290 L434 290 L435 289 L436 289 L437 288 L439 288 L440 287 L441 287 L442 286 L444 286 L445 285 L446 285 L447 284 L448 284 L449 283 L451 283 L452 282 L453 282 L454 281 L456 281 L457 280 L458 280 L459 279 L460 279 L461 278 L463 278 L464 277 L465 277 L466 276 L467 276 L468 275 L470 275 L471 274 L472 274 L473 273 L474 273 L475 272 L477 272 L478 271 L479 271 L480 270 L481 270 L482 269 L484 269 L485 268 L486 268 L487 267 L488 267 L489 266 L491 266 L492 265 L493 265 L494 264 L495 264 L496 263 L498 263 L499 262 L500 262 L501 261 L502 261 L503 260 L505 260 L506 259 L507 259 L508 258 L509 258 L510 257 L512 257 L513 256 L514 256 L515 255 L516 255 L517 254 L519 254 L520 253 L521 253 L522 252 L524 252 L525 251 L526 251 L527 250 L528 250 L529 249 L531 249 L532 248 L533 248 L534 247 L535 247 L536 246 L538 246 L539 245 L540 245 L541 244 L543 244 L544 243 L545 243 L546 242 L548 242 L549 241 L550 241 L551 240 L552 240 L553 239 L554 239 L555 238 L556 238 L557 237 L559 237 L560 236 L561 236 L562 235 L563 235 L564 234 L565 234 L566 233 L568 233 L569 232 L570 232 L571 231 L572 231 L573 230 L574 230 L575 229 L577 229 L578 228 L579 228 L580 227 L581 227 L582 226 L583 226 L584 225 L585 225 L586 224 L587 224 L588 223 L590 223 L591 222 L592 222 L593 221 L594 221 L595 220 L597 220 L598 219 L599 219 L600 218 L601 218 L602 217 L603 217 L604 216 L606 216 L607 215 L608 215 L609 214 L610 214 L611 213 L613 213 L614 212 L615 212 L616 211 L618 211 L619 210 L620 210 L621 209 L623 209 L624 208 L625 208 L626 207 L628 207 L629 206 L630 206 L631 205 L632 205 L633 204 L634 204 L635 203 L636 203 L637 202 L638 202 L639 201 L640 201 L641 200 L642 200 L643 199 L644 199 L645 198 L646 198 L647 197 L648 197 L649 196 L650 196 L651 195 L652 195 L653 194 L654 194 L655 193 L656 193 L657 192 L658 192 L659 191 L660 191 L661 190 L662 190 L663 189 L664 189 L665 188 L666 188 L667 187 L668 187 L669 186 L670 186 L672 184 L673 184 L674 183 L675 183 L676 182 L677 182 L679 180 L680 180 L683 177 L684 177 L696 165 L696 164 L698 162 L698 161 L699 160 L699 159 L700 158 L700 156 L701 155 L701 153 L702 152 L702 149 L703 148 L703 139 L704 138 L704 132 L703 131 L703 120 L702 119 L702 117 L701 116 L701 115 L700 114 L700 112 L699 111 L699 109 L698 108 L698 107 L697 106 L697 105 L695 103 L695 102 L694 101 L694 100 L684 90 L683 90 L680 87 L679 87 L677 85 L676 85 L674 83 L673 83 L672 82 L671 82 L669 80 L668 80 L666 78 L665 78 L664 77 L663 77 L661 75 L660 75 L659 74 L658 74 L657 73 L656 73 L654 71 L653 71 L652 70 L651 70 L649 68 L648 68 L647 67 L646 67 L644 65 L643 65 L642 64 L641 64 L639 62 L638 62 L637 61 L636 61 L634 59 L633 59 L632 58 L631 58 L630 57 L629 57 L627 55 L625 55 L624 54 L623 54 L621 52 L620 52 L619 51 L618 51 L617 50 L616 50 L615 49 L614 49 L613 48 L612 48 L611 47 L610 47 L609 46 L608 46 L607 45 L606 45 L605 44 L604 44 L603 43 L602 43 L601 42 L600 42 L599 41 L598 41 L597 40 L596 40 L595 39 L594 39 L592 37 L591 37 L590 36 L589 36 L588 35 L587 35 L586 34 L585 34 L584 33 L583 33 L582 32 L581 32 L580 31 L579 31 L578 30 L577 30 L576 29 L575 29 L574 28 L573 28 L572 27 L571 27 L570 26 L569 26 L568 25 L566 25 L565 24 L564 24 L563 23 L562 23 L561 22 L559 22 L558 21 L557 21 L556 20 L555 20 L554 19 L552 19 L551 18 L549 18 L548 17 L547 17 L546 16 L544 16 L543 15 L541 15 L540 14 L538 14 L537 13 L533 13 L532 12 L528 12 L527 11 L518 11 L517 10 Z " fill="black"/></svg>