<svg width="478" height="927" xmlns="http://www.w3.org/2000/svg"><path d="M164 11 L163 12 L161 12 L160 13 L159 13 L158 14 L157 14 L155 16 L154 16 L151 19 L150 19 L148 21 L147 21 L143 25 L142 25 L136 31 L136 32 L133 35 L132 35 L128 39 L127 39 L125 41 L124 41 L116 49 L116 50 L115 51 L115 52 L114 53 L114 54 L113 55 L113 56 L112 57 L112 58 L111 59 L111 62 L110 63 L110 65 L109 66 L109 77 L110 78 L110 83 L111 84 L111 90 L110 91 L110 94 L109 95 L109 97 L108 98 L108 100 L107 101 L107 102 L106 103 L106 104 L105 105 L105 106 L104 107 L104 108 L94 118 L93 118 L91 120 L90 120 L89 121 L88 121 L87 122 L86 122 L85 123 L84 123 L83 124 L81 124 L80 125 L79 125 L78 126 L77 126 L75 128 L74 128 L71 131 L70 131 L66 135 L66 136 L63 139 L63 140 L62 141 L62 143 L61 144 L61 157 L60 158 L60 163 L61 164 L61 175 L62 176 L62 183 L63 184 L63 195 L64 196 L64 211 L63 212 L63 215 L62 216 L62 218 L61 219 L61 220 L60 221 L60 222 L59 223 L59 224 L58 225 L58 226 L57 227 L57 228 L54 231 L54 232 L48 238 L47 238 L43 242 L42 242 L41 243 L40 243 L38 245 L37 245 L34 248 L33 248 L25 256 L25 257 L22 260 L22 261 L20 263 L20 264 L17 267 L17 268 L14 271 L14 272 L12 274 L12 275 L11 276 L11 287 L12 288 L12 293 L13 294 L13 299 L14 300 L14 303 L15 304 L15 306 L16 307 L16 308 L17 309 L17 310 L18 311 L18 312 L19 313 L19 314 L20 315 L20 316 L22 318 L22 319 L23 320 L23 321 L25 323 L25 324 L27 326 L27 327 L28 328 L28 329 L31 332 L31 333 L33 335 L33 336 L35 338 L35 339 L37 341 L37 342 L38 343 L38 345 L39 346 L39 348 L40 349 L40 352 L41 353 L41 365 L40 366 L40 371 L39 372 L39 374 L38 375 L38 377 L37 378 L37 381 L36 382 L36 383 L35 384 L35 385 L34 386 L34 389 L33 390 L33 392 L32 393 L32 395 L31 396 L31 397 L30 398 L30 401 L29 402 L29 404 L28 405 L28 407 L27 408 L27 410 L26 411 L26 413 L25 414 L25 416 L24 417 L24 421 L23 422 L23 433 L24 434 L24 440 L25 441 L25 445 L26 446 L26 449 L27 450 L27 452 L28 453 L28 454 L31 457 L31 458 L37 464 L38 464 L41 467 L42 467 L43 468 L44 468 L45 469 L46 469 L48 471 L49 471 L51 473 L52 473 L56 477 L57 477 L60 480 L60 481 L66 487 L66 488 L69 491 L69 492 L70 493 L70 494 L71 495 L71 496 L72 497 L72 499 L73 500 L73 526 L72 527 L72 539 L73 540 L73 548 L74 549 L74 556 L75 557 L75 561 L76 562 L76 565 L77 566 L77 569 L78 570 L78 572 L79 573 L79 575 L80 576 L80 577 L81 578 L81 579 L82 580 L82 581 L109 608 L109 609 L111 611 L111 612 L112 613 L112 614 L113 615 L113 616 L114 617 L114 618 L115 619 L115 621 L116 622 L116 624 L117 625 L117 628 L118 629 L118 633 L119 634 L119 638 L120 639 L120 645 L121 646 L121 684 L122 685 L122 691 L123 692 L123 697 L124 698 L124 702 L125 703 L125 708 L126 709 L126 713 L127 714 L127 715 L128 716 L128 717 L131 720 L131 721 L151 741 L151 742 L157 748 L157 749 L161 753 L161 754 L163 756 L163 757 L164 758 L164 759 L165 760 L165 761 L166 762 L166 763 L167 764 L167 765 L168 766 L168 767 L169 768 L169 769 L170 770 L170 771 L171 772 L171 773 L172 774 L172 775 L174 777 L174 778 L175 779 L175 780 L176 781 L176 782 L177 783 L177 784 L178 785 L178 786 L179 787 L179 788 L180 789 L180 790 L181 791 L181 792 L183 794 L183 795 L185 797 L185 798 L189 802 L189 803 L193 807 L193 808 L195 810 L195 811 L197 813 L197 814 L198 815 L198 816 L199 817 L199 818 L200 819 L200 820 L201 821 L201 822 L203 824 L203 825 L206 828 L206 829 L207 830 L207 831 L209 833 L209 834 L210 835 L210 836 L211 837 L211 838 L212 839 L212 840 L213 841 L213 842 L214 843 L214 844 L216 846 L216 847 L217 848 L217 850 L218 851 L218 852 L219 853 L219 856 L220 857 L220 864 L221 865 L221 873 L222 874 L222 878 L223 879 L223 881 L224 882 L224 883 L225 884 L225 885 L226 886 L226 887 L229 890 L229 891 L231 893 L231 895 L232 896 L232 899 L233 900 L233 902 L234 903 L234 904 L236 906 L236 907 L238 909 L238 910 L242 914 L243 914 L245 916 L247 916 L248 915 L249 915 L251 913 L251 912 L250 911 L250 910 L249 909 L249 908 L248 907 L248 906 L247 905 L247 902 L246 901 L246 895 L245 894 L245 889 L244 888 L244 884 L243 883 L243 868 L244 867 L244 865 L245 864 L245 862 L246 861 L246 860 L247 859 L247 857 L248 856 L248 854 L249 853 L249 852 L250 851 L250 849 L251 848 L251 847 L252 846 L252 845 L253 844 L253 843 L254 842 L254 841 L255 840 L255 839 L257 837 L257 836 L260 833 L260 832 L261 831 L261 830 L263 828 L263 827 L264 826 L264 825 L265 824 L265 823 L266 822 L266 821 L268 819 L268 818 L271 815 L271 814 L277 808 L277 807 L282 802 L282 801 L284 799 L284 798 L285 797 L285 796 L287 794 L287 792 L288 791 L288 790 L289 789 L289 787 L290 786 L290 783 L291 782 L291 780 L292 779 L292 778 L293 777 L293 775 L294 774 L294 772 L295 771 L295 769 L296 768 L296 766 L297 765 L297 764 L298 763 L298 762 L299 761 L299 760 L300 759 L300 758 L301 757 L301 756 L302 755 L302 754 L303 753 L303 752 L305 750 L305 749 L306 748 L306 747 L307 746 L307 745 L308 744 L308 743 L309 742 L309 741 L311 739 L311 738 L312 737 L312 735 L313 734 L313 733 L315 731 L315 730 L317 728 L317 727 L333 711 L333 710 L335 708 L335 707 L336 706 L336 705 L338 703 L338 702 L339 701 L339 700 L340 699 L340 698 L341 697 L341 696 L342 695 L342 693 L343 692 L343 691 L344 690 L344 689 L345 688 L345 686 L346 685 L346 682 L347 681 L347 674 L348 673 L348 649 L349 648 L349 634 L350 633 L350 625 L351 624 L351 616 L352 615 L352 610 L353 609 L353 604 L354 603 L354 600 L355 599 L355 598 L356 597 L356 596 L358 594 L358 593 L361 590 L361 589 L363 587 L363 586 L365 584 L365 583 L366 582 L366 581 L368 579 L368 578 L370 576 L370 575 L374 571 L375 571 L376 570 L377 570 L378 569 L379 569 L381 567 L382 567 L383 566 L384 566 L386 564 L387 564 L388 563 L389 563 L392 560 L393 560 L400 553 L400 552 L404 548 L404 547 L406 545 L406 543 L407 542 L407 540 L408 539 L408 537 L409 536 L409 534 L410 533 L410 530 L411 529 L411 519 L412 518 L411 517 L411 492 L410 491 L410 468 L411 467 L411 463 L412 462 L412 459 L413 458 L413 457 L414 456 L414 455 L415 454 L415 453 L417 451 L417 450 L420 447 L421 447 L424 444 L425 444 L428 441 L429 441 L431 439 L432 439 L435 436 L436 436 L439 433 L440 433 L442 431 L443 431 L448 426 L449 426 L455 420 L455 419 L458 416 L458 415 L459 414 L459 413 L460 412 L460 411 L461 410 L461 409 L462 408 L462 406 L463 405 L463 403 L464 402 L464 400 L465 399 L465 398 L466 397 L466 393 L467 392 L467 387 L466 386 L466 377 L465 376 L465 372 L464 371 L464 369 L463 368 L463 366 L462 365 L462 363 L461 362 L461 361 L460 360 L460 359 L459 358 L459 357 L457 355 L457 354 L456 353 L456 352 L455 351 L455 350 L454 349 L454 348 L453 347 L453 346 L452 345 L452 344 L451 343 L451 341 L450 340 L450 339 L449 338 L449 337 L448 336 L448 334 L447 333 L447 331 L446 330 L446 328 L445 327 L445 325 L444 324 L444 321 L443 320 L443 318 L442 317 L442 315 L441 314 L441 311 L440 310 L440 308 L439 307 L439 304 L438 303 L438 284 L439 283 L439 279 L440 278 L440 276 L441 275 L441 273 L442 272 L442 271 L443 270 L443 269 L444 268 L444 266 L445 265 L445 264 L446 263 L446 261 L447 260 L447 258 L448 257 L448 253 L449 252 L449 235 L448 234 L448 230 L447 229 L447 227 L446 226 L446 225 L445 224 L445 223 L443 221 L443 220 L441 218 L441 217 L437 213 L437 212 L431 206 L430 206 L427 203 L426 203 L424 201 L423 201 L421 199 L420 199 L411 190 L411 189 L409 187 L409 186 L408 185 L408 184 L407 183 L407 182 L406 181 L406 179 L405 178 L405 172 L406 171 L406 165 L407 164 L407 161 L408 160 L408 158 L409 157 L409 156 L410 155 L410 153 L411 152 L411 148 L412 147 L412 118 L411 117 L411 116 L410 115 L410 114 L404 108 L403 108 L401 106 L400 106 L399 105 L398 105 L395 102 L394 102 L383 91 L383 90 L380 87 L380 86 L379 85 L379 84 L378 83 L378 82 L377 81 L377 79 L376 78 L376 76 L375 75 L375 73 L374 72 L374 69 L373 68 L373 62 L372 61 L372 50 L371 49 L371 45 L370 44 L370 42 L369 41 L369 39 L368 38 L368 36 L367 35 L367 34 L366 33 L366 32 L365 31 L365 30 L363 28 L363 27 L356 20 L355 20 L354 19 L353 19 L351 17 L349 17 L348 16 L347 16 L346 15 L344 15 L343 14 L339 14 L338 13 L334 13 L333 14 L327 14 L326 15 L325 15 L324 16 L323 16 L322 17 L321 17 L319 19 L318 19 L316 21 L315 21 L314 22 L313 22 L311 24 L310 24 L307 27 L307 28 L303 32 L303 33 L300 36 L300 37 L298 39 L298 40 L295 43 L295 44 L293 46 L293 47 L292 48 L292 49 L291 50 L291 51 L290 52 L290 53 L288 55 L288 57 L287 58 L287 59 L286 60 L286 61 L285 62 L285 63 L284 64 L284 66 L283 67 L283 68 L282 69 L282 70 L281 71 L281 73 L280 74 L280 75 L279 76 L279 78 L278 79 L278 80 L277 81 L277 82 L276 83 L276 85 L275 86 L275 87 L274 88 L274 90 L273 91 L273 92 L272 93 L272 95 L271 96 L271 98 L270 99 L270 101 L269 102 L269 105 L268 106 L268 108 L267 109 L267 112 L266 113 L266 116 L265 117 L265 120 L264 121 L264 124 L263 125 L263 128 L262 129 L262 132 L261 133 L261 136 L260 137 L260 140 L259 141 L259 144 L258 145 L258 150 L257 151 L257 154 L256 155 L256 157 L255 158 L255 160 L254 161 L254 163 L253 164 L253 166 L252 167 L252 170 L251 171 L251 173 L250 174 L250 175 L249 176 L249 177 L248 178 L248 179 L247 180 L247 181 L244 184 L243 184 L242 185 L238 185 L234 181 L234 180 L233 179 L233 178 L232 177 L232 176 L231 175 L231 174 L230 173 L230 172 L229 171 L229 169 L228 168 L228 163 L227 162 L227 151 L226 150 L226 144 L225 143 L225 138 L224 137 L224 132 L223 131 L223 125 L222 124 L222 118 L221 117 L221 112 L220 111 L220 106 L219 105 L219 101 L218 100 L218 97 L217 96 L217 93 L216 92 L216 89 L215 88 L215 86 L214 85 L214 83 L213 82 L213 80 L212 79 L212 77 L211 76 L211 73 L210 72 L210 69 L209 68 L209 66 L208 65 L208 62 L207 61 L207 59 L206 58 L206 57 L205 56 L205 54 L204 53 L204 52 L203 51 L203 49 L202 48 L202 47 L201 46 L201 45 L200 44 L200 43 L199 42 L199 40 L198 39 L198 38 L197 37 L197 36 L196 35 L196 34 L195 33 L195 32 L194 31 L194 30 L193 29 L193 27 L191 25 L191 24 L182 15 L181 15 L180 14 L179 14 L178 13 L177 13 L176 12 L174 12 L173 11 Z " fill="black"/></svg>