<svg width="599" height="502" xmlns="http://www.w3.org/2000/svg"><path d="M447 391 L446 392 L445 392 L444 393 L443 393 L442 394 L441 394 L440 395 L439 395 L433 401 L432 401 L429 404 L428 404 L426 406 L425 406 L424 407 L423 407 L422 408 L421 408 L420 409 L419 409 L418 410 L417 410 L416 411 L415 411 L414 412 L413 412 L412 413 L410 413 L409 414 L407 414 L406 415 L403 415 L402 416 L399 416 L398 417 L393 417 L392 418 L380 418 L379 419 L378 419 L377 418 L376 419 L374 419 L373 418 L316 418 L315 419 L308 419 L307 420 L302 420 L301 421 L297 421 L296 422 L292 422 L291 423 L288 423 L287 424 L284 424 L283 425 L280 425 L279 426 L277 426 L276 427 L273 427 L272 428 L270 428 L269 429 L267 429 L266 430 L264 430 L263 431 L261 431 L260 432 L259 432 L258 433 L257 433 L256 434 L254 434 L253 435 L252 435 L251 436 L250 436 L249 437 L248 437 L247 438 L245 438 L244 439 L243 439 L241 441 L240 441 L239 442 L238 442 L237 443 L236 443 L234 445 L233 445 L230 448 L229 448 L226 451 L225 451 L224 452 L223 452 L222 453 L221 453 L220 452 L218 452 L217 451 L208 451 L207 452 L206 452 L205 453 L204 453 L202 455 L201 455 L197 459 L195 459 L194 458 L192 458 L191 457 L189 457 L188 456 L184 456 L183 455 L178 455 L177 456 L173 456 L172 457 L170 457 L169 458 L167 458 L166 459 L164 459 L163 460 L161 460 L160 461 L158 461 L157 462 L155 462 L154 463 L152 463 L151 464 L149 464 L148 465 L146 465 L145 466 L143 466 L142 467 L140 467 L139 468 L136 468 L135 469 L132 469 L131 470 L128 470 L127 471 L125 471 L124 472 L123 472 L121 474 L121 475 L120 476 L120 486 L121 487 L121 489 L122 490 L118 494 L117 494 L115 496 L114 496 L113 497 L112 497 L110 499 L109 499 L107 501 L106 501 L164 501 L164 500 L150 486 L151 485 L152 485 L156 489 L157 489 L162 494 L162 495 L166 499 L166 500 L167 501 L212 501 L212 500 L213 499 L213 496 L214 495 L214 489 L216 487 L217 487 L218 486 L219 486 L220 485 L221 485 L223 483 L223 482 L224 481 L224 480 L225 479 L226 479 L228 477 L229 477 L230 476 L230 475 L231 474 L231 468 L234 465 L235 465 L238 462 L239 462 L241 460 L242 460 L243 459 L244 459 L246 457 L247 457 L248 456 L249 456 L250 455 L251 455 L252 454 L253 454 L254 453 L255 453 L256 452 L257 452 L258 451 L259 451 L260 450 L261 450 L262 449 L263 449 L264 448 L265 448 L266 447 L268 447 L269 446 L270 446 L271 445 L272 445 L273 444 L275 444 L276 443 L277 443 L278 442 L280 442 L281 441 L283 441 L284 440 L287 440 L288 439 L291 439 L292 438 L296 438 L297 437 L301 437 L302 436 L306 436 L307 435 L312 435 L313 434 L321 434 L322 433 L362 433 L363 434 L388 434 L389 433 L397 433 L398 432 L404 432 L405 431 L408 431 L409 430 L412 430 L413 429 L415 429 L416 428 L418 428 L419 427 L420 427 L421 426 L422 426 L423 425 L425 425 L427 423 L428 423 L429 422 L430 422 L431 421 L432 421 L434 419 L435 419 L437 417 L438 417 L440 415 L441 415 L444 412 L445 412 L447 410 L448 410 L454 404 L452 404 L451 405 L450 405 L449 406 L448 406 L447 407 L446 407 L445 408 L444 407 L444 406 L441 406 L440 405 L441 404 L441 403 L442 402 L442 401 L443 400 L443 399 L447 395 L447 394 L448 393 L448 391 Z M252 10 L251 11 L250 11 L250 50 L249 51 L248 51 L245 54 L245 56 L244 57 L244 64 L241 67 L240 67 L239 68 L238 68 L237 69 L236 69 L235 70 L234 70 L233 71 L232 71 L231 72 L230 72 L229 73 L228 73 L227 74 L226 74 L225 75 L224 75 L223 76 L222 76 L221 77 L220 77 L219 78 L218 78 L217 79 L216 79 L215 80 L214 80 L213 81 L212 81 L210 83 L209 83 L208 84 L207 84 L206 85 L205 85 L204 86 L203 86 L202 87 L201 87 L200 88 L199 88 L198 89 L197 89 L196 90 L195 90 L194 91 L193 91 L192 92 L191 92 L190 93 L189 93 L187 95 L186 95 L185 96 L184 96 L183 97 L182 97 L181 98 L180 98 L178 100 L177 100 L176 101 L175 101 L174 102 L173 102 L172 103 L171 103 L170 104 L169 104 L168 105 L167 105 L166 106 L165 106 L164 107 L163 107 L162 108 L161 108 L159 110 L157 110 L155 112 L154 112 L153 113 L152 113 L151 114 L150 114 L149 115 L148 115 L147 116 L146 116 L145 117 L144 117 L142 119 L141 119 L140 120 L139 120 L138 121 L137 121 L136 122 L135 122 L133 124 L132 124 L131 125 L130 125 L129 126 L128 126 L127 127 L126 127 L124 129 L123 129 L122 130 L121 130 L120 131 L119 131 L118 132 L117 132 L115 134 L114 134 L113 135 L112 135 L111 136 L110 136 L109 137 L108 137 L106 139 L105 139 L104 140 L103 140 L102 141 L101 141 L100 142 L99 142 L98 143 L97 143 L95 145 L94 145 L93 146 L92 146 L90 148 L89 148 L88 149 L87 149 L86 150 L85 150 L83 152 L82 152 L81 153 L80 153 L78 155 L77 155 L76 154 L76 150 L75 149 L75 148 L73 146 L72 146 L71 145 L71 80 L70 79 L70 19 L69 18 L68 18 L67 19 L67 28 L66 29 L66 144 L64 146 L63 146 L61 148 L61 161 L58 164 L57 164 L56 165 L55 165 L54 166 L53 166 L51 168 L50 168 L49 169 L48 169 L47 170 L46 170 L44 172 L43 172 L42 173 L41 173 L39 175 L38 175 L37 176 L36 176 L35 177 L34 177 L33 178 L32 178 L31 179 L30 179 L29 180 L28 180 L27 181 L26 181 L24 183 L23 183 L22 184 L21 184 L15 190 L15 191 L14 192 L14 195 L13 196 L13 203 L12 204 L12 215 L11 216 L11 228 L12 229 L12 230 L13 231 L13 232 L16 235 L16 236 L20 240 L21 240 L22 241 L24 241 L25 242 L26 242 L27 243 L28 243 L29 244 L31 244 L32 245 L33 245 L34 246 L36 246 L37 247 L39 247 L40 248 L43 248 L44 249 L46 249 L47 250 L49 250 L50 251 L52 251 L53 252 L56 252 L57 253 L58 253 L59 254 L62 254 L63 255 L65 255 L66 256 L69 256 L70 257 L72 257 L73 258 L76 258 L77 259 L80 259 L81 260 L84 260 L85 261 L88 261 L89 262 L92 262 L93 263 L95 263 L96 264 L99 264 L100 265 L103 265 L104 266 L106 266 L107 267 L109 267 L110 268 L113 268 L114 269 L117 269 L118 270 L120 270 L121 271 L124 271 L125 272 L127 272 L128 273 L131 273 L132 274 L134 274 L135 275 L138 275 L139 276 L141 276 L142 277 L144 277 L145 278 L148 278 L149 279 L151 279 L152 280 L154 280 L155 281 L158 281 L159 282 L162 282 L163 283 L165 283 L166 284 L168 284 L169 285 L172 285 L173 286 L175 286 L176 287 L179 287 L180 288 L182 288 L183 289 L186 289 L187 290 L188 290 L189 291 L190 291 L192 293 L192 294 L191 295 L191 301 L190 302 L190 305 L189 306 L189 310 L188 311 L188 314 L187 315 L187 317 L186 318 L186 320 L185 321 L185 323 L184 324 L184 325 L183 326 L183 327 L182 328 L182 329 L181 330 L181 331 L180 332 L180 333 L178 335 L178 336 L175 339 L175 340 L159 356 L158 356 L155 359 L154 359 L153 360 L152 360 L150 362 L149 362 L148 363 L147 363 L146 364 L145 364 L144 365 L143 365 L142 366 L140 366 L139 367 L138 367 L137 368 L136 368 L135 369 L134 369 L133 370 L131 370 L130 371 L129 371 L128 372 L127 372 L126 373 L124 373 L123 374 L122 374 L121 375 L119 375 L118 376 L117 376 L116 377 L114 377 L113 378 L112 378 L111 379 L109 379 L108 380 L107 380 L106 381 L105 381 L104 382 L103 382 L102 383 L101 383 L100 384 L99 384 L98 385 L97 385 L96 386 L95 386 L94 387 L93 387 L92 388 L91 388 L90 389 L89 389 L88 390 L87 390 L85 392 L84 392 L83 393 L82 393 L80 395 L79 395 L70 404 L69 404 L61 412 L61 413 L57 417 L57 418 L55 420 L55 421 L54 422 L54 423 L53 424 L53 425 L52 426 L52 427 L51 428 L51 429 L50 430 L50 431 L49 432 L49 434 L48 435 L48 437 L47 438 L47 440 L46 441 L46 444 L45 445 L45 450 L44 451 L44 464 L45 465 L45 469 L46 470 L46 475 L47 476 L47 481 L48 482 L48 483 L49 484 L49 486 L50 487 L50 488 L51 488 L51 482 L52 481 L60 481 L60 477 L59 476 L59 468 L58 467 L58 456 L59 455 L59 448 L60 447 L60 444 L61 443 L61 441 L62 440 L62 438 L63 437 L63 436 L64 435 L64 434 L65 433 L65 432 L67 430 L67 429 L68 428 L68 427 L70 425 L70 424 L72 422 L72 421 L76 417 L76 416 L79 413 L80 413 L84 409 L85 409 L87 407 L88 407 L90 405 L91 405 L93 403 L94 403 L95 402 L96 402 L97 401 L98 401 L99 400 L100 400 L101 399 L102 399 L103 398 L104 398 L105 397 L106 397 L107 396 L109 396 L110 395 L112 395 L113 394 L114 394 L115 393 L117 393 L118 392 L120 392 L121 391 L123 391 L124 390 L125 390 L126 389 L127 389 L128 388 L129 388 L130 387 L132 387 L133 386 L134 386 L135 385 L136 385 L137 384 L138 384 L139 383 L140 383 L141 382 L143 382 L144 381 L145 381 L146 380 L147 380 L148 379 L149 379 L150 378 L151 378 L152 377 L153 377 L154 376 L155 376 L156 375 L157 375 L158 374 L159 374 L161 372 L162 372 L163 371 L164 371 L166 369 L167 369 L169 367 L170 367 L173 364 L174 364 L185 353 L185 352 L188 349 L188 348 L190 346 L190 345 L192 343 L192 342 L193 341 L193 340 L194 339 L194 338 L195 337 L195 336 L196 335 L196 334 L197 333 L197 332 L198 331 L198 330 L199 329 L199 327 L200 326 L200 325 L201 324 L201 322 L202 321 L202 318 L203 317 L203 313 L204 312 L204 309 L205 308 L205 304 L206 303 L206 301 L207 300 L207 299 L209 297 L215 297 L216 298 L221 298 L222 299 L224 299 L225 300 L227 300 L228 301 L231 301 L232 302 L234 302 L235 303 L237 303 L238 304 L241 304 L242 305 L245 305 L246 306 L248 306 L249 307 L252 307 L253 308 L256 308 L257 309 L260 309 L261 310 L263 310 L264 311 L267 311 L268 312 L271 312 L272 313 L274 313 L275 314 L277 314 L278 315 L280 315 L281 316 L283 316 L284 317 L289 317 L290 318 L299 318 L300 317 L306 317 L307 316 L309 316 L310 315 L312 315 L313 314 L315 314 L316 313 L317 313 L318 312 L320 312 L321 311 L322 311 L323 310 L325 310 L326 309 L327 309 L328 308 L330 308 L331 307 L332 307 L333 306 L334 306 L335 305 L337 305 L338 304 L339 304 L340 303 L341 303 L342 302 L343 302 L344 301 L346 301 L347 300 L348 300 L349 299 L351 299 L352 298 L353 298 L354 297 L356 297 L357 296 L358 296 L359 295 L360 295 L361 294 L363 294 L364 293 L365 293 L366 292 L367 292 L368 291 L370 291 L371 290 L372 290 L373 289 L374 289 L375 288 L376 288 L377 287 L378 287 L379 286 L380 286 L381 285 L383 285 L384 284 L385 284 L386 283 L387 283 L388 282 L390 282 L391 281 L392 281 L393 280 L394 280 L395 279 L397 279 L398 278 L399 278 L400 277 L401 277 L402 276 L403 276 L404 275 L406 275 L407 274 L408 274 L409 273 L410 273 L411 272 L413 272 L414 271 L415 271 L416 270 L417 270 L418 269 L420 269 L421 268 L422 268 L423 267 L424 267 L425 266 L427 266 L428 265 L429 265 L430 264 L432 264 L433 263 L434 263 L435 262 L436 262 L437 261 L439 261 L440 260 L441 260 L442 259 L443 259 L444 258 L446 258 L447 257 L448 257 L449 256 L450 256 L451 255 L453 255 L454 254 L455 254 L456 253 L457 253 L458 252 L460 252 L461 251 L462 251 L463 250 L464 250 L465 249 L466 249 L467 248 L469 248 L470 247 L471 247 L472 246 L473 246 L474 245 L475 245 L476 244 L478 244 L479 243 L480 243 L481 242 L482 242 L483 241 L485 241 L486 240 L487 240 L488 239 L490 239 L491 238 L492 238 L493 237 L494 237 L495 236 L497 236 L498 235 L499 235 L500 234 L501 234 L502 233 L503 233 L504 232 L506 232 L507 231 L508 231 L509 230 L510 230 L511 229 L513 229 L514 228 L515 228 L516 227 L517 227 L518 226 L519 226 L520 225 L522 225 L523 224 L524 224 L525 223 L527 223 L528 222 L529 222 L530 221 L532 221 L533 220 L534 220 L535 219 L536 219 L537 218 L539 218 L540 217 L541 217 L542 216 L543 216 L544 215 L546 215 L547 214 L548 214 L549 213 L550 213 L551 212 L553 212 L554 211 L555 211 L556 210 L557 210 L558 209 L560 209 L561 208 L562 208 L563 207 L565 207 L566 206 L567 206 L568 205 L569 205 L570 204 L571 204 L572 203 L574 203 L575 202 L576 202 L578 200 L579 200 L580 199 L581 199 L586 194 L586 193 L587 192 L587 172 L586 171 L586 168 L585 167 L585 165 L584 164 L584 162 L583 161 L583 160 L584 159 L584 158 L583 157 L583 154 L582 153 L582 152 L581 151 L581 150 L576 145 L575 145 L573 143 L572 143 L571 142 L569 142 L568 141 L567 141 L566 140 L565 140 L564 139 L562 139 L561 138 L560 138 L559 137 L557 137 L556 136 L555 136 L554 135 L553 135 L552 134 L550 134 L549 133 L548 133 L547 132 L545 132 L544 131 L543 131 L542 130 L541 130 L539 128 L539 127 L538 126 L538 124 L537 123 L537 121 L533 117 L533 114 L532 113 L532 94 L531 93 L531 61 L530 60 L530 19 L529 18 L529 15 L526 15 L526 19 L525 20 L525 36 L526 37 L525 38 L525 39 L526 40 L526 92 L527 93 L527 115 L526 116 L523 116 L523 117 L522 118 L522 119 L520 121 L519 120 L517 120 L516 119 L515 119 L514 118 L513 118 L512 117 L511 117 L510 116 L508 116 L507 115 L506 115 L505 114 L504 114 L503 113 L501 113 L500 112 L499 112 L498 111 L496 111 L495 110 L493 110 L492 109 L491 109 L490 108 L489 108 L488 107 L486 107 L485 106 L484 106 L483 105 L481 105 L480 104 L479 104 L478 103 L476 103 L475 102 L474 102 L473 101 L472 101 L471 100 L469 100 L468 99 L467 99 L466 98 L465 98 L464 97 L462 97 L461 96 L460 96 L459 95 L458 95 L457 94 L455 94 L454 93 L452 93 L451 92 L450 92 L449 91 L448 91 L447 90 L445 90 L444 89 L443 89 L442 88 L440 88 L439 87 L438 87 L437 86 L435 86 L434 85 L433 85 L432 84 L431 84 L430 83 L428 83 L427 82 L426 82 L425 81 L423 81 L422 80 L421 80 L420 79 L419 79 L418 78 L416 78 L415 77 L414 77 L413 76 L411 76 L410 75 L409 75 L408 74 L407 74 L406 73 L404 73 L403 72 L402 72 L401 71 L399 71 L398 70 L397 70 L396 69 L395 69 L394 68 L392 68 L391 67 L390 67 L389 66 L387 66 L386 65 L385 65 L384 64 L382 64 L381 63 L380 63 L379 62 L377 62 L376 61 L375 61 L374 60 L372 60 L371 59 L369 59 L368 58 L367 58 L365 56 L365 51 L364 50 L364 46 L361 43 L359 43 L358 42 L358 13 L357 12 L356 12 L355 13 L355 22 L354 23 L354 41 L353 42 L352 41 L350 41 L348 43 L348 47 L346 49 L345 49 L344 48 L342 48 L341 47 L339 47 L338 46 L337 46 L336 45 L334 45 L333 44 L332 44 L331 43 L330 43 L329 42 L327 42 L326 41 L325 41 L324 40 L322 40 L321 39 L319 39 L318 38 L314 38 L313 37 L304 37 L303 38 L299 38 L298 39 L296 39 L295 40 L293 40 L292 41 L291 41 L290 42 L289 42 L288 43 L286 43 L285 44 L284 44 L283 45 L282 45 L280 47 L279 47 L278 48 L277 48 L276 49 L275 49 L274 50 L273 50 L272 51 L271 51 L270 52 L269 52 L268 53 L267 53 L266 54 L265 54 L264 55 L262 55 L261 54 L261 52 L258 49 L255 49 L254 48 L254 30 L253 29 L253 23 L254 22 L253 21 L253 11 Z " fill="black"/></svg>