<svg width="640" height="611" xmlns="http://www.w3.org/2000/svg"><path d="M570 11 L569 12 L565 12 L564 13 L561 13 L560 14 L559 14 L558 15 L557 15 L556 16 L555 16 L554 17 L553 17 L552 18 L551 18 L550 19 L549 19 L548 20 L547 20 L545 22 L544 22 L543 23 L542 23 L540 25 L539 25 L537 27 L536 27 L533 30 L532 30 L529 33 L528 33 L524 37 L523 37 L517 43 L516 43 L505 54 L504 54 L499 59 L499 60 L486 73 L486 74 L479 81 L479 82 L475 86 L475 87 L472 90 L472 91 L466 97 L466 98 L462 102 L462 103 L459 106 L459 107 L455 111 L455 112 L450 117 L450 118 L447 121 L447 122 L444 125 L444 126 L441 129 L441 130 L437 134 L437 135 L434 138 L434 139 L430 143 L430 144 L426 148 L426 149 L421 154 L421 155 L416 160 L416 161 L403 174 L402 174 L400 176 L399 176 L397 178 L396 178 L395 179 L394 179 L393 180 L392 180 L391 181 L390 181 L389 182 L388 182 L387 183 L385 183 L384 184 L382 184 L381 185 L380 185 L379 186 L378 186 L377 187 L376 187 L375 188 L374 188 L373 189 L372 189 L371 190 L370 190 L369 191 L368 191 L367 192 L366 192 L364 194 L363 194 L351 206 L351 207 L350 208 L350 209 L349 210 L349 212 L348 213 L348 215 L347 216 L347 219 L346 220 L346 232 L329 249 L329 250 L328 251 L328 252 L327 253 L327 259 L326 260 L326 270 L327 271 L327 273 L326 274 L326 275 L323 278 L323 279 L320 282 L320 283 L318 285 L318 286 L316 288 L316 289 L314 291 L314 292 L311 295 L311 296 L309 298 L309 299 L307 301 L307 302 L306 303 L306 304 L304 306 L304 307 L303 308 L303 309 L301 311 L301 312 L299 314 L299 315 L298 316 L298 317 L294 321 L293 321 L292 322 L291 322 L290 323 L288 323 L287 324 L284 324 L283 325 L280 325 L279 324 L277 324 L276 323 L275 323 L274 322 L273 322 L263 312 L263 311 L261 309 L261 308 L260 307 L260 306 L259 305 L259 304 L257 302 L257 301 L256 300 L256 298 L255 297 L255 296 L254 295 L254 294 L253 293 L253 291 L252 290 L252 289 L251 288 L251 286 L250 285 L250 284 L249 283 L249 282 L248 281 L248 280 L246 278 L246 277 L244 275 L244 274 L242 272 L241 272 L240 271 L239 271 L238 270 L237 270 L236 269 L235 269 L234 268 L225 268 L224 269 L222 269 L221 270 L220 270 L218 272 L217 272 L216 273 L215 273 L212 276 L211 276 L208 279 L207 279 L201 285 L200 285 L192 293 L191 293 L185 299 L184 299 L176 307 L175 307 L168 314 L167 314 L157 324 L156 324 L143 337 L142 337 L133 346 L132 346 L115 363 L114 363 L104 373 L103 373 L91 385 L90 385 L80 395 L80 396 L69 407 L69 408 L64 413 L64 414 L60 418 L60 419 L56 423 L56 424 L53 427 L53 428 L51 430 L51 431 L49 433 L49 434 L47 436 L47 437 L45 439 L45 440 L43 442 L43 443 L42 444 L42 445 L41 446 L41 447 L40 448 L40 449 L39 450 L39 451 L37 453 L37 454 L36 455 L36 456 L35 457 L35 458 L34 459 L34 461 L33 462 L33 463 L32 464 L32 465 L31 466 L31 467 L30 468 L30 469 L29 470 L29 472 L28 473 L28 474 L27 475 L27 477 L26 478 L26 479 L25 480 L25 482 L24 483 L24 485 L23 486 L23 488 L22 489 L22 491 L21 492 L21 493 L20 494 L20 497 L19 498 L19 500 L18 501 L18 503 L17 504 L17 506 L16 507 L16 511 L15 512 L15 515 L14 516 L14 519 L13 520 L13 525 L12 526 L12 533 L11 534 L11 543 L10 544 L10 559 L11 560 L11 574 L12 575 L12 580 L13 581 L13 584 L14 585 L14 587 L15 588 L15 589 L16 590 L16 591 L20 595 L21 595 L22 596 L23 596 L24 597 L26 597 L27 598 L32 598 L33 599 L65 599 L66 598 L74 598 L75 597 L82 597 L83 596 L87 596 L88 595 L92 595 L93 594 L97 594 L98 593 L101 593 L102 592 L105 592 L106 591 L110 591 L111 590 L113 590 L114 589 L117 589 L118 588 L121 588 L122 587 L124 587 L125 586 L128 586 L129 585 L132 585 L133 584 L135 584 L136 583 L139 583 L140 582 L142 582 L143 581 L145 581 L146 580 L147 580 L148 579 L150 579 L151 578 L153 578 L154 577 L155 577 L156 576 L158 576 L159 575 L160 575 L161 574 L163 574 L164 573 L165 573 L166 572 L167 572 L168 571 L170 571 L171 570 L172 570 L173 569 L174 569 L175 568 L176 568 L177 567 L179 567 L181 565 L183 565 L184 564 L185 564 L187 562 L188 562 L189 561 L190 561 L191 560 L192 560 L193 559 L194 559 L195 558 L196 558 L197 557 L198 557 L199 556 L200 556 L202 554 L203 554 L204 553 L205 553 L206 552 L207 552 L208 551 L209 551 L211 549 L212 549 L213 548 L214 548 L216 546 L217 546 L219 544 L220 544 L221 543 L222 543 L224 541 L225 541 L227 539 L228 539 L230 537 L231 537 L233 535 L234 535 L236 533 L237 533 L239 531 L240 531 L243 528 L244 528 L247 525 L248 525 L250 523 L251 523 L254 520 L255 520 L259 516 L260 516 L264 512 L265 512 L269 508 L270 508 L275 503 L276 503 L280 499 L281 499 L285 495 L286 495 L290 491 L291 491 L296 486 L297 486 L301 482 L302 482 L305 479 L306 479 L310 475 L311 475 L314 472 L315 472 L318 469 L319 469 L322 466 L323 466 L326 463 L327 463 L331 459 L332 459 L336 455 L337 455 L341 451 L342 451 L346 447 L347 447 L353 441 L354 441 L359 436 L360 436 L365 431 L366 431 L370 427 L371 427 L380 418 L381 418 L386 413 L387 413 L392 408 L393 408 L399 402 L399 401 L402 398 L402 397 L404 395 L404 394 L405 393 L405 390 L406 389 L406 387 L405 386 L405 383 L404 382 L404 380 L403 379 L403 378 L400 375 L399 375 L398 374 L395 374 L394 373 L387 373 L386 372 L366 372 L365 371 L357 371 L356 370 L352 370 L351 369 L350 369 L349 368 L348 368 L343 363 L343 362 L342 361 L342 360 L341 359 L341 357 L340 356 L340 353 L339 352 L339 337 L340 336 L340 331 L341 330 L341 327 L342 326 L342 324 L343 323 L343 321 L344 320 L344 319 L345 318 L345 316 L346 315 L346 314 L347 313 L347 312 L348 311 L348 310 L349 309 L349 308 L350 307 L350 306 L352 304 L352 303 L354 301 L357 301 L358 302 L362 302 L363 303 L375 303 L376 302 L378 302 L379 301 L380 301 L381 300 L382 300 L385 297 L386 297 L394 289 L395 289 L397 287 L398 287 L399 286 L402 286 L403 285 L406 285 L407 284 L409 284 L410 283 L413 283 L414 282 L415 282 L416 281 L417 281 L418 280 L419 280 L420 279 L422 279 L424 277 L425 277 L426 276 L427 276 L428 275 L429 275 L432 272 L433 272 L441 264 L441 263 L443 261 L443 260 L444 259 L444 258 L446 256 L446 255 L447 254 L447 253 L448 252 L448 251 L449 250 L449 249 L450 248 L450 246 L451 245 L451 244 L452 243 L452 242 L454 240 L454 239 L457 236 L457 235 L460 232 L460 231 L482 209 L483 209 L488 204 L489 204 L492 201 L493 201 L496 198 L497 198 L500 195 L501 195 L503 193 L504 193 L507 190 L508 190 L511 187 L512 187 L514 185 L515 185 L517 183 L518 183 L520 181 L521 181 L523 179 L524 179 L526 177 L527 177 L529 175 L530 175 L532 173 L533 173 L536 170 L537 170 L539 168 L540 168 L542 166 L543 166 L545 164 L546 164 L548 162 L549 162 L551 160 L552 160 L554 158 L555 158 L558 155 L559 155 L562 152 L563 152 L567 148 L568 148 L572 144 L573 144 L579 138 L580 138 L602 116 L602 115 L606 111 L606 110 L609 107 L609 106 L612 103 L612 102 L614 100 L614 99 L616 97 L616 96 L618 94 L618 93 L619 92 L619 91 L621 89 L621 88 L622 87 L622 86 L623 85 L623 84 L624 83 L624 82 L625 81 L625 80 L626 79 L626 77 L627 76 L627 73 L628 72 L628 52 L627 51 L627 48 L626 47 L626 45 L625 44 L625 42 L624 41 L624 40 L623 39 L623 38 L622 37 L622 36 L620 34 L620 33 L618 31 L618 30 L615 27 L615 26 L611 22 L610 22 L606 18 L605 18 L604 17 L603 17 L602 16 L601 16 L600 15 L599 15 L598 14 L597 14 L596 13 L593 13 L592 12 L589 12 L588 11 Z " fill="black"/></svg>