<svg width="568" height="464" xmlns="http://www.w3.org/2000/svg"><path d="M284 11 L283 12 L265 12 L264 13 L254 13 L253 14 L244 14 L243 15 L234 15 L233 16 L227 16 L226 17 L219 17 L218 18 L211 18 L210 19 L204 19 L203 20 L199 20 L198 21 L194 21 L193 22 L189 22 L188 23 L185 23 L184 24 L181 24 L180 25 L177 25 L176 26 L174 26 L173 27 L170 27 L169 28 L167 28 L166 29 L163 29 L162 30 L160 30 L159 31 L156 31 L155 32 L153 32 L152 33 L150 33 L149 34 L148 34 L147 35 L144 35 L143 36 L142 36 L141 37 L139 37 L138 38 L137 38 L136 39 L134 39 L133 40 L132 40 L131 41 L129 41 L128 42 L127 42 L126 43 L125 43 L124 44 L122 44 L121 45 L120 45 L119 46 L118 46 L117 47 L116 47 L115 48 L114 48 L113 49 L112 49 L110 51 L109 51 L108 52 L107 52 L106 53 L105 53 L104 54 L103 54 L102 55 L101 55 L99 57 L98 57 L97 58 L96 58 L94 60 L93 60 L91 62 L90 62 L88 64 L87 64 L84 67 L83 67 L78 72 L77 72 L69 80 L69 81 L65 85 L65 86 L63 88 L63 89 L61 91 L61 92 L60 93 L60 94 L58 96 L58 97 L57 98 L57 99 L56 100 L56 102 L55 103 L55 104 L54 105 L54 107 L53 108 L53 110 L52 111 L52 129 L51 130 L51 131 L50 132 L50 134 L49 135 L49 139 L48 140 L48 144 L47 145 L47 148 L46 149 L46 151 L45 152 L45 157 L44 158 L44 168 L45 169 L45 176 L44 177 L44 178 L43 179 L43 180 L42 181 L42 182 L39 185 L39 186 L37 188 L37 189 L35 191 L35 192 L34 193 L34 194 L32 196 L32 197 L31 198 L31 199 L29 201 L29 202 L28 203 L28 204 L27 205 L27 206 L26 207 L26 208 L24 210 L24 211 L23 212 L23 214 L22 215 L22 216 L21 217 L21 218 L20 219 L20 220 L19 221 L19 223 L18 224 L18 225 L17 226 L17 228 L16 229 L16 231 L15 232 L15 235 L14 236 L14 239 L13 240 L13 244 L12 245 L12 252 L11 253 L11 271 L12 272 L12 279 L13 280 L13 283 L14 284 L14 287 L15 288 L15 290 L16 291 L16 293 L17 294 L17 295 L18 296 L18 298 L19 299 L19 300 L20 301 L20 302 L21 303 L21 304 L22 305 L22 306 L23 307 L23 308 L24 309 L24 310 L25 311 L25 312 L26 313 L26 314 L27 315 L27 316 L29 318 L29 319 L31 321 L31 322 L32 323 L32 324 L35 327 L35 328 L39 332 L39 333 L43 337 L43 338 L56 351 L57 351 L61 355 L62 355 L65 358 L66 358 L69 361 L70 361 L75 366 L76 366 L79 369 L80 369 L82 371 L83 371 L85 373 L86 373 L88 375 L89 375 L91 377 L92 377 L94 379 L95 379 L96 380 L97 380 L99 382 L100 382 L101 383 L102 383 L103 384 L104 384 L106 386 L107 386 L108 387 L109 387 L110 388 L111 388 L113 390 L114 390 L115 391 L116 391 L117 392 L118 392 L119 393 L120 393 L121 394 L122 394 L123 395 L124 395 L125 396 L126 396 L127 397 L128 397 L129 398 L130 398 L131 399 L132 399 L133 400 L134 400 L135 401 L136 401 L137 402 L138 402 L139 403 L140 403 L141 404 L142 404 L144 406 L145 406 L147 408 L147 409 L149 411 L149 412 L153 416 L154 416 L155 417 L156 417 L157 418 L158 418 L159 419 L160 419 L161 420 L162 420 L164 422 L165 422 L167 424 L168 424 L169 425 L170 425 L172 427 L173 427 L174 428 L175 428 L176 429 L178 429 L179 430 L186 430 L187 429 L189 429 L190 430 L194 430 L195 431 L197 431 L198 432 L200 432 L201 433 L203 433 L204 434 L205 434 L206 435 L208 435 L209 436 L210 436 L211 437 L212 437 L213 438 L214 438 L215 439 L217 439 L218 440 L219 440 L220 441 L221 441 L222 442 L223 442 L224 443 L225 443 L226 444 L227 444 L228 445 L229 445 L230 446 L231 446 L232 447 L233 447 L234 448 L235 448 L236 449 L238 449 L239 450 L241 450 L242 451 L244 451 L245 452 L257 452 L258 451 L259 451 L260 450 L261 450 L262 449 L263 449 L264 448 L265 448 L271 442 L271 441 L272 440 L272 439 L273 438 L273 437 L274 436 L274 434 L275 433 L275 430 L276 429 L276 418 L275 417 L275 414 L274 413 L274 412 L272 410 L272 409 L266 403 L265 403 L262 400 L261 400 L259 398 L258 398 L257 397 L256 397 L254 395 L252 395 L251 394 L250 394 L249 393 L247 393 L246 392 L244 392 L243 391 L242 391 L241 390 L239 390 L238 389 L236 389 L235 388 L233 388 L232 387 L230 387 L229 386 L227 386 L226 385 L224 385 L223 384 L221 384 L220 383 L218 383 L217 382 L216 382 L214 380 L213 380 L209 376 L209 375 L205 371 L204 371 L202 369 L201 369 L200 368 L198 368 L197 367 L196 367 L195 366 L193 366 L192 365 L191 365 L190 364 L188 364 L187 363 L184 363 L183 362 L181 362 L180 361 L170 361 L169 362 L167 362 L166 363 L165 363 L164 364 L163 364 L162 365 L161 365 L160 366 L159 365 L158 365 L157 364 L156 364 L155 363 L154 363 L153 362 L152 362 L150 360 L148 360 L147 359 L146 359 L145 358 L144 358 L143 357 L142 357 L141 356 L139 356 L138 355 L137 355 L136 354 L135 354 L134 353 L133 353 L132 352 L131 352 L130 351 L129 351 L128 350 L127 350 L126 349 L125 349 L124 348 L123 348 L122 347 L121 347 L119 345 L118 345 L117 344 L116 344 L114 342 L113 342 L111 340 L110 340 L108 338 L107 338 L105 336 L104 336 L101 333 L100 333 L97 330 L96 330 L91 325 L90 325 L67 302 L67 301 L62 296 L63 295 L64 295 L74 305 L75 305 L79 309 L80 309 L83 312 L84 312 L87 315 L88 315 L89 316 L90 316 L92 318 L93 318 L95 320 L96 320 L97 321 L98 321 L100 323 L101 323 L102 324 L103 324 L105 326 L106 326 L107 327 L108 327 L109 328 L110 328 L111 329 L112 329 L113 330 L114 330 L115 331 L116 331 L117 332 L118 332 L119 333 L121 333 L122 334 L123 334 L124 335 L126 335 L127 336 L128 336 L129 337 L130 337 L131 338 L133 338 L134 339 L135 339 L136 340 L137 340 L138 341 L140 341 L141 342 L142 342 L143 343 L145 343 L146 344 L147 344 L148 345 L150 345 L151 346 L153 346 L154 347 L156 347 L157 348 L159 348 L160 349 L162 349 L163 350 L166 350 L167 351 L170 351 L171 352 L173 352 L174 353 L177 353 L178 354 L181 354 L182 355 L186 355 L187 356 L190 356 L191 357 L195 357 L196 358 L201 358 L202 359 L206 359 L207 360 L212 360 L213 361 L219 361 L220 362 L225 362 L226 363 L233 363 L234 364 L241 364 L242 365 L248 365 L249 366 L259 366 L260 367 L279 367 L280 368 L295 368 L296 369 L330 369 L331 368 L345 368 L346 367 L356 367 L357 366 L364 366 L365 365 L371 365 L372 364 L380 364 L381 363 L387 363 L388 362 L392 362 L393 361 L397 361 L398 360 L402 360 L403 359 L406 359 L407 358 L412 358 L413 357 L416 357 L417 356 L421 356 L422 355 L425 355 L426 354 L429 354 L430 353 L433 353 L434 352 L436 352 L437 351 L440 351 L441 350 L443 350 L444 349 L446 349 L447 348 L449 348 L450 347 L452 347 L453 346 L455 346 L456 345 L458 345 L459 344 L461 344 L462 343 L463 343 L464 342 L466 342 L467 341 L468 341 L469 340 L470 340 L471 339 L472 339 L473 338 L475 338 L476 337 L477 337 L478 336 L479 336 L480 335 L481 335 L482 334 L483 334 L484 333 L485 333 L486 332 L487 332 L488 331 L490 331 L491 330 L492 330 L493 329 L494 329 L496 327 L498 327 L500 325 L501 325 L502 324 L503 324 L505 322 L506 322 L508 320 L509 320 L512 317 L513 317 L516 314 L517 314 L521 310 L522 310 L527 305 L528 305 L537 296 L537 295 L541 291 L541 290 L544 287 L544 286 L546 284 L546 283 L547 282 L547 281 L548 280 L548 279 L549 278 L549 277 L550 276 L550 275 L551 274 L551 273 L552 272 L552 271 L553 270 L553 268 L554 267 L554 264 L555 263 L555 258 L556 257 L556 248 L555 247 L555 242 L554 241 L554 238 L553 237 L553 230 L554 229 L554 211 L553 210 L553 203 L554 202 L554 193 L553 192 L553 183 L552 182 L552 179 L551 178 L551 176 L550 175 L550 168 L551 167 L551 162 L552 161 L552 147 L551 146 L551 140 L550 139 L550 136 L549 135 L549 133 L548 132 L548 130 L547 129 L547 128 L546 127 L546 126 L545 125 L545 123 L544 122 L544 118 L543 117 L543 113 L542 112 L542 108 L541 107 L541 105 L540 104 L540 103 L539 102 L539 101 L538 100 L538 99 L537 98 L537 97 L536 96 L536 95 L535 94 L535 93 L533 91 L533 90 L531 88 L531 87 L529 85 L529 84 L526 81 L526 80 L523 77 L523 76 L514 67 L513 67 L511 65 L510 65 L507 62 L506 62 L504 60 L503 60 L501 58 L500 58 L499 57 L498 57 L496 55 L495 55 L494 54 L493 54 L492 53 L491 53 L489 51 L488 51 L487 50 L486 50 L485 49 L484 49 L483 48 L482 48 L481 47 L480 47 L479 46 L478 46 L477 45 L476 45 L475 44 L473 44 L472 43 L471 43 L470 42 L468 42 L467 41 L465 41 L464 40 L463 40 L462 39 L460 39 L459 38 L457 38 L456 37 L454 37 L453 36 L451 36 L450 35 L448 35 L447 34 L445 34 L444 33 L442 33 L441 32 L439 32 L438 31 L436 31 L435 30 L433 30 L432 29 L429 29 L428 28 L425 28 L424 27 L420 27 L419 26 L416 26 L415 25 L410 25 L409 24 L406 24 L405 23 L401 23 L400 22 L396 22 L395 21 L391 21 L390 20 L386 20 L385 19 L379 19 L378 18 L371 18 L370 17 L364 17 L363 16 L358 16 L357 15 L351 15 L350 14 L341 14 L340 13 L333 13 L332 12 L318 12 L317 11 Z " fill="black"/></svg>