<svg width="642" height="605" xmlns="http://www.w3.org/2000/svg"><path d="M534 11 L533 12 L532 12 L531 13 L530 13 L528 15 L525 15 L524 16 L523 16 L522 17 L521 17 L520 18 L519 18 L514 23 L514 24 L511 27 L511 28 L510 29 L510 30 L509 31 L509 33 L508 34 L508 37 L507 38 L507 44 L506 45 L506 51 L507 52 L507 57 L508 58 L508 60 L509 61 L509 63 L510 64 L510 65 L511 66 L511 67 L512 68 L512 69 L513 70 L513 71 L514 72 L514 73 L515 74 L515 75 L516 76 L516 77 L517 78 L517 79 L518 80 L518 81 L519 82 L519 83 L520 84 L520 85 L521 86 L521 87 L522 88 L522 89 L523 90 L523 91 L524 92 L524 93 L525 94 L525 95 L526 96 L526 97 L527 98 L527 100 L528 101 L528 102 L529 103 L529 106 L530 107 L530 118 L529 119 L529 121 L528 122 L528 123 L527 124 L527 126 L526 127 L526 129 L525 130 L525 131 L524 132 L524 134 L523 135 L523 137 L522 138 L522 139 L521 140 L521 142 L520 143 L520 145 L519 146 L519 148 L518 149 L518 151 L517 152 L517 154 L516 155 L516 157 L515 158 L515 160 L514 161 L514 164 L513 165 L513 167 L512 168 L512 170 L511 171 L511 173 L510 174 L510 177 L507 180 L506 179 L502 179 L501 178 L496 178 L495 177 L491 177 L490 176 L485 176 L484 175 L479 175 L478 174 L473 174 L472 173 L467 173 L466 172 L460 172 L459 171 L454 171 L453 170 L449 170 L448 169 L443 169 L442 168 L437 168 L436 167 L432 167 L431 166 L426 166 L425 165 L420 165 L419 164 L415 164 L414 163 L409 163 L408 162 L403 162 L402 161 L396 161 L395 160 L389 160 L388 159 L366 159 L365 160 L360 160 L359 161 L355 161 L354 162 L350 162 L349 163 L345 163 L344 164 L338 164 L337 165 L331 165 L330 166 L324 166 L323 167 L318 167 L317 168 L312 168 L311 169 L306 169 L305 170 L302 170 L301 171 L296 171 L295 172 L290 172 L289 173 L284 173 L283 174 L278 174 L277 175 L272 175 L271 176 L266 176 L265 177 L260 177 L259 178 L254 178 L253 179 L249 179 L248 180 L244 180 L243 181 L237 181 L236 182 L231 182 L230 183 L226 183 L225 184 L221 184 L220 185 L215 185 L214 186 L210 186 L209 187 L204 187 L203 188 L198 188 L197 189 L192 189 L191 190 L187 190 L186 191 L181 191 L180 192 L175 192 L174 193 L171 193 L170 194 L166 194 L165 195 L160 195 L159 196 L155 196 L154 197 L149 197 L148 198 L143 198 L142 199 L138 199 L137 200 L132 200 L131 201 L126 201 L125 202 L121 202 L120 203 L115 203 L114 204 L110 204 L109 205 L104 205 L103 206 L99 206 L98 207 L93 207 L92 208 L88 208 L87 209 L82 209 L81 210 L77 210 L76 211 L71 211 L70 212 L66 212 L65 213 L61 213 L60 214 L56 214 L55 215 L50 215 L49 216 L44 216 L43 217 L39 217 L38 218 L35 218 L34 219 L31 219 L30 220 L28 220 L27 221 L25 221 L24 222 L23 222 L22 223 L21 223 L20 224 L19 224 L18 225 L17 225 L14 228 L14 229 L12 231 L12 233 L11 234 L11 239 L12 240 L12 242 L13 243 L13 244 L18 249 L19 249 L21 251 L23 251 L24 252 L25 252 L26 253 L27 253 L29 255 L29 258 L30 259 L30 261 L31 262 L31 264 L32 265 L32 268 L33 269 L33 271 L34 272 L34 274 L35 275 L35 277 L36 278 L36 279 L37 280 L37 281 L39 283 L39 284 L43 288 L44 288 L45 289 L45 290 L46 291 L46 293 L47 294 L47 295 L48 296 L48 299 L49 300 L49 301 L50 302 L50 304 L51 305 L51 306 L52 307 L52 309 L53 310 L53 311 L54 312 L54 313 L55 314 L55 316 L56 317 L56 318 L57 319 L57 321 L58 322 L58 323 L59 324 L59 325 L60 326 L60 327 L61 328 L61 329 L62 330 L62 331 L72 341 L73 341 L75 343 L76 343 L78 345 L78 346 L79 347 L79 348 L80 349 L80 351 L81 352 L81 353 L82 354 L82 355 L83 356 L83 357 L84 358 L84 359 L85 360 L85 361 L87 363 L87 364 L93 370 L92 371 L90 371 L89 370 L75 370 L74 371 L71 371 L70 372 L68 372 L67 373 L65 373 L64 374 L63 374 L62 375 L60 375 L59 376 L58 376 L57 377 L56 377 L55 378 L54 378 L53 379 L52 379 L51 380 L48 380 L45 383 L45 384 L43 386 L43 387 L40 390 L39 390 L34 395 L34 396 L32 398 L32 399 L30 401 L30 402 L29 403 L29 404 L28 405 L28 406 L26 408 L26 409 L25 410 L25 412 L24 413 L24 414 L23 415 L23 417 L22 418 L22 420 L21 421 L21 424 L20 425 L20 428 L19 429 L19 433 L18 434 L18 443 L19 444 L18 445 L18 459 L19 460 L19 466 L20 467 L20 473 L21 474 L21 477 L22 478 L22 480 L23 481 L23 482 L24 483 L24 484 L25 485 L25 487 L26 488 L26 489 L27 490 L27 491 L29 493 L29 494 L31 496 L31 497 L36 502 L36 503 L38 505 L39 505 L43 509 L44 509 L46 511 L47 511 L49 513 L50 513 L51 514 L52 514 L53 515 L54 515 L55 516 L57 516 L58 517 L60 517 L61 518 L63 518 L64 519 L66 519 L67 520 L70 520 L71 521 L73 521 L74 522 L78 522 L79 523 L89 523 L90 524 L91 524 L92 523 L94 523 L95 524 L96 524 L97 523 L103 523 L104 522 L107 522 L108 521 L111 521 L112 520 L114 520 L115 519 L116 519 L118 517 L119 517 L120 516 L121 516 L124 513 L125 513 L137 501 L137 500 L138 499 L138 498 L140 496 L140 495 L141 494 L141 493 L142 492 L142 491 L143 490 L143 489 L144 488 L144 487 L145 486 L145 485 L146 484 L146 482 L147 481 L147 478 L148 477 L148 475 L149 474 L150 475 L151 475 L152 476 L153 476 L154 477 L156 477 L157 478 L158 478 L159 479 L161 479 L162 480 L164 480 L165 481 L167 481 L168 482 L170 482 L171 483 L173 483 L174 484 L176 484 L177 485 L180 485 L181 486 L182 486 L183 487 L185 487 L186 488 L188 488 L189 489 L191 489 L192 490 L194 490 L195 491 L197 491 L198 492 L199 492 L200 493 L201 493 L202 494 L202 497 L201 498 L201 505 L200 506 L200 507 L201 508 L201 516 L200 517 L200 529 L201 530 L201 533 L202 534 L202 536 L203 537 L203 546 L204 547 L204 548 L205 549 L205 550 L206 551 L206 552 L207 553 L207 554 L209 556 L209 557 L211 559 L211 560 L213 562 L213 563 L216 566 L216 567 L221 572 L222 572 L225 575 L226 575 L229 578 L230 578 L232 580 L233 580 L235 582 L236 582 L237 583 L238 583 L239 584 L240 584 L241 585 L242 585 L243 586 L244 586 L245 587 L246 587 L247 588 L249 588 L250 589 L251 589 L252 590 L254 590 L255 591 L258 591 L259 592 L265 592 L266 593 L278 593 L279 592 L284 592 L285 591 L288 591 L289 590 L291 590 L292 589 L294 589 L295 588 L296 588 L297 587 L299 587 L300 586 L301 586 L302 585 L303 585 L304 584 L305 584 L306 583 L307 583 L309 581 L310 581 L312 579 L313 579 L323 569 L323 568 L326 565 L326 564 L328 562 L328 561 L329 560 L329 559 L331 557 L331 556 L332 555 L332 554 L333 553 L333 552 L334 551 L334 549 L335 548 L335 547 L336 546 L336 544 L337 543 L337 542 L338 541 L338 539 L339 538 L339 536 L340 535 L340 533 L341 532 L341 530 L342 529 L342 526 L343 525 L343 517 L344 516 L344 496 L343 495 L343 484 L342 483 L342 479 L341 478 L341 475 L340 474 L340 472 L339 471 L339 470 L338 469 L338 467 L337 466 L337 465 L336 464 L336 463 L334 461 L334 460 L333 459 L333 458 L331 456 L331 455 L316 440 L315 440 L313 438 L312 438 L310 436 L309 436 L308 435 L307 435 L306 434 L304 434 L303 433 L301 433 L300 432 L297 432 L296 431 L291 431 L290 430 L288 430 L287 429 L284 429 L283 428 L268 428 L267 429 L261 429 L260 430 L257 430 L256 431 L254 431 L253 432 L252 432 L251 431 L254 428 L255 428 L257 426 L258 426 L265 419 L265 418 L266 417 L270 417 L271 418 L273 418 L274 419 L288 419 L289 418 L292 418 L293 417 L296 417 L297 416 L298 416 L301 419 L301 420 L304 423 L304 424 L314 434 L315 434 L318 437 L319 437 L320 438 L321 438 L322 439 L323 439 L324 440 L325 440 L326 441 L328 441 L329 442 L333 442 L334 443 L336 443 L337 444 L340 444 L341 445 L346 445 L347 446 L361 446 L362 445 L367 445 L368 444 L370 444 L371 443 L373 443 L374 442 L376 442 L377 441 L378 441 L380 439 L381 439 L383 437 L384 437 L395 426 L395 425 L396 424 L396 423 L398 421 L398 419 L399 418 L399 417 L400 416 L400 414 L401 413 L401 410 L402 409 L402 407 L404 405 L405 406 L409 406 L410 407 L412 407 L413 408 L416 408 L417 409 L421 409 L422 410 L425 410 L426 411 L429 411 L430 412 L434 412 L435 413 L438 413 L439 414 L442 414 L443 415 L446 415 L447 416 L449 416 L450 417 L452 417 L453 418 L456 418 L457 419 L460 419 L461 420 L464 420 L466 422 L466 435 L465 436 L465 446 L466 447 L466 453 L467 454 L467 456 L468 457 L468 458 L469 459 L469 466 L470 467 L470 470 L471 471 L471 472 L472 473 L472 474 L473 475 L473 476 L475 478 L475 479 L476 480 L476 481 L478 483 L478 484 L480 486 L480 487 L487 494 L488 494 L491 497 L492 497 L493 498 L494 498 L496 500 L498 500 L499 501 L500 501 L501 502 L503 502 L504 503 L505 503 L506 504 L508 504 L509 505 L512 505 L513 506 L516 506 L517 507 L523 507 L524 508 L538 508 L539 507 L548 507 L549 506 L551 506 L552 505 L553 505 L554 504 L555 504 L556 503 L557 503 L558 502 L559 502 L560 501 L561 501 L563 499 L564 499 L567 496 L568 496 L576 488 L576 487 L579 484 L579 483 L582 480 L582 479 L583 478 L583 477 L585 475 L585 474 L586 473 L586 472 L587 471 L587 470 L588 469 L588 468 L589 467 L589 466 L590 465 L590 463 L591 462 L591 460 L592 459 L592 457 L593 456 L593 454 L594 453 L594 449 L595 448 L595 443 L596 442 L596 435 L597 434 L597 419 L596 418 L596 411 L595 410 L595 405 L594 404 L594 401 L593 400 L593 398 L592 397 L592 395 L591 394 L591 392 L590 391 L590 390 L589 389 L589 388 L588 387 L588 386 L586 384 L586 383 L584 381 L584 380 L580 376 L580 375 L574 369 L573 369 L570 366 L569 366 L568 365 L567 365 L566 364 L564 364 L563 363 L561 363 L560 362 L558 362 L557 361 L556 361 L555 360 L553 360 L552 359 L549 359 L548 358 L543 358 L542 357 L522 357 L521 358 L518 358 L517 359 L515 359 L514 360 L513 360 L512 359 L512 358 L514 356 L515 356 L516 355 L517 355 L518 354 L520 354 L521 353 L522 353 L523 352 L524 352 L525 351 L526 351 L527 350 L528 350 L529 349 L530 349 L531 348 L532 348 L533 347 L535 347 L536 346 L537 346 L540 343 L540 341 L541 340 L540 339 L540 335 L542 333 L544 333 L545 332 L545 331 L547 329 L547 327 L548 326 L548 325 L549 324 L549 322 L550 321 L550 314 L551 313 L551 312 L553 310 L554 310 L555 309 L556 309 L557 308 L558 308 L561 305 L561 304 L562 303 L562 302 L563 301 L563 298 L564 297 L564 295 L565 294 L565 291 L566 290 L566 287 L567 286 L567 283 L568 282 L568 279 L569 278 L569 275 L570 274 L570 269 L571 268 L571 263 L575 259 L576 259 L580 255 L580 254 L581 253 L581 251 L582 250 L582 246 L583 245 L583 241 L584 240 L584 234 L585 233 L585 228 L588 225 L589 225 L590 224 L591 224 L592 223 L593 223 L596 220 L596 219 L597 218 L597 217 L598 216 L598 207 L597 206 L597 204 L591 198 L590 198 L589 197 L587 197 L586 196 L582 196 L581 195 L580 195 L579 194 L577 194 L576 193 L574 193 L573 192 L568 192 L567 191 L563 191 L562 190 L559 190 L558 189 L555 189 L554 188 L550 188 L549 187 L545 187 L544 186 L541 186 L540 185 L535 185 L534 184 L531 184 L529 182 L530 181 L530 179 L531 178 L531 176 L532 175 L532 172 L533 171 L533 169 L534 168 L534 167 L535 166 L535 164 L536 163 L536 161 L537 160 L537 158 L538 157 L538 155 L539 154 L539 152 L540 151 L540 149 L541 148 L541 146 L542 145 L542 143 L543 142 L543 141 L544 140 L544 138 L545 137 L545 135 L546 134 L546 132 L547 131 L547 129 L548 128 L548 126 L549 125 L549 123 L550 122 L550 121 L551 120 L551 118 L552 117 L552 116 L558 110 L559 110 L560 109 L561 109 L563 107 L564 107 L565 106 L566 106 L567 105 L568 105 L570 103 L571 103 L572 102 L573 102 L574 101 L575 101 L576 100 L577 100 L578 99 L579 99 L581 97 L582 97 L583 96 L584 96 L585 95 L586 95 L587 94 L588 94 L589 93 L590 93 L591 92 L592 92 L593 91 L594 91 L595 90 L596 90 L597 89 L598 89 L599 88 L600 88 L601 87 L602 87 L604 85 L605 85 L606 84 L607 84 L609 82 L610 82 L611 81 L612 81 L614 79 L615 79 L621 73 L621 72 L624 69 L624 68 L625 67 L625 66 L626 65 L626 64 L627 63 L627 61 L628 60 L628 58 L629 57 L629 55 L630 54 L630 43 L629 42 L629 40 L628 39 L628 37 L627 36 L627 35 L622 30 L621 30 L620 29 L619 29 L618 28 L617 28 L612 23 L611 23 L610 22 L608 22 L607 21 L603 21 L602 20 L597 20 L596 19 L592 19 L591 18 L587 18 L586 17 L581 17 L580 16 L576 16 L575 15 L570 15 L569 14 L562 14 L561 13 L555 13 L554 12 L547 12 L546 11 Z " fill="black"/></svg>