<svg width="661" height="611" xmlns="http://www.w3.org/2000/svg"><path d="M596 11 L595 12 L591 12 L590 13 L588 13 L587 14 L585 14 L584 15 L583 15 L582 16 L581 16 L580 17 L579 17 L578 18 L577 18 L576 19 L575 19 L574 20 L573 20 L572 21 L571 21 L569 23 L568 23 L567 24 L566 24 L564 26 L563 26 L561 28 L560 28 L558 30 L557 30 L554 33 L553 33 L548 38 L547 38 L544 41 L543 41 L542 42 L541 42 L511 72 L511 73 L505 79 L505 80 L501 84 L501 85 L497 89 L497 90 L494 93 L494 94 L491 97 L491 98 L487 102 L487 103 L484 106 L484 107 L480 111 L480 112 L477 115 L477 116 L474 119 L474 120 L471 123 L471 124 L467 128 L467 129 L464 132 L464 133 L458 139 L458 140 L451 147 L451 148 L446 153 L446 154 L433 167 L432 167 L429 170 L428 170 L427 171 L426 171 L425 172 L424 172 L423 173 L422 173 L421 174 L420 174 L418 176 L417 176 L416 177 L415 177 L414 178 L413 178 L412 179 L411 179 L410 180 L409 180 L408 181 L407 181 L406 182 L404 182 L403 183 L402 183 L401 184 L400 184 L399 185 L398 185 L397 186 L396 186 L395 187 L394 187 L393 188 L392 188 L390 190 L389 190 L387 192 L386 192 L377 201 L377 202 L376 203 L376 204 L374 206 L374 207 L373 208 L373 210 L372 211 L372 213 L371 214 L371 218 L370 219 L370 223 L369 224 L369 226 L367 228 L367 229 L350 246 L350 247 L349 248 L349 256 L350 257 L350 259 L351 260 L351 262 L350 263 L350 264 L346 268 L346 269 L342 273 L342 274 L339 277 L339 278 L336 281 L336 282 L332 286 L332 287 L320 299 L319 299 L315 303 L314 303 L312 305 L311 305 L310 306 L309 306 L308 307 L307 307 L306 308 L298 308 L297 307 L295 307 L294 306 L293 306 L292 305 L291 305 L289 303 L288 303 L286 301 L286 300 L282 296 L282 295 L281 294 L281 293 L280 292 L280 291 L279 290 L279 288 L278 287 L278 286 L277 285 L277 283 L276 282 L276 281 L275 280 L275 278 L274 277 L274 275 L273 274 L273 273 L272 272 L272 270 L271 269 L271 268 L270 267 L270 266 L268 264 L268 263 L266 261 L266 260 L263 257 L262 257 L261 256 L260 256 L258 254 L257 254 L256 253 L255 253 L254 252 L246 252 L245 253 L243 253 L242 254 L240 254 L239 255 L238 255 L237 256 L236 256 L234 258 L233 258 L232 259 L231 259 L221 269 L220 269 L214 275 L213 275 L201 287 L200 287 L193 294 L192 294 L184 302 L183 302 L174 311 L173 311 L168 316 L167 316 L164 319 L163 319 L159 323 L158 323 L153 328 L152 328 L146 334 L145 334 L136 343 L135 343 L135 344 L134 345 L133 345 L118 360 L117 360 L82 395 L82 396 L70 408 L70 409 L65 414 L65 415 L61 419 L61 420 L59 422 L59 423 L56 426 L56 427 L54 429 L54 430 L51 433 L51 434 L50 435 L50 436 L48 438 L48 439 L46 441 L46 442 L45 443 L45 444 L43 446 L43 447 L42 448 L42 449 L40 451 L40 452 L39 453 L39 454 L38 455 L38 456 L37 457 L37 458 L36 459 L36 460 L35 461 L35 462 L34 463 L34 465 L33 466 L33 467 L32 468 L32 470 L31 471 L31 472 L30 473 L30 475 L29 476 L29 477 L28 478 L28 480 L27 481 L27 483 L26 484 L26 485 L25 486 L25 488 L24 489 L24 491 L23 492 L23 494 L22 495 L22 497 L21 498 L21 500 L20 501 L20 504 L19 505 L19 507 L18 508 L18 510 L17 511 L17 515 L16 516 L16 519 L15 520 L15 524 L14 525 L14 529 L13 530 L13 536 L12 537 L12 545 L11 546 L11 573 L12 574 L12 580 L13 581 L13 583 L14 584 L14 586 L16 588 L16 589 L20 593 L21 593 L23 595 L25 595 L26 596 L28 596 L29 597 L35 597 L36 598 L45 598 L46 599 L86 599 L87 598 L95 598 L96 597 L102 597 L103 596 L108 596 L109 595 L113 595 L114 594 L118 594 L119 593 L122 593 L123 592 L125 592 L126 591 L129 591 L130 590 L133 590 L134 589 L136 589 L137 588 L139 588 L140 587 L143 587 L144 586 L146 586 L147 585 L149 585 L150 584 L153 584 L154 583 L156 583 L157 582 L158 582 L159 581 L161 581 L162 580 L164 580 L165 579 L166 579 L167 578 L169 578 L170 577 L171 577 L172 576 L173 576 L174 575 L176 575 L177 574 L178 574 L179 573 L180 573 L181 572 L182 572 L183 571 L184 571 L185 570 L186 570 L187 569 L188 569 L189 568 L190 568 L191 567 L192 567 L193 566 L194 566 L195 565 L196 565 L197 564 L198 564 L200 562 L201 562 L202 561 L203 561 L204 560 L205 560 L207 558 L208 558 L209 557 L210 557 L212 555 L213 555 L215 553 L216 553 L218 551 L219 551 L221 549 L222 549 L223 548 L224 548 L226 546 L227 546 L229 544 L230 544 L232 542 L233 542 L236 539 L237 539 L239 537 L240 537 L242 535 L243 535 L245 533 L246 533 L248 531 L249 531 L253 527 L254 527 L257 524 L258 524 L261 521 L262 521 L265 518 L266 518 L269 515 L270 515 L272 513 L273 513 L276 510 L277 510 L280 507 L281 507 L283 505 L284 505 L286 503 L287 503 L290 500 L291 500 L293 498 L294 498 L297 495 L298 495 L301 492 L302 492 L304 490 L305 490 L308 487 L309 487 L313 483 L314 483 L317 480 L318 480 L322 476 L323 476 L326 473 L327 473 L331 469 L332 469 L334 467 L335 467 L337 465 L338 465 L341 462 L342 462 L346 458 L347 458 L350 455 L351 455 L354 452 L355 452 L359 448 L360 448 L363 445 L364 445 L368 441 L369 441 L372 438 L373 438 L376 435 L377 435 L381 431 L382 431 L385 428 L386 428 L389 425 L390 425 L393 422 L394 422 L397 419 L398 419 L401 416 L402 416 L406 412 L407 412 L410 409 L411 409 L415 405 L416 405 L425 396 L425 395 L427 393 L427 392 L428 391 L428 383 L429 382 L429 379 L428 378 L428 377 L425 374 L423 374 L422 373 L420 373 L419 372 L415 372 L414 371 L392 371 L391 370 L387 370 L386 369 L384 369 L383 368 L381 368 L380 367 L378 367 L377 366 L376 366 L375 365 L374 365 L372 363 L371 363 L368 360 L368 359 L367 358 L367 357 L366 356 L366 354 L365 353 L365 344 L364 343 L364 331 L365 330 L365 324 L366 323 L366 320 L367 319 L367 317 L368 316 L368 314 L369 313 L369 312 L370 311 L370 310 L371 309 L371 308 L372 307 L372 306 L373 305 L373 304 L374 303 L374 302 L376 300 L376 299 L380 295 L381 296 L383 296 L384 297 L395 297 L396 296 L398 296 L399 295 L401 295 L403 293 L404 293 L415 282 L416 282 L419 279 L426 279 L427 278 L432 278 L433 277 L435 277 L436 276 L438 276 L439 275 L440 275 L441 274 L442 274 L443 273 L444 273 L446 271 L447 271 L454 264 L454 263 L456 261 L456 260 L458 258 L458 257 L460 255 L460 254 L461 253 L461 252 L463 250 L463 249 L465 247 L465 246 L466 245 L466 244 L468 242 L468 241 L470 239 L470 238 L471 237 L471 236 L473 234 L473 233 L476 230 L476 229 L479 226 L479 225 L485 219 L485 218 L492 211 L493 211 L497 207 L498 207 L503 202 L504 202 L507 199 L508 199 L511 196 L512 196 L513 195 L514 195 L516 193 L517 193 L519 191 L520 191 L523 188 L524 188 L526 186 L527 186 L529 184 L530 184 L531 183 L532 183 L534 181 L535 181 L536 180 L537 180 L539 178 L540 178 L542 176 L543 176 L544 175 L545 175 L547 173 L548 173 L550 171 L551 171 L552 170 L553 170 L555 168 L556 168 L558 166 L559 166 L561 164 L562 164 L564 162 L565 162 L567 160 L568 160 L571 157 L572 157 L574 155 L575 155 L578 152 L579 152 L582 149 L583 149 L587 145 L588 145 L591 142 L592 142 L596 138 L597 138 L603 132 L604 132 L626 110 L626 109 L631 104 L631 103 L634 100 L634 99 L636 97 L636 96 L638 94 L638 93 L640 91 L640 90 L641 89 L641 88 L642 87 L642 86 L643 85 L643 84 L644 83 L644 82 L645 81 L645 79 L646 78 L646 76 L647 75 L647 73 L648 72 L648 68 L649 67 L649 57 L648 56 L648 50 L647 49 L647 46 L646 45 L646 43 L645 42 L645 41 L643 39 L643 38 L642 37 L642 36 L641 35 L641 34 L639 32 L639 31 L636 28 L636 27 L632 23 L631 23 L627 19 L626 19 L624 17 L623 17 L621 15 L620 15 L619 14 L617 14 L616 13 L615 13 L614 12 L611 12 L610 11 Z " fill="black"/></svg>