<svg width="540" height="632" xmlns="http://www.w3.org/2000/svg"><path d="M350 11 L349 12 L345 12 L344 13 L342 13 L341 14 L339 14 L338 15 L337 15 L336 16 L335 16 L334 17 L333 17 L332 18 L331 18 L329 20 L328 20 L326 22 L325 22 L318 29 L318 30 L314 34 L314 35 L311 38 L311 39 L309 41 L309 42 L306 45 L306 46 L303 49 L303 50 L299 54 L299 55 L298 56 L298 57 L297 58 L297 63 L295 65 L295 66 L293 68 L293 69 L291 71 L291 72 L289 74 L289 75 L286 78 L286 79 L284 81 L284 82 L282 84 L282 85 L280 87 L280 88 L278 90 L278 91 L276 93 L276 94 L274 96 L274 97 L272 99 L272 100 L270 102 L270 103 L268 105 L268 106 L266 108 L266 109 L263 112 L263 113 L261 115 L261 116 L259 118 L259 119 L257 121 L257 122 L256 123 L256 124 L254 126 L254 127 L252 129 L252 130 L250 132 L250 133 L249 134 L249 135 L247 137 L247 138 L245 140 L245 141 L243 143 L243 144 L241 146 L241 147 L239 149 L239 150 L238 151 L238 152 L236 154 L236 155 L234 157 L234 158 L231 161 L231 162 L229 164 L229 165 L228 166 L228 167 L226 169 L226 170 L225 171 L225 172 L223 174 L223 175 L221 177 L221 178 L220 179 L219 179 L218 180 L217 180 L216 179 L210 179 L209 178 L204 178 L203 177 L197 177 L196 176 L189 176 L188 175 L182 175 L181 174 L175 174 L174 173 L162 173 L161 174 L156 174 L155 175 L151 175 L150 176 L146 176 L145 177 L142 177 L141 178 L139 178 L138 179 L134 179 L133 180 L131 180 L130 181 L127 181 L126 182 L123 182 L122 183 L119 183 L118 184 L115 184 L114 185 L111 185 L110 186 L106 186 L105 187 L102 187 L101 188 L99 188 L98 189 L94 189 L93 190 L90 190 L89 191 L87 191 L86 192 L83 192 L82 193 L79 193 L78 194 L75 194 L74 195 L70 195 L69 196 L66 196 L65 197 L63 197 L62 198 L59 198 L58 199 L54 199 L53 200 L50 200 L49 201 L46 201 L45 202 L42 202 L41 203 L38 203 L37 204 L35 204 L34 205 L31 205 L30 206 L28 206 L27 207 L26 207 L25 208 L23 208 L22 209 L21 209 L20 210 L19 210 L17 212 L16 212 L13 215 L13 216 L12 217 L12 219 L11 220 L11 224 L10 225 L10 227 L11 228 L11 229 L12 230 L12 232 L13 233 L13 234 L16 237 L17 237 L19 239 L20 239 L22 241 L22 245 L23 246 L23 251 L24 252 L24 257 L25 258 L25 264 L26 265 L26 271 L27 272 L27 274 L28 275 L28 277 L29 278 L29 281 L30 282 L30 285 L31 286 L31 289 L32 290 L32 293 L33 294 L33 297 L34 298 L34 301 L35 302 L35 304 L36 305 L36 308 L37 309 L37 311 L38 312 L38 314 L39 315 L39 317 L40 318 L40 319 L41 320 L41 321 L42 322 L42 324 L43 325 L43 326 L44 327 L44 328 L45 329 L45 330 L47 332 L47 333 L50 336 L50 337 L51 338 L52 338 L56 342 L57 342 L59 344 L60 344 L62 346 L63 346 L64 347 L65 347 L66 348 L67 348 L68 349 L69 349 L70 350 L71 350 L72 351 L73 351 L74 352 L75 352 L76 353 L77 353 L78 354 L80 354 L82 356 L83 356 L85 358 L86 358 L89 361 L90 361 L95 366 L96 366 L103 373 L104 373 L108 377 L109 377 L111 379 L111 385 L110 386 L110 390 L108 392 L107 392 L106 391 L84 391 L83 392 L79 392 L78 393 L76 393 L75 394 L73 394 L72 395 L71 395 L70 396 L69 396 L68 397 L67 397 L66 398 L65 398 L64 399 L63 399 L61 401 L60 401 L59 402 L58 402 L55 405 L54 405 L44 415 L44 416 L40 420 L40 421 L38 423 L38 424 L36 426 L36 427 L35 428 L35 429 L34 430 L34 431 L33 432 L33 433 L32 434 L32 436 L31 437 L31 438 L30 439 L30 440 L29 441 L29 443 L28 444 L28 445 L27 446 L27 448 L26 449 L26 455 L25 456 L25 462 L24 463 L24 490 L25 491 L25 496 L26 497 L26 500 L27 501 L27 504 L28 505 L28 507 L29 508 L29 510 L30 511 L30 512 L31 513 L31 514 L32 515 L32 516 L33 517 L33 518 L34 519 L34 520 L36 522 L36 523 L38 525 L38 526 L45 533 L46 533 L48 535 L49 535 L52 538 L53 538 L54 539 L55 539 L56 540 L57 540 L58 541 L59 541 L60 542 L61 542 L62 543 L63 543 L64 544 L66 544 L67 545 L69 545 L70 546 L73 546 L74 547 L79 547 L80 548 L86 548 L87 549 L96 549 L97 548 L101 548 L102 547 L105 547 L106 546 L108 546 L109 545 L110 545 L111 544 L112 544 L113 543 L114 543 L115 542 L116 542 L117 541 L118 541 L121 538 L122 538 L135 525 L135 524 L137 522 L137 521 L139 519 L139 518 L140 517 L140 516 L141 515 L141 514 L142 513 L142 512 L143 511 L143 510 L144 509 L144 507 L145 506 L145 505 L146 504 L146 502 L147 501 L147 499 L148 498 L148 497 L149 496 L151 496 L152 497 L154 497 L155 498 L158 498 L159 499 L162 499 L163 500 L166 500 L168 502 L168 519 L169 520 L169 523 L170 524 L170 526 L171 527 L171 528 L172 529 L172 530 L173 531 L173 532 L182 541 L183 541 L184 542 L185 542 L186 543 L187 543 L188 544 L191 544 L192 545 L198 545 L199 546 L200 545 L203 545 L204 544 L206 544 L207 543 L208 543 L210 541 L211 541 L212 540 L213 540 L215 538 L216 538 L222 532 L222 531 L223 530 L223 529 L224 528 L224 527 L225 526 L225 525 L226 524 L226 523 L227 522 L227 520 L229 518 L233 518 L234 519 L238 519 L239 520 L241 520 L242 521 L245 521 L246 522 L249 522 L250 523 L252 523 L253 524 L255 524 L257 526 L257 527 L256 528 L256 533 L255 534 L255 537 L256 538 L256 542 L255 543 L255 556 L256 557 L256 564 L257 565 L257 569 L258 570 L258 573 L259 574 L259 577 L260 578 L260 580 L261 581 L261 582 L262 583 L262 584 L263 585 L263 586 L264 587 L264 588 L265 589 L265 590 L266 591 L266 592 L268 594 L268 595 L279 606 L280 606 L282 608 L283 608 L285 610 L286 610 L287 611 L288 611 L289 612 L290 612 L291 613 L292 613 L293 614 L294 614 L295 615 L296 615 L297 616 L299 616 L300 617 L303 617 L304 618 L306 618 L307 619 L311 619 L312 620 L329 620 L330 619 L334 619 L335 618 L336 618 L337 617 L339 617 L340 616 L342 616 L344 614 L345 614 L346 613 L347 613 L348 612 L349 612 L351 610 L352 610 L363 599 L363 598 L366 595 L366 594 L368 592 L368 591 L369 590 L369 589 L371 587 L371 585 L372 584 L372 583 L373 582 L373 581 L374 580 L374 579 L375 578 L375 576 L376 575 L376 574 L377 573 L377 572 L378 571 L378 569 L379 568 L379 566 L380 565 L380 563 L381 562 L381 560 L382 559 L382 556 L383 555 L383 550 L384 549 L384 543 L385 542 L385 532 L386 531 L386 527 L387 526 L390 526 L391 527 L394 527 L395 528 L399 528 L400 529 L402 529 L403 528 L406 528 L407 527 L409 527 L410 526 L411 526 L412 525 L413 525 L415 523 L416 523 L419 520 L419 519 L421 517 L421 516 L422 515 L422 514 L423 513 L423 509 L424 508 L424 505 L423 504 L423 498 L422 497 L422 494 L421 493 L421 488 L420 487 L420 484 L419 483 L419 479 L418 478 L418 474 L417 473 L417 469 L416 468 L416 465 L415 464 L415 461 L414 460 L414 456 L413 455 L413 453 L412 452 L412 449 L411 448 L411 445 L410 444 L410 441 L409 440 L409 438 L408 437 L408 434 L407 433 L407 431 L406 430 L406 428 L405 427 L405 423 L404 422 L404 419 L403 418 L403 415 L402 414 L402 410 L401 409 L401 405 L400 404 L400 400 L399 399 L399 392 L398 391 L398 371 L399 370 L399 369 L400 368 L400 367 L403 364 L403 363 L405 361 L405 359 L406 358 L406 357 L407 356 L407 354 L408 353 L408 352 L409 351 L409 350 L410 349 L410 347 L411 346 L411 344 L412 343 L412 341 L413 340 L413 338 L414 337 L414 334 L415 333 L415 331 L416 330 L416 328 L417 327 L417 324 L418 323 L418 321 L419 320 L419 318 L420 317 L420 315 L421 314 L421 311 L422 310 L422 307 L423 306 L423 303 L424 302 L424 298 L425 297 L425 292 L426 291 L426 287 L427 286 L427 283 L428 282 L428 278 L429 277 L429 273 L430 272 L430 266 L431 265 L431 260 L432 259 L432 256 L434 254 L435 254 L437 252 L438 252 L440 250 L441 250 L441 249 L443 247 L443 246 L444 245 L444 242 L445 241 L445 236 L444 235 L444 231 L443 230 L443 228 L441 226 L441 225 L440 224 L439 224 L437 222 L435 222 L434 221 L432 221 L431 220 L430 220 L429 219 L429 218 L430 217 L430 216 L432 214 L432 213 L434 211 L434 210 L436 208 L436 207 L438 205 L438 204 L440 202 L440 201 L442 199 L442 198 L444 196 L444 195 L446 193 L446 192 L447 191 L447 190 L449 188 L449 187 L451 185 L451 184 L453 182 L453 181 L455 179 L455 178 L457 176 L457 175 L459 173 L459 172 L460 171 L460 170 L462 168 L462 167 L464 165 L464 164 L466 162 L466 161 L467 160 L467 159 L470 156 L470 155 L471 154 L471 153 L473 151 L473 150 L475 148 L475 147 L477 145 L477 144 L479 142 L479 141 L481 139 L481 138 L483 136 L483 135 L485 133 L485 132 L486 131 L486 130 L488 128 L488 127 L489 126 L489 125 L490 124 L490 123 L492 121 L492 120 L493 119 L493 118 L494 117 L494 116 L496 114 L496 113 L497 112 L497 111 L499 109 L500 109 L501 108 L502 108 L506 104 L506 103 L508 101 L508 100 L509 99 L509 98 L511 96 L511 95 L513 93 L513 92 L514 91 L514 90 L516 88 L516 87 L517 86 L517 85 L519 83 L519 82 L520 81 L520 80 L522 78 L522 77 L524 75 L524 74 L525 73 L525 72 L526 71 L526 69 L527 68 L527 66 L528 65 L528 54 L527 53 L527 50 L526 49 L526 47 L525 46 L525 45 L518 38 L517 38 L516 37 L515 37 L513 35 L512 35 L511 34 L510 34 L509 33 L508 33 L507 32 L505 32 L504 31 L501 31 L500 30 L496 30 L495 29 L491 29 L490 28 L485 28 L484 27 L479 27 L478 26 L474 26 L473 25 L468 25 L467 24 L461 24 L460 23 L455 23 L454 22 L446 22 L445 21 L437 21 L436 20 L429 20 L428 19 L422 19 L421 18 L413 18 L412 17 L405 17 L404 16 L399 16 L398 15 L391 15 L390 14 L383 14 L382 13 L376 13 L375 12 L367 12 L366 11 Z " fill="black"/></svg>