<svg width="267" height="508" xmlns="http://www.w3.org/2000/svg"><path d="M128 11 L127 12 L127 14 L128 15 L128 17 L129 18 L129 21 L130 22 L130 26 L128 28 L127 28 L126 27 L126 26 L125 25 L125 24 L123 22 L122 22 L122 24 L123 25 L123 29 L122 30 L121 30 L120 31 L119 30 L118 30 L116 32 L116 34 L112 38 L110 38 L109 37 L108 37 L106 35 L105 35 L104 34 L104 35 L106 37 L106 38 L108 40 L108 43 L107 44 L107 46 L104 49 L104 51 L102 53 L102 55 L101 56 L100 56 L99 57 L97 57 L97 58 L100 61 L100 64 L99 65 L97 65 L96 66 L95 66 L96 67 L97 67 L99 69 L99 71 L98 72 L98 73 L97 74 L97 75 L98 76 L98 77 L99 78 L98 79 L98 80 L97 81 L95 81 L94 82 L94 83 L95 84 L95 88 L91 92 L91 93 L90 94 L90 95 L91 96 L93 96 L95 98 L95 99 L93 101 L92 101 L91 102 L91 103 L90 104 L89 104 L89 105 L88 106 L88 107 L91 110 L91 111 L93 113 L93 117 L94 118 L94 120 L93 121 L92 120 L91 120 L89 122 L90 123 L90 124 L93 127 L93 128 L94 129 L94 130 L93 131 L90 131 L90 134 L93 137 L93 138 L94 139 L94 158 L86 166 L84 166 L83 167 L82 167 L82 168 L83 168 L84 169 L85 169 L87 171 L88 171 L90 173 L91 173 L92 174 L94 174 L96 176 L96 179 L97 180 L97 190 L98 191 L96 193 L94 193 L91 190 L90 190 L84 184 L84 183 L82 181 L82 180 L81 179 L81 178 L80 177 L80 176 L78 174 L78 173 L77 172 L77 169 L79 167 L78 167 L77 166 L77 165 L76 164 L76 163 L73 160 L73 157 L74 156 L76 156 L77 155 L78 155 L79 154 L77 152 L76 152 L74 150 L73 150 L70 147 L70 143 L73 140 L74 140 L74 139 L75 138 L75 136 L74 135 L74 132 L70 128 L70 126 L69 125 L69 121 L70 120 L70 118 L69 117 L69 116 L68 115 L65 115 L64 114 L64 113 L63 112 L66 109 L68 109 L69 110 L72 110 L72 106 L70 104 L69 104 L68 103 L64 103 L63 102 L63 101 L62 100 L62 97 L61 96 L61 92 L59 90 L59 89 L58 88 L57 89 L56 89 L55 90 L52 90 L51 89 L50 89 L49 88 L48 88 L45 85 L45 84 L44 83 L44 82 L43 82 L42 83 L42 85 L41 86 L41 87 L40 88 L40 89 L36 93 L35 93 L34 92 L33 92 L30 89 L29 89 L28 88 L27 88 L26 87 L23 87 L22 88 L22 92 L23 93 L24 93 L25 94 L26 94 L27 95 L29 95 L30 96 L30 98 L25 103 L25 104 L24 105 L24 106 L23 107 L23 111 L24 112 L24 114 L23 115 L22 115 L21 114 L17 114 L17 115 L16 116 L16 120 L17 120 L18 121 L20 121 L22 123 L22 125 L21 126 L21 128 L18 131 L16 131 L14 133 L14 134 L13 135 L14 136 L19 136 L22 139 L22 152 L20 154 L19 154 L18 155 L17 155 L15 157 L14 157 L14 158 L11 161 L11 162 L12 162 L13 163 L14 162 L20 162 L21 161 L23 163 L23 171 L24 172 L24 173 L25 174 L25 179 L26 180 L26 181 L27 182 L27 183 L29 185 L29 186 L30 187 L30 190 L29 191 L29 193 L27 195 L27 196 L26 197 L26 198 L25 199 L27 201 L31 201 L32 200 L34 200 L35 201 L34 202 L34 203 L33 204 L33 206 L37 206 L44 213 L44 214 L45 215 L45 216 L47 218 L47 219 L49 221 L49 222 L50 223 L56 223 L57 224 L58 224 L60 226 L61 226 L62 227 L63 227 L64 228 L65 228 L66 229 L67 229 L68 230 L70 230 L71 231 L72 231 L73 232 L74 232 L75 233 L76 233 L77 234 L80 234 L81 235 L91 235 L92 234 L97 234 L98 235 L98 238 L99 239 L99 242 L98 243 L98 245 L97 246 L97 250 L98 251 L98 267 L97 268 L94 268 L93 269 L94 270 L96 270 L97 271 L99 271 L100 272 L100 275 L99 276 L87 276 L86 277 L83 277 L82 278 L76 278 L75 279 L71 279 L70 280 L65 280 L64 281 L61 281 L60 282 L57 282 L56 283 L53 283 L52 284 L49 284 L48 285 L45 285 L44 286 L42 286 L41 287 L39 287 L38 288 L36 288 L35 289 L34 289 L33 290 L32 290 L31 291 L30 291 L27 294 L26 294 L24 296 L24 297 L23 298 L23 300 L22 301 L22 303 L21 304 L21 317 L22 318 L22 325 L23 326 L23 336 L24 337 L24 344 L25 345 L25 346 L26 347 L26 348 L27 349 L27 350 L35 358 L35 360 L36 361 L36 363 L37 364 L37 369 L38 370 L38 374 L39 375 L39 378 L40 379 L40 382 L41 383 L41 385 L42 386 L42 388 L43 389 L43 391 L44 392 L44 395 L45 396 L45 400 L46 401 L46 403 L47 404 L47 406 L48 407 L48 410 L49 411 L49 415 L50 416 L50 419 L51 420 L51 423 L52 424 L52 426 L53 427 L53 429 L54 430 L54 437 L55 438 L55 442 L56 443 L56 446 L57 447 L57 449 L58 450 L58 452 L59 453 L59 455 L60 456 L60 457 L61 458 L61 461 L62 462 L62 463 L63 464 L63 467 L64 468 L64 471 L65 472 L65 473 L66 474 L66 475 L67 476 L67 477 L69 479 L69 480 L71 482 L73 482 L74 483 L75 483 L76 484 L77 484 L78 485 L79 485 L80 486 L81 486 L82 487 L84 487 L85 488 L87 488 L88 489 L89 489 L90 490 L91 490 L92 491 L94 491 L95 492 L99 492 L100 493 L101 492 L104 492 L105 493 L109 493 L110 494 L111 494 L112 495 L119 495 L120 496 L143 496 L144 495 L166 495 L167 494 L171 494 L173 492 L177 492 L178 491 L183 491 L184 490 L188 490 L189 489 L192 489 L193 488 L194 488 L195 487 L196 487 L197 486 L198 486 L199 485 L200 485 L201 484 L204 484 L206 482 L206 481 L208 479 L208 478 L209 477 L209 476 L210 475 L210 474 L211 473 L211 471 L212 470 L212 467 L213 466 L213 462 L214 461 L214 458 L215 457 L215 455 L216 454 L216 451 L217 450 L217 448 L218 447 L218 445 L219 444 L219 438 L220 437 L220 432 L221 431 L221 426 L222 425 L222 421 L223 420 L223 417 L224 416 L224 413 L225 412 L225 409 L226 408 L226 404 L227 403 L227 398 L228 397 L228 393 L229 392 L229 389 L230 388 L230 385 L231 384 L231 380 L232 379 L232 375 L233 374 L233 369 L234 368 L234 365 L235 364 L235 361 L236 360 L236 358 L237 357 L237 356 L240 353 L241 353 L243 351 L244 351 L248 347 L248 346 L250 344 L250 343 L251 342 L251 340 L252 339 L252 334 L253 333 L253 321 L254 320 L254 305 L253 304 L253 300 L252 299 L252 297 L250 295 L250 294 L249 293 L248 293 L245 290 L244 290 L243 289 L241 289 L240 288 L239 288 L238 287 L237 287 L236 286 L234 286 L233 285 L231 285 L230 284 L228 284 L227 283 L225 283 L224 282 L222 282 L221 281 L219 281 L218 280 L216 280 L215 279 L211 279 L210 278 L204 278 L203 277 L198 277 L197 276 L192 276 L191 275 L179 275 L177 273 L177 268 L178 267 L178 260 L181 257 L184 257 L185 256 L185 254 L184 253 L183 253 L182 252 L181 252 L179 250 L178 250 L177 249 L177 247 L178 246 L178 238 L179 237 L179 236 L180 235 L183 235 L186 232 L186 231 L185 231 L184 230 L182 230 L179 227 L179 226 L180 225 L180 217 L179 216 L179 215 L178 214 L178 213 L177 212 L179 210 L185 210 L186 209 L187 209 L189 207 L189 206 L188 205 L181 205 L180 204 L180 202 L183 199 L185 199 L186 200 L188 200 L189 199 L189 197 L188 197 L187 196 L186 196 L185 195 L184 195 L183 194 L182 194 L181 193 L180 193 L179 192 L179 190 L181 188 L182 188 L183 189 L185 189 L186 190 L187 190 L188 191 L191 191 L192 190 L194 190 L196 188 L198 188 L199 187 L200 187 L201 188 L204 188 L205 187 L206 187 L208 185 L209 185 L211 183 L212 183 L213 182 L216 182 L217 181 L220 181 L225 176 L225 171 L227 169 L228 169 L232 165 L232 164 L233 163 L233 161 L232 160 L232 159 L235 156 L236 157 L239 157 L240 156 L240 152 L241 151 L244 151 L245 150 L245 149 L244 149 L243 148 L243 141 L244 140 L244 136 L245 135 L245 134 L249 130 L250 130 L251 129 L251 127 L254 124 L254 122 L253 121 L252 121 L251 120 L250 120 L249 119 L249 117 L248 116 L248 111 L249 110 L249 108 L251 106 L252 106 L254 104 L254 102 L255 101 L255 99 L254 98 L251 98 L250 99 L248 97 L248 91 L249 90 L249 89 L250 88 L253 88 L253 86 L252 85 L248 85 L247 84 L247 83 L246 82 L246 75 L247 74 L250 74 L251 75 L251 74 L248 71 L248 70 L247 70 L246 71 L245 71 L243 73 L241 73 L238 70 L238 69 L234 65 L234 64 L233 63 L233 60 L231 58 L230 59 L229 59 L224 64 L223 64 L222 65 L221 65 L218 62 L218 61 L217 60 L214 60 L214 69 L213 70 L213 71 L212 72 L212 73 L211 74 L211 76 L209 78 L209 79 L206 82 L203 82 L201 84 L201 85 L202 86 L203 86 L206 89 L206 91 L204 93 L203 93 L202 94 L203 95 L204 95 L205 96 L205 98 L204 99 L204 100 L203 101 L202 101 L201 100 L200 100 L199 101 L199 110 L198 111 L198 115 L199 116 L199 118 L197 120 L197 122 L196 123 L196 125 L195 126 L195 129 L194 130 L194 132 L193 133 L193 139 L192 140 L192 143 L191 144 L191 145 L190 146 L190 147 L188 149 L187 149 L185 151 L184 151 L182 149 L183 148 L183 144 L184 143 L184 142 L185 141 L185 140 L183 138 L182 138 L180 136 L180 125 L181 124 L181 120 L180 119 L180 118 L181 117 L181 115 L182 114 L183 114 L183 112 L182 112 L181 111 L181 108 L180 107 L180 106 L178 104 L178 103 L177 102 L178 101 L178 100 L181 97 L181 93 L180 93 L178 91 L178 89 L179 88 L179 87 L183 83 L183 80 L182 79 L181 79 L180 78 L178 78 L176 76 L176 75 L175 74 L175 66 L174 65 L174 63 L175 62 L175 59 L177 57 L178 57 L179 56 L180 56 L181 55 L181 54 L180 53 L178 53 L175 50 L174 51 L174 52 L172 54 L170 54 L168 52 L168 51 L167 50 L168 49 L168 48 L169 47 L170 47 L171 46 L172 46 L172 45 L173 44 L173 43 L170 40 L170 39 L169 39 L168 38 L167 38 L166 37 L165 37 L164 36 L164 35 L165 34 L165 33 L166 32 L166 31 L167 30 L167 29 L166 28 L165 29 L164 29 L161 32 L159 32 L157 30 L157 27 L158 26 L158 25 L160 23 L160 22 L159 21 L158 22 L157 22 L156 23 L155 23 L153 25 L152 25 L150 27 L149 27 L148 28 L146 28 L144 26 L144 25 L143 24 L143 23 L141 21 L140 21 L139 22 L139 25 L138 26 L136 26 L135 25 L135 24 L134 23 L134 20 L133 19 L133 18 L132 17 L132 15 L131 14 L131 12 L130 11 Z " fill="black"/></svg>