<svg width="345" height="574" xmlns="http://www.w3.org/2000/svg"><path d="M201 11 L200 12 L198 12 L196 14 L195 14 L191 18 L190 18 L189 19 L188 19 L187 20 L182 20 L181 21 L180 21 L171 30 L171 31 L167 35 L167 36 L164 39 L164 40 L161 43 L161 44 L159 46 L159 47 L157 49 L157 50 L156 51 L156 52 L155 53 L155 54 L154 55 L154 56 L153 57 L153 59 L152 60 L152 64 L151 65 L151 86 L152 87 L152 92 L153 93 L153 97 L154 98 L154 100 L155 101 L153 103 L152 102 L151 102 L150 101 L149 101 L147 99 L146 99 L143 96 L142 96 L141 95 L140 95 L136 91 L136 90 L133 87 L133 85 L132 84 L132 82 L131 81 L131 80 L130 79 L130 78 L129 77 L129 76 L128 75 L128 74 L127 73 L127 72 L126 71 L126 70 L125 69 L125 68 L123 66 L123 65 L122 64 L122 63 L119 60 L119 59 L114 54 L113 54 L110 51 L109 51 L106 48 L105 48 L103 46 L102 46 L101 45 L99 45 L98 44 L86 44 L85 45 L84 45 L82 47 L81 47 L81 48 L80 49 L79 49 L75 53 L74 53 L73 54 L72 54 L71 55 L67 55 L66 56 L65 56 L64 57 L63 57 L60 60 L60 61 L59 62 L59 64 L60 65 L60 66 L62 68 L63 68 L68 73 L69 73 L71 75 L72 75 L74 77 L75 77 L78 80 L79 80 L86 87 L87 87 L89 89 L90 89 L92 91 L93 91 L94 92 L95 92 L97 94 L98 94 L101 97 L102 97 L105 100 L105 101 L110 106 L110 107 L116 113 L116 114 L120 118 L120 119 L123 122 L123 123 L131 131 L131 132 L133 134 L133 135 L135 137 L135 139 L134 140 L130 140 L128 138 L128 137 L125 134 L125 133 L123 131 L123 130 L121 128 L121 127 L119 125 L119 124 L115 120 L115 119 L112 116 L111 116 L108 113 L107 113 L106 112 L104 112 L103 111 L102 111 L101 110 L98 110 L97 109 L94 109 L93 108 L86 108 L85 109 L72 109 L71 110 L70 110 L69 111 L68 111 L65 114 L64 114 L63 115 L62 115 L61 116 L60 116 L58 118 L57 118 L55 120 L55 121 L54 122 L54 123 L53 124 L53 125 L48 130 L47 130 L46 131 L45 131 L44 132 L43 132 L42 133 L41 133 L39 135 L38 135 L35 138 L35 139 L34 140 L34 142 L33 143 L33 145 L32 146 L32 150 L33 151 L33 153 L36 156 L36 157 L39 160 L39 161 L43 165 L43 166 L45 168 L45 169 L60 184 L61 184 L62 185 L63 185 L64 186 L65 186 L66 187 L67 187 L68 188 L69 188 L70 189 L71 189 L72 190 L74 190 L76 192 L78 192 L79 193 L80 193 L81 194 L83 194 L84 195 L94 195 L95 196 L98 196 L99 197 L101 197 L102 198 L104 198 L105 199 L107 199 L108 200 L110 200 L111 201 L112 201 L113 202 L114 202 L117 205 L117 207 L118 208 L118 212 L119 213 L119 215 L120 216 L120 217 L121 218 L121 219 L122 220 L122 221 L127 226 L127 227 L133 233 L134 233 L139 238 L140 238 L142 240 L143 240 L144 241 L145 241 L146 242 L147 242 L148 243 L149 243 L150 244 L151 244 L152 245 L153 245 L154 246 L155 246 L156 247 L157 247 L160 250 L161 250 L162 251 L163 251 L170 258 L170 262 L168 264 L166 262 L166 261 L160 255 L159 255 L157 253 L156 253 L155 252 L154 252 L152 250 L151 250 L149 248 L147 248 L146 247 L144 247 L142 245 L140 245 L137 242 L136 242 L132 238 L131 238 L127 234 L126 234 L119 227 L118 227 L115 224 L114 224 L112 222 L111 222 L110 221 L109 221 L108 220 L107 220 L106 219 L105 219 L104 218 L103 218 L102 217 L101 217 L100 216 L99 216 L97 214 L96 214 L95 213 L94 213 L93 212 L92 212 L91 211 L89 211 L88 210 L87 210 L86 209 L85 209 L84 208 L82 208 L81 207 L80 207 L79 206 L77 206 L76 205 L74 205 L73 204 L69 204 L68 203 L65 203 L64 202 L58 202 L57 203 L56 203 L55 204 L54 204 L51 207 L50 207 L46 211 L45 211 L43 213 L38 213 L37 214 L36 214 L34 216 L33 216 L32 217 L31 217 L30 218 L29 218 L27 220 L26 220 L24 222 L23 222 L22 223 L21 223 L20 224 L19 224 L17 226 L17 227 L16 228 L16 231 L15 232 L15 234 L14 235 L14 242 L13 243 L13 245 L12 246 L12 250 L11 251 L11 260 L12 261 L12 262 L13 263 L13 265 L14 266 L14 267 L16 269 L16 270 L17 271 L17 272 L20 275 L21 275 L22 276 L23 276 L24 277 L26 277 L27 278 L36 278 L37 279 L39 279 L40 280 L41 280 L42 281 L43 281 L45 283 L46 283 L47 284 L48 284 L49 285 L50 285 L51 286 L53 286 L54 287 L56 287 L57 288 L59 288 L60 289 L79 289 L80 288 L83 288 L84 287 L89 287 L90 286 L92 286 L93 285 L95 285 L96 284 L97 284 L98 283 L101 283 L102 282 L105 282 L106 283 L114 283 L115 284 L127 284 L128 285 L143 285 L144 286 L148 286 L149 287 L151 287 L152 288 L155 288 L156 289 L158 289 L159 290 L160 290 L161 291 L162 291 L163 292 L164 292 L165 293 L165 294 L166 295 L165 296 L165 297 L164 298 L164 299 L162 301 L159 301 L158 300 L155 300 L154 299 L153 299 L152 298 L132 298 L131 299 L126 299 L125 300 L123 300 L122 301 L120 301 L119 302 L114 302 L113 303 L104 303 L103 304 L101 304 L100 305 L99 305 L96 308 L95 308 L94 309 L89 309 L88 310 L85 310 L84 311 L81 311 L79 313 L78 313 L77 314 L76 314 L70 320 L70 321 L65 326 L65 327 L63 329 L63 330 L62 331 L62 332 L61 333 L61 335 L60 336 L60 337 L59 338 L59 340 L58 341 L58 353 L57 354 L57 358 L58 359 L58 362 L59 363 L59 366 L60 367 L60 368 L61 369 L61 371 L66 376 L67 376 L68 377 L69 377 L70 378 L72 378 L73 379 L75 379 L76 380 L78 380 L79 381 L82 381 L83 382 L84 382 L85 383 L86 383 L87 384 L88 384 L90 386 L88 388 L87 388 L85 390 L85 391 L83 393 L83 394 L82 395 L82 456 L81 457 L81 510 L82 511 L82 512 L85 515 L85 530 L86 531 L86 533 L87 534 L87 535 L89 537 L89 538 L90 539 L90 540 L91 541 L92 541 L95 544 L96 544 L97 545 L98 545 L100 547 L101 547 L102 548 L104 548 L105 549 L106 549 L107 550 L108 550 L109 551 L110 551 L111 552 L112 552 L113 553 L117 553 L118 554 L122 554 L123 555 L125 555 L126 556 L129 556 L130 557 L132 557 L133 558 L137 558 L138 559 L144 559 L145 560 L149 560 L150 561 L162 561 L163 562 L168 562 L169 561 L170 561 L171 562 L173 562 L174 561 L177 561 L178 562 L179 561 L195 561 L196 560 L202 560 L203 559 L213 559 L214 558 L220 558 L221 557 L224 557 L225 556 L229 556 L230 555 L232 555 L233 554 L236 554 L237 553 L238 553 L239 552 L242 552 L243 551 L244 551 L245 550 L247 550 L249 548 L251 548 L254 545 L255 545 L260 540 L260 539 L261 538 L261 537 L262 536 L262 533 L263 532 L263 528 L264 527 L264 516 L265 515 L265 514 L266 513 L266 506 L267 505 L267 502 L266 501 L266 500 L267 499 L267 485 L266 484 L266 482 L267 481 L267 479 L266 478 L266 452 L267 451 L267 449 L266 448 L266 444 L267 443 L267 442 L266 441 L266 436 L267 435 L267 434 L266 433 L266 426 L267 425 L267 418 L266 417 L266 416 L267 415 L267 394 L266 393 L266 392 L261 387 L260 387 L258 385 L257 385 L255 383 L253 383 L251 381 L249 381 L248 380 L246 380 L245 379 L243 379 L242 378 L240 378 L239 377 L236 377 L235 376 L232 376 L231 375 L228 375 L227 374 L223 374 L222 373 L216 373 L215 372 L205 372 L204 371 L198 371 L197 370 L187 370 L186 369 L184 369 L182 367 L183 366 L183 364 L182 363 L182 346 L183 345 L183 341 L185 339 L186 339 L187 338 L188 338 L189 337 L191 337 L192 336 L194 336 L195 335 L198 335 L199 334 L201 334 L202 335 L203 335 L206 338 L207 338 L215 346 L215 347 L219 351 L219 352 L227 360 L228 360 L229 361 L230 361 L231 362 L233 362 L234 363 L235 363 L236 364 L239 364 L240 365 L242 365 L243 366 L244 366 L245 367 L246 367 L247 368 L248 368 L249 369 L251 369 L252 370 L256 370 L257 371 L278 371 L279 370 L280 370 L281 369 L282 369 L283 368 L284 368 L293 359 L294 359 L301 352 L301 350 L302 349 L302 338 L301 337 L301 335 L302 334 L302 333 L301 332 L301 327 L300 326 L300 325 L297 322 L296 322 L292 318 L292 317 L291 316 L291 315 L290 314 L290 313 L286 309 L285 309 L284 308 L283 308 L282 307 L280 307 L279 306 L273 306 L272 305 L259 305 L258 304 L252 304 L251 303 L250 303 L249 302 L246 302 L245 301 L241 301 L240 300 L237 300 L236 299 L232 299 L231 298 L226 298 L225 297 L218 297 L217 296 L211 296 L210 295 L200 295 L199 294 L202 291 L203 291 L204 290 L205 290 L206 289 L207 289 L208 288 L209 288 L210 287 L212 287 L213 286 L215 286 L216 285 L219 285 L220 284 L221 284 L222 283 L223 283 L224 282 L225 282 L226 281 L227 281 L229 279 L230 279 L231 278 L233 278 L234 277 L236 277 L237 276 L239 276 L240 275 L241 275 L242 274 L244 274 L245 273 L246 273 L247 272 L249 272 L250 271 L251 271 L253 269 L254 269 L255 268 L256 268 L257 267 L258 267 L259 266 L260 266 L261 265 L263 265 L265 263 L266 263 L267 262 L268 262 L271 259 L272 259 L274 257 L276 257 L277 256 L280 256 L281 255 L283 255 L284 254 L288 254 L289 253 L315 253 L316 252 L317 252 L318 251 L319 251 L320 250 L321 250 L322 249 L323 249 L325 247 L326 247 L332 241 L332 238 L333 237 L333 235 L331 233 L330 233 L329 232 L328 232 L327 231 L317 231 L316 230 L312 230 L311 229 L307 229 L306 228 L303 228 L302 227 L287 227 L286 228 L274 228 L273 229 L268 229 L267 230 L265 230 L264 231 L263 231 L262 232 L261 232 L259 234 L258 234 L256 236 L254 236 L253 237 L251 237 L250 238 L246 238 L245 239 L244 239 L239 244 L239 245 L237 247 L235 247 L234 248 L232 248 L231 249 L230 249 L227 252 L226 252 L223 255 L223 256 L221 258 L220 258 L213 265 L212 265 L210 267 L209 267 L208 268 L207 268 L206 269 L204 269 L203 270 L200 270 L199 271 L197 271 L196 272 L195 272 L194 273 L192 273 L191 274 L188 274 L187 275 L183 275 L182 274 L182 265 L183 264 L183 263 L185 261 L185 260 L186 259 L186 258 L192 252 L193 252 L194 251 L197 251 L198 250 L199 250 L200 249 L201 249 L202 248 L203 248 L204 247 L213 247 L214 246 L216 246 L217 245 L218 245 L219 244 L220 244 L221 243 L223 243 L224 242 L225 242 L226 241 L227 241 L228 240 L229 240 L230 239 L231 239 L232 238 L233 238 L234 237 L235 237 L236 236 L237 236 L238 235 L239 235 L241 233 L242 233 L243 232 L244 232 L246 230 L247 230 L251 226 L252 226 L253 225 L253 224 L256 221 L256 220 L258 218 L258 217 L259 216 L259 214 L260 213 L260 208 L256 204 L255 204 L254 203 L253 203 L252 202 L251 202 L250 201 L249 201 L248 200 L240 200 L239 201 L238 201 L237 202 L236 202 L233 205 L232 205 L230 207 L229 207 L228 208 L227 208 L226 209 L224 209 L223 210 L222 210 L221 209 L221 200 L222 199 L222 197 L224 195 L227 195 L228 194 L233 194 L234 193 L237 193 L238 192 L240 192 L241 191 L242 191 L243 190 L246 190 L247 189 L249 189 L250 188 L254 188 L255 187 L257 187 L258 186 L262 186 L263 185 L265 185 L266 184 L269 184 L270 183 L271 183 L272 182 L273 182 L274 181 L277 181 L278 180 L280 180 L281 179 L282 179 L283 178 L284 178 L285 177 L286 177 L288 175 L289 175 L291 173 L292 173 L293 172 L294 172 L295 171 L296 171 L297 170 L298 170 L299 169 L300 169 L301 168 L302 168 L307 163 L307 162 L309 160 L309 159 L310 158 L310 155 L313 152 L313 151 L319 145 L319 144 L321 142 L321 141 L328 134 L329 134 L331 132 L331 131 L332 130 L332 129 L333 128 L333 119 L331 117 L329 117 L328 116 L323 116 L322 115 L318 115 L317 114 L312 114 L311 113 L310 113 L308 111 L307 111 L305 109 L305 108 L304 107 L304 106 L303 105 L303 104 L301 102 L300 102 L299 101 L298 101 L297 100 L296 100 L295 99 L294 99 L293 98 L291 98 L290 97 L274 97 L273 98 L270 98 L269 99 L268 99 L267 100 L266 100 L264 102 L263 102 L262 103 L260 103 L259 104 L257 104 L256 105 L254 105 L253 106 L252 106 L251 107 L249 107 L245 111 L245 112 L244 113 L244 114 L242 116 L242 117 L240 119 L239 119 L232 126 L231 126 L230 127 L230 128 L224 134 L224 135 L218 141 L217 141 L216 140 L216 135 L217 134 L217 132 L233 116 L233 115 L237 111 L237 110 L239 108 L239 107 L241 105 L241 104 L244 101 L244 100 L255 89 L255 88 L259 84 L259 83 L260 82 L260 81 L261 80 L261 79 L262 78 L262 77 L263 76 L263 75 L264 74 L264 71 L265 70 L265 67 L266 66 L266 58 L267 57 L267 54 L266 53 L266 51 L265 50 L265 48 L264 47 L264 44 L263 43 L263 42 L262 41 L262 36 L261 35 L261 33 L260 32 L260 30 L258 28 L258 27 L254 23 L253 23 L250 20 L249 20 L247 18 L246 18 L245 17 L242 17 L241 16 L232 16 L231 17 L229 17 L227 19 L226 19 L225 20 L221 16 L220 16 L218 14 L217 14 L216 13 L213 13 L212 12 L210 12 L209 11 Z " fill="black"/></svg>