<svg width="472" height="1204" xmlns="http://www.w3.org/2000/svg"><path d="M38 1203 Z M10 1203 L18 1203 Z M34 1187 L33 1188 L32 1188 L29 1191 L28 1191 L24 1195 L24 1196 L23 1197 L23 1198 L22 1199 L22 1202 L23 1203 L34 1203 L34 1202 L36 1200 L34 1200 L33 1201 L32 1201 L31 1202 L30 1201 L30 1200 L32 1198 L32 1196 L33 1195 L35 1195 L36 1194 L37 1195 L37 1196 L38 1196 L40 1198 L39 1199 L41 1201 L41 1202 L42 1203 L50 1203 L49 1202 L49 1201 L48 1200 L48 1199 L47 1198 L47 1197 L42 1192 L41 1192 L37 1188 L36 1188 L35 1187 Z M471 1107 L470 1108 L469 1108 L466 1111 L465 1111 L462 1114 L461 1114 L450 1125 L450 1126 L447 1129 L447 1130 L444 1133 L444 1134 L441 1137 L441 1138 L437 1142 L437 1143 L432 1148 L432 1149 L427 1154 L427 1155 L424 1158 L424 1159 L406 1177 L406 1178 L401 1183 L401 1184 L398 1187 L398 1188 L395 1191 L395 1192 L393 1194 L393 1195 L392 1196 L392 1197 L390 1199 L390 1200 L389 1201 L389 1202 L388 1203 L471 1203 Z M16 1101 L15 1102 L14 1102 L3 1113 L2 1113 L1 1112 L0 1112 L0 1166 L0 1165 L2 1163 L6 1167 L7 1167 L8 1168 L9 1168 L10 1169 L11 1169 L12 1170 L14 1170 L15 1171 L21 1171 L22 1170 L24 1170 L25 1169 L26 1169 L29 1166 L29 1165 L30 1164 L30 1163 L31 1162 L31 1161 L32 1160 L32 1159 L33 1158 L33 1153 L32 1152 L32 1150 L31 1149 L31 1148 L25 1142 L27 1140 L27 1139 L28 1138 L28 1136 L29 1135 L29 1124 L28 1123 L28 1121 L27 1120 L27 1112 L28 1111 L28 1107 L27 1106 L27 1105 L25 1103 L24 1103 L23 1102 L22 1102 L21 1101 Z M233 557 L233 560 Z M233 550 L233 555 Z M233 540 L233 543 Z M172 486 L171 487 L168 487 L167 488 L166 488 L165 489 L163 489 L163 490 L165 490 L166 489 L167 489 L168 488 L169 488 L170 487 L172 487 L173 486 L179 486 Z M191 11 L190 12 L190 13 L191 14 L191 15 L190 16 L191 17 L191 21 L192 22 L192 25 L193 26 L193 27 L194 28 L194 32 L195 33 L195 39 L196 40 L196 44 L197 45 L197 49 L198 50 L198 52 L199 53 L199 55 L200 56 L200 59 L201 60 L201 61 L202 62 L202 64 L203 65 L203 66 L204 67 L204 69 L205 70 L205 72 L206 73 L206 74 L207 75 L207 77 L208 78 L208 79 L209 80 L209 81 L210 82 L210 83 L211 84 L211 86 L212 87 L212 89 L213 90 L213 91 L214 92 L214 93 L215 94 L215 96 L216 97 L216 98 L218 100 L218 101 L219 102 L219 103 L221 105 L221 106 L223 108 L223 109 L225 111 L225 112 L227 114 L227 115 L228 116 L228 117 L230 119 L230 120 L233 123 L233 124 L240 131 L240 132 L242 134 L242 135 L244 137 L244 138 L245 139 L245 140 L246 141 L246 142 L247 143 L247 145 L248 146 L248 148 L249 149 L249 151 L250 152 L250 154 L251 155 L251 162 L252 163 L252 165 L251 166 L251 176 L250 177 L250 187 L249 188 L249 194 L248 195 L248 198 L247 199 L247 203 L246 204 L246 207 L245 208 L245 210 L244 211 L244 214 L243 215 L243 218 L242 219 L242 221 L241 222 L241 225 L240 226 L240 228 L239 229 L239 230 L238 231 L238 233 L237 234 L237 235 L236 236 L236 238 L235 239 L235 240 L234 241 L234 243 L233 244 L233 246 L232 247 L232 248 L231 249 L231 250 L230 251 L230 253 L229 254 L229 256 L228 257 L228 258 L227 259 L227 260 L226 261 L226 262 L225 263 L225 265 L224 266 L224 267 L223 268 L223 269 L221 271 L219 269 L219 268 L218 267 L218 266 L217 265 L217 263 L216 262 L216 256 L215 255 L215 250 L214 249 L214 246 L213 245 L213 244 L212 243 L212 242 L211 241 L211 240 L210 239 L210 238 L209 237 L209 236 L208 235 L208 233 L207 232 L208 231 L208 230 L210 228 L210 226 L211 225 L211 224 L212 223 L212 222 L213 221 L213 220 L214 219 L214 218 L218 214 L218 213 L220 211 L220 210 L221 209 L221 207 L222 206 L222 205 L223 204 L223 202 L224 201 L224 197 L225 196 L225 192 L226 191 L226 175 L225 174 L225 173 L223 171 L222 171 L221 170 L220 170 L218 168 L217 168 L216 167 L207 167 L206 168 L202 168 L201 169 L199 169 L198 170 L196 170 L195 171 L194 171 L193 172 L192 172 L191 173 L190 173 L189 174 L188 174 L186 172 L186 168 L185 167 L185 164 L184 163 L184 160 L183 159 L183 158 L181 156 L181 155 L176 150 L175 150 L172 147 L171 147 L169 145 L168 145 L167 144 L166 144 L164 142 L162 142 L161 141 L158 141 L157 140 L148 140 L147 141 L143 141 L142 142 L139 142 L138 143 L135 143 L134 144 L132 144 L131 145 L129 145 L128 146 L127 146 L126 147 L125 147 L124 148 L123 148 L121 150 L120 150 L118 152 L117 152 L112 157 L111 157 L108 160 L108 161 L102 167 L101 167 L101 168 L100 169 L99 169 L99 170 L93 176 L93 177 L91 179 L91 180 L89 182 L89 183 L87 185 L87 186 L86 187 L86 188 L85 189 L85 190 L84 191 L84 192 L82 194 L82 196 L81 197 L81 198 L80 199 L80 200 L79 201 L79 203 L78 204 L78 206 L77 207 L77 210 L76 211 L76 213 L75 214 L75 217 L74 218 L74 220 L73 221 L73 224 L72 225 L72 227 L71 228 L71 231 L70 232 L70 237 L69 238 L69 278 L68 279 L69 280 L68 281 L68 291 L67 292 L67 296 L66 297 L66 302 L65 303 L65 311 L64 312 L64 316 L63 317 L63 320 L62 321 L62 323 L61 324 L61 327 L60 328 L60 333 L61 334 L63 334 L64 333 L65 333 L67 331 L67 329 L68 328 L68 327 L69 326 L69 325 L71 323 L71 322 L78 315 L78 314 L100 292 L101 292 L104 289 L105 289 L107 287 L108 287 L110 285 L111 285 L113 283 L114 283 L115 282 L116 282 L117 281 L119 281 L120 280 L121 280 L122 279 L125 279 L126 278 L128 278 L129 277 L132 277 L133 276 L135 276 L136 275 L138 275 L139 274 L141 274 L142 273 L143 273 L144 272 L145 272 L146 271 L147 271 L148 270 L149 270 L150 269 L151 269 L152 268 L153 268 L155 266 L156 266 L157 265 L158 265 L159 264 L160 264 L161 263 L162 263 L163 262 L164 262 L166 260 L167 260 L169 258 L170 258 L173 255 L174 255 L176 253 L177 253 L180 250 L181 250 L189 242 L190 242 L192 240 L193 240 L195 242 L195 244 L196 245 L196 247 L197 248 L197 251 L198 252 L198 256 L199 257 L199 260 L200 261 L200 263 L201 264 L201 266 L202 267 L202 269 L203 270 L203 276 L204 277 L204 281 L203 282 L203 294 L202 295 L202 305 L201 306 L201 325 L200 326 L200 334 L199 335 L199 342 L198 343 L198 348 L197 349 L197 353 L198 354 L198 365 L199 366 L199 373 L200 374 L200 384 L201 385 L201 399 L202 400 L202 407 L203 408 L203 413 L204 414 L204 427 L205 428 L205 432 L206 433 L206 436 L207 437 L207 441 L208 442 L208 445 L209 446 L209 449 L210 450 L210 452 L211 453 L211 454 L212 455 L212 458 L213 459 L213 461 L214 462 L214 464 L215 465 L215 468 L216 469 L216 471 L217 472 L217 474 L218 475 L218 478 L219 479 L219 481 L220 482 L220 484 L221 485 L221 486 L222 487 L222 489 L223 490 L223 491 L224 492 L224 494 L225 495 L225 498 L226 499 L226 503 L227 504 L227 507 L228 508 L228 511 L229 512 L229 516 L230 517 L230 520 L231 521 L231 525 L232 526 L232 531 L233 532 L233 535 L234 536 L234 537 L235 538 L235 539 L236 540 L236 542 L237 543 L237 544 L238 545 L238 547 L239 548 L239 550 L240 551 L240 554 L241 555 L241 559 L242 560 L242 565 L243 566 L243 570 L244 571 L244 576 L245 577 L245 583 L246 584 L246 592 L247 593 L247 615 L246 616 L246 624 L245 625 L245 629 L244 630 L244 633 L243 634 L243 637 L242 638 L242 641 L241 642 L239 640 L239 638 L238 637 L238 635 L237 634 L237 633 L236 632 L236 631 L235 630 L235 628 L234 627 L234 626 L233 625 L233 624 L232 623 L232 621 L231 620 L231 619 L230 618 L230 617 L229 616 L229 614 L228 613 L228 612 L227 611 L227 609 L226 608 L226 606 L225 605 L225 603 L224 602 L224 600 L223 599 L223 597 L222 596 L222 593 L221 592 L221 587 L222 586 L222 584 L223 583 L223 581 L224 580 L224 578 L225 577 L225 574 L226 573 L226 570 L227 569 L227 564 L228 563 L228 528 L227 527 L227 521 L226 520 L226 517 L225 516 L225 513 L224 512 L224 511 L223 510 L223 509 L222 508 L222 507 L221 506 L221 505 L219 503 L219 502 L212 495 L211 495 L208 492 L207 492 L206 491 L205 491 L204 490 L203 490 L202 489 L200 489 L199 488 L197 488 L196 487 L181 487 L180 488 L178 488 L177 489 L175 489 L174 490 L173 490 L172 491 L170 491 L169 492 L168 492 L167 493 L166 493 L165 494 L164 494 L162 496 L161 496 L157 500 L157 501 L155 503 L154 502 L154 494 L153 493 L153 491 L152 490 L152 488 L151 487 L151 486 L149 484 L149 483 L148 482 L148 481 L146 479 L146 478 L137 469 L136 469 L135 468 L134 468 L133 467 L132 467 L131 466 L129 466 L128 465 L126 465 L125 464 L121 464 L120 463 L108 463 L107 464 L103 464 L102 465 L99 465 L98 466 L97 466 L96 467 L95 467 L94 468 L92 468 L91 469 L90 469 L89 470 L88 470 L87 471 L85 471 L84 472 L83 472 L82 473 L81 473 L80 474 L79 474 L77 476 L76 476 L73 479 L72 479 L62 489 L62 490 L49 503 L49 504 L45 508 L45 509 L43 511 L43 512 L42 513 L42 514 L41 515 L41 516 L40 517 L40 518 L39 519 L39 520 L38 521 L38 522 L37 523 L37 524 L36 525 L36 526 L35 527 L35 528 L33 530 L33 531 L32 532 L32 533 L31 534 L31 535 L29 537 L29 538 L28 539 L28 540 L27 541 L27 542 L26 543 L26 544 L25 545 L25 546 L24 547 L24 549 L23 550 L23 552 L22 553 L22 555 L21 556 L21 557 L20 558 L20 560 L19 561 L19 563 L18 564 L18 565 L17 566 L17 568 L16 569 L16 571 L15 572 L15 573 L14 574 L14 577 L13 578 L13 584 L12 585 L12 589 L11 590 L11 638 L12 639 L12 642 L13 643 L13 645 L14 646 L14 648 L15 649 L15 651 L16 652 L16 654 L17 655 L17 660 L18 661 L18 664 L19 665 L19 668 L20 669 L20 671 L21 672 L21 675 L22 676 L22 678 L23 679 L23 681 L24 682 L24 684 L25 685 L25 687 L26 688 L26 690 L27 691 L27 693 L28 694 L28 697 L29 698 L29 700 L30 701 L30 704 L31 705 L31 707 L32 708 L32 711 L33 712 L33 720 L34 721 L34 728 L35 729 L35 735 L36 736 L36 741 L37 742 L37 746 L38 747 L38 751 L39 752 L39 754 L40 755 L40 758 L41 759 L41 761 L42 762 L42 763 L43 764 L43 765 L44 766 L44 767 L45 768 L45 770 L46 771 L46 772 L47 773 L47 775 L48 776 L48 777 L49 778 L50 778 L51 779 L53 777 L53 776 L54 775 L54 773 L55 772 L55 768 L56 767 L56 760 L57 759 L57 753 L58 752 L58 749 L59 748 L59 746 L60 745 L60 743 L61 742 L61 741 L62 740 L62 739 L63 738 L63 737 L64 736 L64 735 L65 734 L65 733 L67 731 L67 730 L68 729 L68 728 L69 727 L69 726 L70 725 L70 724 L71 723 L71 722 L74 719 L74 718 L75 717 L76 717 L82 711 L83 711 L86 708 L87 708 L90 705 L91 705 L94 702 L95 702 L98 699 L99 699 L101 697 L102 697 L104 695 L105 695 L106 694 L107 694 L109 692 L110 692 L111 691 L112 691 L113 690 L114 690 L116 688 L117 688 L119 686 L120 686 L121 685 L122 685 L123 684 L124 684 L125 683 L126 683 L127 682 L128 682 L129 681 L130 681 L131 680 L133 680 L134 679 L135 679 L136 678 L137 678 L138 677 L139 677 L140 676 L141 676 L142 675 L143 675 L144 674 L145 674 L146 673 L147 673 L149 671 L150 671 L152 669 L153 669 L155 667 L156 667 L158 665 L159 665 L161 663 L162 663 L164 661 L165 661 L167 659 L168 659 L171 656 L172 656 L178 650 L179 650 L192 637 L192 636 L195 633 L195 632 L198 629 L198 628 L201 625 L201 624 L202 623 L202 622 L204 620 L204 619 L206 617 L206 616 L208 614 L210 616 L210 617 L211 618 L211 619 L212 620 L212 621 L213 622 L213 623 L214 624 L214 625 L215 626 L215 627 L216 628 L216 629 L217 630 L217 632 L218 633 L218 634 L219 635 L219 637 L220 638 L220 639 L221 640 L221 642 L222 643 L222 644 L223 645 L223 646 L224 647 L224 649 L225 650 L225 651 L226 652 L226 655 L227 656 L227 670 L228 671 L228 676 L229 677 L229 680 L230 681 L230 692 L229 693 L229 700 L228 701 L228 709 L227 710 L227 717 L226 718 L226 721 L225 722 L225 723 L224 724 L224 725 L223 726 L223 727 L222 728 L222 730 L221 731 L221 732 L220 733 L220 734 L219 735 L219 736 L218 737 L218 738 L217 739 L217 740 L214 743 L213 743 L212 744 L210 744 L209 745 L208 745 L207 746 L205 746 L204 747 L203 747 L202 748 L201 748 L200 749 L199 749 L198 750 L197 750 L194 753 L194 754 L192 756 L192 757 L190 759 L190 760 L188 762 L188 763 L187 764 L187 765 L185 767 L185 768 L184 769 L184 770 L183 771 L183 772 L182 773 L182 774 L181 775 L181 776 L180 777 L180 778 L179 779 L179 780 L178 781 L178 783 L177 784 L177 786 L176 787 L176 804 L175 805 L175 808 L176 809 L175 810 L175 814 L176 815 L175 816 L176 817 L176 824 L177 825 L177 829 L178 830 L178 832 L179 833 L179 835 L180 836 L180 839 L181 840 L181 843 L182 844 L182 846 L183 847 L183 849 L184 850 L184 851 L186 853 L186 854 L188 856 L188 857 L190 859 L190 860 L192 862 L192 863 L194 865 L194 866 L198 870 L198 871 L199 872 L199 873 L200 874 L200 875 L201 876 L201 881 L202 882 L202 887 L203 888 L203 893 L204 894 L204 898 L205 899 L205 902 L206 903 L206 906 L207 907 L207 911 L208 912 L208 922 L206 924 L205 924 L204 925 L202 925 L201 926 L200 926 L199 927 L198 927 L197 928 L196 928 L195 929 L194 929 L193 930 L192 930 L191 931 L188 931 L187 932 L186 932 L185 931 L182 931 L180 929 L180 928 L179 927 L179 926 L177 924 L177 923 L175 921 L175 920 L171 916 L171 915 L170 914 L169 914 L167 912 L166 912 L164 910 L162 910 L161 909 L160 909 L159 908 L157 908 L156 907 L153 907 L152 906 L134 906 L133 907 L129 907 L128 908 L126 908 L125 909 L123 909 L122 910 L121 910 L120 911 L119 911 L118 912 L117 912 L114 915 L113 915 L111 917 L110 917 L108 919 L107 919 L104 922 L103 922 L99 926 L99 927 L96 930 L96 931 L93 934 L93 935 L90 938 L90 939 L85 944 L85 945 L82 948 L82 949 L80 951 L80 952 L78 954 L78 955 L77 956 L77 957 L76 958 L76 959 L75 960 L75 961 L74 962 L74 963 L73 964 L73 965 L72 966 L72 967 L71 968 L71 969 L70 970 L70 971 L69 972 L69 974 L68 975 L68 976 L67 977 L67 978 L66 979 L66 980 L65 981 L65 983 L64 984 L64 986 L63 987 L63 989 L62 990 L62 992 L61 993 L61 996 L60 997 L60 999 L59 1000 L59 1003 L58 1004 L58 1007 L57 1008 L57 1013 L56 1014 L56 1019 L55 1020 L55 1051 L56 1052 L56 1057 L57 1058 L57 1062 L58 1063 L58 1068 L59 1069 L59 1073 L60 1074 L60 1078 L61 1079 L61 1089 L62 1090 L62 1092 L63 1093 L63 1095 L64 1096 L64 1097 L65 1098 L65 1100 L66 1101 L66 1103 L67 1104 L67 1109 L68 1110 L68 1120 L69 1121 L69 1131 L70 1132 L70 1137 L71 1138 L71 1140 L72 1141 L72 1142 L73 1143 L73 1144 L74 1145 L74 1146 L75 1147 L75 1148 L76 1149 L76 1150 L77 1151 L77 1152 L79 1154 L79 1155 L80 1156 L80 1157 L81 1158 L81 1159 L83 1161 L83 1162 L84 1163 L84 1165 L85 1166 L85 1167 L86 1168 L86 1169 L88 1169 L88 1167 L89 1166 L89 1164 L90 1163 L90 1156 L91 1155 L91 1145 L92 1144 L92 1140 L93 1139 L93 1137 L94 1136 L94 1135 L95 1134 L95 1133 L96 1132 L96 1131 L98 1129 L98 1128 L103 1123 L103 1122 L119 1106 L120 1106 L122 1104 L123 1104 L126 1101 L127 1101 L130 1098 L131 1098 L133 1096 L134 1096 L136 1094 L137 1094 L138 1093 L139 1093 L140 1092 L141 1092 L142 1091 L143 1091 L144 1090 L145 1090 L147 1088 L148 1088 L152 1084 L153 1084 L155 1082 L156 1082 L158 1080 L159 1080 L160 1079 L161 1079 L162 1078 L163 1078 L165 1076 L166 1076 L167 1075 L168 1075 L169 1074 L170 1074 L172 1072 L173 1072 L174 1071 L175 1071 L176 1070 L177 1070 L179 1068 L180 1068 L182 1066 L183 1066 L187 1062 L188 1062 L195 1055 L195 1054 L198 1051 L198 1050 L203 1045 L203 1044 L207 1040 L207 1039 L209 1037 L209 1036 L211 1034 L211 1033 L213 1031 L215 1033 L215 1034 L217 1036 L217 1037 L218 1038 L218 1039 L219 1040 L219 1041 L220 1042 L220 1043 L221 1044 L221 1045 L222 1046 L222 1047 L224 1049 L224 1050 L226 1052 L226 1053 L229 1056 L229 1057 L230 1058 L230 1059 L232 1061 L232 1062 L233 1063 L233 1064 L234 1065 L234 1066 L236 1068 L236 1069 L237 1070 L237 1071 L240 1074 L240 1075 L247 1082 L247 1083 L252 1088 L252 1089 L260 1097 L260 1098 L262 1100 L262 1101 L263 1102 L263 1103 L264 1104 L264 1107 L265 1108 L265 1112 L266 1113 L266 1122 L267 1123 L267 1125 L268 1126 L268 1129 L269 1130 L269 1137 L270 1138 L270 1145 L271 1146 L271 1154 L272 1155 L272 1160 L273 1161 L273 1165 L274 1166 L274 1171 L275 1172 L275 1177 L276 1178 L276 1183 L277 1184 L277 1187 L278 1188 L278 1190 L279 1189 L279 1187 L280 1186 L280 1184 L279 1183 L279 1167 L278 1166 L278 1157 L277 1156 L277 1139 L278 1138 L279 1139 L279 1144 L280 1145 L280 1150 L281 1151 L281 1156 L282 1157 L282 1161 L283 1162 L283 1165 L284 1166 L284 1167 L285 1168 L285 1169 L286 1170 L286 1171 L287 1171 L289 1173 L289 1170 L290 1169 L290 1168 L291 1167 L291 1164 L293 1162 L294 1163 L294 1171 L295 1172 L295 1175 L296 1176 L296 1178 L298 1178 L298 1176 L299 1175 L299 1167 L300 1166 L300 1155 L299 1154 L299 1146 L298 1145 L298 1140 L297 1139 L297 1135 L296 1134 L296 1130 L295 1129 L295 1125 L294 1124 L294 1121 L293 1120 L293 1117 L292 1116 L292 1113 L291 1112 L291 1106 L290 1105 L290 1096 L289 1095 L289 1090 L288 1089 L288 1087 L287 1086 L287 1084 L286 1083 L286 1080 L285 1079 L285 1076 L284 1075 L284 1073 L283 1072 L283 1071 L282 1070 L282 1069 L281 1068 L281 1067 L280 1066 L280 1065 L279 1064 L279 1063 L278 1062 L278 1060 L277 1059 L277 1057 L276 1056 L276 1055 L275 1054 L275 1052 L274 1051 L274 1049 L273 1048 L273 1047 L272 1046 L272 1044 L271 1043 L271 1042 L270 1041 L270 1039 L269 1038 L269 1036 L268 1035 L268 1034 L267 1033 L267 1031 L266 1030 L266 1028 L265 1027 L265 1025 L264 1024 L264 1022 L263 1021 L263 1018 L262 1017 L262 1013 L261 1012 L261 1007 L260 1006 L260 1002 L259 1001 L259 995 L258 994 L258 985 L257 984 L257 976 L256 975 L256 944 L257 943 L257 936 L258 935 L258 932 L259 931 L259 928 L260 927 L260 923 L262 921 L263 922 L264 922 L265 923 L266 923 L268 925 L269 925 L271 927 L272 927 L273 928 L274 928 L275 929 L276 929 L277 930 L278 930 L279 931 L283 931 L284 932 L287 932 L288 933 L294 933 L295 934 L299 934 L300 935 L302 935 L303 936 L307 936 L308 937 L310 937 L311 938 L314 938 L315 939 L317 939 L318 940 L322 940 L323 941 L326 941 L327 942 L332 942 L333 943 L338 943 L339 944 L344 944 L345 945 L349 945 L350 946 L356 946 L357 947 L360 947 L361 948 L364 948 L365 949 L368 949 L369 950 L370 950 L371 951 L373 951 L374 952 L375 952 L376 953 L377 953 L378 954 L380 954 L381 955 L382 955 L383 956 L385 956 L386 957 L388 957 L389 958 L391 958 L392 959 L395 959 L396 960 L398 960 L399 961 L401 961 L402 962 L404 962 L405 963 L406 963 L407 964 L408 964 L409 965 L410 965 L412 967 L413 967 L416 970 L417 970 L420 973 L421 973 L430 982 L430 983 L432 985 L432 986 L433 987 L433 988 L435 990 L435 991 L437 993 L437 994 L439 996 L439 997 L440 998 L440 999 L442 1001 L442 1002 L443 1003 L443 1004 L444 1005 L444 1006 L446 1008 L446 1009 L448 1011 L449 1011 L450 1012 L452 1010 L452 1009 L453 1008 L453 992 L452 991 L452 987 L451 986 L451 982 L450 981 L450 976 L449 975 L449 969 L448 968 L448 935 L447 934 L448 933 L448 931 L447 930 L447 927 L448 926 L448 917 L449 916 L449 910 L450 909 L450 901 L451 900 L451 898 L452 897 L452 893 L453 892 L453 863 L452 862 L452 833 L453 832 L453 825 L452 824 L452 821 L451 820 L451 816 L450 815 L450 811 L449 810 L449 806 L448 805 L448 803 L447 802 L447 800 L446 799 L446 797 L445 796 L445 794 L444 793 L444 791 L443 790 L443 788 L442 787 L442 785 L441 784 L441 782 L440 781 L440 778 L439 777 L439 774 L438 773 L438 770 L437 769 L437 767 L434 764 L434 763 L428 757 L428 756 L426 754 L426 753 L424 751 L424 750 L423 749 L423 748 L422 747 L422 745 L419 742 L419 741 L407 729 L406 729 L401 724 L400 724 L396 720 L395 720 L382 707 L381 707 L374 700 L373 700 L371 698 L370 698 L369 697 L368 697 L366 695 L365 695 L364 694 L363 694 L362 693 L361 693 L360 692 L359 692 L358 691 L357 691 L356 690 L355 690 L354 689 L353 689 L352 688 L351 688 L350 687 L349 687 L348 686 L347 686 L346 685 L344 685 L343 684 L340 684 L339 683 L335 683 L334 682 L330 682 L329 681 L313 681 L312 682 L308 682 L307 683 L304 683 L303 684 L301 684 L300 685 L298 685 L297 686 L296 686 L295 687 L294 687 L293 688 L292 688 L291 689 L290 689 L288 691 L287 691 L285 693 L284 693 L274 703 L274 704 L273 705 L273 706 L272 707 L272 708 L271 709 L271 711 L270 712 L270 714 L269 715 L269 716 L268 717 L268 719 L267 720 L267 722 L266 723 L266 726 L265 727 L265 731 L264 732 L264 737 L263 738 L263 741 L262 742 L262 743 L261 744 L261 745 L258 748 L256 748 L255 747 L254 747 L253 746 L251 746 L250 745 L249 745 L248 744 L247 744 L245 742 L244 742 L243 741 L243 732 L244 731 L244 725 L245 724 L245 720 L246 719 L246 717 L247 716 L247 713 L248 712 L248 710 L249 709 L249 708 L250 707 L250 705 L251 704 L251 702 L252 701 L252 699 L253 698 L253 696 L254 695 L254 694 L255 693 L255 690 L256 689 L256 686 L257 685 L257 683 L258 682 L258 680 L259 679 L259 677 L260 676 L260 675 L261 674 L261 673 L262 672 L262 671 L263 670 L263 669 L265 667 L265 666 L272 659 L273 659 L275 657 L276 657 L288 645 L288 644 L289 643 L289 642 L291 640 L291 639 L292 638 L292 637 L294 635 L294 633 L295 632 L295 630 L296 629 L296 626 L297 625 L297 609 L296 608 L296 607 L291 602 L291 601 L288 598 L288 597 L285 594 L285 593 L284 592 L283 592 L282 591 L279 591 L278 592 L278 602 L279 603 L279 618 L278 619 L278 626 L277 627 L277 630 L276 631 L276 634 L275 635 L275 637 L274 638 L274 640 L273 641 L273 643 L272 644 L272 645 L271 646 L271 647 L270 648 L270 649 L269 650 L268 650 L267 649 L267 639 L266 638 L266 632 L265 631 L265 611 L266 610 L266 606 L265 605 L265 604 L266 603 L266 596 L265 595 L265 572 L264 571 L264 563 L263 562 L263 557 L262 556 L262 552 L261 551 L261 547 L260 546 L260 541 L259 540 L259 535 L258 534 L258 525 L257 524 L257 514 L256 513 L256 499 L257 498 L257 495 L258 494 L258 490 L259 489 L259 484 L260 483 L260 474 L261 473 L261 466 L262 465 L262 462 L263 461 L263 460 L264 459 L264 457 L265 456 L265 454 L266 453 L266 452 L267 451 L267 449 L268 448 L268 447 L269 446 L269 444 L270 443 L270 442 L271 441 L271 439 L272 438 L272 436 L273 435 L273 434 L275 432 L276 432 L280 436 L281 436 L286 441 L287 441 L292 446 L293 446 L296 449 L297 449 L299 451 L300 451 L301 452 L302 452 L303 453 L304 453 L305 454 L306 454 L307 455 L308 455 L309 456 L310 456 L311 457 L312 457 L313 458 L314 458 L315 459 L316 459 L317 460 L318 460 L319 461 L320 461 L321 462 L322 462 L323 463 L324 463 L325 464 L326 464 L327 465 L328 465 L329 466 L331 466 L332 467 L333 467 L335 469 L336 469 L337 470 L338 470 L339 471 L340 471 L341 472 L342 472 L343 473 L344 473 L345 474 L346 474 L347 475 L348 475 L350 477 L352 477 L353 478 L354 478 L355 479 L356 479 L357 480 L358 480 L359 481 L361 481 L362 482 L363 482 L364 483 L367 483 L368 484 L370 484 L371 485 L374 485 L375 486 L377 486 L378 487 L380 487 L381 488 L382 488 L383 489 L384 489 L385 490 L386 490 L387 491 L388 491 L389 492 L390 492 L391 493 L392 493 L393 494 L394 494 L395 495 L396 495 L397 496 L398 496 L400 498 L401 498 L402 499 L403 499 L405 501 L406 501 L407 502 L408 502 L409 503 L410 503 L412 505 L413 505 L415 507 L416 507 L418 509 L419 509 L422 512 L423 512 L430 519 L430 521 L431 522 L431 523 L432 524 L432 525 L433 526 L433 527 L437 531 L437 532 L438 533 L438 537 L439 538 L439 542 L440 543 L440 545 L441 546 L441 549 L442 550 L442 551 L443 552 L445 552 L446 551 L446 550 L448 548 L448 545 L449 544 L449 540 L450 539 L450 530 L451 529 L451 519 L452 518 L452 475 L453 474 L453 469 L454 468 L454 465 L455 464 L455 462 L456 461 L456 459 L457 458 L457 455 L458 454 L458 444 L459 443 L459 426 L460 425 L460 367 L459 366 L459 358 L458 357 L458 354 L457 353 L457 352 L456 351 L456 349 L455 348 L455 346 L454 345 L454 344 L453 343 L453 341 L452 340 L452 338 L451 337 L451 335 L450 334 L450 332 L449 331 L449 329 L448 328 L448 327 L447 326 L447 324 L445 322 L445 321 L443 319 L443 318 L441 316 L441 315 L440 314 L440 313 L438 311 L438 310 L436 308 L436 307 L432 303 L432 302 L416 286 L415 286 L412 283 L411 283 L408 280 L407 280 L404 277 L403 277 L400 274 L399 274 L396 271 L395 271 L392 268 L391 268 L390 267 L389 267 L388 266 L387 266 L386 265 L383 265 L382 264 L379 264 L378 263 L376 263 L375 262 L374 262 L373 261 L371 261 L370 260 L366 260 L365 259 L354 259 L353 260 L347 260 L346 261 L343 261 L342 262 L340 262 L339 263 L337 263 L336 264 L334 264 L333 265 L332 265 L331 266 L330 266 L328 268 L327 268 L323 272 L322 272 L321 273 L321 274 L315 280 L315 281 L313 283 L313 284 L312 285 L312 287 L311 288 L311 293 L310 294 L310 304 L311 305 L311 311 L310 312 L309 311 L308 311 L303 306 L302 306 L301 305 L299 305 L298 304 L274 304 L273 305 L270 305 L269 306 L267 306 L266 307 L265 307 L263 309 L262 309 L253 318 L253 319 L252 320 L252 321 L251 322 L251 324 L250 325 L250 326 L249 327 L249 329 L248 330 L248 332 L247 333 L247 335 L246 336 L246 337 L245 338 L245 339 L244 340 L244 341 L243 342 L243 343 L242 344 L242 345 L241 346 L241 347 L240 348 L240 350 L239 351 L239 355 L238 356 L238 362 L239 363 L239 370 L240 371 L240 373 L241 374 L241 376 L242 377 L242 379 L243 380 L243 381 L244 382 L244 384 L245 385 L245 387 L246 388 L246 389 L247 390 L247 392 L248 393 L248 394 L249 395 L249 397 L251 399 L251 400 L253 402 L253 403 L256 406 L256 407 L258 409 L258 410 L260 412 L260 418 L259 419 L259 423 L258 424 L258 426 L257 427 L257 429 L256 430 L256 432 L255 433 L255 434 L254 435 L254 437 L253 438 L253 440 L252 441 L252 444 L251 445 L251 448 L250 449 L250 452 L249 453 L249 457 L248 458 L248 461 L247 462 L247 465 L246 466 L246 469 L245 470 L245 474 L244 475 L244 480 L243 481 L243 482 L242 483 L240 481 L240 480 L239 479 L239 476 L238 475 L238 472 L237 471 L237 468 L236 467 L236 463 L235 462 L235 459 L234 458 L234 455 L233 454 L233 451 L232 450 L232 447 L231 446 L231 444 L230 443 L230 441 L229 440 L229 439 L228 438 L228 436 L227 435 L227 433 L226 432 L226 428 L225 427 L225 422 L224 421 L224 416 L223 415 L223 397 L222 396 L222 371 L223 370 L223 366 L224 365 L224 360 L225 359 L225 356 L226 355 L226 354 L225 353 L225 343 L224 342 L224 338 L225 337 L225 336 L224 335 L224 334 L225 333 L225 319 L226 318 L226 314 L227 313 L227 311 L228 310 L228 308 L229 307 L229 305 L230 304 L230 301 L231 300 L231 298 L232 297 L232 295 L233 294 L233 293 L234 292 L234 291 L235 290 L235 288 L236 287 L236 283 L237 282 L237 280 L238 279 L238 277 L240 275 L240 274 L241 273 L241 272 L243 270 L243 269 L244 268 L244 267 L245 266 L245 264 L246 263 L246 261 L247 260 L247 258 L248 257 L248 254 L249 253 L249 252 L251 250 L252 250 L254 248 L255 248 L257 246 L257 245 L260 242 L260 241 L262 239 L262 238 L263 237 L263 236 L264 235 L264 234 L265 233 L265 232 L266 231 L266 230 L267 229 L267 227 L268 226 L268 224 L269 223 L269 222 L270 221 L270 219 L271 218 L271 217 L272 216 L272 215 L273 214 L273 213 L274 212 L274 210 L275 209 L275 205 L276 204 L276 202 L277 201 L277 199 L278 198 L278 195 L279 194 L279 187 L280 186 L280 174 L281 173 L281 164 L282 163 L282 156 L283 155 L283 150 L284 149 L284 121 L285 120 L285 117 L286 116 L286 113 L287 112 L287 110 L289 108 L289 107 L290 106 L290 105 L291 104 L291 103 L293 101 L293 100 L294 99 L294 98 L295 97 L295 96 L296 95 L296 94 L297 93 L297 92 L298 91 L298 89 L300 87 L300 85 L301 84 L301 83 L302 82 L302 79 L303 78 L303 77 L304 76 L304 75 L308 71 L308 70 L310 68 L310 67 L311 66 L311 65 L310 65 L309 64 L308 64 L307 65 L306 65 L299 72 L299 73 L292 80 L291 80 L290 81 L289 81 L288 82 L287 82 L284 85 L284 86 L283 87 L283 89 L282 90 L282 92 L281 93 L281 95 L279 97 L279 99 L278 100 L278 101 L277 102 L277 103 L276 104 L276 105 L275 106 L275 107 L274 108 L274 109 L273 110 L273 111 L272 112 L272 113 L271 114 L271 116 L270 117 L270 119 L269 120 L269 124 L268 125 L268 126 L267 127 L266 127 L265 126 L265 125 L264 124 L264 123 L263 122 L263 121 L262 120 L262 119 L261 118 L261 116 L259 114 L259 113 L258 112 L258 111 L257 110 L257 109 L255 107 L255 106 L254 105 L254 104 L252 102 L252 100 L251 99 L251 98 L248 95 L248 93 L247 92 L247 87 L246 86 L246 85 L245 84 L245 83 L240 78 L240 77 L234 71 L234 70 L228 64 L228 63 L218 53 L218 52 L217 51 L217 49 L216 48 L216 47 L215 46 L215 45 L214 44 L214 43 L212 41 L212 40 L209 37 L209 36 L206 33 L206 32 L203 29 L203 28 L201 26 L201 25 L199 23 L199 22 L198 21 L198 20 L196 18 L196 17 L195 16 L195 15 L194 14 L194 13 L193 12 L192 12 Z M327 0 L328 0 L331 3 L332 3 L335 6 L336 6 L337 7 L342 7 L343 8 L346 8 L347 7 L355 7 L356 8 L357 8 L358 9 L359 9 L360 10 L362 10 L363 11 L364 11 L365 12 L366 12 L367 13 L368 13 L369 14 L371 14 L372 15 L374 15 L375 16 L380 16 L381 17 L382 17 L383 16 L389 16 L390 15 L395 15 L396 14 L400 14 L401 13 L402 13 L403 12 L404 12 L405 11 L406 11 L407 10 L408 10 L410 12 L411 12 L413 14 L414 14 L415 15 L416 15 L418 17 L418 18 L419 19 L420 19 L422 21 L422 22 L425 25 L425 26 L426 27 L426 28 L428 30 L428 31 L429 32 L429 33 L430 34 L430 36 L431 37 L431 38 L432 39 L432 41 L433 42 L433 43 L434 44 L434 47 L435 48 L435 51 L434 52 L434 55 L433 56 L433 57 L432 58 L432 59 L431 60 L431 62 L430 63 L430 65 L429 66 L429 73 L427 75 L426 75 L425 76 L424 76 L423 77 L422 77 L419 80 L419 81 L418 82 L418 88 L417 89 L418 90 L418 96 L419 97 L419 99 L420 100 L420 101 L421 102 L421 103 L422 104 L423 104 L425 106 L425 107 L427 109 L427 110 L428 111 L428 112 L430 114 L430 115 L432 117 L433 117 L434 118 L438 118 L439 119 L441 119 L442 120 L445 120 L446 119 L447 119 L448 118 L449 118 L451 116 L451 115 L452 114 L452 113 L454 111 L454 109 L455 108 L455 107 L456 106 L456 102 L457 101 L457 85 L456 84 L456 82 L455 81 L455 80 L450 75 L449 75 L448 74 L447 74 L446 73 L444 73 L443 72 L442 72 L441 71 L440 71 L439 70 L439 69 L441 67 L445 67 L446 68 L447 68 L448 69 L450 69 L451 70 L452 70 L453 71 L454 71 L458 75 L458 76 L463 81 L463 82 L468 87 L470 87 L471 88 L471 70 L470 69 L469 69 L468 68 L467 68 L466 67 L465 67 L464 66 L463 66 L460 63 L459 63 L452 56 L452 55 L451 54 L451 53 L449 51 L449 48 L448 47 L448 45 L447 44 L447 42 L445 40 L445 38 L444 37 L444 36 L443 35 L443 34 L442 33 L442 30 L441 29 L441 27 L440 26 L440 23 L439 22 L439 20 L438 19 L438 18 L436 16 L436 15 L438 13 L439 13 L440 12 L442 12 L444 10 L445 10 L446 9 L447 9 L449 7 L450 7 L451 6 L453 6 L454 5 L458 5 L459 6 L460 6 L461 7 L461 8 L460 9 L460 11 L457 14 L457 15 L456 16 L456 17 L454 19 L454 23 L453 24 L453 29 L454 30 L454 32 L455 33 L455 34 L457 36 L457 37 L459 39 L459 40 L460 41 L461 41 L465 45 L466 45 L468 47 L469 47 L470 48 L471 48 L471 0 L470 1 L467 1 L466 0 L437 0 L436 1 L435 0 L432 0 L431 1 L430 1 L429 0 L399 0 L399 3 L400 4 L400 8 L398 10 L396 10 L395 11 L391 11 L390 12 L386 12 L385 13 L379 13 L378 12 L376 12 L375 11 L374 11 L372 9 L371 9 L370 8 L372 6 L375 6 L376 5 L379 5 L384 0 L348 0 L349 1 L349 2 L348 3 L346 1 L345 1 L344 2 L343 1 L343 0 Z M257 0 L257 3 L258 4 L258 6 L259 7 L259 8 L260 8 L261 9 L264 9 L265 10 L273 10 L274 11 L283 11 L284 12 L287 12 L288 11 L292 11 L293 10 L295 10 L296 9 L297 9 L298 8 L299 8 L300 7 L301 7 L304 4 L305 4 L308 1 L309 1 L310 0 L299 0 L297 2 L295 2 L293 4 L292 4 L291 5 L290 4 L284 4 L282 2 L284 0 L285 0 L274 0 L276 2 L276 3 L278 5 L276 7 L274 7 L273 6 L271 6 L270 5 L267 5 L266 4 L265 4 L261 0 Z M61 0 L61 1 L60 2 L60 3 L59 4 L59 5 L57 7 L57 8 L51 14 L50 14 L46 18 L45 18 L42 21 L40 21 L39 22 L38 21 L38 18 L37 18 L35 16 L35 13 L36 12 L36 11 L35 10 L35 9 L32 6 L31 6 L30 5 L29 5 L28 6 L27 6 L27 7 L25 9 L24 9 L23 8 L22 8 L21 7 L20 7 L20 8 L21 8 L22 9 L25 9 L30 14 L30 15 L31 16 L31 17 L32 18 L32 19 L34 21 L37 21 L38 22 L38 23 L34 27 L33 27 L32 28 L31 28 L30 29 L29 29 L28 30 L27 30 L26 31 L25 31 L24 30 L20 30 L19 31 L16 31 L15 30 L14 30 L13 29 L11 29 L6 24 L6 23 L4 21 L4 20 L3 19 L3 18 L2 17 L2 15 L1 14 L1 12 L0 11 L0 8 L0 42 L1 43 L1 44 L5 48 L4 49 L2 49 L1 48 L0 48 L0 63 L0 62 L1 61 L1 60 L4 57 L5 57 L6 58 L10 58 L11 59 L14 59 L15 60 L16 60 L17 61 L19 61 L20 62 L21 62 L22 63 L24 63 L25 64 L32 64 L34 62 L35 62 L36 61 L37 61 L38 60 L39 60 L40 59 L43 59 L44 58 L48 58 L49 57 L50 57 L51 56 L51 52 L52 51 L52 28 L53 27 L53 20 L56 17 L56 16 L61 11 L61 10 L63 8 L63 7 L64 6 L64 5 L65 4 L65 1 L66 0 Z M13 0 L14 0 Z M0 0 L3 0 L4 1 L4 4 L2 6 L2 7 L3 8 L3 9 L5 11 L6 11 L11 16 L12 16 L16 20 L16 21 L21 26 L22 26 L23 27 L24 27 L26 25 L26 24 L27 23 L27 22 L24 22 L23 21 L23 17 L22 17 L18 13 L17 13 L13 9 L12 9 L11 8 L10 8 L7 5 L6 5 L5 4 L5 3 L4 2 L5 1 L4 0 Z " fill="black"/></svg>