<svg width="443" height="451" xmlns="http://www.w3.org/2000/svg"><path d="M206 11 L204 13 L203 13 L202 14 L201 14 L200 15 L193 15 L192 16 L184 16 L183 17 L181 17 L180 18 L178 18 L177 19 L176 19 L175 20 L173 20 L172 21 L162 21 L161 22 L160 22 L156 26 L155 26 L154 27 L154 28 L152 30 L149 30 L148 31 L140 31 L136 35 L135 35 L133 37 L131 37 L130 38 L128 38 L127 39 L126 39 L123 42 L122 42 L119 45 L118 45 L115 48 L112 48 L110 50 L110 52 L101 61 L100 61 L98 63 L97 63 L94 66 L94 67 L91 70 L91 71 L89 73 L89 74 L88 75 L88 76 L86 78 L84 78 L83 79 L83 80 L82 81 L82 82 L81 83 L81 85 L80 86 L80 88 L79 89 L79 90 L77 92 L77 93 L75 95 L75 96 L74 97 L74 98 L73 99 L73 100 L72 101 L72 102 L71 103 L71 105 L70 106 L70 107 L69 108 L69 109 L67 111 L67 112 L66 113 L66 114 L65 115 L65 116 L64 117 L64 118 L63 119 L63 121 L62 122 L62 124 L61 125 L61 128 L60 129 L60 139 L59 140 L59 142 L58 143 L58 145 L57 146 L57 149 L56 150 L56 157 L55 158 L55 163 L54 164 L54 168 L53 169 L53 183 L52 184 L52 210 L53 211 L53 214 L54 215 L54 225 L55 226 L55 228 L56 229 L56 231 L57 232 L57 241 L58 242 L58 248 L59 249 L59 253 L60 254 L60 256 L58 258 L57 258 L54 261 L53 261 L50 264 L49 264 L46 267 L45 267 L43 269 L42 269 L35 276 L34 276 L29 281 L29 282 L21 290 L21 291 L19 293 L19 294 L18 295 L18 296 L17 297 L17 298 L16 299 L16 301 L15 302 L15 303 L14 304 L14 306 L13 307 L13 310 L12 311 L12 313 L11 314 L11 338 L12 339 L12 353 L13 354 L13 356 L14 357 L14 360 L15 361 L15 362 L16 363 L16 364 L17 365 L17 366 L19 368 L19 369 L22 372 L22 373 L24 375 L24 376 L27 379 L27 380 L30 383 L30 384 L33 387 L34 387 L39 392 L40 392 L43 395 L44 395 L47 398 L48 398 L50 400 L51 400 L52 401 L53 401 L54 402 L55 402 L56 403 L57 403 L59 405 L60 405 L61 406 L62 406 L63 407 L64 407 L65 408 L66 408 L67 409 L68 409 L69 410 L70 410 L71 411 L72 411 L73 412 L75 412 L76 413 L77 413 L78 414 L79 414 L80 415 L82 415 L83 416 L84 416 L86 418 L87 418 L88 419 L89 419 L90 420 L91 420 L92 421 L95 421 L96 422 L101 422 L102 423 L105 423 L106 424 L108 424 L109 425 L111 425 L112 426 L114 426 L115 427 L118 427 L119 428 L127 428 L128 429 L142 429 L143 430 L144 430 L145 429 L146 430 L160 430 L161 431 L167 431 L168 430 L176 430 L177 429 L183 429 L184 428 L185 429 L186 428 L191 428 L192 427 L196 427 L197 426 L199 426 L200 425 L206 425 L207 424 L215 424 L216 423 L217 423 L219 421 L220 421 L221 420 L224 420 L225 419 L229 419 L230 418 L233 418 L234 417 L240 417 L241 416 L248 416 L249 415 L262 415 L263 414 L287 414 L288 415 L297 415 L298 416 L303 416 L304 417 L307 417 L308 418 L313 418 L314 419 L317 419 L318 420 L320 420 L321 421 L324 421 L326 423 L331 423 L332 424 L334 424 L335 425 L337 425 L338 426 L339 426 L340 427 L342 427 L343 428 L345 428 L346 429 L347 429 L348 430 L349 430 L350 431 L351 431 L352 432 L353 432 L354 433 L356 433 L357 434 L358 434 L359 435 L360 435 L361 436 L362 436 L363 437 L366 437 L367 438 L377 438 L378 439 L380 439 L381 438 L381 437 L382 436 L382 434 L377 434 L376 433 L372 433 L371 432 L367 432 L366 431 L365 431 L364 430 L363 430 L362 429 L363 428 L367 428 L368 429 L374 429 L375 430 L377 430 L381 426 L384 426 L385 427 L385 425 L381 421 L380 421 L379 420 L378 420 L377 419 L376 419 L375 418 L374 418 L373 417 L372 417 L371 416 L370 416 L369 415 L368 415 L367 414 L366 414 L365 413 L364 413 L363 412 L362 412 L361 411 L360 411 L359 410 L357 410 L356 409 L354 409 L353 408 L352 408 L351 407 L349 407 L348 406 L345 406 L344 405 L341 405 L340 404 L336 404 L335 403 L332 403 L331 402 L328 402 L327 401 L323 401 L322 400 L320 400 L319 399 L315 399 L314 398 L310 398 L309 397 L301 397 L300 396 L294 396 L293 395 L287 395 L286 394 L269 394 L268 395 L257 395 L256 396 L252 396 L251 397 L248 397 L247 398 L243 398 L242 399 L235 399 L234 400 L229 400 L228 401 L221 401 L220 402 L216 402 L215 403 L212 403 L211 404 L207 404 L206 405 L202 405 L201 406 L198 406 L197 407 L191 407 L190 408 L184 408 L183 409 L176 409 L175 410 L165 410 L164 411 L149 411 L148 410 L140 410 L139 409 L134 409 L133 408 L128 408 L127 407 L123 407 L122 406 L118 406 L117 405 L112 405 L111 404 L108 404 L107 403 L105 403 L104 402 L102 402 L101 401 L99 401 L98 400 L96 400 L95 399 L94 399 L93 398 L91 398 L90 397 L89 397 L88 396 L87 396 L86 395 L85 395 L84 394 L83 394 L82 393 L80 393 L79 392 L78 392 L77 391 L76 391 L75 390 L74 390 L73 389 L72 389 L70 387 L69 387 L68 386 L67 386 L65 384 L64 384 L62 382 L61 382 L59 380 L58 380 L56 378 L55 378 L53 376 L52 376 L42 366 L42 365 L39 362 L39 361 L38 360 L38 359 L37 358 L37 357 L36 356 L36 354 L35 353 L35 352 L34 351 L34 348 L33 347 L33 346 L32 345 L32 342 L31 341 L31 339 L30 338 L30 323 L31 322 L31 318 L32 317 L32 314 L33 313 L33 312 L34 311 L34 309 L35 308 L35 307 L36 306 L36 305 L37 304 L37 303 L38 302 L38 301 L40 299 L40 298 L45 293 L46 293 L48 291 L49 291 L51 289 L51 288 L62 277 L63 277 L66 274 L68 276 L68 277 L70 279 L70 280 L73 283 L73 284 L75 286 L75 287 L77 289 L77 290 L78 291 L78 292 L80 294 L80 295 L83 298 L83 299 L85 301 L85 302 L87 304 L87 305 L90 308 L90 309 L94 313 L94 314 L98 318 L98 319 L112 333 L113 333 L117 337 L118 337 L120 339 L121 339 L122 340 L123 340 L125 342 L126 342 L127 343 L128 343 L129 344 L130 344 L132 346 L133 346 L134 347 L135 347 L137 349 L138 349 L140 351 L141 351 L143 353 L144 353 L145 354 L146 354 L147 355 L148 355 L149 356 L150 356 L151 357 L152 357 L153 358 L155 358 L156 359 L157 359 L158 360 L160 360 L161 361 L162 361 L163 362 L165 362 L166 363 L169 363 L170 364 L174 364 L175 365 L179 365 L180 366 L181 366 L183 368 L184 368 L185 369 L187 369 L188 370 L189 370 L190 371 L192 371 L193 372 L195 372 L196 373 L199 373 L200 374 L204 374 L205 375 L215 375 L216 376 L220 376 L221 375 L259 375 L260 374 L268 374 L269 373 L271 373 L272 372 L274 372 L275 371 L279 371 L280 372 L295 372 L296 371 L299 371 L300 370 L302 370 L303 369 L304 369 L305 368 L306 368 L307 367 L308 367 L309 366 L313 366 L314 365 L318 365 L319 364 L321 364 L322 363 L325 363 L326 362 L327 362 L328 361 L330 361 L331 360 L332 360 L333 359 L334 359 L335 358 L336 358 L337 357 L338 357 L340 355 L341 355 L342 354 L343 354 L345 352 L346 352 L348 350 L349 350 L350 349 L351 349 L352 348 L353 348 L354 347 L356 347 L369 334 L370 334 L371 333 L372 333 L373 332 L375 332 L376 331 L378 331 L379 330 L380 330 L389 321 L389 320 L390 319 L390 318 L391 317 L391 316 L392 315 L392 313 L393 312 L393 311 L395 309 L395 308 L396 307 L396 306 L397 305 L397 304 L399 302 L399 301 L400 300 L400 299 L401 298 L401 297 L403 295 L403 294 L404 293 L404 292 L406 290 L406 289 L407 288 L407 287 L408 286 L408 285 L409 284 L409 283 L410 282 L410 281 L411 280 L411 279 L412 278 L412 277 L413 276 L413 275 L414 274 L414 273 L415 272 L415 271 L416 270 L416 269 L418 267 L418 265 L419 264 L419 261 L420 260 L420 258 L421 257 L421 256 L422 255 L422 250 L423 249 L423 244 L424 243 L424 236 L425 235 L425 232 L426 231 L426 229 L427 228 L427 223 L428 222 L428 213 L429 212 L429 199 L428 198 L428 180 L431 177 L431 176 L432 175 L430 173 L428 173 L426 171 L426 162 L425 161 L425 157 L424 156 L424 150 L423 149 L423 144 L422 143 L422 139 L421 138 L421 135 L420 134 L420 132 L419 131 L419 129 L418 128 L418 126 L417 125 L417 124 L416 123 L416 122 L415 121 L415 120 L414 119 L414 118 L413 117 L413 115 L412 114 L412 113 L411 112 L411 111 L408 108 L408 107 L407 106 L407 104 L406 103 L406 101 L405 100 L405 99 L404 98 L404 96 L403 95 L403 94 L402 93 L402 92 L401 91 L401 90 L400 89 L400 88 L399 87 L399 86 L393 80 L393 79 L389 75 L389 74 L387 72 L387 71 L383 67 L383 66 L379 62 L379 61 L374 56 L374 55 L366 47 L365 47 L363 45 L362 45 L361 44 L360 44 L358 42 L357 42 L356 41 L355 41 L354 40 L352 40 L351 39 L350 39 L349 38 L348 38 L347 37 L346 37 L345 36 L344 36 L343 35 L342 35 L341 34 L335 34 L334 33 L333 33 L331 31 L330 31 L329 30 L328 30 L327 29 L326 29 L325 28 L323 28 L322 27 L320 27 L319 26 L316 26 L315 25 L313 25 L312 24 L310 24 L309 23 L307 23 L306 22 L304 22 L303 21 L300 21 L299 20 L297 20 L296 19 L294 19 L293 18 L290 18 L289 17 L276 17 L274 15 L273 15 L272 14 L267 14 L266 15 L244 15 L242 13 L242 12 L241 11 L239 11 L238 12 L237 12 L236 13 L218 13 L217 14 L213 14 L212 15 L211 15 L210 14 L210 13 L208 11 Z " fill="black"/></svg>