<svg width="445" height="353" xmlns="http://www.w3.org/2000/svg"><path d="M427 314 L426 315 L408 315 L407 316 L400 316 L399 317 L395 317 L394 318 L391 318 L390 319 L387 319 L386 320 L382 320 L381 321 L374 321 L373 320 L370 320 L369 319 L367 319 L366 318 L364 318 L363 317 L362 317 L361 316 L354 316 L353 317 L349 317 L348 318 L346 318 L345 319 L343 319 L342 320 L341 320 L340 321 L338 321 L337 322 L336 322 L334 324 L333 324 L332 325 L331 325 L328 328 L327 328 L323 332 L322 332 L315 339 L314 339 L310 343 L310 345 L311 346 L313 346 L314 345 L320 345 L321 344 L322 344 L323 345 L324 345 L325 344 L339 344 L340 343 L344 343 L345 342 L348 342 L349 341 L354 341 L355 342 L356 342 L359 345 L360 345 L362 347 L363 347 L364 348 L366 348 L367 349 L369 349 L370 350 L372 350 L373 351 L376 351 L377 352 L389 352 L387 350 L387 349 L388 348 L390 350 L391 350 L392 351 L393 351 L394 352 L444 352 L444 315 L443 315 L442 314 Z M14 176 Z M169 11 L168 12 L167 12 L166 13 L165 13 L163 15 L162 15 L160 17 L160 18 L157 21 L157 22 L156 23 L156 25 L155 26 L155 28 L154 29 L154 32 L153 33 L153 47 L152 48 L150 48 L149 47 L139 47 L138 48 L137 48 L136 49 L135 49 L129 55 L129 56 L128 57 L128 58 L127 59 L128 60 L128 61 L130 63 L130 64 L141 75 L141 76 L142 77 L141 78 L139 78 L138 77 L137 77 L136 76 L135 76 L133 74 L132 74 L130 72 L129 72 L128 71 L127 71 L126 70 L125 70 L124 69 L122 69 L121 68 L119 68 L118 67 L117 67 L116 66 L114 66 L113 65 L108 65 L107 64 L85 64 L84 65 L81 65 L80 66 L79 66 L78 67 L77 67 L76 68 L75 68 L73 70 L72 70 L69 73 L68 73 L64 77 L64 78 L63 79 L63 81 L65 83 L65 84 L69 88 L69 89 L75 95 L75 96 L81 102 L82 102 L86 106 L87 106 L91 110 L91 112 L89 114 L87 114 L86 113 L84 113 L83 114 L77 114 L76 115 L73 115 L72 116 L70 116 L69 117 L67 117 L66 118 L64 118 L63 119 L62 119 L61 120 L59 120 L58 121 L56 121 L55 122 L53 122 L52 123 L51 123 L50 124 L49 124 L48 125 L47 125 L45 127 L43 127 L42 128 L41 128 L38 131 L37 131 L35 133 L34 133 L34 134 L32 136 L31 136 L29 138 L28 138 L27 139 L26 139 L25 140 L24 140 L23 141 L22 141 L20 143 L20 144 L18 146 L18 147 L17 148 L17 149 L16 150 L16 151 L15 152 L15 153 L12 156 L12 157 L11 158 L11 159 L10 160 L10 162 L12 164 L12 165 L13 166 L13 167 L22 176 L23 176 L26 179 L27 179 L29 181 L30 181 L32 183 L33 183 L34 184 L35 184 L36 185 L37 185 L38 186 L39 186 L40 187 L42 187 L43 188 L44 188 L45 189 L47 189 L48 190 L50 190 L51 191 L53 191 L54 192 L56 192 L57 193 L58 193 L59 194 L61 194 L62 195 L64 195 L66 197 L64 199 L63 199 L58 204 L57 204 L57 205 L51 211 L51 212 L48 215 L48 216 L46 218 L46 219 L45 220 L45 221 L44 222 L44 227 L43 228 L43 230 L42 231 L42 233 L41 234 L41 235 L40 236 L40 237 L39 238 L39 239 L38 240 L38 244 L37 245 L37 250 L36 251 L36 255 L37 256 L37 262 L38 263 L38 266 L39 267 L39 269 L40 270 L40 274 L41 275 L41 276 L42 277 L42 279 L44 281 L46 281 L47 282 L49 282 L50 283 L55 283 L56 284 L66 284 L67 285 L105 285 L106 284 L110 284 L111 283 L116 283 L117 282 L118 282 L119 281 L121 281 L122 280 L123 280 L124 279 L125 279 L126 278 L128 278 L129 277 L132 277 L133 276 L137 276 L138 275 L141 275 L142 274 L144 274 L145 273 L146 273 L147 272 L148 272 L150 270 L151 270 L153 268 L155 270 L155 275 L156 276 L156 280 L157 281 L157 287 L158 288 L158 291 L159 292 L159 294 L160 295 L160 296 L161 297 L161 299 L162 300 L162 301 L163 302 L163 303 L166 306 L166 307 L168 309 L168 310 L170 312 L170 313 L172 315 L172 316 L183 327 L184 327 L186 329 L187 329 L190 332 L191 332 L198 339 L199 339 L200 340 L202 340 L203 341 L215 341 L216 340 L217 340 L218 339 L219 339 L220 338 L221 338 L222 337 L223 337 L224 336 L225 336 L226 335 L227 335 L229 333 L230 333 L231 332 L231 331 L232 330 L233 330 L237 326 L238 326 L241 323 L242 323 L245 320 L246 320 L251 315 L251 314 L254 311 L254 310 L257 307 L257 306 L258 305 L258 304 L260 302 L260 301 L261 300 L261 299 L262 298 L262 297 L263 296 L263 295 L265 293 L265 292 L266 291 L266 290 L267 289 L267 287 L268 286 L268 285 L269 284 L269 282 L270 281 L270 276 L271 275 L271 269 L272 268 L272 265 L274 263 L280 263 L281 262 L287 262 L288 261 L289 261 L295 267 L296 267 L297 268 L298 268 L299 269 L300 269 L301 270 L302 270 L303 271 L304 271 L305 272 L306 272 L307 273 L309 273 L310 274 L311 274 L312 275 L314 275 L315 276 L317 276 L318 277 L319 277 L320 278 L322 278 L323 279 L325 279 L326 280 L328 280 L329 281 L332 281 L333 282 L336 282 L337 283 L341 283 L342 284 L345 284 L346 285 L367 285 L368 286 L372 286 L373 285 L375 285 L376 284 L377 284 L377 283 L378 282 L378 281 L379 280 L379 279 L380 278 L380 277 L381 276 L381 274 L382 273 L382 270 L383 269 L383 266 L384 265 L384 245 L385 244 L389 244 L390 243 L402 243 L403 242 L410 242 L411 241 L418 241 L419 240 L425 240 L426 239 L427 239 L429 237 L429 235 L431 233 L431 232 L432 231 L432 229 L433 228 L433 223 L432 222 L432 218 L431 217 L431 215 L430 214 L430 213 L429 212 L429 210 L427 208 L427 206 L425 204 L425 203 L424 202 L424 200 L423 199 L423 198 L422 197 L422 196 L415 189 L415 188 L412 185 L412 184 L410 182 L410 181 L407 178 L407 177 L406 176 L405 176 L400 171 L399 171 L396 168 L395 168 L393 166 L392 166 L390 164 L389 164 L386 161 L387 160 L388 160 L390 158 L391 158 L392 157 L393 157 L395 155 L396 155 L403 148 L404 148 L404 147 L405 146 L406 146 L412 140 L412 139 L414 137 L414 136 L415 135 L415 130 L414 129 L414 128 L411 125 L411 124 L402 115 L401 115 L399 113 L398 113 L396 111 L395 111 L393 109 L392 109 L390 107 L389 107 L388 106 L387 106 L385 104 L384 104 L383 103 L382 103 L381 102 L379 102 L378 101 L376 101 L375 100 L372 100 L371 99 L368 99 L367 98 L365 98 L364 97 L362 97 L361 96 L359 96 L358 95 L355 95 L354 94 L347 94 L346 93 L345 93 L344 94 L343 93 L341 93 L340 94 L332 94 L331 95 L328 95 L327 96 L326 96 L325 97 L323 97 L322 98 L321 98 L320 99 L319 99 L318 100 L317 100 L315 102 L314 102 L313 103 L311 103 L310 102 L310 101 L309 100 L311 98 L312 98 L313 97 L314 97 L315 96 L316 96 L317 95 L319 95 L320 94 L321 94 L326 89 L326 88 L327 87 L327 85 L328 84 L328 83 L329 82 L329 81 L330 80 L330 79 L331 78 L331 77 L332 76 L332 70 L328 66 L327 66 L326 65 L324 65 L323 64 L318 64 L317 63 L308 63 L306 61 L306 60 L307 59 L307 55 L308 54 L308 47 L307 46 L307 39 L306 38 L306 37 L305 36 L305 34 L302 31 L302 30 L301 30 L297 26 L296 26 L295 25 L288 25 L287 26 L286 26 L285 27 L284 27 L279 32 L279 33 L274 38 L273 38 L271 36 L271 35 L269 33 L269 32 L264 27 L263 27 L261 25 L254 25 L252 27 L251 27 L248 30 L248 31 L247 32 L247 33 L246 34 L246 36 L245 37 L245 38 L244 39 L244 41 L243 42 L243 44 L242 45 L242 47 L241 48 L241 49 L239 51 L239 52 L238 53 L237 53 L236 54 L236 55 L233 58 L233 61 L232 62 L224 62 L223 61 L224 60 L224 59 L226 57 L226 56 L227 55 L227 54 L228 53 L228 40 L227 39 L227 32 L228 31 L228 27 L227 26 L227 23 L225 21 L225 20 L222 17 L220 17 L219 16 L211 16 L210 17 L204 17 L203 18 L202 18 L200 20 L199 20 L195 24 L193 24 L190 21 L189 21 L186 18 L186 17 L184 15 L183 15 L180 12 L178 12 L177 11 Z M370 0 L370 2 L369 3 L369 8 L368 9 L368 12 L367 13 L367 16 L366 17 L366 21 L365 22 L365 34 L366 35 L366 36 L368 38 L371 38 L372 37 L372 36 L374 34 L374 33 L375 32 L375 31 L376 30 L376 29 L377 28 L377 27 L380 24 L380 23 L383 20 L383 19 L392 10 L392 9 L401 0 L383 0 L382 1 L382 3 L384 3 L386 5 L386 6 L382 10 L381 10 L379 12 L378 12 L377 13 L376 12 L376 9 L377 8 L377 7 L378 6 L378 5 L379 4 L379 2 L380 1 L380 0 Z M19 0 L21 0 Z " fill="black"/></svg>