<svg width="759" height="1173" xmlns="http://www.w3.org/2000/svg"><path d="M0 1130 L0 1136 L0 1133 L1 1132 L1 1131 Z M6 1091 L5 1092 L3 1092 L2 1093 L1 1093 L0 1094 L0 1098 L2 1096 L3 1096 L4 1095 L5 1095 L6 1094 L7 1094 L8 1095 L6 1097 L5 1097 L2 1100 L1 1100 L0 1101 L0 1106 L3 1103 L4 1103 L10 1097 L10 1096 L11 1095 L11 1094 L12 1093 L12 1092 L11 1091 Z M40 935 L38 937 L37 937 L37 938 L36 939 L36 942 L35 943 L35 947 L34 948 L34 949 L35 950 L35 951 L34 952 L32 950 L32 949 L31 948 L31 947 L28 944 L27 944 L26 943 L24 943 L23 944 L22 944 L22 945 L21 946 L21 948 L22 949 L22 951 L21 952 L21 953 L20 954 L20 961 L19 962 L12 962 L11 963 L10 963 L8 965 L8 970 L9 971 L9 972 L10 973 L10 974 L9 975 L8 975 L7 976 L6 976 L5 977 L4 977 L3 978 L3 979 L2 980 L2 981 L1 982 L1 983 L0 984 L0 1016 L1 1017 L1 1018 L0 1019 L0 1047 L1 1047 L2 1046 L4 1046 L5 1045 L6 1045 L7 1044 L9 1044 L10 1043 L11 1043 L12 1042 L13 1042 L17 1038 L17 1037 L18 1036 L18 1033 L15 1030 L14 1030 L13 1031 L12 1031 L9 1034 L8 1034 L6 1032 L6 1029 L5 1028 L5 1027 L4 1026 L4 1022 L5 1021 L6 1021 L7 1020 L10 1020 L11 1021 L15 1021 L16 1022 L20 1022 L21 1021 L27 1021 L28 1020 L29 1020 L31 1018 L31 1015 L27 1011 L18 1011 L17 1010 L19 1008 L21 1008 L22 1007 L30 1007 L31 1006 L34 1006 L35 1005 L36 1005 L37 1004 L37 1003 L34 1000 L34 999 L32 997 L32 995 L33 994 L34 995 L40 995 L43 992 L43 990 L45 988 L45 987 L46 986 L46 983 L43 980 L41 980 L39 978 L39 976 L41 974 L41 973 L42 972 L42 971 L43 970 L43 969 L44 968 L44 966 L43 966 L42 965 L43 964 L44 964 L45 963 L46 963 L48 961 L49 961 L50 960 L51 960 L53 958 L53 954 L51 952 L45 952 L44 951 L45 950 L45 949 L47 947 L47 946 L49 944 L49 942 L50 941 L50 938 L49 937 L49 936 L48 935 Z M0 917 L0 927 L2 925 L2 920 L1 919 L1 918 Z M4 862 L4 864 L3 865 L2 864 L2 863 L0 863 L0 877 L6 871 L6 870 L7 869 L7 868 L8 867 L8 864 L7 863 L6 863 L5 862 Z M88 21 L87 22 L85 22 L83 24 L80 24 L79 25 L67 25 L66 26 L64 26 L61 29 L61 30 L60 31 L60 33 L59 34 L59 35 L60 36 L60 39 L61 40 L61 41 L62 42 L62 43 L64 45 L64 46 L68 50 L69 50 L72 53 L72 56 L71 57 L71 61 L72 62 L72 63 L76 67 L74 69 L73 69 L72 70 L71 70 L70 71 L68 71 L67 72 L66 72 L65 73 L64 73 L63 74 L61 74 L60 75 L59 75 L58 76 L56 76 L55 77 L53 77 L52 78 L51 78 L50 79 L49 79 L48 80 L44 80 L43 81 L41 81 L40 80 L36 80 L34 78 L32 78 L29 75 L28 75 L23 70 L23 68 L22 67 L22 66 L21 65 L21 63 L22 62 L22 60 L23 59 L23 58 L24 57 L24 56 L25 55 L25 50 L24 49 L24 47 L23 46 L23 44 L21 42 L21 41 L19 39 L18 39 L16 37 L15 37 L14 36 L13 36 L12 35 L10 35 L9 34 L7 34 L6 33 L0 33 L0 74 L3 74 L4 73 L5 73 L6 72 L8 72 L10 70 L11 70 L12 69 L14 69 L20 75 L20 76 L24 80 L24 81 L26 83 L26 84 L25 85 L24 85 L23 86 L22 86 L21 87 L17 87 L16 88 L13 88 L12 89 L8 89 L7 90 L4 90 L3 91 L0 91 L0 102 L2 102 L3 101 L4 101 L5 100 L9 100 L10 99 L13 99 L14 100 L13 101 L12 101 L11 102 L10 102 L9 103 L8 103 L7 104 L6 104 L4 106 L3 106 L0 109 L0 212 L2 214 L2 204 L3 203 L3 202 L5 200 L5 199 L13 191 L14 191 L17 188 L18 188 L20 186 L21 186 L34 173 L34 172 L36 170 L36 169 L38 167 L39 167 L40 168 L40 174 L41 175 L41 190 L42 191 L42 198 L43 199 L43 220 L42 221 L42 222 L41 223 L41 224 L40 225 L40 226 L39 227 L39 228 L38 229 L38 231 L37 232 L37 237 L36 238 L36 247 L37 248 L37 255 L38 256 L38 264 L37 265 L37 267 L36 268 L36 269 L35 270 L35 272 L34 273 L34 276 L33 277 L33 282 L32 283 L32 303 L31 304 L30 304 L29 303 L28 303 L19 294 L19 293 L16 290 L16 289 L15 288 L15 287 L14 286 L14 285 L13 284 L13 283 L12 282 L12 281 L11 280 L11 278 L10 277 L10 276 L9 275 L9 274 L8 273 L8 271 L7 271 L6 272 L6 273 L5 274 L5 275 L3 277 L3 279 L2 280 L2 283 L1 284 L1 288 L0 289 L0 302 L1 303 L1 304 L2 305 L2 306 L3 307 L3 308 L5 310 L5 311 L7 313 L5 315 L0 315 L0 339 L1 338 L6 338 L7 337 L10 337 L11 336 L12 336 L13 335 L15 335 L16 334 L17 334 L18 335 L18 337 L17 338 L17 339 L16 340 L16 341 L15 342 L15 344 L14 345 L14 346 L13 347 L13 348 L12 349 L12 350 L11 351 L11 352 L10 353 L10 355 L9 356 L9 357 L8 358 L8 360 L7 361 L7 363 L6 364 L6 366 L5 367 L5 371 L4 372 L4 373 L5 374 L5 378 L6 379 L6 380 L7 381 L7 382 L12 387 L13 387 L14 388 L15 388 L16 389 L17 389 L18 390 L20 390 L21 391 L22 391 L23 392 L24 392 L27 395 L28 395 L30 397 L30 398 L31 399 L30 400 L30 408 L29 409 L29 414 L28 415 L28 418 L27 419 L27 420 L26 421 L26 423 L25 424 L25 425 L24 426 L24 427 L23 428 L23 429 L21 431 L21 433 L20 434 L20 440 L21 441 L25 441 L26 440 L27 440 L28 439 L29 439 L29 438 L30 437 L30 436 L31 435 L31 423 L32 422 L32 412 L33 411 L33 409 L34 408 L34 406 L35 405 L35 403 L34 402 L34 401 L35 400 L36 400 L36 398 L37 397 L39 397 L40 398 L40 417 L39 418 L39 423 L38 424 L38 426 L37 427 L37 429 L36 430 L36 435 L37 436 L37 442 L36 443 L36 449 L37 450 L37 451 L38 452 L38 453 L46 453 L49 450 L49 449 L50 448 L50 440 L49 439 L49 438 L48 437 L48 436 L46 434 L46 430 L45 429 L45 405 L46 404 L46 401 L47 400 L49 402 L49 405 L50 406 L50 424 L51 425 L51 435 L52 436 L52 451 L53 452 L53 480 L49 484 L49 489 L50 490 L50 491 L52 493 L52 494 L53 495 L54 495 L55 496 L56 496 L57 497 L58 496 L59 496 L60 495 L61 495 L62 494 L62 493 L63 492 L63 491 L64 490 L64 486 L63 485 L63 484 L61 482 L61 481 L60 480 L60 477 L59 476 L59 466 L58 465 L58 447 L57 446 L57 433 L56 432 L56 417 L55 416 L55 403 L57 401 L58 402 L58 403 L59 404 L59 407 L60 408 L60 415 L61 416 L61 428 L62 429 L62 432 L61 433 L61 445 L62 446 L62 447 L63 447 L64 448 L66 446 L67 446 L67 445 L69 443 L70 443 L72 445 L74 445 L75 444 L76 444 L78 442 L78 441 L79 440 L79 436 L78 435 L78 432 L77 431 L77 430 L76 429 L76 426 L75 425 L75 422 L74 421 L74 418 L73 417 L73 415 L72 414 L72 411 L71 410 L71 408 L70 407 L70 403 L69 402 L69 398 L70 397 L71 397 L74 394 L75 394 L80 389 L80 388 L81 387 L81 385 L83 383 L84 383 L86 381 L87 381 L89 379 L89 378 L91 376 L91 375 L92 374 L92 370 L93 369 L93 361 L92 360 L92 357 L91 356 L91 355 L90 354 L90 352 L88 350 L88 349 L77 338 L78 337 L79 337 L80 338 L81 338 L83 340 L84 340 L85 341 L86 341 L87 342 L88 342 L89 343 L90 343 L91 344 L93 344 L94 345 L97 345 L98 346 L103 346 L104 347 L119 347 L120 346 L122 346 L123 345 L125 345 L126 346 L126 349 L127 350 L127 351 L128 352 L128 353 L129 354 L130 354 L131 355 L133 355 L133 353 L132 352 L132 348 L131 347 L131 346 L132 345 L132 344 L131 343 L131 341 L132 340 L132 339 L134 337 L135 338 L135 342 L136 343 L136 354 L135 355 L135 359 L134 360 L134 363 L133 364 L133 369 L135 371 L137 371 L138 370 L139 370 L140 369 L141 369 L142 368 L142 367 L143 366 L143 365 L144 364 L144 361 L143 360 L143 359 L142 358 L142 355 L143 354 L143 348 L144 347 L145 348 L145 349 L146 350 L146 354 L147 355 L147 361 L148 362 L148 366 L149 367 L149 372 L150 373 L150 381 L151 382 L151 401 L152 402 L152 404 L150 406 L150 407 L149 408 L149 413 L150 414 L150 415 L151 416 L151 418 L152 418 L153 419 L154 418 L155 418 L159 414 L159 412 L160 411 L160 405 L156 401 L156 395 L155 394 L155 377 L154 376 L154 368 L157 365 L157 364 L158 363 L158 362 L159 361 L160 361 L162 363 L162 366 L163 367 L163 371 L164 372 L165 372 L166 373 L167 373 L170 370 L170 369 L171 368 L171 367 L170 366 L170 364 L169 363 L169 360 L168 359 L168 358 L167 357 L167 355 L166 354 L166 350 L165 349 L165 346 L164 345 L164 341 L165 340 L166 341 L166 342 L167 343 L167 344 L168 345 L168 346 L169 347 L169 348 L170 349 L170 351 L171 352 L171 353 L172 354 L172 355 L173 356 L173 357 L174 358 L174 359 L175 360 L175 361 L176 362 L178 362 L181 359 L181 354 L178 351 L177 351 L176 350 L176 349 L174 347 L174 346 L172 344 L172 343 L171 342 L171 341 L170 340 L170 339 L169 338 L169 337 L167 335 L167 333 L166 332 L166 331 L165 330 L165 328 L164 327 L164 325 L163 324 L163 322 L165 320 L166 320 L168 318 L169 318 L171 316 L171 313 L176 308 L177 308 L179 306 L180 306 L181 305 L181 304 L183 302 L183 293 L182 292 L182 290 L181 289 L181 286 L180 285 L180 284 L179 283 L179 282 L178 281 L178 280 L176 278 L176 277 L175 276 L175 275 L172 272 L172 271 L169 268 L169 267 L166 264 L167 263 L168 263 L169 264 L173 264 L174 265 L179 265 L180 266 L200 266 L201 265 L206 265 L207 264 L208 264 L209 263 L210 263 L211 262 L212 262 L213 261 L214 261 L215 260 L216 260 L217 259 L218 259 L220 257 L221 257 L225 253 L225 252 L227 250 L227 246 L225 246 L224 247 L223 247 L220 250 L219 250 L218 251 L216 251 L215 252 L204 252 L203 251 L200 251 L199 250 L195 250 L194 249 L191 249 L190 248 L187 248 L186 247 L183 247 L182 246 L178 246 L177 245 L177 243 L178 242 L178 241 L179 240 L179 239 L180 238 L180 237 L181 236 L181 234 L182 233 L182 231 L183 230 L183 227 L184 226 L184 224 L183 223 L183 217 L182 216 L182 214 L181 213 L181 212 L180 211 L180 210 L179 209 L179 207 L176 204 L175 205 L175 207 L174 208 L174 210 L173 211 L173 213 L172 214 L172 215 L171 216 L171 217 L169 219 L169 220 L168 221 L168 222 L164 226 L163 226 L161 228 L159 228 L158 229 L157 229 L156 230 L154 230 L153 231 L151 231 L150 232 L148 232 L147 233 L146 233 L145 232 L145 230 L144 229 L144 223 L143 222 L143 216 L142 215 L142 212 L141 211 L141 209 L140 208 L140 206 L138 204 L138 203 L137 202 L137 201 L135 199 L135 187 L134 186 L134 180 L133 179 L133 175 L132 174 L132 173 L131 172 L131 170 L130 169 L130 168 L129 167 L129 166 L126 163 L126 162 L125 161 L125 160 L124 159 L124 158 L123 157 L123 155 L122 154 L122 153 L121 152 L121 151 L120 150 L120 149 L119 148 L119 147 L118 146 L118 145 L116 143 L116 142 L112 138 L112 137 L110 135 L111 134 L113 134 L114 135 L117 135 L118 136 L122 136 L123 137 L128 137 L129 138 L133 138 L134 139 L138 139 L139 140 L141 140 L142 141 L143 141 L144 142 L146 142 L147 143 L149 143 L150 144 L151 144 L152 145 L153 145 L154 146 L156 146 L158 148 L159 148 L160 149 L161 149 L166 154 L166 155 L167 156 L167 157 L170 160 L171 159 L172 159 L172 152 L173 151 L173 147 L172 146 L172 124 L171 123 L171 120 L170 119 L170 116 L169 115 L169 111 L168 110 L168 109 L167 108 L167 107 L166 106 L166 104 L165 103 L165 102 L164 101 L164 100 L162 98 L162 97 L161 96 L161 95 L160 94 L160 93 L158 91 L158 90 L156 88 L156 87 L153 84 L152 84 L147 79 L146 79 L144 77 L143 77 L140 74 L138 74 L137 73 L136 73 L135 72 L134 72 L133 71 L131 71 L130 70 L120 70 L119 69 L114 69 L113 70 L108 70 L107 71 L105 71 L104 72 L103 72 L102 73 L100 73 L98 75 L97 75 L96 76 L95 75 L95 71 L98 68 L99 68 L100 67 L101 67 L102 66 L103 66 L104 65 L105 65 L106 64 L107 64 L108 63 L109 63 L110 62 L111 62 L112 61 L113 61 L114 60 L115 60 L116 59 L117 59 L118 58 L119 58 L120 57 L121 57 L122 56 L124 56 L125 55 L126 55 L127 54 L129 54 L130 53 L132 53 L133 52 L135 52 L136 51 L138 51 L139 50 L142 50 L143 49 L145 49 L146 48 L148 48 L149 47 L151 47 L152 46 L153 46 L154 45 L155 45 L156 44 L157 44 L159 42 L160 42 L162 40 L161 39 L160 40 L159 39 L159 38 L160 37 L160 36 L159 35 L158 35 L157 36 L153 36 L152 37 L150 37 L149 38 L145 38 L144 39 L142 39 L141 40 L138 40 L137 41 L135 41 L134 42 L132 42 L131 43 L130 43 L129 44 L127 44 L126 45 L124 45 L123 46 L122 46 L121 47 L119 47 L118 48 L117 48 L116 49 L114 49 L113 50 L112 50 L111 51 L110 51 L109 52 L107 52 L106 53 L105 53 L104 54 L103 54 L102 55 L100 55 L99 56 L97 56 L96 57 L93 57 L92 58 L90 58 L89 59 L83 59 L81 57 L81 56 L80 55 L80 53 L83 50 L84 50 L86 48 L87 48 L87 47 L93 41 L94 41 L96 39 L97 39 L98 38 L99 38 L100 37 L110 37 L111 36 L112 36 L112 34 L116 30 L117 30 L119 28 L119 27 L118 26 L116 26 L115 25 L114 25 L113 26 L112 26 L111 25 L108 25 L107 24 L106 24 L105 23 L101 23 L100 22 L96 22 L95 21 Z M314 11 L313 12 L313 17 L312 18 L312 19 L311 20 L311 21 L310 22 L310 24 L309 25 L309 26 L308 27 L308 29 L307 30 L307 33 L306 34 L306 37 L305 38 L305 40 L304 41 L304 45 L303 46 L303 49 L302 50 L302 52 L301 53 L301 56 L300 57 L300 59 L299 60 L299 62 L298 63 L298 64 L297 65 L297 67 L296 68 L296 69 L295 70 L295 71 L294 72 L294 73 L293 74 L293 75 L292 76 L292 77 L291 78 L291 79 L290 80 L290 81 L289 82 L289 83 L288 84 L288 85 L286 87 L286 88 L284 90 L284 91 L281 94 L281 95 L280 96 L280 97 L279 98 L279 99 L278 100 L278 101 L277 102 L277 103 L276 104 L276 105 L275 106 L275 107 L272 110 L272 111 L271 112 L271 113 L270 114 L270 115 L269 116 L269 118 L268 119 L268 121 L267 122 L267 123 L266 124 L266 126 L265 127 L265 128 L264 129 L264 130 L263 131 L263 133 L262 134 L262 135 L261 136 L261 138 L260 139 L260 141 L259 142 L259 144 L258 145 L258 148 L257 149 L257 152 L256 153 L256 156 L255 157 L255 158 L254 159 L254 163 L253 164 L253 168 L252 169 L252 175 L251 176 L251 188 L250 189 L250 200 L249 201 L249 207 L248 208 L248 212 L247 213 L247 221 L246 222 L246 243 L247 244 L247 254 L248 255 L248 263 L249 264 L249 268 L250 269 L250 272 L251 273 L251 276 L252 277 L252 279 L253 280 L253 282 L254 283 L254 284 L255 285 L255 287 L256 288 L256 289 L257 290 L257 291 L258 292 L258 294 L259 295 L259 296 L261 298 L261 299 L262 300 L262 301 L263 302 L263 303 L264 304 L264 305 L265 306 L265 307 L267 309 L267 310 L268 311 L268 312 L270 314 L270 315 L273 318 L273 319 L278 324 L278 325 L283 330 L283 331 L297 345 L298 345 L301 348 L302 348 L304 350 L305 350 L307 352 L308 352 L312 356 L313 356 L317 360 L318 360 L323 365 L324 365 L329 370 L330 370 L333 373 L334 373 L338 377 L339 377 L350 388 L350 389 L354 393 L354 394 L356 396 L356 397 L357 398 L357 399 L359 401 L359 402 L361 404 L361 405 L362 406 L362 407 L363 408 L363 409 L364 410 L364 411 L365 412 L365 413 L366 414 L366 415 L367 416 L367 419 L368 420 L368 424 L369 425 L369 433 L370 434 L370 441 L371 442 L371 452 L372 453 L372 459 L373 460 L373 471 L374 472 L374 484 L375 485 L375 494 L376 495 L376 503 L377 504 L377 528 L378 529 L378 539 L379 540 L379 544 L380 545 L380 563 L381 564 L381 576 L380 577 L380 581 L381 582 L381 596 L382 597 L382 616 L381 617 L381 679 L380 680 L380 694 L381 695 L381 720 L380 721 L380 724 L381 725 L381 736 L380 737 L380 765 L381 766 L381 776 L379 778 L378 777 L378 772 L377 771 L377 762 L376 761 L376 756 L375 755 L375 750 L374 749 L374 746 L373 745 L373 743 L372 742 L372 738 L371 737 L371 724 L369 722 L369 721 L368 720 L368 718 L367 717 L367 713 L366 712 L366 709 L365 708 L365 703 L364 702 L364 695 L363 694 L363 690 L362 689 L362 685 L361 684 L361 681 L360 680 L360 676 L359 675 L359 670 L358 669 L358 666 L357 665 L357 662 L356 661 L356 660 L355 659 L355 657 L354 656 L354 654 L353 653 L353 649 L352 648 L352 643 L351 642 L351 639 L350 638 L350 635 L349 634 L349 632 L348 631 L348 629 L347 628 L347 626 L346 625 L346 623 L345 622 L345 619 L344 618 L344 616 L343 615 L343 612 L342 611 L342 609 L341 608 L341 605 L340 604 L340 601 L339 600 L339 599 L338 598 L338 596 L337 595 L337 592 L336 591 L336 587 L335 586 L335 582 L334 581 L334 560 L333 559 L333 550 L332 549 L332 541 L331 540 L331 537 L330 536 L330 531 L329 530 L329 527 L328 526 L328 525 L327 524 L327 523 L326 522 L326 521 L325 520 L325 519 L323 517 L323 516 L322 515 L322 513 L321 512 L321 511 L320 510 L320 508 L319 507 L319 505 L318 504 L318 503 L317 502 L317 501 L315 499 L315 498 L314 497 L314 496 L313 495 L313 494 L311 492 L311 491 L310 490 L310 489 L309 488 L309 487 L307 485 L307 484 L306 483 L306 482 L304 480 L304 479 L302 477 L302 476 L299 473 L299 472 L297 470 L297 469 L294 466 L294 465 L292 463 L292 462 L287 457 L287 456 L283 452 L283 451 L280 448 L280 447 L277 444 L277 443 L273 439 L273 438 L271 436 L271 435 L269 433 L269 432 L267 430 L267 429 L265 427 L265 426 L264 425 L264 424 L262 422 L262 421 L261 420 L261 419 L260 418 L260 417 L259 416 L259 415 L258 414 L258 412 L257 411 L257 410 L256 409 L256 407 L255 406 L255 405 L254 404 L254 403 L253 402 L253 400 L252 399 L252 397 L251 396 L251 395 L250 394 L250 393 L249 392 L249 390 L248 389 L248 388 L247 387 L247 385 L246 384 L246 383 L245 382 L245 380 L244 379 L244 378 L243 377 L243 374 L242 373 L242 371 L241 370 L241 366 L240 365 L240 360 L239 359 L239 353 L238 352 L238 350 L237 349 L237 348 L236 347 L236 346 L234 346 L233 347 L233 348 L232 349 L232 351 L231 352 L231 353 L230 354 L230 355 L229 356 L229 358 L228 359 L228 360 L227 361 L227 364 L226 365 L226 367 L225 368 L225 381 L226 382 L226 396 L227 397 L227 405 L228 406 L228 410 L229 411 L229 413 L230 414 L230 416 L231 417 L231 419 L232 420 L232 422 L233 423 L233 424 L234 425 L234 427 L235 428 L235 430 L236 431 L236 433 L237 434 L237 437 L238 438 L238 445 L239 446 L239 453 L240 454 L240 458 L241 459 L241 466 L242 467 L242 492 L243 493 L243 500 L244 501 L244 505 L245 506 L245 509 L246 510 L246 514 L247 515 L247 519 L248 520 L248 522 L249 523 L249 525 L250 526 L250 528 L251 529 L251 533 L252 534 L252 536 L253 537 L253 539 L254 540 L254 542 L255 543 L255 545 L256 546 L256 547 L257 548 L257 549 L258 550 L258 551 L259 552 L259 553 L260 554 L260 555 L261 556 L261 557 L262 558 L262 559 L263 560 L263 561 L265 563 L265 564 L267 566 L267 567 L269 569 L269 570 L270 571 L270 572 L273 575 L273 576 L276 579 L276 580 L299 603 L299 604 L307 612 L308 612 L315 619 L315 620 L318 623 L318 624 L321 627 L321 628 L324 631 L324 632 L327 635 L327 636 L328 637 L328 638 L329 639 L329 641 L330 642 L330 643 L331 644 L331 646 L332 647 L332 648 L333 649 L333 651 L334 652 L334 654 L335 655 L335 657 L336 658 L336 660 L337 661 L337 663 L338 664 L338 667 L339 668 L339 671 L340 672 L340 676 L341 677 L341 681 L342 682 L342 685 L343 686 L343 688 L344 689 L344 691 L345 692 L345 696 L346 697 L346 702 L347 703 L347 707 L348 708 L348 710 L349 711 L349 713 L350 714 L350 716 L351 717 L351 721 L352 722 L352 728 L353 729 L353 732 L354 733 L354 738 L355 739 L355 743 L356 744 L356 749 L357 750 L357 755 L358 756 L358 759 L359 760 L359 762 L360 763 L360 767 L361 768 L361 772 L362 773 L362 778 L363 779 L363 785 L364 786 L364 789 L365 790 L365 796 L366 797 L366 802 L367 803 L367 808 L368 809 L368 818 L369 819 L369 831 L370 832 L370 834 L369 835 L369 836 L364 841 L364 842 L362 844 L362 845 L360 847 L360 849 L359 850 L359 852 L358 853 L358 868 L359 869 L359 874 L360 875 L360 877 L361 878 L361 879 L362 880 L362 882 L363 883 L363 884 L364 885 L364 886 L365 887 L365 889 L366 890 L366 891 L368 893 L368 894 L369 895 L369 896 L370 897 L370 899 L371 900 L371 901 L372 902 L372 904 L373 905 L373 906 L372 907 L372 914 L371 915 L371 921 L372 922 L372 929 L371 930 L369 928 L369 925 L368 924 L368 921 L367 920 L367 917 L366 916 L366 911 L365 910 L365 904 L364 903 L364 901 L363 900 L363 899 L362 898 L362 897 L361 896 L361 895 L360 894 L360 891 L359 890 L359 887 L358 886 L358 878 L357 877 L357 873 L356 872 L356 865 L355 864 L355 850 L354 849 L354 836 L355 835 L355 827 L356 826 L356 815 L357 814 L357 786 L356 785 L356 777 L355 776 L355 767 L354 766 L354 762 L353 761 L353 756 L352 755 L352 753 L351 752 L351 751 L350 750 L350 748 L349 747 L349 745 L348 744 L348 742 L347 741 L347 740 L346 739 L346 737 L345 736 L345 735 L344 734 L344 733 L343 732 L343 731 L342 730 L342 729 L341 728 L341 727 L339 725 L339 724 L337 722 L337 721 L336 720 L336 719 L334 717 L334 716 L333 715 L333 714 L331 712 L331 711 L330 710 L330 709 L326 705 L326 704 L322 700 L322 699 L307 684 L306 684 L301 679 L300 679 L292 671 L292 670 L290 668 L290 667 L289 666 L289 665 L288 664 L288 663 L287 662 L287 660 L286 659 L286 657 L285 656 L285 655 L284 654 L284 653 L283 652 L283 651 L282 650 L282 649 L281 648 L281 647 L279 645 L279 644 L278 643 L278 642 L277 641 L277 640 L276 639 L276 638 L275 637 L275 636 L274 635 L274 634 L273 633 L273 632 L272 631 L272 630 L271 629 L271 628 L270 627 L270 626 L269 625 L269 624 L265 620 L265 619 L262 616 L262 615 L260 613 L260 612 L246 598 L245 598 L242 595 L241 595 L238 592 L237 592 L236 591 L235 591 L234 590 L233 590 L232 589 L231 589 L230 588 L229 588 L228 587 L226 587 L225 586 L224 586 L223 585 L221 585 L220 584 L218 584 L217 583 L214 583 L213 582 L211 582 L210 581 L209 581 L208 580 L205 580 L204 579 L201 579 L200 578 L197 578 L196 577 L183 577 L182 576 L177 576 L176 575 L173 575 L172 574 L169 574 L168 573 L165 573 L164 572 L162 572 L161 571 L160 571 L159 570 L158 570 L157 569 L156 569 L154 567 L153 567 L152 566 L151 566 L150 565 L149 565 L148 564 L147 564 L146 563 L145 563 L143 561 L142 561 L140 559 L139 559 L137 557 L136 557 L134 555 L133 555 L132 554 L131 554 L130 553 L129 553 L128 552 L127 552 L126 551 L125 551 L124 550 L122 550 L121 549 L117 549 L116 548 L114 548 L113 547 L110 547 L109 546 L108 546 L107 545 L105 545 L104 544 L101 544 L100 543 L97 543 L96 542 L92 542 L91 541 L87 541 L86 542 L55 542 L54 541 L37 541 L36 542 L33 542 L32 543 L31 543 L30 544 L26 544 L25 545 L19 545 L18 546 L14 546 L13 547 L12 547 L11 548 L11 553 L13 555 L24 555 L25 556 L27 556 L28 557 L30 557 L31 558 L32 558 L33 559 L34 559 L35 560 L41 560 L42 561 L45 561 L46 562 L47 562 L48 563 L49 563 L50 564 L51 564 L61 574 L61 575 L64 578 L64 579 L68 583 L68 584 L70 586 L70 587 L73 590 L73 591 L74 592 L74 593 L75 594 L75 595 L76 596 L76 597 L77 598 L77 600 L78 601 L78 603 L79 604 L79 607 L80 608 L80 611 L81 612 L81 616 L82 617 L82 620 L83 621 L83 623 L84 624 L84 627 L85 628 L85 630 L86 631 L86 633 L87 634 L87 636 L88 637 L88 639 L89 640 L89 641 L90 642 L90 644 L91 645 L91 646 L92 647 L92 648 L93 649 L93 650 L94 651 L94 653 L95 654 L95 655 L96 656 L96 657 L97 658 L97 659 L99 661 L99 662 L101 664 L101 665 L103 667 L103 668 L104 669 L104 670 L107 673 L107 674 L110 677 L110 678 L114 682 L114 683 L117 686 L117 687 L125 695 L126 695 L131 700 L132 700 L139 707 L139 708 L144 713 L144 714 L147 717 L147 718 L149 720 L149 721 L151 723 L151 724 L153 726 L153 727 L155 729 L155 730 L157 732 L157 734 L158 735 L158 736 L159 737 L159 738 L160 739 L160 741 L161 742 L161 743 L162 744 L162 745 L163 746 L163 747 L164 748 L164 750 L165 751 L165 752 L166 753 L166 754 L167 755 L167 756 L168 757 L168 759 L169 760 L169 762 L170 763 L170 764 L171 765 L171 766 L172 767 L172 769 L173 770 L173 771 L174 772 L174 773 L176 775 L176 776 L177 777 L177 778 L180 781 L180 782 L182 784 L182 785 L184 787 L184 788 L187 791 L187 792 L191 796 L191 797 L212 818 L213 818 L216 821 L217 821 L220 824 L221 824 L222 825 L223 825 L225 827 L226 827 L227 828 L228 828 L229 829 L230 829 L232 831 L233 831 L235 833 L236 833 L237 834 L238 834 L240 836 L242 836 L243 837 L245 837 L246 838 L247 838 L248 839 L250 839 L251 840 L253 840 L254 841 L255 841 L256 842 L257 842 L258 843 L259 843 L260 844 L261 844 L262 845 L263 845 L264 846 L266 846 L267 847 L269 847 L270 848 L271 848 L272 849 L274 849 L275 850 L277 850 L278 851 L279 851 L280 852 L282 852 L283 853 L285 853 L286 854 L287 854 L288 855 L289 855 L290 856 L291 856 L292 857 L294 857 L296 859 L297 859 L298 860 L299 860 L308 869 L309 869 L310 870 L311 870 L312 871 L313 871 L314 872 L315 872 L318 875 L319 875 L323 879 L323 880 L328 885 L328 886 L330 888 L330 889 L332 891 L332 892 L333 893 L333 894 L335 896 L335 897 L336 898 L336 899 L337 900 L337 901 L339 903 L339 906 L340 907 L340 909 L341 910 L341 912 L342 913 L342 914 L343 915 L343 917 L344 918 L344 920 L345 921 L345 923 L346 924 L346 928 L347 929 L347 931 L348 932 L348 934 L349 935 L349 937 L350 938 L350 939 L351 940 L351 943 L352 944 L351 945 L350 945 L349 944 L348 944 L347 943 L346 943 L345 942 L344 942 L343 941 L341 941 L340 940 L338 940 L337 939 L334 939 L333 938 L326 938 L325 937 L324 937 L323 938 L313 938 L312 939 L297 939 L296 940 L286 940 L285 939 L282 939 L281 938 L280 938 L279 937 L278 937 L277 936 L275 936 L274 935 L273 935 L272 934 L271 934 L270 933 L269 933 L267 931 L266 931 L263 928 L262 928 L261 927 L259 927 L257 925 L256 925 L255 924 L254 924 L251 921 L250 921 L248 919 L247 919 L245 917 L244 917 L243 916 L242 916 L241 915 L240 915 L239 914 L238 914 L237 913 L234 913 L233 912 L231 912 L230 911 L228 911 L227 910 L226 910 L225 909 L224 909 L223 908 L211 908 L210 909 L203 909 L202 910 L197 910 L196 911 L194 911 L193 912 L189 912 L188 913 L187 913 L186 914 L184 914 L183 915 L182 915 L181 916 L180 916 L179 917 L178 917 L176 919 L175 919 L173 921 L172 921 L171 922 L170 922 L165 927 L164 927 L159 932 L158 932 L152 938 L151 938 L148 941 L147 941 L145 943 L144 943 L143 944 L142 944 L141 945 L140 945 L139 946 L137 946 L136 947 L135 947 L134 948 L133 948 L131 950 L130 950 L129 951 L128 951 L127 952 L126 952 L123 955 L122 955 L115 962 L115 963 L112 966 L112 967 L109 970 L109 971 L107 973 L107 974 L106 975 L106 976 L105 977 L105 979 L104 980 L104 981 L103 982 L103 984 L102 985 L102 987 L101 988 L101 991 L100 992 L100 995 L99 996 L99 1000 L98 1001 L98 1004 L97 1005 L97 1007 L96 1008 L96 1010 L95 1011 L95 1013 L94 1014 L94 1015 L92 1017 L92 1018 L90 1020 L90 1021 L88 1023 L88 1024 L86 1026 L86 1027 L85 1028 L85 1029 L83 1031 L83 1032 L82 1033 L82 1034 L81 1035 L81 1036 L80 1037 L80 1038 L79 1039 L79 1040 L78 1041 L78 1043 L77 1044 L77 1046 L76 1047 L76 1049 L75 1050 L75 1054 L74 1055 L74 1061 L73 1062 L73 1069 L72 1070 L72 1075 L71 1076 L71 1080 L70 1081 L70 1105 L71 1106 L71 1110 L72 1111 L72 1124 L73 1125 L73 1126 L74 1127 L75 1126 L76 1126 L78 1124 L78 1123 L79 1122 L79 1121 L80 1120 L80 1118 L81 1117 L81 1116 L82 1115 L82 1114 L83 1113 L83 1112 L86 1109 L86 1108 L88 1106 L88 1105 L96 1097 L97 1097 L100 1094 L101 1094 L103 1092 L104 1092 L106 1090 L107 1090 L108 1089 L109 1089 L110 1088 L111 1088 L112 1087 L113 1087 L114 1086 L115 1086 L116 1085 L117 1085 L118 1084 L119 1084 L120 1083 L123 1083 L124 1082 L126 1082 L127 1081 L129 1081 L130 1080 L132 1080 L133 1079 L136 1079 L137 1078 L140 1078 L141 1077 L148 1077 L149 1076 L156 1076 L157 1075 L162 1075 L163 1074 L166 1074 L167 1073 L170 1073 L171 1072 L174 1072 L175 1071 L176 1071 L177 1070 L179 1070 L180 1069 L181 1069 L182 1068 L183 1068 L184 1067 L185 1067 L187 1065 L188 1065 L189 1064 L190 1064 L191 1063 L192 1063 L193 1062 L194 1062 L195 1061 L196 1061 L198 1059 L199 1059 L202 1056 L203 1056 L206 1053 L207 1053 L215 1045 L216 1045 L231 1030 L232 1030 L236 1026 L237 1026 L239 1024 L240 1024 L241 1023 L242 1023 L243 1022 L244 1022 L245 1021 L246 1021 L247 1020 L248 1020 L249 1019 L251 1019 L252 1018 L253 1018 L254 1017 L257 1017 L258 1016 L260 1016 L261 1015 L263 1015 L264 1014 L266 1014 L267 1013 L269 1013 L270 1012 L271 1012 L272 1011 L274 1011 L275 1010 L276 1010 L277 1009 L278 1009 L279 1008 L280 1008 L281 1007 L282 1007 L284 1005 L285 1005 L288 1002 L289 1002 L293 998 L294 998 L299 993 L300 993 L305 988 L306 988 L307 987 L308 987 L310 985 L313 988 L313 989 L314 990 L314 991 L315 992 L315 993 L316 994 L316 996 L317 997 L317 998 L319 1000 L320 1000 L321 1001 L321 1002 L322 1002 L323 1003 L323 1004 L326 1007 L326 1008 L327 1009 L327 1010 L328 1011 L328 1012 L329 1013 L329 1015 L330 1016 L330 1018 L331 1019 L331 1020 L332 1021 L332 1023 L333 1024 L333 1026 L334 1027 L334 1028 L335 1029 L335 1031 L336 1032 L336 1033 L337 1034 L337 1035 L338 1036 L338 1038 L339 1039 L339 1041 L340 1042 L340 1043 L341 1044 L341 1046 L342 1047 L342 1049 L343 1050 L343 1052 L344 1053 L344 1054 L345 1055 L345 1057 L346 1058 L346 1060 L347 1061 L347 1064 L348 1065 L348 1067 L349 1068 L349 1071 L350 1072 L350 1075 L351 1076 L351 1080 L352 1081 L352 1083 L353 1084 L353 1086 L354 1087 L354 1088 L355 1089 L355 1092 L356 1093 L356 1099 L357 1100 L357 1104 L358 1105 L358 1108 L359 1109 L359 1111 L360 1112 L360 1116 L361 1117 L361 1123 L362 1124 L362 1131 L363 1132 L363 1137 L364 1138 L364 1142 L365 1143 L365 1148 L366 1149 L366 1158 L367 1159 L367 1160 L368 1161 L369 1160 L370 1160 L372 1158 L372 1157 L373 1156 L373 1155 L374 1154 L374 1152 L375 1151 L375 1150 L374 1149 L374 1148 L375 1147 L377 1147 L378 1148 L379 1147 L380 1147 L381 1146 L382 1147 L383 1147 L384 1148 L384 1149 L385 1149 L387 1151 L387 1152 L388 1152 L389 1151 L390 1152 L390 1153 L392 1155 L391 1156 L392 1157 L393 1156 L394 1156 L394 1155 L396 1153 L397 1153 L398 1152 L400 1152 L402 1150 L403 1150 L406 1153 L407 1153 L409 1155 L409 1156 L410 1157 L410 1159 L411 1160 L412 1160 L412 1153 L413 1152 L413 1141 L414 1140 L414 1109 L415 1108 L415 1100 L416 1099 L416 1065 L417 1064 L417 1051 L418 1050 L418 1032 L419 1031 L419 1030 L420 1029 L420 1026 L421 1025 L421 1013 L422 1012 L422 1006 L423 1005 L423 1003 L424 1002 L424 1001 L425 1000 L425 993 L426 992 L426 972 L427 971 L427 968 L429 966 L432 969 L432 970 L433 971 L433 972 L434 973 L434 974 L435 975 L435 976 L437 978 L437 979 L439 981 L439 982 L442 985 L442 986 L443 987 L443 988 L444 988 L451 995 L451 996 L456 1001 L457 1001 L459 1003 L460 1003 L461 1004 L462 1004 L463 1005 L464 1005 L466 1007 L467 1007 L468 1008 L469 1008 L470 1009 L471 1009 L472 1010 L474 1010 L475 1011 L476 1011 L477 1012 L479 1012 L480 1013 L482 1013 L483 1014 L484 1014 L485 1015 L486 1015 L487 1016 L488 1016 L489 1017 L490 1017 L492 1019 L493 1019 L499 1025 L499 1026 L508 1035 L508 1036 L512 1040 L512 1041 L516 1045 L516 1046 L526 1056 L527 1056 L531 1060 L532 1060 L535 1063 L536 1063 L539 1066 L540 1066 L542 1068 L543 1068 L545 1070 L546 1070 L548 1072 L549 1072 L551 1074 L552 1074 L553 1075 L554 1075 L556 1077 L557 1077 L558 1078 L559 1078 L560 1079 L561 1079 L563 1081 L564 1081 L565 1082 L566 1082 L567 1083 L568 1083 L569 1084 L570 1084 L571 1085 L572 1085 L573 1086 L574 1086 L576 1088 L577 1088 L578 1089 L579 1089 L589 1099 L589 1100 L600 1111 L600 1112 L601 1113 L601 1114 L602 1115 L602 1116 L603 1117 L603 1119 L604 1120 L604 1121 L605 1122 L605 1125 L606 1126 L606 1129 L607 1130 L607 1133 L608 1134 L608 1137 L609 1138 L609 1139 L610 1140 L610 1141 L611 1142 L611 1143 L612 1144 L612 1145 L614 1147 L614 1148 L617 1151 L619 1151 L620 1150 L620 1141 L621 1140 L621 1133 L622 1132 L622 1128 L623 1127 L623 1124 L624 1123 L624 1121 L625 1120 L625 1118 L626 1117 L626 1114 L627 1113 L627 1109 L628 1108 L628 1103 L629 1102 L629 1096 L630 1095 L630 1090 L631 1089 L631 1083 L632 1082 L632 1076 L633 1075 L633 1064 L634 1063 L634 1058 L633 1057 L633 1035 L632 1034 L632 1033 L633 1032 L632 1031 L632 1027 L633 1026 L633 1018 L634 1017 L634 1011 L635 1010 L635 1005 L636 1004 L636 1000 L637 999 L637 995 L638 994 L638 988 L639 987 L639 976 L640 975 L640 973 L639 972 L639 968 L640 967 L640 965 L639 964 L639 952 L638 951 L638 947 L637 946 L637 942 L636 941 L636 938 L635 937 L635 935 L634 934 L634 932 L633 931 L633 930 L632 929 L632 928 L631 927 L631 926 L630 925 L630 923 L629 922 L629 921 L627 919 L627 918 L625 916 L625 915 L622 912 L622 911 L618 907 L618 906 L617 905 L617 904 L616 903 L616 902 L615 901 L615 899 L614 898 L614 894 L613 893 L613 888 L612 887 L612 884 L611 883 L611 880 L610 879 L610 877 L609 876 L609 873 L608 872 L608 869 L607 868 L607 866 L606 865 L606 862 L605 861 L605 860 L604 859 L604 857 L603 856 L603 855 L602 854 L602 852 L600 850 L600 849 L599 848 L599 847 L598 846 L598 845 L597 844 L597 843 L596 842 L595 842 L593 840 L593 839 L592 838 L592 836 L591 835 L591 834 L589 832 L589 831 L586 828 L586 827 L584 825 L584 824 L577 817 L577 816 L576 815 L575 815 L572 812 L571 812 L567 808 L566 808 L563 805 L562 805 L561 804 L560 804 L559 803 L558 803 L557 802 L556 802 L555 801 L552 801 L551 800 L550 800 L549 799 L548 799 L547 798 L545 798 L544 797 L538 797 L537 796 L534 796 L533 797 L528 797 L527 798 L525 798 L524 799 L523 799 L522 800 L520 800 L519 801 L517 801 L515 803 L513 803 L512 804 L511 804 L510 805 L508 805 L507 806 L506 806 L505 807 L504 807 L503 808 L502 808 L501 809 L499 809 L498 810 L497 810 L495 812 L494 812 L492 814 L491 814 L490 815 L489 815 L488 816 L487 816 L486 817 L485 817 L483 819 L482 819 L480 821 L479 821 L477 823 L476 823 L475 824 L474 824 L472 826 L465 826 L464 827 L460 827 L459 828 L457 828 L456 829 L454 829 L453 830 L444 830 L443 829 L442 829 L440 827 L440 825 L441 824 L441 822 L446 817 L447 817 L449 815 L450 815 L453 812 L454 812 L457 809 L458 809 L460 807 L462 807 L463 806 L465 806 L466 805 L467 805 L468 804 L470 804 L471 803 L472 803 L473 802 L474 802 L475 801 L477 801 L478 800 L480 800 L481 799 L485 799 L486 798 L489 798 L490 797 L492 797 L493 796 L496 796 L497 795 L499 795 L500 794 L502 794 L503 793 L504 793 L505 792 L506 792 L507 791 L508 791 L509 790 L510 790 L511 789 L513 789 L514 788 L515 788 L518 785 L519 785 L521 783 L523 783 L524 782 L525 782 L527 780 L528 780 L530 778 L531 778 L533 776 L534 776 L537 773 L540 773 L541 772 L543 772 L541 772 L539 770 L543 766 L543 765 L544 764 L547 764 L548 763 L550 763 L559 754 L560 754 L562 752 L563 752 L564 751 L565 751 L566 750 L567 750 L568 749 L569 749 L570 748 L571 748 L573 746 L574 746 L576 744 L577 744 L579 742 L580 742 L583 739 L584 739 L603 720 L603 719 L607 715 L607 714 L609 712 L609 711 L611 709 L611 708 L614 705 L614 703 L615 702 L615 701 L616 700 L616 699 L617 698 L617 697 L618 696 L618 694 L619 693 L619 691 L620 690 L620 689 L621 688 L621 685 L622 684 L622 682 L623 681 L623 680 L624 679 L624 677 L625 676 L625 675 L626 674 L626 673 L627 672 L627 671 L628 670 L628 668 L629 667 L629 666 L630 665 L630 663 L631 662 L631 661 L632 660 L632 659 L633 658 L633 656 L634 655 L634 653 L635 652 L635 650 L636 649 L636 645 L637 644 L637 641 L638 640 L638 636 L639 635 L639 633 L640 632 L640 630 L641 629 L641 628 L642 627 L642 625 L643 624 L643 622 L651 614 L651 613 L653 611 L653 610 L657 606 L657 605 L660 602 L660 601 L662 599 L662 598 L663 597 L663 596 L665 594 L665 593 L666 592 L666 591 L667 590 L667 589 L668 588 L668 587 L669 586 L669 585 L670 584 L670 583 L671 582 L671 581 L672 580 L672 578 L673 577 L673 575 L674 574 L674 572 L675 571 L675 570 L676 569 L676 568 L677 567 L677 565 L678 564 L678 562 L679 561 L679 558 L680 557 L680 553 L681 552 L681 546 L682 545 L682 541 L683 540 L683 535 L684 534 L684 528 L685 527 L685 522 L686 521 L686 517 L687 516 L687 511 L688 510 L688 507 L689 506 L689 502 L690 501 L690 499 L691 498 L691 497 L692 496 L692 495 L693 494 L693 493 L694 492 L694 491 L696 489 L696 488 L698 486 L699 486 L700 485 L701 485 L702 484 L703 484 L704 483 L707 483 L708 482 L715 482 L716 483 L718 483 L719 484 L721 484 L722 485 L724 485 L725 486 L727 486 L729 488 L730 488 L736 494 L736 495 L738 497 L738 498 L739 499 L739 501 L741 503 L741 504 L742 505 L744 505 L745 504 L745 502 L746 501 L746 499 L747 498 L747 494 L748 493 L748 491 L747 490 L747 483 L746 482 L746 480 L745 479 L745 477 L744 476 L744 475 L743 474 L743 473 L742 472 L742 471 L741 470 L741 469 L738 466 L738 465 L736 463 L736 462 L735 462 L732 459 L731 459 L730 458 L729 458 L728 457 L727 457 L726 456 L725 456 L724 455 L722 455 L721 454 L720 454 L719 453 L716 453 L715 452 L713 452 L712 451 L693 451 L692 452 L689 452 L688 453 L683 453 L682 454 L678 454 L677 455 L674 455 L673 456 L669 456 L668 457 L658 457 L657 456 L646 456 L645 457 L628 457 L627 458 L623 458 L622 459 L619 459 L618 460 L614 460 L613 461 L612 461 L611 462 L610 462 L609 463 L608 463 L604 467 L603 467 L601 469 L600 469 L598 471 L597 471 L595 473 L594 473 L591 476 L590 476 L588 478 L587 478 L586 479 L585 479 L584 480 L582 480 L581 481 L580 481 L579 482 L578 482 L577 483 L576 483 L563 496 L562 496 L561 497 L560 497 L559 498 L558 498 L557 499 L556 499 L555 500 L554 500 L553 501 L551 501 L550 502 L548 502 L547 503 L541 503 L540 504 L538 504 L535 507 L534 507 L533 508 L532 508 L531 509 L528 509 L527 510 L524 510 L522 512 L521 512 L520 513 L519 513 L517 515 L516 515 L513 518 L512 518 L510 520 L509 520 L506 523 L506 524 L505 525 L504 525 L501 528 L500 528 L487 541 L487 542 L484 545 L484 546 L481 549 L481 550 L479 552 L479 553 L476 556 L476 557 L475 558 L475 559 L473 561 L473 562 L472 563 L472 564 L469 567 L469 568 L468 569 L468 570 L467 571 L467 572 L466 573 L466 574 L465 575 L465 576 L464 577 L464 578 L459 583 L459 584 L458 585 L458 586 L457 587 L457 588 L456 589 L456 590 L455 591 L455 592 L454 593 L454 594 L448 600 L447 599 L447 591 L448 590 L448 583 L449 582 L449 578 L450 577 L450 570 L451 569 L451 565 L452 564 L452 561 L453 560 L453 556 L454 555 L454 551 L455 550 L455 546 L456 545 L456 543 L457 542 L457 540 L458 539 L458 537 L459 536 L459 534 L460 533 L460 530 L461 529 L461 526 L462 525 L462 521 L463 520 L463 518 L464 517 L464 515 L465 514 L465 513 L466 512 L466 511 L467 510 L467 509 L479 497 L480 497 L484 493 L485 493 L488 490 L489 490 L495 484 L496 484 L499 481 L500 481 L505 476 L506 476 L507 475 L508 475 L510 473 L511 473 L512 472 L513 472 L514 471 L515 471 L516 470 L517 470 L518 469 L519 469 L521 467 L522 467 L524 465 L525 465 L531 459 L532 459 L540 451 L541 451 L549 443 L549 442 L553 438 L553 437 L555 435 L555 434 L557 432 L557 431 L558 430 L558 429 L559 428 L559 427 L560 426 L560 425 L561 424 L561 423 L562 422 L562 421 L563 420 L563 419 L564 418 L564 416 L565 415 L565 414 L566 413 L566 412 L567 411 L567 410 L568 409 L568 408 L569 407 L569 406 L570 405 L570 404 L571 403 L571 402 L572 401 L572 399 L573 398 L573 396 L574 395 L574 390 L575 389 L575 379 L576 378 L576 373 L577 372 L577 367 L578 366 L578 361 L579 360 L579 353 L580 352 L580 337 L581 336 L581 326 L582 325 L582 319 L583 318 L583 314 L584 313 L584 308 L585 307 L585 304 L586 303 L586 300 L587 299 L587 297 L588 296 L588 295 L589 294 L589 291 L590 290 L590 289 L591 288 L591 286 L592 285 L592 284 L593 283 L593 282 L594 281 L594 280 L595 279 L595 278 L596 277 L596 276 L597 275 L597 274 L598 273 L598 272 L599 271 L599 270 L600 269 L600 267 L601 266 L601 263 L602 262 L602 260 L603 259 L603 258 L600 258 L598 260 L597 260 L583 274 L582 274 L577 279 L576 279 L573 282 L572 282 L571 283 L570 283 L567 286 L566 286 L560 292 L559 292 L557 294 L556 294 L554 296 L553 296 L551 298 L550 298 L549 299 L548 299 L546 301 L545 301 L544 302 L543 302 L541 304 L540 304 L538 306 L537 306 L536 307 L535 307 L533 309 L532 309 L530 311 L529 311 L528 312 L527 312 L524 315 L523 315 L521 317 L520 317 L518 319 L517 319 L516 320 L515 320 L513 322 L512 322 L511 323 L510 323 L508 325 L507 325 L505 327 L504 327 L503 328 L502 328 L500 330 L499 330 L496 333 L495 333 L488 340 L487 340 L487 341 L486 342 L485 342 L477 350 L477 351 L471 357 L471 358 L470 359 L470 360 L468 362 L468 363 L466 365 L466 367 L465 368 L465 369 L463 371 L463 372 L462 373 L462 374 L461 375 L461 376 L460 377 L460 378 L459 379 L459 380 L458 381 L458 382 L457 383 L457 384 L456 385 L456 386 L455 387 L455 388 L454 389 L454 390 L453 391 L453 392 L452 393 L452 394 L451 395 L451 397 L450 398 L450 399 L449 400 L449 402 L448 403 L448 406 L447 407 L447 411 L446 412 L446 416 L445 417 L445 421 L444 422 L444 438 L445 439 L445 447 L446 448 L446 467 L447 468 L447 474 L448 475 L447 476 L447 498 L446 499 L446 503 L445 504 L445 505 L444 506 L444 507 L443 508 L443 510 L442 511 L442 515 L441 516 L441 519 L440 520 L440 528 L439 529 L439 532 L438 533 L438 537 L437 538 L437 552 L436 553 L436 558 L435 559 L435 563 L434 564 L434 566 L433 567 L433 571 L432 572 L432 579 L431 580 L431 585 L430 586 L430 589 L429 590 L429 595 L428 596 L428 605 L427 606 L427 610 L426 611 L426 616 L425 617 L425 623 L424 624 L424 626 L423 627 L423 629 L422 630 L422 632 L421 633 L421 636 L420 637 L420 640 L419 641 L419 644 L418 645 L418 648 L417 649 L417 650 L416 651 L416 652 L414 654 L414 655 L413 656 L413 657 L412 658 L412 660 L411 661 L411 663 L410 664 L410 667 L409 668 L409 671 L408 672 L408 679 L407 680 L407 682 L406 683 L406 686 L405 687 L405 690 L404 691 L404 700 L403 701 L403 705 L402 706 L401 705 L401 696 L402 695 L402 635 L401 634 L401 611 L400 610 L400 580 L399 579 L399 575 L400 574 L400 534 L399 533 L399 515 L398 514 L398 507 L397 506 L397 476 L396 475 L396 465 L395 464 L395 453 L394 452 L394 442 L393 441 L393 429 L392 428 L392 424 L391 423 L391 403 L392 402 L392 399 L393 398 L393 395 L394 394 L394 392 L395 391 L395 388 L396 387 L396 380 L397 379 L397 376 L399 374 L399 373 L400 372 L400 371 L402 369 L402 368 L405 365 L405 364 L407 362 L407 361 L409 359 L409 358 L411 356 L411 355 L413 353 L413 352 L414 351 L414 350 L416 348 L416 347 L417 346 L417 345 L418 344 L418 343 L420 341 L420 340 L421 339 L421 338 L423 336 L423 335 L424 334 L424 333 L425 332 L425 331 L427 329 L427 328 L428 327 L428 326 L429 325 L429 324 L430 323 L430 322 L431 321 L431 320 L432 319 L432 317 L433 316 L433 314 L434 313 L434 312 L435 311 L435 307 L436 306 L436 304 L437 303 L437 300 L438 299 L438 298 L439 297 L439 296 L440 295 L440 294 L441 293 L441 291 L442 290 L442 288 L443 287 L443 284 L444 283 L444 281 L445 280 L445 274 L446 273 L446 265 L447 264 L447 235 L446 234 L446 229 L445 228 L445 226 L444 225 L444 219 L443 218 L443 213 L442 212 L442 210 L441 209 L441 208 L440 207 L440 205 L439 204 L439 203 L438 202 L438 201 L437 200 L437 199 L436 198 L436 196 L435 195 L435 194 L434 193 L434 191 L433 190 L433 189 L432 188 L432 187 L431 186 L431 185 L430 184 L430 182 L429 181 L429 180 L428 179 L428 178 L427 177 L427 175 L426 174 L426 173 L425 172 L425 170 L424 169 L424 167 L423 166 L423 164 L422 163 L422 162 L421 161 L421 159 L420 158 L420 157 L419 156 L419 154 L418 153 L418 152 L417 151 L417 150 L416 149 L416 148 L415 147 L415 146 L414 145 L414 144 L412 142 L412 141 L411 140 L411 139 L410 138 L410 137 L408 135 L408 134 L406 132 L406 131 L404 129 L404 128 L401 125 L401 124 L399 122 L399 121 L397 119 L397 118 L395 116 L395 115 L393 113 L393 112 L391 110 L391 109 L388 106 L388 105 L382 99 L381 99 L375 93 L374 93 L366 85 L365 85 L355 75 L354 75 L353 74 L352 74 L351 73 L350 73 L349 72 L347 72 L346 71 L345 71 L344 70 L344 69 L343 68 L343 66 L341 64 L341 63 L334 56 L334 55 L331 52 L331 51 L329 49 L329 47 L327 45 L327 44 L326 43 L326 42 L325 41 L325 40 L324 39 L324 38 L323 37 L323 35 L322 34 L322 33 L321 32 L321 30 L320 29 L320 27 L319 26 L319 23 L318 22 L318 14 L317 13 L317 12 L316 11 Z " fill="black"/></svg>