<svg width="386" height="434" xmlns="http://www.w3.org/2000/svg"><path d="M149 11 L148 12 L147 12 L146 13 L145 13 L138 20 L138 21 L136 23 L135 23 L135 24 L134 25 L134 26 L132 28 L132 29 L131 30 L131 31 L130 32 L130 33 L129 34 L129 37 L128 38 L128 41 L127 42 L127 45 L126 46 L126 48 L125 49 L125 53 L124 54 L124 55 L125 56 L125 59 L123 61 L122 61 L121 60 L117 60 L116 61 L112 61 L111 62 L108 62 L107 63 L99 63 L98 64 L97 64 L96 65 L95 65 L95 66 L93 68 L92 68 L91 69 L89 69 L88 70 L87 70 L86 71 L85 71 L81 75 L81 76 L79 78 L79 79 L78 80 L78 81 L77 82 L77 94 L76 95 L76 103 L77 104 L77 105 L78 106 L78 107 L77 108 L76 107 L75 107 L74 106 L73 106 L72 105 L70 105 L69 104 L61 104 L60 105 L52 105 L51 106 L49 106 L48 107 L47 107 L46 108 L45 108 L44 109 L43 109 L41 111 L40 111 L38 113 L37 113 L35 115 L34 115 L31 118 L31 119 L30 120 L30 121 L28 123 L28 124 L27 125 L27 126 L26 127 L26 129 L25 130 L25 132 L24 133 L24 140 L23 141 L23 158 L22 159 L22 160 L23 161 L23 164 L24 165 L24 168 L25 169 L25 172 L26 173 L26 174 L27 175 L27 176 L31 180 L32 180 L36 184 L40 184 L41 185 L42 185 L43 184 L45 184 L46 185 L52 185 L53 184 L55 184 L58 181 L60 181 L61 180 L69 180 L70 179 L71 179 L72 178 L73 178 L88 163 L88 162 L89 161 L89 160 L90 159 L90 158 L91 157 L91 156 L92 155 L92 154 L93 153 L93 151 L94 150 L94 147 L95 146 L95 142 L96 141 L96 135 L98 133 L101 133 L102 134 L103 134 L104 135 L108 135 L109 136 L110 136 L111 137 L112 137 L113 138 L115 138 L116 139 L117 139 L119 141 L117 143 L116 143 L115 144 L114 144 L113 145 L111 145 L110 146 L109 146 L108 147 L107 147 L106 148 L105 148 L104 149 L103 149 L102 150 L101 150 L98 153 L98 154 L96 156 L96 157 L95 158 L95 159 L94 160 L94 161 L93 162 L93 163 L92 164 L92 165 L91 166 L91 168 L90 169 L90 174 L91 175 L91 176 L90 177 L90 178 L91 179 L91 185 L92 186 L92 190 L93 191 L93 194 L94 195 L94 196 L95 197 L95 198 L97 200 L97 201 L95 203 L94 203 L93 204 L92 204 L91 205 L90 205 L89 206 L88 206 L87 207 L86 207 L85 208 L84 208 L82 210 L81 210 L80 211 L79 211 L76 214 L75 214 L69 220 L68 220 L64 224 L63 224 L54 233 L53 232 L53 231 L52 230 L51 230 L50 229 L49 229 L48 228 L31 228 L30 229 L29 229 L26 232 L26 233 L19 240 L17 240 L16 241 L16 242 L15 243 L15 245 L14 246 L14 247 L13 248 L13 252 L12 253 L12 254 L13 255 L13 257 L12 258 L12 260 L11 261 L11 270 L12 271 L12 274 L13 275 L13 279 L14 280 L14 283 L15 284 L15 286 L16 287 L16 288 L17 289 L17 290 L18 291 L18 292 L19 293 L19 294 L22 297 L22 298 L27 303 L28 303 L32 307 L33 307 L36 310 L38 310 L39 311 L40 311 L41 312 L50 312 L51 311 L53 311 L54 310 L55 310 L57 308 L58 308 L60 306 L61 306 L64 303 L64 302 L65 301 L65 300 L66 299 L66 298 L67 297 L67 295 L68 294 L68 292 L69 291 L69 290 L70 289 L70 288 L71 287 L71 284 L72 283 L72 279 L73 278 L73 265 L72 264 L72 258 L71 257 L71 254 L70 253 L70 251 L69 250 L69 249 L68 248 L68 247 L67 246 L67 245 L65 243 L65 242 L63 240 L63 239 L61 237 L61 236 L67 230 L68 230 L71 227 L72 227 L75 224 L76 224 L78 222 L79 222 L80 221 L81 221 L83 219 L84 219 L85 218 L86 218 L87 217 L88 217 L89 216 L90 216 L91 215 L92 215 L93 214 L94 214 L95 213 L97 213 L98 212 L102 212 L103 211 L111 211 L112 212 L113 212 L115 214 L115 216 L114 217 L113 217 L112 218 L110 218 L109 219 L108 219 L107 220 L105 220 L104 221 L102 221 L101 222 L100 222 L99 223 L98 223 L97 224 L95 224 L94 225 L92 225 L91 226 L91 236 L92 237 L92 241 L93 242 L93 244 L94 245 L94 247 L89 252 L89 253 L87 255 L87 256 L85 258 L85 262 L84 263 L84 287 L85 288 L85 294 L86 295 L86 298 L87 299 L87 301 L88 302 L88 303 L89 304 L89 305 L91 307 L91 308 L92 309 L92 310 L93 311 L93 312 L94 313 L94 314 L97 317 L98 317 L102 321 L103 321 L105 323 L106 323 L109 326 L109 330 L110 331 L110 334 L111 335 L111 338 L112 339 L112 347 L113 348 L113 353 L114 354 L114 358 L115 359 L115 361 L116 362 L116 365 L117 366 L117 368 L118 369 L118 371 L119 372 L119 376 L120 377 L120 381 L121 382 L121 384 L122 385 L122 389 L123 390 L123 393 L124 394 L124 396 L125 397 L125 400 L126 401 L126 403 L129 406 L129 407 L131 409 L132 409 L134 411 L135 411 L136 412 L137 412 L138 413 L139 413 L140 414 L141 414 L142 415 L143 415 L144 416 L146 416 L147 417 L149 417 L150 418 L153 418 L154 419 L161 419 L162 420 L166 420 L167 421 L172 421 L173 422 L221 422 L222 421 L227 421 L228 420 L232 420 L233 419 L236 419 L237 418 L239 418 L240 417 L241 417 L242 416 L243 416 L244 415 L245 415 L246 414 L247 414 L249 412 L250 412 L252 410 L253 410 L254 409 L255 409 L257 407 L257 406 L259 404 L259 403 L260 402 L260 399 L261 398 L261 395 L262 394 L262 391 L263 390 L263 386 L264 385 L264 381 L265 380 L265 378 L266 377 L266 375 L267 374 L267 372 L268 371 L268 365 L269 364 L269 361 L270 360 L270 355 L271 354 L271 351 L272 350 L272 348 L273 347 L273 340 L274 339 L274 331 L275 330 L275 325 L276 324 L276 314 L277 313 L277 310 L278 309 L289 309 L290 310 L292 310 L293 309 L294 309 L295 310 L297 310 L298 309 L300 309 L301 308 L304 308 L305 307 L306 307 L307 306 L308 306 L309 305 L310 305 L319 296 L319 295 L320 294 L320 293 L321 292 L321 291 L322 290 L322 289 L323 288 L323 286 L324 285 L324 283 L325 282 L325 280 L326 279 L326 278 L327 277 L327 275 L328 274 L328 273 L329 272 L329 265 L330 264 L330 263 L332 261 L333 261 L334 262 L334 263 L336 265 L336 268 L337 269 L337 270 L338 271 L338 272 L339 273 L339 274 L341 276 L341 277 L343 279 L343 280 L349 286 L350 286 L351 287 L352 287 L355 290 L357 290 L358 291 L361 291 L362 290 L363 290 L365 288 L365 287 L368 284 L368 283 L369 282 L369 281 L370 280 L370 279 L371 278 L371 275 L372 274 L372 270 L373 269 L373 258 L374 257 L374 255 L373 254 L373 249 L374 248 L374 243 L373 242 L373 234 L372 233 L372 229 L371 228 L371 226 L369 224 L369 223 L368 222 L368 221 L366 219 L366 218 L364 216 L363 216 L361 214 L359 214 L358 213 L356 213 L355 212 L351 212 L350 213 L345 213 L344 214 L342 214 L338 218 L338 219 L335 222 L334 222 L332 220 L332 219 L326 213 L325 213 L323 211 L322 211 L321 210 L319 210 L318 209 L316 209 L315 208 L312 208 L311 207 L306 207 L305 206 L301 206 L299 204 L300 203 L304 203 L305 202 L309 202 L310 201 L313 201 L315 203 L316 203 L317 204 L320 204 L321 205 L328 205 L329 204 L330 204 L331 203 L331 202 L335 198 L335 197 L336 196 L336 195 L337 194 L337 191 L338 190 L338 174 L340 172 L341 173 L342 173 L344 175 L345 175 L346 176 L347 176 L348 177 L349 177 L350 178 L351 178 L352 179 L353 179 L354 180 L355 180 L356 181 L360 181 L361 180 L362 180 L363 179 L363 178 L364 177 L364 174 L365 173 L365 170 L364 169 L364 162 L363 161 L363 158 L362 157 L362 154 L361 153 L361 151 L360 150 L360 144 L359 143 L359 142 L358 141 L357 141 L356 140 L356 139 L355 138 L355 137 L354 136 L354 132 L353 131 L353 130 L352 129 L352 128 L347 123 L347 122 L346 122 L345 121 L345 120 L336 111 L335 111 L334 110 L333 110 L332 109 L330 109 L329 108 L326 108 L325 107 L324 108 L319 108 L318 109 L317 109 L316 110 L315 110 L314 111 L313 111 L308 116 L308 117 L306 119 L306 121 L305 122 L305 125 L303 127 L293 127 L292 128 L291 128 L290 129 L289 129 L286 132 L285 132 L283 134 L282 134 L275 141 L275 142 L274 143 L274 144 L273 145 L273 146 L272 147 L272 148 L270 150 L267 150 L266 151 L265 151 L264 150 L265 149 L265 148 L266 147 L266 146 L268 144 L268 143 L270 141 L270 140 L271 139 L271 137 L272 136 L272 135 L273 134 L273 132 L274 131 L274 127 L275 126 L275 120 L274 119 L274 115 L273 114 L273 113 L272 112 L272 111 L267 106 L267 105 L269 103 L272 103 L273 104 L275 104 L276 105 L278 105 L279 106 L281 106 L282 107 L289 107 L290 108 L291 108 L292 107 L292 104 L293 103 L294 104 L296 104 L297 103 L299 103 L300 104 L298 106 L296 106 L296 108 L299 108 L300 107 L304 107 L305 106 L306 106 L307 105 L308 105 L310 103 L311 103 L316 98 L317 98 L318 97 L319 97 L320 96 L321 96 L324 93 L324 92 L325 91 L325 85 L326 84 L326 75 L325 74 L325 71 L324 70 L324 69 L319 64 L319 63 L315 59 L315 58 L307 50 L304 50 L303 49 L301 49 L299 47 L299 42 L298 41 L298 39 L297 38 L297 37 L296 36 L296 35 L295 34 L295 33 L294 32 L294 31 L292 29 L292 28 L291 27 L291 26 L288 23 L287 23 L286 22 L285 22 L284 21 L283 21 L281 19 L280 19 L279 18 L278 18 L277 17 L276 17 L275 16 L268 16 L267 15 L257 15 L256 16 L253 16 L252 17 L249 17 L248 18 L247 18 L246 19 L244 19 L243 20 L241 20 L240 21 L238 21 L235 24 L234 24 L231 27 L230 27 L228 29 L227 29 L224 32 L223 32 L222 33 L222 34 L220 36 L220 37 L219 38 L219 40 L218 41 L218 43 L217 44 L217 47 L216 48 L216 49 L217 50 L217 51 L216 52 L216 54 L217 55 L217 59 L218 60 L218 61 L219 62 L219 63 L220 64 L220 65 L222 67 L222 68 L224 70 L224 71 L229 76 L230 76 L233 79 L237 79 L239 81 L236 84 L236 85 L234 87 L234 88 L233 89 L233 92 L232 93 L230 91 L230 90 L224 84 L223 84 L222 83 L221 83 L220 82 L218 82 L217 81 L215 81 L214 80 L208 80 L207 79 L200 79 L199 80 L196 80 L195 81 L194 81 L193 82 L191 82 L190 83 L189 83 L188 84 L188 86 L187 87 L187 88 L186 89 L186 90 L182 94 L181 94 L180 95 L180 96 L178 98 L178 105 L182 109 L189 109 L190 110 L191 110 L192 111 L192 112 L193 113 L193 115 L192 116 L192 118 L191 119 L191 121 L192 122 L192 127 L191 128 L190 128 L189 127 L188 127 L187 126 L182 126 L179 123 L179 122 L178 121 L178 120 L177 119 L177 114 L176 113 L176 110 L175 109 L175 105 L174 104 L174 101 L173 100 L173 98 L172 97 L172 95 L171 94 L171 93 L170 92 L170 90 L169 89 L169 87 L168 86 L168 84 L170 82 L172 82 L173 81 L175 81 L176 80 L177 80 L178 79 L179 79 L180 78 L181 78 L182 77 L183 77 L186 74 L186 73 L189 70 L190 70 L191 69 L191 68 L192 67 L192 66 L193 65 L193 63 L194 62 L194 45 L193 44 L193 41 L192 40 L192 37 L191 36 L191 35 L184 28 L184 27 L178 21 L176 21 L171 16 L170 16 L169 15 L168 15 L167 14 L166 14 L165 13 L164 13 L163 12 L162 12 L161 11 Z " fill="black"/></svg>