<svg width="426" height="427" xmlns="http://www.w3.org/2000/svg"><path d="M191 11 L190 12 L188 12 L187 13 L185 13 L184 14 L183 14 L182 15 L181 15 L176 20 L176 21 L174 23 L166 15 L165 15 L163 13 L162 13 L161 12 L158 12 L157 13 L154 13 L153 14 L152 14 L151 15 L150 15 L147 18 L147 19 L145 21 L145 22 L143 24 L143 25 L141 27 L141 29 L140 30 L140 31 L141 32 L141 43 L140 44 L138 44 L137 45 L134 45 L133 46 L132 46 L131 47 L129 47 L127 49 L126 49 L125 50 L125 51 L123 53 L123 54 L122 55 L122 57 L121 58 L121 62 L122 63 L122 65 L124 67 L124 68 L125 69 L126 69 L128 71 L129 71 L130 72 L131 72 L132 73 L133 73 L134 74 L135 74 L136 75 L137 75 L142 80 L142 81 L140 83 L137 80 L136 80 L134 78 L133 78 L131 76 L130 76 L129 75 L128 75 L127 74 L125 74 L124 73 L121 73 L120 72 L115 72 L114 71 L110 71 L109 70 L106 70 L105 69 L101 69 L100 68 L93 68 L92 69 L88 69 L87 70 L82 70 L81 71 L79 71 L78 72 L77 72 L76 73 L75 73 L70 78 L69 78 L66 81 L66 82 L65 83 L65 84 L64 85 L64 88 L63 89 L63 100 L64 101 L64 102 L65 103 L65 104 L67 106 L67 107 L69 109 L69 110 L71 112 L71 113 L75 117 L75 118 L74 119 L70 119 L69 118 L66 118 L65 119 L57 119 L56 120 L54 120 L53 121 L51 121 L49 123 L48 123 L45 126 L44 126 L42 128 L41 128 L40 129 L33 129 L32 130 L31 130 L29 132 L29 133 L28 134 L28 135 L27 136 L26 136 L25 137 L24 137 L21 140 L20 140 L16 144 L16 145 L13 148 L13 149 L12 150 L12 151 L11 152 L11 159 L12 160 L12 162 L22 172 L22 173 L24 175 L25 175 L28 178 L29 178 L30 179 L31 179 L32 180 L34 180 L35 181 L37 181 L38 182 L39 182 L40 183 L41 183 L43 185 L44 185 L45 186 L46 186 L48 188 L49 188 L50 189 L59 189 L60 190 L60 191 L59 192 L56 192 L56 194 L58 196 L58 197 L60 199 L60 201 L59 202 L59 203 L58 204 L58 205 L57 206 L57 207 L55 209 L55 210 L53 212 L53 213 L52 214 L52 215 L51 216 L51 218 L50 219 L50 221 L49 222 L49 224 L48 225 L48 247 L49 248 L49 250 L50 251 L50 253 L51 254 L51 255 L55 259 L56 259 L57 260 L60 260 L61 261 L62 261 L63 262 L66 262 L67 263 L87 263 L88 262 L92 262 L93 261 L98 261 L99 262 L99 264 L100 265 L100 268 L101 269 L101 271 L102 272 L102 274 L103 275 L103 276 L104 277 L104 278 L105 279 L105 280 L110 285 L111 285 L114 288 L114 291 L115 292 L115 302 L116 303 L116 308 L117 309 L117 311 L118 312 L118 315 L119 316 L119 318 L120 319 L120 322 L121 323 L121 327 L122 328 L122 332 L123 333 L123 336 L124 337 L124 342 L125 343 L125 346 L126 347 L126 349 L127 350 L127 354 L128 355 L128 359 L129 360 L129 362 L130 363 L130 366 L131 367 L131 370 L132 371 L132 374 L133 375 L133 378 L134 379 L134 381 L135 382 L135 383 L136 384 L136 385 L138 387 L138 389 L139 390 L139 391 L141 393 L141 394 L142 395 L142 396 L147 401 L148 401 L151 404 L152 404 L153 405 L157 405 L160 408 L160 409 L161 410 L163 410 L164 411 L170 411 L171 412 L181 412 L182 413 L189 413 L190 414 L196 414 L197 415 L211 415 L212 416 L215 416 L216 415 L219 415 L220 416 L221 415 L236 415 L237 414 L243 414 L244 413 L250 413 L251 412 L263 412 L264 411 L269 411 L270 410 L272 410 L273 409 L274 409 L276 407 L277 407 L278 406 L279 406 L280 405 L281 405 L282 404 L285 404 L286 403 L286 402 L288 400 L288 399 L292 395 L292 394 L295 391 L295 389 L296 388 L296 383 L297 382 L297 379 L298 378 L298 375 L299 374 L299 371 L300 370 L300 366 L301 365 L301 363 L302 362 L302 360 L303 359 L303 357 L304 356 L304 349 L305 348 L305 345 L306 344 L306 338 L307 337 L307 335 L308 334 L308 328 L309 327 L309 320 L310 319 L310 317 L311 316 L311 314 L312 313 L312 310 L313 309 L313 304 L314 303 L314 299 L315 298 L315 294 L316 293 L316 290 L317 289 L317 287 L318 286 L318 285 L319 284 L319 283 L326 276 L326 275 L328 273 L328 271 L329 270 L329 267 L330 266 L330 259 L331 258 L331 255 L332 254 L332 250 L333 249 L333 241 L334 240 L337 240 L338 241 L340 241 L341 242 L344 242 L345 243 L371 243 L372 242 L375 242 L376 241 L378 241 L379 240 L385 240 L386 239 L387 239 L388 238 L389 238 L390 237 L391 237 L392 236 L396 236 L397 235 L399 235 L404 230 L404 228 L405 227 L405 222 L406 221 L406 215 L407 214 L406 213 L406 209 L405 208 L405 207 L403 205 L403 204 L401 202 L401 201 L399 199 L399 198 L398 197 L398 196 L396 194 L396 193 L395 192 L395 191 L393 189 L393 188 L391 186 L391 185 L388 182 L387 182 L385 180 L384 180 L383 179 L381 179 L380 178 L379 178 L378 177 L377 177 L375 175 L379 171 L380 171 L381 170 L382 170 L385 167 L386 167 L389 164 L390 164 L401 153 L401 152 L408 145 L408 144 L410 142 L410 140 L411 139 L411 137 L412 136 L412 135 L413 134 L413 133 L414 132 L414 131 L415 130 L414 129 L414 126 L413 125 L413 124 L411 122 L411 121 L408 118 L408 117 L404 113 L403 113 L400 110 L399 110 L396 107 L395 107 L394 106 L393 106 L392 105 L391 105 L390 104 L389 104 L388 103 L387 103 L386 102 L385 102 L384 101 L382 101 L381 100 L378 100 L377 99 L370 99 L369 98 L361 98 L360 99 L349 99 L348 98 L347 98 L345 96 L345 95 L339 89 L338 89 L337 88 L336 88 L335 87 L331 87 L330 86 L323 86 L322 87 L318 87 L317 86 L317 80 L318 79 L318 73 L319 72 L319 64 L318 63 L318 62 L317 61 L316 61 L314 59 L313 59 L312 58 L310 58 L309 57 L307 57 L306 56 L306 54 L307 53 L307 47 L308 46 L308 44 L307 43 L307 39 L306 38 L306 37 L305 36 L305 35 L301 31 L300 31 L299 30 L299 29 L298 28 L298 27 L297 27 L296 26 L295 26 L294 25 L288 25 L287 26 L285 26 L278 33 L278 34 L273 39 L272 39 L271 38 L271 36 L270 35 L270 34 L269 33 L269 32 L267 30 L266 30 L265 29 L264 29 L263 28 L261 28 L260 29 L258 29 L257 30 L255 30 L254 31 L253 31 L249 35 L248 35 L247 36 L246 36 L245 37 L244 37 L243 38 L243 39 L242 40 L242 41 L241 42 L241 43 L240 44 L240 48 L239 49 L239 52 L238 53 L238 54 L237 55 L235 53 L234 53 L233 52 L232 52 L231 51 L229 51 L228 50 L226 50 L225 49 L216 49 L215 50 L213 48 L213 47 L212 46 L212 43 L211 42 L211 40 L210 39 L210 30 L211 29 L211 22 L210 21 L210 20 L209 19 L209 18 L205 14 L204 14 L203 13 L202 13 L201 12 L200 12 L199 11 Z " fill="black"/></svg>