<svg width="744" height="634" xmlns="http://www.w3.org/2000/svg"><path d="M719 24 L719 25 L720 24 L722 24 Z M696 11 L695 12 L694 12 L693 13 L692 13 L690 15 L689 15 L688 16 L687 16 L686 17 L685 17 L683 19 L682 19 L681 20 L680 20 L678 22 L677 22 L675 24 L674 24 L672 26 L671 26 L669 28 L668 28 L667 29 L666 29 L664 31 L663 31 L661 33 L660 33 L658 35 L657 35 L655 37 L654 37 L652 39 L651 39 L649 41 L648 41 L646 43 L645 43 L642 46 L641 46 L639 48 L638 48 L636 50 L635 50 L633 52 L632 52 L630 54 L629 54 L628 55 L627 55 L624 58 L623 58 L621 60 L620 60 L618 62 L617 62 L615 64 L614 64 L612 66 L611 66 L609 68 L608 68 L606 70 L605 70 L603 72 L602 72 L599 75 L598 75 L596 77 L595 77 L592 80 L591 80 L588 83 L587 83 L585 85 L584 85 L583 86 L581 86 L580 87 L575 87 L574 88 L570 88 L569 89 L566 89 L565 90 L562 90 L561 91 L558 91 L557 92 L554 92 L553 93 L551 93 L550 94 L548 94 L547 95 L544 95 L543 96 L541 96 L540 97 L538 97 L537 98 L535 98 L534 99 L532 99 L531 100 L529 100 L528 101 L526 101 L525 102 L523 102 L522 103 L521 103 L520 104 L518 104 L517 105 L515 105 L514 106 L512 106 L511 107 L510 107 L509 108 L507 108 L506 109 L504 109 L503 110 L502 110 L501 111 L499 111 L498 112 L496 112 L495 113 L494 113 L493 114 L491 114 L490 115 L489 115 L488 116 L486 116 L485 117 L483 117 L482 118 L480 118 L479 119 L478 119 L477 120 L475 120 L474 121 L472 121 L471 122 L469 122 L468 123 L467 123 L466 124 L464 124 L463 125 L460 125 L459 124 L459 123 L457 121 L456 121 L455 120 L448 120 L447 121 L443 121 L442 122 L439 122 L438 123 L436 123 L435 124 L431 124 L430 125 L428 125 L427 126 L425 126 L424 127 L422 127 L421 128 L420 128 L419 129 L418 129 L415 132 L415 133 L414 134 L414 136 L413 137 L412 137 L411 138 L408 138 L407 139 L406 139 L405 140 L403 140 L402 141 L400 141 L399 142 L398 142 L397 143 L395 143 L394 144 L392 144 L391 145 L390 145 L389 146 L387 146 L386 147 L385 147 L384 148 L382 148 L381 149 L380 149 L379 150 L377 150 L376 151 L374 151 L373 152 L372 152 L371 153 L369 153 L368 154 L367 154 L366 155 L364 155 L363 156 L362 156 L361 157 L359 157 L358 158 L356 158 L355 159 L354 159 L353 160 L351 160 L350 161 L349 161 L348 162 L346 162 L345 163 L344 163 L343 164 L341 164 L340 165 L338 165 L337 166 L336 166 L335 167 L333 167 L332 168 L330 168 L329 169 L328 169 L327 170 L325 170 L324 171 L323 171 L322 172 L321 172 L320 173 L318 173 L317 174 L315 174 L314 175 L313 175 L312 176 L310 176 L309 177 L308 177 L307 178 L305 178 L304 179 L303 179 L302 180 L300 180 L299 181 L297 181 L296 182 L295 182 L294 183 L292 183 L291 184 L289 184 L288 185 L287 185 L286 186 L284 186 L283 187 L281 187 L280 188 L279 188 L278 189 L276 189 L275 190 L273 190 L272 191 L271 191 L270 192 L268 192 L267 193 L265 193 L264 194 L262 194 L261 195 L260 195 L259 196 L257 196 L256 197 L254 197 L253 198 L252 198 L251 199 L249 199 L248 200 L246 200 L245 201 L244 201 L243 202 L241 202 L240 203 L238 203 L237 204 L235 204 L234 205 L233 205 L232 206 L230 206 L229 207 L228 207 L227 208 L225 208 L224 209 L222 209 L221 210 L220 210 L219 211 L217 211 L216 212 L215 212 L214 213 L212 213 L211 214 L210 214 L209 215 L207 215 L206 216 L205 216 L204 217 L202 217 L201 218 L199 218 L198 219 L197 219 L196 220 L195 219 L194 219 L192 217 L191 217 L190 216 L183 216 L182 217 L180 217 L179 218 L177 218 L176 219 L175 219 L174 220 L172 220 L171 221 L170 221 L169 222 L167 222 L166 223 L165 223 L164 224 L163 224 L162 225 L161 225 L160 226 L159 226 L158 227 L156 227 L154 229 L152 229 L151 230 L150 230 L149 231 L148 231 L147 232 L145 232 L144 233 L143 233 L142 234 L141 234 L140 235 L138 235 L137 236 L136 236 L135 237 L134 237 L133 238 L132 238 L131 239 L129 239 L128 240 L127 240 L126 241 L125 241 L124 242 L122 242 L121 243 L120 243 L119 244 L117 244 L116 245 L115 245 L114 246 L112 246 L111 247 L110 247 L109 248 L107 248 L106 249 L104 249 L103 250 L101 250 L100 251 L99 251 L98 252 L96 252 L95 253 L94 253 L93 254 L91 254 L90 255 L89 255 L88 256 L86 256 L85 257 L83 257 L82 258 L81 258 L80 259 L78 259 L77 260 L76 260 L75 261 L73 261 L72 262 L70 262 L69 263 L68 263 L67 264 L65 264 L64 265 L62 265 L61 266 L59 266 L58 267 L56 267 L55 268 L53 268 L52 269 L50 269 L49 270 L47 270 L46 271 L45 271 L44 272 L41 272 L40 273 L39 273 L38 274 L36 274 L35 275 L34 275 L33 276 L31 276 L30 277 L29 277 L28 278 L27 278 L26 279 L25 279 L23 281 L22 281 L15 288 L15 289 L14 290 L14 291 L13 292 L13 293 L12 294 L12 296 L11 297 L11 300 L10 301 L10 310 L11 311 L11 314 L12 315 L12 318 L13 319 L13 320 L14 321 L14 322 L15 323 L15 324 L16 325 L16 326 L18 328 L18 329 L21 332 L21 333 L24 336 L25 336 L28 339 L29 339 L31 341 L33 341 L34 342 L35 342 L36 343 L47 343 L48 342 L51 342 L52 341 L53 341 L54 340 L56 340 L57 339 L59 339 L60 338 L62 338 L63 337 L64 337 L65 336 L67 336 L68 335 L70 335 L71 334 L73 334 L74 333 L76 333 L77 332 L79 332 L80 331 L82 331 L83 330 L85 330 L86 329 L88 329 L89 328 L91 328 L92 327 L93 327 L94 326 L96 326 L97 325 L99 325 L100 324 L101 324 L102 323 L104 323 L105 322 L107 322 L108 321 L110 321 L111 320 L112 320 L113 319 L115 319 L116 318 L117 318 L118 317 L119 317 L120 316 L122 316 L123 315 L125 315 L126 314 L127 314 L128 313 L129 313 L130 312 L132 312 L133 311 L134 311 L135 310 L137 310 L138 309 L139 309 L140 308 L142 308 L143 307 L144 307 L145 306 L147 306 L148 305 L149 305 L150 304 L151 304 L152 303 L154 303 L155 302 L157 302 L158 301 L159 301 L160 300 L162 300 L163 299 L165 299 L166 298 L167 298 L168 297 L170 297 L171 296 L173 296 L174 295 L175 295 L176 294 L178 294 L179 293 L181 293 L182 292 L184 292 L185 291 L186 291 L187 290 L189 290 L190 289 L191 289 L192 288 L194 288 L195 287 L196 287 L197 286 L199 286 L200 285 L202 285 L203 284 L205 284 L206 283 L207 283 L208 282 L209 282 L210 281 L211 281 L213 279 L213 278 L214 277 L214 273 L216 271 L217 271 L218 270 L220 270 L221 269 L223 269 L224 268 L225 268 L226 267 L228 267 L229 266 L230 266 L231 265 L233 265 L234 264 L236 264 L237 263 L239 263 L240 262 L241 262 L242 261 L243 261 L244 260 L246 260 L247 259 L248 259 L249 258 L250 258 L251 257 L253 257 L254 256 L256 256 L257 255 L258 255 L259 254 L261 254 L262 253 L264 253 L265 252 L266 252 L267 251 L269 251 L270 250 L272 250 L273 249 L274 249 L275 248 L277 248 L278 247 L279 247 L280 246 L282 246 L283 245 L285 245 L286 244 L287 244 L288 243 L290 243 L291 242 L292 242 L293 241 L295 241 L296 240 L297 240 L298 239 L300 239 L301 238 L302 238 L303 237 L305 237 L306 236 L308 236 L309 235 L310 235 L311 234 L313 234 L314 233 L316 233 L317 232 L318 232 L319 231 L321 231 L322 230 L323 230 L324 229 L326 229 L327 228 L328 228 L329 227 L331 227 L332 226 L334 226 L335 225 L336 225 L337 224 L339 224 L340 223 L342 223 L343 222 L344 222 L345 221 L347 221 L348 220 L350 220 L351 219 L352 219 L353 218 L355 218 L356 217 L358 217 L359 216 L360 216 L361 215 L362 215 L363 214 L365 214 L366 213 L368 213 L369 212 L370 212 L371 211 L373 211 L374 210 L376 210 L377 209 L379 209 L380 208 L381 208 L382 207 L384 207 L385 206 L387 206 L388 205 L389 205 L390 204 L392 204 L393 203 L395 203 L396 202 L398 202 L399 201 L401 201 L402 200 L404 200 L405 199 L406 199 L407 198 L408 198 L409 197 L411 197 L412 196 L414 196 L415 195 L416 195 L417 194 L419 194 L420 193 L422 193 L423 192 L424 192 L425 191 L426 191 L427 190 L428 190 L429 189 L430 189 L431 188 L435 192 L440 192 L441 191 L443 191 L444 190 L445 190 L447 188 L448 188 L449 187 L450 187 L451 186 L452 186 L453 185 L454 185 L455 184 L456 184 L457 183 L458 183 L459 182 L460 182 L461 181 L462 181 L463 180 L464 180 L465 179 L466 179 L467 178 L469 178 L470 177 L471 177 L474 174 L474 172 L476 170 L477 171 L477 172 L479 174 L479 175 L480 176 L480 177 L481 178 L481 180 L482 181 L482 183 L483 184 L483 186 L485 188 L485 189 L487 191 L488 191 L489 192 L490 192 L491 193 L494 193 L495 194 L500 194 L501 193 L505 193 L506 192 L507 192 L508 191 L510 191 L511 190 L512 190 L513 189 L514 189 L517 186 L518 186 L522 182 L522 181 L523 180 L523 171 L522 170 L522 164 L523 163 L523 159 L524 158 L524 156 L525 155 L525 154 L528 151 L529 151 L530 150 L531 150 L532 149 L534 149 L535 148 L540 148 L541 147 L547 147 L548 146 L558 146 L559 147 L561 147 L564 150 L564 152 L565 153 L565 156 L566 157 L566 158 L567 159 L567 166 L566 167 L566 169 L565 170 L565 171 L564 172 L564 174 L562 176 L562 177 L561 178 L561 179 L559 181 L559 182 L557 184 L557 185 L553 189 L553 190 L550 193 L548 193 L545 190 L544 190 L543 189 L542 189 L541 188 L539 188 L538 187 L535 187 L534 186 L525 186 L524 187 L521 187 L520 188 L519 188 L518 189 L517 189 L515 191 L514 191 L510 195 L509 195 L508 196 L508 197 L506 199 L506 200 L505 201 L505 203 L504 204 L504 212 L505 213 L505 214 L506 215 L506 216 L508 218 L508 219 L514 225 L514 226 L515 227 L515 228 L514 229 L513 229 L512 230 L511 230 L504 237 L503 237 L502 238 L500 238 L499 239 L498 239 L496 241 L496 242 L484 254 L484 255 L482 257 L482 258 L481 259 L481 260 L483 262 L483 264 L482 265 L482 266 L474 274 L474 275 L464 285 L464 286 L454 296 L454 297 L444 307 L444 308 L435 317 L435 318 L427 326 L427 327 L421 333 L421 334 L413 342 L413 343 L405 351 L405 352 L398 359 L398 360 L393 365 L393 366 L386 373 L386 374 L377 383 L377 384 L368 393 L368 394 L359 403 L359 404 L351 412 L351 413 L344 420 L344 421 L336 429 L336 430 L328 438 L325 438 L324 437 L322 437 L320 439 L319 439 L311 447 L311 448 L304 455 L304 456 L298 462 L298 463 L290 471 L290 472 L283 479 L283 480 L276 487 L276 488 L269 495 L269 496 L263 502 L263 503 L255 511 L255 512 L246 521 L246 522 L241 527 L241 528 L232 537 L232 538 L214 556 L214 557 L206 565 L206 566 L202 570 L202 571 L200 573 L200 575 L199 576 L199 579 L198 580 L198 592 L199 593 L199 595 L200 596 L200 597 L201 598 L201 599 L203 601 L203 602 L206 605 L206 606 L213 613 L214 613 L217 616 L218 616 L220 618 L221 618 L222 619 L223 619 L224 620 L226 620 L227 621 L230 621 L231 622 L242 622 L243 621 L246 621 L247 620 L248 620 L249 619 L250 619 L269 600 L269 599 L281 587 L281 586 L290 577 L290 576 L296 570 L296 569 L302 563 L302 562 L310 554 L310 553 L323 540 L323 539 L331 531 L331 530 L338 523 L338 522 L351 509 L351 508 L372 487 L372 486 L374 484 L374 477 L373 476 L373 473 L375 471 L375 470 L380 465 L380 464 L385 459 L385 458 L393 450 L393 449 L410 432 L410 431 L417 424 L417 423 L426 414 L426 413 L433 406 L433 405 L440 398 L440 397 L448 389 L448 388 L456 380 L456 379 L464 371 L464 370 L471 363 L471 362 L479 354 L479 353 L487 345 L487 344 L495 336 L495 335 L503 327 L503 326 L510 319 L510 318 L516 312 L516 311 L521 306 L521 305 L525 301 L528 301 L529 300 L530 300 L532 298 L533 298 L547 284 L547 283 L548 282 L548 280 L554 274 L554 268 L553 267 L553 266 L552 265 L553 264 L553 263 L554 262 L554 261 L557 258 L557 257 L564 250 L564 249 L571 242 L571 241 L577 235 L577 234 L583 228 L583 227 L588 222 L588 221 L594 215 L594 214 L603 205 L603 204 L611 196 L611 195 L614 192 L614 191 L616 189 L616 188 L618 186 L618 185 L620 183 L620 182 L621 181 L621 180 L622 179 L622 178 L623 177 L623 175 L624 174 L624 173 L626 171 L631 171 L632 170 L636 170 L637 169 L641 169 L642 168 L644 168 L645 167 L648 167 L649 166 L650 166 L651 165 L653 165 L654 164 L656 164 L657 163 L658 163 L659 162 L660 162 L661 161 L663 161 L664 160 L665 160 L666 159 L667 159 L668 158 L669 158 L670 157 L671 157 L672 156 L673 156 L675 154 L676 154 L677 153 L678 153 L680 151 L681 151 L683 149 L684 149 L686 147 L687 147 L692 142 L693 142 L699 136 L699 135 L703 131 L703 130 L706 127 L706 126 L709 123 L709 122 L711 120 L711 119 L712 118 L712 117 L714 115 L714 114 L715 113 L715 112 L716 111 L716 110 L717 109 L717 108 L718 107 L718 106 L719 105 L719 104 L720 103 L720 102 L721 101 L721 100 L722 99 L722 98 L723 97 L723 95 L724 94 L724 93 L725 92 L725 91 L726 90 L726 88 L727 87 L727 85 L728 84 L728 82 L729 81 L729 79 L730 78 L730 74 L731 73 L731 69 L732 68 L732 47 L731 46 L731 43 L730 42 L730 40 L729 39 L729 37 L727 35 L727 34 L725 32 L724 32 L723 31 L721 31 L720 32 L719 32 L716 35 L716 37 L715 38 L715 41 L714 42 L714 44 L713 45 L713 48 L712 49 L712 51 L711 52 L711 54 L710 55 L710 56 L709 57 L709 59 L708 60 L708 61 L707 62 L707 63 L706 64 L706 65 L705 66 L705 67 L704 68 L704 69 L703 70 L703 71 L701 73 L701 74 L699 76 L699 77 L696 80 L696 81 L692 85 L691 85 L689 87 L688 86 L688 85 L690 83 L690 82 L692 80 L692 79 L693 78 L693 77 L695 75 L695 74 L696 73 L696 72 L697 71 L697 70 L698 69 L698 68 L699 67 L699 66 L700 65 L700 63 L701 62 L701 61 L702 60 L702 57 L703 56 L703 53 L704 52 L704 47 L705 46 L705 27 L704 26 L704 20 L703 19 L703 16 L702 15 L702 14 L701 13 L701 12 L700 11 Z " fill="black"/></svg>