<svg width="731" height="508" xmlns="http://www.w3.org/2000/svg"><path d="M493 11 L492 12 L463 12 L462 13 L447 13 L446 14 L439 14 L438 15 L430 15 L429 16 L423 16 L422 17 L415 17 L414 18 L407 18 L406 19 L400 19 L399 20 L393 20 L392 21 L389 21 L388 22 L383 22 L382 23 L378 23 L377 24 L373 24 L372 25 L368 25 L367 26 L365 26 L364 27 L361 27 L360 28 L356 28 L355 29 L352 29 L351 30 L349 30 L348 31 L346 31 L345 32 L343 32 L342 33 L340 33 L339 34 L338 34 L337 35 L336 35 L335 36 L334 36 L333 37 L332 37 L331 38 L330 38 L329 39 L328 39 L327 40 L326 40 L324 42 L323 42 L321 44 L321 45 L319 47 L319 48 L318 49 L318 51 L317 52 L317 76 L318 77 L318 84 L319 85 L319 90 L320 91 L320 96 L321 97 L321 104 L322 105 L322 110 L323 111 L323 116 L324 117 L324 123 L325 124 L325 130 L326 131 L326 137 L327 138 L327 142 L328 143 L328 146 L329 147 L329 148 L330 149 L330 150 L331 151 L331 152 L332 153 L332 154 L333 155 L333 156 L334 157 L334 161 L335 162 L335 165 L336 166 L336 169 L337 170 L337 174 L338 175 L338 181 L339 182 L339 187 L340 188 L340 195 L341 196 L341 202 L342 203 L342 208 L343 209 L343 215 L344 216 L344 221 L345 222 L345 228 L346 229 L346 234 L347 235 L347 241 L348 242 L348 248 L349 249 L349 255 L350 256 L350 257 L349 258 L327 258 L326 259 L308 259 L307 260 L299 260 L298 261 L292 261 L291 262 L286 262 L285 263 L281 263 L280 264 L276 264 L275 263 L275 260 L276 259 L276 256 L277 255 L277 252 L278 251 L278 248 L279 247 L279 244 L280 243 L280 238 L281 237 L281 233 L282 232 L282 229 L283 228 L283 226 L285 224 L286 224 L287 223 L288 223 L289 222 L290 222 L294 218 L294 217 L295 216 L295 215 L296 214 L296 212 L297 211 L297 206 L298 205 L298 197 L299 196 L299 185 L300 184 L300 176 L301 175 L301 171 L302 170 L302 153 L301 152 L301 150 L299 148 L299 147 L293 141 L292 141 L290 139 L289 139 L288 138 L287 138 L286 137 L285 137 L284 136 L283 136 L282 135 L281 135 L280 134 L279 134 L278 133 L277 133 L276 132 L275 132 L274 131 L272 131 L271 130 L269 130 L268 129 L265 129 L264 128 L261 128 L260 127 L257 127 L256 126 L251 126 L250 125 L246 125 L245 124 L239 124 L238 123 L233 123 L232 122 L225 122 L224 121 L216 121 L215 120 L201 120 L200 119 L176 119 L175 118 L174 119 L173 118 L172 118 L171 119 L170 119 L169 118 L141 118 L140 119 L120 119 L119 120 L106 120 L105 121 L95 121 L94 122 L85 122 L84 123 L80 123 L79 124 L74 124 L73 125 L69 125 L68 126 L64 126 L63 127 L58 127 L57 128 L54 128 L53 129 L50 129 L49 130 L46 130 L45 131 L43 131 L42 132 L39 132 L38 133 L37 133 L36 134 L35 134 L34 135 L33 135 L32 136 L31 136 L30 137 L28 137 L27 138 L26 138 L25 139 L24 139 L23 140 L22 140 L20 142 L19 142 L17 144 L16 144 L15 145 L15 146 L13 148 L13 149 L12 150 L12 151 L11 152 L11 155 L10 156 L10 163 L11 164 L11 169 L12 170 L12 175 L13 176 L13 180 L14 181 L14 186 L15 187 L15 192 L16 193 L16 198 L17 199 L17 204 L18 205 L18 209 L19 210 L19 212 L20 213 L20 214 L21 215 L21 216 L22 217 L22 218 L27 223 L28 223 L29 224 L30 224 L32 226 L32 227 L33 228 L33 231 L34 232 L34 235 L35 236 L35 239 L36 240 L36 243 L37 244 L37 247 L38 248 L38 252 L39 253 L39 257 L40 258 L40 261 L41 262 L41 266 L42 267 L42 270 L43 271 L43 274 L44 275 L44 278 L45 279 L45 282 L46 283 L46 286 L47 287 L47 290 L48 291 L48 295 L49 296 L49 299 L50 300 L50 304 L51 305 L51 308 L52 309 L52 313 L53 314 L53 317 L54 318 L54 320 L55 321 L55 324 L56 325 L56 328 L57 329 L57 332 L58 333 L58 337 L59 338 L59 342 L60 343 L60 346 L61 347 L61 351 L62 352 L62 356 L63 357 L63 360 L64 361 L64 364 L65 365 L65 369 L66 370 L66 373 L67 374 L67 377 L68 378 L68 381 L69 382 L69 384 L70 385 L70 386 L71 387 L71 388 L73 390 L73 391 L74 392 L75 392 L78 395 L79 395 L80 396 L81 396 L83 398 L84 398 L85 399 L86 399 L87 400 L88 400 L89 401 L90 401 L91 402 L92 402 L93 403 L95 403 L96 404 L98 404 L99 405 L102 405 L103 406 L106 406 L107 407 L110 407 L111 408 L115 408 L116 409 L120 409 L121 410 L127 410 L128 411 L135 411 L136 412 L143 412 L144 413 L176 413 L177 412 L186 412 L187 411 L193 411 L194 410 L198 410 L199 409 L203 409 L204 408 L208 408 L209 407 L212 407 L213 406 L214 406 L215 405 L217 405 L218 406 L218 407 L219 408 L219 410 L220 411 L220 412 L221 413 L221 415 L222 416 L222 417 L223 418 L223 419 L224 420 L224 421 L225 422 L225 423 L226 424 L226 425 L228 427 L228 428 L229 429 L229 430 L231 432 L231 433 L233 435 L233 436 L236 439 L236 440 L240 444 L240 445 L257 462 L257 464 L258 465 L258 471 L259 472 L259 473 L260 474 L260 475 L263 478 L263 479 L264 479 L265 480 L267 480 L268 481 L269 481 L270 482 L272 482 L273 483 L274 483 L275 484 L276 484 L277 485 L279 485 L280 486 L282 486 L283 487 L286 487 L287 488 L289 488 L290 489 L292 489 L293 490 L295 490 L296 491 L299 491 L300 492 L305 492 L306 493 L312 493 L313 494 L319 494 L320 495 L328 495 L329 496 L348 496 L349 497 L351 497 L352 496 L372 496 L373 495 L380 495 L381 494 L386 494 L387 493 L392 493 L393 492 L397 492 L398 491 L401 491 L402 490 L404 490 L405 489 L408 489 L409 488 L412 488 L413 487 L414 487 L415 486 L417 486 L418 485 L420 485 L421 484 L423 484 L424 483 L425 483 L426 482 L428 482 L429 481 L430 481 L431 480 L432 480 L433 479 L434 479 L439 474 L439 473 L440 472 L440 461 L444 457 L445 457 L449 453 L450 453 L454 449 L454 448 L460 442 L460 441 L463 438 L463 437 L464 436 L464 435 L466 433 L466 432 L467 431 L467 430 L468 429 L468 428 L470 426 L470 424 L471 423 L471 422 L472 421 L472 420 L473 419 L473 417 L474 416 L474 415 L476 413 L477 413 L478 414 L485 414 L486 415 L494 415 L495 416 L504 416 L505 417 L534 417 L535 418 L546 418 L547 417 L566 417 L567 416 L575 416 L576 415 L582 415 L583 414 L587 414 L588 413 L594 413 L595 412 L598 412 L599 411 L602 411 L603 410 L606 410 L607 409 L610 409 L611 408 L614 408 L615 407 L618 407 L619 406 L621 406 L622 405 L624 405 L625 404 L627 404 L628 403 L630 403 L631 402 L632 402 L633 401 L634 401 L635 400 L637 400 L638 399 L639 399 L640 398 L641 398 L642 397 L643 397 L644 396 L645 396 L646 395 L647 395 L648 394 L649 394 L651 392 L652 392 L654 390 L655 390 L661 384 L661 383 L663 381 L663 380 L664 379 L664 378 L665 377 L665 375 L666 374 L666 371 L667 370 L667 365 L668 364 L668 361 L669 360 L669 355 L670 354 L670 350 L671 349 L671 343 L672 342 L672 338 L673 337 L673 331 L674 330 L674 324 L675 323 L675 318 L676 317 L676 312 L677 311 L677 306 L678 305 L678 299 L679 298 L679 293 L680 292 L680 287 L681 286 L681 280 L682 279 L682 275 L683 274 L683 268 L684 267 L684 261 L685 260 L685 255 L686 254 L686 248 L687 247 L687 241 L688 240 L688 236 L689 235 L689 229 L690 228 L690 222 L691 221 L691 215 L692 214 L692 210 L693 209 L693 204 L694 203 L694 198 L695 197 L695 193 L696 192 L696 187 L697 186 L697 180 L698 179 L698 175 L699 174 L699 169 L700 168 L700 164 L701 163 L701 159 L702 158 L702 154 L705 151 L706 151 L707 150 L707 148 L708 147 L708 143 L709 142 L709 138 L710 137 L710 130 L711 129 L711 123 L712 122 L712 116 L713 115 L713 108 L714 107 L714 100 L715 99 L715 89 L716 88 L716 79 L717 78 L717 73 L718 72 L718 64 L719 63 L719 56 L718 55 L718 52 L717 51 L717 49 L715 47 L715 46 L714 45 L714 44 L709 39 L708 39 L705 36 L704 36 L702 34 L701 34 L700 33 L699 33 L698 32 L696 32 L695 31 L694 31 L693 30 L691 30 L690 29 L688 29 L687 28 L684 28 L683 27 L680 27 L679 26 L677 26 L676 25 L672 25 L671 24 L668 24 L667 23 L664 23 L663 22 L660 22 L659 21 L655 21 L654 20 L650 20 L649 19 L644 19 L643 18 L638 18 L637 17 L632 17 L631 16 L624 16 L623 15 L615 15 L614 14 L606 14 L605 13 L587 13 L586 12 L559 12 L558 11 L557 12 L555 12 L554 11 Z " fill="black"/></svg>