<svg width="357" height="462" xmlns="http://www.w3.org/2000/svg"><path d="M169 460 L168 461 L167 461 L175 461 L174 461 L173 460 Z M149 452 L148 453 L147 453 L144 456 L142 456 L141 457 L140 457 L139 458 L138 458 L137 459 L136 459 L135 460 L135 461 L162 461 L154 453 L153 453 L152 452 Z M298 402 L297 403 L295 403 L294 404 L293 404 L291 406 L290 406 L289 407 L287 407 L286 406 L285 406 L284 405 L279 405 L278 406 L277 406 L273 410 L272 410 L271 411 L270 411 L269 412 L260 412 L259 413 L258 413 L257 414 L255 414 L254 415 L253 415 L252 416 L251 416 L246 421 L246 422 L242 426 L237 421 L231 421 L230 422 L229 422 L227 424 L226 424 L221 429 L220 429 L220 430 L216 434 L216 435 L214 437 L214 438 L213 439 L213 441 L212 442 L212 445 L211 446 L211 450 L210 451 L210 455 L209 456 L209 461 L313 461 L313 460 L310 457 L308 457 L307 456 L307 455 L310 452 L310 451 L314 447 L314 446 L315 445 L315 439 L310 434 L310 432 L311 431 L311 429 L312 428 L312 427 L313 426 L313 424 L314 423 L314 413 L313 412 L313 410 L311 408 L311 407 L308 404 L307 404 L306 403 L304 403 L303 402 Z M319 211 L318 212 L316 212 L315 213 L314 213 L312 215 L312 216 L311 217 L311 218 L310 219 L310 221 L309 222 L309 225 L310 226 L310 227 L309 228 L309 230 L310 231 L310 232 L311 233 L311 234 L312 235 L312 237 L315 240 L319 240 L320 241 L329 241 L330 242 L330 245 L328 247 L327 246 L325 246 L324 245 L317 245 L316 244 L315 244 L314 245 L313 245 L312 246 L310 246 L309 247 L308 247 L307 248 L306 248 L304 250 L304 251 L302 253 L302 258 L303 259 L303 261 L304 262 L304 263 L312 271 L314 271 L315 272 L316 272 L317 273 L320 273 L321 274 L323 274 L324 275 L324 281 L325 282 L325 283 L326 284 L327 284 L328 285 L328 286 L330 288 L330 294 L331 295 L331 296 L330 297 L330 298 L329 299 L329 300 L328 301 L328 303 L329 304 L329 305 L330 306 L335 306 L336 307 L337 307 L343 313 L343 314 L344 315 L344 316 L343 317 L343 318 L342 319 L342 321 L344 323 L345 323 L346 322 L349 322 L356 329 L356 330 L356 217 L355 217 L354 216 L353 217 L353 219 L351 221 L350 221 L347 224 L347 225 L343 229 L343 230 L342 231 L341 231 L339 229 L339 227 L338 226 L338 224 L337 223 L337 222 L336 221 L336 220 L334 218 L334 217 L331 214 L331 213 L330 213 L329 214 L327 212 L324 212 L323 211 Z M103 11 L103 17 L102 18 L102 24 L101 25 L101 31 L100 32 L100 34 L101 35 L101 47 L100 48 L98 46 L98 45 L97 44 L97 43 L96 42 L96 41 L94 39 L94 38 L93 37 L93 36 L92 35 L92 34 L91 33 L91 32 L90 31 L90 30 L89 29 L89 28 L87 26 L87 25 L84 22 L84 21 L82 19 L82 18 L80 16 L80 15 L78 13 L76 15 L76 22 L77 23 L77 27 L78 28 L78 33 L79 34 L79 38 L80 39 L80 41 L81 42 L81 45 L82 46 L82 49 L83 50 L83 53 L84 54 L84 56 L85 57 L85 59 L86 60 L86 62 L87 63 L87 65 L88 66 L88 69 L89 70 L89 73 L90 74 L90 77 L91 78 L91 80 L92 81 L92 84 L93 85 L93 89 L94 90 L94 93 L93 94 L90 91 L89 91 L87 89 L86 89 L84 87 L82 87 L81 86 L78 86 L77 85 L75 85 L73 83 L72 83 L71 82 L70 82 L69 81 L68 81 L67 80 L66 80 L65 79 L64 79 L63 78 L62 78 L61 77 L60 77 L59 76 L58 76 L57 75 L55 75 L54 74 L53 74 L52 73 L50 73 L46 69 L45 69 L42 66 L38 66 L37 65 L36 65 L31 60 L31 59 L27 55 L27 54 L26 53 L25 53 L24 54 L24 56 L25 57 L25 58 L28 61 L28 62 L30 64 L30 65 L34 69 L34 70 L38 74 L38 75 L41 78 L41 80 L42 81 L42 82 L43 83 L43 84 L44 85 L44 87 L45 88 L45 89 L46 90 L46 91 L47 92 L47 94 L46 95 L45 95 L42 92 L41 92 L39 90 L38 90 L36 88 L35 88 L34 87 L33 87 L31 85 L30 85 L28 83 L27 83 L26 82 L25 82 L23 80 L21 80 L20 79 L19 79 L18 78 L17 78 L15 76 L14 76 L13 75 L12 75 L11 76 L11 79 L15 83 L15 84 L17 86 L17 87 L18 88 L18 89 L20 91 L20 92 L30 102 L30 103 L34 107 L34 108 L38 112 L38 113 L40 115 L40 116 L42 118 L42 119 L48 125 L49 125 L56 132 L57 132 L62 137 L63 137 L65 139 L66 139 L68 141 L69 141 L71 143 L72 143 L73 144 L74 144 L75 145 L76 145 L77 146 L78 146 L79 147 L80 147 L81 148 L83 148 L84 149 L86 149 L87 150 L90 150 L91 151 L96 151 L97 152 L106 152 L107 153 L112 153 L113 154 L114 154 L116 156 L117 156 L120 159 L121 159 L123 161 L124 161 L128 165 L128 166 L130 168 L130 169 L131 170 L131 171 L132 172 L132 173 L133 174 L133 180 L131 182 L131 183 L128 186 L127 186 L121 192 L120 192 L116 196 L116 197 L115 198 L114 198 L109 203 L109 204 L106 207 L106 208 L104 210 L104 211 L103 212 L102 212 L101 211 L101 209 L102 208 L102 196 L101 195 L100 196 L100 197 L99 198 L99 199 L98 200 L98 202 L97 203 L97 204 L96 205 L96 206 L95 207 L95 209 L94 210 L94 211 L93 212 L93 213 L92 214 L92 216 L91 217 L91 218 L90 219 L90 220 L89 221 L89 222 L88 223 L88 225 L87 226 L87 227 L86 228 L86 230 L85 231 L85 233 L84 234 L84 236 L83 237 L83 240 L82 241 L82 245 L81 246 L81 249 L80 250 L80 253 L79 254 L79 256 L78 257 L78 260 L77 261 L77 265 L76 266 L76 270 L75 271 L75 274 L74 275 L74 279 L73 280 L73 285 L72 286 L72 290 L71 291 L71 293 L70 294 L70 297 L69 298 L69 300 L68 301 L68 305 L67 306 L67 311 L66 312 L66 315 L65 316 L65 319 L64 320 L64 323 L63 324 L63 328 L62 329 L62 333 L61 334 L61 340 L60 341 L60 344 L59 345 L59 347 L58 348 L58 351 L57 352 L57 356 L56 357 L56 362 L55 363 L55 367 L54 368 L54 373 L53 374 L53 379 L52 380 L52 384 L51 385 L51 389 L50 390 L50 394 L49 395 L49 400 L48 401 L48 409 L47 410 L47 411 L46 412 L46 413 L45 414 L45 417 L44 418 L44 423 L43 424 L43 429 L42 430 L42 438 L43 439 L43 441 L44 440 L44 438 L45 437 L45 435 L46 434 L46 430 L47 429 L47 425 L48 424 L48 417 L49 416 L49 414 L51 412 L53 414 L53 416 L52 417 L52 424 L53 425 L53 433 L54 434 L54 436 L56 434 L57 434 L58 433 L58 432 L59 431 L60 431 L61 432 L61 433 L60 434 L60 443 L59 444 L59 446 L60 447 L60 450 L61 449 L61 448 L62 447 L62 445 L63 444 L63 441 L64 440 L64 438 L65 437 L65 435 L66 434 L66 432 L67 431 L67 429 L68 428 L68 426 L69 425 L69 423 L70 422 L70 420 L71 419 L71 415 L72 414 L72 408 L73 407 L73 406 L74 405 L74 404 L75 403 L75 399 L76 398 L76 393 L77 392 L77 389 L78 388 L78 386 L79 385 L79 380 L80 379 L80 373 L81 372 L81 368 L82 367 L82 362 L83 361 L83 358 L84 357 L84 353 L85 352 L85 349 L86 348 L86 344 L87 343 L87 339 L88 338 L88 333 L89 332 L89 330 L90 329 L90 326 L91 325 L91 321 L92 320 L92 314 L93 313 L93 311 L94 310 L94 309 L95 308 L95 305 L96 304 L96 300 L97 299 L97 292 L99 290 L99 289 L100 288 L100 284 L101 283 L101 278 L102 277 L102 273 L103 272 L103 269 L104 268 L104 266 L105 265 L105 263 L106 262 L106 260 L107 259 L107 258 L108 257 L108 256 L109 255 L109 254 L111 252 L111 251 L112 250 L112 249 L122 239 L123 239 L124 238 L125 238 L126 237 L128 237 L129 236 L132 236 L133 235 L138 235 L139 234 L143 234 L144 233 L147 233 L148 232 L150 232 L151 231 L154 231 L155 230 L157 230 L158 229 L161 229 L162 228 L164 228 L165 227 L167 227 L168 226 L169 226 L170 225 L171 225 L172 224 L174 224 L175 223 L177 223 L178 222 L180 222 L181 221 L183 221 L184 220 L186 220 L187 219 L189 219 L190 218 L191 218 L192 217 L194 217 L195 216 L196 216 L197 215 L199 215 L200 214 L201 214 L202 213 L204 213 L205 212 L206 212 L207 211 L209 211 L210 210 L211 210 L212 209 L213 209 L214 208 L216 208 L218 206 L219 206 L220 205 L221 205 L222 204 L223 204 L224 203 L225 203 L226 202 L227 202 L228 201 L229 201 L230 200 L231 200 L232 199 L233 199 L234 198 L235 198 L236 197 L237 197 L238 196 L239 196 L240 195 L241 195 L242 194 L243 194 L244 193 L245 193 L246 192 L248 192 L249 191 L250 191 L251 190 L252 190 L253 189 L255 189 L256 188 L257 188 L259 186 L260 186 L262 184 L263 184 L265 182 L266 182 L267 181 L268 181 L269 180 L270 180 L271 179 L272 179 L273 178 L274 178 L275 177 L277 177 L278 176 L279 176 L280 175 L281 175 L282 174 L283 174 L284 173 L285 173 L287 171 L288 171 L290 169 L291 169 L292 168 L293 168 L295 166 L296 166 L298 164 L299 164 L300 163 L301 163 L302 162 L303 162 L305 160 L306 160 L308 158 L309 158 L311 156 L312 156 L315 153 L316 153 L318 151 L319 151 L320 150 L321 150 L322 149 L323 149 L325 147 L326 147 L329 144 L330 144 L333 141 L334 141 L336 139 L337 139 L339 137 L340 137 L343 134 L344 134 L345 133 L345 132 L342 132 L341 133 L339 133 L338 134 L336 134 L335 135 L333 135 L332 136 L331 136 L330 137 L328 137 L327 138 L325 138 L324 139 L322 139 L321 140 L316 140 L315 141 L311 141 L310 142 L306 142 L305 143 L301 143 L300 144 L296 144 L295 145 L290 145 L289 146 L284 146 L283 147 L280 147 L279 148 L276 148 L275 149 L272 149 L271 150 L266 150 L265 151 L261 151 L260 152 L253 152 L252 153 L246 153 L245 154 L242 154 L241 155 L237 155 L236 156 L231 156 L230 157 L223 157 L222 158 L216 158 L215 159 L214 159 L213 160 L210 160 L209 161 L207 161 L206 162 L202 162 L201 161 L205 157 L206 157 L207 156 L208 156 L209 155 L210 155 L211 154 L212 154 L213 153 L214 153 L215 152 L216 152 L217 151 L219 151 L220 150 L221 150 L222 149 L223 149 L224 148 L225 148 L226 147 L227 147 L228 146 L229 146 L230 145 L231 145 L232 144 L233 144 L235 142 L236 142 L237 141 L238 141 L239 140 L240 140 L242 138 L243 138 L245 136 L246 136 L248 134 L249 134 L250 133 L251 133 L252 132 L253 132 L254 131 L256 131 L257 130 L258 130 L259 129 L260 129 L262 127 L263 127 L264 126 L265 126 L267 124 L268 124 L270 122 L271 122 L273 120 L274 120 L275 119 L276 119 L277 118 L278 118 L279 117 L280 117 L281 116 L282 116 L283 115 L284 115 L285 114 L286 114 L287 113 L288 113 L289 112 L290 112 L291 111 L292 111 L294 109 L294 106 L293 105 L289 105 L288 106 L286 106 L285 107 L283 107 L282 108 L281 108 L280 109 L278 109 L277 110 L276 110 L275 111 L273 111 L272 112 L271 112 L270 113 L269 113 L268 114 L267 114 L266 115 L265 115 L264 116 L262 116 L261 117 L260 117 L259 118 L258 118 L257 119 L256 119 L255 120 L253 120 L252 121 L250 121 L249 122 L245 122 L244 123 L241 123 L240 124 L239 124 L238 125 L237 125 L235 127 L233 127 L232 128 L230 128 L229 129 L225 129 L224 128 L221 128 L220 129 L217 129 L216 130 L213 130 L212 131 L210 131 L209 132 L209 133 L210 134 L210 136 L208 138 L207 138 L206 137 L204 137 L203 136 L203 135 L206 132 L206 130 L207 129 L207 128 L209 126 L209 125 L212 122 L212 121 L214 119 L214 118 L216 116 L216 115 L220 111 L220 110 L222 108 L222 107 L225 104 L225 103 L229 99 L229 98 L234 93 L234 92 L237 89 L237 88 L239 86 L239 85 L242 82 L242 81 L245 78 L245 77 L246 76 L246 75 L249 72 L249 71 L251 69 L251 68 L254 65 L254 64 L257 61 L257 60 L260 57 L260 55 L261 54 L261 51 L259 51 L258 52 L257 52 L256 53 L255 53 L251 57 L250 57 L246 61 L245 61 L241 65 L240 65 L239 66 L238 66 L236 68 L235 68 L232 71 L231 71 L230 72 L229 72 L227 74 L226 74 L224 76 L223 76 L220 79 L219 79 L214 84 L213 84 L212 85 L211 85 L209 87 L208 87 L206 89 L205 89 L204 90 L202 90 L201 91 L200 91 L198 93 L197 93 L195 95 L193 93 L194 92 L194 84 L195 83 L195 80 L196 79 L196 74 L197 73 L197 50 L198 49 L198 27 L199 26 L199 24 L200 23 L200 18 L201 17 L201 16 L200 15 L200 14 L199 14 L196 17 L196 18 L195 19 L195 20 L193 22 L193 23 L192 24 L192 25 L190 27 L190 28 L188 30 L188 31 L186 33 L186 34 L185 35 L185 36 L183 38 L183 39 L182 40 L182 42 L181 43 L181 44 L180 45 L180 46 L179 47 L179 49 L178 50 L178 52 L177 53 L177 54 L176 55 L176 57 L175 58 L175 59 L174 60 L174 62 L173 63 L173 64 L172 65 L172 66 L171 67 L171 68 L169 70 L168 69 L168 65 L169 64 L169 60 L170 59 L170 53 L171 52 L171 47 L170 46 L170 41 L171 40 L171 39 L172 38 L172 35 L173 34 L173 32 L172 31 L172 28 L171 27 L171 26 L169 26 L168 27 L168 29 L167 30 L167 31 L166 32 L166 36 L165 37 L165 43 L164 44 L164 46 L163 47 L163 49 L162 50 L162 51 L161 52 L161 53 L160 54 L160 55 L159 56 L159 58 L158 59 L158 60 L157 61 L157 62 L156 63 L156 64 L155 65 L155 66 L153 68 L153 69 L152 70 L152 71 L151 72 L151 73 L150 74 L150 75 L149 76 L149 77 L148 78 L148 80 L147 81 L147 84 L146 85 L146 87 L145 88 L143 86 L143 85 L142 84 L142 82 L141 81 L141 80 L140 79 L140 78 L138 76 L138 75 L137 74 L137 73 L136 72 L136 71 L135 70 L135 69 L134 68 L134 67 L132 65 L132 64 L130 62 L130 61 L129 60 L129 59 L128 58 L128 57 L127 56 L127 55 L126 54 L126 53 L125 52 L125 50 L124 49 L124 48 L123 47 L123 45 L122 44 L122 43 L120 41 L120 40 L119 39 L119 38 L118 37 L118 36 L117 35 L117 34 L116 33 L116 32 L115 31 L115 30 L114 29 L114 28 L113 27 L113 26 L112 25 L112 24 L111 23 L111 22 L110 21 L110 20 L109 19 L109 18 L108 17 L108 16 L107 15 L107 14 L106 13 L106 12 L105 11 Z M245 0 L245 1 L246 2 L246 3 L247 4 L247 5 L248 6 L248 8 L249 9 L249 10 L252 10 L255 7 L255 6 L256 5 L256 4 L257 3 L257 1 L258 0 Z " fill="black"/></svg>