<svg width="215" height="382" xmlns="http://www.w3.org/2000/svg"><path d="M0 362 L0 381 L23 381 L15 373 L14 373 L11 370 L10 370 L8 368 L7 368 L4 365 L3 365 Z M30 195 L30 197 L31 197 L31 196 Z M197 52 L196 53 L195 53 L195 54 L196 55 L196 57 L198 59 L200 59 L201 60 L203 60 L204 61 L207 61 L208 62 L210 62 L211 63 L212 63 L213 64 L214 64 L214 53 L209 53 L208 52 Z M105 11 L104 12 L103 12 L102 13 L102 14 L100 16 L100 17 L99 18 L99 19 L96 22 L96 23 L94 25 L83 14 L82 14 L82 15 L78 19 L78 20 L77 21 L77 22 L76 23 L76 25 L75 26 L75 29 L74 30 L72 30 L71 29 L70 29 L69 28 L68 28 L67 27 L66 27 L65 26 L64 26 L63 25 L62 25 L61 24 L58 24 L57 23 L56 23 L55 24 L54 24 L53 25 L53 26 L52 27 L52 28 L51 29 L51 34 L52 35 L52 37 L53 38 L53 40 L52 41 L51 40 L48 40 L47 39 L38 39 L37 40 L30 40 L29 41 L29 43 L30 44 L30 45 L31 46 L31 48 L32 49 L32 51 L33 52 L33 54 L34 55 L34 56 L33 57 L33 59 L32 60 L31 59 L26 59 L25 60 L23 60 L23 61 L22 62 L23 63 L23 64 L22 65 L23 66 L23 67 L21 69 L20 69 L19 70 L18 70 L16 72 L15 72 L14 73 L13 73 L10 76 L15 81 L16 81 L18 83 L19 83 L20 84 L22 84 L23 85 L25 85 L26 86 L27 86 L29 88 L21 96 L21 97 L19 99 L19 102 L22 105 L27 105 L28 106 L39 106 L40 107 L35 112 L34 112 L34 113 L32 115 L32 117 L31 118 L31 123 L32 123 L33 124 L41 124 L42 123 L54 123 L55 124 L55 125 L54 126 L53 126 L52 125 L52 127 L51 128 L51 129 L50 130 L47 130 L46 131 L46 135 L47 136 L47 139 L48 140 L48 142 L49 143 L49 144 L50 145 L50 149 L49 150 L48 149 L48 148 L45 145 L45 144 L45 147 L46 148 L46 151 L47 152 L47 153 L48 154 L48 155 L47 156 L46 156 L37 147 L37 148 L39 150 L39 151 L41 153 L41 154 L42 155 L43 155 L46 158 L45 159 L44 159 L43 160 L40 160 L39 161 L38 160 L34 160 L33 161 L34 162 L36 162 L37 163 L35 165 L35 166 L38 166 L40 168 L41 168 L42 169 L43 168 L44 168 L45 169 L45 172 L44 173 L44 176 L43 177 L43 185 L42 186 L42 188 L43 189 L42 190 L42 192 L43 193 L43 198 L42 199 L36 199 L36 201 L34 203 L33 203 L32 204 L32 205 L33 206 L31 208 L31 209 L32 210 L33 210 L34 209 L37 209 L38 210 L41 210 L42 209 L43 209 L44 210 L44 216 L43 217 L43 219 L42 220 L42 221 L41 222 L41 226 L42 227 L42 229 L43 230 L43 232 L44 233 L44 236 L45 237 L45 241 L44 242 L43 242 L41 240 L40 240 L38 238 L36 238 L36 239 L37 240 L37 241 L38 242 L38 243 L39 243 L40 244 L39 245 L38 245 L38 246 L37 247 L36 247 L33 250 L38 250 L39 249 L40 249 L41 250 L44 250 L45 249 L47 251 L47 258 L48 259 L48 265 L49 266 L49 271 L50 272 L50 278 L51 279 L51 281 L50 282 L49 282 L47 280 L46 280 L45 279 L44 279 L44 281 L47 284 L48 284 L49 285 L49 286 L50 286 L51 287 L51 288 L50 289 L49 288 L47 288 L46 287 L43 287 L42 288 L41 288 L41 290 L43 290 L44 291 L47 291 L49 293 L47 295 L46 295 L46 296 L47 297 L48 296 L49 297 L54 297 L57 300 L57 302 L58 303 L58 308 L59 309 L59 313 L60 314 L60 318 L61 319 L61 322 L62 323 L62 325 L61 326 L59 326 L58 325 L57 325 L56 324 L53 324 L53 326 L54 327 L54 330 L60 330 L61 331 L64 331 L65 332 L65 334 L66 335 L66 339 L67 340 L67 349 L68 350 L68 359 L69 360 L69 361 L71 361 L72 360 L73 360 L75 362 L76 362 L79 365 L80 365 L82 367 L84 367 L85 368 L86 368 L87 367 L89 367 L91 365 L94 365 L95 366 L96 366 L99 363 L101 363 L102 364 L103 364 L104 365 L104 367 L105 367 L107 369 L108 368 L110 368 L111 369 L117 369 L118 368 L119 369 L119 368 L121 366 L122 366 L122 365 L124 363 L128 363 L129 364 L129 365 L131 367 L135 367 L136 368 L140 368 L141 369 L142 369 L144 367 L145 368 L145 369 L147 367 L148 367 L150 365 L150 364 L151 363 L151 362 L152 361 L153 361 L154 362 L156 362 L157 363 L157 365 L162 365 L164 363 L166 363 L167 362 L167 361 L168 360 L168 358 L169 357 L169 351 L170 350 L170 344 L171 343 L171 340 L172 339 L172 335 L174 333 L181 333 L182 332 L183 332 L184 331 L183 330 L183 328 L182 327 L182 323 L180 321 L179 321 L177 319 L177 318 L178 317 L178 311 L179 310 L179 304 L180 303 L180 300 L181 299 L181 298 L182 297 L184 297 L185 296 L187 296 L190 293 L190 292 L185 287 L186 286 L189 286 L190 287 L195 287 L195 285 L194 284 L193 284 L192 283 L189 283 L187 281 L189 279 L190 279 L193 276 L193 275 L189 275 L188 276 L187 276 L186 275 L186 273 L187 272 L187 270 L188 269 L188 266 L187 265 L187 254 L190 251 L190 247 L189 246 L189 245 L190 244 L191 244 L192 245 L192 246 L193 246 L194 247 L196 247 L195 246 L195 244 L194 243 L194 242 L193 241 L194 240 L195 240 L196 239 L197 240 L199 240 L200 239 L200 238 L199 237 L198 237 L197 236 L193 236 L192 235 L192 232 L194 230 L195 230 L196 229 L197 230 L198 230 L200 228 L200 226 L199 225 L196 225 L193 228 L192 228 L191 227 L191 224 L192 223 L192 198 L194 196 L196 196 L199 193 L198 192 L198 191 L197 190 L197 189 L196 188 L195 188 L194 187 L194 186 L195 185 L196 185 L197 186 L198 185 L200 185 L203 182 L203 181 L202 180 L199 180 L198 181 L197 181 L196 182 L195 182 L194 181 L195 180 L195 179 L196 178 L196 177 L197 176 L197 175 L198 174 L198 173 L196 171 L195 171 L193 173 L193 174 L192 175 L192 176 L191 177 L190 176 L190 174 L189 173 L189 169 L188 168 L188 163 L187 162 L187 160 L186 159 L186 155 L185 154 L185 150 L184 149 L184 145 L185 144 L186 144 L187 145 L189 145 L189 144 L191 142 L191 141 L190 140 L189 140 L188 139 L187 139 L186 138 L185 139 L184 139 L183 138 L183 136 L184 135 L185 135 L190 130 L191 130 L191 128 L189 128 L187 130 L186 130 L185 131 L180 131 L179 130 L179 129 L181 127 L181 126 L182 125 L180 123 L179 123 L178 122 L177 123 L176 123 L175 124 L175 125 L174 126 L172 124 L172 123 L171 122 L171 121 L170 120 L170 119 L169 118 L169 117 L167 115 L167 114 L166 113 L166 112 L165 111 L165 110 L164 109 L164 108 L163 107 L164 106 L165 106 L168 103 L168 100 L172 96 L172 95 L169 95 L165 99 L165 100 L163 102 L163 104 L162 105 L160 103 L160 102 L159 101 L159 97 L160 96 L160 93 L157 93 L156 94 L155 93 L155 92 L152 89 L151 90 L149 90 L147 88 L146 88 L145 87 L144 87 L143 86 L143 85 L144 84 L145 84 L147 82 L148 82 L149 81 L150 81 L154 77 L155 77 L156 76 L156 75 L157 74 L157 72 L156 71 L156 70 L154 68 L154 67 L153 67 L152 66 L150 66 L149 65 L149 64 L152 61 L152 60 L155 57 L155 56 L157 54 L157 50 L155 48 L154 48 L153 47 L146 47 L145 46 L145 44 L146 43 L146 40 L147 39 L147 37 L148 36 L148 34 L149 33 L149 32 L148 31 L148 30 L146 30 L144 32 L143 32 L139 36 L138 36 L137 37 L136 37 L135 38 L134 38 L133 39 L132 39 L131 38 L131 36 L132 35 L132 32 L133 31 L133 27 L134 26 L134 23 L135 22 L135 16 L134 15 L132 15 L130 17 L129 17 L128 18 L127 18 L125 20 L123 20 L121 22 L120 22 L119 23 L117 23 L116 24 L115 24 L114 23 L114 22 L112 20 L112 19 L110 17 L110 14 L108 12 L108 11 Z " fill="black"/></svg>