<svg width="849" height="845" xmlns="http://www.w3.org/2000/svg"><path d="M786 772 L785 773 L780 773 L779 774 L777 774 L776 775 L775 775 L774 776 L772 776 L771 777 L770 777 L769 778 L768 778 L767 779 L766 779 L765 780 L764 780 L763 781 L762 781 L761 782 L759 782 L758 783 L757 783 L756 784 L755 784 L754 785 L752 785 L751 786 L749 786 L748 787 L747 787 L746 788 L744 788 L742 790 L741 790 L740 791 L739 791 L738 792 L737 792 L736 793 L735 793 L734 794 L733 794 L732 795 L730 795 L729 796 L728 796 L727 797 L724 797 L723 798 L721 798 L717 802 L716 802 L712 806 L712 807 L709 810 L709 811 L705 815 L705 816 L702 819 L702 820 L699 823 L699 824 L698 825 L698 826 L696 828 L696 829 L695 830 L695 831 L694 832 L694 833 L693 834 L693 835 L692 836 L692 837 L691 838 L691 840 L690 841 L690 842 L689 843 L689 844 L848 844 L848 834 L847 835 L845 835 L843 833 L843 831 L844 830 L844 826 L845 825 L845 814 L844 813 L844 811 L843 810 L843 808 L842 807 L842 805 L841 804 L841 803 L840 802 L840 800 L839 799 L839 798 L838 797 L838 796 L836 794 L836 793 L833 790 L833 789 L832 789 L828 785 L827 785 L825 783 L824 783 L822 781 L821 781 L819 779 L818 779 L817 778 L816 778 L815 777 L813 777 L812 776 L809 776 L808 775 L806 775 L805 774 L802 774 L801 773 L797 773 L796 772 Z M358 392 Z M354 391 L356 391 Z M589 11 L588 12 L583 12 L582 13 L577 13 L576 14 L566 14 L565 15 L555 15 L554 16 L546 16 L545 17 L537 17 L536 18 L531 18 L530 19 L525 19 L524 20 L520 20 L519 21 L516 21 L515 22 L513 22 L512 23 L509 23 L508 24 L506 24 L505 25 L502 25 L501 26 L499 26 L498 27 L496 27 L495 28 L494 28 L493 29 L492 29 L491 30 L489 30 L488 31 L487 31 L486 32 L485 32 L484 33 L483 33 L482 34 L481 34 L480 35 L479 35 L478 36 L477 36 L474 39 L473 39 L470 42 L469 42 L466 45 L465 45 L461 49 L460 49 L452 57 L452 58 L449 61 L449 62 L447 64 L447 65 L446 66 L446 67 L444 69 L444 70 L442 72 L442 73 L440 75 L440 76 L437 79 L437 80 L435 82 L435 83 L434 84 L434 85 L433 86 L433 88 L432 89 L432 90 L431 91 L431 93 L430 94 L430 95 L429 96 L429 97 L427 99 L425 99 L425 102 L427 104 L426 105 L426 107 L425 108 L425 110 L424 111 L424 113 L423 114 L423 117 L422 118 L422 127 L421 128 L421 136 L422 137 L422 151 L423 152 L423 153 L422 154 L423 155 L423 157 L424 158 L424 160 L425 161 L425 165 L426 166 L426 167 L427 168 L427 170 L429 172 L429 173 L430 174 L430 175 L432 177 L432 178 L433 179 L433 180 L435 182 L435 183 L438 186 L438 187 L456 205 L457 205 L461 209 L462 209 L463 210 L464 210 L465 211 L469 211 L470 212 L475 212 L476 213 L479 213 L480 214 L480 222 L479 223 L479 231 L478 232 L478 237 L477 238 L477 241 L476 242 L476 245 L475 246 L475 249 L474 250 L474 254 L473 255 L473 258 L472 259 L472 264 L471 265 L471 269 L470 270 L470 274 L469 275 L469 279 L468 280 L468 284 L467 285 L467 289 L466 290 L466 295 L465 296 L465 299 L464 300 L464 304 L463 305 L463 310 L462 311 L462 313 L461 314 L461 319 L460 320 L460 325 L459 326 L459 329 L458 330 L458 332 L457 333 L457 334 L450 341 L450 342 L443 349 L443 350 L435 358 L435 359 L433 361 L433 362 L432 363 L432 364 L431 365 L431 367 L430 368 L430 370 L429 371 L429 373 L428 374 L428 377 L427 378 L427 383 L426 384 L426 408 L425 409 L423 407 L423 405 L422 404 L422 398 L421 397 L421 390 L420 389 L420 385 L419 384 L419 378 L418 377 L418 374 L417 373 L417 367 L416 366 L416 360 L415 359 L415 354 L414 353 L414 349 L413 348 L413 343 L412 342 L412 336 L411 335 L411 331 L410 330 L410 325 L409 324 L409 319 L408 318 L408 315 L407 314 L407 311 L406 310 L406 305 L408 303 L409 303 L411 301 L412 301 L414 299 L415 299 L416 298 L417 298 L419 296 L420 296 L422 294 L423 294 L425 292 L426 292 L431 287 L432 287 L435 284 L436 284 L439 281 L439 280 L442 277 L442 276 L443 275 L443 274 L444 273 L444 272 L445 271 L445 269 L446 268 L446 262 L447 261 L447 260 L446 259 L446 250 L445 249 L445 246 L444 245 L444 244 L443 243 L443 242 L436 235 L435 235 L433 233 L432 233 L431 232 L430 232 L429 231 L428 231 L427 230 L426 230 L425 229 L423 229 L422 228 L421 228 L420 227 L418 227 L417 226 L413 226 L412 225 L408 225 L407 224 L406 224 L401 219 L400 219 L396 215 L395 215 L394 214 L393 214 L392 213 L391 213 L390 212 L389 212 L388 211 L387 211 L386 210 L385 210 L384 209 L383 209 L382 208 L381 208 L380 207 L379 207 L378 206 L377 206 L374 203 L375 202 L375 200 L376 199 L376 197 L377 196 L377 195 L378 194 L378 193 L379 192 L379 191 L380 190 L380 189 L381 188 L381 186 L382 185 L382 183 L383 182 L383 180 L384 179 L384 163 L383 162 L383 161 L384 160 L384 140 L383 139 L383 133 L382 132 L382 130 L381 129 L381 126 L380 125 L380 124 L379 123 L379 122 L378 121 L378 120 L377 119 L377 117 L376 116 L376 115 L375 114 L375 113 L374 112 L374 110 L373 109 L373 108 L372 107 L372 106 L370 104 L370 103 L368 101 L368 100 L366 98 L366 97 L364 95 L364 94 L362 92 L362 91 L358 87 L358 86 L344 72 L343 72 L337 66 L336 66 L332 62 L331 62 L329 60 L328 60 L326 58 L325 58 L324 57 L323 57 L322 56 L321 56 L320 55 L319 55 L318 54 L316 54 L315 53 L313 53 L312 52 L309 52 L308 51 L305 51 L304 50 L300 50 L299 49 L295 49 L294 48 L289 48 L288 47 L284 47 L283 46 L278 46 L277 45 L272 45 L271 44 L255 44 L254 43 L253 44 L233 44 L232 45 L226 45 L225 46 L221 46 L220 47 L215 47 L214 48 L210 48 L209 49 L204 49 L203 50 L200 50 L199 51 L196 51 L195 52 L191 52 L190 53 L184 53 L183 54 L181 54 L180 55 L177 55 L172 60 L172 62 L171 63 L171 64 L170 65 L170 67 L169 68 L169 70 L168 71 L168 73 L167 74 L167 79 L166 80 L166 84 L165 85 L165 90 L164 91 L164 93 L163 94 L163 98 L162 99 L162 102 L161 103 L161 108 L160 109 L160 114 L159 115 L159 152 L160 153 L160 163 L161 164 L161 171 L162 172 L162 176 L163 177 L163 180 L164 181 L164 182 L165 183 L165 185 L166 186 L166 188 L167 189 L167 192 L168 193 L168 196 L169 197 L169 199 L170 200 L170 202 L171 203 L171 204 L173 206 L173 208 L176 211 L176 212 L177 213 L177 214 L179 216 L179 217 L180 218 L180 219 L182 221 L182 222 L184 224 L184 225 L187 228 L187 229 L206 248 L207 248 L209 250 L210 250 L212 252 L213 252 L214 253 L215 253 L216 254 L217 254 L218 255 L219 255 L220 256 L221 256 L222 257 L223 257 L224 258 L226 258 L227 259 L228 259 L229 260 L231 260 L232 261 L235 261 L236 262 L241 262 L242 263 L246 263 L247 264 L249 264 L250 265 L250 267 L249 268 L249 271 L248 272 L248 276 L247 277 L247 293 L248 294 L248 297 L249 298 L249 302 L250 303 L250 310 L251 311 L251 317 L252 318 L252 321 L253 322 L254 322 L255 323 L256 322 L259 322 L260 321 L263 321 L264 320 L273 320 L274 319 L276 319 L277 320 L292 320 L293 321 L296 321 L297 322 L316 322 L317 321 L348 321 L349 322 L349 323 L350 324 L350 325 L351 326 L351 328 L352 329 L352 332 L353 333 L353 336 L354 337 L354 338 L355 339 L355 344 L356 345 L356 349 L357 350 L357 353 L358 354 L358 356 L359 357 L359 359 L360 360 L360 361 L361 362 L361 365 L362 366 L362 369 L363 370 L363 372 L364 373 L364 375 L365 376 L365 378 L366 379 L366 381 L367 382 L367 384 L368 385 L368 386 L369 387 L369 392 L370 393 L369 394 L369 395 L367 397 L365 397 L364 398 L363 397 L360 397 L359 396 L358 396 L357 395 L356 395 L355 394 L354 394 L353 393 L352 393 L351 392 L350 392 L349 391 L348 391 L347 390 L346 390 L345 389 L344 389 L343 388 L342 388 L341 387 L340 387 L339 386 L336 386 L335 385 L333 385 L332 384 L328 384 L327 383 L324 383 L323 382 L322 382 L321 381 L319 381 L318 380 L316 380 L315 379 L312 379 L311 378 L308 378 L307 377 L301 377 L300 376 L298 376 L297 377 L287 377 L286 378 L282 378 L279 375 L279 374 L259 354 L259 353 L256 350 L255 350 L249 344 L248 344 L244 340 L243 340 L235 332 L234 332 L229 327 L228 327 L225 324 L224 324 L221 321 L220 321 L217 318 L216 318 L209 311 L210 310 L210 308 L212 306 L212 305 L213 304 L213 303 L214 302 L214 301 L215 300 L215 298 L216 297 L216 296 L217 295 L217 293 L218 292 L218 291 L219 290 L219 288 L220 287 L220 285 L221 284 L221 282 L222 281 L222 267 L221 266 L221 265 L215 259 L214 259 L212 257 L211 257 L210 256 L209 256 L208 255 L207 255 L206 254 L205 254 L204 253 L202 253 L201 252 L200 252 L199 251 L197 251 L196 250 L194 250 L193 249 L191 249 L190 248 L188 248 L187 247 L184 247 L183 246 L179 246 L178 245 L174 245 L173 244 L165 244 L164 243 L151 243 L150 242 L145 242 L144 243 L134 243 L133 244 L129 244 L128 245 L127 245 L126 246 L123 246 L122 247 L121 247 L120 248 L118 248 L117 249 L116 249 L114 251 L113 251 L110 254 L109 254 L108 255 L107 255 L106 256 L105 256 L103 258 L102 258 L101 259 L100 259 L98 261 L97 261 L95 263 L94 263 L93 264 L92 264 L88 268 L87 268 L82 273 L81 273 L81 274 L80 275 L79 275 L74 280 L73 280 L66 287 L66 288 L63 291 L63 292 L61 294 L61 295 L59 297 L59 298 L57 300 L57 301 L55 303 L55 304 L53 306 L53 307 L52 308 L52 309 L50 311 L50 312 L49 313 L49 314 L48 315 L48 316 L47 317 L47 318 L46 319 L46 320 L44 322 L44 323 L43 324 L43 325 L42 326 L42 327 L41 328 L41 329 L40 330 L40 331 L38 333 L38 334 L37 335 L37 337 L35 339 L35 340 L34 341 L34 342 L32 344 L32 345 L29 348 L29 349 L28 350 L28 352 L26 354 L26 356 L24 358 L24 359 L23 360 L23 361 L22 362 L22 363 L20 365 L20 366 L19 367 L19 368 L18 369 L18 370 L17 371 L17 372 L16 373 L16 374 L14 376 L14 377 L13 378 L13 380 L12 381 L12 382 L11 383 L11 388 L12 389 L12 390 L14 392 L14 393 L15 394 L16 394 L18 396 L19 396 L21 398 L23 398 L24 399 L27 399 L28 400 L46 400 L47 399 L53 399 L54 398 L59 398 L60 397 L64 397 L65 396 L69 396 L70 395 L73 395 L74 394 L75 394 L76 393 L78 393 L79 392 L80 392 L81 391 L83 391 L84 390 L86 390 L87 389 L88 389 L89 388 L91 388 L92 387 L94 387 L95 386 L96 386 L97 385 L98 385 L100 383 L101 383 L103 381 L104 381 L105 380 L106 380 L108 378 L109 378 L111 376 L112 376 L113 375 L114 375 L116 373 L117 373 L118 372 L119 372 L121 370 L122 370 L123 369 L124 369 L125 368 L126 368 L128 366 L129 366 L131 364 L132 364 L134 362 L135 362 L136 361 L137 361 L139 359 L140 359 L142 357 L143 357 L144 356 L145 356 L148 353 L149 353 L150 352 L151 352 L153 350 L154 350 L156 348 L157 348 L159 346 L160 346 L161 345 L162 345 L165 342 L166 342 L169 339 L170 339 L173 336 L174 336 L176 334 L177 334 L178 333 L179 333 L180 332 L181 332 L182 331 L183 331 L184 330 L185 330 L186 329 L187 329 L188 328 L191 328 L192 327 L193 328 L199 328 L200 329 L202 329 L203 330 L204 330 L205 331 L206 331 L207 332 L208 332 L209 333 L210 333 L212 335 L213 335 L219 341 L220 341 L226 347 L227 347 L231 351 L232 351 L242 361 L243 361 L248 366 L249 366 L255 372 L256 372 L260 376 L261 376 L262 377 L262 378 L264 380 L264 381 L265 382 L265 383 L264 384 L263 384 L262 385 L261 385 L260 386 L257 386 L256 387 L255 387 L254 388 L251 388 L250 389 L249 389 L248 390 L246 390 L243 393 L242 393 L239 396 L238 396 L236 398 L235 398 L227 406 L226 406 L220 412 L219 412 L213 418 L213 419 L207 425 L207 426 L204 429 L204 430 L202 432 L202 433 L200 435 L200 436 L199 437 L199 438 L198 439 L198 440 L197 441 L197 443 L196 444 L196 446 L195 447 L195 450 L194 451 L194 453 L193 454 L193 457 L192 458 L192 460 L191 461 L191 467 L190 468 L190 472 L189 473 L189 478 L188 479 L188 496 L187 497 L187 511 L186 512 L184 512 L182 510 L182 509 L181 508 L181 507 L180 506 L180 505 L178 503 L178 502 L175 499 L175 498 L170 493 L167 493 L166 492 L163 492 L162 491 L161 491 L154 484 L153 484 L146 477 L145 477 L143 475 L142 475 L141 474 L139 474 L138 473 L136 473 L135 472 L131 472 L130 471 L126 471 L125 470 L114 470 L113 471 L111 471 L110 472 L109 472 L108 473 L103 473 L102 474 L98 474 L97 475 L96 475 L93 478 L92 478 L91 479 L89 479 L87 481 L86 481 L85 482 L84 482 L83 483 L82 483 L80 485 L79 485 L72 492 L71 492 L66 497 L65 497 L57 505 L57 506 L54 509 L54 510 L53 511 L53 512 L51 514 L51 515 L49 517 L49 518 L48 519 L48 520 L46 522 L46 523 L45 524 L45 525 L44 526 L44 527 L43 528 L43 529 L42 530 L42 531 L41 532 L41 533 L40 534 L40 535 L38 537 L38 538 L37 539 L37 540 L36 541 L36 542 L35 543 L35 544 L34 545 L34 547 L33 548 L33 551 L32 552 L32 555 L31 556 L31 559 L30 560 L30 563 L29 564 L29 568 L28 569 L28 576 L27 577 L27 584 L26 585 L26 593 L25 594 L25 612 L26 613 L26 620 L27 621 L27 631 L28 632 L28 636 L29 637 L29 640 L30 641 L30 644 L31 645 L31 647 L32 648 L32 651 L33 652 L33 655 L34 656 L34 659 L35 660 L35 664 L36 665 L36 668 L37 669 L37 672 L38 673 L38 675 L39 676 L39 677 L40 678 L40 679 L41 680 L41 681 L42 682 L42 683 L44 685 L44 686 L45 687 L45 688 L46 689 L46 690 L51 695 L75 695 L76 694 L77 694 L78 693 L79 693 L80 692 L81 692 L82 691 L84 691 L85 690 L87 690 L88 689 L90 689 L91 688 L93 688 L94 687 L96 687 L97 686 L99 686 L100 685 L101 685 L102 684 L103 684 L104 683 L105 683 L106 682 L107 682 L110 679 L111 679 L113 677 L114 677 L115 676 L116 676 L117 675 L118 675 L119 674 L120 674 L122 672 L123 672 L125 670 L126 670 L138 658 L139 658 L147 650 L147 649 L150 646 L150 645 L151 644 L151 643 L153 641 L153 640 L154 639 L154 638 L156 636 L156 635 L158 633 L158 632 L159 631 L159 630 L161 628 L161 627 L162 626 L162 625 L164 623 L164 622 L165 621 L165 620 L166 619 L166 618 L167 617 L167 616 L168 615 L168 614 L169 613 L169 612 L170 611 L170 610 L171 609 L171 608 L172 607 L172 606 L173 605 L173 604 L174 603 L174 602 L175 601 L175 599 L176 598 L176 596 L177 595 L177 594 L178 593 L178 591 L179 590 L179 586 L180 585 L180 582 L181 581 L181 577 L182 576 L182 571 L183 570 L183 567 L184 566 L184 562 L185 561 L185 555 L186 554 L186 529 L187 528 L188 528 L189 527 L191 527 L192 528 L191 529 L191 531 L190 532 L191 533 L191 536 L192 537 L192 541 L193 542 L193 548 L195 548 L196 549 L196 550 L198 552 L198 553 L199 554 L199 555 L200 556 L200 557 L201 558 L201 559 L202 560 L202 562 L203 563 L203 564 L204 565 L204 566 L205 567 L205 568 L206 569 L206 571 L207 572 L207 574 L208 575 L208 576 L209 577 L209 578 L210 579 L210 580 L213 583 L213 584 L215 586 L215 587 L217 589 L217 590 L218 591 L218 592 L220 594 L220 595 L221 596 L221 597 L222 598 L222 599 L223 600 L223 601 L225 603 L225 604 L236 615 L237 615 L240 618 L241 618 L242 619 L243 619 L244 620 L245 620 L246 621 L247 621 L248 622 L249 622 L251 624 L256 624 L257 623 L258 623 L259 622 L261 622 L262 621 L263 621 L264 620 L266 620 L267 619 L269 619 L270 618 L285 618 L286 617 L290 617 L291 616 L295 616 L296 615 L299 615 L300 614 L303 614 L304 613 L306 613 L307 612 L309 612 L310 611 L312 611 L313 610 L314 610 L315 609 L317 609 L318 608 L319 608 L320 607 L321 607 L322 606 L323 606 L324 605 L325 605 L326 604 L327 604 L328 603 L329 603 L330 602 L331 602 L332 601 L333 601 L334 600 L336 600 L337 599 L338 599 L339 598 L340 598 L341 597 L342 597 L343 596 L344 596 L345 595 L347 595 L348 594 L349 594 L350 593 L351 593 L352 592 L353 592 L354 591 L355 591 L357 589 L358 589 L361 586 L362 586 L364 584 L365 584 L368 581 L369 581 L372 578 L373 578 L374 577 L375 577 L378 574 L379 574 L382 571 L383 571 L384 570 L388 574 L388 575 L391 578 L391 579 L398 586 L397 587 L383 587 L382 588 L379 588 L378 589 L376 589 L375 590 L373 590 L372 591 L371 591 L370 592 L369 592 L368 593 L367 593 L366 594 L365 594 L364 595 L363 595 L362 596 L361 596 L359 598 L358 598 L357 599 L356 599 L344 611 L343 611 L335 619 L335 620 L331 624 L331 625 L328 628 L328 629 L325 632 L325 633 L323 635 L323 636 L321 638 L321 639 L320 640 L320 641 L319 642 L319 643 L318 644 L318 646 L317 647 L317 649 L316 650 L316 652 L315 653 L315 655 L314 656 L314 658 L313 659 L313 661 L312 662 L312 664 L311 665 L311 667 L310 668 L310 671 L309 672 L309 677 L308 678 L308 687 L307 688 L307 712 L308 713 L308 718 L309 719 L309 721 L310 722 L310 725 L311 726 L311 728 L312 729 L312 731 L313 732 L313 734 L314 735 L314 736 L315 737 L315 738 L316 739 L316 740 L317 741 L317 742 L318 743 L318 744 L319 745 L319 746 L320 747 L320 748 L322 750 L322 751 L323 752 L323 753 L325 755 L325 756 L327 758 L327 759 L329 761 L329 762 L331 764 L331 765 L333 767 L333 768 L334 769 L334 770 L336 772 L336 773 L339 776 L339 777 L350 788 L350 789 L356 795 L357 795 L360 798 L361 798 L363 800 L364 800 L367 803 L368 803 L371 806 L372 806 L374 808 L375 808 L377 810 L378 810 L379 811 L380 811 L382 813 L383 813 L384 814 L385 814 L386 815 L387 815 L389 817 L390 817 L391 818 L392 818 L393 819 L394 819 L395 820 L396 820 L397 821 L398 821 L399 822 L400 822 L401 823 L403 823 L404 824 L406 824 L407 825 L408 825 L409 826 L411 826 L412 827 L413 827 L414 828 L415 828 L416 829 L417 829 L418 830 L419 830 L420 831 L421 831 L422 832 L425 832 L426 833 L428 833 L429 832 L430 833 L432 833 L433 834 L435 834 L436 833 L437 833 L439 831 L440 831 L442 829 L443 829 L444 828 L445 828 L446 827 L447 827 L448 826 L449 826 L450 825 L452 825 L453 824 L454 824 L455 823 L456 823 L457 822 L458 822 L459 821 L460 821 L462 819 L463 819 L464 818 L465 818 L466 817 L467 817 L469 815 L470 815 L471 814 L472 814 L480 806 L481 806 L484 803 L485 803 L488 800 L489 800 L493 796 L493 795 L495 793 L496 793 L502 787 L502 786 L510 778 L510 777 L514 773 L514 772 L517 769 L517 768 L518 767 L518 766 L521 763 L521 762 L522 761 L522 760 L523 759 L523 758 L525 756 L525 755 L526 754 L526 753 L527 752 L527 751 L528 750 L528 749 L529 748 L529 747 L530 746 L530 745 L531 744 L531 743 L532 742 L532 740 L533 739 L533 738 L534 737 L534 735 L535 734 L535 732 L536 731 L536 727 L537 726 L537 723 L538 722 L538 716 L539 715 L539 707 L540 706 L540 692 L539 691 L539 684 L538 683 L538 678 L537 677 L537 672 L536 671 L536 666 L535 665 L535 663 L534 662 L534 659 L533 658 L533 656 L532 655 L532 654 L531 653 L531 650 L530 649 L530 648 L529 647 L529 645 L528 644 L528 643 L527 642 L527 640 L526 639 L526 638 L525 637 L525 636 L524 635 L524 633 L522 631 L522 630 L521 629 L521 628 L519 626 L519 625 L518 624 L518 623 L516 621 L516 620 L514 618 L514 617 L509 612 L509 611 L508 610 L507 610 L503 606 L502 606 L499 603 L498 603 L497 602 L496 602 L492 598 L492 597 L488 593 L487 593 L486 592 L484 592 L483 591 L482 591 L481 590 L480 590 L479 589 L478 589 L477 588 L475 588 L474 587 L473 587 L472 586 L471 586 L470 585 L469 585 L467 583 L467 581 L468 580 L468 579 L469 578 L469 577 L471 575 L471 574 L477 568 L477 567 L479 565 L480 565 L486 559 L487 559 L490 556 L491 556 L495 552 L496 552 L501 547 L502 547 L506 543 L507 543 L510 540 L511 540 L514 537 L515 537 L518 534 L519 534 L521 532 L522 532 L525 529 L526 529 L527 528 L528 528 L529 529 L531 529 L532 530 L534 530 L535 531 L536 531 L537 532 L539 532 L540 533 L542 533 L543 534 L545 534 L546 535 L547 535 L548 536 L549 536 L550 537 L552 537 L553 538 L554 538 L556 540 L557 540 L558 541 L559 541 L560 542 L561 542 L563 544 L564 544 L566 546 L567 546 L568 547 L569 547 L571 549 L572 549 L574 551 L575 551 L580 556 L572 564 L571 564 L569 566 L569 567 L566 570 L566 571 L563 574 L563 575 L562 576 L562 577 L560 579 L560 580 L559 581 L559 582 L557 584 L557 586 L556 587 L556 589 L555 590 L555 591 L554 592 L554 594 L553 595 L553 596 L552 597 L552 599 L551 600 L551 601 L550 602 L550 604 L549 605 L549 606 L548 607 L548 609 L547 610 L547 614 L546 615 L546 619 L545 620 L545 625 L544 626 L544 636 L543 637 L544 638 L544 650 L545 651 L545 658 L546 659 L546 664 L547 665 L547 668 L548 669 L548 672 L549 673 L549 675 L550 676 L550 678 L551 679 L551 680 L552 681 L552 682 L553 683 L553 684 L554 685 L554 686 L555 687 L555 688 L556 689 L556 690 L557 691 L557 692 L558 693 L558 695 L559 696 L559 697 L560 698 L560 699 L562 701 L562 702 L563 703 L563 704 L564 705 L564 706 L565 707 L565 708 L566 709 L566 710 L568 712 L568 713 L571 716 L571 717 L576 722 L577 722 L581 726 L582 726 L593 737 L594 737 L597 740 L598 740 L599 741 L600 741 L602 743 L603 743 L604 744 L605 744 L606 745 L607 745 L608 746 L609 746 L610 747 L611 747 L612 748 L613 748 L614 749 L616 749 L617 750 L619 750 L620 751 L622 751 L623 752 L625 752 L626 753 L628 753 L629 754 L631 754 L632 755 L635 755 L636 756 L638 756 L639 757 L641 757 L642 758 L645 758 L646 759 L650 759 L651 760 L655 760 L656 761 L660 761 L661 762 L664 762 L665 763 L671 763 L672 764 L682 764 L683 763 L685 763 L687 761 L688 761 L693 756 L693 755 L697 751 L697 750 L699 748 L699 747 L701 745 L701 744 L704 741 L704 740 L706 738 L706 737 L707 736 L707 735 L709 733 L709 732 L711 730 L711 729 L712 728 L712 727 L713 726 L713 725 L714 724 L714 723 L716 721 L716 720 L717 719 L717 718 L718 717 L718 716 L719 715 L719 714 L720 713 L720 712 L721 711 L721 710 L722 709 L722 708 L723 707 L723 705 L724 704 L724 703 L725 702 L725 700 L726 699 L726 697 L727 696 L727 694 L728 693 L728 691 L729 690 L729 687 L730 686 L730 683 L731 682 L731 679 L732 678 L732 674 L733 673 L733 668 L734 667 L734 660 L735 659 L735 652 L736 651 L736 641 L737 640 L737 630 L736 629 L736 623 L735 622 L735 618 L734 617 L734 614 L733 613 L733 610 L732 609 L732 605 L731 604 L731 602 L730 601 L730 599 L729 598 L729 596 L728 595 L728 593 L727 592 L727 591 L726 590 L726 587 L725 586 L725 584 L724 583 L724 582 L723 581 L723 580 L721 578 L721 577 L719 575 L719 574 L718 573 L718 572 L717 571 L717 570 L715 568 L715 567 L701 553 L700 553 L697 550 L696 550 L693 547 L692 547 L689 544 L688 544 L686 542 L685 542 L683 540 L682 540 L681 539 L680 539 L679 538 L678 538 L677 537 L675 537 L674 536 L672 536 L671 535 L669 535 L668 534 L666 534 L665 533 L663 533 L662 532 L661 532 L660 531 L658 531 L657 530 L650 530 L649 531 L644 531 L643 532 L638 532 L637 533 L633 533 L632 534 L630 534 L629 535 L627 535 L626 536 L625 536 L624 537 L623 537 L622 538 L621 538 L619 540 L618 540 L617 541 L616 541 L615 542 L614 542 L613 543 L612 543 L608 547 L607 547 L605 549 L604 549 L603 550 L602 550 L601 551 L600 550 L599 550 L593 544 L592 544 L588 540 L587 540 L586 539 L585 539 L584 538 L583 538 L582 537 L581 537 L580 536 L579 536 L578 535 L577 535 L576 534 L575 534 L573 532 L572 532 L571 531 L570 531 L569 530 L568 530 L567 529 L566 529 L565 528 L564 528 L562 526 L561 526 L560 525 L559 525 L557 523 L556 523 L555 522 L554 522 L552 520 L551 520 L547 516 L547 515 L548 514 L548 513 L549 512 L550 512 L551 511 L555 511 L556 512 L559 512 L560 513 L564 513 L565 512 L567 512 L568 511 L569 511 L570 510 L574 510 L575 509 L580 509 L581 508 L583 508 L584 507 L585 507 L591 501 L591 500 L594 497 L594 496 L596 494 L596 493 L598 491 L598 490 L601 487 L602 487 L603 486 L604 486 L605 485 L606 485 L607 484 L609 484 L610 483 L612 483 L613 482 L615 482 L616 481 L619 481 L620 480 L621 480 L622 479 L624 479 L625 478 L627 478 L628 477 L630 477 L631 476 L632 476 L633 475 L636 475 L637 474 L640 474 L641 473 L644 473 L645 472 L647 472 L648 471 L650 471 L651 470 L653 470 L654 469 L656 469 L657 468 L661 468 L662 467 L667 467 L668 466 L669 467 L674 467 L675 468 L677 468 L678 469 L680 469 L681 470 L683 470 L684 471 L686 471 L687 472 L688 472 L689 473 L691 473 L693 475 L694 475 L704 485 L705 485 L713 493 L714 493 L731 510 L732 510 L740 518 L740 519 L745 524 L745 525 L750 530 L751 530 L758 537 L759 537 L765 543 L766 543 L768 545 L769 545 L770 546 L771 546 L772 547 L773 547 L775 549 L776 549 L777 550 L778 550 L780 552 L781 552 L782 553 L783 553 L784 554 L785 554 L786 555 L788 555 L789 556 L790 556 L791 557 L792 557 L793 558 L794 558 L795 559 L797 559 L798 560 L799 560 L800 561 L801 561 L802 562 L803 562 L804 563 L805 563 L806 564 L807 564 L808 565 L809 565 L810 566 L811 566 L812 567 L813 567 L814 568 L818 568 L819 569 L828 569 L829 568 L831 568 L832 567 L833 567 L835 565 L836 565 L836 564 L837 563 L837 556 L836 555 L836 553 L835 552 L835 551 L834 550 L834 549 L833 548 L833 546 L832 545 L832 544 L831 543 L831 542 L830 541 L830 540 L829 539 L829 538 L828 537 L828 536 L827 535 L827 534 L826 533 L826 531 L825 530 L825 529 L824 528 L824 526 L823 525 L823 523 L822 522 L822 520 L821 519 L821 517 L820 516 L820 514 L819 513 L819 511 L818 510 L818 508 L817 507 L817 505 L816 504 L816 501 L815 500 L815 497 L814 496 L814 494 L813 493 L813 492 L812 491 L812 489 L811 488 L811 484 L810 483 L810 481 L809 480 L809 478 L808 477 L808 476 L807 475 L807 473 L806 472 L806 471 L805 470 L805 469 L804 468 L804 467 L803 466 L803 465 L802 464 L802 463 L801 462 L801 461 L800 460 L800 458 L798 456 L798 455 L797 454 L797 452 L796 451 L796 450 L795 449 L795 448 L794 447 L794 446 L792 444 L792 443 L786 437 L786 436 L784 434 L784 433 L782 431 L782 430 L780 428 L780 427 L777 424 L776 424 L771 419 L770 419 L767 416 L766 416 L765 415 L764 415 L763 414 L762 414 L760 412 L759 412 L758 411 L757 411 L756 410 L755 410 L753 408 L752 408 L751 407 L749 407 L748 406 L747 406 L746 405 L745 405 L744 404 L742 404 L741 403 L738 403 L737 402 L732 402 L731 401 L728 401 L727 400 L716 400 L715 401 L712 401 L711 400 L706 400 L705 399 L701 399 L700 398 L679 398 L678 399 L677 399 L676 400 L675 400 L674 401 L673 401 L672 402 L671 402 L667 406 L667 407 L666 408 L666 433 L667 434 L667 437 L668 438 L668 439 L669 440 L669 441 L670 442 L670 443 L671 444 L671 445 L673 447 L673 448 L674 449 L674 451 L673 452 L670 452 L669 453 L663 453 L662 454 L652 454 L651 455 L645 455 L644 456 L640 456 L639 457 L636 457 L635 458 L634 458 L633 459 L631 459 L630 460 L628 460 L627 461 L626 461 L625 462 L624 462 L623 463 L621 463 L620 464 L618 464 L617 465 L615 465 L614 466 L610 466 L609 465 L609 464 L611 462 L611 461 L612 460 L612 459 L613 458 L613 457 L614 456 L614 455 L615 454 L615 453 L616 452 L616 450 L617 449 L617 447 L618 446 L618 445 L619 444 L619 441 L620 440 L620 439 L621 438 L621 434 L622 433 L622 430 L623 429 L623 423 L624 422 L624 386 L623 385 L623 381 L622 380 L622 377 L621 376 L621 374 L620 373 L620 372 L619 371 L619 370 L618 369 L618 367 L616 365 L616 364 L615 363 L615 362 L614 361 L614 360 L612 358 L612 357 L611 356 L611 355 L610 354 L610 353 L609 352 L609 351 L607 349 L607 348 L606 347 L606 346 L604 344 L604 343 L600 339 L600 338 L595 333 L594 333 L591 330 L590 330 L588 328 L587 328 L585 326 L584 326 L583 325 L582 325 L581 324 L580 324 L578 322 L577 322 L576 321 L575 321 L573 319 L572 319 L571 318 L570 318 L567 315 L567 310 L568 309 L568 308 L574 302 L574 301 L575 300 L575 299 L577 297 L580 300 L580 301 L581 302 L581 303 L583 305 L583 306 L585 308 L585 309 L587 311 L587 312 L590 315 L590 316 L599 325 L600 325 L607 332 L608 332 L611 335 L612 335 L613 336 L614 336 L615 337 L616 337 L617 338 L618 338 L620 340 L621 340 L623 342 L624 342 L625 343 L626 343 L628 345 L630 345 L631 346 L632 346 L633 347 L634 347 L635 348 L636 348 L639 351 L640 351 L642 353 L643 353 L644 354 L646 354 L647 355 L654 355 L655 356 L659 356 L660 357 L663 357 L664 358 L667 358 L668 359 L671 359 L672 360 L675 360 L676 361 L690 361 L691 360 L696 360 L697 359 L701 359 L702 358 L704 358 L705 357 L708 357 L709 356 L712 356 L713 355 L716 355 L717 354 L719 354 L720 353 L721 353 L722 352 L723 352 L724 351 L725 351 L727 349 L728 349 L730 347 L731 347 L733 345 L734 345 L735 344 L736 344 L737 343 L739 343 L740 342 L742 342 L743 341 L745 341 L746 340 L747 340 L748 339 L750 339 L751 338 L752 338 L753 337 L754 337 L756 335 L757 335 L759 333 L760 333 L762 331 L763 331 L765 329 L766 329 L769 326 L770 326 L773 323 L774 323 L776 321 L777 321 L778 320 L779 320 L780 319 L781 319 L784 316 L785 316 L789 312 L790 312 L795 307 L796 307 L802 301 L802 300 L804 298 L804 297 L805 296 L805 294 L806 293 L806 285 L805 284 L805 280 L804 279 L804 277 L803 276 L803 274 L802 273 L802 270 L801 269 L801 267 L800 266 L800 265 L799 264 L799 262 L798 261 L798 260 L797 259 L797 257 L796 256 L796 254 L795 253 L795 251 L794 250 L794 249 L793 248 L793 247 L792 246 L792 245 L791 244 L791 243 L790 242 L790 241 L789 240 L789 239 L787 237 L787 235 L786 234 L786 233 L785 232 L785 231 L783 229 L783 228 L782 227 L782 226 L780 224 L780 223 L779 222 L779 221 L778 220 L778 219 L777 218 L777 217 L775 215 L775 214 L773 212 L773 211 L771 209 L771 208 L767 204 L767 203 L765 201 L765 200 L757 192 L757 191 L756 191 L746 181 L745 181 L741 177 L740 177 L735 172 L734 172 L733 171 L732 171 L730 169 L729 169 L726 166 L725 166 L724 165 L723 165 L721 163 L720 163 L719 162 L718 162 L717 161 L715 161 L714 160 L712 160 L711 159 L709 159 L708 158 L706 158 L705 157 L704 157 L702 155 L700 155 L699 154 L696 154 L695 153 L681 153 L680 152 L679 152 L678 153 L677 152 L662 152 L661 153 L654 153 L653 154 L648 154 L647 155 L644 155 L643 156 L641 156 L640 157 L638 157 L637 158 L635 158 L634 159 L632 157 L632 155 L633 154 L633 149 L634 148 L634 145 L635 144 L635 137 L636 136 L636 111 L635 110 L635 104 L634 103 L634 99 L633 98 L633 94 L632 93 L632 90 L631 89 L631 86 L630 85 L630 82 L629 81 L629 78 L628 77 L628 75 L627 74 L627 71 L626 70 L626 67 L625 66 L625 64 L624 63 L624 62 L623 61 L623 60 L622 59 L622 58 L621 57 L621 56 L619 54 L619 53 L618 52 L618 50 L617 49 L617 48 L616 47 L616 46 L615 45 L615 44 L614 43 L614 42 L613 41 L613 39 L612 38 L612 37 L611 36 L611 35 L610 34 L610 33 L609 32 L609 31 L608 30 L608 29 L607 28 L607 27 L606 26 L606 25 L603 22 L603 21 L600 18 L600 17 L596 13 L595 13 L593 11 Z M742 0 L743 1 L743 2 L744 3 L744 4 L746 6 L746 8 L747 9 L747 10 L748 11 L748 12 L749 13 L749 14 L750 15 L750 16 L751 17 L751 18 L752 19 L752 21 L751 22 L750 22 L742 14 L741 14 L740 13 L739 13 L738 14 L738 15 L739 16 L739 17 L740 18 L740 19 L742 21 L742 22 L744 24 L744 25 L745 26 L745 27 L746 28 L746 29 L747 30 L747 31 L748 32 L748 34 L749 35 L749 37 L750 38 L750 39 L751 40 L751 41 L752 42 L752 56 L751 57 L751 60 L752 61 L752 66 L753 67 L754 66 L754 65 L755 64 L756 64 L757 63 L757 57 L758 56 L758 48 L759 47 L759 46 L761 44 L763 46 L763 48 L764 49 L764 54 L763 55 L763 62 L764 63 L764 68 L765 68 L767 66 L767 64 L768 63 L768 61 L769 60 L769 59 L770 58 L770 52 L771 51 L771 45 L772 44 L772 42 L782 32 L783 32 L788 27 L788 26 L790 24 L790 23 L791 22 L791 21 L793 19 L793 18 L795 16 L795 15 L796 14 L796 13 L793 13 L792 14 L791 14 L789 16 L788 16 L783 21 L783 22 L782 23 L782 24 L780 26 L779 25 L779 23 L780 22 L780 21 L781 20 L781 19 L782 18 L782 15 L783 14 L783 12 L784 11 L784 9 L785 8 L785 7 L786 6 L786 5 L787 4 L787 3 L788 2 L788 1 L789 0 Z " fill="black"/></svg>