<svg width="687" height="1142" xmlns="http://www.w3.org/2000/svg"><path d="M362 10 L361 11 L288 11 L287 12 L279 12 L278 13 L268 13 L267 14 L248 14 L247 15 L233 15 L232 16 L216 16 L215 17 L203 17 L202 18 L194 18 L193 19 L189 19 L188 20 L186 20 L185 21 L182 21 L181 22 L176 22 L175 23 L169 23 L168 24 L164 24 L163 25 L160 25 L159 26 L156 26 L155 27 L152 27 L151 28 L148 28 L147 29 L143 29 L142 30 L139 30 L138 31 L136 31 L135 32 L133 32 L132 33 L130 33 L129 34 L128 34 L125 37 L125 39 L124 40 L124 48 L125 49 L125 56 L126 57 L126 61 L127 62 L127 65 L128 66 L128 69 L129 70 L129 72 L130 73 L130 76 L131 77 L131 80 L130 81 L128 81 L127 82 L124 82 L123 83 L122 83 L121 84 L120 84 L119 85 L118 85 L116 87 L115 87 L112 90 L111 90 L105 96 L105 97 L104 98 L104 101 L103 102 L103 125 L104 126 L104 134 L105 135 L105 137 L107 139 L107 140 L110 143 L111 143 L113 145 L114 145 L116 147 L117 147 L121 151 L121 153 L122 154 L122 156 L123 157 L123 162 L124 163 L124 173 L125 174 L125 204 L124 205 L124 208 L123 209 L123 211 L122 212 L122 214 L121 215 L121 216 L120 217 L120 218 L119 219 L119 220 L117 222 L117 223 L116 224 L116 226 L115 227 L115 228 L114 229 L114 230 L112 232 L111 232 L107 236 L106 236 L103 239 L102 239 L100 241 L99 241 L97 243 L96 243 L93 246 L92 246 L87 251 L86 251 L81 256 L80 256 L76 260 L75 260 L69 266 L68 266 L54 280 L54 281 L51 284 L51 285 L47 289 L47 290 L44 293 L44 294 L41 297 L41 298 L39 300 L39 301 L36 304 L36 305 L35 306 L35 307 L33 309 L33 310 L32 311 L32 312 L31 313 L31 314 L30 315 L30 316 L29 317 L29 318 L28 319 L28 321 L27 322 L27 323 L26 324 L26 325 L25 326 L25 328 L24 329 L24 331 L23 332 L23 333 L22 334 L22 337 L21 338 L21 340 L20 341 L20 344 L19 345 L19 347 L18 348 L18 351 L17 352 L17 354 L16 355 L16 360 L15 361 L15 366 L14 367 L14 372 L13 373 L13 386 L12 387 L12 400 L11 401 L11 579 L12 580 L12 595 L11 596 L11 598 L12 599 L11 600 L11 618 L12 619 L12 621 L11 622 L11 627 L12 628 L12 630 L11 631 L11 645 L12 646 L12 648 L11 649 L11 679 L12 680 L11 681 L11 691 L12 692 L12 716 L11 717 L11 751 L12 752 L12 753 L11 754 L11 758 L12 759 L12 765 L11 766 L11 777 L12 778 L12 850 L13 851 L13 910 L14 911 L14 955 L15 956 L15 975 L16 976 L16 987 L17 988 L17 995 L18 996 L18 1002 L19 1003 L19 1007 L20 1008 L20 1012 L21 1013 L21 1015 L22 1016 L22 1018 L23 1019 L23 1021 L24 1022 L24 1024 L25 1025 L25 1027 L26 1028 L26 1029 L27 1030 L27 1031 L28 1032 L28 1033 L29 1034 L29 1035 L30 1036 L30 1037 L31 1038 L31 1039 L32 1040 L32 1041 L34 1043 L34 1044 L36 1046 L36 1047 L39 1050 L39 1051 L52 1064 L53 1064 L56 1067 L57 1067 L60 1070 L61 1070 L63 1072 L64 1072 L67 1075 L68 1075 L70 1077 L71 1077 L73 1079 L74 1079 L75 1080 L76 1080 L78 1082 L79 1082 L80 1083 L81 1083 L83 1085 L84 1085 L86 1087 L87 1087 L88 1088 L89 1088 L90 1089 L91 1089 L92 1090 L94 1090 L95 1091 L96 1091 L97 1092 L98 1092 L99 1093 L101 1093 L102 1094 L104 1094 L105 1095 L106 1095 L107 1096 L110 1096 L111 1097 L112 1097 L113 1098 L115 1098 L116 1099 L119 1099 L120 1100 L122 1100 L123 1101 L125 1101 L126 1102 L128 1102 L129 1103 L131 1103 L132 1104 L134 1104 L135 1105 L137 1105 L138 1106 L141 1106 L142 1107 L144 1107 L145 1108 L147 1108 L148 1109 L151 1109 L152 1110 L155 1110 L156 1111 L160 1111 L161 1112 L166 1112 L167 1113 L171 1113 L172 1114 L177 1114 L178 1115 L182 1115 L183 1116 L188 1116 L189 1117 L193 1117 L194 1118 L198 1118 L199 1119 L204 1119 L205 1120 L210 1120 L211 1121 L217 1121 L218 1122 L225 1122 L226 1123 L233 1123 L234 1124 L244 1124 L245 1125 L252 1125 L253 1126 L260 1126 L261 1127 L273 1127 L274 1128 L285 1128 L286 1129 L304 1129 L305 1130 L389 1130 L390 1129 L426 1129 L427 1128 L441 1128 L442 1127 L456 1127 L457 1126 L466 1126 L467 1125 L473 1125 L474 1124 L479 1124 L480 1123 L487 1123 L488 1122 L493 1122 L494 1121 L499 1121 L500 1120 L505 1120 L506 1119 L511 1119 L512 1118 L516 1118 L517 1117 L520 1117 L521 1116 L524 1116 L525 1115 L528 1115 L529 1114 L532 1114 L533 1113 L538 1113 L539 1112 L543 1112 L544 1111 L547 1111 L548 1110 L552 1110 L553 1109 L557 1109 L558 1108 L561 1108 L562 1107 L565 1107 L566 1106 L569 1106 L570 1105 L571 1105 L572 1104 L574 1104 L575 1103 L577 1103 L578 1102 L580 1102 L581 1101 L582 1101 L583 1100 L585 1100 L586 1099 L588 1099 L589 1098 L590 1098 L591 1097 L593 1097 L594 1096 L595 1096 L596 1095 L597 1095 L598 1094 L599 1094 L600 1093 L602 1093 L603 1092 L604 1092 L606 1090 L608 1090 L609 1089 L610 1089 L611 1088 L612 1088 L614 1086 L615 1086 L616 1085 L617 1085 L619 1083 L620 1083 L622 1081 L623 1081 L625 1079 L626 1079 L630 1075 L631 1075 L633 1073 L634 1073 L642 1065 L642 1064 L644 1062 L644 1061 L648 1057 L648 1056 L650 1054 L650 1053 L651 1052 L651 1051 L653 1049 L653 1048 L654 1047 L654 1046 L655 1045 L655 1044 L657 1042 L657 1041 L658 1040 L658 1039 L659 1038 L659 1037 L660 1036 L660 1034 L661 1033 L661 1031 L662 1030 L662 1029 L663 1028 L663 1025 L664 1024 L664 1022 L665 1021 L665 1018 L666 1017 L666 1014 L667 1013 L667 1009 L668 1008 L668 1005 L669 1004 L669 998 L670 997 L670 987 L671 986 L671 946 L672 945 L672 901 L673 900 L673 781 L674 780 L674 773 L673 772 L673 770 L674 769 L674 637 L673 636 L673 631 L674 630 L674 622 L673 621 L673 614 L674 613 L674 609 L673 608 L673 600 L674 599 L674 592 L673 591 L673 582 L674 581 L674 532 L675 531 L675 485 L676 484 L676 478 L675 477 L675 424 L676 423 L676 417 L675 416 L675 394 L674 393 L674 381 L673 380 L673 373 L672 372 L672 367 L671 366 L671 361 L670 360 L670 356 L669 355 L669 351 L668 350 L668 347 L667 346 L667 343 L666 342 L666 340 L665 339 L665 337 L664 336 L664 334 L663 333 L663 331 L662 330 L662 329 L661 328 L661 326 L660 325 L660 323 L659 322 L659 321 L658 320 L658 318 L657 317 L657 315 L656 314 L656 313 L655 312 L655 311 L654 310 L654 309 L653 308 L653 307 L652 306 L652 305 L651 304 L651 303 L649 301 L649 300 L648 299 L648 298 L645 295 L645 294 L641 290 L641 289 L637 285 L637 284 L634 281 L634 280 L623 269 L622 269 L617 264 L616 264 L613 261 L612 261 L609 258 L608 258 L603 253 L602 253 L598 249 L597 249 L594 246 L593 246 L590 243 L589 243 L587 241 L586 241 L583 238 L582 238 L567 223 L567 222 L566 221 L566 220 L565 219 L565 217 L564 216 L564 213 L563 212 L563 209 L562 208 L562 202 L561 201 L561 166 L562 165 L562 159 L563 158 L563 156 L564 155 L564 154 L565 153 L565 151 L570 146 L571 146 L577 140 L577 139 L578 138 L578 137 L579 136 L579 134 L580 133 L580 130 L581 129 L581 100 L580 99 L580 98 L579 97 L579 96 L574 91 L573 91 L571 89 L570 89 L569 88 L568 88 L566 86 L564 86 L563 85 L561 85 L560 84 L558 84 L557 83 L556 83 L555 82 L555 79 L556 78 L556 73 L557 72 L557 69 L558 68 L558 66 L559 65 L559 63 L560 62 L560 59 L561 58 L561 53 L562 52 L562 38 L561 37 L561 36 L560 35 L559 35 L558 34 L557 34 L556 33 L555 33 L554 32 L553 32 L552 31 L551 31 L550 30 L549 30 L548 29 L546 29 L545 28 L543 28 L542 27 L539 27 L538 26 L536 26 L535 25 L531 25 L530 24 L527 24 L526 23 L523 23 L522 22 L514 22 L513 23 L512 23 L511 22 L509 22 L508 21 L504 21 L503 20 L498 20 L497 19 L493 19 L492 18 L485 18 L484 17 L476 17 L475 16 L464 16 L463 15 L448 15 L447 14 L431 14 L430 13 L419 13 L418 12 L406 12 L405 11 L379 11 L378 10 L376 10 L375 11 L374 11 L373 10 Z " fill="black"/></svg>