<svg width="450" height="986" xmlns="http://www.w3.org/2000/svg"><path d="M321 148 Z M419 11 L418 12 L416 12 L415 13 L414 13 L412 15 L411 15 L410 16 L408 16 L407 15 L406 15 L405 14 L400 14 L399 15 L398 15 L394 19 L393 19 L392 20 L391 20 L390 21 L381 21 L380 22 L379 22 L378 23 L376 23 L375 24 L374 24 L373 25 L372 25 L367 30 L367 31 L363 35 L358 30 L352 30 L351 31 L350 31 L348 33 L347 33 L342 38 L341 38 L341 39 L337 43 L337 44 L335 46 L335 47 L334 48 L334 50 L333 51 L333 54 L332 55 L332 59 L331 60 L331 64 L330 65 L330 70 L329 71 L329 87 L330 88 L330 96 L331 97 L331 111 L332 112 L332 113 L331 114 L331 122 L330 123 L330 131 L329 132 L329 139 L328 140 L328 144 L327 145 L327 146 L321 152 L321 153 L320 154 L320 155 L319 156 L319 157 L318 158 L318 159 L317 160 L317 161 L316 162 L316 163 L313 166 L313 167 L311 169 L310 169 L309 168 L310 167 L310 165 L311 164 L311 161 L312 160 L312 157 L313 156 L313 154 L314 153 L314 150 L315 149 L315 146 L316 145 L316 142 L317 141 L317 136 L319 134 L319 131 L320 130 L320 123 L321 122 L321 118 L320 117 L320 107 L319 106 L319 104 L318 103 L318 101 L316 99 L316 98 L315 98 L312 95 L311 95 L310 94 L309 94 L305 90 L305 88 L304 87 L304 83 L303 82 L303 80 L302 79 L302 78 L301 77 L301 75 L299 73 L299 72 L298 71 L297 71 L296 70 L295 70 L294 69 L290 69 L289 70 L288 70 L287 71 L286 71 L285 72 L284 72 L283 71 L283 70 L275 62 L274 62 L273 61 L270 61 L269 62 L268 62 L265 65 L263 65 L262 66 L261 66 L260 67 L259 67 L258 68 L257 68 L256 69 L256 70 L254 72 L254 73 L252 75 L252 76 L251 77 L251 83 L250 84 L250 90 L245 95 L245 96 L244 97 L244 100 L243 101 L243 104 L244 105 L244 109 L245 110 L245 111 L246 112 L246 113 L247 114 L247 115 L248 116 L248 119 L249 120 L249 122 L255 128 L255 129 L256 130 L256 131 L258 133 L258 134 L260 136 L260 137 L264 141 L265 141 L275 151 L276 151 L291 166 L291 167 L292 168 L292 169 L293 170 L293 171 L294 172 L294 173 L295 174 L295 176 L297 178 L297 180 L298 181 L298 183 L299 184 L299 186 L300 187 L300 194 L299 195 L299 196 L298 197 L298 198 L297 199 L297 200 L296 201 L296 202 L294 204 L294 205 L292 207 L292 209 L291 210 L291 211 L290 212 L290 213 L289 214 L289 216 L288 217 L288 218 L286 220 L286 221 L285 222 L285 223 L283 225 L283 226 L282 227 L282 228 L281 229 L281 230 L280 231 L280 232 L279 233 L279 234 L278 235 L278 236 L277 237 L277 238 L276 239 L276 241 L275 242 L275 243 L274 244 L274 246 L273 247 L273 248 L272 249 L272 251 L271 252 L271 253 L270 254 L269 253 L269 251 L268 250 L268 249 L269 248 L269 236 L270 235 L270 229 L271 228 L271 225 L272 224 L272 220 L273 219 L273 217 L274 216 L274 214 L275 213 L275 210 L276 209 L276 207 L277 206 L277 201 L278 200 L278 195 L277 194 L278 193 L278 189 L277 188 L277 181 L276 180 L276 178 L275 177 L275 176 L274 175 L273 175 L272 174 L266 174 L265 175 L263 175 L261 173 L261 170 L260 169 L260 166 L259 165 L259 164 L256 161 L255 161 L254 160 L253 160 L252 159 L248 159 L247 160 L246 160 L246 161 L244 163 L244 165 L243 166 L241 164 L241 161 L240 160 L240 158 L239 157 L239 155 L238 154 L238 153 L236 151 L236 150 L235 149 L235 148 L233 146 L233 145 L232 144 L232 143 L226 137 L225 137 L224 136 L222 136 L221 135 L218 135 L217 134 L210 134 L209 135 L208 135 L207 136 L204 136 L203 135 L203 134 L202 133 L202 132 L199 129 L198 129 L197 128 L193 128 L192 129 L190 129 L188 131 L187 131 L186 132 L184 132 L183 133 L182 133 L181 134 L180 134 L178 136 L177 136 L176 137 L176 138 L175 139 L175 140 L174 141 L174 150 L175 151 L175 154 L173 156 L171 156 L168 159 L168 164 L169 165 L169 167 L170 168 L170 170 L169 171 L169 173 L170 174 L170 176 L171 177 L171 178 L175 182 L175 183 L174 184 L174 191 L175 192 L175 194 L177 196 L177 197 L178 198 L178 199 L185 206 L186 206 L191 211 L192 211 L193 212 L194 212 L195 213 L196 213 L197 214 L198 214 L199 215 L200 215 L201 216 L202 216 L203 217 L204 217 L206 219 L207 219 L209 221 L210 221 L211 222 L213 222 L214 223 L217 223 L218 224 L219 224 L220 225 L221 225 L222 226 L224 226 L225 227 L226 227 L227 228 L228 228 L230 230 L231 230 L233 232 L235 232 L238 235 L239 235 L241 237 L242 237 L247 242 L248 242 L251 245 L252 245 L256 249 L256 250 L257 251 L257 254 L258 255 L258 263 L259 264 L258 265 L258 275 L257 276 L257 280 L256 281 L256 286 L255 287 L255 290 L254 291 L254 293 L253 294 L253 297 L252 298 L252 300 L251 301 L251 302 L250 303 L250 305 L249 306 L249 308 L248 309 L248 313 L247 314 L247 316 L246 317 L246 318 L245 319 L245 320 L243 322 L243 323 L240 326 L240 327 L236 331 L236 332 L235 333 L235 335 L234 336 L232 334 L232 331 L231 330 L231 327 L232 326 L232 320 L233 319 L233 314 L234 313 L234 309 L235 308 L235 306 L236 305 L236 304 L237 303 L237 300 L238 299 L238 294 L239 293 L239 289 L240 288 L240 281 L241 280 L241 273 L240 272 L240 266 L239 265 L239 264 L236 261 L236 260 L235 259 L235 258 L234 257 L234 256 L233 256 L232 255 L228 255 L224 251 L223 251 L222 250 L218 250 L217 249 L211 249 L210 248 L210 247 L209 246 L209 245 L208 244 L208 243 L207 242 L207 241 L202 236 L200 236 L199 235 L195 235 L194 236 L193 236 L188 231 L188 230 L184 226 L183 226 L181 224 L180 224 L179 223 L178 223 L177 224 L174 224 L174 226 L173 227 L173 229 L172 230 L169 227 L169 226 L165 222 L165 221 L164 221 L162 219 L162 218 L161 218 L159 216 L151 216 L150 217 L149 217 L148 218 L147 218 L145 220 L145 221 L144 222 L142 222 L140 220 L139 220 L138 219 L136 219 L135 218 L132 218 L131 217 L128 217 L127 218 L124 218 L123 219 L122 219 L120 221 L119 221 L118 222 L118 223 L115 226 L115 232 L116 233 L116 237 L117 238 L117 240 L113 244 L112 244 L110 246 L110 247 L109 248 L109 250 L108 251 L108 252 L109 253 L109 256 L110 257 L110 258 L111 259 L111 260 L112 261 L112 262 L113 263 L113 264 L114 265 L114 267 L113 268 L113 272 L114 273 L114 276 L115 277 L115 278 L116 279 L116 280 L117 281 L117 282 L120 285 L120 286 L123 289 L123 290 L124 291 L123 292 L123 297 L125 299 L125 300 L129 304 L130 304 L133 307 L134 307 L135 308 L136 308 L137 309 L138 309 L139 310 L141 310 L142 311 L144 311 L145 312 L148 312 L149 313 L151 313 L152 314 L161 314 L162 315 L166 315 L167 316 L169 316 L170 317 L172 317 L173 318 L175 318 L176 319 L177 319 L178 320 L182 320 L183 321 L185 321 L186 322 L188 322 L189 323 L190 323 L191 324 L192 324 L193 325 L194 325 L195 326 L196 326 L197 327 L198 327 L199 328 L200 328 L201 329 L203 329 L204 330 L205 330 L206 331 L207 331 L208 332 L211 332 L212 333 L214 333 L215 334 L218 334 L219 335 L220 335 L221 336 L222 336 L227 341 L227 342 L228 343 L228 344 L229 345 L229 347 L230 348 L230 350 L231 351 L231 352 L230 353 L230 361 L229 362 L229 366 L228 367 L228 371 L227 372 L227 377 L226 378 L226 382 L225 383 L225 386 L224 387 L224 391 L223 392 L223 394 L222 395 L222 398 L221 399 L221 401 L220 402 L220 405 L219 406 L219 409 L218 410 L218 413 L217 414 L217 418 L216 419 L216 425 L215 426 L215 434 L214 435 L213 435 L212 434 L212 433 L211 432 L211 430 L210 429 L210 426 L209 425 L209 419 L208 418 L208 413 L207 412 L207 407 L206 406 L206 400 L207 399 L207 395 L208 394 L208 391 L209 390 L209 388 L210 387 L210 381 L209 380 L209 368 L208 367 L208 364 L207 363 L207 362 L205 360 L205 359 L198 352 L197 352 L196 351 L194 351 L193 350 L191 350 L190 349 L187 349 L186 348 L183 348 L182 349 L180 349 L179 348 L179 346 L178 345 L178 344 L176 342 L176 341 L173 338 L172 338 L171 337 L170 337 L169 336 L168 336 L167 337 L166 337 L164 339 L164 340 L162 342 L161 341 L161 340 L154 333 L153 333 L151 331 L150 331 L149 330 L147 330 L146 329 L144 329 L143 328 L141 328 L140 327 L136 327 L135 328 L134 328 L133 329 L131 329 L123 321 L119 321 L118 322 L117 322 L116 323 L115 323 L112 326 L112 327 L109 330 L108 330 L107 331 L103 331 L102 330 L101 330 L100 329 L97 329 L96 328 L95 329 L93 329 L92 330 L91 330 L89 332 L88 332 L86 334 L85 334 L83 336 L82 336 L81 337 L70 337 L69 338 L67 338 L66 339 L64 339 L63 340 L62 340 L61 341 L61 342 L59 344 L59 345 L58 346 L58 347 L57 348 L57 349 L55 351 L55 353 L54 354 L54 359 L55 360 L55 362 L56 363 L56 364 L57 365 L57 369 L56 370 L55 370 L55 371 L54 372 L54 374 L59 379 L59 380 L60 381 L60 382 L69 391 L69 394 L68 395 L68 400 L69 401 L69 403 L72 406 L73 406 L74 407 L75 407 L76 408 L78 408 L79 409 L80 409 L81 410 L83 410 L84 411 L87 411 L88 412 L89 412 L91 414 L91 419 L95 423 L96 423 L97 424 L98 424 L99 425 L102 425 L103 426 L105 426 L106 427 L109 427 L110 428 L126 428 L127 427 L131 427 L132 428 L146 428 L147 427 L151 427 L152 426 L176 426 L177 427 L183 427 L184 428 L185 428 L186 429 L188 429 L189 430 L191 430 L192 431 L193 431 L194 432 L195 432 L197 434 L198 434 L205 441 L205 442 L207 444 L207 445 L208 446 L208 448 L209 449 L209 455 L208 456 L208 463 L207 464 L207 473 L206 474 L206 480 L205 481 L205 495 L204 496 L204 516 L203 517 L203 526 L202 527 L201 527 L197 523 L197 522 L196 521 L196 518 L195 517 L195 511 L194 510 L194 508 L193 507 L193 506 L192 505 L192 504 L191 503 L191 500 L190 499 L190 480 L191 479 L191 472 L190 471 L190 469 L189 468 L189 467 L188 466 L188 465 L187 464 L187 463 L186 462 L186 461 L185 460 L185 459 L184 458 L184 457 L183 456 L183 455 L180 452 L180 451 L177 448 L177 447 L176 447 L174 445 L169 445 L168 444 L164 444 L163 445 L161 445 L160 446 L158 446 L155 449 L154 449 L153 448 L152 448 L151 447 L150 447 L148 445 L147 445 L145 443 L144 443 L143 442 L142 442 L140 440 L138 440 L137 439 L136 439 L135 438 L122 438 L121 439 L120 439 L117 442 L117 443 L116 444 L116 445 L115 446 L113 444 L112 444 L110 442 L109 442 L107 440 L106 440 L105 439 L103 439 L102 438 L100 438 L99 437 L96 437 L95 436 L88 436 L87 437 L86 437 L84 439 L84 441 L82 443 L71 443 L70 442 L67 442 L66 441 L59 441 L58 442 L57 442 L54 445 L54 446 L53 447 L53 448 L52 449 L52 450 L53 451 L52 452 L47 452 L46 453 L42 453 L41 454 L40 454 L39 455 L38 455 L37 456 L37 457 L34 460 L33 460 L32 461 L30 461 L29 462 L28 462 L25 465 L24 465 L23 466 L23 467 L20 470 L20 471 L19 472 L19 474 L18 475 L18 476 L17 477 L17 478 L16 479 L16 482 L17 483 L17 484 L18 485 L18 486 L19 487 L19 488 L22 491 L23 491 L24 492 L25 492 L26 493 L27 493 L29 495 L30 495 L31 496 L31 497 L30 498 L30 501 L29 502 L29 507 L30 508 L30 509 L33 512 L34 512 L35 513 L36 513 L37 514 L39 514 L40 515 L41 515 L42 516 L45 516 L46 517 L47 517 L48 518 L51 518 L52 519 L54 519 L56 521 L56 523 L57 524 L57 526 L59 528 L59 529 L60 530 L61 530 L63 532 L65 532 L66 533 L70 533 L71 534 L78 534 L79 535 L80 535 L81 534 L89 534 L90 533 L95 533 L97 535 L97 536 L96 537 L96 538 L98 540 L99 540 L100 539 L102 539 L103 538 L108 538 L109 537 L110 537 L111 536 L113 536 L114 535 L116 535 L117 534 L120 534 L121 533 L124 533 L125 532 L128 532 L129 531 L138 531 L139 530 L140 530 L141 529 L142 529 L143 528 L144 528 L145 527 L148 527 L149 526 L151 526 L152 525 L155 525 L156 524 L158 524 L159 523 L164 523 L165 522 L171 522 L172 523 L176 523 L177 524 L180 524 L181 525 L184 525 L185 526 L187 526 L188 527 L189 527 L190 528 L191 528 L192 529 L193 529 L198 534 L198 535 L200 537 L200 538 L201 539 L201 540 L202 541 L202 542 L201 543 L201 586 L200 587 L200 591 L201 592 L200 593 L200 609 L199 610 L199 617 L198 618 L197 617 L197 616 L196 615 L196 614 L195 613 L195 612 L191 608 L191 607 L189 605 L189 603 L188 602 L188 599 L187 598 L187 593 L186 592 L186 586 L185 585 L185 581 L184 580 L184 577 L183 576 L183 572 L182 571 L182 570 L181 569 L181 567 L180 566 L180 564 L179 563 L179 562 L177 560 L177 559 L176 558 L176 557 L171 552 L170 552 L168 550 L166 550 L165 549 L158 549 L157 550 L155 550 L154 551 L153 551 L152 552 L151 552 L150 553 L149 553 L147 555 L143 555 L142 554 L139 554 L138 553 L134 553 L133 552 L116 552 L115 553 L113 553 L110 556 L110 557 L109 558 L109 559 L107 561 L106 561 L105 560 L103 560 L102 559 L100 559 L99 558 L98 558 L97 557 L95 557 L94 556 L90 556 L89 555 L82 555 L81 556 L78 556 L74 560 L74 561 L70 565 L55 565 L54 566 L53 566 L52 567 L51 567 L45 573 L44 573 L43 574 L39 574 L37 576 L37 577 L36 578 L36 579 L32 583 L32 584 L31 585 L31 586 L30 587 L30 588 L29 589 L29 592 L27 594 L26 594 L24 596 L23 596 L21 598 L20 598 L19 599 L19 600 L16 603 L16 604 L14 606 L14 607 L13 608 L13 609 L12 610 L12 612 L11 613 L11 621 L13 623 L13 624 L15 626 L16 626 L18 628 L20 628 L21 629 L22 629 L23 630 L27 630 L28 631 L30 631 L32 633 L32 635 L31 636 L31 637 L30 638 L30 641 L33 644 L35 644 L36 645 L39 645 L40 646 L43 646 L44 647 L45 646 L46 647 L56 647 L57 648 L57 649 L58 650 L58 651 L59 652 L59 653 L61 655 L62 655 L63 656 L66 656 L67 657 L72 657 L73 656 L76 656 L77 655 L80 655 L81 654 L84 654 L85 653 L88 653 L89 652 L90 652 L91 651 L96 651 L100 655 L108 655 L109 654 L112 654 L113 653 L119 653 L120 652 L121 652 L122 651 L123 651 L129 645 L130 645 L131 644 L132 644 L134 642 L135 642 L136 641 L137 641 L139 639 L140 639 L142 637 L143 637 L145 635 L146 635 L148 633 L149 633 L150 632 L151 632 L152 631 L153 631 L154 630 L155 630 L156 629 L157 629 L158 628 L159 628 L160 627 L161 627 L163 625 L164 625 L165 624 L167 624 L168 623 L169 623 L170 622 L171 622 L172 621 L173 621 L174 620 L179 620 L180 619 L181 619 L182 620 L186 620 L187 621 L188 621 L189 622 L190 622 L198 630 L198 631 L200 633 L200 635 L201 636 L201 647 L202 648 L202 660 L203 661 L203 680 L204 681 L204 689 L205 690 L205 696 L206 697 L206 701 L205 702 L204 701 L203 701 L202 700 L202 699 L200 697 L200 696 L198 694 L198 693 L195 690 L195 688 L194 687 L194 678 L193 677 L193 674 L192 673 L192 670 L191 669 L191 667 L190 666 L190 665 L189 664 L189 663 L187 661 L187 660 L183 656 L182 656 L180 654 L179 654 L178 653 L177 653 L176 652 L175 652 L174 651 L173 651 L172 650 L170 650 L169 649 L162 649 L160 651 L160 652 L158 654 L158 656 L154 660 L148 660 L147 659 L145 659 L144 658 L142 658 L141 657 L134 657 L133 658 L130 658 L127 661 L127 662 L126 663 L126 667 L125 668 L125 670 L124 671 L122 671 L121 670 L117 670 L116 669 L115 669 L114 668 L108 668 L107 669 L106 669 L104 671 L102 671 L100 673 L100 674 L98 676 L98 678 L97 679 L97 683 L95 685 L90 685 L89 686 L86 686 L85 687 L83 687 L82 688 L79 688 L78 689 L74 689 L73 690 L72 690 L71 691 L70 691 L69 692 L69 693 L68 694 L68 695 L67 696 L67 697 L66 698 L66 701 L65 702 L65 703 L64 704 L64 711 L63 712 L63 713 L58 718 L58 719 L56 721 L56 722 L54 724 L54 726 L53 727 L53 733 L52 734 L52 736 L53 737 L53 739 L54 740 L54 741 L58 745 L59 745 L62 748 L64 748 L66 750 L68 750 L69 751 L70 751 L71 752 L78 752 L79 751 L80 751 L82 753 L82 754 L83 755 L83 756 L84 757 L84 758 L86 760 L87 760 L88 761 L90 761 L91 762 L95 762 L96 763 L99 763 L100 762 L106 762 L107 761 L108 761 L109 760 L110 760 L111 759 L112 759 L113 758 L114 758 L115 757 L117 757 L118 756 L121 756 L122 755 L125 755 L126 756 L127 756 L128 757 L130 757 L131 758 L136 758 L137 757 L139 757 L141 755 L142 755 L143 754 L144 754 L147 751 L148 751 L149 750 L150 750 L153 747 L154 747 L164 737 L164 736 L166 734 L166 733 L169 730 L170 730 L178 722 L178 721 L184 715 L185 715 L186 714 L186 713 L187 712 L188 712 L189 711 L190 711 L192 709 L195 709 L196 708 L199 708 L200 709 L201 709 L208 716 L208 717 L210 719 L210 723 L211 724 L211 726 L212 727 L212 736 L213 737 L213 746 L214 747 L214 753 L215 754 L215 760 L216 761 L216 763 L217 764 L217 766 L218 767 L218 769 L219 770 L219 773 L220 774 L220 785 L219 786 L218 786 L217 785 L215 785 L214 784 L213 784 L212 783 L211 783 L204 776 L204 775 L201 772 L201 771 L195 765 L194 765 L193 764 L191 764 L190 763 L174 763 L173 764 L172 764 L169 767 L169 773 L166 776 L165 776 L164 777 L163 777 L162 778 L161 778 L160 779 L159 779 L158 780 L156 780 L154 782 L153 782 L152 783 L151 783 L148 786 L148 787 L144 791 L142 791 L141 790 L138 790 L137 789 L136 790 L134 790 L133 791 L132 791 L127 796 L127 797 L126 798 L126 805 L123 808 L122 808 L121 809 L120 809 L119 810 L119 811 L116 814 L116 816 L115 817 L115 826 L116 827 L116 828 L114 830 L113 830 L112 831 L111 831 L109 833 L109 835 L108 836 L108 839 L107 840 L107 843 L108 844 L108 847 L109 848 L109 849 L114 854 L114 855 L116 857 L117 857 L120 860 L123 860 L124 861 L127 861 L129 863 L130 863 L131 864 L136 864 L137 863 L139 863 L140 862 L142 862 L143 861 L146 861 L147 860 L149 860 L150 859 L157 859 L158 860 L159 860 L161 862 L162 862 L163 863 L166 863 L167 862 L169 862 L170 861 L171 861 L174 858 L175 858 L189 844 L189 843 L194 838 L194 837 L196 835 L196 834 L197 833 L197 831 L198 830 L198 829 L199 828 L199 827 L200 826 L200 825 L202 823 L202 822 L204 820 L204 819 L205 818 L205 816 L206 815 L206 813 L207 812 L207 807 L208 806 L208 803 L209 802 L209 801 L210 800 L210 799 L211 798 L212 798 L213 797 L220 797 L223 800 L223 802 L224 803 L224 805 L225 806 L225 807 L226 808 L226 811 L227 812 L227 815 L228 816 L228 818 L229 819 L229 821 L230 822 L230 824 L231 825 L231 830 L232 831 L232 833 L233 834 L233 840 L234 841 L234 846 L235 847 L235 852 L236 853 L236 854 L237 855 L237 857 L238 858 L238 863 L239 864 L239 867 L240 868 L240 870 L241 871 L241 873 L242 874 L242 876 L243 877 L243 880 L244 881 L244 885 L245 886 L245 891 L246 892 L246 894 L247 895 L247 897 L248 898 L248 900 L249 901 L249 904 L250 905 L250 908 L251 909 L251 911 L252 912 L252 914 L253 915 L253 917 L254 918 L254 920 L255 921 L255 924 L256 925 L256 927 L257 928 L257 930 L258 931 L258 934 L259 935 L259 938 L260 939 L260 941 L261 942 L261 945 L262 946 L262 948 L263 949 L263 951 L264 952 L264 953 L265 954 L265 956 L266 957 L266 959 L267 960 L267 961 L269 963 L269 964 L273 968 L274 968 L277 971 L278 971 L278 970 L274 966 L274 965 L273 964 L273 960 L272 959 L272 957 L271 956 L271 953 L270 952 L270 950 L269 949 L269 945 L268 944 L268 941 L267 940 L267 938 L268 937 L269 938 L269 939 L270 940 L270 942 L271 943 L271 946 L272 947 L272 949 L273 950 L273 952 L274 953 L274 954 L275 955 L275 957 L276 958 L276 960 L277 961 L277 962 L278 963 L278 965 L279 966 L279 967 L281 969 L281 967 L282 966 L283 967 L283 968 L284 969 L284 967 L283 966 L283 961 L282 960 L282 956 L281 955 L281 952 L280 951 L280 948 L279 947 L279 943 L278 942 L278 940 L277 939 L277 937 L276 936 L276 934 L275 933 L275 931 L274 930 L274 929 L273 928 L273 926 L272 925 L272 923 L271 922 L271 919 L270 918 L270 915 L269 914 L269 911 L268 910 L268 908 L267 907 L267 905 L266 904 L266 902 L265 901 L265 898 L264 897 L264 893 L263 892 L263 890 L262 889 L262 887 L261 886 L261 884 L260 883 L260 880 L259 879 L259 877 L258 876 L258 872 L257 871 L257 867 L256 866 L256 863 L255 862 L255 860 L254 859 L254 856 L253 855 L253 851 L252 850 L252 848 L251 847 L251 844 L250 843 L250 840 L249 839 L249 835 L248 834 L248 830 L247 829 L247 827 L246 826 L246 824 L245 823 L245 821 L244 820 L244 815 L243 814 L243 812 L242 811 L242 809 L241 808 L241 807 L240 806 L240 801 L241 800 L241 794 L242 793 L242 792 L245 789 L249 789 L253 793 L253 794 L254 795 L254 796 L256 798 L256 799 L258 801 L258 802 L261 805 L261 806 L263 808 L263 809 L265 811 L265 812 L267 814 L267 815 L270 818 L271 818 L276 823 L277 823 L280 826 L281 826 L282 827 L283 827 L284 828 L286 828 L287 829 L288 829 L289 830 L291 830 L292 831 L293 831 L294 832 L296 832 L297 833 L298 833 L299 834 L301 834 L302 835 L306 835 L307 836 L310 836 L311 835 L313 835 L314 834 L315 834 L316 833 L317 833 L318 832 L320 832 L322 830 L323 830 L324 829 L325 829 L327 827 L328 827 L330 825 L330 822 L332 820 L333 821 L353 821 L354 820 L356 820 L357 819 L359 819 L360 818 L361 818 L364 815 L364 814 L365 813 L365 811 L366 810 L366 803 L365 802 L365 800 L364 799 L364 798 L363 797 L363 796 L358 791 L357 791 L356 790 L355 790 L354 789 L353 789 L351 787 L351 781 L350 780 L350 779 L349 778 L349 777 L348 776 L348 775 L344 771 L343 771 L342 770 L341 770 L340 769 L339 769 L338 768 L338 767 L336 765 L334 765 L333 764 L321 764 L320 763 L319 763 L318 762 L318 761 L317 760 L317 759 L316 758 L316 757 L315 756 L315 755 L313 753 L312 753 L311 752 L300 752 L299 753 L296 753 L295 752 L286 752 L285 751 L284 751 L281 748 L280 748 L279 747 L267 747 L266 748 L265 748 L264 749 L263 749 L262 750 L261 750 L259 752 L258 752 L254 756 L254 757 L253 758 L253 759 L252 760 L252 761 L251 762 L251 763 L250 764 L250 765 L249 766 L249 768 L248 769 L248 771 L247 772 L247 775 L246 776 L246 777 L245 778 L245 779 L240 784 L238 784 L237 783 L237 780 L236 779 L236 775 L235 774 L235 770 L234 769 L234 765 L233 764 L233 760 L232 759 L232 755 L231 754 L231 746 L230 745 L230 740 L229 739 L229 728 L228 727 L228 721 L227 720 L227 716 L228 715 L228 712 L230 710 L230 709 L232 707 L233 707 L235 705 L236 705 L237 704 L240 704 L241 705 L242 705 L243 706 L244 706 L251 713 L252 713 L255 716 L256 716 L257 717 L258 717 L259 718 L260 718 L261 719 L262 719 L263 720 L265 720 L266 721 L268 721 L269 722 L271 722 L272 723 L275 723 L276 724 L277 724 L281 728 L282 728 L284 730 L285 730 L287 732 L288 732 L289 733 L290 733 L291 734 L292 734 L293 735 L295 735 L296 736 L300 736 L301 737 L307 737 L309 735 L310 735 L312 733 L316 733 L317 734 L319 734 L321 736 L322 736 L324 738 L325 738 L326 739 L327 739 L328 740 L330 740 L331 741 L334 741 L335 742 L341 742 L342 741 L348 741 L349 740 L352 740 L353 739 L354 739 L355 738 L357 738 L361 734 L361 732 L362 731 L362 730 L361 729 L361 727 L362 726 L363 726 L364 725 L367 725 L368 724 L370 724 L371 723 L373 723 L374 722 L375 722 L376 721 L377 721 L384 714 L384 713 L385 712 L385 711 L386 710 L386 705 L387 704 L387 703 L386 702 L386 698 L385 697 L385 696 L380 691 L379 691 L377 689 L376 689 L375 688 L374 688 L370 684 L370 677 L366 673 L365 673 L363 671 L362 671 L361 670 L360 670 L358 668 L357 668 L356 667 L355 667 L353 665 L351 665 L350 664 L345 664 L343 662 L343 659 L344 658 L344 657 L343 656 L343 655 L341 653 L340 653 L339 652 L332 652 L331 653 L324 653 L323 654 L320 654 L319 655 L317 655 L316 656 L308 656 L307 657 L300 657 L299 658 L297 656 L297 655 L296 654 L296 653 L295 652 L295 651 L294 651 L292 649 L288 649 L287 648 L286 649 L284 649 L283 650 L281 650 L279 652 L278 652 L277 653 L273 653 L272 652 L272 648 L271 647 L271 646 L269 644 L268 644 L267 643 L258 643 L257 644 L255 644 L254 645 L253 645 L252 646 L251 646 L250 647 L249 647 L245 651 L245 652 L244 653 L244 654 L242 656 L242 657 L240 659 L240 660 L239 661 L239 662 L238 663 L238 666 L237 667 L237 671 L236 672 L236 675 L235 676 L235 679 L234 680 L234 683 L233 684 L233 686 L232 687 L232 690 L231 691 L231 693 L230 694 L230 695 L229 696 L229 698 L227 700 L226 700 L225 699 L225 695 L224 694 L224 691 L223 690 L223 686 L224 685 L223 684 L223 682 L224 681 L224 680 L223 679 L223 672 L222 671 L222 667 L221 666 L221 655 L220 654 L220 635 L219 634 L219 628 L220 627 L220 626 L224 622 L225 622 L228 619 L229 619 L231 617 L232 617 L233 616 L235 616 L236 615 L244 615 L245 616 L246 616 L247 617 L248 617 L249 618 L250 618 L251 619 L252 619 L253 620 L254 620 L256 622 L257 622 L258 623 L259 623 L260 624 L261 624 L262 625 L263 625 L265 627 L266 627 L268 629 L269 629 L270 630 L271 630 L273 632 L274 632 L276 634 L277 634 L279 636 L280 636 L281 637 L282 637 L284 639 L285 639 L286 640 L287 640 L289 642 L291 642 L292 643 L293 643 L294 644 L295 644 L297 646 L299 646 L300 647 L305 647 L308 644 L308 643 L309 642 L309 641 L310 640 L311 640 L312 641 L313 641 L314 642 L316 642 L317 643 L319 643 L320 644 L323 644 L324 645 L329 645 L330 646 L335 646 L336 647 L342 647 L343 646 L344 646 L345 645 L346 645 L346 644 L347 643 L347 641 L348 640 L349 640 L350 641 L356 641 L357 642 L361 642 L362 641 L369 641 L370 640 L371 640 L375 636 L375 630 L376 629 L377 629 L378 628 L379 628 L380 627 L382 627 L383 626 L385 626 L386 625 L388 625 L389 624 L391 624 L392 623 L393 623 L395 621 L395 620 L396 619 L396 613 L397 612 L397 607 L398 606 L398 598 L397 597 L397 595 L396 594 L396 590 L395 589 L395 584 L393 582 L393 581 L391 579 L390 579 L388 577 L386 577 L385 576 L384 576 L383 575 L381 575 L380 574 L373 574 L372 573 L373 572 L373 569 L371 567 L371 566 L368 563 L367 563 L366 562 L364 562 L363 561 L355 561 L354 562 L348 562 L347 563 L346 563 L345 562 L345 561 L346 560 L346 555 L344 553 L343 553 L342 552 L337 552 L336 553 L335 553 L334 554 L333 554 L332 555 L331 555 L330 556 L329 556 L328 557 L326 557 L324 559 L321 559 L320 560 L318 560 L317 561 L316 560 L316 555 L315 554 L315 553 L312 550 L311 550 L310 549 L307 549 L306 548 L300 548 L299 549 L297 549 L296 550 L295 550 L294 551 L292 551 L290 553 L289 553 L288 554 L287 554 L286 555 L283 555 L282 556 L281 556 L280 555 L279 555 L276 552 L275 552 L274 551 L271 551 L270 552 L269 552 L267 554 L266 554 L265 555 L264 555 L263 554 L263 553 L260 550 L260 549 L259 548 L258 548 L256 546 L252 546 L251 547 L250 547 L249 548 L248 548 L246 550 L245 550 L244 551 L243 551 L242 552 L240 552 L239 553 L238 553 L236 555 L236 556 L235 557 L235 558 L234 559 L234 561 L233 562 L233 566 L232 567 L232 572 L231 573 L231 579 L230 580 L230 584 L229 585 L229 587 L228 588 L228 591 L227 592 L227 594 L225 596 L225 597 L224 598 L224 599 L223 600 L223 601 L222 602 L222 603 L219 606 L218 605 L218 597 L217 596 L217 536 L216 535 L216 533 L223 526 L223 525 L225 523 L226 523 L229 520 L230 520 L232 518 L234 518 L235 517 L237 517 L238 516 L250 516 L251 517 L254 517 L255 518 L257 518 L258 519 L259 519 L260 520 L261 520 L262 521 L264 521 L265 522 L267 522 L268 523 L269 523 L270 524 L271 524 L272 525 L273 525 L274 526 L276 526 L277 527 L278 527 L279 528 L280 528 L281 529 L282 529 L283 530 L284 530 L285 531 L286 531 L288 533 L289 533 L290 534 L291 534 L292 535 L293 535 L294 536 L295 536 L296 537 L297 537 L298 538 L299 538 L300 539 L301 539 L302 540 L303 540 L304 541 L305 541 L306 542 L307 542 L308 543 L310 543 L311 544 L313 544 L314 545 L315 545 L316 546 L317 546 L318 547 L319 547 L320 548 L322 548 L323 549 L326 549 L327 550 L335 550 L336 549 L339 549 L340 548 L343 548 L344 547 L345 547 L348 544 L353 544 L354 543 L359 543 L360 542 L362 542 L363 541 L365 541 L366 540 L367 540 L368 539 L369 539 L375 533 L375 532 L376 531 L376 529 L380 525 L380 524 L381 523 L381 522 L382 521 L383 521 L384 520 L385 520 L386 519 L387 519 L388 518 L389 518 L390 517 L391 517 L395 513 L395 512 L398 509 L398 508 L399 507 L399 506 L400 505 L400 503 L401 502 L400 501 L400 495 L399 494 L399 493 L396 490 L395 490 L393 488 L393 483 L391 481 L390 481 L389 480 L385 480 L384 479 L383 479 L380 476 L380 474 L379 473 L379 472 L378 471 L378 470 L377 469 L376 469 L375 468 L373 468 L372 467 L367 467 L366 466 L359 466 L358 465 L358 464 L359 463 L359 461 L357 459 L357 458 L355 456 L353 456 L352 455 L342 455 L341 456 L338 456 L337 457 L336 457 L334 455 L334 454 L331 451 L330 451 L328 449 L328 446 L329 445 L331 445 L332 446 L334 446 L335 447 L341 447 L342 448 L353 448 L354 449 L356 449 L357 448 L357 446 L356 445 L356 444 L359 441 L362 441 L363 442 L370 442 L371 443 L374 443 L375 442 L380 442 L381 441 L382 441 L392 431 L392 430 L394 428 L394 427 L395 426 L395 423 L396 422 L396 420 L397 419 L397 417 L399 415 L399 414 L404 409 L404 408 L405 407 L405 404 L404 403 L404 402 L403 401 L403 400 L397 394 L396 394 L394 392 L393 392 L390 389 L390 388 L391 387 L391 386 L390 385 L390 382 L385 377 L384 377 L383 376 L379 376 L378 375 L370 375 L369 374 L369 373 L370 372 L370 370 L369 369 L369 365 L367 363 L359 363 L358 364 L355 364 L354 365 L349 365 L348 366 L345 366 L344 367 L341 367 L340 366 L341 365 L341 360 L339 358 L337 358 L336 357 L325 357 L324 358 L321 358 L320 359 L317 359 L316 360 L313 360 L312 359 L312 358 L311 357 L311 356 L309 354 L309 353 L308 352 L305 352 L304 353 L302 353 L301 354 L300 354 L299 355 L298 355 L297 356 L296 356 L294 358 L293 358 L287 364 L286 364 L285 363 L285 358 L284 357 L284 355 L283 354 L283 353 L281 351 L280 351 L279 350 L278 350 L277 351 L276 351 L275 352 L274 352 L270 356 L269 356 L268 357 L267 357 L261 363 L261 364 L259 366 L259 367 L257 369 L257 370 L256 371 L256 372 L254 374 L254 375 L251 378 L251 379 L250 380 L250 386 L249 387 L249 390 L248 391 L248 393 L247 394 L247 395 L246 396 L246 397 L245 398 L245 400 L244 401 L244 402 L243 403 L243 406 L242 407 L242 410 L241 411 L241 413 L240 414 L240 415 L235 420 L234 420 L233 421 L232 421 L231 420 L231 419 L232 418 L232 412 L233 411 L233 405 L234 404 L234 398 L235 397 L235 394 L236 393 L236 390 L237 389 L237 386 L238 385 L238 382 L239 381 L239 377 L240 376 L240 374 L241 373 L241 368 L242 367 L242 365 L243 364 L243 362 L244 361 L244 359 L245 358 L245 356 L246 355 L246 353 L247 352 L247 351 L248 350 L248 348 L249 347 L249 346 L250 345 L250 344 L252 342 L252 341 L254 339 L255 339 L258 336 L259 336 L260 335 L261 335 L262 334 L265 334 L266 333 L268 333 L269 332 L278 332 L279 333 L282 333 L283 334 L284 334 L285 335 L286 335 L288 337 L290 337 L291 338 L292 338 L293 339 L295 339 L297 341 L298 341 L299 342 L300 342 L301 343 L303 343 L304 344 L309 344 L310 345 L316 345 L317 346 L320 346 L321 347 L324 347 L325 348 L328 348 L329 349 L331 349 L332 350 L334 350 L335 351 L338 351 L339 352 L341 352 L342 353 L345 353 L346 354 L350 354 L351 355 L355 355 L356 356 L362 356 L363 357 L364 356 L370 356 L371 355 L373 355 L374 354 L376 354 L377 353 L380 353 L381 352 L382 352 L383 351 L384 351 L385 350 L386 350 L388 348 L389 348 L393 344 L393 341 L394 340 L393 339 L394 338 L394 337 L395 336 L396 336 L398 334 L399 334 L400 333 L401 333 L402 332 L403 332 L405 330 L406 330 L407 329 L407 328 L409 326 L409 324 L410 323 L410 319 L409 318 L409 315 L406 312 L405 312 L403 310 L403 309 L404 308 L404 307 L403 306 L403 303 L402 302 L402 301 L401 300 L401 299 L399 297 L398 297 L397 296 L396 296 L395 295 L392 295 L391 294 L387 294 L386 293 L383 293 L381 291 L381 287 L382 286 L382 283 L381 282 L381 280 L378 277 L377 277 L376 276 L375 276 L374 275 L362 275 L361 276 L359 276 L358 277 L356 277 L355 278 L352 278 L351 279 L350 279 L348 277 L348 276 L346 274 L345 274 L344 273 L342 273 L341 274 L339 274 L337 276 L336 276 L335 277 L334 277 L332 279 L331 278 L331 275 L327 271 L325 271 L324 270 L323 270 L322 271 L320 271 L319 272 L318 272 L317 273 L315 273 L314 274 L311 274 L309 272 L309 271 L307 269 L306 270 L305 270 L303 272 L302 272 L301 273 L299 273 L298 274 L297 274 L296 275 L295 275 L294 276 L293 276 L292 277 L291 277 L288 280 L288 281 L287 282 L287 283 L285 285 L285 286 L283 288 L283 289 L281 291 L281 292 L279 294 L279 295 L278 296 L278 297 L276 299 L276 300 L275 301 L275 302 L273 304 L273 305 L272 306 L272 307 L271 308 L271 310 L270 311 L270 312 L269 313 L269 314 L268 315 L268 316 L267 317 L267 318 L265 320 L264 320 L258 326 L257 326 L256 327 L255 327 L254 326 L255 325 L255 323 L256 322 L256 320 L257 319 L257 317 L258 316 L258 313 L259 312 L259 309 L260 308 L260 307 L261 306 L261 303 L262 302 L262 300 L263 299 L263 296 L264 295 L264 293 L265 292 L265 290 L266 289 L266 287 L267 286 L267 285 L268 284 L268 282 L269 281 L269 280 L272 277 L272 274 L273 273 L273 272 L274 271 L274 269 L275 268 L275 267 L276 266 L276 265 L277 264 L277 263 L278 262 L278 261 L279 260 L279 259 L285 253 L286 253 L288 251 L289 251 L290 250 L291 250 L292 249 L294 249 L295 248 L297 248 L298 247 L302 247 L303 246 L314 246 L315 247 L317 247 L318 248 L320 248 L321 249 L323 249 L324 250 L326 250 L327 251 L333 251 L334 252 L336 252 L337 253 L338 253 L339 254 L340 254 L343 257 L344 257 L346 259 L347 259 L349 261 L350 261 L351 262 L352 262 L353 263 L355 263 L356 264 L357 264 L358 265 L360 265 L361 266 L362 266 L363 267 L367 267 L368 268 L375 268 L376 269 L389 269 L390 268 L397 268 L398 267 L402 267 L403 266 L404 266 L405 265 L406 265 L407 264 L407 263 L408 262 L408 261 L409 260 L409 258 L410 257 L410 255 L411 254 L412 254 L413 253 L414 253 L415 252 L416 252 L421 247 L422 247 L427 242 L427 241 L428 240 L428 238 L429 237 L429 232 L428 231 L428 228 L427 227 L427 226 L426 225 L426 224 L422 220 L421 220 L419 218 L419 217 L418 216 L417 216 L408 207 L407 207 L406 206 L405 206 L404 205 L403 205 L402 204 L397 204 L396 203 L395 203 L394 202 L393 202 L392 201 L388 201 L387 200 L382 200 L381 199 L367 199 L366 200 L362 200 L361 201 L360 201 L359 200 L359 197 L355 193 L354 193 L353 192 L352 192 L351 191 L345 191 L344 192 L341 192 L340 193 L339 193 L338 194 L336 194 L334 196 L333 196 L332 197 L331 197 L322 206 L321 206 L320 207 L319 207 L318 208 L317 208 L307 218 L307 219 L295 231 L295 232 L287 240 L286 239 L286 238 L287 237 L287 236 L288 235 L288 234 L289 233 L289 232 L291 230 L291 229 L292 228 L292 227 L293 226 L293 225 L294 224 L294 223 L296 221 L296 220 L298 218 L298 217 L300 215 L300 214 L301 213 L301 212 L302 211 L302 209 L303 208 L303 207 L304 206 L304 204 L305 203 L305 202 L307 200 L307 199 L310 196 L310 195 L313 192 L313 191 L318 186 L319 186 L320 185 L321 185 L323 183 L324 183 L325 182 L327 182 L328 181 L330 181 L331 180 L333 180 L334 179 L335 179 L336 178 L338 178 L339 177 L349 177 L350 178 L353 178 L354 179 L356 179 L357 180 L360 180 L361 181 L364 181 L365 182 L368 182 L369 183 L373 183 L374 184 L377 184 L378 185 L382 185 L383 186 L386 186 L387 187 L390 187 L391 188 L404 188 L405 187 L408 187 L409 186 L411 186 L412 185 L413 185 L414 184 L415 184 L416 183 L417 183 L418 182 L419 182 L420 181 L421 181 L422 180 L423 180 L424 179 L425 179 L426 178 L427 178 L428 177 L430 177 L431 176 L432 176 L433 175 L434 175 L435 174 L436 174 L436 173 L437 172 L437 171 L438 170 L438 168 L439 167 L439 165 L438 164 L438 157 L437 156 L437 144 L436 143 L435 143 L433 141 L429 141 L428 140 L425 140 L423 138 L423 133 L422 132 L422 131 L420 129 L417 129 L416 130 L415 130 L414 131 L413 131 L412 132 L411 132 L410 133 L409 133 L408 134 L406 134 L405 135 L404 134 L403 134 L401 132 L401 131 L398 128 L393 128 L392 129 L389 129 L388 130 L387 130 L386 131 L384 131 L383 132 L382 132 L381 133 L379 133 L378 134 L376 132 L375 132 L374 131 L367 131 L366 132 L365 132 L364 133 L363 133 L362 134 L361 134 L359 136 L358 136 L356 138 L355 138 L352 141 L351 141 L349 143 L348 143 L345 146 L344 146 L341 149 L340 149 L336 153 L335 153 L328 160 L327 159 L327 158 L329 156 L329 155 L339 145 L340 145 L345 140 L346 140 L350 136 L351 136 L353 134 L354 134 L356 132 L357 132 L358 131 L359 131 L360 130 L361 130 L362 129 L363 129 L364 128 L366 128 L367 127 L369 127 L370 126 L373 126 L374 125 L378 125 L379 124 L382 124 L383 123 L385 123 L386 122 L388 122 L389 121 L391 121 L393 119 L394 119 L395 118 L398 118 L399 117 L403 117 L404 116 L405 116 L406 115 L407 115 L408 114 L409 114 L411 112 L412 112 L413 111 L414 111 L415 110 L416 110 L417 109 L418 109 L419 108 L421 108 L422 107 L424 107 L425 106 L427 106 L430 103 L430 101 L431 100 L431 97 L432 96 L432 90 L431 89 L431 88 L429 86 L429 85 L428 84 L428 83 L429 82 L430 82 L430 81 L434 77 L434 76 L435 75 L435 72 L434 71 L434 69 L431 66 L429 66 L428 65 L428 64 L431 61 L431 60 L435 56 L435 55 L436 54 L436 48 L431 43 L431 41 L432 40 L432 38 L433 37 L433 36 L434 35 L434 33 L435 32 L435 22 L434 21 L434 19 L432 17 L432 16 L429 13 L428 13 L427 12 L425 12 L424 11 Z M171 0 L171 3 L170 4 L170 9 L169 10 L169 18 L168 19 L168 20 L167 21 L167 22 L166 23 L166 26 L165 27 L165 32 L164 33 L164 38 L163 39 L163 47 L164 48 L164 50 L165 49 L165 47 L166 46 L166 44 L167 43 L167 39 L168 38 L168 34 L169 33 L169 26 L170 25 L170 23 L172 21 L174 23 L174 25 L173 26 L173 33 L174 34 L174 42 L175 43 L175 45 L177 43 L178 43 L179 42 L179 41 L180 40 L181 40 L182 41 L182 42 L181 43 L181 52 L180 53 L180 55 L181 56 L181 59 L182 58 L182 57 L183 56 L183 54 L184 53 L184 50 L185 49 L185 47 L186 46 L186 44 L187 43 L187 41 L188 40 L188 38 L189 37 L189 35 L190 34 L190 32 L191 31 L191 29 L192 28 L192 24 L193 23 L193 17 L194 16 L194 15 L195 14 L195 13 L196 12 L196 8 L197 7 L197 2 L198 1 L198 0 Z M0 0 L0 243 L2 245 L2 246 L4 246 L7 249 L7 250 L6 251 L6 252 L5 253 L6 254 L4 256 L4 258 L3 259 L1 259 L1 261 L2 262 L0 264 L0 282 L4 286 L4 287 L7 290 L8 290 L12 294 L18 294 L19 293 L20 293 L22 291 L22 290 L23 289 L23 287 L24 286 L24 282 L25 281 L25 278 L26 277 L26 272 L25 271 L25 268 L26 267 L27 268 L28 268 L31 271 L32 271 L33 272 L34 272 L35 273 L40 273 L46 267 L46 266 L47 265 L47 264 L48 263 L48 260 L49 259 L49 251 L48 250 L48 246 L47 245 L47 243 L46 242 L46 241 L45 240 L45 239 L46 238 L47 238 L48 239 L50 239 L51 240 L55 240 L56 239 L58 239 L61 236 L61 234 L62 233 L62 226 L61 225 L61 219 L60 218 L60 215 L59 214 L59 213 L58 212 L58 211 L49 202 L48 202 L43 197 L42 197 L40 195 L41 194 L44 194 L45 193 L46 193 L49 190 L49 181 L48 180 L48 178 L47 177 L47 176 L42 171 L42 170 L41 169 L41 168 L40 167 L40 166 L38 164 L38 163 L37 162 L38 161 L39 161 L44 166 L45 166 L51 172 L52 172 L53 173 L57 173 L60 170 L61 170 L62 169 L62 168 L63 167 L63 166 L64 165 L64 161 L65 160 L65 146 L64 145 L64 141 L63 140 L63 137 L62 136 L62 135 L61 134 L61 133 L60 132 L60 131 L58 129 L58 128 L54 124 L54 123 L52 121 L52 120 L46 114 L48 112 L49 112 L50 113 L53 113 L54 112 L54 111 L55 110 L55 109 L54 108 L54 106 L53 105 L53 100 L52 99 L52 97 L51 96 L51 94 L50 93 L51 92 L54 92 L55 93 L67 93 L68 92 L69 92 L70 91 L71 91 L72 90 L73 90 L75 88 L75 87 L76 86 L76 85 L77 84 L77 79 L76 78 L76 75 L75 74 L75 72 L74 71 L74 69 L73 68 L73 67 L72 66 L72 65 L70 63 L70 62 L65 57 L64 57 L61 54 L61 53 L62 52 L64 52 L65 51 L66 51 L67 50 L68 50 L70 48 L70 47 L71 46 L71 44 L72 43 L72 41 L71 40 L71 39 L68 36 L68 35 L62 29 L63 28 L70 28 L71 27 L73 27 L74 26 L75 26 L75 25 L77 23 L77 22 L78 21 L78 18 L79 17 L79 15 L78 14 L78 9 L77 8 L77 7 L76 6 L76 5 L74 3 L74 2 L72 0 L18 0 L16 2 L15 1 L15 0 L15 2 L14 3 L13 3 L12 2 L12 0 Z " fill="black"/></svg>