<svg width="403" height="533" xmlns="http://www.w3.org/2000/svg"><path d="M93 11 L92 12 L92 13 L91 14 L91 17 L92 17 L95 20 L96 20 L98 22 L98 23 L100 25 L100 26 L101 27 L101 29 L102 30 L102 35 L103 36 L103 51 L104 52 L104 68 L103 69 L103 83 L104 84 L104 94 L105 95 L105 98 L106 99 L106 103 L107 104 L107 110 L108 111 L108 117 L107 118 L104 118 L103 117 L100 117 L99 116 L98 116 L97 115 L94 115 L93 114 L88 114 L87 113 L79 113 L78 112 L44 112 L43 113 L38 113 L37 114 L33 114 L32 115 L29 115 L28 116 L27 116 L26 117 L25 117 L24 118 L23 118 L20 121 L19 121 L15 125 L15 127 L16 128 L17 128 L18 129 L20 129 L21 128 L22 128 L25 125 L31 125 L32 126 L34 126 L35 127 L37 127 L38 128 L42 128 L43 129 L45 129 L46 130 L49 130 L50 131 L51 131 L52 132 L54 132 L56 134 L57 134 L58 135 L59 135 L60 136 L61 136 L63 138 L65 138 L67 140 L68 140 L70 142 L71 142 L73 144 L74 144 L76 146 L77 146 L82 151 L83 151 L88 156 L89 156 L93 160 L94 160 L97 163 L98 163 L101 166 L102 166 L104 168 L105 168 L107 170 L108 170 L111 173 L112 173 L115 176 L116 176 L120 180 L121 180 L122 181 L123 181 L124 182 L125 182 L126 183 L127 183 L128 184 L129 184 L131 186 L132 186 L135 189 L135 190 L134 191 L133 190 L130 190 L129 189 L128 189 L127 188 L126 188 L125 187 L124 187 L123 186 L122 186 L120 184 L119 184 L118 183 L114 183 L113 182 L108 182 L107 181 L104 181 L103 180 L99 180 L98 179 L95 179 L94 178 L82 178 L81 177 L73 177 L72 178 L67 178 L66 179 L62 179 L61 180 L59 180 L58 181 L56 181 L55 182 L54 182 L53 183 L52 183 L50 185 L49 185 L47 187 L46 187 L44 189 L43 189 L41 191 L40 191 L38 193 L37 193 L35 195 L34 195 L31 198 L30 198 L29 199 L28 199 L27 200 L26 200 L17 209 L16 209 L13 212 L13 213 L12 214 L12 215 L11 216 L11 219 L12 219 L13 220 L14 219 L15 219 L16 218 L17 218 L20 215 L21 215 L22 214 L23 214 L24 213 L32 213 L33 212 L35 212 L36 211 L37 211 L38 210 L40 210 L41 209 L44 209 L45 208 L58 208 L59 209 L67 209 L69 211 L70 211 L71 212 L72 212 L73 213 L73 214 L74 215 L75 215 L76 216 L77 216 L78 217 L83 217 L84 218 L85 218 L91 224 L93 224 L94 225 L97 225 L98 226 L100 226 L101 227 L102 227 L103 228 L104 228 L105 229 L106 229 L108 231 L110 231 L111 232 L112 232 L113 233 L114 233 L115 234 L116 234 L119 237 L120 237 L121 238 L122 238 L123 239 L124 239 L125 240 L126 240 L127 241 L128 241 L129 242 L130 242 L131 243 L132 243 L133 244 L134 244 L135 245 L136 245 L137 246 L138 246 L140 248 L141 248 L142 249 L143 249 L147 253 L148 253 L150 255 L150 256 L153 259 L153 260 L154 261 L154 262 L156 264 L156 265 L157 266 L157 267 L156 268 L152 264 L151 264 L149 262 L148 262 L147 261 L146 261 L145 260 L144 260 L143 259 L142 259 L141 258 L140 258 L139 257 L137 257 L136 256 L135 256 L134 255 L133 255 L132 254 L131 254 L130 253 L128 253 L127 252 L126 252 L125 251 L123 251 L122 250 L120 250 L119 249 L117 249 L116 248 L113 248 L112 247 L108 247 L107 246 L101 246 L100 245 L87 245 L86 246 L83 246 L82 247 L81 247 L80 248 L78 248 L76 250 L74 250 L70 254 L69 254 L67 256 L66 256 L64 258 L63 258 L61 260 L60 260 L55 265 L55 266 L51 270 L51 271 L49 273 L49 274 L47 276 L47 277 L46 278 L46 279 L45 280 L45 281 L44 282 L44 283 L42 285 L42 286 L41 287 L41 288 L40 289 L40 290 L39 291 L39 293 L38 294 L38 296 L37 297 L37 298 L36 299 L36 300 L35 301 L35 303 L34 304 L34 308 L33 309 L33 312 L32 313 L32 319 L31 320 L31 336 L32 337 L33 337 L34 336 L35 336 L36 335 L37 335 L38 334 L39 334 L41 332 L41 331 L42 330 L42 329 L46 325 L46 324 L50 320 L51 320 L53 318 L54 318 L55 317 L56 317 L57 316 L58 316 L59 315 L60 315 L61 314 L62 314 L63 313 L65 313 L66 312 L67 312 L68 311 L70 311 L71 310 L73 310 L74 309 L76 309 L77 308 L79 308 L80 307 L83 307 L84 306 L95 306 L96 305 L100 305 L101 304 L103 304 L104 303 L105 303 L106 302 L107 302 L108 301 L109 301 L110 300 L111 300 L112 299 L113 299 L114 298 L115 298 L116 297 L118 297 L119 296 L121 296 L122 295 L126 295 L127 296 L124 299 L124 300 L123 301 L123 302 L122 303 L122 305 L121 306 L121 310 L120 311 L120 312 L119 313 L119 314 L116 317 L115 317 L114 318 L113 318 L112 319 L110 319 L109 320 L108 320 L107 321 L106 321 L105 322 L104 322 L102 324 L101 324 L98 327 L97 327 L96 328 L96 329 L92 333 L92 334 L89 337 L89 338 L88 339 L88 340 L87 341 L87 349 L88 350 L88 353 L89 354 L89 361 L90 362 L90 366 L91 367 L91 370 L92 371 L92 373 L93 374 L93 377 L94 378 L94 384 L95 385 L95 388 L96 389 L96 392 L97 393 L97 398 L98 399 L98 412 L99 413 L99 414 L100 415 L100 416 L101 417 L101 419 L102 420 L102 424 L103 425 L103 430 L104 431 L104 436 L105 437 L105 439 L106 440 L106 443 L107 444 L107 448 L108 449 L108 454 L109 455 L109 459 L110 460 L110 462 L111 463 L111 466 L112 467 L112 469 L113 470 L113 472 L114 473 L114 476 L115 477 L115 480 L116 481 L116 485 L117 486 L117 490 L118 491 L118 492 L119 493 L119 494 L120 495 L120 496 L124 500 L124 501 L125 502 L126 502 L127 503 L128 503 L130 505 L131 505 L132 506 L133 506 L134 507 L135 507 L136 508 L137 508 L138 509 L139 509 L140 510 L141 510 L142 511 L143 511 L144 512 L145 512 L146 513 L148 513 L149 514 L152 514 L153 515 L157 515 L158 516 L161 516 L162 517 L166 517 L167 518 L169 518 L170 519 L173 519 L174 520 L194 520 L195 521 L207 521 L208 520 L209 520 L210 521 L212 521 L213 520 L214 520 L215 521 L222 521 L223 520 L229 520 L230 519 L234 519 L235 518 L240 518 L241 517 L245 517 L246 516 L249 516 L250 515 L252 515 L253 514 L254 514 L255 513 L257 513 L258 512 L261 512 L262 511 L264 511 L266 509 L267 509 L270 506 L271 506 L272 505 L273 505 L274 504 L275 504 L280 499 L280 498 L282 496 L282 490 L283 489 L283 485 L284 484 L284 482 L285 481 L285 477 L286 476 L286 474 L287 473 L287 471 L288 470 L288 468 L289 467 L289 463 L290 462 L290 459 L291 458 L291 453 L292 452 L292 450 L293 449 L293 437 L294 436 L294 433 L295 432 L295 430 L296 429 L296 426 L297 425 L297 420 L298 419 L298 417 L299 416 L299 409 L300 408 L300 398 L301 397 L301 394 L302 393 L302 386 L303 385 L303 378 L304 377 L304 375 L305 374 L305 372 L306 371 L306 368 L307 367 L307 360 L308 359 L308 348 L309 347 L309 338 L307 336 L307 335 L305 333 L305 332 L300 327 L299 327 L298 326 L297 326 L294 323 L293 323 L291 321 L290 321 L288 319 L287 319 L286 318 L284 318 L283 317 L282 317 L281 316 L279 316 L277 314 L277 313 L276 312 L276 311 L275 310 L275 307 L274 306 L274 305 L273 304 L273 303 L272 302 L272 301 L271 300 L272 299 L273 299 L274 300 L276 300 L277 301 L278 301 L279 302 L281 302 L282 303 L284 303 L285 304 L287 304 L288 305 L305 305 L306 304 L308 304 L309 305 L313 305 L314 306 L315 306 L316 307 L318 307 L319 308 L322 308 L323 309 L328 309 L329 310 L331 310 L332 309 L333 310 L335 310 L336 311 L338 311 L339 312 L341 312 L342 313 L344 313 L345 314 L348 314 L350 316 L351 316 L355 320 L355 321 L357 323 L358 323 L359 324 L360 324 L361 325 L362 325 L363 324 L363 323 L364 322 L364 316 L363 315 L363 313 L362 312 L362 310 L361 309 L361 306 L360 305 L360 303 L359 302 L359 300 L358 299 L358 298 L356 296 L356 295 L355 294 L355 293 L354 292 L354 290 L353 289 L353 288 L352 287 L352 286 L351 285 L351 284 L350 283 L350 282 L348 280 L348 279 L345 276 L345 275 L342 272 L342 271 L338 267 L338 266 L335 263 L335 262 L328 255 L327 255 L322 250 L322 249 L324 247 L325 247 L328 244 L329 244 L332 241 L333 241 L336 238 L337 238 L340 235 L341 235 L342 234 L343 234 L345 232 L346 232 L347 231 L348 231 L349 230 L350 230 L351 229 L352 229 L354 227 L355 227 L357 225 L358 225 L359 224 L357 222 L356 222 L355 221 L354 221 L353 220 L351 220 L350 219 L349 219 L348 218 L345 218 L344 217 L342 217 L341 216 L338 216 L337 215 L333 215 L332 214 L309 214 L308 215 L304 215 L303 216 L299 216 L298 217 L295 217 L294 218 L292 218 L291 219 L290 219 L289 220 L288 220 L287 221 L285 221 L283 223 L281 223 L280 224 L279 224 L277 226 L276 226 L275 227 L274 227 L272 229 L271 229 L269 231 L268 231 L265 234 L264 234 L263 235 L263 236 L257 242 L257 243 L254 246 L254 247 L247 254 L246 254 L245 255 L243 255 L242 254 L243 253 L243 252 L244 251 L244 250 L245 249 L245 248 L246 247 L246 245 L247 244 L247 242 L248 241 L248 237 L249 236 L249 229 L253 225 L254 225 L255 224 L256 224 L257 223 L258 223 L259 222 L260 222 L261 221 L262 221 L263 220 L264 220 L265 219 L266 219 L267 218 L269 218 L270 217 L271 217 L273 215 L274 215 L275 214 L276 214 L278 212 L279 212 L280 211 L281 211 L282 210 L283 210 L284 209 L285 209 L286 208 L287 208 L289 206 L290 206 L291 205 L292 205 L293 204 L294 204 L295 203 L296 203 L298 201 L299 201 L300 200 L301 200 L303 198 L304 198 L305 197 L306 197 L308 195 L309 195 L310 194 L311 194 L313 192 L314 192 L315 191 L316 191 L318 189 L319 189 L320 188 L321 188 L322 187 L323 187 L324 186 L325 186 L326 185 L327 185 L328 184 L329 184 L330 183 L331 183 L332 182 L334 182 L335 181 L337 181 L338 180 L339 180 L340 179 L341 179 L342 178 L344 178 L345 177 L347 177 L348 176 L350 176 L351 175 L354 175 L355 174 L357 174 L358 173 L362 173 L363 172 L374 172 L375 173 L378 173 L379 174 L381 174 L382 175 L383 175 L386 178 L390 178 L391 177 L391 173 L389 171 L389 170 L380 161 L379 161 L377 159 L376 159 L375 158 L374 158 L373 157 L371 157 L370 156 L368 156 L367 155 L366 155 L365 154 L362 154 L361 153 L359 153 L358 152 L357 152 L355 150 L354 150 L353 149 L352 149 L351 148 L349 148 L348 147 L346 147 L345 146 L341 146 L340 145 L336 145 L335 144 L330 144 L329 143 L318 143 L317 142 L314 142 L313 143 L309 143 L308 144 L304 144 L303 145 L301 145 L300 146 L298 146 L297 147 L296 147 L295 146 L295 145 L297 143 L297 142 L300 139 L300 138 L303 135 L303 134 L304 133 L304 132 L305 131 L305 130 L306 129 L306 128 L307 127 L307 126 L308 125 L308 124 L309 123 L309 121 L310 120 L310 119 L311 118 L311 117 L312 116 L312 114 L313 113 L313 111 L314 110 L314 108 L315 107 L315 104 L316 103 L316 100 L317 99 L317 92 L318 91 L318 79 L319 78 L319 72 L320 71 L320 64 L321 63 L321 60 L322 59 L322 56 L323 55 L323 54 L324 53 L324 52 L327 49 L327 48 L329 46 L329 45 L331 43 L331 42 L332 41 L332 40 L333 39 L333 38 L334 37 L335 37 L337 35 L337 34 L333 34 L332 33 L321 33 L320 34 L316 34 L315 35 L312 35 L311 36 L308 36 L307 37 L305 37 L304 38 L302 38 L301 39 L299 39 L298 40 L296 40 L295 41 L294 41 L293 42 L291 42 L290 43 L287 43 L286 44 L283 44 L282 45 L279 45 L278 46 L276 46 L275 47 L274 47 L272 49 L271 49 L270 50 L269 50 L268 51 L267 51 L266 52 L265 52 L263 54 L262 54 L261 55 L260 55 L258 57 L257 57 L255 59 L254 59 L252 61 L251 61 L246 66 L245 66 L235 76 L235 77 L231 81 L231 82 L229 84 L229 85 L227 87 L227 88 L226 89 L226 90 L224 92 L224 93 L222 95 L222 96 L221 97 L221 99 L220 100 L220 102 L219 103 L219 104 L218 105 L218 107 L216 109 L216 110 L215 111 L213 111 L211 109 L211 108 L209 106 L209 105 L207 103 L207 102 L206 101 L206 100 L205 99 L205 98 L203 96 L203 95 L201 93 L201 92 L200 91 L200 90 L198 88 L198 87 L192 81 L192 80 L191 79 L191 78 L186 73 L186 72 L183 69 L183 68 L181 66 L181 65 L180 64 L180 63 L174 57 L173 57 L165 49 L164 49 L160 45 L159 45 L157 43 L156 43 L153 40 L152 40 L151 39 L150 39 L149 38 L148 38 L147 37 L146 37 L145 36 L144 36 L142 34 L141 34 L140 33 L139 33 L138 32 L137 32 L136 31 L135 31 L134 30 L133 30 L131 28 L130 28 L129 27 L128 27 L127 26 L126 26 L124 24 L122 24 L121 23 L120 23 L119 22 L118 22 L117 21 L115 21 L114 20 L112 20 L111 19 L109 19 L107 17 L105 17 L103 15 L101 15 L100 14 L99 14 L98 13 L97 13 L96 12 L94 12 Z " fill="black"/></svg>