<svg width="778" height="1295" xmlns="http://www.w3.org/2000/svg"><path d="M298 865 L297 866 L297 869 L299 871 L302 871 L303 870 L305 870 L306 871 L307 871 L308 870 L309 870 L309 869 L308 868 L307 868 L304 865 Z M316 447 L316 449 Z M390 11 L388 13 L388 17 L387 18 L387 19 L384 22 L373 22 L372 21 L370 21 L369 20 L363 20 L362 21 L360 21 L359 22 L358 22 L357 21 L356 21 L355 20 L352 20 L352 21 L351 22 L351 23 L350 24 L350 25 L349 26 L347 26 L345 24 L343 24 L341 26 L340 26 L338 24 L338 23 L337 22 L337 21 L336 20 L336 19 L335 18 L335 15 L334 14 L334 13 L333 13 L332 12 L331 12 L329 14 L329 20 L330 21 L331 20 L333 22 L333 23 L334 24 L334 25 L335 26 L335 27 L336 28 L336 29 L334 31 L333 31 L330 34 L330 35 L329 36 L328 36 L327 37 L326 36 L325 36 L324 35 L322 37 L322 39 L324 41 L324 42 L327 45 L327 49 L326 50 L324 50 L323 49 L322 49 L321 48 L320 49 L320 52 L323 55 L323 56 L324 57 L324 60 L323 61 L320 61 L317 58 L314 58 L313 59 L313 62 L314 63 L314 64 L316 66 L317 66 L318 67 L320 67 L321 68 L321 71 L320 72 L320 74 L321 75 L321 76 L322 77 L322 80 L323 81 L323 83 L324 84 L324 89 L323 90 L323 91 L321 93 L315 93 L313 95 L315 97 L318 97 L321 100 L321 109 L320 110 L319 110 L318 111 L317 111 L315 113 L315 115 L316 116 L316 117 L317 118 L319 118 L320 117 L321 117 L322 118 L322 122 L321 123 L321 124 L316 129 L315 129 L313 131 L313 134 L314 134 L315 135 L319 135 L320 134 L321 134 L322 135 L322 139 L324 141 L324 142 L325 143 L325 144 L323 146 L322 146 L321 147 L321 153 L319 155 L319 159 L321 161 L321 162 L319 164 L319 165 L318 166 L318 168 L319 169 L319 170 L323 174 L323 176 L324 177 L324 178 L323 179 L322 179 L320 177 L319 177 L318 176 L317 176 L316 175 L315 175 L314 174 L312 174 L311 173 L307 173 L306 172 L293 172 L292 173 L287 173 L286 174 L280 174 L278 176 L278 178 L277 179 L276 179 L274 181 L273 181 L270 184 L269 184 L266 187 L265 187 L259 193 L259 194 L251 202 L250 202 L249 201 L249 200 L248 199 L248 197 L249 196 L249 194 L250 193 L250 186 L249 185 L249 178 L250 177 L250 169 L249 168 L249 166 L248 165 L248 164 L247 163 L247 162 L246 161 L246 160 L245 159 L245 158 L244 157 L244 155 L243 154 L243 152 L241 150 L241 149 L237 145 L236 145 L233 142 L232 142 L231 141 L230 141 L229 140 L227 140 L226 139 L223 139 L222 138 L221 138 L220 137 L218 137 L217 136 L215 136 L214 135 L210 135 L209 134 L194 134 L193 135 L189 135 L188 136 L185 136 L184 137 L181 137 L180 138 L176 138 L175 139 L173 139 L172 140 L170 140 L169 141 L168 141 L167 142 L165 142 L164 143 L163 143 L162 144 L161 144 L160 145 L158 145 L157 146 L155 146 L153 148 L152 148 L150 150 L149 150 L146 153 L143 153 L142 154 L140 154 L139 155 L139 156 L138 157 L138 158 L134 162 L132 162 L130 164 L130 165 L129 166 L129 167 L128 168 L128 171 L127 172 L128 173 L128 174 L129 174 L130 175 L129 176 L122 176 L121 177 L114 177 L113 178 L111 178 L110 179 L109 179 L108 180 L107 180 L103 184 L102 184 L99 187 L98 187 L97 188 L96 188 L94 190 L94 191 L90 195 L90 196 L87 199 L87 200 L85 202 L85 203 L83 205 L83 206 L81 208 L81 209 L79 211 L79 212 L78 213 L78 214 L76 216 L76 217 L75 218 L75 219 L74 220 L74 221 L73 222 L73 224 L72 225 L72 227 L71 228 L71 230 L70 231 L70 233 L69 234 L69 238 L68 239 L68 242 L69 243 L71 243 L73 241 L73 240 L77 236 L78 236 L80 234 L81 234 L83 232 L84 232 L85 231 L86 231 L88 229 L89 229 L91 227 L92 227 L93 226 L94 226 L95 225 L96 225 L97 226 L98 226 L99 225 L100 225 L102 223 L103 223 L104 222 L106 222 L107 221 L108 221 L109 220 L111 220 L112 219 L116 219 L117 218 L150 218 L151 219 L155 219 L156 220 L158 220 L159 221 L160 221 L161 222 L163 222 L164 223 L165 223 L166 224 L167 224 L168 225 L169 225 L171 227 L171 231 L170 232 L169 232 L168 233 L163 233 L162 234 L153 234 L152 235 L117 235 L116 236 L108 236 L107 237 L102 237 L101 238 L98 238 L97 239 L95 239 L94 240 L92 240 L91 241 L89 241 L88 242 L86 242 L85 243 L83 243 L82 244 L80 244 L79 245 L76 245 L75 246 L74 246 L73 247 L72 247 L70 249 L69 249 L66 252 L65 252 L61 256 L60 256 L58 258 L58 260 L56 262 L56 263 L54 265 L54 266 L52 268 L52 270 L51 271 L51 272 L50 273 L50 277 L49 278 L49 281 L48 282 L48 286 L47 287 L47 292 L46 293 L46 305 L47 306 L47 313 L46 314 L46 323 L49 323 L50 322 L50 321 L55 316 L55 315 L59 311 L59 310 L65 304 L65 303 L71 297 L72 297 L75 294 L76 294 L79 291 L80 291 L82 289 L83 289 L85 287 L86 287 L88 285 L89 285 L90 284 L91 284 L92 283 L93 283 L94 282 L95 282 L96 281 L97 281 L98 280 L99 280 L100 279 L102 279 L103 278 L105 278 L106 277 L110 277 L111 276 L116 276 L117 275 L128 275 L129 276 L129 279 L128 280 L128 282 L127 283 L127 284 L122 289 L121 289 L120 290 L119 290 L118 291 L117 291 L116 292 L114 292 L113 293 L112 293 L111 294 L109 294 L108 295 L107 295 L106 296 L105 296 L103 298 L102 298 L101 299 L100 299 L99 300 L98 300 L97 301 L96 301 L94 303 L93 303 L92 304 L91 304 L90 305 L89 305 L88 306 L87 306 L86 307 L85 307 L82 310 L81 310 L78 313 L77 313 L74 316 L73 316 L70 319 L69 319 L64 324 L64 325 L61 328 L61 329 L60 330 L60 331 L59 332 L59 333 L58 334 L58 336 L57 337 L57 348 L58 349 L58 353 L59 354 L59 356 L60 357 L60 362 L61 363 L61 365 L62 366 L62 368 L63 369 L63 370 L64 371 L64 372 L65 373 L65 375 L66 376 L66 378 L67 379 L67 381 L68 382 L68 385 L69 386 L69 389 L70 390 L70 395 L71 396 L71 402 L72 403 L72 406 L75 409 L77 409 L77 408 L82 403 L82 402 L85 399 L86 399 L88 397 L89 397 L90 396 L91 396 L92 395 L93 395 L94 394 L95 394 L96 393 L97 393 L98 392 L100 392 L101 391 L102 391 L103 390 L104 390 L105 389 L107 389 L108 388 L109 388 L110 387 L114 387 L115 386 L118 386 L119 385 L124 385 L125 384 L134 384 L135 383 L139 383 L140 382 L148 382 L149 381 L155 381 L156 380 L160 380 L161 379 L163 379 L166 376 L167 376 L172 371 L173 371 L174 370 L174 367 L175 366 L175 365 L176 364 L176 358 L177 357 L177 353 L178 352 L178 343 L179 342 L179 333 L180 332 L180 314 L179 313 L179 300 L180 299 L180 293 L181 292 L181 290 L182 289 L182 288 L188 282 L189 282 L190 281 L192 281 L193 282 L194 282 L196 284 L196 285 L197 286 L197 287 L198 288 L198 291 L199 292 L199 304 L200 305 L200 309 L199 310 L199 323 L198 324 L198 331 L197 332 L197 336 L196 337 L196 340 L195 341 L195 342 L194 343 L194 345 L193 346 L193 349 L192 350 L192 351 L191 352 L191 354 L190 355 L190 357 L189 358 L189 359 L188 360 L188 361 L187 362 L187 363 L186 364 L186 365 L185 366 L185 367 L184 368 L184 369 L183 370 L183 371 L181 373 L181 374 L182 375 L182 376 L184 378 L186 378 L187 377 L189 377 L190 376 L193 376 L194 375 L196 375 L197 374 L199 374 L200 373 L203 373 L204 372 L205 372 L206 371 L208 371 L209 370 L211 370 L212 369 L213 369 L214 368 L215 368 L216 367 L217 367 L218 366 L220 366 L221 365 L222 365 L223 364 L224 364 L225 363 L227 363 L228 362 L229 362 L230 361 L231 361 L232 360 L234 360 L235 359 L236 359 L237 358 L239 358 L240 357 L241 357 L242 356 L243 356 L245 354 L246 354 L250 350 L250 349 L251 348 L251 347 L252 346 L252 345 L253 344 L253 342 L254 341 L254 330 L255 329 L255 315 L254 314 L254 309 L253 308 L253 304 L252 303 L252 300 L251 299 L251 297 L250 296 L250 294 L249 293 L249 290 L248 289 L248 286 L247 285 L247 282 L246 281 L246 279 L244 277 L244 276 L243 275 L243 274 L241 272 L241 271 L240 270 L240 269 L239 268 L239 266 L238 265 L238 264 L237 263 L237 260 L236 259 L236 256 L235 255 L235 246 L236 245 L241 245 L242 246 L243 246 L246 249 L247 249 L248 250 L248 251 L253 256 L253 257 L255 259 L255 260 L256 261 L256 262 L257 263 L257 264 L258 265 L258 267 L259 268 L259 270 L260 271 L260 273 L261 274 L261 276 L262 277 L262 279 L263 280 L263 283 L264 284 L264 286 L265 287 L265 291 L266 292 L266 325 L264 327 L264 328 L261 331 L261 332 L260 333 L261 334 L264 334 L266 336 L266 337 L265 338 L265 340 L269 340 L280 329 L281 329 L283 327 L284 327 L286 325 L287 325 L289 323 L291 325 L291 328 L292 329 L292 332 L293 333 L293 335 L294 336 L294 338 L295 339 L295 343 L296 344 L296 347 L297 348 L297 350 L298 351 L298 355 L299 356 L299 359 L300 360 L300 363 L301 364 L301 369 L302 370 L302 372 L303 373 L303 376 L304 377 L304 380 L305 381 L305 384 L306 385 L306 388 L307 389 L307 393 L308 394 L308 397 L309 398 L309 400 L310 401 L310 404 L311 405 L311 408 L312 409 L312 412 L313 413 L313 415 L314 416 L314 420 L315 421 L315 425 L316 426 L316 431 L317 432 L317 440 L318 441 L318 442 L317 443 L317 444 L318 444 L319 445 L319 446 L320 447 L320 449 L321 450 L321 453 L322 454 L320 456 L319 456 L317 458 L315 456 L314 456 L314 457 L315 458 L315 459 L319 463 L319 464 L320 465 L320 467 L319 468 L317 468 L317 469 L316 470 L316 472 L317 473 L317 474 L318 475 L317 476 L314 476 L314 479 L316 481 L316 483 L317 484 L316 485 L316 487 L317 488 L317 489 L318 489 L319 490 L319 495 L318 496 L316 496 L315 495 L312 495 L311 496 L312 497 L312 498 L316 502 L318 502 L320 504 L320 509 L321 510 L321 513 L322 514 L322 520 L323 521 L323 527 L318 532 L318 533 L316 535 L316 536 L315 537 L315 538 L314 539 L315 540 L315 541 L318 541 L319 540 L320 540 L321 541 L321 542 L318 545 L318 546 L317 547 L317 552 L318 552 L319 553 L320 552 L321 552 L321 551 L322 550 L322 549 L323 548 L324 548 L326 546 L327 547 L327 548 L324 551 L324 552 L322 554 L322 555 L321 556 L321 557 L319 559 L319 560 L318 561 L318 563 L317 564 L317 572 L318 573 L318 574 L320 576 L322 576 L323 577 L325 577 L326 578 L325 579 L325 583 L323 585 L319 581 L318 581 L317 582 L317 585 L318 586 L318 588 L319 589 L320 589 L321 590 L322 590 L324 592 L324 595 L322 597 L320 597 L320 598 L317 601 L317 604 L319 604 L320 603 L321 603 L322 602 L323 603 L323 605 L322 606 L322 613 L323 614 L323 626 L322 627 L321 627 L320 628 L320 631 L321 632 L321 634 L322 635 L322 637 L323 638 L323 640 L324 641 L324 644 L323 645 L322 645 L320 647 L318 647 L317 646 L317 645 L316 644 L316 643 L314 641 L314 640 L312 638 L312 637 L311 636 L311 635 L310 634 L310 633 L309 632 L309 631 L308 630 L308 629 L307 628 L307 627 L306 626 L306 625 L305 624 L305 623 L304 622 L304 621 L303 620 L303 619 L302 618 L302 617 L300 615 L300 614 L297 611 L297 610 L295 608 L295 607 L294 606 L294 605 L292 603 L292 602 L291 601 L291 600 L290 599 L290 598 L288 596 L288 595 L286 593 L286 592 L284 590 L284 589 L282 587 L282 586 L280 584 L280 583 L279 582 L279 581 L277 579 L277 578 L275 576 L275 575 L273 573 L273 572 L272 571 L272 570 L270 568 L270 567 L268 565 L268 564 L266 562 L266 561 L264 559 L264 558 L263 557 L263 556 L262 555 L262 553 L263 552 L263 549 L264 548 L264 546 L265 545 L265 544 L266 543 L266 541 L267 540 L267 537 L268 536 L268 534 L269 533 L269 530 L270 529 L270 526 L271 525 L271 521 L272 520 L272 510 L273 509 L273 507 L272 506 L272 499 L271 498 L271 495 L270 494 L270 493 L269 492 L269 490 L268 489 L268 488 L267 487 L267 486 L266 485 L266 483 L265 482 L265 481 L264 480 L264 479 L263 478 L263 476 L262 475 L262 474 L259 471 L259 470 L250 461 L249 461 L247 459 L246 459 L244 457 L243 457 L242 456 L240 456 L239 455 L237 455 L236 454 L223 454 L222 455 L220 455 L219 456 L217 456 L216 457 L214 457 L213 458 L211 458 L210 459 L209 459 L208 460 L207 460 L206 461 L205 461 L203 463 L202 463 L201 464 L200 464 L198 466 L197 466 L195 468 L194 468 L191 471 L190 471 L186 475 L186 476 L184 478 L183 478 L182 477 L182 474 L183 473 L183 467 L184 466 L184 449 L183 448 L183 445 L182 444 L182 443 L181 442 L181 441 L180 440 L180 439 L175 434 L174 434 L171 431 L170 431 L168 429 L167 429 L165 427 L164 427 L162 425 L160 425 L159 424 L157 424 L156 423 L153 423 L152 422 L145 422 L144 421 L134 421 L133 422 L128 422 L127 423 L123 423 L122 424 L118 424 L117 425 L114 425 L113 426 L111 426 L110 427 L108 427 L107 428 L106 428 L105 429 L104 429 L103 430 L102 430 L101 431 L100 431 L99 432 L98 432 L97 433 L96 433 L95 434 L94 434 L93 435 L92 435 L90 437 L89 437 L88 438 L87 438 L86 439 L85 439 L84 440 L83 440 L81 442 L80 442 L79 443 L78 443 L75 446 L74 446 L63 457 L63 458 L60 461 L60 462 L59 463 L59 464 L57 466 L57 467 L55 469 L55 470 L53 472 L53 475 L54 476 L58 476 L59 475 L61 475 L62 474 L64 474 L65 473 L68 473 L69 472 L74 472 L75 471 L79 471 L80 470 L91 470 L92 469 L103 469 L104 470 L107 470 L108 471 L111 471 L112 472 L113 472 L114 473 L115 473 L116 474 L117 474 L120 477 L120 480 L119 481 L117 481 L116 482 L98 482 L97 481 L60 481 L59 482 L54 482 L53 483 L49 483 L48 484 L41 484 L39 486 L38 486 L36 488 L36 489 L34 491 L34 492 L32 494 L32 495 L31 496 L31 497 L29 499 L29 500 L28 501 L28 502 L27 503 L27 504 L26 505 L26 506 L25 507 L25 509 L24 510 L24 511 L23 512 L23 514 L22 515 L22 516 L21 517 L21 520 L20 521 L20 523 L19 524 L19 526 L18 527 L18 530 L17 531 L17 534 L16 535 L16 540 L15 541 L15 550 L19 550 L32 537 L33 537 L34 536 L35 536 L37 534 L38 534 L39 533 L40 533 L41 532 L42 532 L43 531 L44 531 L45 530 L47 530 L48 529 L49 529 L50 528 L52 528 L53 527 L55 527 L56 526 L58 526 L59 525 L61 525 L62 524 L64 524 L65 523 L67 523 L68 522 L71 522 L72 521 L75 521 L76 520 L79 520 L80 519 L83 519 L84 518 L102 518 L103 519 L104 519 L106 521 L106 523 L100 529 L99 529 L98 530 L96 530 L95 531 L93 531 L92 532 L90 532 L89 533 L86 533 L85 534 L82 534 L81 535 L76 535 L75 536 L73 536 L72 537 L70 537 L68 539 L67 539 L66 540 L64 540 L63 541 L59 541 L58 542 L55 542 L54 543 L52 543 L51 544 L49 544 L48 545 L47 545 L46 546 L45 546 L44 547 L43 547 L42 548 L41 548 L40 549 L39 549 L38 550 L37 550 L36 551 L35 551 L34 552 L33 552 L32 553 L31 553 L29 555 L28 555 L25 558 L24 558 L20 562 L20 563 L16 567 L16 568 L14 570 L14 571 L13 572 L13 574 L12 575 L12 579 L11 580 L11 591 L12 592 L12 602 L13 603 L13 609 L14 610 L14 615 L15 616 L15 619 L16 620 L16 622 L17 623 L17 624 L18 625 L18 627 L19 628 L19 629 L20 630 L20 632 L21 633 L21 634 L22 635 L22 636 L23 637 L23 639 L24 640 L24 642 L25 643 L25 645 L26 646 L26 648 L27 649 L27 651 L28 652 L28 655 L29 656 L29 659 L30 660 L30 663 L31 664 L31 668 L32 669 L32 681 L33 682 L33 684 L34 685 L37 685 L50 672 L51 672 L54 669 L55 669 L56 668 L58 668 L59 667 L60 667 L61 666 L64 666 L65 665 L68 665 L69 664 L71 664 L72 663 L84 663 L85 662 L101 662 L102 661 L118 661 L119 660 L121 660 L122 659 L123 659 L125 657 L126 657 L126 656 L130 652 L130 651 L131 650 L131 649 L132 648 L132 646 L133 645 L133 644 L134 643 L134 641 L135 640 L135 637 L136 636 L136 630 L137 629 L137 619 L136 618 L136 603 L135 602 L135 596 L134 595 L134 591 L133 590 L133 587 L132 586 L132 568 L133 567 L133 566 L137 562 L138 562 L139 561 L145 561 L146 562 L147 562 L150 565 L150 566 L151 567 L151 568 L152 569 L152 571 L153 572 L153 575 L154 576 L154 582 L155 583 L155 601 L156 602 L156 604 L155 605 L155 611 L154 612 L154 617 L153 618 L153 623 L152 624 L152 625 L151 626 L151 628 L150 629 L150 631 L149 632 L149 633 L148 634 L148 636 L147 637 L147 638 L146 639 L146 641 L145 642 L145 643 L144 644 L144 646 L143 647 L143 649 L141 651 L141 652 L140 653 L140 654 L141 655 L145 655 L146 654 L149 654 L150 653 L151 653 L152 652 L153 652 L154 651 L155 651 L156 650 L157 650 L158 649 L160 649 L161 648 L162 648 L163 647 L164 647 L165 646 L166 646 L167 645 L169 645 L170 644 L171 644 L172 643 L173 643 L174 642 L175 642 L177 640 L178 640 L180 638 L181 638 L183 636 L184 636 L186 634 L187 634 L190 631 L191 631 L193 629 L194 629 L201 622 L201 621 L202 620 L202 619 L203 618 L203 617 L204 616 L204 615 L205 614 L205 612 L206 611 L206 608 L207 607 L207 601 L208 600 L208 588 L207 587 L207 583 L206 582 L206 579 L205 578 L205 577 L204 576 L204 574 L203 573 L203 572 L202 571 L202 570 L201 569 L201 568 L200 567 L200 566 L199 565 L199 564 L198 563 L198 562 L197 561 L197 560 L195 558 L195 557 L194 556 L194 555 L193 554 L193 553 L192 552 L192 551 L191 550 L191 549 L189 547 L189 546 L188 545 L188 544 L185 541 L185 540 L182 537 L182 536 L180 534 L180 533 L179 532 L179 527 L182 524 L186 524 L188 526 L189 526 L193 530 L193 531 L198 536 L198 537 L204 543 L204 544 L207 547 L207 548 L208 549 L208 550 L209 551 L209 552 L210 553 L210 555 L211 556 L211 557 L212 558 L212 560 L213 561 L213 563 L214 564 L214 566 L215 567 L215 568 L216 569 L216 573 L217 574 L217 590 L216 591 L216 597 L215 598 L215 605 L214 606 L214 609 L215 609 L216 610 L217 609 L218 609 L219 608 L220 608 L227 601 L228 601 L235 594 L235 593 L245 583 L245 582 L249 578 L249 577 L251 575 L251 574 L253 572 L255 572 L256 573 L256 574 L259 577 L259 578 L261 580 L261 581 L263 583 L263 584 L264 585 L264 586 L266 588 L266 589 L267 590 L267 591 L269 593 L269 594 L270 595 L270 596 L271 597 L271 598 L272 599 L272 600 L274 602 L274 603 L276 605 L276 606 L277 607 L277 608 L278 609 L278 610 L279 611 L279 612 L280 613 L280 614 L281 615 L281 616 L282 617 L282 618 L283 619 L283 620 L284 621 L284 622 L285 623 L285 625 L287 627 L287 628 L288 629 L288 630 L289 631 L289 632 L290 633 L290 634 L291 635 L291 636 L292 637 L292 638 L293 639 L293 640 L294 641 L294 642 L295 643 L295 644 L296 645 L296 646 L298 648 L298 649 L300 651 L300 652 L301 653 L301 654 L302 655 L302 657 L303 658 L303 659 L304 660 L304 661 L305 662 L305 664 L306 665 L306 666 L307 667 L307 669 L308 670 L308 671 L309 672 L309 673 L310 674 L310 675 L311 676 L311 677 L312 678 L312 680 L313 681 L313 682 L314 683 L314 684 L315 685 L315 687 L316 688 L316 689 L317 690 L317 691 L318 692 L318 694 L319 695 L319 696 L320 697 L320 699 L321 700 L321 703 L322 704 L322 706 L321 707 L321 709 L322 710 L322 711 L321 712 L321 714 L320 715 L320 717 L319 718 L318 717 L317 717 L316 716 L311 716 L311 718 L312 719 L313 719 L314 720 L316 720 L318 722 L316 724 L316 725 L315 726 L314 726 L310 730 L310 732 L311 733 L311 734 L314 737 L314 738 L315 739 L315 740 L317 742 L318 742 L320 744 L320 745 L321 746 L321 749 L322 750 L322 751 L321 752 L320 752 L318 754 L318 755 L319 756 L319 759 L321 761 L321 762 L322 762 L323 763 L323 765 L322 766 L322 767 L323 768 L323 774 L322 775 L322 780 L323 781 L323 786 L324 787 L322 789 L321 789 L321 795 L320 796 L321 797 L321 800 L324 803 L324 809 L322 811 L321 811 L320 810 L320 809 L317 806 L317 805 L316 804 L316 803 L315 802 L315 801 L312 798 L312 797 L308 793 L308 792 L304 788 L304 787 L302 785 L302 784 L299 781 L299 780 L296 777 L296 776 L291 771 L291 765 L292 764 L292 759 L293 758 L293 752 L294 751 L294 732 L293 731 L293 729 L292 728 L292 726 L291 725 L291 723 L290 722 L290 720 L289 719 L289 717 L288 716 L288 715 L287 714 L287 713 L286 712 L286 711 L284 709 L284 708 L282 706 L282 705 L274 697 L273 697 L272 696 L271 696 L270 695 L269 695 L268 694 L266 694 L265 693 L249 693 L248 694 L246 694 L245 695 L244 695 L243 696 L242 696 L241 697 L240 697 L239 698 L238 698 L237 699 L236 699 L235 700 L234 700 L233 701 L232 701 L229 704 L228 704 L223 709 L222 709 L221 708 L221 693 L220 692 L220 690 L219 689 L219 686 L218 685 L218 684 L217 683 L217 682 L216 681 L216 680 L209 673 L208 673 L207 672 L206 672 L205 671 L204 671 L203 670 L200 670 L199 669 L195 669 L194 668 L183 668 L182 669 L177 669 L176 670 L173 670 L172 671 L169 671 L168 672 L167 672 L166 673 L165 673 L164 674 L162 674 L161 675 L160 675 L159 676 L158 676 L157 677 L156 677 L155 678 L154 678 L153 679 L152 679 L151 680 L149 680 L148 681 L146 681 L145 682 L144 682 L142 684 L141 684 L140 685 L140 686 L137 689 L136 689 L135 690 L134 690 L119 705 L117 705 L117 706 L116 707 L117 708 L116 709 L116 710 L114 712 L114 713 L111 716 L111 717 L109 719 L109 720 L107 722 L107 723 L105 725 L105 726 L104 727 L104 728 L103 729 L103 730 L102 731 L102 732 L101 733 L101 734 L100 735 L100 736 L99 737 L99 738 L98 739 L98 741 L97 742 L97 744 L96 745 L96 746 L95 747 L95 749 L94 750 L94 754 L93 755 L93 757 L92 758 L92 760 L91 761 L91 764 L90 765 L90 768 L89 769 L89 775 L88 776 L88 782 L87 783 L87 812 L88 813 L88 822 L89 823 L89 827 L90 828 L90 831 L91 832 L91 834 L92 835 L92 837 L93 838 L93 840 L94 841 L94 843 L95 844 L95 847 L96 848 L96 853 L97 854 L97 855 L98 856 L98 857 L99 858 L99 863 L100 864 L100 868 L101 869 L101 871 L102 872 L102 875 L103 876 L103 877 L104 878 L104 881 L105 882 L105 884 L106 885 L106 887 L107 888 L107 891 L108 892 L108 894 L109 895 L109 898 L110 899 L110 901 L111 902 L111 905 L112 906 L112 908 L113 909 L116 909 L118 907 L118 906 L119 905 L119 903 L120 902 L120 901 L121 900 L121 899 L122 898 L122 897 L125 894 L125 893 L134 884 L135 884 L138 881 L139 881 L141 879 L142 879 L143 878 L144 878 L145 877 L146 877 L147 876 L148 876 L149 875 L150 875 L151 874 L152 874 L153 873 L154 873 L155 872 L157 872 L158 871 L159 871 L160 870 L161 870 L162 869 L165 869 L166 868 L169 868 L170 867 L171 867 L172 866 L174 866 L175 865 L177 865 L178 864 L179 864 L180 863 L182 863 L183 862 L185 862 L186 861 L188 861 L189 860 L191 860 L192 859 L194 859 L195 858 L196 858 L197 857 L199 857 L200 856 L201 856 L202 855 L204 855 L205 854 L206 854 L207 853 L209 853 L210 852 L212 852 L213 851 L214 851 L215 850 L216 850 L217 849 L218 849 L219 848 L220 848 L221 847 L222 847 L223 846 L224 846 L226 844 L227 844 L228 843 L229 843 L230 842 L231 842 L232 841 L233 841 L235 839 L236 839 L237 838 L238 838 L239 837 L240 837 L242 835 L243 835 L245 833 L246 833 L248 831 L249 831 L254 826 L255 826 L268 813 L268 812 L269 811 L270 811 L273 808 L273 807 L275 805 L275 804 L277 802 L277 801 L279 799 L279 798 L280 797 L280 796 L281 795 L281 794 L282 793 L282 792 L284 790 L285 790 L290 795 L290 796 L293 799 L293 800 L295 802 L295 803 L297 805 L297 806 L299 808 L299 809 L301 811 L301 812 L302 813 L302 814 L304 816 L304 817 L305 818 L305 819 L306 820 L306 821 L307 822 L307 823 L308 824 L308 825 L309 826 L309 827 L310 828 L310 829 L311 830 L311 831 L312 832 L312 834 L314 836 L314 837 L315 838 L315 839 L316 840 L316 841 L317 842 L317 844 L318 845 L318 847 L319 848 L319 854 L322 857 L322 858 L323 859 L323 860 L324 861 L324 862 L323 863 L322 863 L320 861 L319 861 L317 859 L317 858 L316 857 L315 857 L314 856 L313 856 L311 854 L310 854 L309 853 L306 853 L305 854 L305 857 L306 858 L307 858 L308 859 L308 860 L309 861 L309 862 L312 865 L312 866 L314 868 L314 870 L315 871 L315 872 L316 872 L319 875 L318 876 L302 876 L301 875 L301 874 L298 874 L296 876 L295 876 L294 877 L291 877 L290 878 L284 878 L283 879 L277 879 L276 880 L271 880 L270 881 L264 881 L263 882 L257 882 L256 883 L251 883 L250 884 L243 884 L242 885 L237 885 L236 886 L232 886 L231 887 L227 887 L226 888 L224 888 L223 889 L221 889 L220 890 L219 890 L218 891 L216 891 L215 892 L213 892 L212 893 L210 893 L209 894 L206 894 L205 895 L203 895 L201 897 L200 897 L199 898 L198 898 L192 904 L191 904 L190 905 L190 906 L189 907 L189 908 L187 910 L187 912 L186 913 L186 922 L187 923 L187 926 L188 927 L188 929 L189 930 L189 931 L191 933 L191 934 L193 936 L193 937 L194 938 L194 939 L196 941 L196 942 L197 943 L197 945 L198 946 L198 950 L197 951 L197 952 L196 953 L196 954 L193 957 L193 958 L189 962 L189 963 L187 965 L187 966 L186 967 L186 968 L184 970 L184 971 L183 972 L183 973 L182 974 L182 975 L180 977 L180 978 L179 979 L179 980 L178 981 L178 982 L177 983 L177 984 L176 985 L176 986 L175 987 L175 988 L174 989 L174 990 L173 991 L173 993 L172 994 L172 995 L171 996 L171 997 L170 998 L170 999 L169 1000 L169 1002 L168 1003 L168 1005 L167 1006 L167 1008 L166 1009 L166 1011 L165 1012 L165 1014 L164 1015 L164 1018 L163 1019 L163 1022 L162 1023 L162 1025 L161 1026 L161 1030 L160 1031 L160 1042 L159 1043 L159 1069 L160 1070 L160 1080 L161 1081 L161 1084 L162 1085 L162 1089 L163 1090 L163 1096 L164 1097 L164 1101 L165 1102 L165 1105 L166 1106 L166 1109 L167 1110 L167 1113 L168 1114 L168 1115 L169 1116 L169 1118 L170 1119 L170 1121 L171 1122 L171 1123 L172 1124 L172 1127 L173 1128 L173 1130 L174 1131 L174 1133 L175 1134 L175 1135 L176 1136 L176 1138 L177 1139 L177 1140 L178 1141 L178 1142 L179 1143 L179 1145 L180 1146 L180 1147 L181 1148 L181 1149 L182 1150 L182 1151 L183 1152 L183 1153 L184 1154 L184 1155 L185 1156 L185 1157 L186 1158 L186 1159 L187 1160 L187 1161 L188 1162 L188 1163 L189 1164 L189 1165 L191 1167 L191 1168 L192 1169 L192 1170 L193 1171 L193 1172 L195 1174 L195 1175 L196 1176 L196 1177 L198 1179 L198 1180 L200 1182 L200 1183 L202 1185 L202 1186 L204 1188 L204 1189 L207 1192 L207 1193 L210 1196 L210 1197 L213 1200 L213 1201 L220 1208 L220 1209 L235 1224 L235 1225 L241 1231 L241 1232 L244 1235 L244 1236 L245 1237 L245 1239 L246 1240 L246 1245 L247 1246 L247 1247 L248 1248 L248 1249 L249 1250 L249 1251 L257 1259 L258 1259 L260 1261 L261 1261 L262 1262 L263 1262 L264 1263 L265 1263 L266 1264 L267 1264 L268 1265 L269 1265 L270 1266 L271 1266 L272 1267 L274 1267 L275 1268 L277 1268 L278 1269 L280 1269 L281 1270 L283 1270 L284 1271 L286 1271 L287 1272 L290 1272 L291 1273 L295 1273 L296 1274 L300 1274 L301 1275 L305 1275 L306 1276 L311 1276 L312 1277 L316 1277 L317 1278 L322 1278 L323 1279 L330 1279 L331 1280 L339 1280 L340 1281 L348 1281 L349 1282 L363 1282 L364 1283 L386 1283 L387 1284 L393 1284 L394 1283 L412 1283 L413 1282 L424 1282 L425 1281 L433 1281 L434 1280 L446 1280 L447 1279 L456 1279 L457 1278 L462 1278 L463 1277 L467 1277 L468 1276 L472 1276 L473 1275 L476 1275 L477 1274 L479 1274 L480 1273 L483 1273 L484 1272 L487 1272 L488 1271 L490 1271 L491 1270 L493 1270 L494 1269 L497 1269 L498 1268 L499 1268 L500 1267 L502 1267 L503 1266 L504 1266 L505 1265 L506 1265 L507 1264 L508 1264 L509 1263 L510 1263 L512 1261 L513 1261 L515 1259 L516 1259 L520 1255 L520 1254 L522 1252 L522 1251 L523 1250 L523 1248 L524 1247 L524 1246 L526 1244 L526 1243 L525 1242 L525 1241 L526 1240 L526 1236 L534 1228 L534 1227 L552 1209 L552 1208 L557 1203 L557 1202 L561 1198 L561 1197 L563 1195 L563 1194 L565 1192 L565 1191 L567 1189 L567 1188 L568 1187 L568 1186 L570 1184 L570 1183 L572 1181 L572 1180 L573 1179 L573 1178 L574 1177 L574 1176 L575 1175 L575 1174 L576 1173 L576 1172 L578 1170 L578 1169 L579 1168 L579 1167 L580 1166 L580 1165 L581 1164 L581 1163 L582 1162 L582 1161 L583 1160 L583 1159 L584 1158 L584 1157 L585 1156 L585 1154 L586 1153 L586 1152 L587 1151 L587 1150 L588 1149 L588 1148 L589 1147 L589 1145 L590 1144 L590 1143 L591 1142 L591 1140 L592 1139 L592 1137 L593 1136 L593 1135 L594 1134 L594 1132 L595 1131 L595 1130 L596 1129 L596 1127 L597 1126 L597 1124 L598 1123 L598 1121 L599 1120 L599 1118 L600 1117 L600 1115 L601 1114 L601 1111 L602 1110 L602 1108 L603 1107 L603 1104 L604 1103 L604 1100 L605 1099 L605 1095 L606 1094 L606 1091 L607 1090 L607 1084 L608 1083 L608 1074 L609 1073 L609 1071 L608 1070 L608 1069 L609 1068 L609 1057 L610 1056 L610 1043 L609 1042 L609 1032 L608 1031 L608 1026 L607 1025 L607 1022 L606 1021 L606 1018 L605 1017 L605 1014 L604 1013 L604 1010 L603 1009 L603 1008 L602 1007 L602 1005 L601 1004 L601 1002 L600 1001 L600 1000 L599 999 L599 997 L598 996 L598 995 L597 994 L597 992 L596 991 L596 990 L595 989 L595 988 L594 987 L594 986 L593 985 L593 984 L591 982 L591 981 L590 980 L590 979 L589 978 L589 977 L588 976 L588 974 L587 973 L587 972 L585 970 L585 968 L583 966 L583 965 L582 964 L582 963 L579 960 L579 959 L574 954 L574 953 L573 952 L573 942 L574 941 L574 940 L575 939 L575 937 L578 934 L578 933 L579 932 L579 931 L581 929 L581 928 L583 926 L583 912 L582 911 L582 909 L581 908 L581 907 L580 906 L580 905 L578 903 L578 902 L574 898 L573 898 L572 897 L571 897 L570 896 L569 896 L568 895 L567 895 L566 894 L564 894 L563 893 L561 893 L560 892 L557 892 L556 891 L553 891 L552 890 L549 890 L548 889 L545 889 L544 888 L541 888 L540 887 L538 887 L537 886 L534 886 L533 885 L529 885 L528 884 L524 884 L523 883 L519 883 L518 882 L514 882 L513 881 L507 881 L506 880 L500 880 L499 879 L492 879 L491 878 L482 878 L481 877 L472 877 L471 876 L465 876 L463 874 L464 873 L464 872 L465 871 L465 869 L466 868 L466 867 L469 864 L469 863 L471 861 L471 860 L473 858 L473 857 L476 854 L476 853 L481 848 L481 847 L484 844 L484 843 L488 839 L488 838 L497 829 L497 828 L500 825 L501 825 L503 827 L503 828 L504 829 L504 830 L506 832 L506 833 L507 834 L507 835 L508 836 L508 837 L509 838 L509 840 L510 841 L510 844 L512 846 L513 846 L514 847 L516 845 L516 844 L519 841 L519 840 L520 839 L520 838 L521 837 L521 836 L522 835 L522 834 L523 833 L523 832 L524 831 L524 830 L528 826 L528 825 L532 821 L533 821 L534 822 L534 825 L535 826 L535 829 L536 830 L536 831 L537 832 L537 834 L538 835 L538 836 L540 838 L540 839 L541 840 L541 841 L542 842 L542 843 L544 845 L544 846 L546 848 L546 849 L549 852 L549 853 L557 861 L558 861 L562 865 L563 865 L566 868 L567 868 L569 870 L570 870 L573 873 L574 873 L576 875 L577 875 L578 876 L579 876 L580 877 L581 877 L582 878 L583 878 L584 879 L585 879 L586 880 L587 880 L588 881 L589 881 L590 882 L592 882 L593 883 L595 883 L596 884 L599 884 L600 885 L602 885 L603 886 L605 886 L606 887 L607 887 L608 888 L610 888 L611 889 L613 889 L614 890 L616 890 L617 891 L618 891 L619 892 L621 892 L622 893 L623 893 L624 894 L626 894 L627 895 L629 895 L630 896 L632 896 L634 898 L635 898 L636 899 L637 899 L640 902 L641 902 L643 904 L644 904 L651 911 L651 912 L653 914 L653 915 L655 917 L655 918 L656 919 L656 920 L657 921 L657 923 L658 924 L658 925 L659 926 L659 927 L660 928 L663 928 L664 927 L664 926 L665 925 L665 924 L666 923 L666 920 L667 919 L667 915 L668 914 L668 909 L669 908 L669 903 L670 902 L670 898 L671 897 L671 893 L672 892 L672 890 L673 889 L673 885 L674 884 L674 880 L675 879 L675 872 L676 871 L676 865 L677 864 L677 857 L678 856 L678 838 L677 837 L677 826 L676 825 L676 818 L675 817 L675 815 L674 814 L674 811 L673 810 L673 808 L672 807 L672 805 L671 804 L671 802 L670 801 L670 798 L669 797 L669 796 L668 795 L668 794 L667 793 L667 792 L666 791 L666 790 L664 788 L664 787 L663 786 L663 785 L662 784 L662 783 L661 782 L661 781 L659 779 L659 778 L657 776 L657 775 L650 768 L650 767 L632 749 L631 749 L629 747 L628 747 L627 746 L626 746 L624 744 L623 744 L622 743 L621 743 L620 742 L619 742 L618 741 L615 741 L614 740 L610 740 L609 739 L598 739 L597 740 L594 740 L593 741 L591 741 L590 742 L589 742 L588 743 L587 743 L586 744 L585 744 L583 746 L583 747 L582 748 L582 749 L581 750 L581 752 L580 753 L580 754 L579 755 L579 757 L578 758 L578 759 L577 760 L577 763 L576 764 L576 765 L575 766 L575 767 L574 768 L573 768 L572 767 L572 766 L571 765 L571 764 L572 763 L572 761 L573 760 L573 759 L574 758 L574 756 L575 755 L575 754 L576 753 L576 751 L577 750 L577 748 L578 747 L578 744 L579 743 L579 740 L580 739 L580 736 L581 735 L581 731 L582 730 L582 726 L583 725 L583 718 L584 717 L584 715 L585 714 L585 696 L584 695 L584 689 L583 688 L583 683 L582 682 L582 678 L581 677 L581 675 L580 674 L580 672 L579 671 L579 669 L578 668 L578 666 L577 665 L577 664 L576 663 L576 662 L575 661 L575 659 L574 658 L574 657 L573 656 L573 655 L572 654 L572 653 L571 652 L571 650 L569 648 L569 647 L568 646 L568 645 L567 644 L567 643 L566 642 L566 641 L564 639 L564 638 L563 637 L563 636 L560 633 L560 632 L557 629 L557 628 L548 619 L547 619 L543 615 L542 615 L539 612 L538 612 L537 611 L536 611 L534 609 L532 609 L531 608 L530 608 L529 607 L528 607 L527 606 L525 606 L524 605 L522 605 L521 604 L518 604 L517 603 L499 603 L498 604 L496 604 L495 605 L493 605 L492 606 L491 606 L489 608 L488 608 L485 611 L484 611 L484 612 L481 615 L481 616 L479 618 L479 619 L477 621 L477 622 L475 624 L475 625 L473 627 L473 628 L472 629 L472 630 L471 631 L471 632 L470 633 L470 634 L468 636 L467 636 L466 635 L466 634 L460 628 L460 627 L458 625 L458 623 L459 622 L459 621 L460 620 L460 619 L461 618 L461 617 L462 616 L462 614 L463 613 L463 612 L464 611 L464 610 L465 609 L465 608 L466 607 L466 606 L467 605 L467 604 L469 602 L469 601 L471 599 L471 598 L473 596 L473 595 L474 594 L474 593 L475 592 L475 591 L476 590 L476 589 L478 587 L478 586 L479 585 L479 584 L481 582 L481 581 L483 579 L483 578 L486 575 L486 574 L488 572 L488 571 L490 569 L490 568 L493 565 L493 564 L496 561 L497 561 L498 562 L498 563 L499 564 L499 565 L502 568 L502 569 L507 574 L507 575 L510 578 L510 579 L515 584 L515 585 L516 585 L523 592 L524 592 L526 594 L527 594 L530 597 L531 597 L534 600 L535 600 L539 604 L540 604 L542 606 L545 606 L546 605 L546 603 L545 602 L545 601 L544 600 L544 599 L543 598 L543 597 L542 596 L542 594 L541 593 L541 584 L540 583 L540 568 L541 567 L541 559 L542 558 L542 554 L543 553 L543 549 L544 548 L544 545 L545 544 L545 541 L546 540 L546 539 L547 538 L547 536 L548 535 L548 534 L549 533 L549 532 L550 531 L550 530 L551 529 L551 528 L552 527 L552 525 L554 523 L554 522 L561 515 L564 515 L567 518 L567 519 L568 520 L568 524 L567 525 L567 528 L566 529 L566 531 L565 532 L565 533 L564 534 L564 536 L563 537 L563 539 L562 540 L562 541 L561 542 L561 544 L560 545 L560 548 L559 549 L559 551 L558 552 L558 554 L557 555 L557 557 L556 558 L556 560 L555 561 L555 563 L554 564 L554 566 L553 567 L553 570 L552 571 L552 573 L551 574 L551 578 L550 579 L550 585 L549 586 L549 600 L550 601 L550 605 L551 606 L551 609 L552 610 L552 612 L553 613 L553 615 L554 616 L554 617 L555 618 L556 618 L559 621 L560 621 L562 623 L563 623 L564 624 L565 624 L567 626 L568 626 L569 627 L570 627 L571 628 L572 628 L573 629 L574 629 L575 630 L576 630 L577 631 L578 631 L579 632 L580 632 L581 633 L583 633 L584 634 L586 634 L587 635 L590 635 L591 636 L593 636 L594 637 L595 637 L596 638 L597 638 L598 639 L600 639 L601 640 L602 640 L604 642 L605 642 L606 643 L608 643 L609 644 L613 644 L614 645 L615 644 L616 644 L618 642 L618 640 L615 637 L615 636 L613 634 L613 633 L611 631 L611 630 L610 629 L610 628 L609 627 L609 626 L608 625 L608 624 L607 623 L607 622 L606 621 L606 620 L605 619 L605 618 L604 617 L604 615 L603 614 L603 610 L602 609 L602 606 L601 605 L601 604 L600 603 L600 600 L599 599 L599 595 L598 594 L598 588 L597 587 L597 575 L596 574 L596 559 L597 558 L597 552 L598 551 L598 548 L599 547 L599 546 L600 545 L600 544 L607 537 L611 537 L616 542 L616 543 L617 544 L617 555 L616 556 L616 569 L615 570 L615 577 L614 578 L614 600 L615 601 L614 602 L614 603 L615 604 L615 610 L616 611 L616 616 L617 617 L617 621 L618 622 L618 625 L619 626 L619 628 L620 629 L620 630 L621 631 L621 632 L624 635 L625 635 L632 642 L633 642 L636 645 L638 645 L639 646 L642 646 L643 647 L649 647 L650 648 L676 648 L677 647 L678 648 L682 648 L683 647 L685 647 L686 648 L690 648 L691 647 L693 647 L694 648 L719 648 L720 649 L725 649 L726 650 L729 650 L730 651 L732 651 L733 652 L734 652 L735 653 L736 653 L737 654 L738 654 L740 656 L741 656 L749 664 L749 665 L751 667 L753 667 L754 666 L754 665 L755 664 L755 662 L756 661 L756 654 L757 653 L757 646 L758 645 L758 639 L759 638 L759 627 L760 626 L760 618 L761 617 L761 611 L762 610 L762 603 L763 602 L763 597 L764 596 L764 592 L765 591 L765 585 L766 584 L766 573 L765 572 L765 565 L764 564 L764 557 L763 556 L763 553 L762 552 L762 551 L761 550 L761 548 L759 546 L759 545 L758 544 L758 543 L752 537 L751 537 L749 535 L748 535 L746 533 L745 533 L744 532 L743 532 L742 531 L741 531 L740 530 L739 530 L738 529 L737 529 L736 528 L735 528 L734 527 L732 527 L731 526 L730 526 L729 525 L727 525 L726 524 L725 524 L724 523 L721 523 L720 522 L718 522 L717 521 L714 521 L713 520 L708 520 L707 519 L698 519 L697 518 L686 518 L685 517 L676 517 L675 516 L670 516 L669 515 L664 515 L663 514 L660 514 L659 513 L658 513 L655 510 L655 509 L654 508 L654 507 L658 503 L659 503 L660 502 L663 502 L664 501 L675 501 L676 500 L679 500 L680 499 L690 499 L691 498 L694 498 L695 499 L704 499 L705 500 L707 500 L708 501 L710 501 L711 502 L712 502 L713 503 L714 503 L715 504 L716 504 L717 505 L718 505 L719 506 L720 506 L721 507 L722 507 L724 509 L725 509 L727 511 L728 511 L730 513 L731 513 L734 516 L735 516 L744 525 L745 525 L748 528 L751 528 L751 521 L750 520 L750 516 L749 515 L749 513 L748 512 L748 511 L747 510 L747 508 L746 507 L746 506 L745 505 L745 503 L744 502 L744 501 L743 500 L743 499 L742 498 L742 497 L740 495 L740 493 L739 492 L739 491 L738 490 L738 489 L735 486 L735 485 L732 482 L732 481 L729 478 L729 477 L726 474 L726 473 L719 466 L718 466 L715 463 L714 463 L713 462 L712 462 L711 461 L710 461 L709 460 L708 460 L707 459 L704 459 L703 458 L700 458 L699 457 L695 457 L694 456 L686 456 L685 457 L681 457 L680 458 L678 458 L677 459 L673 459 L672 460 L669 460 L668 461 L666 461 L665 462 L664 462 L663 463 L662 463 L661 464 L660 464 L659 465 L658 465 L657 466 L655 466 L654 467 L651 467 L650 468 L647 468 L646 469 L643 469 L642 470 L639 470 L638 471 L634 471 L633 472 L630 472 L629 473 L625 473 L624 474 L620 474 L618 472 L618 469 L624 463 L625 463 L627 461 L628 461 L630 459 L631 459 L632 458 L633 458 L634 457 L635 457 L636 456 L637 456 L638 455 L639 455 L640 454 L641 454 L642 453 L644 453 L645 452 L647 452 L648 451 L650 451 L651 450 L653 450 L654 449 L656 449 L657 448 L658 448 L659 447 L661 447 L662 446 L673 446 L674 447 L677 447 L678 448 L681 448 L682 449 L684 449 L685 450 L687 450 L688 451 L690 451 L691 452 L697 452 L698 451 L698 449 L697 448 L697 447 L695 445 L694 445 L690 441 L690 440 L686 436 L686 435 L685 434 L684 434 L682 432 L681 432 L680 431 L679 431 L678 430 L677 430 L675 428 L674 428 L669 423 L668 423 L666 421 L665 421 L664 420 L662 420 L661 419 L658 419 L657 418 L654 418 L653 417 L651 417 L650 416 L649 416 L648 415 L646 415 L645 414 L643 414 L642 413 L639 413 L638 412 L623 412 L622 411 L611 411 L610 412 L602 412 L601 413 L598 413 L597 414 L595 414 L594 415 L592 415 L591 416 L589 416 L588 417 L586 417 L585 418 L584 418 L583 419 L582 419 L581 420 L580 420 L578 422 L577 422 L575 424 L574 424 L566 432 L566 433 L564 435 L564 437 L563 438 L563 439 L562 440 L562 442 L561 443 L561 446 L560 447 L560 456 L559 457 L559 462 L560 463 L560 467 L561 468 L561 470 L562 471 L562 472 L563 473 L563 474 L564 475 L564 477 L563 478 L561 478 L560 477 L558 477 L557 476 L556 476 L555 475 L553 475 L552 474 L551 474 L547 470 L547 469 L545 467 L539 467 L538 466 L519 466 L518 467 L517 467 L516 466 L516 465 L517 464 L517 462 L518 461 L518 457 L519 456 L519 447 L520 446 L520 430 L519 429 L519 424 L518 423 L518 420 L517 419 L517 417 L516 416 L516 415 L515 414 L515 413 L514 412 L514 411 L513 410 L513 409 L512 408 L512 407 L510 405 L510 404 L509 403 L509 402 L505 398 L504 398 L502 396 L501 396 L500 395 L499 395 L498 394 L496 394 L495 393 L494 393 L493 392 L490 392 L489 391 L487 391 L486 390 L483 390 L482 389 L475 389 L474 390 L471 390 L470 391 L467 391 L466 392 L464 392 L463 393 L462 393 L461 394 L460 394 L459 395 L458 395 L457 396 L456 396 L455 397 L454 397 L452 399 L451 399 L448 402 L447 402 L446 403 L445 403 L444 402 L444 401 L443 400 L443 398 L442 397 L442 389 L443 388 L443 381 L444 380 L444 376 L445 375 L445 370 L446 369 L446 365 L447 364 L447 361 L448 360 L448 357 L449 356 L449 353 L450 352 L450 350 L451 349 L451 346 L452 345 L452 341 L453 340 L453 337 L454 336 L454 332 L455 331 L455 329 L456 328 L456 325 L457 324 L457 320 L458 319 L458 316 L459 315 L459 313 L460 312 L460 309 L461 308 L461 305 L462 304 L462 301 L463 300 L463 297 L464 296 L469 301 L469 302 L471 304 L471 305 L475 309 L477 309 L478 308 L478 306 L479 305 L479 304 L480 303 L480 302 L481 301 L481 297 L480 296 L480 293 L479 292 L479 289 L480 288 L480 285 L481 284 L481 283 L482 282 L482 279 L483 278 L483 270 L484 269 L484 266 L485 265 L485 263 L486 262 L486 259 L487 258 L487 256 L488 255 L488 253 L489 252 L489 250 L490 249 L490 248 L491 247 L491 246 L492 245 L492 244 L493 243 L493 242 L494 241 L494 240 L495 239 L495 238 L497 236 L497 235 L499 233 L499 232 L501 230 L501 229 L503 227 L503 226 L505 224 L505 223 L506 222 L506 221 L508 219 L508 218 L509 217 L509 216 L510 215 L510 214 L516 208 L517 208 L518 207 L520 207 L521 206 L524 206 L526 208 L526 215 L525 216 L525 218 L524 219 L524 221 L522 223 L522 224 L521 225 L521 226 L519 228 L519 229 L518 230 L518 231 L516 233 L516 234 L514 236 L514 237 L513 238 L513 239 L511 241 L511 243 L509 245 L509 247 L508 248 L508 249 L507 250 L507 251 L506 252 L506 254 L505 255 L505 256 L504 257 L504 259 L503 260 L503 261 L502 262 L502 264 L501 265 L501 267 L500 268 L500 269 L499 270 L499 272 L498 273 L498 275 L497 276 L497 278 L496 279 L496 281 L495 282 L495 285 L494 286 L494 287 L493 288 L493 292 L492 293 L492 304 L491 305 L491 310 L492 311 L492 318 L493 319 L493 323 L494 324 L494 325 L495 326 L495 327 L496 328 L496 329 L504 337 L505 337 L508 340 L509 340 L511 342 L512 342 L514 344 L515 344 L517 346 L518 346 L519 347 L520 347 L522 349 L523 349 L524 350 L525 350 L526 351 L527 351 L528 352 L529 352 L530 353 L532 353 L533 354 L534 354 L535 355 L536 355 L537 356 L538 356 L539 357 L541 357 L542 358 L543 358 L544 359 L545 359 L546 360 L547 360 L548 361 L549 361 L551 363 L552 363 L553 364 L554 364 L555 365 L556 365 L557 366 L558 366 L559 367 L560 367 L561 368 L563 368 L565 366 L565 365 L564 364 L564 362 L563 361 L563 360 L562 359 L562 358 L561 357 L561 356 L560 355 L560 353 L559 352 L559 350 L558 349 L558 347 L557 346 L557 343 L556 342 L556 341 L555 340 L555 339 L554 338 L554 337 L553 336 L553 335 L552 334 L552 331 L551 330 L551 324 L550 323 L550 301 L551 300 L551 297 L552 296 L552 293 L551 292 L552 291 L551 290 L551 289 L552 288 L552 282 L553 281 L553 278 L554 277 L554 273 L555 272 L555 269 L556 268 L556 265 L557 264 L557 262 L558 261 L558 259 L559 258 L559 257 L560 256 L560 255 L561 254 L561 252 L562 251 L562 248 L563 247 L564 247 L565 246 L568 246 L569 245 L570 245 L571 246 L573 246 L577 250 L577 253 L578 254 L578 270 L577 271 L577 277 L576 278 L576 282 L575 283 L575 286 L574 287 L574 289 L573 290 L573 293 L572 294 L572 296 L571 297 L571 301 L570 302 L570 306 L569 307 L569 311 L568 312 L568 324 L567 325 L567 329 L568 330 L568 344 L569 345 L569 347 L570 348 L570 350 L571 351 L571 353 L572 354 L572 355 L573 356 L573 357 L574 358 L574 359 L575 360 L575 361 L576 362 L576 363 L577 364 L577 365 L579 367 L579 368 L580 369 L581 369 L582 370 L583 370 L585 372 L587 372 L588 373 L590 373 L591 374 L593 374 L594 375 L596 375 L597 376 L600 376 L601 377 L606 377 L607 378 L617 378 L618 379 L625 379 L626 380 L634 380 L635 381 L637 381 L638 382 L640 382 L641 383 L644 383 L645 384 L647 384 L648 385 L649 385 L650 386 L652 386 L653 387 L655 387 L656 388 L657 388 L658 389 L659 389 L661 391 L662 391 L677 406 L680 406 L681 405 L681 404 L683 402 L683 401 L684 400 L684 399 L685 398 L685 396 L686 395 L686 392 L687 391 L687 390 L688 389 L688 388 L689 387 L689 386 L690 385 L690 384 L691 383 L691 382 L692 381 L692 380 L693 379 L693 378 L694 377 L694 376 L695 375 L695 374 L696 373 L696 372 L697 371 L697 370 L698 369 L698 368 L699 367 L699 366 L700 365 L700 364 L702 362 L702 361 L703 360 L703 359 L705 357 L705 356 L706 355 L706 354 L707 353 L707 352 L708 351 L708 350 L709 349 L709 348 L710 347 L710 346 L712 344 L712 342 L713 341 L713 340 L714 339 L714 337 L715 336 L715 333 L716 332 L716 330 L715 329 L715 324 L714 323 L714 322 L713 321 L713 319 L712 318 L712 317 L711 316 L711 315 L710 314 L710 313 L709 312 L709 311 L706 308 L706 307 L695 296 L694 296 L691 293 L690 293 L688 291 L687 291 L685 289 L684 289 L682 287 L681 287 L680 286 L679 286 L678 285 L677 285 L676 284 L675 284 L674 283 L673 283 L672 282 L671 282 L670 281 L669 281 L666 278 L665 278 L663 276 L662 276 L661 275 L659 275 L658 274 L657 274 L655 272 L654 272 L653 271 L652 271 L651 270 L650 270 L644 264 L644 263 L643 262 L643 259 L642 258 L642 257 L645 254 L656 254 L657 255 L660 255 L661 256 L663 256 L664 257 L666 257 L667 258 L668 258 L669 259 L670 259 L671 260 L672 260 L673 261 L674 261 L676 263 L677 263 L678 264 L679 264 L680 265 L681 265 L683 267 L684 267 L686 269 L687 269 L690 272 L691 272 L713 294 L713 295 L716 298 L716 299 L717 300 L717 301 L718 302 L718 304 L719 305 L719 306 L720 307 L720 309 L721 310 L721 312 L722 313 L722 314 L723 315 L725 315 L726 314 L727 314 L727 313 L728 312 L728 310 L729 309 L729 305 L730 304 L730 299 L731 298 L731 294 L732 293 L732 286 L733 285 L733 282 L734 281 L734 270 L733 269 L733 264 L734 263 L734 259 L733 258 L733 255 L732 254 L732 252 L731 251 L731 250 L730 249 L730 248 L729 247 L729 246 L727 244 L727 243 L726 242 L726 241 L719 234 L718 234 L716 232 L715 232 L714 231 L713 231 L712 230 L711 230 L710 229 L708 229 L707 228 L706 228 L705 227 L704 227 L702 225 L701 225 L700 224 L699 224 L698 223 L697 223 L695 221 L694 221 L693 220 L692 220 L691 219 L689 219 L688 218 L687 218 L686 217 L683 217 L682 216 L680 216 L679 215 L677 215 L676 214 L674 214 L673 213 L671 213 L670 212 L668 212 L667 211 L664 211 L663 210 L660 210 L659 209 L654 209 L653 208 L649 208 L648 207 L644 207 L643 206 L637 206 L636 205 L630 205 L629 204 L625 204 L624 203 L623 203 L622 202 L619 202 L618 201 L615 201 L614 200 L612 200 L611 199 L610 199 L609 198 L609 193 L610 192 L610 191 L613 188 L615 188 L616 187 L630 187 L631 186 L633 186 L634 187 L644 187 L645 188 L650 188 L651 189 L654 189 L655 190 L658 190 L659 191 L661 191 L662 192 L664 192 L665 193 L667 193 L668 194 L669 194 L670 195 L672 195 L673 196 L674 196 L675 197 L676 197 L677 198 L679 198 L680 199 L681 199 L682 200 L683 200 L685 202 L686 202 L687 203 L688 203 L689 204 L690 204 L691 205 L692 205 L693 206 L694 206 L696 208 L697 208 L699 210 L700 210 L701 211 L702 211 L704 213 L705 213 L708 216 L709 216 L719 226 L719 227 L723 231 L726 231 L727 230 L727 229 L728 228 L728 223 L727 222 L727 219 L726 218 L726 212 L725 211 L725 207 L724 206 L724 203 L723 202 L723 199 L722 198 L722 197 L721 196 L721 194 L720 193 L720 192 L719 191 L719 189 L718 188 L718 187 L717 186 L717 185 L716 184 L716 180 L715 179 L715 175 L714 174 L714 173 L713 172 L713 171 L710 168 L710 167 L706 163 L706 162 L705 161 L705 160 L704 159 L704 158 L701 155 L701 154 L695 148 L694 148 L692 146 L690 146 L689 145 L688 145 L687 144 L685 144 L684 143 L667 143 L666 142 L665 143 L651 143 L650 144 L641 144 L640 145 L633 145 L632 146 L626 146 L625 147 L621 147 L620 148 L616 148 L615 149 L610 149 L609 150 L591 150 L589 148 L589 144 L594 139 L595 139 L597 137 L598 137 L599 136 L600 136 L601 135 L602 135 L603 134 L604 134 L605 133 L607 133 L608 132 L609 132 L610 131 L613 131 L614 130 L623 130 L624 129 L636 129 L637 128 L639 128 L640 129 L645 129 L647 131 L648 131 L649 130 L658 130 L659 131 L663 131 L664 132 L666 132 L667 133 L670 133 L671 134 L672 134 L673 135 L674 135 L675 136 L679 136 L680 135 L681 135 L681 130 L680 129 L680 127 L679 126 L679 125 L678 124 L678 123 L676 121 L676 120 L675 119 L675 118 L673 116 L673 115 L669 111 L669 110 L657 98 L656 98 L652 94 L651 94 L648 91 L647 91 L645 89 L644 89 L643 88 L642 88 L641 87 L640 87 L639 86 L638 86 L634 82 L633 82 L632 81 L631 81 L630 80 L628 80 L627 79 L625 79 L624 78 L623 78 L622 77 L620 77 L619 76 L617 76 L616 75 L613 75 L612 74 L607 74 L606 73 L603 73 L602 72 L600 72 L599 71 L592 71 L591 70 L570 70 L569 71 L566 71 L565 72 L564 72 L563 73 L562 73 L561 74 L559 74 L558 75 L557 75 L556 76 L555 76 L554 77 L551 77 L550 78 L549 78 L548 79 L547 79 L546 80 L545 80 L539 86 L538 86 L535 89 L535 90 L532 93 L532 94 L531 95 L531 96 L530 97 L530 98 L529 99 L529 100 L528 101 L528 103 L527 104 L527 106 L526 107 L526 109 L525 110 L525 113 L524 114 L524 117 L523 118 L523 129 L524 130 L524 134 L525 135 L525 138 L526 139 L526 142 L527 143 L527 146 L524 149 L522 149 L517 144 L517 143 L515 141 L515 140 L514 139 L514 137 L513 136 L513 134 L512 133 L512 132 L511 131 L510 131 L498 119 L497 119 L496 118 L495 118 L494 117 L493 117 L492 116 L489 116 L488 115 L486 115 L485 114 L483 114 L482 113 L468 113 L467 114 L464 114 L463 115 L461 115 L460 116 L459 116 L457 118 L457 119 L455 121 L453 121 L452 122 L451 122 L450 123 L449 123 L447 125 L446 125 L445 126 L444 126 L440 130 L440 131 L435 136 L434 135 L434 131 L435 130 L435 118 L436 117 L436 113 L435 112 L435 103 L436 102 L436 101 L437 100 L437 97 L438 96 L438 92 L437 91 L437 90 L436 90 L435 89 L435 88 L434 87 L434 78 L435 77 L435 76 L436 75 L436 74 L442 68 L442 66 L441 65 L437 65 L435 63 L435 61 L436 60 L436 59 L439 56 L440 56 L441 55 L441 54 L442 53 L441 52 L439 52 L437 54 L436 54 L435 55 L434 55 L433 54 L433 49 L432 48 L432 46 L436 42 L436 41 L433 38 L431 38 L430 39 L426 35 L426 29 L427 28 L427 27 L428 26 L428 25 L430 23 L430 22 L431 21 L431 20 L432 19 L432 18 L433 17 L433 16 L434 15 L434 12 L433 11 L431 11 L428 14 L428 17 L427 18 L427 19 L424 22 L424 23 L418 29 L417 29 L416 28 L416 27 L414 25 L414 24 L413 23 L413 21 L412 21 L411 20 L411 18 L408 18 L407 19 L404 19 L402 21 L401 20 L399 20 L398 21 L397 21 L396 22 L394 22 L393 21 L393 12 L392 11 Z " fill="black"/></svg>