<svg width="175" height="455" xmlns="http://www.w3.org/2000/svg"><path d="M122 12 L122 13 L119 16 L118 16 L118 17 L117 18 L116 18 L116 22 L115 23 L114 23 L113 22 L114 21 L114 20 L113 19 L112 19 L111 18 L108 18 L107 17 L107 16 L108 15 L107 14 L107 15 L106 16 L106 17 L105 18 L105 20 L104 21 L104 22 L103 23 L103 26 L102 27 L102 29 L101 30 L101 32 L100 33 L100 36 L99 37 L99 38 L98 39 L98 41 L97 42 L97 43 L95 45 L95 46 L94 47 L94 48 L93 49 L93 50 L92 51 L91 51 L89 49 L88 49 L87 48 L86 48 L85 47 L84 47 L83 46 L82 46 L81 45 L80 45 L79 44 L77 44 L76 43 L72 43 L71 42 L60 42 L59 43 L53 43 L52 44 L48 44 L47 45 L45 45 L44 46 L43 46 L42 47 L40 47 L38 49 L37 49 L36 50 L35 50 L32 53 L31 53 L30 54 L27 54 L25 56 L25 59 L24 60 L24 62 L25 63 L25 66 L26 67 L26 68 L27 69 L27 70 L28 71 L29 71 L30 72 L31 72 L32 73 L34 73 L35 74 L38 74 L39 75 L53 75 L54 76 L54 77 L56 79 L54 81 L53 81 L52 82 L50 82 L49 83 L47 83 L46 84 L41 84 L40 85 L37 85 L36 86 L34 86 L33 87 L32 87 L31 88 L30 88 L28 90 L27 90 L26 91 L25 91 L19 97 L19 98 L17 100 L17 101 L16 102 L16 103 L15 104 L15 105 L14 106 L14 107 L13 108 L13 119 L16 122 L32 122 L33 123 L33 125 L32 126 L32 128 L33 129 L33 130 L36 130 L37 129 L40 129 L41 128 L44 128 L45 129 L44 130 L43 130 L41 132 L40 132 L38 134 L37 134 L36 135 L35 135 L34 136 L33 136 L32 137 L31 137 L30 138 L29 138 L28 139 L27 139 L26 140 L25 140 L24 141 L23 141 L21 143 L20 143 L16 147 L16 148 L15 149 L15 150 L14 151 L14 153 L13 154 L13 164 L17 168 L19 168 L20 169 L26 169 L27 170 L25 172 L24 172 L21 175 L20 175 L15 180 L15 181 L13 183 L13 185 L12 186 L12 188 L11 189 L11 195 L12 196 L12 198 L13 199 L14 199 L16 201 L19 201 L20 202 L33 202 L34 201 L38 201 L39 200 L43 200 L44 201 L44 202 L43 203 L42 203 L40 205 L39 205 L35 209 L35 210 L29 216 L29 217 L27 219 L27 220 L26 221 L26 222 L25 223 L25 224 L24 225 L24 226 L23 227 L23 229 L22 230 L22 240 L24 242 L24 243 L26 245 L28 245 L29 246 L36 246 L37 245 L42 245 L43 246 L42 247 L42 248 L40 250 L40 251 L38 253 L38 254 L36 256 L36 263 L37 264 L37 265 L38 266 L39 266 L41 268 L42 268 L43 269 L44 269 L46 271 L41 276 L40 276 L37 279 L36 279 L27 288 L27 289 L26 290 L26 291 L25 292 L25 294 L24 295 L24 297 L23 298 L24 299 L24 300 L23 301 L23 304 L24 305 L24 307 L26 309 L26 310 L28 312 L28 313 L31 316 L36 316 L38 314 L39 314 L41 312 L42 312 L43 311 L44 311 L46 309 L47 309 L48 308 L49 308 L50 307 L51 307 L52 306 L55 306 L56 305 L59 305 L60 306 L59 307 L59 309 L58 310 L58 313 L57 314 L57 317 L54 320 L54 321 L49 326 L49 327 L47 329 L47 330 L46 331 L46 332 L45 333 L45 335 L44 336 L44 337 L43 338 L43 339 L40 342 L40 343 L38 345 L38 346 L37 347 L37 350 L36 351 L36 363 L37 364 L37 366 L38 367 L38 368 L40 370 L48 370 L49 369 L50 369 L51 370 L51 371 L50 372 L50 374 L49 375 L49 377 L48 378 L48 380 L47 381 L47 385 L46 386 L46 393 L45 394 L45 396 L46 397 L46 406 L47 407 L47 408 L48 409 L48 410 L49 411 L50 411 L51 412 L61 412 L62 411 L63 411 L64 410 L65 410 L66 411 L65 412 L65 427 L66 428 L66 431 L67 432 L67 434 L68 435 L68 436 L70 438 L71 438 L72 439 L73 439 L74 440 L77 440 L78 439 L79 439 L82 436 L82 435 L83 434 L83 433 L85 431 L89 435 L89 436 L92 439 L93 439 L97 443 L103 443 L104 442 L105 442 L107 440 L107 439 L108 438 L108 436 L109 435 L109 431 L110 430 L110 427 L111 426 L111 421 L110 420 L110 417 L111 416 L112 417 L113 417 L116 420 L117 420 L118 421 L119 421 L120 422 L125 422 L131 416 L131 415 L132 414 L132 413 L133 412 L133 409 L134 408 L134 400 L133 399 L133 395 L132 394 L132 392 L131 391 L131 390 L130 389 L130 388 L131 387 L132 387 L133 388 L135 388 L136 389 L140 389 L141 388 L143 388 L146 385 L146 383 L147 382 L147 375 L146 374 L146 368 L145 367 L145 364 L144 363 L144 362 L143 361 L143 360 L134 351 L133 351 L128 346 L127 346 L125 344 L126 343 L129 343 L130 342 L131 342 L134 339 L134 330 L133 329 L133 327 L132 326 L132 325 L127 320 L127 319 L126 318 L126 317 L125 316 L125 315 L123 313 L123 312 L122 311 L123 310 L124 310 L129 315 L130 315 L136 321 L137 321 L138 322 L142 322 L145 319 L146 319 L147 318 L147 317 L148 316 L148 315 L149 314 L149 310 L150 309 L150 295 L149 294 L149 290 L148 289 L148 286 L147 285 L147 284 L146 283 L146 282 L145 281 L145 280 L143 278 L143 277 L139 273 L139 272 L137 270 L137 269 L131 263 L133 261 L134 261 L135 262 L138 262 L139 261 L139 260 L140 259 L140 258 L139 257 L139 255 L138 254 L138 249 L137 248 L137 246 L136 245 L136 243 L135 242 L136 241 L139 241 L140 242 L152 242 L153 241 L154 241 L155 240 L156 240 L157 239 L158 239 L160 237 L160 236 L161 235 L161 234 L162 233 L162 228 L161 227 L161 224 L160 223 L160 221 L159 220 L159 218 L158 217 L158 216 L157 215 L157 214 L155 212 L155 211 L150 206 L149 206 L146 203 L146 202 L147 201 L149 201 L150 200 L151 200 L152 199 L153 199 L155 197 L155 196 L156 195 L156 193 L157 192 L157 190 L156 189 L156 188 L153 185 L153 184 L147 178 L148 177 L155 177 L156 176 L158 176 L159 175 L160 175 L160 174 L162 172 L162 171 L163 170 L163 167 L164 166 L164 164 L163 163 L163 158 L162 157 L162 156 L161 155 L161 154 L159 152 L159 151 L148 140 L151 137 L152 137 L154 135 L155 135 L156 134 L156 132 L157 131 L157 122 L156 121 L156 118 L153 115 L153 114 L148 109 L148 108 L133 93 L133 92 L134 91 L135 91 L136 92 L137 92 L138 93 L139 93 L141 95 L142 95 L144 97 L145 97 L146 98 L147 98 L148 99 L150 99 L151 100 L154 100 L155 99 L156 99 L158 97 L159 97 L160 96 L160 95 L162 93 L162 92 L163 91 L163 89 L164 88 L164 83 L163 82 L163 79 L162 78 L162 77 L161 76 L161 75 L160 74 L160 73 L158 71 L158 70 L151 63 L150 63 L149 62 L148 62 L147 61 L146 61 L144 59 L143 59 L142 58 L141 58 L140 57 L139 57 L138 56 L137 56 L136 55 L134 55 L133 54 L130 54 L129 53 L119 53 L117 55 L115 55 L114 54 L114 53 L115 52 L115 48 L116 47 L116 44 L117 43 L117 40 L118 39 L118 35 L119 34 L119 32 L120 31 L120 29 L121 28 L121 25 L122 24 L122 23 L121 22 L122 21 L122 14 L123 13 Z " fill="black"/></svg>